<svg xmlns="http://www.w3.org/2000/svg" width="147.871" height="73.739" viewBox="0 0 147.871 73.739">
  <g id="Grupo_128153" data-name="Grupo 128153" transform="translate(-660.968 -2382.859)">
    <path id="Trazado_190813" data-name="Trazado 190813" d="M0,0H147.371V73.239H0Z" transform="translate(661.218 2383.109)" fill="none" stroke="#271172" stroke-width="0.5"/>
    <path id="Trazado_190814" data-name="Trazado 190814" d="M0,0H42.839V14.582H0Z" transform="translate(707.982 2404.432)" fill="#271172"/>
    <path id="Trazado_190815" data-name="Trazado 190815" d="M0,0H42.839V12.382H0Z" transform="translate(715.48 2405.531)" fill="none" stroke="#271172" stroke-width="0.5"/>
    <path id="Trazado_190816" data-name="Trazado 190816" d="M-45.052-3.315A3.522,3.522,0,0,1-46.238-.786a4.165,4.165,0,0,1-2.82.923,3.745,3.745,0,0,1-3.011-1.289,5.284,5.284,0,0,1-1.1-3.538V-5.3a5.966,5.966,0,0,1,.506-2.529,3.791,3.791,0,0,1,1.446-1.678,4.05,4.05,0,0,1,2.184-.584,4.058,4.058,0,0,1,2.775.923,3.785,3.785,0,0,1,1.217,2.591h-2.051a2.079,2.079,0,0,0-.537-1.4,1.987,1.987,0,0,0-1.4-.434,1.742,1.742,0,0,0-1.535.735,4.118,4.118,0,0,0-.523,2.28v.752A4.408,4.408,0,0,0-50.6-2.283a1.71,1.71,0,0,0,1.542.745,2.025,2.025,0,0,0,1.418-.434A1.961,1.961,0,0,0-47.1-3.315Zm.909-.451a4.387,4.387,0,0,1,.424-1.962A3.1,3.1,0,0,1-42.5-7.062a3.56,3.56,0,0,1,1.849-.472,3.368,3.368,0,0,1,2.444.916A3.676,3.676,0,0,1-37.15-4.129l.014.506a3.866,3.866,0,0,1-.95,2.731A3.3,3.3,0,0,1-40.636.137,3.319,3.319,0,0,1-43.189-.889a3.934,3.934,0,0,1-.954-2.789Zm1.976.14a2.765,2.765,0,0,0,.4,1.612,1.308,1.308,0,0,0,1.135.558,1.311,1.311,0,0,0,1.121-.551,3.025,3.025,0,0,0,.4-1.763,2.737,2.737,0,0,0-.4-1.6A1.311,1.311,0,0,0-40.65-5.94a1.29,1.29,0,0,0-1.121.565A3.076,3.076,0,0,0-42.167-3.626Zm12.906,0a4.436,4.436,0,0,1-.776,2.738,2.488,2.488,0,0,1-2.1,1.029,2.3,2.3,0,0,1-1.812-.779V2.844h-1.976V-7.4h1.832l.068.725a2.322,2.322,0,0,1,1.873-.861A2.5,2.5,0,0,1-30.02-6.521a4.556,4.556,0,0,1,.759,2.789Zm-1.976-.151a2.927,2.927,0,0,0-.366-1.6,1.19,1.19,0,0,0-1.063-.562,1.293,1.293,0,0,0-1.278.713V-2.19a1.315,1.315,0,0,0,1.292.734Q-31.237-1.456-31.237-3.78ZM-25.953,0h-1.982V-7.4h1.982Zm-2.1-9.311a.973.973,0,0,1,.3-.731,1.117,1.117,0,0,1,.81-.287,1.12,1.12,0,0,1,.807.287.967.967,0,0,1,.3.731.97.97,0,0,1-.3.738,1.122,1.122,0,0,1-.8.287,1.122,1.122,0,0,1-.8-.287A.97.97,0,0,1-28.051-9.311ZM-20.04,0a2.194,2.194,0,0,1-.2-.663,2.39,2.39,0,0,1-1.866.8,2.626,2.626,0,0,1-1.8-.629,2.023,2.023,0,0,1-.714-1.586,2.09,2.09,0,0,1,.872-1.8,4.3,4.3,0,0,1,2.519-.636h.909v-.424a1.219,1.219,0,0,0-.263-.82,1.035,1.035,0,0,0-.831-.308,1.177,1.177,0,0,0-.783.239.813.813,0,0,0-.284.656h-1.976a1.984,1.984,0,0,1,.4-1.189,2.621,2.621,0,0,1,1.121-.858,4.086,4.086,0,0,1,1.627-.311,3.228,3.228,0,0,1,2.17.687,2.4,2.4,0,0,1,.8,1.931v3.206a3.536,3.536,0,0,0,.294,1.593V0Zm-1.634-1.374a1.7,1.7,0,0,0,.807-.195,1.28,1.28,0,0,0,.547-.523V-3.363h-.738q-1.483,0-1.579,1.025l-.007.116a.791.791,0,0,0,.26.608A1.009,1.009,0,0,0-21.673-1.374ZM-13.2,0V-9.953h3.063a4.651,4.651,0,0,1,2.348.591A4.123,4.123,0,0,1-6.176-7.68,5.187,5.187,0,0,1-5.6-5.2v.458a5.2,5.2,0,0,1-.571,2.468A4.088,4.088,0,0,1-7.776-.6a4.686,4.686,0,0,1-2.345.6Zm2.051-8.292v6.645h.991a2.227,2.227,0,0,0,1.839-.786,3.552,3.552,0,0,0,.649-2.249v-.526a3.609,3.609,0,0,0-.629-2.3,2.219,2.219,0,0,0-1.839-.783ZM-2.15,0H-4.132V-7.4H-2.15Zm-2.1-9.311a.973.973,0,0,1,.3-.731,1.117,1.117,0,0,1,.81-.287,1.12,1.12,0,0,1,.807.287.967.967,0,0,1,.3.731.97.97,0,0,1-.3.738,1.122,1.122,0,0,1-.8.287,1.122,1.122,0,0,1-.8-.287A.97.97,0,0,1-4.249-9.311ZM.017,0V-5.947h-1.1V-7.4h1.1v-.629A2.553,2.553,0,0,1,.731-9.957a2.767,2.767,0,0,1,2-.687,4.656,4.656,0,0,1,1,.136L3.715-8.989a2.519,2.519,0,0,0-.6-.062Q2-9.051,2-8v.6h1.47v1.449H2V0ZM7.735.137a3.631,3.631,0,0,1-2.649-1A3.548,3.548,0,0,1,4.064-3.521v-.191A4.468,4.468,0,0,1,4.495-5.7a3.161,3.161,0,0,1,1.22-1.354,3.425,3.425,0,0,1,1.8-.475,3.07,3.07,0,0,1,2.389.957,3.889,3.889,0,0,1,.872,2.714v.807H6.067a1.835,1.835,0,0,0,.578,1.162,1.746,1.746,0,0,0,1.22.438,2.132,2.132,0,0,0,1.784-.827L10.62-1.2a2.966,2.966,0,0,1-1.2.981A3.947,3.947,0,0,1,7.735.137ZM7.509-5.94a1.234,1.234,0,0,0-.954.4A2.062,2.062,0,0,0,6.087-4.4H8.835V-4.56A1.471,1.471,0,0,0,8.48-5.58,1.274,1.274,0,0,0,7.509-5.94Zm8.545.4a5.367,5.367,0,0,0-.711-.055,1.447,1.447,0,0,0-1.47.759V0H11.9V-7.4h1.866l.055.882a1.831,1.831,0,0,1,1.647-1.019,2.07,2.07,0,0,1,.615.089ZM20.279.137a3.631,3.631,0,0,1-2.649-1,3.548,3.548,0,0,1-1.022-2.659v-.191A4.468,4.468,0,0,1,17.039-5.7a3.161,3.161,0,0,1,1.22-1.354,3.425,3.425,0,0,1,1.8-.475,3.07,3.07,0,0,1,2.389.957,3.889,3.889,0,0,1,.872,2.714v.807h-4.71a1.835,1.835,0,0,0,.578,1.162,1.746,1.746,0,0,0,1.22.438,2.132,2.132,0,0,0,1.784-.827L23.164-1.2a2.966,2.966,0,0,1-1.2.981A3.947,3.947,0,0,1,20.279.137ZM20.053-5.94a1.234,1.234,0,0,0-.954.4,2.062,2.062,0,0,0-.468,1.14h2.748V-4.56a1.471,1.471,0,0,0-.355-1.02A1.274,1.274,0,0,0,20.053-5.94ZM26.26-7.4l.062.854a2.582,2.582,0,0,1,2.126-.991,2.146,2.146,0,0,1,1.75.69,3.221,3.221,0,0,1,.588,2.064V0H28.81V-4.741a1.287,1.287,0,0,0-.273-.915,1.222,1.222,0,0,0-.909-.284,1.359,1.359,0,0,0-1.251.713V0H24.4V-7.4Zm9.1,5.94a1.3,1.3,0,0,0,.889-.3,1.054,1.054,0,0,0,.355-.8h1.853a2.534,2.534,0,0,1-.41,1.377,2.706,2.706,0,0,1-1.1.971,3.455,3.455,0,0,1-1.548.345,3.211,3.211,0,0,1-2.5-1.008,3.99,3.99,0,0,1-.916-2.786v-.13a3.944,3.944,0,0,1,.909-2.728,3.174,3.174,0,0,1,2.5-1.019,3.111,3.111,0,0,1,2.225.79,2.8,2.8,0,0,1,.851,2.1H36.6a1.358,1.358,0,0,0-.355-.938,1.185,1.185,0,0,0-.9-.361,1.19,1.19,0,0,0-1.042.5A2.916,2.916,0,0,0,33.951-3.8V-3.6A2.953,2.953,0,0,0,34.3-1.956,1.2,1.2,0,0,0,35.359-1.456ZM41.668,0H39.686V-7.4h1.982Zm-2.1-9.311a.973.973,0,0,1,.3-.731,1.117,1.117,0,0,1,.81-.287,1.12,1.12,0,0,1,.807.287.967.967,0,0,1,.3.731.97.97,0,0,1-.3.738,1.122,1.122,0,0,1-.8.287,1.122,1.122,0,0,1-.8-.287A.97.97,0,0,1,39.57-9.311ZM47.582,0a2.194,2.194,0,0,1-.2-.663,2.39,2.39,0,0,1-1.866.8,2.626,2.626,0,0,1-1.8-.629A2.023,2.023,0,0,1,43-2.078a2.09,2.09,0,0,1,.872-1.8,4.3,4.3,0,0,1,2.519-.636H47.3v-.424a1.219,1.219,0,0,0-.263-.82,1.035,1.035,0,0,0-.831-.308,1.177,1.177,0,0,0-.783.239.813.813,0,0,0-.284.656H43.166a1.984,1.984,0,0,1,.4-1.189,2.621,2.621,0,0,1,1.121-.858,4.086,4.086,0,0,1,1.627-.311,3.228,3.228,0,0,1,2.17.687,2.4,2.4,0,0,1,.8,1.931v3.206a3.536,3.536,0,0,0,.294,1.593V0ZM45.948-1.374a1.7,1.7,0,0,0,.807-.195,1.28,1.28,0,0,0,.547-.523V-3.363h-.738q-1.483,0-1.579,1.025l-.007.116a.791.791,0,0,0,.26.608A1.009,1.009,0,0,0,45.948-1.374ZM52.886,0H50.9V-10.5h1.982Z" transform="translate(733 2450.301)" fill="#fff"/>
    <g id="Grupo_127910" data-name="Grupo 127910" transform="translate(-1 19.301)">
      <g id="Elipse_5629" data-name="Elipse 5629" transform="translate(725 2385)" fill="#fff" stroke="#ff5151" stroke-width="2">
        <circle cx="9" cy="9" r="9" stroke="none"/>
        <circle cx="9" cy="9" r="8" fill="none"/>
      </g>
      <circle id="Elipse_5630" data-name="Elipse 5630" cx="5" cy="5" r="5" transform="translate(729 2389)" fill="#ff5151"/>
    </g>
  </g>
</svg>
