<svg xmlns="http://www.w3.org/2000/svg" width="661.447" height="453.442" viewBox="0 0 661.447 453.442">
  <g id="Grupo_128718" data-name="Grupo 128718" transform="translate(-675 -1352)">
    <path id="Trazado_190905" data-name="Trazado 190905" d="M279.161,250.333H73.2l33.017-89.623H246.141Z" transform="translate(829.797 1549.035)" fill="#7553e6"/>
    <path id="Trazado_190906" data-name="Trazado 190906" d="M365.644,269.916H27.553A27.586,27.586,0,0,1,0,242.361L1.447-62.521A27.586,27.586,0,0,1,29-90.076H633.891a27.587,27.587,0,0,1,27.556,27.555L660,242.361a27.587,27.587,0,0,1-27.556,27.555M29-81.148A18.647,18.647,0,0,0,10.375-62.521L8.928,242.361a18.647,18.647,0,0,0,18.625,18.627H632.444a18.65,18.65,0,0,0,18.629-18.627l1.447-304.883a18.65,18.65,0,0,0-18.629-18.627Z" transform="translate(675 1442.076)" fill="#592fe6"/>
    <rect id="Rect치ngulo_41246" data-name="Rect치ngulo 41246" width="269.506" height="12.147" transform="translate(871 1793.295)" fill="#592fe6"/>
    <rect id="Rect치ngulo_41247" data-name="Rect치ngulo 41247" width="610" height="310" rx="10" transform="translate(701 1377)" fill="#88e0ef"/>
  </g>
</svg>
