<svg xmlns="http://www.w3.org/2000/svg" width="147.871" height="73.739" viewBox="0 0 147.871 73.739">
  <g id="Grupo_128149" data-name="Grupo 128149" transform="translate(-660.968 -2475.391)">
    <path id="Trazado_190812" data-name="Trazado 190812" d="M0,0H147.371V73.239H0Z" transform="translate(661.218 2475.641)" fill="none" stroke="#271172" stroke-width="0.5"/>
    <path id="Trazado_190813" data-name="Trazado 190813" d="M0,0H42.839V14.582H0Z" transform="translate(707.982 2496.961)" fill="#271172"/>
    <path id="Trazado_190814" data-name="Trazado 190814" d="M0,0H42.839V12.382H0Z" transform="translate(715.48 2498.059)" fill="none" stroke="#271172" stroke-width="0.5"/>
    <path id="Trazado_190808" data-name="Trazado 190808" d="M-32.167-3.315A3.522,3.522,0,0,1-33.353-.786a4.165,4.165,0,0,1-2.82.923,3.745,3.745,0,0,1-3.011-1.289,5.284,5.284,0,0,1-1.1-3.538V-5.3a5.966,5.966,0,0,1,.506-2.529,3.791,3.791,0,0,1,1.446-1.678,4.05,4.05,0,0,1,2.184-.584,4.058,4.058,0,0,1,2.775.923,3.785,3.785,0,0,1,1.217,2.591H-34.2a2.079,2.079,0,0,0-.537-1.4,1.987,1.987,0,0,0-1.4-.434,1.742,1.742,0,0,0-1.535.735,4.118,4.118,0,0,0-.523,2.28v.752a4.408,4.408,0,0,0,.489,2.358,1.71,1.71,0,0,0,1.542.745,2.025,2.025,0,0,0,1.418-.434,1.961,1.961,0,0,0,.537-1.343Zm.909-.451a4.387,4.387,0,0,1,.424-1.962,3.1,3.1,0,0,1,1.22-1.333,3.56,3.56,0,0,1,1.849-.472,3.368,3.368,0,0,1,2.444.916,3.676,3.676,0,0,1,1.056,2.488l.014.506A3.866,3.866,0,0,1-25.2-.892,3.3,3.3,0,0,1-27.75.137,3.319,3.319,0,0,1-30.3-.889a3.934,3.934,0,0,1-.954-2.789Zm1.976.14a2.765,2.765,0,0,0,.4,1.612,1.308,1.308,0,0,0,1.135.558,1.311,1.311,0,0,0,1.121-.551,3.025,3.025,0,0,0,.4-1.763,2.737,2.737,0,0,0-.4-1.6,1.311,1.311,0,0,0-1.135-.568,1.29,1.29,0,0,0-1.121.565A3.076,3.076,0,0,0-29.282-3.626Zm12.906,0a4.436,4.436,0,0,1-.776,2.738,2.488,2.488,0,0,1-2.1,1.029,2.3,2.3,0,0,1-1.812-.779V2.844h-1.976V-7.4H-21.2l.068.725a2.322,2.322,0,0,1,1.873-.861,2.5,2.5,0,0,1,2.126,1.012,4.556,4.556,0,0,1,.759,2.789Zm-1.976-.151a2.927,2.927,0,0,0-.366-1.6A1.19,1.19,0,0,0-19.78-5.94a1.293,1.293,0,0,0-1.278.713V-2.19a1.315,1.315,0,0,0,1.292.734Q-18.351-1.456-18.351-3.78ZM-13.067,0h-1.982V-7.4h1.982Zm-2.1-9.311a.973.973,0,0,1,.3-.731,1.117,1.117,0,0,1,.81-.287,1.12,1.12,0,0,1,.807.287.967.967,0,0,1,.3.731.97.97,0,0,1-.3.738,1.122,1.122,0,0,1-.8.287,1.122,1.122,0,0,1-.8-.287A.97.97,0,0,1-15.166-9.311ZM-7.154,0a2.194,2.194,0,0,1-.2-.663,2.39,2.39,0,0,1-1.866.8,2.626,2.626,0,0,1-1.8-.629,2.023,2.023,0,0,1-.714-1.586,2.09,2.09,0,0,1,.872-1.8,4.3,4.3,0,0,1,2.519-.636h.909v-.424a1.219,1.219,0,0,0-.263-.82,1.035,1.035,0,0,0-.831-.308,1.177,1.177,0,0,0-.783.239.813.813,0,0,0-.284.656H-11.57a1.984,1.984,0,0,1,.4-1.189,2.621,2.621,0,0,1,1.121-.858,4.086,4.086,0,0,1,1.627-.311,3.228,3.228,0,0,1,2.17.687,2.4,2.4,0,0,1,.8,1.931v3.206A3.536,3.536,0,0,0-5.158-.116V0ZM-8.788-1.374a1.7,1.7,0,0,0,.807-.195,1.28,1.28,0,0,0,.547-.523V-3.363h-.738q-1.483,0-1.579,1.025l-.007.116a.791.791,0,0,0,.26.608A1.009,1.009,0,0,0-8.788-1.374ZM5.67-4.327H1.733v2.68H6.354V0H-.318V-9.953H6.34v1.661H1.733V-5.92H5.67Zm5.763,2.283a.637.637,0,0,0-.359-.571,4.077,4.077,0,0,0-1.152-.373Q7.284-3.541,7.284-5.229A2.032,2.032,0,0,1,8.1-6.874a3.3,3.3,0,0,1,2.136-.66,3.547,3.547,0,0,1,2.252.663,2.09,2.09,0,0,1,.844,1.723H11.358a.956.956,0,0,0-.273-.7,1.157,1.157,0,0,0-.854-.277,1.182,1.182,0,0,0-.772.226.712.712,0,0,0-.273.574A.609.609,0,0,0,9.5-4.8a3.2,3.2,0,0,0,1.049.349,8.571,8.571,0,0,1,1.244.332,2.044,2.044,0,0,1,1.565,1.989,1.929,1.929,0,0,1-.868,1.637,3.745,3.745,0,0,1-2.242.625A3.912,3.912,0,0,1,8.593-.195,2.77,2.77,0,0,1,7.461-1.1a2.113,2.113,0,0,1-.41-1.248H8.924a1.031,1.031,0,0,0,.39.807,1.546,1.546,0,0,0,.971.28,1.43,1.43,0,0,0,.858-.215A.67.67,0,0,0,11.433-2.044ZM21.284-3.63a4.436,4.436,0,0,1-.776,2.738,2.488,2.488,0,0,1-2.1,1.029A2.3,2.3,0,0,1,16.6-.643V2.844H14.625V-7.4h1.832l.068.725A2.322,2.322,0,0,1,18.4-7.533a2.5,2.5,0,0,1,2.126,1.012,4.556,4.556,0,0,1,.759,2.789ZM19.308-3.78a2.927,2.927,0,0,0-.366-1.6,1.19,1.19,0,0,0-1.063-.562,1.293,1.293,0,0,0-1.278.713V-2.19a1.315,1.315,0,0,0,1.292.734Q19.308-1.456,19.308-3.78Zm6.6,3.917a3.631,3.631,0,0,1-2.649-1,3.548,3.548,0,0,1-1.022-2.659v-.191A4.468,4.468,0,0,1,22.671-5.7a3.161,3.161,0,0,1,1.22-1.354,3.425,3.425,0,0,1,1.8-.475,3.07,3.07,0,0,1,2.389.957,3.889,3.889,0,0,1,.872,2.714v.807h-4.71a1.835,1.835,0,0,0,.578,1.162,1.746,1.746,0,0,0,1.22.438,2.132,2.132,0,0,0,1.784-.827L28.8-1.2a2.966,2.966,0,0,1-1.2.981A3.947,3.947,0,0,1,25.912.137ZM25.686-5.94a1.234,1.234,0,0,0-.954.4,2.062,2.062,0,0,0-.468,1.14h2.748V-4.56a1.471,1.471,0,0,0-.355-1.02A1.274,1.274,0,0,0,25.686-5.94ZM32.167-7.4V.4a2.646,2.646,0,0,1-.649,1.9,2.468,2.468,0,0,1-1.873.68,4.017,4.017,0,0,1-.978-.116V1.306a3.708,3.708,0,0,0,.622.062q.9,0,.9-.95V-7.4Zm-2.14-1.914a.973.973,0,0,1,.3-.731,1.117,1.117,0,0,1,.81-.287,1.117,1.117,0,0,1,.81.287.973.973,0,0,1,.3.731.97.97,0,0,1-.3.738,1.122,1.122,0,0,1-.8.287,1.122,1.122,0,0,1-.8-.287A.97.97,0,0,1,30.027-9.311ZM33.4-3.767a4.387,4.387,0,0,1,.424-1.962,3.1,3.1,0,0,1,1.22-1.333A3.56,3.56,0,0,1,36.9-7.533a3.368,3.368,0,0,1,2.444.916A3.676,3.676,0,0,1,40.4-4.129l.014.506a3.866,3.866,0,0,1-.95,2.731A3.3,3.3,0,0,1,36.911.137,3.319,3.319,0,0,1,34.357-.889,3.934,3.934,0,0,1,33.4-3.678Zm1.976.14a2.765,2.765,0,0,0,.4,1.612,1.308,1.308,0,0,0,1.135.558,1.311,1.311,0,0,0,1.121-.551,3.025,3.025,0,0,0,.4-1.763,2.737,2.737,0,0,0-.4-1.6A1.311,1.311,0,0,0,36.9-5.94a1.29,1.29,0,0,0-1.121.565A3.076,3.076,0,0,0,35.379-3.626Z" transform="translate(733 2541.301)" fill="#fff"/>
    <g id="Trazado_190815" data-name="Trazado 190815" transform="translate(724 2495.301)" fill="#fff">
      <path d="M 9 17 C 4.588789939880371 17 1 13.41121006011963 1 9 C 1 4.588789939880371 4.588789939880371 1 9 1 C 13.41121006011963 1 17 4.588789939880371 17 9 C 17 13.41121006011963 13.41121006011963 17 9 17 Z" stroke="none"/>
      <path d="M 9 2 C 5.140190124511719 2 2 5.140190124511719 2 9 C 2 12.85980987548828 5.140190124511719 16 9 16 C 12.85980987548828 16 16 12.85980987548828 16 9 C 16 5.140190124511719 12.85980987548828 2 9 2 M 9 0 C 13.97056007385254 0 18 4.029439926147461 18 9 C 18 13.97056007385254 13.97056007385254 18 9 18 C 4.029439926147461 18 0 13.97056007385254 0 9 C 0 4.029439926147461 4.029439926147461 0 9 0 Z" stroke="none" fill="#ff5151"/>
    </g>
    <path id="Trazado_190816" data-name="Trazado 190816" d="M5,0A5,5,0,1,1,0,5,5,5,0,0,1,5,0Z" transform="translate(728 2499.301)" fill="#ff5151"/>
  </g>
</svg>
