<svg xmlns="http://www.w3.org/2000/svg" width="147.871" height="73.739" viewBox="0 0 147.871 73.739">
  <g id="Grupo_128150" data-name="Grupo 128150" transform="translate(-660.968 -2292)">
    <path id="Trazado_190809" data-name="Trazado 190809" d="M0,0H147.371V73.239H0Z" transform="translate(661.218 2292.25)" fill="none" stroke="#271172" stroke-width="0.5"/>
    <path id="Trazado_190811" data-name="Trazado 190811" d="M0,0H42.839V14.582H0Z" transform="translate(707.982 2313.574)" fill="#271172"/>
    <path id="Trazado_190812" data-name="Trazado 190812" d="M0,0H42.839V12.382H0Z" transform="translate(715.48 2314.672)" fill="none" stroke="#271172" stroke-width="0.5"/>
    <path id="Trazado_190810" data-name="Trazado 190810" d="M-48.75-3.315A3.522,3.522,0,0,1-49.937-.786a4.165,4.165,0,0,1-2.82.923,3.745,3.745,0,0,1-3.011-1.289,5.284,5.284,0,0,1-1.1-3.538V-5.3a5.966,5.966,0,0,1,.506-2.529,3.791,3.791,0,0,1,1.446-1.678,4.05,4.05,0,0,1,2.184-.584,4.058,4.058,0,0,1,2.775.923,3.785,3.785,0,0,1,1.217,2.591h-2.051a2.079,2.079,0,0,0-.537-1.4,1.987,1.987,0,0,0-1.4-.434,1.742,1.742,0,0,0-1.535.735,4.118,4.118,0,0,0-.523,2.28v.752A4.408,4.408,0,0,0-54.3-2.283a1.71,1.71,0,0,0,1.542.745,2.025,2.025,0,0,0,1.418-.434A1.961,1.961,0,0,0-50.8-3.315Zm.909-.451a4.387,4.387,0,0,1,.424-1.962A3.1,3.1,0,0,1-46.2-7.062a3.56,3.56,0,0,1,1.849-.472,3.368,3.368,0,0,1,2.444.916,3.676,3.676,0,0,1,1.056,2.488l.014.506a3.866,3.866,0,0,1-.95,2.731A3.3,3.3,0,0,1-44.334.137,3.319,3.319,0,0,1-46.888-.889a3.934,3.934,0,0,1-.954-2.789Zm1.976.14a2.765,2.765,0,0,0,.4,1.612,1.308,1.308,0,0,0,1.135.558,1.311,1.311,0,0,0,1.121-.551,3.025,3.025,0,0,0,.4-1.763,2.737,2.737,0,0,0-.4-1.6,1.311,1.311,0,0,0-1.135-.568,1.29,1.29,0,0,0-1.121.565A3.076,3.076,0,0,0-45.866-3.626Zm12.906,0a4.436,4.436,0,0,1-.776,2.738,2.488,2.488,0,0,1-2.1,1.029,2.3,2.3,0,0,1-1.812-.779V2.844h-1.976V-7.4h1.832l.068.725a2.322,2.322,0,0,1,1.873-.861,2.5,2.5,0,0,1,2.126,1.012,4.556,4.556,0,0,1,.759,2.789Zm-1.976-.151a2.927,2.927,0,0,0-.366-1.6,1.19,1.19,0,0,0-1.063-.562,1.293,1.293,0,0,0-1.278.713V-2.19a1.315,1.315,0,0,0,1.292.734Q-34.935-1.456-34.935-3.78ZM-29.651,0h-1.982V-7.4h1.982Zm-2.1-9.311a.973.973,0,0,1,.3-.731,1.117,1.117,0,0,1,.81-.287,1.12,1.12,0,0,1,.807.287.967.967,0,0,1,.3.731.97.97,0,0,1-.3.738,1.122,1.122,0,0,1-.8.287,1.122,1.122,0,0,1-.8-.287A.97.97,0,0,1-31.75-9.311ZM-23.738,0a2.194,2.194,0,0,1-.2-.663,2.39,2.39,0,0,1-1.866.8,2.626,2.626,0,0,1-1.8-.629,2.023,2.023,0,0,1-.714-1.586,2.09,2.09,0,0,1,.872-1.8,4.3,4.3,0,0,1,2.519-.636h.909v-.424a1.219,1.219,0,0,0-.263-.82,1.035,1.035,0,0,0-.831-.308,1.177,1.177,0,0,0-.783.239.813.813,0,0,0-.284.656h-1.976a1.984,1.984,0,0,1,.4-1.189,2.621,2.621,0,0,1,1.121-.858,4.086,4.086,0,0,1,1.627-.311,3.228,3.228,0,0,1,2.17.687,2.4,2.4,0,0,1,.8,1.931v3.206a3.536,3.536,0,0,0,.294,1.593V0Zm-1.634-1.374a1.7,1.7,0,0,0,.807-.195,1.28,1.28,0,0,0,.547-.523V-3.363h-.738q-1.483,0-1.579,1.025l-.007.116a.791.791,0,0,0,.26.608A1.009,1.009,0,0,0-25.372-1.374ZM-14.721,0h-2.051V-9.953h2.051Zm3.589-7.4.062.854a2.582,2.582,0,0,1,2.126-.991,2.146,2.146,0,0,1,1.75.69,3.221,3.221,0,0,1,.588,2.064V0H-8.583V-4.741a1.287,1.287,0,0,0-.273-.915,1.222,1.222,0,0,0-.909-.284,1.359,1.359,0,0,0-1.251.713V0h-1.976V-7.4Zm9.1,5.94a1.3,1.3,0,0,0,.889-.3,1.054,1.054,0,0,0,.355-.8H1.063a2.534,2.534,0,0,1-.41,1.377,2.706,2.706,0,0,1-1.1.971A3.455,3.455,0,0,1-2,.137,3.211,3.211,0,0,1-4.5-.872a3.99,3.99,0,0,1-.916-2.786v-.13a3.944,3.944,0,0,1,.909-2.728,3.174,3.174,0,0,1,2.5-1.019,3.111,3.111,0,0,1,2.225.79,2.8,2.8,0,0,1,.851,2.1H-.79a1.358,1.358,0,0,0-.355-.938,1.185,1.185,0,0,0-.9-.361,1.19,1.19,0,0,0-1.042.5A2.916,2.916,0,0,0-3.442-3.8V-3.6a2.953,2.953,0,0,0,.349,1.643A1.2,1.2,0,0,0-2.034-1.456ZM6.347-5.544A5.367,5.367,0,0,0,5.636-5.6a1.447,1.447,0,0,0-1.47.759V0H2.191V-7.4H4.057l.055.882A1.831,1.831,0,0,1,5.759-7.533a2.07,2.07,0,0,1,.615.089ZM10.572.137a3.631,3.631,0,0,1-2.649-1A3.548,3.548,0,0,1,6.9-3.521v-.191A4.468,4.468,0,0,1,7.332-5.7a3.161,3.161,0,0,1,1.22-1.354,3.425,3.425,0,0,1,1.8-.475,3.07,3.07,0,0,1,2.389.957,3.889,3.889,0,0,1,.872,2.714v.807H8.9a1.835,1.835,0,0,0,.578,1.162,1.746,1.746,0,0,0,1.22.438,2.132,2.132,0,0,0,1.784-.827L13.457-1.2a2.966,2.966,0,0,1-1.2.981A3.947,3.947,0,0,1,10.572.137ZM10.346-5.94a1.234,1.234,0,0,0-.954.4A2.062,2.062,0,0,0,8.924-4.4h2.748V-4.56a1.471,1.471,0,0,0-.355-1.02A1.274,1.274,0,0,0,10.346-5.94ZM16.587-7.4l.062.827a2.6,2.6,0,0,1,2.126-.964,1.973,1.973,0,0,1,1.962,1.128,2.54,2.54,0,0,1,2.222-1.128,2.206,2.206,0,0,1,1.791.7,3.221,3.221,0,0,1,.588,2.109V0H23.355V-4.728a1.414,1.414,0,0,0-.246-.922,1.089,1.089,0,0,0-.868-.291,1.233,1.233,0,0,0-1.23.85L21.017,0H19.042V-4.721a1.4,1.4,0,0,0-.253-.932,1.1,1.1,0,0,0-.861-.288,1.28,1.28,0,0,0-1.217.7V0H14.735V-7.4ZM30.259.137a3.631,3.631,0,0,1-2.649-1,3.548,3.548,0,0,1-1.022-2.659v-.191A4.468,4.468,0,0,1,27.019-5.7a3.161,3.161,0,0,1,1.22-1.354,3.425,3.425,0,0,1,1.8-.475,3.07,3.07,0,0,1,2.389.957A3.889,3.889,0,0,1,33.3-3.862v.807h-4.71a1.835,1.835,0,0,0,.578,1.162,1.746,1.746,0,0,0,1.22.438,2.132,2.132,0,0,0,1.784-.827L33.144-1.2a2.966,2.966,0,0,1-1.2.981A3.947,3.947,0,0,1,30.259.137ZM30.034-5.94a1.234,1.234,0,0,0-.954.4,2.062,2.062,0,0,0-.468,1.14H31.36V-4.56A1.471,1.471,0,0,0,31-5.58,1.274,1.274,0,0,0,30.034-5.94ZM36.241-7.4l.062.854a2.582,2.582,0,0,1,2.126-.991,2.146,2.146,0,0,1,1.75.69,3.221,3.221,0,0,1,.588,2.064V0H38.791V-4.741a1.287,1.287,0,0,0-.273-.915,1.222,1.222,0,0,0-.909-.284,1.359,1.359,0,0,0-1.251.713V0H34.381V-7.4Zm8.388-1.818V-7.4h1.265v1.449H44.628v3.691a.881.881,0,0,0,.157.588.79.79,0,0,0,.6.178,3.151,3.151,0,0,0,.581-.048v1.5a4.067,4.067,0,0,1-1.2.178,1.886,1.886,0,0,1-2.119-2.1V-5.947h-1.08V-7.4h1.08V-9.215ZM51.28,0a2.194,2.194,0,0,1-.2-.663,2.39,2.39,0,0,1-1.866.8,2.626,2.626,0,0,1-1.8-.629A2.023,2.023,0,0,1,46.7-2.078a2.09,2.09,0,0,1,.872-1.8,4.3,4.3,0,0,1,2.519-.636H51v-.424a1.219,1.219,0,0,0-.263-.82,1.035,1.035,0,0,0-.831-.308,1.177,1.177,0,0,0-.783.239.813.813,0,0,0-.284.656H46.864a1.984,1.984,0,0,1,.4-1.189,2.621,2.621,0,0,1,1.121-.858,4.086,4.086,0,0,1,1.627-.311,3.228,3.228,0,0,1,2.17.687,2.4,2.4,0,0,1,.8,1.931v3.206a3.536,3.536,0,0,0,.294,1.593V0ZM49.646-1.374a1.7,1.7,0,0,0,.807-.195A1.28,1.28,0,0,0,51-2.092V-3.363h-.738q-1.483,0-1.579,1.025l-.007.116a.791.791,0,0,0,.26.608A1.009,1.009,0,0,0,49.646-1.374ZM56.584,0H54.6V-10.5h1.982Z" transform="translate(733 2357.301)" fill="#fff"/>
    <g id="Grupo_127909" data-name="Grupo 127909" transform="translate(-1 -73.699)">
      <g id="Elipse_5629" data-name="Elipse 5629" transform="translate(725 2385)" fill="#fff" stroke="#ff5151" stroke-width="2">
        <circle cx="9" cy="9" r="9" stroke="none"/>
        <circle cx="9" cy="9" r="8" fill="none"/>
      </g>
      <circle id="Elipse_5630" data-name="Elipse 5630" cx="5" cy="5" r="5" transform="translate(729 2389)" fill="#ff5151"/>
    </g>
  </g>
</svg>
