<svg id="Grupo_128261" data-name="Grupo 128261" xmlns="http://www.w3.org/2000/svg" xmlns:xlink="http://www.w3.org/1999/xlink" width="70.974" height="71.007" viewBox="0 0 70.974 71.007">
  <defs>
    <clipPath id="clip-path">
      <rect id="Rectángulo_41254" data-name="Rectángulo 41254" width="70.974" height="71.007" fill="none"/>
    </clipPath>
  </defs>
  <g id="Grupo_128260" data-name="Grupo 128260" clip-path="url(#clip-path)">
    <path id="Trazado_190911" data-name="Trazado 190911" d="M29.941,0c1.929.4,3.2,1.749,4.511,3.073,3.379,3.416,6.8,6.793,10.181,10.2a5.53,5.53,0,0,1-.292,8.312,5.211,5.211,0,0,1-4.329,1.185,1.039,1.039,0,0,0-1.089.35c-.361.415-.787.774-1.209,1.182a4.227,4.227,0,0,1,2.353,4.077,3.7,3.7,0,0,1-.845,2.224c-.258.312-.194.454.085.7q9.878,8.594,19.74,17.206c2.992,2.61,6.007,5.194,8.967,7.84A8.306,8.306,0,1,1,56.45,68.222c-4.386-4.969-8.714-9.989-13.066-14.988q-6.049-6.951-12.1-13.9c-.145-.167-.219-.417-.579-.186-2.539,1.631-4.583,1.191-6.463-1.444-.467.508-.9,1.014-1.376,1.485-.232.231-.147.465-.113.706a5.532,5.532,0,0,1-9.386,4.845Q7.462,38.884,1.608,32.977a5.433,5.433,0,0,1-1.367-2.3C.193,30.526.233,30.3,0,30.228V28.009c.107-.025.121-.112.15-.2.991-3.149,3.289-4.616,6.53-4.14a.666.666,0,0,0,.639-.284q8.028-8.028,16.06-16.052a.839.839,0,0,0,.236-.845,5.472,5.472,0,0,1,1.7-5.021A7.389,7.389,0,0,1,28.139,0Zm6.948,21.232c-.143-.151-.249-.269-.361-.382Q31.042,15.359,25.564,9.86c-.368-.372-.546-.284-.86.035-1.8,1.827-3.619,3.633-5.432,5.446q-4.68,4.68-9.363,9.356c-.292.291-.466.463-.068.859q5.538,5.487,11.028,11.023c.266.267.424.32.7.015.546-.6,1.136-1.15,1.707-1.722L36.459,21.687c.141-.142.275-.291.43-.455M37,32.984a3.165,3.165,0,0,0-.276.218c-1.177,1.174-2.345,2.356-3.532,3.52-.269.264-.135.417.048.627Q40.38,45.54,47.5,53.746c.357.413.516.249.79-.027,1.756-1.77,3.507-3.545,5.3-5.282.437-.424.452-.631-.021-1.041q-8.131-7.05-16.229-14.139c-.1-.089-.212-.169-.343-.273M62.283,68.216A5.785,5.785,0,0,0,67.8,64.711a5.379,5.379,0,0,0-1.3-5.984C64.634,57,62.689,55.37,60.785,53.691a.439.439,0,0,0-.708.005q-3.225,3.241-6.466,6.466c-.2.2-.24.339-.035.572,1.711,1.937,3.384,3.909,5.124,5.82a5.092,5.092,0,0,0,3.583,1.662M43.561,17.237a2.581,2.581,0,0,0-.862-1.957Q36.909,9.505,31.132,3.718a2.734,2.734,0,0,0-4.058-.087,2.8,2.8,0,0,0,.19,4.023q2.517,2.529,5.045,5.049c2.172,2.173,4.337,4.353,6.52,6.514a2.659,2.659,0,0,0,3.051.651,2.7,2.7,0,0,0,1.681-2.632M17.332,43.578a2.741,2.741,0,0,0,1.915-4.7Q13.38,32.985,7.489,27.116a2.754,2.754,0,0,0-3.873-.021,2.7,2.7,0,0,0-.029,3.911Q9.45,36.9,15.338,42.773a2.581,2.581,0,0,0,1.994.8m9.4-7.708a1.311,1.311,0,0,0,.83,1.333,1.35,1.35,0,0,0,1.574-.37q3.84-3.848,7.683-7.694a1.358,1.358,0,0,0,.07-2.025,1.411,1.411,0,0,0-2.04.1q-3.828,3.811-7.642,7.638a1.326,1.326,0,0,0-.476,1.015M58.2,51.515a3.5,3.5,0,0,0-.255-.277c-.429-.384-.891-.736-1.288-1.151-.33-.345-.53-.266-.83.038-1.552,1.579-3.132,3.131-4.686,4.708-.464.471-1.314.89-1.273,1.447.046.619.82,1.105,1.282,1.646.265.31.448.361.765.04,1.993-2.019,4.006-4.019,6.009-6.027.11-.111.259-.2.276-.424" fill="#020202"/>
    <path id="Trazado_190912" data-name="Trazado 190912" d="M0,305.9c.15-.032.134-.162.16-.268a6.91,6.91,0,0,1,3.2-4.414c.3-.18.28-.288.126-.57a4.832,4.832,0,0,1,4.383-7.364q11.538-.007,23.076,0a4.836,4.836,0,0,1,4.368,7.375c-.173.318-.1.4.154.566,2.735,1.731,3.563,4.33,3.332,7.4a1.378,1.378,0,0,1-1.307,1.29c-.183.016-.369.008-.554.008q-17.532,0-35.064.014A1.879,1.879,0,0,1,0,308.955Zm19.419,1.248H35.283c.835,0,.835,0,.66-.8A4.1,4.1,0,0,0,31.791,303q-12.366-.008-24.731,0a4.154,4.154,0,0,0-4.215,3.386c-.148.633,0,.787.64.785,5.311-.024,10.622-.013,15.933-.013M19.4,296.06q-5.785,0-11.57,0a2.088,2.088,0,1,0,0,4.156q11.536.006,23.071,0a2.1,2.1,0,1,0,0-4.157q-5.75,0-11.5,0" transform="translate(0 -238.932)" fill="#010101"/>
    <path id="Trazado_190913" data-name="Trazado 190913" d="M79.126,63.506c-.155.164-.288.313-.43.455L65.518,77.145c-.572.572-1.161,1.127-1.707,1.722-.28.3-.437.252-.7-.015q-5.5-5.526-11.028-11.023c-.4-.4-.225-.567.068-.858q4.69-4.67,9.363-9.356c1.813-1.813,3.633-3.62,5.432-5.446.314-.319.491-.407.86-.035q5.463,5.513,10.963,10.99c.112.112.219.231.361.382m-10.37-5.7a1.385,1.385,0,0,0-.83-1.437,1.356,1.356,0,0,0-1.581.339q-2.862,2.859-5.718,5.724a1.39,1.39,0,1,0,1.96,1.953c1.9-1.882,3.783-3.78,5.674-5.67a1.419,1.419,0,0,0,.495-.909M57.552,68.8a1.387,1.387,0,0,0,1.422-1.371,1.414,1.414,0,0,0-1.357-1.379,1.371,1.371,0,0,0-1.4,1.383A1.344,1.344,0,0,0,57.552,68.8" transform="translate(-42.238 -42.274)" fill="#ff9b6a"/>
    <path id="Trazado_190914" data-name="Trazado 190914" d="M182.23,177.98c.131.1.241.184.343.273q8.11,7.074,16.229,14.139c.473.41.458.616.021,1.041-1.789,1.736-3.539,3.512-5.3,5.282-.274.277-.433.44-.79.027q-7.112-8.217-14.266-16.4c-.183-.21-.317-.363-.048-.627,1.186-1.164,2.355-2.347,3.531-3.52a3.193,3.193,0,0,1,.276-.218" transform="translate(-145.234 -144.996)" fill="#90542c"/>
    <path id="Trazado_190915" data-name="Trazado 190915" d="M297.2,303.464a5.092,5.092,0,0,1-3.583-1.662c-1.739-1.911-3.413-3.883-5.123-5.82-.206-.233-.165-.373.035-.572q3.24-3.226,6.466-6.466a.439.439,0,0,1,.708-.005c1.9,1.679,3.849,3.312,5.712,5.035a5.38,5.38,0,0,1,1.3,5.984,5.786,5.786,0,0,1-5.514,3.505" transform="translate(-234.921 -235.248)" fill="#90542c"/>
    <path id="Trazado_190916" data-name="Trazado 190916" d="M159.218,29.422a2.7,2.7,0,0,1-1.681,2.632,2.659,2.659,0,0,1-3.051-.651c-2.183-2.161-4.348-4.341-6.52-6.514q-2.523-2.524-5.045-5.049a2.8,2.8,0,0,1-.19-4.023,2.734,2.734,0,0,1,4.058.087q5.788,5.776,11.567,11.561a2.581,2.581,0,0,1,.862,1.957" transform="translate(-115.657 -12.185)" fill="#90542c"/>
    <path id="Trazado_190917" data-name="Trazado 190917" d="M29.488,159.235a2.582,2.582,0,0,1-1.994-.8q-5.873-5.886-11.751-11.768a2.7,2.7,0,0,1,.029-3.911,2.754,2.754,0,0,1,3.873.021q5.895,5.865,11.758,11.761a2.742,2.742,0,0,1-1.915,4.7" transform="translate(-12.156 -115.657)" fill="#90542c"/>
    <path id="Trazado_190918" data-name="Trazado 190918" d="M144.215,153.356a1.326,1.326,0,0,1,.476-1.015q3.823-3.817,7.641-7.638a1.411,1.411,0,0,1,2.04-.1,1.358,1.358,0,0,1-.071,2.025q-3.833,3.856-7.683,7.694a1.349,1.349,0,0,1-1.574.37,1.311,1.311,0,0,1-.83-1.334" transform="translate(-117.486 -117.486)" fill="#90542c"/>
    <path id="Trazado_190919" data-name="Trazado 190919" d="M277.424,270.7c-.017.224-.166.314-.276.424-2,2.008-4.017,4.008-6.009,6.027-.317.321-.5.271-.765-.04-.461-.541-1.236-1.027-1.281-1.646-.041-.557.809-.976,1.273-1.447,1.554-1.577,3.134-3.129,4.686-4.708.3-.3.5-.383.83-.038.4.415.859.767,1.288,1.151a3.5,3.5,0,0,1,.255.277" transform="translate(-219.222 -219.19)" fill="#ff9b6a"/>
    <path id="Trazado_190920" data-name="Trazado 190920" d="M31.7,349.824c-5.311,0-10.622-.01-15.933.013-.645,0-.789-.152-.64-.785a4.154,4.154,0,0,1,4.214-3.386q12.366-.006,24.731,0a4.1,4.1,0,0,1,4.152,3.362c.175.793.175.8-.66.8H31.7" transform="translate(-12.276 -281.603)" fill="#90542c"/>
    <path id="Trazado_190921" data-name="Trazado 190921" d="M43.785,308.257q5.75,0,11.5,0a2.1,2.1,0,1,1,0,4.157q-11.536,0-23.071,0a2.088,2.088,0,1,1,0-4.156q5.785-.006,11.57,0" transform="translate(-24.382 -251.129)" fill="#90542c"/>
    <path id="Trazado_190922" data-name="Trazado 190922" d="M105.108,76.94a1.42,1.42,0,0,1-.495.909c-1.891,1.89-3.775,3.788-5.674,5.67a1.39,1.39,0,1,1-1.96-1.953q2.847-2.874,5.718-5.724a1.356,1.356,0,0,1,1.581-.339,1.386,1.386,0,0,1,.83,1.437" transform="translate(-78.589 -61.41)" fill="#020202"/>
    <path id="Trazado_190923" data-name="Trazado 190923" d="M76.754,131.024a1.344,1.344,0,0,1-1.337-1.367,1.371,1.371,0,0,1,1.4-1.383,1.414,1.414,0,0,1,1.357,1.379,1.387,1.387,0,0,1-1.422,1.371" transform="translate(-61.44 -104.501)" fill="#020202"/>
  </g>
</svg>
