<svg id="Grupo_126830" data-name="Grupo 126830" xmlns="http://www.w3.org/2000/svg" xmlns:xlink="http://www.w3.org/1999/xlink" width="83.781" height="76.445" viewBox="0 0 83.781 76.445">
  <defs>
    <clipPath id="clip-path">
      <rect id="Rectángulo_40255" data-name="Rectángulo 40255" width="83.781" height="76.445" fill="none"/>
    </clipPath>
  </defs>
  <g id="Grupo_126829" data-name="Grupo 126829" clip-path="url(#clip-path)">
    <path id="Trazado_188461" data-name="Trazado 188461" d="M0,6.15c.249-.072.187-.313.236-.475A7.558,7.558,0,0,1,7.8,0h.082Q41.875,0,75.866,0a7.549,7.549,0,0,1,7.658,5.645,8.047,8.047,0,0,1,.257,2.1q0,21.271-.006,42.542a7.526,7.526,0,0,1-7.761,7.73q-9.653.013-19.306-.011c-.585,0-.785.1-.769.739.05,1.962.041,3.927,0,5.89-.011.58.163.713.725.705,2.4-.033,4.8-.006,7.2-.017a7.645,7.645,0,0,1,3.565.733,5.453,5.453,0,0,1,3.344,5.254c-.02,1.063,0,2.127,0,3.19,0,1.582-.354,1.939-1.911,1.94H15.032c-1.7,0-2.024-.321-2.026-1.988q0-1.473,0-2.945a5.8,5.8,0,0,1,4.683-5.95,9.586,9.586,0,0,1,2.352-.231c2.372,0,4.745-.017,7.117.012.53.007.685-.129.676-.669-.033-1.99-.04-3.982,0-5.972.013-.605-.191-.692-.733-.69-6.3.019-12.6.012-18.9.012-4.152,0-6.667-1.81-7.993-5.752-.041-.122-.036-.277-.214-.3ZM41.871,73.762c.3.021.594.06.89.06q9.241.006,18.483,0c2.072,0,4.144-.016,6.215.011.518.007.743-.11.7-.673-.047-.678-.022-1.363-.009-2.044a2.7,2.7,0,0,0-1.321-2.389,5.183,5.183,0,0,0-3.033-.782q-10.591.013-21.181.006c-.243,0-.486.032-.73.049-.162-.014-.324-.039-.486-.039q-10.8,0-21.593,0a8.373,8.373,0,0,0-.9.044,3.332,3.332,0,0,0-3.272,3.615,9.832,9.832,0,0,1-.011,1.307c-.1.731.175.9.892.9,8.206-.027,16.413-.017,24.619-.019.243,0,.486-.032.73-.049m.01-18.388c.272.01.544.029.816.029q16.522,0,33.044,0c3.414,0,5.418-2.013,5.418-5.444q0-20.94,0-41.88c0-3.472-2-5.454-5.491-5.454q-16.44,0-32.88,0c-.3,0-.593.04-.89.061a4.42,4.42,0,0,0-.483-.052q-16.847,0-33.694,0A4.883,4.883,0,0,0,2.627,7.823q-.007,21.142,0,42.283A4.941,4.941,0,0,0,7.944,55.4q12.676,0,25.352,0c2.862,0,5.723-.015,8.585-.023m.035,2.664v-.015c-3.624,0-7.248.012-10.872-.014-.532,0-.621.171-.615.649q.038,3.025,0,6.049c-.008.514.152.635.646.634q10.79-.034,21.58-.023c.533,0,.689-.146.679-.686-.034-1.934-.039-3.87,0-5.8.014-.628-.138-.815-.793-.808-3.542.035-7.085.017-10.627.017" transform="translate(0 0)" fill="#040404"/>
    <path id="Trazado_188462" data-name="Trazado 188462" d="M191.526,12.067c.3-.021.593-.061.89-.061q16.44-.005,32.88,0c3.5,0,5.491,1.982,5.491,5.454q0,20.94,0,41.88c0,3.431-2,5.444-5.418,5.445q-16.522,0-33.044,0c-.272,0-.544-.019-.816-.029q0-3.9,0-7.806c.3-.013.6-.036.9-.037q8.053,0,16.107,0,8.993,0,17.987,0c1.165,0,1.675-.452,1.675-1.513q.008-19.256,0-38.511a2.165,2.165,0,0,0-2.163-2.288c-.271-.021-.545-.008-.817-.008q-16.352,0-32.7,0c-.325,0-.651-.028-.976-.044q.005-1.237.01-2.473" transform="translate(-149.628 -9.378)" fill="#ceced3"/>
    <path id="Trazado_188463" data-name="Trazado 188463" d="M51.258,56.972q0,3.9,0,7.806c-2.862.008-5.723.022-8.585.023q-12.676,0-25.352,0A4.942,4.942,0,0,1,12,59.509q0-21.141,0-42.283a4.883,4.883,0,0,1,5.094-5.181q16.847-.025,33.693,0a4.424,4.424,0,0,1,.484.052q0,1.236-.01,2.473c-.3.012-.6.035-.9.035q-16.477,0-32.953,0c-2.06,0-2.819.751-2.819,2.79q0,18.768,0,37.535c0,1.668.343,2.013,2,2.013q16.886,0,33.771,0c.3,0,.6.019.9.029" transform="translate(-9.374 -9.403)" fill="#fefefe"/>
    <path id="Trazado_188464" data-name="Trazado 188464" d="M150.627,265.287c3.542,0,7.085.019,10.627-.017.655-.007.806.18.793.808-.041,1.934-.035,3.87,0,5.8.009.54-.147.686-.679.686q-10.79-.012-21.58.023c-.495,0-.654-.12-.646-.634q.044-3.024,0-6.049c-.006-.478.083-.653.615-.649,3.624.026,7.248.014,10.872.014v.015" transform="translate(-108.71 -207.249)" fill="#ceced3"/>
    <path id="Trazado_188465" data-name="Trazado 188465" d="M191.481,310.755c.243-.017.486-.049.73-.049q10.591,0,21.182-.006a5.183,5.183,0,0,1,3.033.782,2.7,2.7,0,0,1,1.321,2.389c-.013.681-.037,1.365.009,2.044.039.563-.186.68-.7.673-2.071-.026-4.144-.011-6.215-.011q-9.241,0-18.483,0c-.3,0-.593-.04-.89-.061q.009-2.88.018-5.759" transform="translate(-149.592 -242.753)" fill="#ceced3"/>
    <path id="Trazado_188466" data-name="Trazado 188466" d="M97.661,310.808q-.009,2.879-.018,5.759c-.243.017-.486.048-.73.049-8.206,0-16.413-.008-24.619.019-.718,0-.992-.168-.892-.9a9.833,9.833,0,0,0,.011-1.307,3.332,3.332,0,0,1,3.272-3.615,8.378,8.378,0,0,1,.9-.044q10.8,0,21.593,0c.162,0,.324.026.486.039" transform="translate(-55.772 -242.805)" fill="#fefefe"/>
    <path id="Trazado_188467" data-name="Trazado 188467" d="M60.529,66.01c-.3-.01-.6-.029-.9-.029q-16.886,0-33.771,0c-1.654,0-2-.346-2-2.013q0-18.768,0-37.535c0-2.039.759-2.79,2.819-2.79q16.477,0,32.954,0c.3,0,.6-.023.9-.035.325.015.651.044.976.044q16.352,0,32.7,0c.272,0,.546-.013.817.008a2.165,2.165,0,0,1,2.163,2.288q.011,19.256,0,38.511c0,1.061-.51,1.513-1.675,1.513q-8.993.007-17.987,0-8.053,0-16.107,0c-.3,0-.6.024-.9.037m0-39.7c-.271-.013-.543-.038-.814-.038q-16.155,0-32.31-.019c-.747,0-.935.186-.933.933q.037,17.628,0,35.257c0,.749.19.93.932.928q16.155-.038,32.31-.019c.272,0,.543-.021.815-.031.272.011.543.032.815.032q16.157,0,32.314.018c.737,0,.939-.171.937-.926q-.039-17.631,0-35.261c0-.754-.2-.933-.938-.931q-16.157.038-32.314.019c-.271,0-.543.026-.814.039" transform="translate(-18.644 -18.441)" fill="#040404"/>
    <path id="Trazado_188468" data-name="Trazado 188468" d="M191.027,35.768c.271-.013.543-.039.814-.039q16.157,0,32.314-.019c.742,0,.94.178.938.931q-.038,17.631,0,35.261c0,.755-.2.928-.937.926Q208,72.791,191.842,72.81c-.272,0-.544-.021-.816-.032q0-1.275,0-2.55c1.851-.011,3.7-.014,5.551-.036a2.472,2.472,0,0,0,2.657-2.41q.067-3.061,0-6.125a2.431,2.431,0,0,0-2.411-2.4,9.389,9.389,0,0,0-2.119.01,2.912,2.912,0,0,1-3.674-2.2.634.634,0,0,1-.016-.08q.007-2.151.014-4.3c.3-.016.6-.044.894-.044,1.553,0,3.107.016,4.66-.008A2.449,2.449,0,0,0,199.23,50.3q.08-3.145,0-6.294a2.376,2.376,0,0,0-2.343-2.277,12.534,12.534,0,0,0-2.2.008c-1.693.235-2.961-.178-3.5-1.959a2.375,2.375,0,0,0-.288-.486,17.292,17.292,0,0,0,.14-3.524m21.7,16.869c1.853,0,3.707.016,5.56,0a2.49,2.49,0,0,0,2.691-2.467c.031-2.016.033-4.034,0-6.05a2.427,2.427,0,0,0-2.415-2.389,13.345,13.345,0,0,0-2.449.016,2.554,2.554,0,0,1-3.13-1.783A2.66,2.66,0,0,0,210.2,38.34c-.953.018-1.908,0-2.862,0a2.582,2.582,0,0,0-2.835,2.849q-.016,4.292,0,8.585a2.593,2.593,0,0,0,2.907,2.858c1.771.007,3.543,0,5.314,0m.045,17.557c1.853,0,3.706.015,5.559,0a2.524,2.524,0,0,0,2.653-2.68q.017-2.821,0-5.641a2.512,2.512,0,0,0-2.628-2.616,13.555,13.555,0,0,0-2.2.016,2.6,2.6,0,0,1-3.2-1.8,2.542,2.542,0,0,0-2.636-1.563c-1.036.013-2.071-.015-3.107.007a2.517,2.517,0,0,0-2.7,2.717q-.029,4.415,0,8.83a2.559,2.559,0,0,0,2.786,2.731c1.826.01,3.651,0,5.477,0" transform="translate(-149.142 -27.901)" fill="#5fb4fb"/>
    <path id="Trazado_188469" data-name="Trazado 188469" d="M69.85,35.77a17.276,17.276,0,0,1-.14,3.523,3.234,3.234,0,0,0-2.594-.955c-.871.033-1.745,0-2.617.007a2.565,2.565,0,0,0-2.871,2.876q-.009,4.254,0,8.507c0,1.951.96,2.9,2.916,2.911,1.77.012,3.541.031,5.311.047q-.007,2.151-.014,4.3A3.178,3.178,0,0,0,67.155,55.9c-.924.038-1.851-.006-2.776.011a2.514,2.514,0,0,0-2.75,2.811q-.011,4.327,0,8.655A2.556,2.556,0,0,0,64.467,70.2l5.386.033q0,1.275,0,2.55c-.272.011-.543.031-.815.031q-16.155,0-32.31.019c-.742,0-.934-.179-.932-.928q.038-17.628,0-35.257c0-.747.186-.934.933-.933q16.155.039,32.31.019c.271,0,.543.025.814.038M48.12,70.2c1.853,0,3.706.012,5.559,0A2.5,2.5,0,0,0,56.364,67.7q.091-2.982,0-5.968a2.487,2.487,0,0,0-2.6-2.482,13.154,13.154,0,0,0-2.286.016,2.539,2.539,0,0,1-3.128-1.781,2.565,2.565,0,0,0-2.628-1.585c-1.035.011-2.071-.019-3.107.007A2.513,2.513,0,0,0,39.9,58.687q-.009,4.333,0,8.667A2.563,2.563,0,0,0,42.724,70.2c1.8.007,3.6,0,5.4,0m-.04-17.558c1.881,0,3.761.02,5.642-.006a2.467,2.467,0,0,0,2.639-2.444c.065-2.015.064-4.035,0-6.05a2.438,2.438,0,0,0-2.566-2.415,12.373,12.373,0,0,0-2.2.018A2.637,2.637,0,0,1,48.328,39.9a2.584,2.584,0,0,0-2.646-1.56c-1.008.008-2.017-.006-3.025,0A2.539,2.539,0,0,0,39.9,41.092q-.011,4.375,0,8.749a2.541,2.541,0,0,0,2.782,2.795c1.8.013,3.6,0,5.4,0" transform="translate(-27.965 -27.903)" fill="#89c7fc"/>
    <path id="Trazado_188470" data-name="Trazado 188470" d="M261.34,62.031c-1.771,0-3.543.006-5.314,0a2.593,2.593,0,0,1-2.907-2.858q-.015-4.293,0-8.585a2.582,2.582,0,0,1,2.835-2.849c.954-.006,1.908.014,2.862,0a2.66,2.66,0,0,1,2.777,1.619,2.554,2.554,0,0,0,3.13,1.783,13.384,13.384,0,0,1,2.449-.016,2.427,2.427,0,0,1,2.415,2.389q.055,3.024,0,6.05a2.49,2.49,0,0,1-2.691,2.467c-1.853.021-3.706.005-5.56.005m.062-8.3c-1.69,0-3.38.014-5.07-.009-.458-.006-.614.122-.605.595q.041,2.248,0,4.5c-.008.472.155.6.611.6q5.029-.023,10.059,0c.471,0,.6-.153.59-.609q-.038-2.248,0-4.5c.009-.471-.143-.594-.6-.588-1.663.024-3.326.009-4.989.009m-3.8-2.624c.433,0,.869.029,1.3-.014.182-.018.564.225.537-.214a.514.514,0,0,0-.526-.516c-.92,0-1.841,0-2.761,0-.269,0-.4.094-.4.373s.12.384.394.377c.487-.012.974,0,1.462,0" transform="translate(-197.758 -37.294)" fill="#040404"/>
    <path id="Trazado_188471" data-name="Trazado 188471" d="M162.144,62.057c-1.77-.016-3.541-.035-5.311-.047-1.956-.013-2.913-.96-2.916-2.911q-.007-4.254,0-8.507a2.565,2.565,0,0,1,2.871-2.876c.872,0,1.746.026,2.617-.007a3.233,3.233,0,0,1,2.594.955,2.375,2.375,0,0,1,.288.486c.544,1.781,1.812,2.195,3.5,1.959A12.534,12.534,0,0,1,168,51.1a2.376,2.376,0,0,1,2.343,2.277q.079,3.145,0,6.294A2.449,2.449,0,0,1,167.7,62c-1.553.024-3.107,0-4.66.008-.3,0-.6.029-.894.044m-.018-8.345c-1.633,0-3.266.028-4.9-.014-.59-.015-.721.176-.706.732.039,1.441.033,2.885,0,4.326-.011.5.143.647.645.644q4.979-.031,9.959,0c.528,0,.634-.187.625-.666-.027-1.469-.035-2.939,0-4.408.014-.527-.169-.632-.651-.624-1.659.026-3.32.01-4.979.01m-1.739-2.625c-.273-.4-.31-.758-.758-.75-.9.017-1.8.013-2.7,0-.279,0-.4.094-.4.372s.087.387.38.383c1.109-.014,2.218-.005,3.47-.005" transform="translate(-120.254 -37.273)" fill="#040404"/>
    <path id="Trazado_188472" data-name="Trazado 188472" d="M162.137,142.339l-5.386-.033a2.556,2.556,0,0,1-2.837-2.819q-.012-4.327,0-8.655a2.514,2.514,0,0,1,2.75-2.811c.925-.017,1.852.027,2.776-.011a3.178,3.178,0,0,1,2.686,1.089.612.612,0,0,0,.016.08,2.912,2.912,0,0,0,3.674,2.2,9.388,9.388,0,0,1,2.119-.01,2.431,2.431,0,0,1,2.411,2.4q.062,3.062,0,6.125a2.473,2.473,0,0,1-2.657,2.41c-1.85.022-3.7.025-5.551.036m-.021-8.359c-1.66,0-3.32.012-4.98-.008-.426-.005-.627.066-.616.564.032,1.523.029,3.048,0,4.572-.008.476.155.59.608.588q4.98-.026,9.96,0c.478,0,.674-.1.661-.624-.035-1.5-.039-2.994,0-4.49.015-.543-.19-.619-.658-.612-1.659.024-3.32.009-4.98.009m-1.847-2.623c-.082-.49-.3-.737-.81-.719-.81.029-1.621.008-2.432.008-.249,0-.482-.018-.492.355s.224.358.475.357c1.08,0,2.16,0,3.259,0" transform="translate(-120.25 -100.012)" fill="#040404"/>
    <path id="Trazado_188473" data-name="Trazado 188473" d="M261.371,142.345c-1.826,0-3.651.008-5.477,0a2.558,2.558,0,0,1-2.785-2.731q-.032-4.415,0-8.83a2.517,2.517,0,0,1,2.7-2.717c1.035-.022,2.071.005,3.107-.007a2.542,2.542,0,0,1,2.636,1.563,2.6,2.6,0,0,0,3.2,1.8,13.5,13.5,0,0,1,2.2-.016,2.512,2.512,0,0,1,2.628,2.616q.023,2.82,0,5.641a2.524,2.524,0,0,1-2.653,2.68c-1.853.02-3.706,0-5.559,0m-.023-8.325c-1.69,0-3.381.012-5.071-.009-.417,0-.571.105-.564.546q.036,2.29,0,4.58c-.008.468.143.6.606.6q5.03-.027,10.06,0c.464,0,.6-.138.593-.6-.026-1.5-.034-3,0-4.5.013-.517-.144-.638-.639-.629-1.662.03-3.326.012-4.989.012m-1.874-2.623c-.1-.5-.28-.734-.729-.723-.845.021-1.69.009-2.535,0-.268,0-.48.019-.485.379-.006.4.266.337.5.337,1.062,0,2.124,0,3.249,0" transform="translate(-197.744 -100.051)" fill="#040404"/>
    <path id="Trazado_188474" data-name="Trazado 188474" d="M62.786,142.326c-1.8,0-3.6.006-5.4,0a2.563,2.563,0,0,1-2.822-2.842q-.006-4.333,0-8.667a2.513,2.513,0,0,1,2.713-2.774c1.035-.025,2.071,0,3.107-.007a2.565,2.565,0,0,1,2.628,1.585,2.539,2.539,0,0,0,3.128,1.781,13.135,13.135,0,0,1,2.286-.016,2.487,2.487,0,0,1,2.6,2.482q.086,2.982,0,5.967a2.5,2.5,0,0,1-2.685,2.488c-1.853.016-3.706,0-5.559,0M62.791,134c-1.663,0-3.326.022-4.988-.013-.512-.011-.641.134-.629.635.034,1.5.029,3,0,4.5-.008.461.127.6.593.6q5.029-.028,10.059,0c.466,0,.613-.14.605-.6-.024-1.5-.033-3,0-4.5.013-.53-.177-.632-.657-.624-1.662.026-3.326.01-4.988.01m-1.864-2.623c-.1-.548-.363-.739-.856-.719-.783.031-1.569.009-2.354.008-.273,0-.547-.044-.533.391.013.4.284.317.508.318,1.054.006,2.109,0,3.235,0" transform="translate(-42.631 -100.032)" fill="#040404"/>
    <path id="Trazado_188475" data-name="Trazado 188475" d="M62.744,62.04c-1.8,0-3.6.01-5.4,0a2.54,2.54,0,0,1-2.782-2.795q-.008-4.375,0-8.749a2.539,2.539,0,0,1,2.754-2.745c1.008-.009,2.017,0,3.025,0a2.584,2.584,0,0,1,2.646,1.56,2.637,2.637,0,0,0,3.261,1.837,12.375,12.375,0,0,1,2.2-.018,2.438,2.438,0,0,1,2.566,2.415c.066,2.015.067,4.035,0,6.049a2.467,2.467,0,0,1-2.639,2.444c-1.88.026-3.761.006-5.642.006m.011-2.621c1.663,0,3.326-.019,4.988.011.535.009.706-.149.692-.694-.037-1.471-.023-2.944-.006-4.416,0-.4-.074-.587-.531-.585q-5.111.024-10.221,0c-.495,0-.5.234-.5.6.012,1.472.029,2.944-.008,4.416-.013.536.136.7.678.687,1.635-.034,3.271-.012,4.906-.013m-1.716-8.3c-.259-.366-.272-.751-.758-.747q-1.348.012-2.7,0c-.263,0-.392.075-.4.366-.013.359.184.386.46.384,1.082-.007,2.164,0,3.4,0" transform="translate(-42.629 -37.304)" fill="#040404"/>
    <path id="Trazado_188476" data-name="Trazado 188476" d="M270.746,75.136c1.663,0,3.326.014,4.989-.009.454-.006.606.117.6.588-.029,1.5-.027,3,0,4.5.008.456-.118.611-.589.609q-5.029-.025-10.059,0c-.456,0-.619-.13-.611-.6q.039-2.249,0-4.5c-.009-.472.147-.6.605-.594,1.69.023,3.38.009,5.07.009" transform="translate(-207.102 -58.697)" fill="#fbdd75"/>
    <path id="Trazado_188477" data-name="Trazado 188477" d="M267,60.5c-.487,0-.975-.009-1.462,0-.274.007-.4-.1-.394-.377s.135-.375.4-.373c.92.009,1.841,0,2.761,0a.514.514,0,0,1,.526.516c.026.439-.355.2-.537.214a12.969,12.969,0,0,1-1.3.013" transform="translate(-207.158 -46.683)" fill="#fbdd75"/>
    <path id="Trazado_188478" data-name="Trazado 188478" d="M171.447,75.114c1.66,0,3.32.016,4.979-.01.481-.008.664.1.651.624-.038,1.468-.031,2.939,0,4.407.009.479-.1.67-.625.666q-4.979-.034-9.959,0c-.5,0-.656-.14-.644-.644.031-1.442.037-2.885,0-4.326-.015-.556.117-.747.706-.732,1.631.042,3.265.015,4.9.015" transform="translate(-129.574 -58.675)" fill="#fbdd75"/>
    <path id="Trazado_188479" data-name="Trazado 188479" d="M169.763,60.489c-1.252,0-2.361-.008-3.47.005-.293,0-.38-.116-.38-.383s.117-.376.4-.372c.9.013,1.8.017,2.7,0,.449-.009.486.352.758.75" transform="translate(-129.629 -46.675)" fill="#fbdd75"/>
    <path id="Trazado_188480" data-name="Trazado 188480" d="M171.447,155.291c1.66,0,3.32.015,4.98-.009.467-.007.672.07.658.612-.041,1.5-.037,2.994,0,4.49.012.528-.183.626-.662.623q-4.98-.028-9.959,0c-.453,0-.617-.112-.608-.588.027-1.523.03-3.048,0-4.571-.01-.5.19-.569.616-.564,1.66.02,3.32.008,4.98.008" transform="translate(-129.581 -121.323)" fill="#fbdd75"/>
    <path id="Trazado_188481" data-name="Trazado 188481" d="M169.654,140.76c-1.1,0-2.179,0-3.259,0-.25,0-.485.026-.475-.357s.243-.355.492-.355c.811,0,1.622.021,2.432-.008.511-.018.728.229.81.719" transform="translate(-129.634 -109.414)" fill="#fbdd75"/>
    <path id="Trazado_188482" data-name="Trazado 188482" d="M270.709,155.283c1.663,0,3.327.019,4.989-.012.5-.009.652.112.639.629-.038,1.5-.03,3,0,4.5.008.461-.129.6-.593.6q-5.03-.026-10.061,0c-.463,0-.613-.13-.606-.6q.038-2.29,0-4.58c-.007-.44.147-.55.564-.546,1.69.02,3.381.008,5.071.008" transform="translate(-207.104 -121.315)" fill="#fbdd75"/>
    <path id="Trazado_188483" data-name="Trazado 188483" d="M268.877,140.747c-1.126,0-2.188,0-3.249,0-.234,0-.506.067-.5-.337.006-.36.218-.381.485-.379.845,0,1.691.016,2.535,0,.449-.011.625.224.729.723" transform="translate(-207.147 -109.401)" fill="#fbdd75"/>
    <path id="Trazado_188484" data-name="Trazado 188484" d="M72.111,155.277c1.663,0,3.326.016,4.988-.01.48-.007.671.094.658.624-.037,1.5-.028,3,0,4.5.007.463-.14.606-.605.6q-5.029-.026-10.059,0c-.466,0-.6-.136-.593-.6.026-1.5.031-3,0-4.5-.011-.5.117-.646.629-.635,1.662.035,3.325.013,4.988.013" transform="translate(-51.951 -121.309)" fill="#fbdd75"/>
    <path id="Trazado_188485" data-name="Trazado 188485" d="M70.287,140.757c-1.126,0-2.181,0-3.235,0-.223,0-.495.086-.508-.318-.014-.435.259-.391.533-.391.785,0,1.57.023,2.354-.008.493-.019.76.171.856.719" transform="translate(-51.991 -109.412)" fill="#fbdd75"/>
    <path id="Trazado_188486" data-name="Trazado 188486" d="M72.075,80.806c-1.635,0-3.271-.021-4.906.012-.541.011-.691-.151-.677-.687.037-1.471.019-2.944.008-4.416,0-.363,0-.6.5-.6q5.11.032,10.221,0c.458,0,.536.187.531.585-.017,1.472-.031,2.945.006,4.416.014.545-.157.7-.692.694-1.662-.029-3.325-.011-4.988-.01" transform="translate(-51.95 -58.691)" fill="#fbdd75"/>
    <path id="Trazado_188487" data-name="Trazado 188487" d="M70.4,60.5c-1.233,0-2.314,0-3.4,0-.276,0-.473-.026-.46-.384.01-.291.14-.368.4-.366q1.348.011,2.7,0c.485,0,.5.381.758.747" transform="translate(-51.992 -46.683)" fill="#fbdd75"/>
  </g>
</svg>
