<svg id="Grupo_128092" data-name="Grupo 128092" xmlns="http://www.w3.org/2000/svg" xmlns:xlink="http://www.w3.org/1999/xlink" width="39.675" height="51.537" viewBox="0 0 39.675 51.537">
  <defs>
    <clipPath id="clip-path">
      <rect id="Rectángulo_41104" data-name="Rectángulo 41104" width="39.675" height="51.538" fill="none"/>
    </clipPath>
    <clipPath id="clip-path-3">
      <rect id="Rectángulo_41077" data-name="Rectángulo 41077" width="39.675" height="18.162" fill="none"/>
    </clipPath>
    <clipPath id="clip-path-4">
      <path id="Trazado_190575" data-name="Trazado 190575" d="M50.772,303.827c7.722-2.986,20.282-.119,28.054,2.868A39.046,39.046,0,0,0,66.6,304.487c-5.668-.2-11.509-2.333-15.833-.66" transform="translate(-50.772 -302.565)" fill="none"/>
    </clipPath>
    <clipPath id="clip-path-5">
      <rect id="Rectángulo_41078" data-name="Rectángulo 41078" width="7.412" height="12.735" fill="none"/>
    </clipPath>
    <clipPath id="clip-path-6">
      <rect id="Rectángulo_41079" data-name="Rectángulo 41079" width="8.584" height="5.538" fill="none"/>
    </clipPath>
    <clipPath id="clip-path-7">
      <rect id="Rectángulo_41080" data-name="Rectángulo 41080" width="8.437" height="8.546" fill="none"/>
    </clipPath>
    <clipPath id="clip-path-8">
      <rect id="Rectángulo_41081" data-name="Rectángulo 41081" width="2.227" height="14.43" fill="none"/>
    </clipPath>
    <clipPath id="clip-path-13">
      <rect id="Rectángulo_41086" data-name="Rectángulo 41086" width="9.515" height="1.469" fill="none"/>
    </clipPath>
    <clipPath id="clip-path-14">
      <rect id="Rectángulo_41087" data-name="Rectángulo 41087" width="33.01" height="5.337" fill="none"/>
    </clipPath>
    <clipPath id="clip-path-19">
      <rect id="Rectángulo_41092" data-name="Rectángulo 41092" width="9.516" height="1.469" fill="none"/>
    </clipPath>
    <clipPath id="clip-path-21">
      <rect id="Rectángulo_41094" data-name="Rectángulo 41094" width="1.581" height="1.582" fill="none"/>
    </clipPath>
    <clipPath id="clip-path-23">
      <rect id="Rectángulo_41096" data-name="Rectángulo 41096" width="1.582" height="1.582" fill="none"/>
    </clipPath>
  </defs>
  <g id="Grupo_128076" data-name="Grupo 128076" clip-path="url(#clip-path)">
    <g id="Grupo_128075" data-name="Grupo 128075">
      <g id="Grupo_128074" data-name="Grupo 128074" clip-path="url(#clip-path)">
        <g id="Grupo_127998" data-name="Grupo 127998" transform="translate(0 33.376)" style="mix-blend-mode: multiply;isolation: isolate">
          <g id="Grupo_127997" data-name="Grupo 127997">
            <g id="Grupo_127996" data-name="Grupo 127996" clip-path="url(#clip-path-3)">
              <g id="Grupo_127995" data-name="Grupo 127995" transform="translate(5.765 0.978)">
                <g id="Grupo_127994" data-name="Grupo 127994" clip-path="url(#clip-path-4)">
                  <path id="Trazado_190572" data-name="Trazado 190572" d="M50.772,296.21a40.03,40.03,0,0,1,13.542-2.238,40.03,40.03,0,0,0-13.542,2.238" transform="translate(-50.772 -294.948)" fill="#a3a3a3"/>
                  <path id="Trazado_190573" data-name="Trazado 190573" d="M170.043,293.954q.313,0,.626,0-.313,0-.626,0" transform="translate(-156.501 -294.93)" fill="#dadada"/>
                  <path id="Trazado_190574" data-name="Trazado 190574" d="M175.555,293.954a40.648,40.648,0,0,1,13.886,2.24,40.648,40.648,0,0,0-13.886-2.24" transform="translate(-161.387 -294.932)" fill="#a3a3a3"/>
                </g>
              </g>
              <path id="Trazado_190576" data-name="Trazado 190576" d="M33.819,321.452c7.772,2.986,7.813,7.828.092,10.814s-20.283,2.986-28.055,0-7.813-7.828-.091-10.814,20.282-2.986,28.054,0" transform="translate(0 -316.344)" fill="#d9d9d9"/>
            </g>
          </g>
        </g>
        <path id="Trazado_190577" data-name="Trazado 190577" d="M15.352,259.31a2.328,2.328,0,0,1,.056-.353,2.663,2.663,0,0,1,.121-.4,3.058,3.058,0,0,1,.391-.73c.1-.136.181-.235.248-.32.042-.05.095-.107.148-.163l.02-.021,0,0,.009-.009c.029-.03.058-.06.089-.091h0l.409-.4-.024.025,0,0,.024-.024.01-.009.006-.006.008-.008c.137-.133.274-.251.414-.363.071-.057.143-.112.222-.168.172-.123.352-.241.55-.364l.159-.091.007,0c3.245-1.824,8.4-2.634,13.417-2.789,6.142-.213,12.547.564,16.257,2.306l.06.028.045.021q.158.075.308.154l.029.015.018.01a8.975,8.975,0,0,1,.881.525,3.436,3.436,0,0,1,1.525,1.773c.005.02.01.039.015.058v.006a1.519,1.519,0,0,1-.008.739,1.9,1.9,0,0,0-.694-1.9l.411.4,0,0,.053.053,0,0,.015.015,0-.005h0l.006.006h0l.006.006,0,0a4.4,4.4,0,0,1,.324.373,3.141,3.141,0,0,1,.377.586,2.824,2.824,0,0,1,.324,1.127c0,.034,0,.069,0,.1s0,.077.006.117c0,.983-.879,1.889-2.392,2.667a25.018,25.018,0,0,1-7.419,2.11,57.4,57.4,0,0,1-16.31.086q-.752-.108-1.455-.233c-5.525-.983-8.7-2.739-8.7-4.565a2.153,2.153,0,0,1,.015-.286" transform="translate(-13.595 -224.249)" fill="#bdbdbd"/>
        <path id="Trazado_190578" data-name="Trazado 190578" d="M25.612,391.155c-6.278-.9-9.983-2.733-10.147-4.667a2.851,2.851,0,0,0,.321,1.205,3.579,3.579,0,0,0,.859,1.121l.343.335h0c.031.03.063.061.1.09a6.062,6.062,0,0,0,.951.7q-.208-.131-.4-.268a7.932,7.932,0,0,0,.789.476,4.362,4.362,0,0,1-.389-.208c5.759,3.624,21,3.87,28.637,1.133h0a11.275,11.275,0,0,0,1.269-.516,10.635,10.635,0,0,0,1.061-.56c.125-.076.236-.147.337-.215-.223.147-.464.289-.723.425.3-.169.556-.331.763-.47a5.958,5.958,0,0,0,.566-.416l.041-.034a6.166,6.166,0,0,1-.646.5,5.585,5.585,0,0,0,.837-.667l-.013.011.051-.049.409-.4h0a3.32,3.32,0,0,0,1.091-2.18c-.462,3.791-14.125,6.375-26.108,4.659" transform="translate(-13.709 -342.606)" fill="#6e6e6e"/>
        <path id="Trazado_190579" data-name="Trazado 190579" d="M93.852,338.171a.238.238,0,0,0,.234-.238l0-.074a.254.254,0,0,0-.064-.178.225.225,0,0,0-.164-.076,49.629,49.629,0,0,1-8.937-.9.293.293,0,0,0-.324.172h0a.289.289,0,0,0,0,.244.261.261,0,0,0,.183.147,51.075,51.075,0,0,0,9.069.9" transform="translate(-74.971 -298.472)" fill="#e8e8e8"/>
        <path id="Trazado_190580" data-name="Trazado 190580" d="M51.623,319.152l-.008-8.4c.007,3.905-13.927,6.608-26.12,4.862-6.42-.919-10.15-2.817-10.154-4.8l.008,8.4c0,1.981,3.734,3.879,10.154,4.8,12.153,1.741,26.127-.948,26.12-4.862" transform="translate(-13.599 -275.465)" fill="#a1a1a1"/>
        <g id="Grupo_128001" data-name="Grupo 128001" transform="translate(30.611 35.282)" style="mix-blend-mode: multiply;isolation: isolate">
          <g id="Grupo_128000" data-name="Grupo 128000">
            <g id="Grupo_127999" data-name="Grupo 127999" clip-path="url(#clip-path-5)">
              <path id="Trazado_190581" data-name="Trazado 190581" d="M269.607,315.077v8.4c4.422-.969,7.415-2.518,7.412-4.33l-.008-8.4c0,1.808-2.984,3.36-7.4,4.33" transform="translate(-269.607 -310.747)" fill="#c9c9c9"/>
            </g>
          </g>
        </g>
        <g id="Grupo_128004" data-name="Grupo 128004" transform="translate(29.427 43.89)" style="mix-blend-mode: multiply;isolation: isolate">
          <g id="Grupo_128003" data-name="Grupo 128003">
            <g id="Grupo_128002" data-name="Grupo 128002" clip-path="url(#clip-path-6)">
              <path id="Trazado_190582" data-name="Trazado 190582" d="M265.382,389.848c-.223.147-.464.289-.723.425.3-.169.556-.331.763-.47a6.006,6.006,0,0,0,.566-.416l.041-.035a6.177,6.177,0,0,1-.646.5,5.59,5.59,0,0,0,.837-.667l-.013.012.051-.049.409-.4h0a3.321,3.321,0,0,0,1.091-2.18c-.21,1.721-3.141,3.193-7.4,4.127l-1.184,1.411a25.812,25.812,0,0,0,3.537-.958h0a11.275,11.275,0,0,0,1.269-.516,10.619,10.619,0,0,0,1.061-.56c.125-.076.236-.147.337-.215" transform="translate(-259.174 -386.561)" fill="#c9c9c9"/>
            </g>
          </g>
        </g>
        <g id="Grupo_128007" data-name="Grupo 128007" transform="translate(29.579 31.07)" style="mix-blend-mode: multiply;isolation: isolate">
          <g id="Grupo_128006" data-name="Grupo 128006">
            <g id="Grupo_128005" data-name="Grupo 128005" clip-path="url(#clip-path-7)">
              <path id="Trazado_190583" data-name="Trazado 190583" d="M268.945,277.739q0-.051,0-.1a2.825,2.825,0,0,0-.324-1.127,3.136,3.136,0,0,0-.377-.587,4.415,4.415,0,0,0-.324-.372l0,0-.006-.006h0l-.006-.006h0l0,.005-.015-.016,0,0-.053-.053,0,0-.411-.4a1.9,1.9,0,0,1,.694,1.9,1.518,1.518,0,0,0,.008-.739v-.006c0-.02-.01-.039-.015-.058a3.436,3.436,0,0,0-1.525-1.773,8.83,8.83,0,0,0-.836-.5l-.863-.245-2.043,2.792-2.326,3.715,1.032,2.035,0,0a20.513,20.513,0,0,0,5.009-1.666c1.512-.778,2.393-1.684,2.392-2.667,0-.04,0-.079-.006-.117" transform="translate(-260.514 -273.643)" fill="#d4d4d4"/>
            </g>
          </g>
        </g>
        <g id="Grupo_128010" data-name="Grupo 128010" transform="translate(1.741 32.374)" style="mix-blend-mode: multiply;isolation: isolate">
          <g id="Grupo_128009" data-name="Grupo 128009">
            <g id="Grupo_128008" data-name="Grupo 128008" clip-path="url(#clip-path-8)">
              <path id="Trazado_190584" data-name="Trazado 190584" d="M16.1,298.038v-8.371l1.235-2.209.223-2.33-.7.171,0,0-.01.009-.024.024,0,0,.024-.025-.409.4h0q-.046.045-.089.09l-.009.009,0,0-.02.021c-.053.055-.105.112-.148.163-.067.085-.152.184-.248.32a3.056,3.056,0,0,0-.391.73,2.65,2.65,0,0,0-.122.4,2.331,2.331,0,0,0-.056.353,2.152,2.152,0,0,0-.015.286l.008,8.4c0,.044,0,.088.006.132a2.853,2.853,0,0,0,.321,1.205,3.577,3.577,0,0,0,.859,1.121l.343.335h0c.031.03.063.061.1.09q.094.086.2.17Z" transform="translate(-15.336 -285.128)" fill="#e3e3e3"/>
            </g>
          </g>
        </g>
        <path id="Trazado_190585" data-name="Trazado 190585" d="M31.376,256.09c-4.012,2.428-.632,5.346,7.551,6.518s18.069.154,22.081-2.274.632-5.346-7.551-6.517-18.069-.154-22.081,2.274" transform="translate(-26.317 -224.566)" fill="#cecece"/>
        <path id="Trazado_190586" data-name="Trazado 190586" d="M15.352,132.823a2.329,2.329,0,0,1,.056-.353,2.673,2.673,0,0,1,.121-.4,3.059,3.059,0,0,1,.391-.73c.1-.136.181-.235.248-.32.042-.05.095-.107.148-.163l.02-.021,0,0,.009-.009c.029-.03.058-.06.089-.091h0l.409-.4-.024.025,0,0,.024-.024.01-.009.006-.006.008-.008c.137-.132.274-.251.414-.362.071-.057.143-.111.222-.168.172-.123.352-.241.55-.364l.159-.091.007,0c3.245-1.824,8.4-2.634,13.417-2.789,6.142-.213,12.547.564,16.257,2.306l.06.028.045.021q.158.076.308.154l.029.015.018.01a8.955,8.955,0,0,1,.881.525,3.434,3.434,0,0,1,1.525,1.774c.005.019.01.039.015.058v.006a1.518,1.518,0,0,1-.008.738,1.9,1.9,0,0,0-.694-1.9l.411.4,0,0,.053.053,0,0,.015.015,0-.005h0l.006.005h0l.006.006,0,0a4.4,4.4,0,0,1,.324.373,3.141,3.141,0,0,1,.377.586,2.826,2.826,0,0,1,.324,1.127c0,.034,0,.069,0,.1s0,.077.006.117c0,.983-.879,1.889-2.392,2.667a25.016,25.016,0,0,1-7.419,2.109,57.385,57.385,0,0,1-16.31.086q-.752-.108-1.455-.233c-5.525-.983-8.7-2.739-8.7-4.565a2.154,2.154,0,0,1,.015-.286" transform="translate(-13.595 -112.124)" fill="#bdbdbd"/>
        <path id="Trazado_190587" data-name="Trazado 190587" d="M25.612,264.671c-6.278-.9-9.983-2.733-10.147-4.667a2.851,2.851,0,0,0,.321,1.205,3.579,3.579,0,0,0,.859,1.121l.343.335h0c.031.03.063.06.1.09a6.065,6.065,0,0,0,.951.7q-.208-.131-.4-.268a7.95,7.95,0,0,0,.789.476c-.146-.07-.276-.139-.389-.209,5.759,3.624,21,3.87,28.637,1.134h0a11.281,11.281,0,0,0,1.269-.516,10.686,10.686,0,0,0,1.061-.56c.125-.076.236-.147.337-.215-.223.147-.464.289-.723.425.3-.169.556-.331.763-.47a5.958,5.958,0,0,0,.566-.416l.041-.035a6.108,6.108,0,0,1-.646.5,5.585,5.585,0,0,0,.837-.667l-.013.012.051-.049.409-.4h0a3.32,3.32,0,0,0,1.091-2.18c-.462,3.791-14.125,6.375-26.108,4.659" transform="translate(-13.709 -230.483)" fill="#6e6e6e"/>
        <path id="Trazado_190588" data-name="Trazado 190588" d="M93.845,211.683a.237.237,0,0,0,.234-.237l0-.074a.254.254,0,0,0-.064-.178.223.223,0,0,0-.164-.076,49.64,49.64,0,0,1-8.938-.9.294.294,0,0,0-.324.172h0a.29.29,0,0,0,0,.244.26.26,0,0,0,.183.147,51.067,51.067,0,0,0,9.069.9" transform="translate(-74.963 -186.346)" fill="#e8e8e8"/>
        <path id="Trazado_190589" data-name="Trazado 190589" d="M51.623,192.666l-.008-8.4c.007,3.905-13.927,6.608-26.12,4.862-6.42-.92-10.15-2.817-10.154-4.8l.008,8.4c0,1.981,3.734,3.879,10.154,4.8,12.153,1.741,26.127-.948,26.12-4.862" transform="translate(-13.599 -163.341)" fill="#a1a1a1"/>
        <g id="Grupo_128013" data-name="Grupo 128013" transform="translate(30.611 20.921)" style="mix-blend-mode: multiply;isolation: isolate">
          <g id="Grupo_128012" data-name="Grupo 128012">
            <g id="Grupo_128011" data-name="Grupo 128011" clip-path="url(#clip-path-5)">
              <path id="Trazado_190590" data-name="Trazado 190590" d="M269.607,188.592V197c4.422-.969,7.415-2.518,7.412-4.33l-.008-8.4c0,1.809-2.984,3.359-7.4,4.33" transform="translate(-269.607 -184.262)" fill="#c9c9c9"/>
            </g>
          </g>
        </g>
        <g id="Grupo_128016" data-name="Grupo 128016" transform="translate(29.427 29.529)" style="mix-blend-mode: multiply;isolation: isolate">
          <g id="Grupo_128015" data-name="Grupo 128015">
            <g id="Grupo_128014" data-name="Grupo 128014" clip-path="url(#clip-path-6)">
              <path id="Trazado_190591" data-name="Trazado 190591" d="M265.382,263.363c-.223.147-.464.289-.723.425.3-.169.556-.331.763-.47a5.963,5.963,0,0,0,.566-.416l.041-.034a6.135,6.135,0,0,1-.646.5,5.592,5.592,0,0,0,.837-.667l-.013.012.051-.049.409-.4h0a3.321,3.321,0,0,0,1.091-2.18c-.21,1.721-3.141,3.193-7.4,4.127l-1.184,1.411a25.82,25.82,0,0,0,3.537-.958h0a11.327,11.327,0,0,0,1.269-.516,10.651,10.651,0,0,0,1.061-.56c.125-.076.236-.147.337-.215" transform="translate(-259.174 -260.076)" fill="#c9c9c9"/>
            </g>
          </g>
        </g>
        <g id="Grupo_128019" data-name="Grupo 128019" transform="translate(29.579 16.708)" style="mix-blend-mode: multiply;isolation: isolate">
          <g id="Grupo_128018" data-name="Grupo 128018">
            <g id="Grupo_128017" data-name="Grupo 128017" clip-path="url(#clip-path-7)">
              <path id="Trazado_190592" data-name="Trazado 190592" d="M268.945,151.254c0-.034,0-.069,0-.1a2.825,2.825,0,0,0-.324-1.127,3.141,3.141,0,0,0-.377-.587,4.415,4.415,0,0,0-.324-.372l0,0-.006-.006h0l-.006-.005h0l0,0-.015-.015,0,0-.053-.053,0,0-.411-.4a1.9,1.9,0,0,1,.694,1.9,1.517,1.517,0,0,0,.008-.738v-.006c0-.019-.01-.039-.015-.058a3.435,3.435,0,0,0-1.525-1.774,8.84,8.84,0,0,0-.836-.5l-.863-.245-2.043,2.792-2.326,3.715,1.032,2.036,0,0a20.51,20.51,0,0,0,5.009-1.666c1.512-.778,2.393-1.684,2.392-2.667,0-.041,0-.079-.006-.117" transform="translate(-260.514 -147.158)" fill="#d4d4d4"/>
            </g>
          </g>
        </g>
        <g id="Grupo_128022" data-name="Grupo 128022" transform="translate(1.741 18.012)" style="mix-blend-mode: multiply;isolation: isolate">
          <g id="Grupo_128021" data-name="Grupo 128021">
            <g id="Grupo_128020" data-name="Grupo 128020" clip-path="url(#clip-path-8)">
              <path id="Trazado_190593" data-name="Trazado 190593" d="M16.1,171.553v-8.371l1.235-2.209.223-2.33-.7.171,0,0-.01.009-.024.024,0,0,.024-.025-.409.4h0c-.031.03-.06.06-.089.09l-.009.009,0,0-.02.021c-.053.055-.105.112-.148.163-.067.085-.152.184-.248.32a3.056,3.056,0,0,0-.391.73,2.658,2.658,0,0,0-.122.4,2.325,2.325,0,0,0-.056.353,2.153,2.153,0,0,0-.015.286l.008,8.4c0,.044,0,.088.006.132h0a2.853,2.853,0,0,0,.321,1.205,3.576,3.576,0,0,0,.859,1.121l.343.335h0l.1.09q.094.086.2.17Z" transform="translate(-15.336 -158.643)" fill="#e3e3e3"/>
            </g>
          </g>
        </g>
        <path id="Trazado_190594" data-name="Trazado 190594" d="M31.376,129.6c-4.012,2.428-.632,5.346,7.551,6.517s18.069.154,22.081-2.274.632-5.346-7.551-6.517-18.069-.154-22.081,2.274" transform="translate(-26.317 -112.442)" fill="#cecece"/>
        <path id="Trazado_190595" data-name="Trazado 190595" d="M34.752,288.185h0q-.086-.056-.168-.112.082.059.168.116a4.2,4.2,0,0,0,.621.36c-.368-.2-.587-.343-.621-.364" transform="translate(-30.657 -255.365)" fill="#4271e5"/>
        <path id="Trazado_190596" data-name="Trazado 190596" d="M62.7,283.917c-1.618,1.506-4.84,2.422-6.954,2.831-8.666,1.759-21.577.915-25.856-2.625-.034-.029-.077-.062-.2-.175V285.3h0c-.033,1.814,3.366,3.555,9.239,4.4,11.208,1.605,24.046-.928,23.765-4.534h0Z" transform="translate(-26.315 -251.681)" fill="#4271e5"/>
        <path id="Trazado_190597" data-name="Trazado 190597" d="M307.477,285.586a6.821,6.821,0,0,0,1.37-.92,9.5,9.5,0,0,1-1.37.92" transform="translate(-272.566 -252.345)" fill="#4271e5"/>
        <g id="Grupo_128025" data-name="Grupo 128025" transform="translate(9.603 36.104)" style="mix-blend-mode: screen;isolation: isolate">
          <g id="Grupo_128024" data-name="Grupo 128024">
            <g id="Grupo_128023" data-name="Grupo 128023" clip-path="url(#clip-path-13)">
              <path id="Trazado_190598" data-name="Trazado 190598" d="M93.852,319.447a.238.238,0,0,0,.234-.238l0-.074a.254.254,0,0,0-.064-.178.224.224,0,0,0-.164-.076,49.64,49.64,0,0,1-8.937-.9.293.293,0,0,0-.324.172h0a.289.289,0,0,0,0,.244.26.26,0,0,0,.183.147,51.072,51.072,0,0,0,9.069.9" transform="translate(-84.573 -317.978)" fill="#497eff"/>
            </g>
          </g>
        </g>
        <g id="Grupo_128028" data-name="Grupo 128028" transform="translate(3.371 32.236)" style="mix-blend-mode: multiply;isolation: isolate">
          <g id="Grupo_128027" data-name="Grupo 128027">
            <g id="Grupo_128026" data-name="Grupo 128026" clip-path="url(#clip-path-14)">
              <path id="Trazado_190599" data-name="Trazado 190599" d="M55.742,286.748h0c-8.552,1.736-21.238.936-25.682-2.487l-.086-.067-.087-.071c-.034-.029-.077-.062-.2-.174V285.3h0a1.728,1.728,0,0,0,.373,1.057v-1.477a6.787,6.787,0,0,0,.582.4q-.208-.131-.4-.268a7.969,7.969,0,0,0,.789.476c-.146-.07-.276-.14-.389-.209,4.968,3.125,16.988,3.739,25.1,2.092v1.889c4.234-.9,7.083-2.375,6.949-4.095h0v-1.242c-1.618,1.506-4.84,2.422-6.954,2.831" transform="translate(-29.686 -283.917)" fill="#bdbdbd"/>
            </g>
          </g>
        </g>
        <path id="Trazado_190600" data-name="Trazado 190600" d="M15.352,6.338a2.329,2.329,0,0,1,.056-.353,2.665,2.665,0,0,1,.121-.4,3.058,3.058,0,0,1,.391-.73c.1-.137.181-.235.248-.32.042-.05.095-.107.148-.163l.02-.021,0,0,.009-.009q.043-.045.089-.09h0l.409-.4-.024.025,0,0,.024-.025.01-.009.006-.006.008-.008c.137-.132.274-.251.414-.362.071-.057.143-.111.222-.168.172-.123.352-.241.55-.364l.159-.091.007,0C21.473,1,26.624.19,31.645.035,37.786-.178,44.192.6,47.9,2.341l.06.028.045.021q.158.076.308.154l.029.015.018.01a8.974,8.974,0,0,1,.881.525,3.435,3.435,0,0,1,1.525,1.774c.005.019.01.039.015.058v.006a1.519,1.519,0,0,1-.008.739,1.9,1.9,0,0,0-.694-1.9l.411.4,0,0,.053.053,0,0,.015.015,0-.005h0l.006.006h0l.006.006,0,0a4.4,4.4,0,0,1,.324.373,3.123,3.123,0,0,1,.377.586A2.825,2.825,0,0,1,51.6,6.34q0,.052,0,.1c0,.038,0,.077.006.117,0,.983-.879,1.889-2.392,2.667A25.023,25.023,0,0,1,41.8,11.337a57.385,57.385,0,0,1-16.31.086q-.752-.108-1.455-.233c-5.525-.984-8.7-2.739-8.7-4.566a2.152,2.152,0,0,1,.015-.286" transform="translate(-13.595 -0.001)" fill="#bdbdbd"/>
        <path id="Trazado_190601" data-name="Trazado 190601" d="M25.612,138.185c-6.278-.9-9.983-2.734-10.147-4.667a2.852,2.852,0,0,0,.321,1.205,3.584,3.584,0,0,0,.859,1.121l.343.335h0c.031.03.063.06.1.09a6.061,6.061,0,0,0,.951.7q-.208-.131-.4-.268a7.906,7.906,0,0,0,.789.476,4.36,4.36,0,0,1-.389-.209c5.759,3.624,21,3.87,28.637,1.134h0a11.3,11.3,0,0,0,1.269-.516,10.683,10.683,0,0,0,1.061-.56c.125-.076.236-.147.337-.215-.223.147-.464.289-.723.425.3-.169.556-.331.763-.47a6.016,6.016,0,0,0,.566-.416l.041-.035a6.133,6.133,0,0,1-.646.495,5.579,5.579,0,0,0,.837-.667l-.013.011.051-.049.409-.4h0a3.321,3.321,0,0,0,1.091-2.18c-.462,3.791-14.125,6.375-26.108,4.658" transform="translate(-13.709 -118.358)" fill="#6e6e6e"/>
        <path id="Trazado_190602" data-name="Trazado 190602" d="M93.844,85.2a.238.238,0,0,0,.234-.238l0-.074a.255.255,0,0,0-.064-.178.225.225,0,0,0-.164-.076,49.654,49.654,0,0,1-8.938-.9.294.294,0,0,0-.324.172h0a.291.291,0,0,0,0,.244.261.261,0,0,0,.183.147,51.1,51.1,0,0,0,9.07.9" transform="translate(-74.962 -74.223)" fill="#e8e8e8"/>
        <path id="Trazado_190603" data-name="Trazado 190603" d="M51.623,66.182l-.008-8.4c.007,3.9-13.927,6.608-26.12,4.862-6.42-.92-10.15-2.817-10.154-4.8l.008,8.4c0,1.981,3.734,3.879,10.154,4.8,12.153,1.74,26.127-.948,26.12-4.862" transform="translate(-13.599 -51.218)" fill="#a1a1a1"/>
        <g id="Grupo_128031" data-name="Grupo 128031" transform="translate(30.611 6.56)" style="mix-blend-mode: multiply;isolation: isolate">
          <g id="Grupo_128030" data-name="Grupo 128030">
            <g id="Grupo_128029" data-name="Grupo 128029" clip-path="url(#clip-path-5)">
              <path id="Trazado_190604" data-name="Trazado 190604" d="M269.607,62.108v8.4c4.422-.969,7.415-2.518,7.412-4.33l-.008-8.4c0,1.808-2.984,3.359-7.4,4.33" transform="translate(-269.607 -57.778)" fill="#c9c9c9"/>
            </g>
          </g>
        </g>
        <g id="Grupo_128034" data-name="Grupo 128034" transform="translate(29.427 15.168)" style="mix-blend-mode: multiply;isolation: isolate">
          <g id="Grupo_128033" data-name="Grupo 128033">
            <g id="Grupo_128032" data-name="Grupo 128032" clip-path="url(#clip-path-6)">
              <path id="Trazado_190605" data-name="Trazado 190605" d="M265.382,136.878c-.223.147-.464.289-.723.425.3-.169.556-.331.763-.47a6.036,6.036,0,0,0,.566-.416l.041-.035a6.134,6.134,0,0,1-.646.495,5.579,5.579,0,0,0,.837-.667l-.013.011.051-.049.409-.4h0a3.321,3.321,0,0,0,1.091-2.18c-.21,1.721-3.141,3.193-7.4,4.127l-1.184,1.411a25.851,25.851,0,0,0,3.537-.958h0a11.3,11.3,0,0,0,1.269-.516,10.657,10.657,0,0,0,1.061-.56c.125-.076.236-.147.337-.215" transform="translate(-259.174 -133.591)" fill="#c9c9c9"/>
            </g>
          </g>
        </g>
        <g id="Grupo_128037" data-name="Grupo 128037" transform="translate(29.579 2.347)" style="mix-blend-mode: multiply;isolation: isolate">
          <g id="Grupo_128036" data-name="Grupo 128036">
            <g id="Grupo_128035" data-name="Grupo 128035" clip-path="url(#clip-path-7)">
              <path id="Trazado_190606" data-name="Trazado 190606" d="M268.945,24.769q0-.051,0-.1a2.825,2.825,0,0,0-.324-1.126,3.125,3.125,0,0,0-.377-.586,4.4,4.4,0,0,0-.324-.373l0,0-.006-.006h0l-.006-.006h0l0,.005-.015-.015,0,0-.053-.053,0,0-.411-.4a1.9,1.9,0,0,1,.694,1.9,1.518,1.518,0,0,0,.008-.739V23.25c0-.019-.01-.039-.015-.058a3.434,3.434,0,0,0-1.525-1.774,8.862,8.862,0,0,0-.836-.5l-.863-.244-2.043,2.792-2.326,3.715,1.032,2.036,0,0a20.511,20.511,0,0,0,5.009-1.666c1.512-.778,2.393-1.684,2.392-2.667,0-.041,0-.079-.006-.117" transform="translate(-260.514 -20.673)" fill="#d4d4d4"/>
            </g>
          </g>
        </g>
        <g id="Grupo_128040" data-name="Grupo 128040" transform="translate(1.741 3.651)" style="mix-blend-mode: multiply;isolation: isolate">
          <g id="Grupo_128039" data-name="Grupo 128039">
            <g id="Grupo_128038" data-name="Grupo 128038" clip-path="url(#clip-path-8)">
              <path id="Trazado_190607" data-name="Trazado 190607" d="M16.1,45.068V36.7l1.235-2.209.223-2.33-.7.171,0,0-.01.009-.024.025,0,0,.024-.025-.409.4h0q-.046.045-.089.09l-.009.009,0,0-.02.022c-.053.055-.105.112-.148.163-.067.085-.152.184-.248.32a3.054,3.054,0,0,0-.391.73,2.659,2.659,0,0,0-.122.4,2.328,2.328,0,0,0-.056.353,2.155,2.155,0,0,0-.015.286l.008,8.4c0,.044,0,.088.006.132a2.854,2.854,0,0,0,.321,1.205,3.584,3.584,0,0,0,.859,1.121l.343.334h0c.031.03.063.06.1.09q.094.086.2.17Z" transform="translate(-15.336 -32.158)" fill="#e3e3e3"/>
            </g>
          </g>
        </g>
        <path id="Trazado_190608" data-name="Trazado 190608" d="M31.376,3.119c-4.012,2.427-.632,5.345,7.551,6.517S57,9.79,61.009,7.362,61.64,2.017,53.457.845,35.388.691,31.376,3.119" transform="translate(-26.317 -0.318)" fill="#cecece"/>
        <path id="Trazado_190609" data-name="Trazado 190609" d="M34.752,161.7h0q-.086-.056-.168-.112.082.059.168.117a4.189,4.189,0,0,0,.621.36c-.368-.2-.587-.343-.621-.364" transform="translate(-30.657 -143.239)" fill="#4271e5"/>
        <path id="Trazado_190610" data-name="Trazado 190610" d="M62.7,157.431c-1.618,1.506-4.84,2.422-6.954,2.831-8.666,1.759-21.577.914-25.856-2.625-.034-.029-.077-.062-.2-.175v1.349h0c-.033,1.813,3.366,3.554,9.239,4.4,11.208,1.605,24.046-.928,23.765-4.534h0Z" transform="translate(-26.315 -139.556)" fill="#4271e5"/>
        <path id="Trazado_190611" data-name="Trazado 190611" d="M307.477,159.1a6.83,6.83,0,0,0,1.37-.92,9.522,9.522,0,0,1-1.37.92" transform="translate(-272.566 -140.221)" fill="#4271e5"/>
        <g id="Grupo_128043" data-name="Grupo 128043" transform="translate(9.601 21.742)" style="mix-blend-mode: screen;isolation: isolate">
          <g id="Grupo_128042" data-name="Grupo 128042">
            <g id="Grupo_128041" data-name="Grupo 128041" clip-path="url(#clip-path-19)">
              <path id="Trazado_190612" data-name="Trazado 190612" d="M93.844,192.961a.238.238,0,0,0,.234-.237l0-.074a.255.255,0,0,0-.064-.178.224.224,0,0,0-.164-.076,49.654,49.654,0,0,1-8.938-.9.294.294,0,0,0-.324.172h0a.291.291,0,0,0,0,.244.26.26,0,0,0,.183.147,51.09,51.09,0,0,0,9.07.9" transform="translate(-84.564 -191.492)" fill="#497eff"/>
            </g>
          </g>
        </g>
        <g id="Grupo_128046" data-name="Grupo 128046" transform="translate(3.371 17.875)" style="mix-blend-mode: multiply;isolation: isolate">
          <g id="Grupo_128045" data-name="Grupo 128045">
            <g id="Grupo_128044" data-name="Grupo 128044" clip-path="url(#clip-path-14)">
              <path id="Trazado_190613" data-name="Trazado 190613" d="M55.742,160.262h0C47.19,162,34.5,161.2,30.06,157.775l-.086-.068-.087-.071c-.034-.029-.077-.062-.2-.175v1.349h0a1.728,1.728,0,0,0,.373,1.057v-1.477a6.854,6.854,0,0,0,.582.4q-.208-.131-.4-.268a7.94,7.94,0,0,0,.789.476,4.305,4.305,0,0,1-.389-.209c4.968,3.126,16.988,3.739,25.1,2.092v1.889c4.234-.9,7.083-2.375,6.949-4.095h0v-1.242c-1.618,1.506-4.84,2.422-6.954,2.831" transform="translate(-29.686 -157.431)" fill="#bdbdbd"/>
            </g>
          </g>
        </g>
        <path id="Trazado_190614" data-name="Trazado 190614" d="M79.878,129.754a1.638,1.638,0,1,1-1.638-1.638,1.638,1.638,0,0,1,1.638,1.638" transform="translate(-67.904 -113.57)" fill="#0df904"/>
        <path id="Trazado_190615" data-name="Trazado 190615" d="M77.706,127.688a1.891,1.891,0,0,1-.3,1.074,1.937,1.937,0,1,1-2.681-2.681,1.892,1.892,0,0,1,1.074-.3,1.918,1.918,0,0,0-1.048.341,1.891,1.891,0,0,0-.782,1.932,1.889,1.889,0,0,0,1.466,1.466,1.906,1.906,0,0,0,2.273-1.83" transform="translate(-65.461 -111.497)" fill="#e8e8e8"/>
        <g id="Grupo_128049" data-name="Grupo 128049" transform="translate(9.545 15.394)" opacity="0.4" style="mix-blend-mode: multiply;isolation: isolate">
          <g id="Grupo_128048" data-name="Grupo 128048">
            <g id="Grupo_128047" data-name="Grupo 128047" clip-path="url(#clip-path-21)">
              <path id="Trazado_190616" data-name="Trazado 190616" d="M85.647,136.373a.791.791,0,1,1-.791-.791.791.791,0,0,1,.791.791" transform="translate(-84.066 -135.582)" fill="#4271e5"/>
            </g>
          </g>
        </g>
        <path id="Trazado_190617" data-name="Trazado 190617" d="M126.589,135.694a1.638,1.638,0,1,1-1.638-1.638,1.638,1.638,0,0,1,1.638,1.638" transform="translate(-109.312 -118.835)" fill="#0df904"/>
        <path id="Trazado_190618" data-name="Trazado 190618" d="M124.417,133.629a1.893,1.893,0,0,1-.3,1.074,1.937,1.937,0,1,1-2.681-2.681,1.893,1.893,0,0,1,1.074-.3,1.915,1.915,0,0,0-1.048.341,1.891,1.891,0,0,0-.782,1.932,1.89,1.89,0,0,0,1.466,1.466,1.907,1.907,0,0,0,2.273-1.83" transform="translate(-106.869 -116.764)" fill="#e8e8e8"/>
        <g id="Grupo_128052" data-name="Grupo 128052" transform="translate(14.849 16.068)" opacity="0.4" style="mix-blend-mode: multiply;isolation: isolate">
          <g id="Grupo_128051" data-name="Grupo 128051">
            <g id="Grupo_128050" data-name="Grupo 128050" clip-path="url(#clip-path-21)">
              <path id="Trazado_190619" data-name="Trazado 190619" d="M132.359,142.312a.791.791,0,1,1-.791-.791.791.791,0,0,1,.791.791" transform="translate(-130.777 -141.521)" fill="#4271e5"/>
            </g>
          </g>
        </g>
        <path id="Trazado_190620" data-name="Trazado 190620" d="M173.3,137.464a1.638,1.638,0,1,1-1.639-1.638,1.639,1.639,0,0,1,1.639,1.638" transform="translate(-150.719 -120.404)" fill="#0df904"/>
        <path id="Trazado_190621" data-name="Trazado 190621" d="M171.129,135.4a1.892,1.892,0,0,1-.3,1.074,1.937,1.937,0,1,1-2.681-2.681,1.892,1.892,0,0,1,1.074-.3,1.917,1.917,0,0,0-1.048.341,1.891,1.891,0,0,0-.782,1.932,1.89,1.89,0,0,0,1.466,1.466,1.909,1.909,0,0,0,1.081-.1,1.89,1.89,0,0,0,.852-.683,1.919,1.919,0,0,0,.341-1.048" transform="translate(-148.277 -118.332)" fill="#e8e8e8"/>
        <g id="Grupo_128055" data-name="Grupo 128055" transform="translate(20.152 16.269)" opacity="0.4" style="mix-blend-mode: multiply;isolation: isolate">
          <g id="Grupo_128054" data-name="Grupo 128054">
            <g id="Grupo_128053" data-name="Grupo 128053" clip-path="url(#clip-path-23)">
              <path id="Trazado_190622" data-name="Trazado 190622" d="M179.069,144.082a.791.791,0,1,1-.791-.791.791.791,0,0,1,.791.791" transform="translate(-177.487 -143.291)" fill="#4271e5"/>
            </g>
          </g>
        </g>
        <path id="Trazado_190623" data-name="Trazado 190623" d="M79.878,256.391a1.638,1.638,0,1,1-1.638-1.638,1.638,1.638,0,0,1,1.638,1.638" transform="translate(-67.904 -225.828)" fill="#0df904"/>
        <path id="Trazado_190624" data-name="Trazado 190624" d="M77.706,254.325a1.891,1.891,0,0,1-.3,1.074,1.937,1.937,0,1,1-2.681-2.681,1.893,1.893,0,0,1,1.074-.3,1.918,1.918,0,0,0-1.048.341,1.891,1.891,0,0,0-.782,1.932,1.889,1.889,0,0,0,1.466,1.466,1.906,1.906,0,0,0,2.273-1.83" transform="translate(-65.461 -223.755)" fill="#e8e8e8"/>
        <g id="Grupo_128058" data-name="Grupo 128058" transform="translate(9.545 29.772)" opacity="0.4" style="mix-blend-mode: multiply;isolation: isolate">
          <g id="Grupo_128057" data-name="Grupo 128057">
            <g id="Grupo_128056" data-name="Grupo 128056" clip-path="url(#clip-path-21)">
              <path id="Trazado_190625" data-name="Trazado 190625" d="M85.647,263.009a.791.791,0,1,1-.791-.791.791.791,0,0,1,.791.791" transform="translate(-84.066 -262.218)" fill="#4271e5"/>
            </g>
          </g>
        </g>
        <path id="Trazado_190626" data-name="Trazado 190626" d="M126.589,262.331a1.638,1.638,0,1,1-1.638-1.638,1.638,1.638,0,0,1,1.638,1.638" transform="translate(-109.312 -231.094)" fill="#0df904"/>
        <path id="Trazado_190627" data-name="Trazado 190627" d="M124.417,260.265a1.894,1.894,0,0,1-.3,1.074,1.937,1.937,0,1,1-2.681-2.681,1.892,1.892,0,0,1,1.074-.3,1.915,1.915,0,0,0-1.048.341,1.89,1.89,0,0,0-.782,1.932,1.89,1.89,0,0,0,1.466,1.466,1.907,1.907,0,0,0,2.273-1.83" transform="translate(-106.869 -229.021)" fill="#e8e8e8"/>
        <g id="Grupo_128061" data-name="Grupo 128061" transform="translate(14.849 30.447)" opacity="0.4" style="mix-blend-mode: multiply;isolation: isolate">
          <g id="Grupo_128060" data-name="Grupo 128060">
            <g id="Grupo_128059" data-name="Grupo 128059" clip-path="url(#clip-path-21)">
              <path id="Trazado_190628" data-name="Trazado 190628" d="M132.359,268.95a.791.791,0,1,1-.791-.791.791.791,0,0,1,.791.791" transform="translate(-130.777 -268.159)" fill="#4271e5"/>
            </g>
          </g>
        </g>
        <path id="Trazado_190629" data-name="Trazado 190629" d="M173.3,264.1a1.638,1.638,0,1,1-1.639-1.638A1.638,1.638,0,0,1,173.3,264.1" transform="translate(-150.719 -232.662)" fill="#0df904"/>
        <path id="Trazado_190630" data-name="Trazado 190630" d="M171.129,262.035a1.893,1.893,0,0,1-.3,1.074,1.937,1.937,0,1,1-2.681-2.681,1.893,1.893,0,0,1,1.074-.3,1.917,1.917,0,0,0-1.048.341,1.891,1.891,0,0,0-.782,1.932,1.89,1.89,0,0,0,1.466,1.466,1.907,1.907,0,0,0,2.273-1.83" transform="translate(-148.277 -230.59)" fill="#e8e8e8"/>
        <g id="Grupo_128064" data-name="Grupo 128064" transform="translate(20.152 30.648)" opacity="0.4" style="mix-blend-mode: multiply;isolation: isolate">
          <g id="Grupo_128063" data-name="Grupo 128063">
            <g id="Grupo_128062" data-name="Grupo 128062" clip-path="url(#clip-path-23)">
              <path id="Trazado_190631" data-name="Trazado 190631" d="M179.069,270.719a.791.791,0,1,1-.791-.791.791.791,0,0,1,.791.791" transform="translate(-177.487 -269.928)" fill="#4271e5"/>
            </g>
          </g>
        </g>
        <path id="Trazado_190632" data-name="Trazado 190632" d="M79.878,382.892a1.638,1.638,0,1,1-1.638-1.638,1.638,1.638,0,0,1,1.638,1.638" transform="translate(-67.904 -337.966)" fill="#0df904"/>
        <path id="Trazado_190633" data-name="Trazado 190633" d="M77.706,380.825a1.89,1.89,0,0,1-.3,1.074,1.937,1.937,0,1,1-2.681-2.68,1.892,1.892,0,0,1,1.074-.3,1.918,1.918,0,0,0-1.048.341,1.891,1.891,0,0,0-.782,1.932,1.889,1.889,0,0,0,1.466,1.466,1.907,1.907,0,0,0,2.273-1.83" transform="translate(-65.461 -335.893)" fill="#e8e8e8"/>
        <g id="Grupo_128067" data-name="Grupo 128067" transform="translate(9.545 44.135)" opacity="0.4" style="mix-blend-mode: multiply;isolation: isolate">
          <g id="Grupo_128066" data-name="Grupo 128066">
            <g id="Grupo_128065" data-name="Grupo 128065" clip-path="url(#clip-path-21)">
              <path id="Trazado_190634" data-name="Trazado 190634" d="M85.647,389.51a.791.791,0,1,1-.791-.791.791.791,0,0,1,.791.791" transform="translate(-84.066 -388.719)" fill="#4271e5"/>
            </g>
          </g>
        </g>
        <path id="Trazado_190635" data-name="Trazado 190635" d="M126.589,388.831a1.638,1.638,0,1,1-1.638-1.638,1.638,1.638,0,0,1,1.638,1.638" transform="translate(-109.312 -343.231)" fill="#0df904"/>
        <path id="Trazado_190636" data-name="Trazado 190636" d="M124.417,386.765a1.892,1.892,0,0,1-.3,1.073,1.937,1.937,0,1,1-2.681-2.68,1.892,1.892,0,0,1,1.074-.3,1.914,1.914,0,0,0-1.048.341,1.891,1.891,0,0,0-.782,1.932,1.89,1.89,0,0,0,1.466,1.466,1.907,1.907,0,0,0,2.273-1.83" transform="translate(-106.869 -341.159)" fill="#e8e8e8"/>
        <g id="Grupo_128070" data-name="Grupo 128070" transform="translate(14.849 44.81)" opacity="0.4" style="mix-blend-mode: multiply;isolation: isolate">
          <g id="Grupo_128069" data-name="Grupo 128069">
            <g id="Grupo_128068" data-name="Grupo 128068" clip-path="url(#clip-path-21)">
              <path id="Trazado_190637" data-name="Trazado 190637" d="M132.359,395.45a.791.791,0,1,1-.791-.791.791.791,0,0,1,.791.791" transform="translate(-130.777 -394.659)" fill="#4271e5"/>
            </g>
          </g>
        </g>
        <path id="Trazado_190638" data-name="Trazado 190638" d="M173.3,390.6a1.638,1.638,0,1,1-1.639-1.638A1.638,1.638,0,0,1,173.3,390.6" transform="translate(-150.719 -344.8)" fill="#0df904"/>
        <path id="Trazado_190639" data-name="Trazado 190639" d="M171.129,388.535a1.893,1.893,0,0,1-.3,1.074,1.937,1.937,0,1,1-2.681-2.681,1.893,1.893,0,0,1,1.074-.3,1.917,1.917,0,0,0-1.048.341,1.891,1.891,0,0,0-.782,1.932,1.89,1.89,0,0,0,1.466,1.466,1.909,1.909,0,0,0,1.081-.1,1.89,1.89,0,0,0,.852-.683,1.919,1.919,0,0,0,.341-1.048" transform="translate(-148.277 -342.728)" fill="#e8e8e8"/>
        <g id="Grupo_128073" data-name="Grupo 128073" transform="translate(20.152 45.011)" opacity="0.4" style="mix-blend-mode: multiply;isolation: isolate">
          <g id="Grupo_128072" data-name="Grupo 128072">
            <g id="Grupo_128071" data-name="Grupo 128071" clip-path="url(#clip-path-23)">
              <path id="Trazado_190640" data-name="Trazado 190640" d="M179.069,397.219a.791.791,0,1,1-.791-.791.791.791,0,0,1,.791.791" transform="translate(-177.487 -396.428)" fill="#4271e5"/>
            </g>
          </g>
        </g>
      </g>
    </g>
  </g>
</svg>
