<svg id="Grupo_128222" data-name="Grupo 128222" xmlns="http://www.w3.org/2000/svg" xmlns:xlink="http://www.w3.org/1999/xlink" width="120.062" height="120" viewBox="0 0 120.062 120">
  <defs>
    <clipPath id="clip-path">
      <rect id="Rectángulo_41194" data-name="Rectángulo 41194" width="120.062" height="120" fill="none"/>
    </clipPath>
  </defs>
  <g id="Grupo_128221" data-name="Grupo 128221" clip-path="url(#clip-path)">
    <path id="Trazado_190854" data-name="Trazado 190854" d="M.063,59.851C.063,48.029.2,36.2,0,24.385c-.093-5.513,2.147-9.6,6.217-12.957A43.141,43.141,0,0,1,21.682,3.712C33.711.123,46.007-.628,58.455.46a75.439,75.439,0,0,1,23.917,5.7C86.793,8.1,90.9,10.529,94.056,14.3a13.677,13.677,0,0,1,3.307,9.171c-.052,10.278-.012,20.557-.032,30.835a1.213,1.213,0,0,0,.942,1.385,33.158,33.158,0,1,1-24.429,61.622,2.794,2.794,0,0,0-1.88-.138,101.026,101.026,0,0,1-33.987,2.146,74.452,74.452,0,0,1-23.17-5.7c-4.378-1.936-8.436-4.372-11.542-8.127A13.34,13.34,0,0,1,.045,96.659C.091,84.39.063,72.12.063,59.851M53.709,83.909A34.678,34.678,0,0,1,58.5,69.648a5.544,5.544,0,0,0-.635-.037,96.663,96.663,0,0,1-34.508-2.79C16.7,64.986,10.4,62.37,5.148,57.7c-.034-.03-.142.025-.271.051,0,4.617.053,9.245-.019,13.87a9.309,9.309,0,0,0,3.524,7.41,22.564,22.564,0,0,0,7.026,4.725C27.4,89.272,40.12,90.492,53.117,90.024c.569-.02.643-.269.633-.755-.035-1.786-.031-3.573-.041-5.36M8.62,104.143a14.7,14.7,0,0,0,3.638,2.8c7.5,4.484,15.8,6.374,24.346,7.422a100.067,100.067,0,0,0,24.039,0,42.677,42.677,0,0,0,6.3-1.057,38.57,38.57,0,0,1-6.1-5.835,34.738,34.738,0,0,1-6.027-12.116c-.181-.708-.667-.558-1.139-.537a101.737,101.737,0,0,1-24.246-1.664,60.619,60.619,0,0,1-19.158-6.821,35.172,35.172,0,0,1-5.4-3.992c0,4.881.059,9.506-.02,14.13a9.406,9.406,0,0,0,3.764,7.668M8.4,54.153a7.914,7.914,0,0,0,1.814,1.6c5.067,3.727,10.877,5.754,16.912,7.155a99.581,99.581,0,0,0,34.735,1.513,1.936,1.936,0,0,0,1.222-.694,31.746,31.746,0,0,1,4.812-4.1,32.587,32.587,0,0,1,20.541-5.946,1.617,1.617,0,0,0,1.537-.454,9.21,9.21,0,0,0,2.558-6.262c-.059-4.386-.011-8.774-.026-13.16,0-.327.181-.719-.221-1.037a36.892,36.892,0,0,1-5.448,4.061c-.685.347-1.369.7-2.056,1.04a70.8,70.8,0,0,1-24.036,6.6A99.374,99.374,0,0,1,23.3,41.919C17.2,40.26,11.39,37.9,6.384,33.891c-.457-.366-.9-.744-1.507-1.242,0,4.846.056,9.472-.02,14.1A9.326,9.326,0,0,0,8.4,54.153M49.855,4.84A97.054,97.054,0,0,0,22.2,8.633c-4.841,1.434-9.491,3.314-13.463,6.584-5.055,4.163-5.11,10.515-.106,14.655a29.5,29.5,0,0,0,7.729,4.555c9.232,3.77,18.937,5.262,28.812,5.8a81.021,81.021,0,0,0,12.639-.4,87.608,87.608,0,0,0,19.473-3.994c4.628-1.577,9.1-3.484,12.569-7.146,3.509-3.71,3.5-8.492.01-12.207a25.249,25.249,0,0,0-9.379-5.954A87.721,87.721,0,0,0,49.855,4.84m8.583,81.838A28.4,28.4,0,1,0,87.082,58.425,28.489,28.489,0,0,0,58.438,86.677" transform="translate(0 0)"/>
    <path id="Trazado_190855" data-name="Trazado 190855" d="M60.014,14.85a87.729,87.729,0,0,1,30.628,5.688,25.249,25.249,0,0,1,9.379,5.955c3.495,3.715,3.5,8.5-.01,12.207-3.466,3.663-7.942,5.569-12.569,7.146A87.608,87.608,0,0,1,67.968,49.84a81.1,81.1,0,0,1-12.639.4c-9.874-.536-19.58-2.028-28.812-5.8a29.5,29.5,0,0,1-7.729-4.555c-5-4.14-4.949-10.492.106-14.654,3.971-3.27,8.621-5.15,13.463-6.584A97.052,97.052,0,0,1,60.014,14.85" transform="translate(-10.158 -10.011)" fill="#45b2c4"/>
    <path id="Trazado_190856" data-name="Trazado 190856" d="M179.338,207.545a28.4,28.4,0,1,1,27.272,28.5,28.392,28.392,0,0,1-27.272-28.5m38.508-12.681c-.871.547-1.659,1.035-2.441,1.533-.622.4-.8.886-.066,1.294q4.468,2.486,8.975,4.9c.638.344,1.054.079,1.041-.635q-.093-5.118-.245-10.235c-.025-.809-.514-.95-1.17-.566s-1.339.771-1.97,1.213a1.008,1.008,0,0,1-1.46-.064,20.009,20.009,0,0,0-32.123,10.307,1.754,1.754,0,0,0,.783,2.111,1.663,1.663,0,0,0,2.041-.131,2.774,2.774,0,0,0,.821-1.591,16.247,16.247,0,0,1,5.5-8.147c5.844-4.693,14.831-4.744,20.314.007m-20.237,25.662c.972-.6,1.772-1.081,2.55-1.591.655-.43.662-.913-.032-1.3q-4.419-2.441-8.858-4.845c-.716-.388-1.11-.084-1.1.682.061,3.328.146,6.656.226,9.983.024.976.529,1.1,1.281.678.67-.379,1.336-.773,1.969-1.21a.883.883,0,0,1,1.265.059,19.889,19.889,0,0,0,15.889,4.488c7.489-.948,14.773-7.476,16.363-14.814a1.756,1.756,0,0,0-.785-2c-1.169-.769-2.3-.137-2.838,1.561a16.332,16.332,0,0,1-17.111,11.8,15.482,15.482,0,0,1-8.822-3.495" transform="translate(-120.899 -120.868)" fill="#ff9b6a"/>
    <path id="Trazado_190857" data-name="Trazado 190857" d="M18.443,121.7A9.326,9.326,0,0,1,14.9,114.29c.076-4.623.02-9.249.02-14.095.6.5,1.05.876,1.507,1.242,5.006,4.009,10.814,6.369,16.917,8.028A99.367,99.367,0,0,0,70.786,112a70.8,70.8,0,0,0,24.036-6.6c.687-.342,1.371-.693,2.056-1.04.325.217.264.556.294.876.454,4.992-1.917,8.626-5.621,11.586A40.453,40.453,0,0,1,78.5,123.4a82.975,82.975,0,0,1-22.216,3.857,103.069,103.069,0,0,1-17.687-.627,88.2,88.2,0,0,1-16.274-3.585c-1.3-.429-2.588-.9-3.882-1.352" transform="translate(-10.047 -67.546)" fill="#88e0ef"/>
    <path id="Trazado_190858" data-name="Trazado 190858" d="M18.665,274.5a9.407,9.407,0,0,1-3.764-7.669c.079-4.623.02-9.249.02-14.13a35.142,35.142,0,0,0,5.4,3.992,60.631,60.631,0,0,0,19.159,6.821,101.771,101.771,0,0,0,24.246,1.665c.472-.021.958-.171,1.139.537a34.739,34.739,0,0,0,6.027,12.115c-.395.584-1.054.332-1.574.445a66.019,66.019,0,0,1-12.471,1.539,112.874,112.874,0,0,1-20.482-.874,79.932,79.932,0,0,1-16.405-4.168,2.877,2.877,0,0,0-1.291-.273" transform="translate(-10.045 -170.356)" fill="#88e0ef"/>
    <path id="Trazado_190859" data-name="Trazado 190859" d="M18.431,198.371a9.308,9.308,0,0,1-3.524-7.41c.072-4.626.019-9.253.019-13.87.129-.027.238-.081.271-.051,5.253,4.674,11.552,7.29,18.211,9.125a96.671,96.671,0,0,0,34.508,2.79,5.466,5.466,0,0,1,.635.037,34.677,34.677,0,0,0-4.794,14.261c-2.324.244-4.646.674-6.973.7-6.149.058-12.3.207-18.432-.651a82.012,82.012,0,0,1-15.459-3.4q-2.231-.768-4.464-1.529" transform="translate(-10.049 -119.344)" fill="#88e0ef"/>
    <path id="Trazado_190860" data-name="Trazado 190860" d="M25.767,121.93c1.294.452,2.581.923,3.882,1.352a88.2,88.2,0,0,0,16.274,3.585,103.071,103.071,0,0,0,17.687.627,82.974,82.974,0,0,0,22.216-3.857,40.452,40.452,0,0,0,13.049-6.575c3.7-2.96,6.075-6.594,5.621-11.586-.029-.32.031-.66-.294-.876a36.855,36.855,0,0,0,5.448-4.061c.4.318.22.71.221,1.037.015,4.387-.033,8.774.026,13.16A9.208,9.208,0,0,1,107.339,121a1.616,1.616,0,0,1-1.536.454,32.587,32.587,0,0,0-20.54,5.946,31.768,31.768,0,0,0-4.812,4.1,1.936,1.936,0,0,1-1.222.694,99.58,99.58,0,0,1-34.735-1.513c-6.036-1.4-11.845-3.427-16.913-7.155a7.929,7.929,0,0,1-1.814-1.6" transform="translate(-17.371 -67.778)" fill="#88e0ef"/>
    <path id="Trazado_190861" data-name="Trazado 190861" d="M26.455,319.583a2.876,2.876,0,0,1,1.291.273,79.93,79.93,0,0,0,16.405,4.168,112.866,112.866,0,0,0,20.482.874A66.017,66.017,0,0,0,77.1,323.36c.52-.114,1.18.138,1.574-.445a38.554,38.554,0,0,0,6.1,5.835,42.673,42.673,0,0,1-6.3,1.058,100.072,100.072,0,0,1-24.039,0c-8.542-1.048-16.847-2.938-24.346-7.422a14.709,14.709,0,0,1-3.637-2.8" transform="translate(-17.834 -215.44)" fill="#88e0ef"/>
    <path id="Trazado_190862" data-name="Trazado 190862" d="M25.723,242.521q2.232.764,4.464,1.529a82.017,82.017,0,0,0,15.459,3.4c6.133.858,12.283.709,18.432.651,2.326-.022,4.648-.452,6.973-.7.01,1.787.006,3.574.041,5.36.009.485-.064.734-.633.755-13,.468-25.716-.753-37.709-6.271a22.564,22.564,0,0,1-7.026-4.725" transform="translate(-17.341 -163.493)" fill="#88e0ef"/>
    <path id="Trazado_190863" data-name="Trazado 190863" d="M236.38,212.151c-5.484-4.75-14.471-4.7-20.314-.006a16.246,16.246,0,0,0-5.5,8.147,2.774,2.774,0,0,1-.821,1.591,1.663,1.663,0,0,1-2.042.131,1.754,1.754,0,0,1-.783-2.111A20.009,20.009,0,0,1,239.045,209.6a1.008,1.008,0,0,0,1.46.064c.631-.442,1.3-.823,1.97-1.213s1.144-.243,1.17.566q.159,5.116.245,10.234c.013.714-.4.98-1.041.636q-4.5-2.429-8.975-4.9c-.733-.408-.556-.9.066-1.294.782-.5,1.569-.986,2.441-1.533" transform="translate(-139.434 -138.155)"/>
    <path id="Trazado_190864" data-name="Trazado 190864" d="M220.02,284.746a15.481,15.481,0,0,0,8.822,3.495,16.332,16.332,0,0,0,17.111-11.8c.539-1.7,1.669-2.331,2.838-1.561a1.756,1.756,0,0,1,.785,2c-1.59,7.338-8.874,13.865-16.363,14.814a19.889,19.889,0,0,1-15.889-4.488.883.883,0,0,0-1.265-.059c-.634.437-1.3.831-1.969,1.21-.752.426-1.257.3-1.281-.678-.08-3.328-.166-6.655-.227-9.983-.014-.765.38-1.07,1.1-.682q4.438,2.406,8.858,4.845c.694.383.687.867.032,1.3-.778.511-1.578.987-2.55,1.591" transform="translate(-143.311 -185.088)"/>
  </g>
</svg>
