<svg xmlns="http://www.w3.org/2000/svg" xmlns:xlink="http://www.w3.org/1999/xlink" width="352.894" height="259.893" viewBox="0 0 352.894 259.893">
  <defs>
    <clipPath id="clip-path">
      <rect id="Rectángulo_41156" data-name="Rectángulo 41156" width="16.189" height="16.031" fill="none"/>
    </clipPath>
  </defs>
  <g id="Grupo_128157" data-name="Grupo 128157" transform="translate(-475 -4590.791)">
    <g id="Grupo_128126" data-name="Grupo 128126">
      <g id="Grupo_128138" data-name="Grupo 128138" transform="translate(0.429)">
        <rect id="Rectángulo_41134" data-name="Rectángulo 41134" width="317.645" height="228.814" transform="translate(509.571 4591.041)" fill="none" stroke="#c7c7c7" stroke-miterlimit="10" stroke-width="0.5"/>
        <g id="Grupo_128137" data-name="Grupo 128137">
          <rect id="Rectángulo_41136" data-name="Rectángulo 41136" width="317.645" height="10.451" transform="translate(509.572 4591.042)" fill="#592fe6"/>
          <path id="Trazado_190698" data-name="Trazado 190698" d="M81.267,5.1a2.592,2.592,0,1,1-2.592-2.592A2.592,2.592,0,0,1,81.267,5.1" transform="translate(436.612 4591.167)" fill="#88e0ef"/>
          <path id="Trazado_190699" data-name="Trazado 190699" d="M90.336,5.1a2.592,2.592,0,1,1-2.592-2.592A2.592,2.592,0,0,1,90.336,5.1" transform="translate(438.127 4591.167)" fill="#fff"/>
          <path id="Trazado_190700" data-name="Trazado 190700" d="M99.405,5.1a2.592,2.592,0,1,1-2.592-2.592A2.592,2.592,0,0,1,99.405,5.1" transform="translate(439.643 4591.167)" fill="#ff5151"/>
        </g>
      </g>
      <g id="Grupo_128139" data-name="Grupo 128139">
        <path id="Trazado_190703" data-name="Trazado 190703" d="M116.179,270.811l1.777,10.657,12.038,72.5h1.941l-8.754-72.5-1.293-10.657Z" transform="translate(432.734 4495.449)" fill="#dbdbdb"/>
        <path id="Trazado_190704" data-name="Trazado 190704" d="M121.887,270.811h-5.709l1.778,10.657h5.225Z" transform="translate(432.734 4495.449)" fill="#a6a6a6"/>
        <path id="Trazado_190705" data-name="Trazado 190705" d="M56.757,353.969H58.7l12.038-72.5,1.778-10.657H66.8l-1.293,10.657Z" transform="translate(454.353 4495.449)" fill="#dbdbdb"/>
        <path id="Trazado_190706" data-name="Trazado 190706" d="M71.811,270.811l-1.293,10.657h5.225l1.778-10.657Z" transform="translate(449.347 4495.449)" fill="#a6a6a6"/>
        <path id="Trazado_190707" data-name="Trazado 190707" d="M10.048,270.811,8.754,281.468,0,353.969h1.94l12.038-72.5,1.777-10.657Z" transform="translate(475 4495.449)" fill="#dbdbdb"/>
        <path id="Trazado_190708" data-name="Trazado 190708" d="M13.76,281.468h5.225l1.778-10.657H15.053Z" transform="translate(469.994 4495.449)" fill="#a6a6a6"/>
        <path id="Trazado_190709" data-name="Trazado 190709" d="M4.838,236.444H93.051v-9.295H60.028l-11.1-64.572H8.2Z" transform="translate(473.24 4534.824)" fill="#dbdbdb"/>
        <path id="Trazado_190710" data-name="Trazado 190710" d="M4.838,236.444H9.646l3.135-73.867H8.2Z" transform="translate(473.24 4534.824)" fill="#a6a6a6"/>
      </g>
      <g id="Grupo_128141" data-name="Grupo 128141" transform="translate(429)">
        <path id="Trazado_190711" data-name="Trazado 190711" d="M116.626,373.294c-1.6.15-45.041-10.245-46.408-11.655-.167-.156.691-4.105,1.951-9.49l.025-.106c.787-3.414,13.474-31.018,13.474-31.018l28.157,7.882L101,354.517s5.3,3.832,9.838,7.47c0,.008.011.009.01.015a62.171,62.171,0,0,1,5.735,4.891c1.328,1.7,1.634,6.262.041,6.4" transform="translate(19.448 4477.181)" fill="#d3766a"/>
        <path id="Trazado_190712" data-name="Trazado 190712" d="M116.623,384.609c-1.592.152-45.036-10.244-46.409-11.652-.166-.16.695-4.1,1.954-9.492l.025-.1c.289-1.272,2.244-5.912,4.57-11.228,4.634,1.251,21.245,5.756,27.278,7.629L101,365.835s5.3,3.835,9.838,7.471c0,.006.006.006.006.013a62.633,62.633,0,0,1,5.736,4.891c1.328,1.7,1.636,6.267.038,6.4" transform="translate(19.449 4465.863)" fill="#fff"/>
        <path id="Trazado_190713" data-name="Trazado 190713" d="M116.716,388.355c-1.641.141-45.116-10.374-46.521-11.823-.536-.547.433-7.407,2.822-14.675l28.02,6.812s14.3,11.345,15.672,13.1,1.648,6.445.007,6.586" transform="translate(19.501 4462.327)" fill="#ff5151"/>
        <path id="Trazado_190714" data-name="Trazado 190714" d="M117.917,394.555c-7.244-1.942-36.647-9.088-43.955-10.457-.06-.011-.069.029-.011.046,7.139,2.081,36.6,8.99,43.938,10.531.155.032.182-.079.029-.12" transform="translate(18.097 4454.236)" fill="#263238"/>
        <path id="Trazado_190715" data-name="Trazado 190715" d="M135.378,389.514a6.02,6.02,0,0,0-4.79.725,5.833,5.833,0,0,0-2.57,3.5c-.01.043.071.064.088.021a6.959,6.959,0,0,1,7.25-4.152.047.047,0,0,0,.022-.092" transform="translate(-1.587 4452.342)" fill="#263238"/>
        <path id="Trazado_190716" data-name="Trazado 190716" d="M116.945,374.354c-2.907-.746-6.538-.534-8.927,1.413-.093.075.016.205.113.182a41.512,41.512,0,0,1,8.777-1.224.189.189,0,0,0,.037-.371" transform="translate(5.702 4457.925)" fill="#263238"/>
        <path id="Trazado_190717" data-name="Trazado 190717" d="M120.15,376.589c-2.907-.746-6.538-.534-8.928,1.413-.092.076.017.206.114.182a41.466,41.466,0,0,1,8.778-1.223.189.189,0,0,0,.036-.372" transform="translate(4.536 4457.112)" fill="#263238"/>
        <path id="Trazado_190718" data-name="Trazado 190718" d="M123.356,378.825c-2.907-.746-6.538-.534-8.928,1.413-.092.075.017.206.114.182a41.51,41.51,0,0,1,8.778-1.224.189.189,0,0,0,.036-.371" transform="translate(3.37 4456.299)" fill="#263238"/>
        <path id="Trazado_190719" data-name="Trazado 190719" d="M126.562,381.061c-2.907-.746-6.538-.534-8.927,1.413-.093.075.016.205.113.182a41.466,41.466,0,0,1,8.777-1.223.189.189,0,0,0,.037-.372" transform="translate(2.203 4455.485)" fill="#263238"/>
        <path id="Trazado_190720" data-name="Trazado 190720" d="M77.739,373.878c-3.275-.782-4.5,4.306-1.215,5.09s4.5-4.306,1.215-5.09" transform="translate(17.85 4457.983)" fill="#263238"/>
        <path id="Trazado_190721" data-name="Trazado 190721" d="M124.833,363.025c-1.18-1.582-3.33-.835-4.548.216a15.748,15.748,0,0,0-4.455,6.818.079.079,0,0,0,.071.106.367.367,0,0,0,.468.363c2.425-.935,5.132-1.633,7.2-3.283,1.206-.964,2.383-2.724,1.267-4.219m-5.078,5.334c-1.181.489-2.379.916-3.542,1.448a47.181,47.181,0,0,1,2.689-3.925,16.847,16.847,0,0,1,1.542-1.709c.867-.811,4.319-2.556,3.842.688-.263,1.788-3.123,2.916-4.531,3.5" transform="translate(2.849 4462.233)" fill="#263238"/>
        <path id="Trazado_190722" data-name="Trazado 190722" d="M102.575,370.57c2.445,1,5.24.915,7.829,1.131a.366.366,0,0,0,.347-.478.079.079,0,0,0,.039-.122,15.753,15.753,0,0,0-6.189-5.294c-1.464-.667-3.736-.781-4.425,1.069-.652,1.749.972,3.107,2.4,3.694m-1.36-2.086c-1.368-2.979,2.435-2.273,3.495-1.738a16.958,16.958,0,0,1,1.959,1.208,47.269,47.269,0,0,1,3.682,3.012c-1.265-.185-2.535-.258-3.806-.4-1.514-.164-4.576-.444-5.33-2.087" transform="translate(8.596 4461.051)" fill="#263238"/>
        <path id="Trazado_190723" data-name="Trazado 190723" d="M88.986,309.683,58.82,300.636s24.864-51.819,24.08-54.455c-.524-1.761-37.805-1.883-48.731-11.693-11.309-10.156-2.5-30.1-2.5-30.1l31.345-.162s-.538,6.543.659,7.56c.79.678,43.645,4.449,51.851,20.206,7.448,14.3-26.534,77.693-26.534,77.693" transform="translate(34.653 4519.673)" fill="#263238"/>
        <path id="Trazado_190724" data-name="Trazado 190724" d="M91.316,246.179c.136.444-.47,2.307-1.575,5.092L112.27,278.95c8.035-18.314,15.587-39.435,11.665-46.958-8.21-15.756-51.059-19.529-51.856-20.207-1.19-1.016-.654-7.562-.654-7.562l-19.9.1L84.6,244.94c3.982.439,6.585.781,6.72,1.24" transform="translate(26.239 4519.673)" fill="#263238"/>
        <path id="Trazado_190725" data-name="Trazado 190725" d="M109.405,355.567a18.683,18.683,0,0,0-2.46-.914c-.87-.3-1.74-.595-2.615-.876-1.722-.554-3.45-1.084-5.189-1.575-3.5-.991-7.013-1.962-10.542-2.859-1.839-.468-5.78-1.488-6.025-1.45-.118.018-.143.214-.039.252,3.41,1.22,6.872,2.266,10.335,3.322s6.919,2.1,10.424,2.98c.97.245,1.947.463,2.92.7a21.921,21.921,0,0,0,3.1.664c.1.01.2-.184.09-.239" transform="translate(14.982 4467.407)" fill="#455a64"/>
        <path id="Trazado_190726" data-name="Trazado 190726" d="M36.031,212.019c.1-1.047.214-2.091.333-3.135.013-.121.2-.12.191,0-.418,4.238-.847,8.578-.067,12.8a18.254,18.254,0,0,0,5.6,10.144C48.3,237.634,57,239.342,65.1,240.72c4.641.79,9.309,1.4,13.993,1.856q3.442.337,6.894.552c2.281.142,4.566.164,6.846.291.72.04,1.363.37,1.251,1.192a5.74,5.74,0,0,1-.548,1.44c-.242.555-.489,1.108-.733,1.662q-1.372,3.105-2.761,6.2-2.862,6.384-5.806,12.732-5.842,12.6-12.122,25-.78,1.538-1.563,3.075c-.034.067-.13.006-.1-.06q6-12.552,11.849-25.174,2.9-6.267,5.784-12.54,1.433-3.14,2.851-6.287.708-1.574,1.413-3.149.352-.787.7-1.576c.195-.436.9-1.483.415-1.891-.327-.272-1.006-.179-1.4-.19-.606-.017-1.213-.04-1.819-.06q-1.727-.058-3.454-.143-3.5-.176-6.987-.478c-4.557-.4-9.1-.972-13.614-1.7-8.051-1.3-16.807-2.757-23.25-8.161a19.37,19.37,0,0,1-6.181-9.013c-1.229-3.961-1.111-8.2-.734-12.281" transform="translate(31.972 4518.01)" fill="#455a64"/>
        <path id="Trazado_190727" data-name="Trazado 190727" d="M210.985,323.52c-1.134,1.134-41.226,20.833-43.179,20.618-.228-.014-2.086-3.6-4.549-8.554l-.048-.1c-1.571-3.131-15.834-29.472-15.834-29.472l24.944-12.629,14.658,25.635s6.524-.426,12.342-.52c.008,0,.014,0,.017.006a62.238,62.238,0,0,1,7.536.109c2.105.461,5.251,3.782,4.112,4.9" transform="translate(-8.629 4487.236)" fill="#d3766a"/>
        <path id="Trazado_190728" data-name="Trazado 190728" d="M216.725,334.041c-1.134,1.133-41.226,20.835-43.182,20.619-.227-.01-2.085-3.6-4.547-8.549l-.048-.1c-.109-.218-.222-.44-.34-.66-.078-.162-.16-.32-.249-.476-.118-.234-.246-.47-.373-.707-1.087-2.059-2.871-5.392-4.835-9.04l25.434-12.818,4.133,7.232s6.523-.424,12.342-.52c.009,0,.015,0,.017.005a62.681,62.681,0,0,1,7.534.11c2.1.463,5.256,3.78,4.115,4.9" transform="translate(-14.368 4476.713)" fill="#fff"/>
        <path id="Trazado_190729" data-name="Trazado 190729" d="M218.828,337.823c-1.174,1.155-41.367,20.782-43.373,20.562-.761-.08-4.39-5.982-7.186-13.1L194.2,332.659s18.252-.382,20.426.1,5.38,3.913,4.205,5.069" transform="translate(-16.23 4473.001)" fill="#ff5151"/>
        <path id="Trazado_190730" data-name="Trazado 190730" d="M222.407,338.762c-6.818,3.124-34.023,16.37-40.526,19.977-.053.029-.034.066.021.042,6.825-2.949,33.922-16.415,40.559-19.909.14-.074.09-.176-.054-.11" transform="translate(-21.171 4470.736)" fill="#263238"/>
        <path id="Trazado_190731" data-name="Trazado 190731" d="M233.94,332.6a6.022,6.022,0,0,0-3.227,3.614,5.835,5.835,0,0,0,.251,4.333c.021.039.1,0,.081-.04a6.959,6.959,0,0,1,2.936-7.822.047.047,0,0,0-.041-.085" transform="translate(-38.839 4472.971)" fill="#263238"/>
        <path id="Trazado_190732" data-name="Trazado 190732" d="M209.444,332.17c-2.715,1.279-5.377,3.758-5.975,6.782-.023.117.144.148.2.068a41.481,41.481,0,0,1,5.98-6.541.189.189,0,0,0-.209-.309" transform="translate(-29.035 4473.134)" fill="#263238"/>
        <path id="Trazado_190733" data-name="Trazado 190733" d="M213.339,331.848c-2.715,1.279-5.377,3.758-5.975,6.782-.023.117.144.148.2.067a41.5,41.5,0,0,1,5.98-6.54.189.189,0,0,0-.209-.309" transform="translate(-30.452 4473.25)" fill="#263238"/>
        <path id="Trazado_190734" data-name="Trazado 190734" d="M217.235,331.526c-2.715,1.279-5.377,3.758-5.975,6.782-.024.117.143.148.2.067a41.473,41.473,0,0,1,5.98-6.54.189.189,0,0,0-.209-.309" transform="translate(-31.869 4473.368)" fill="#263238"/>
        <path id="Trazado_190735" data-name="Trazado 190735" d="M221.13,331.2c-2.715,1.279-5.377,3.758-5.975,6.781-.024.118.143.149.2.068a41.5,41.5,0,0,1,5.98-6.54.189.189,0,0,0-.209-.309" transform="translate(-33.286 4473.485)" fill="#263238"/>
        <path id="Trazado_190736" data-name="Trazado 190736" d="M178.875,358.634c-3.021,1.486-.716,6.184,2.309,4.7s.717-6.184-2.309-4.7" transform="translate(-19.573 4463.604)" fill="#263238"/>
        <path id="Trazado_190737" data-name="Trazado 190737" d="M209.893,318.595c-1.918-.465-3.1,1.48-3.365,3.066a15.754,15.754,0,0,0,.917,8.093.08.08,0,0,0,.122.036.366.366,0,0,0,.591-.019c1.272-2.266,2.912-4.53,3.45-7.118.314-1.511.1-3.617-1.715-4.058m-.51,7.347c-.6,1.129-1.248,2.223-1.8,3.374a47.008,47.008,0,0,1-.432-4.738,17.036,17.036,0,0,1,.1-2.3c.151-1.177,1.7-4.723,3.4-1.92.938,1.545-.546,4.238-1.258,5.584" transform="translate(-30.083 4478.09)" fill="#263238"/>
        <path id="Trazado_190738" data-name="Trazado 190738" d="M195.828,339.781c2.524-.786,4.619-2.637,6.751-4.121a.366.366,0,0,0-.038-.59.078.078,0,0,0-.047-.118,15.745,15.745,0,0,0-8.143-.131c-1.552.42-3.376,1.782-2.727,3.645.614,1.763,2.731,1.774,4.2,1.315m-2.378-.74c-2.954-1.423.426-3.3,1.583-3.568a17,17,0,0,1,2.28-.319,47.286,47.286,0,0,1,4.758-.028c-1.092.665-2.118,1.417-3.184,2.122-1.271.84-3.808,2.577-5.436,1.792" transform="translate(-24.677 4472.334)" fill="#263238"/>
        <path id="Trazado_190739" data-name="Trazado 190739" d="M140.737,282.53,110.66,297.559s-23.476-47.731-26.053-50.806c-3.434-4.1-48.154,1.69-58.7-11.55C15,221.509,24.344,204.5,24.344,204.5l34.042-.021a28.4,28.4,0,0,1-1.862,9.3s38.927-2.316,49.941,8.391c8.455,8.219,34.272,60.361,34.272,60.361" transform="translate(37.485 4519.579)" fill="#263238"/>
        <path id="Trazado_190740" data-name="Trazado 190740" d="M67.292,221.546a58.626,58.626,0,0,1,5.415-3.308,22.427,22.427,0,0,1,4.1-1.657c.992-.241,1.428-.313.5.127-.533.252-1.554.738-2.5,1.19.179-.006.356-.011.527-.02.669-.034,1.339-.057,2.008-.074,1.308-.034,2.619-.025,3.927-.033,2.657-.016,5.287.236,7.937.368a.055.055,0,0,1,0,.109c-2.644-.087-5.3.054-7.947.043-1.311-.005-2.618.032-3.928.057q-.96.018-1.919.034a15.4,15.4,0,0,1-1.626,0l-.729.345c-1.925.908-3.845,1.855-5.7,2.9-.055.031-.112-.045-.058-.081" transform="translate(20.513 4515.248)" fill="#455a64"/>
        <path id="Trazado_190741" data-name="Trazado 190741" d="M78.618,202.414c-.345,1.606-.643,3.223-1.045,4.817-.185.731-.366,1.475-.616,2.187-.211.6-.538,1.29-1.22,1.445-.786.179-1.034-.491-.992-1.146.048-.731.209-1.468.329-2.19.139-.832.278-1.664.4-2.5.061-.417.125-.835.182-1.253.014-.1.065-.9.114-1.132.008.019.02.038.045.033l.027-.005a.054.054,0,0,0,.047-.043c.006-.063.005-.076-.044-.118a.061.061,0,0,0-.073,0c-.148.088-.152.3-.2.45-.115.408-.233.814-.337,1.225-.195.768-.384,1.538-.552,2.311s-.33,1.548-.493,2.322a3.6,3.6,0,0,0-.094,1.775,1.35,1.35,0,0,0,1.285.976c-.026.053-.057.1-.079.158-.064.159-.109.328-.164.491s-.1.333-.146.5a1.551,1.551,0,0,0-.038.247c-.007.093.015.182.006.275a.133.133,0,0,0,.249.081c.039-.083.1-.148.142-.228a1.487,1.487,0,0,0,.1-.27c.048-.161.089-.322.124-.486s.079-.326.1-.49c.015-.1.015-.2.02-.3a1.821,1.821,0,0,0,.907-.38,3.077,3.077,0,0,0,.9-1.487c.218-.671.381-1.363.545-2.05a29.847,29.847,0,0,0,.843-5.166.148.148,0,0,0-.29-.053" transform="translate(18.057 4520.374)" fill="#455a64"/>
        <path id="Trazado_190742" data-name="Trazado 190742" d="M49.106,209.634c-.118.8-.183,1.6-.338,2.386-.153.773-.335,1.547-.562,2.3a8.145,8.145,0,0,1-.9,2.086,7.7,7.7,0,0,1-1.493,1.626,13.217,13.217,0,0,1-3.671,2.209,17.553,17.553,0,0,1-2.058.679c-.364.095-.733.17-1.1.232a2.348,2.348,0,0,0-.888.237.181.181,0,0,0,.027.309,3.226,3.226,0,0,0,1.656,0,12.162,12.162,0,0,0,1.757-.37,12.805,12.805,0,0,0,3.293-1.521,10.536,10.536,0,0,0,2.716-2.378,7.939,7.939,0,0,0,1.383-3.324,16.163,16.163,0,0,0,.337-4.462.078.078,0,0,0-.153-.007" transform="translate(31.156 4517.727)" fill="#455a64"/>
        <path id="Trazado_190743" data-name="Trazado 190743" d="M185.65,318.556a18.807,18.807,0,0,0-2.416,1.024c-.835.382-1.673.763-2.5,1.159-1.632.779-3.252,1.58-4.855,2.418-3.227,1.685-6.445,3.388-9.626,5.159-1.659.923-5.225,2.887-5.377,3.082-.073.094.043.254.145.21,3.317-1.454,6.552-3.072,9.794-4.681s6.47-3.227,9.625-4.99c.874-.488,1.733-1,2.6-1.5a21.954,21.954,0,0,0,2.711-1.646c.08-.062.019-.27-.1-.235" transform="translate(-13.531 4478.081)" fill="#455a64"/>
        <path id="Trazado_190744" data-name="Trazado 190744" d="M26.5,216.9a.113.113,0,0,1,.226,0c-.065,7.392,1.077,15.657,6.766,20.958,6.239,5.814,15.238,6.508,23.337,6.44,4.649-.039,9.289-.158,13.939-.01,4.67.148,9.387.378,14.024.97a7.647,7.647,0,0,1,4.762,2.278,24.555,24.555,0,0,1,3.156,4.537q3.508,5.811,6.8,11.751,6.534,11.8,12.092,24.108.691,1.527,1.368,3.06c.03.067-.07.125-.1.057q-5.648-12.34-12.157-24.261-3.242-5.964-6.706-11.8c-1.085-1.829-2.135-3.7-3.345-5.452a8.4,8.4,0,0,0-4.259-3.563,17.391,17.391,0,0,0-3.464-.5q-1.781-.163-3.565-.294-3.476-.254-6.959-.38c-4.687-.171-9.367-.113-14.054-.029-8.138.147-17.027-.133-23.774-5.313a19.174,19.174,0,0,1-6.272-8.758A34.606,34.606,0,0,1,26.5,219.687c-.022-.93-.017-1.861,0-2.791" transform="translate(35.352 4515.102)" fill="#455a64"/>
        <path id="Trazado_190745" data-name="Trazado 190745" d="M103.051,267.846c1.66.029,3.32.1,4.979.155a19.65,19.65,0,0,1,4.12.368,4.659,4.659,0,0,1,3.283,1.87c1.284,1.755,8.272,15.255,11.206,21.232q1.221,2.486,2.405,4.988c.814,1.725,1.536,3.491,2.347,5.217.029.064-.064.116-.1.053-.718-1.443-1.519-2.846-2.261-4.277s-1.464-2.876-2.185-4.32q-2.183-4.372-4.376-8.739c-1.452-2.884-3.216-5.7-4.69-8.569-1.239-2.415-2.928-5.711-4.108-6.2a19.471,19.471,0,0,0-5.139-1.248c-1.83-.128-3.661-.24-5.489-.4a.066.066,0,0,1,0-.131" transform="translate(7.52 4496.527)" fill="#455a64"/>
        <path id="Trazado_190746" data-name="Trazado 190746" d="M47.763,100.637c-6.139,5.263-4.431,12.94-7,17.1-1.568,2.547-6.675,5.235-7.69,8.17-1.668,4.821,2.419,6.552,1.5,9.172-1.295,3.712-6.265,3.423-7.16,9.5s5.786,12.533,21.644,14.282,24.57-4.056,25.138-9.208-4.707-6.867-5.066-10.715c-.23-2.459,3.028-4.17,3.192-8.7s-4.245-6-4.876-9.839c-.635-3.861,1.4-13.182-4.245-17.949s-12.418-4.413-15.448-1.816" transform="translate(35.038 4558.042)" fill="#263238"/>
        <path id="Trazado_190747" data-name="Trazado 190747" d="M47.746,101.925a13.074,13.074,0,0,0-4.076,4.7,28.617,28.617,0,0,0-2.267,6.233,17.225,17.225,0,0,1-1.232,3.733,9.556,9.556,0,0,1-2.129,2.628c-1.715,1.552-3.763,2.731-5.3,4.474-1.459,1.651-2.594,3.86-2.012,6.11a23.164,23.164,0,0,0,1.625,3.365,2.889,2.889,0,0,1-.262,3.326,21.359,21.359,0,0,1-2.843,1.75,10.013,10.013,0,0,0-2.315,2.244,7.758,7.758,0,0,0-1.459,6.1c.933,4.933,5.561,7.739,9.834,9.506.6.246,1.195.486,1.794.724.092.037.171-.1.076-.138-4.288-1.919-9.265-4.172-10.912-8.966A7.235,7.235,0,0,1,27,141.348a9.18,9.18,0,0,1,2.266-2.384c.863-.637,1.858-1.027,2.736-1.633a2.915,2.915,0,0,0,1.348-2.606,7.159,7.159,0,0,0-1.18-3.152,5.853,5.853,0,0,1-1.012-3.322,6.384,6.384,0,0,1,1.269-3.169c1.334-1.891,3.311-3.131,5.083-4.562a10.706,10.706,0,0,0,3.859-5.338c.329-1.131.533-2.295.818-3.437a30.214,30.214,0,0,1,.945-3.135,14.969,14.969,0,0,1,3.352-5.526,8.64,8.64,0,0,1,1.311-1.076c.053-.035,0-.121-.052-.084" transform="translate(35.767 4556.892)" fill="#263238"/>
        <path id="Trazado_190748" data-name="Trazado 190748" d="M96.209,149.319a5.929,5.929,0,0,0-1.1-2.308c-.552-.7-1.218-1.29-1.83-1.933a4.509,4.509,0,0,1-1.3-2.141,4.294,4.294,0,0,1,.7-2.857,21.575,21.575,0,0,0,1.42-2.764,10.079,10.079,0,0,0,.6-2.956,10.187,10.187,0,0,0-1.6-5.9c-.541-.886-1.15-1.727-1.7-2.608a12.721,12.721,0,0,1-1.406-3.081c-.714-2.388-.868-4.906-1.452-7.327a37.855,37.855,0,0,0-2.575-7.192c-.027-.058-.111-.005-.085.052a32.953,32.953,0,0,1,2.252,6.5c.5,2.122.7,4.284,1.073,6.428a16.268,16.268,0,0,0,.8,3.09,16.68,16.68,0,0,0,1.377,2.651,14.774,14.774,0,0,1,2.475,5.543,9.7,9.7,0,0,1-1.023,5.936c-.834,1.577-2,3.315-1.272,5.161.617,1.563,2.107,2.5,3.1,3.794a6.265,6.265,0,0,1,1.073,5.013c-.854,4.44-5.3,6.643-9.47,6.862a.1.1,0,0,0,.005.2c3.622-.043,7.563-1.635,9.261-5.026a7.669,7.669,0,0,0,.661-5.14" transform="translate(13.738 4554.595)" fill="#263238"/>
        <path id="Trazado_190749" data-name="Trazado 190749" d="M63.572,149.742c1.514,6.227,11.427,28,14.951,30.356,4.079,2.729,25.677,13.642,29.752,12.325,1.41-.456,7.444-15.527,4.735-16.7-8.267-3.585-23.869-6.291-26.074-8.213-1.454-1.267-10.267-11.562-18.343-20.216-3.053-3.272-6-1.57-5.022,2.449" transform="translate(21.928 4541.011)" fill="#d3766a"/>
        <path id="Trazado_190750" data-name="Trazado 190750" d="M61.793,148.718c.762,4.043,4.266,11.708,4.266,11.708L81.226,157.9S72.489,147.827,66.1,144.3c-2.563-1.417-5.081.334-4.31,4.422" transform="translate(22.557 4541.65)" fill="#ffc727"/>
        <path id="Trazado_190751" data-name="Trazado 190751" d="M61.793,148.718c.762,4.043,4.266,11.708,4.266,11.708L81.226,157.9S72.489,147.827,66.1,144.3c-2.563-1.417-5.081.334-4.31,4.422" transform="translate(22.557 4541.65)" fill="#592fe6"/>
        <path id="Trazado_190752" data-name="Trazado 190752" d="M67.978,156.77a1.163,1.163,0,1,1-1.162-1.162,1.162,1.162,0,0,1,1.162,1.162" transform="translate(21.102 4537.359)" fill="#fff"/>
        <path id="Trazado_190753" data-name="Trazado 190753" d="M68.182,165.347c2.227-.524,4.457-1.013,6.713-1.405q1.687-.293,3.381-.535c1.129-.161,2.278-.206,3.4-.383a.049.049,0,0,1,.011.1c-1.131.117-2.257.391-3.381.569s-2.254.365-3.38.557c-2.247.384-4.5.762-6.736,1.2-.062.012-.071-.083-.011-.1" transform="translate(20.196 4534.661)" fill="#263238"/>
        <g id="Grupo_128134" data-name="Grupo 128134" transform="translate(84.213 4686.044)" opacity="0.1">
          <g id="Grupo_128133" data-name="Grupo 128133">
            <g id="Grupo_128132" data-name="Grupo 128132" clip-path="url(#clip-path)">
              <path id="Trazado_190754" data-name="Trazado 190754" d="M77.848,158.8l-11.79,1.957s-3.5-7.662-4.259-11.709c-.391-2.085.07-3.557.961-4.321Z" transform="translate(-61.659 -144.727)"/>
            </g>
          </g>
        </g>
        <path id="Trazado_190755" data-name="Trazado 190755" d="M58.562,187.487l-41.24,1.353s12.514-35.914,21.58-44.487c4.125-3.9,7.872-3.039,10.917-.181.76.714,9.913,13.914,10.486,18.355.506,3.925-2.909,8.038-2.909,8.038Z" transform="translate(38.684 4542.411)" fill="#592fe6"/>
        <path id="Trazado_190756" data-name="Trazado 190756" d="M34.06,167.771a1.165,1.165,0,0,1-1.164,1.164.9.9,0,0,1-.318-.051c.318-.7.636-1.393.961-2.08a1.139,1.139,0,0,1,.522.967m13.224-1.162a1.163,1.163,0,1,0,1.162,1.163,1.163,1.163,0,0,0-1.162-1.163m14.386,0a1.163,1.163,0,1,0,1.163,1.163,1.163,1.163,0,0,0-1.163-1.163m-21.579-11a1.163,1.163,0,1,0,1.163,1.163,1.163,1.163,0,0,0-1.163-1.163m14.387,0a1.163,1.163,0,1,0,1.162,1.163,1.163,1.163,0,0,0-1.162-1.163M32.9,189.1a1.163,1.163,0,1,0,1.162,1.162A1.163,1.163,0,0,0,32.9,189.1m14.387,0a1.163,1.163,0,1,0,1.162,1.162,1.163,1.163,0,0,0-1.162-1.162m14.386,0a1.163,1.163,0,1,0,1.163,1.162,1.162,1.162,0,0,0-1.163-1.162m-21.579-11a1.163,1.163,0,1,0,1.163,1.162A1.162,1.162,0,0,0,40.09,178.1m14.387,0a1.163,1.163,0,1,0,1.162,1.162,1.162,1.162,0,0,0-1.162-1.162" transform="translate(33.44 4537.359)" fill="#fff"/>
        <path id="Trazado_190757" data-name="Trazado 190757" d="M73.444,186.92a11.161,11.161,0,0,0-2.5-.075,10.476,10.476,0,0,0-1.178.146c-.437.088-.865.212-1.3.3-.073.015-.039.125.033.11a10.5,10.5,0,0,1,1.309-.157c.4-.031.793-.086,1.192-.115.814-.06,1.626-.113,2.441-.156.031,0,.039-.052.006-.057" transform="translate(20.094 4526.009)" fill="#263238"/>
        <path id="Trazado_190758" data-name="Trazado 190758" d="M70.481,184.211a22.8,22.8,0,0,0-5.482.875,35.342,35.342,0,0,1-5.623,1.493c-.073.008-.071.123,0,.115.922-.1,1.837-.2,2.755-.346s1.814-.368,2.719-.568c1.89-.417,3.719-1.125,5.631-1.424.088-.014.092-.148,0-.144" transform="translate(23.404 4526.953)" fill="#263238"/>
        <path id="Trazado_190759" data-name="Trazado 190759" d="M57.374,137.005c-.011.749,2.224,6.179,5.494,6.832,1.066.211,2.475-5.554,2.475-5.554l.2-.4,2.814-5.627-5.881-6.231-.863-.846s-.669,1.59-1.481,3.579c-.038.092-.076.184-.116.283s-.1.216-.137.321c-.125.3-.252.6-.372.9-.092.231-.183.455-.271.7s-.181.484-.275.728a40.511,40.511,0,0,0-1.589,5.314" transform="translate(24.113 4548.429)" fill="#d3766a"/>
        <path id="Trazado_190760" data-name="Trazado 190760" d="M61.712,128.756a12.622,12.622,0,0,0,5.412,9.125l2.814-5.627-5.881-6.231-.863-.846s-.669,1.591-1.481,3.579" transform="translate(22.535 4548.43)" fill="#263238"/>
        <path id="Trazado_190761" data-name="Trazado 190761" d="M80.751,117.055c-2.231,10.813-8.96,10.7-11.291,10.214-2.116-.439-9.266-2.2-8.164-13.189s6.835-13.367,11.728-12.618,9.958,4.78,7.727,15.593" transform="translate(22.728 4557.103)" fill="#d3766a"/>
        <path id="Trazado_190762" data-name="Trazado 190762" d="M85.256,131.655c3.564-3.345,4.31-8.617,4.779-13.257.008,4.55-.936,10.335-4.779,13.257" transform="translate(13.97 4550.896)" fill="#263238"/>
        <path id="Trazado_190763" data-name="Trazado 190763" d="M89.683,120.266a7.249,7.249,0,0,1-.692-.32,1.235,1.235,0,0,1-.643-.461.393.393,0,0,1,.108-.468.976.976,0,0,1,.987-.007,1.431,1.431,0,0,1,.762.694.419.419,0,0,1-.521.562" transform="translate(12.859 4550.721)" fill="#263238"/>
        <path id="Trazado_190764" data-name="Trazado 190764" d="M78.345,119.33a7.256,7.256,0,0,0,.762.013,1.236,1.236,0,0,0,.781-.134.394.394,0,0,0,.106-.468.973.973,0,0,0-.884-.436,1.431,1.431,0,0,0-.989.292.419.419,0,0,0,.224.733" transform="translate(16.62 4550.931)" fill="#263238"/>
        <path id="Trazado_190765" data-name="Trazado 190765" d="M79.6,124.679c0-.029-.065.023-.07.053-.127.741-.4,1.568-1.115,1.676-.022,0-.028.041,0,.043.837.052,1.185-1.05,1.187-1.772" transform="translate(16.466 4548.614)" fill="#263238"/>
        <path id="Trazado_190766" data-name="Trazado 190766" d="M78.793,123.245c-1.166-.333-1.746,2.024-.665,2.332,1.063.3,1.643-2.054.665-2.332" transform="translate(16.771 4549.144)" fill="#263238"/>
        <path id="Trazado_190767" data-name="Trazado 190767" d="M77.907,123.046c-.239.083-.5.268-.752.232-.295-.043-.45-.343-.58-.626-.014-.029-.039-.014-.047.017a.886.886,0,0,0,.409,1.142c.426.171.842-.151,1.066-.578.042-.079,0-.221-.1-.188" transform="translate(17.164 4549.354)" fill="#263238"/>
        <path id="Trazado_190768" data-name="Trazado 190768" d="M86.574,126.008c.013-.026.048.049.039.079-.208.722-.325,1.585.272,1.995.018.013.008.049-.016.039-.776-.318-.609-1.462-.3-2.113" transform="translate(13.585 4548.129)" fill="#263238"/>
        <path id="Trazado_190769" data-name="Trazado 190769" d="M87.461,125.07c1.194.209.689,2.582-.418,2.389-1.089-.191-.583-2.564.418-2.389" transform="translate(13.542 4548.472)" fill="#263238"/>
        <path id="Trazado_190770" data-name="Trazado 190770" d="M88.688,125.475c.16.166.3.434.519.5.256.073.5-.143.721-.354.023-.022.038,0,.031.033-.084.457-.335.9-.789.891-.415-.005-.623-.457-.636-.931,0-.088.089-.2.154-.135" transform="translate(12.777 4548.329)" fill="#263238"/>
        <path id="Trazado_190771" data-name="Trazado 190771" d="M77.792,134.057c.123.219.226.5.482.6a2,2,0,0,0,.829.047.026.026,0,0,1,.02.046,1.013,1.013,0,0,1-1.031.122.8.8,0,0,1-.379-.8c0-.045.061-.044.079-.012" transform="translate(16.714 4545.208)" fill="#263238"/>
        <path id="Trazado_190772" data-name="Trazado 190772" d="M82.055,126.914s-.1,1.129-.225,1.645c-.011.048-.142.042-.319.011-.009,0-.015,0-.02,0a2.518,2.518,0,0,1-2.167-1.472c-.024-.059.054-.1.094-.054a3.793,3.793,0,0,0,2.089,1.165c.07-.134.114-1.939.2-1.926a4.648,4.648,0,0,1,1.11.539c.285-2.344.193-4.716.512-7.046a.072.072,0,0,1,.142,0,38.229,38.229,0,0,1-.228,7.613c-.026.3-1-.332-1.183-.468" transform="translate(16.13 4550.418)" fill="#263238"/>
        <path id="Trazado_190773" data-name="Trazado 190773" d="M61.388,114.689c1.2.13,4.828-2.606,5.888-8.306,0,0-1.306,5.053-1.819,5.74s2.033-1.542,2.952-6.127a18.932,18.932,0,0,0,4.315,3.252c2.074.978,3.409,1.183,3.591,1.052s-2.85-1.682-3.548-2.827c0,0,5.336,3.671,7.971,4.326.3.076,1.746-6.212-1.925-9.6s-10.7-1.587-12.744-.186c0,0-2.114-.055-4.873,2.618s-1.1,9.923.191,10.063" transform="translate(23.267 4557.496)" fill="#263238"/>
        <path id="Trazado_190774" data-name="Trazado 190774" d="M74.429,125.714a3.466,3.466,0,1,1,.842.181,3.472,3.472,0,0,1-.842-.181m2.138-6.1a3,3,0,1,0,2,3.1,2.993,2.993,0,0,0-2-3.1" transform="translate(18.753 4550.685)" fill="#ffc727"/>
        <path id="Trazado_190775" data-name="Trazado 190775" d="M87.02,128.372c-1.251-.438-1.937-2.118-1.543-3.882a4.139,4.139,0,0,1,1.243-2.2,2.159,2.159,0,0,1,3.607.807,4.14,4.14,0,0,1,.185,2.524c-.417,1.864-1.886,3.128-3.273,2.818a2.061,2.061,0,0,1-.219-.062m1.8-6.2a1.516,1.516,0,0,0-.169-.048,1.848,1.848,0,0,0-1.624.509,3.679,3.679,0,0,0-1.1,1.958c-.361,1.615.267,3.137,1.41,3.392s2.359-.853,2.721-2.467a3.681,3.681,0,0,0-.159-2.239,1.908,1.908,0,0,0-1.082-1.1" transform="translate(13.93 4549.722)" fill="#ffc727"/>
        <path id="Trazado_190776" data-name="Trazado 190776" d="M82.543,125.071l-.213-.412c.609-.316,1.925-.63,2.552.439l-.4.234c-.56-.957-1.884-.289-1.94-.261" transform="translate(15.034 4548.728)" fill="#ffc727"/>
        <path id="Trazado_190777" data-name="Trazado 190777" d="M58.475,120.487l-.355-.3c.139-.165,1.386-1.617,2.432-1.554.977.06,6.91,1.984,7.162,2.066l-.143.44c-1.7-.553-6.291-2-7.046-2.043-.691-.041-1.713.989-2.049,1.389" transform="translate(23.842 4550.81)" fill="#ffc727"/>
        <path id="Trazado_190778" data-name="Trazado 190778" d="M59.29,123.69a2.3,2.3,0,0,0,.452.272,1.685,1.685,0,0,0,.495.162,1.521,1.521,0,0,0,.669-.015,1.836,1.836,0,0,0,.492-.189,2.131,2.131,0,0,0,.578-.475l.258-3s-1.326-3.992-3.067-3.614-1.442,5.68.123,6.859" transform="translate(23.893 4551.475)" fill="#d3766a"/>
        <path id="Trazado_190779" data-name="Trazado 190779" d="M60.02,119.227c-.027-.011-.045.027-.024.045A4.716,4.716,0,0,1,61.49,122.8a1.03,1.03,0,0,0-1.4-.711c-.039.013-.024.073.013.076a1.149,1.149,0,0,1,1.1.746,5.57,5.57,0,0,1,.288,1.153c.025.127.242.128.237-.011,0-.011,0-.022,0-.032.5-1.564-.065-4.129-1.706-4.791" transform="translate(23.162 4550.595)" fill="#263238"/>
        <path id="Trazado_190780" data-name="Trazado 190780" d="M60.477,126.73a.511.511,0,1,0,.556-.463.512.512,0,0,0-.556.463" transform="translate(22.985 4548.034)" fill="#fff"/>
        <path id="Trazado_190781" data-name="Trazado 190781" d="M59.241,125.173a.362.362,0,1,0,.393-.327.362.362,0,0,0-.393.327" transform="translate(23.435 4548.55)" fill="#fff"/>
        <path id="Trazado_190782" data-name="Trazado 190782" d="M67.778,115.376l-2.57-2.78-.683.74,2.86,2.447Z" transform="translate(21.512 4553.007)" fill="#ffc727"/>
        <path id="Trazado_190783" data-name="Trazado 190783" d="M66.663,116.86l-3.024-2.279-.54.849,3.249,1.9Z" transform="translate(22.03 4552.284)" fill="#ffc727"/>
        <path id="Trazado_190784" data-name="Trazado 190784" d="M36.963,147.519c-4.548,4.268-18.413,21.034-18.389,25.831.036,7.3,25.607,17.005,29.61,19.423C49.89,193.8,55.905,176.041,54.1,174.9c-1.57-.994-18.849-5.277-18.813-6.066.031-.656,3.757-8.926,6.571-18.992,2.206-7.89-2.524-4.554-4.9-2.325" transform="translate(38.229 4541.263)" fill="#d3766a"/>
        <path id="Trazado_190785" data-name="Trazado 190785" d="M78.147,197.477c-.8-.837-.368-1.263,1.671-.974,2.064.288,9.864,3.163,10.636.349s-10.327-6.71-13.759-6.931a54.645,54.645,0,0,0-9.062.624c2.008,1.192,6.6,4.546,10.513,6.933" transform="translate(20.381 4524.891)" fill="#d3766a"/>
        <path id="Trazado_190786" data-name="Trazado 190786" d="M85.711,196.762c2.241.244,4.426,1.015,6.648,1.288a3.889,3.889,0,0,0,1.593-.109,1.371,1.371,0,0,0,.38-2.4c-2-1.929-4.718-3.019-7.282-4.008a26.658,26.658,0,0,0-6.544-1.647,22.334,22.334,0,0,1,6.66,1.3c2.67.945,5.463,2.019,7.505,4.057a1.8,1.8,0,0,1-.584,3.088,3.947,3.947,0,0,1-1.769.08c-2.278-.366-4.379-1.206-6.607-1.644" transform="translate(15.697 4524.892)" fill="#263238"/>
        <rect id="Rectángulo_41157" data-name="Rectángulo 41157" width="42.373" height="1.9" transform="translate(84.482 4732.979)" fill="#c7c7c7"/>
        <path id="Trazado_190787" data-name="Trazado 190787" d="M88.067,218.5l-1.451,1.9h34.757v-1.9Z" transform="translate(13.475 4514.479)" fill="#a6a6a6"/>
        <path id="Trazado_190788" data-name="Trazado 190788" d="M91.745,205.445H133.04l3.438-28.046H95.183Z" transform="translate(11.609 4529.432)" fill="#c7c7c7"/>
        <path id="Trazado_190789" data-name="Trazado 190789" d="M122.95,198a2.461,2.461,0,0,0,2.47,2.514A2.568,2.568,0,0,0,127.977,198a2.462,2.462,0,0,0-2.47-2.514A2.567,2.567,0,0,0,122.95,198" transform="translate(0.257 4522.85)" fill="#fff"/>
        <path id="Trazado_190790" data-name="Trazado 190790" d="M56.478,206.582c5.894,3.976,12.781,7.419,20.2,7.174a3.676,3.676,0,0,0,2.269-.806c3.328-.051,4.3-1.638,4.3-1.638,3.085-1,3.859-2.757,3.859-2.757s3.906-.1,4.236-2.474c.378-2.658-5.182-1.994-8.463-3.5-7.517-3.447-17.239-10.45-19.309-11.66Z" transform="translate(24.438 4524.512)" fill="#d3766a"/>
        <path id="Trazado_190791" data-name="Trazado 190791" d="M81.55,212.267a53.229,53.229,0,0,0,6.753,2.645,53.387,53.387,0,0,0,7.833,1.333.064.064,0,0,1-.007.129A28.11,28.11,0,0,1,81.5,212.367c-.1-.061-.066-.15.046-.1" transform="translate(15.356 4516.752)" fill="#263238"/>
        <path id="Trazado_190792" data-name="Trazado 190792" d="M77.231,218.922a39.18,39.18,0,0,0,13.528,2.491c.024,0,.031.042,0,.045a25.23,25.23,0,0,1-13.571-2.43c-.135-.063-.109-.16.039-.106" transform="translate(16.936 4514.332)" fill="#263238"/>
        <path id="Trazado_190793" data-name="Trazado 190793" d="M74.974,222.546a39.612,39.612,0,0,0,10.636,1.886c.024,0,.027.044,0,.045a23.623,23.623,0,0,1-10.7-1.8c-.141-.05-.088-.175.062-.126" transform="translate(17.763 4513.011)" fill="#263238"/>
        <path id="Trazado_190794" data-name="Trazado 190794" d="M27.413,159.4l15.593,1.7a117.569,117.569,0,0,0,3.624-11.715c1.216-5.7-.616-7.491-6.34-3.209-3.829,2.865-12.877,13.22-12.877,13.22" transform="translate(35.013 4541.65)" fill="#ffc727"/>
        <path id="Trazado_190795" data-name="Trazado 190795" d="M27.413,159.4l15.593,1.7a117.569,117.569,0,0,0,3.624-11.715c1.216-5.7-.616-7.491-6.34-3.209-3.829,2.865-12.877,13.22-12.877,13.22" transform="translate(35.013 4541.65)" fill="#592fe6"/>
        <path id="Trazado_190796" data-name="Trazado 190796" d="M45.365,156.77a1.163,1.163,0,1,1-1.162-1.162,1.162,1.162,0,0,1,1.162,1.162" transform="translate(29.327 4537.359)" fill="#fff"/>
        <path id="Trazado_190797" data-name="Trazado 190797" d="M48.918,167.657c.171-.012,1.778.11,1.891.152.3-.879.581-1.762.887-2.638.153-.437.314-.874.48-1.306.184-.477.368-1.029.531-1.45.025-.066.111-.041.092.028-.157.569-.292.989-.431,1.48-.123.439-.258.877-.4,1.31-.3.917-.588,1.908-.936,2.808a15.764,15.764,0,0,1-2.122-.329c-.028-.009-.018-.054.009-.056" transform="translate(27.198 4534.896)" fill="#263238"/>
        <path id="Trazado_190798" data-name="Trazado 190798" d="M31.158,165.467c2.2.088,4.392.207,6.583.424q1.639.161,3.272.373c1.088.141,2.164.394,3.252.52a.047.047,0,0,1-.015.092c-1.078-.182-2.193-.218-3.28-.341s-2.183-.241-3.275-.352c-2.182-.223-4.365-.45-6.551-.622-.061-.005-.045-.095.015-.093" transform="translate(33.67 4533.772)" fill="#263238"/>
        <path id="Trazado_190799" data-name="Trazado 190799" d="M36.615,152.692a.046.046,0,0,0-.062-.068q-1.076.924-2.119,1.872a5.2,5.2,0,0,1,.672-.844c.013-.013-.006-.034-.019-.022a6.842,6.842,0,0,0-.96,1.143c-.91.835-1.8,1.689-2.663,2.582a50.366,50.366,0,0,0-4.5,5.14.167.167,0,0,0,.133.256c.737.076,1.514.128,2.24.272a.057.057,0,1,0,.019-.113c-.645-.092-1.3-.262-1.94-.419,1.5-1.588,2.918-3.261,4.418-4.853,1.57-1.665,3.143-3.341,4.776-4.945" transform="translate(35.186 4538.449)" fill="#263238"/>
        <path id="Trazado_190800" data-name="Trazado 190800" d="M154.4,184.847c1.556,2.4,5.4,5.212,5.927,7.273a2.441,2.441,0,0,1-1.006,2.733s2.227.766,2.4,2.715c.088,1-1.437,2.025-1.437,2.025a2.912,2.912,0,0,1,1.8,2.434,2.812,2.812,0,0,1-1.5,2.205s1.377,1.449.96,2.876c-.846,2.892-12.667,4.455-15.069.342-1.12-1.917,1.789-2.142,1.789-2.142s-4.26-.686-4.644-3.115,3.411-2.493,3.411-2.493-4.123-.7-4.267-3.26c-.15-2.663,3.658-2.077,3.658-2.077s-2.864-1.435-2.526-3.418c.558-3.276,7.3.206,9.816-.754Z" transform="translate(-6.95 4526.722)" fill="#d3766a"/>
        <path id="Trazado_190801" data-name="Trazado 190801" d="M163.364,215.574a.031.031,0,0,1,.02.059,20.682,20.682,0,0,1-12.273.884c-.129-.034-.13-.258.019-.247a42.343,42.343,0,0,0,12.234-.7" transform="translate(-9.953 4515.544)" fill="#263238"/>
        <path id="Trazado_190802" data-name="Trazado 190802" d="M162.624,208.051c.045-.01.062.066.016.083a19.37,19.37,0,0,1-13.449.132c-.15-.059-.226-.262-.048-.208,3,.923,9.716.822,13.481-.006" transform="translate(-9.234 4518.281)" fill="#263238"/>
        <path id="Trazado_190803" data-name="Trazado 190803" d="M148.024,199.447a26.629,26.629,0,0,0,13.019.785c.058-.009.064.074.018.094a17.443,17.443,0,0,1-7.187.966,11.928,11.928,0,0,1-5.9-1.7c-.071-.043-.039-.181.052-.15" transform="translate(-8.832 4521.412)" fill="#263238"/>
      </g>
      <g id="Grupo_128140" data-name="Grupo 128140" transform="translate(14318.163 10661.174)">
        <path id="Trazado_190701" data-name="Trazado 190701" d="M148.178,107.128a18.432,18.432,0,0,0,17.061,18.381v.05H269.63a21.665,21.665,0,0,0,2.024-43.235,36.5,36.5,0,0,0-70.738-11.414,21.394,21.394,0,0,0-9.688-2.291,21.656,21.656,0,0,0-21.622,20.323,18.2,18.2,0,0,0-3-.245,18.435,18.435,0,0,0-18.432,18.432" transform="translate(-13869.341 -6062.571)" fill="#88e0ef"/>
        <rect id="Rectángulo_41138" data-name="Rectángulo 41138" width="22.404" height="26.826" transform="translate(-13660.808 -5963.838)" fill="#fff"/>
        <path id="Trazado_190702" data-name="Trazado 190702" d="M193.881,97.762h36.433L212.1,76.368Z" transform="translate(-13861.704 -6057.665)" fill="#fff"/>
        <rect id="Rectángulo_41139" data-name="Rectángulo 41139" width="121.725" height="8.963" transform="translate(-13710.469 -5909.56)" fill="#ebebeb"/>
        <rect id="Rectángulo_41140" data-name="Rectángulo 41140" width="3.352" height="6.676" transform="translate(-13709.335 -5908.416)" fill="#592fe6"/>
        <rect id="Rectángulo_41141" data-name="Rectángulo 41141" width="3.352" height="6.676" transform="translate(-13705.065 -5908.416)" fill="#592fe6"/>
        <rect id="Rectángulo_41142" data-name="Rectángulo 41142" width="3.352" height="6.676" transform="translate(-13700.796 -5908.416)" fill="#592fe6"/>
        <rect id="Rectángulo_41143" data-name="Rectángulo 41143" width="3.352" height="6.676" transform="translate(-13696.527 -5908.416)" fill="#592fe6"/>
        <rect id="Rectángulo_41144" data-name="Rectángulo 41144" width="3.352" height="6.676" transform="translate(-13692.258 -5908.416)" fill="#592fe6"/>
        <rect id="Rectángulo_41145" data-name="Rectángulo 41145" width="3.352" height="6.676" transform="translate(-13687.989 -5908.416)" fill="#592fe6"/>
        <rect id="Rectángulo_41146" data-name="Rectángulo 41146" width="3.352" height="6.676" transform="translate(-13683.721 -5908.416)" fill="#592fe6"/>
        <rect id="Rectángulo_41147" data-name="Rectángulo 41147" width="3.352" height="6.676" transform="translate(-13679.451 -5908.416)" fill="#592fe6"/>
        <rect id="Rectángulo_41148" data-name="Rectángulo 41148" width="3.352" height="6.676" transform="translate(-13675.182 -5908.416)" fill="#592fe6"/>
        <rect id="Rectángulo_41149" data-name="Rectángulo 41149" width="3.352" height="6.676" transform="translate(-13670.912 -5908.416)" fill="#592fe6"/>
        <rect id="Rectángulo_41150" data-name="Rectángulo 41150" width="3.352" height="6.676" transform="translate(-13666.644 -5908.416)" fill="#592fe6"/>
        <rect id="Rectángulo_41151" data-name="Rectángulo 41151" width="3.352" height="6.676" transform="translate(-13662.374 -5908.416)" fill="#592fe6"/>
        <rect id="Rectángulo_41152" data-name="Rectángulo 41152" width="3.352" height="6.676" transform="translate(-13658.104 -5908.416)" fill="#592fe6"/>
        <rect id="Rectángulo_41153" data-name="Rectángulo 41153" width="3.352" height="6.676" transform="translate(-13653.836 -5908.416)" fill="#592fe6"/>
        <rect id="Rectángulo_41154" data-name="Rectángulo 41154" width="3.352" height="6.676" transform="translate(-13649.566 -5908.416)" fill="#592fe6"/>
      </g>
    </g>
    <path id="Trazado_190833" data-name="Trazado 190833" d="M1.143,0V-12.8H5.625a5.886,5.886,0,0,1,3.533.892,3.05,3.05,0,0,1,1.2,2.615,2.891,2.891,0,0,1-.483,1.657,2.792,2.792,0,0,1-1.345,1.05,2.7,2.7,0,0,1,1.551.993,2.936,2.936,0,0,1,.567,1.828A3.377,3.377,0,0,1,9.475-.967,5.3,5.3,0,0,1,6.117,0ZM3.779-5.572v3.454H6.038a2.18,2.18,0,0,0,1.455-.444,1.522,1.522,0,0,0,.523-1.226A1.607,1.607,0,0,0,6.2-5.572Zm0-1.863H5.73q2-.035,2-1.591a1.47,1.47,0,0,0-.505-1.252,2.658,2.658,0,0,0-1.6-.382H3.779ZM17.974,0a2.821,2.821,0,0,1-.255-.853,3.073,3.073,0,0,1-2.4,1.028A3.376,3.376,0,0,1,13-.633a2.6,2.6,0,0,1-.918-2.039,2.687,2.687,0,0,1,1.121-2.32,5.529,5.529,0,0,1,3.239-.817h1.169v-.545a1.567,1.567,0,0,0-.338-1.055,1.331,1.331,0,0,0-1.068-.4A1.513,1.513,0,0,0,15.2-7.5a1.045,1.045,0,0,0-.365.844H12.3a2.551,2.551,0,0,1,.51-1.529,3.37,3.37,0,0,1,1.441-1.1,5.253,5.253,0,0,1,2.092-.4,4.15,4.15,0,0,1,2.791.883,3.09,3.09,0,0,1,1.033,2.483V-2.2A4.546,4.546,0,0,0,20.54-.149V0Zm-2.1-1.767a2.188,2.188,0,0,0,1.037-.25,1.645,1.645,0,0,0,.7-.672V-4.324h-.949q-1.907,0-2.03,1.318l-.009.149a1.017,1.017,0,0,0,.334.782A1.3,1.3,0,0,0,15.873-1.767Zm10.2-.105a1.666,1.666,0,0,0,1.143-.387,1.355,1.355,0,0,0,.457-1.028H30.05a3.258,3.258,0,0,1-.527,1.771A3.48,3.48,0,0,1,28.1-.268a4.442,4.442,0,0,1-1.991.444,4.129,4.129,0,0,1-3.217-1.3A5.13,5.13,0,0,1,21.718-4.7v-.167a5.071,5.071,0,0,1,1.169-3.507,4.08,4.08,0,0,1,3.208-1.31A4,4,0,0,1,28.956-8.67a3.594,3.594,0,0,1,1.094,2.7H27.668a1.745,1.745,0,0,0-.457-1.206,1.524,1.524,0,0,0-1.16-.464,1.53,1.53,0,0,0-1.34.647,3.749,3.749,0,0,0-.453,2.1v.264a3.8,3.8,0,0,0,.448,2.113A1.549,1.549,0,0,0,26.068-1.872Zm8.886-1.942L34.04-2.9V0H31.5V-13.5h2.54v7.479l.492-.633L36.967-9.51h3.05L36.58-5.546,40.315,0H37.4ZM46.811-.967a3.185,3.185,0,0,1-2.6,1.143A3,3,0,0,1,41.875-.7a3.752,3.752,0,0,1-.822-2.575V-9.51h2.54v6.151q0,1.487,1.354,1.487a1.834,1.834,0,0,0,1.775-.9V-9.51h2.549V0H46.881Zm12.938-3.7a5.7,5.7,0,0,1-1,3.52A3.2,3.2,0,0,1,56.057.176a2.963,2.963,0,0,1-2.329-1V3.656h-2.54V-9.51h2.355l.088.932a2.985,2.985,0,0,1,2.408-1.107,3.22,3.22,0,0,1,2.733,1.3A5.858,5.858,0,0,1,59.748-4.8Zm-2.54-.194a3.763,3.763,0,0,0-.47-2.054,1.53,1.53,0,0,0-1.367-.723,1.662,1.662,0,0,0-1.644.917v3.906a1.691,1.691,0,0,0,1.661.943Q57.208-1.872,57.208-4.861Z" transform="translate(639 4744.174)" fill="#00223d"/>
  </g>
</svg>
