<svg xmlns="http://www.w3.org/2000/svg" xmlns:xlink="http://www.w3.org/1999/xlink" width="335" height="197.089" viewBox="0 0 335 197.089">
  <defs>
    <clipPath id="clip-path">
      <rect id="Rectángulo_41116" data-name="Rectángulo 41116" width="82.675" height="64.451" fill="none"/>
    </clipPath>
    <clipPath id="clip-path-2">
      <rect id="Rectángulo_41106" data-name="Rectángulo 41106" width="43.985" height="57.196" fill="none"/>
    </clipPath>
    <clipPath id="clip-path-3">
      <rect id="Rectángulo_41111" data-name="Rectángulo 41111" width="66.851" height="62.499" fill="none"/>
    </clipPath>
  </defs>
  <g id="Grupo_128155" data-name="Grupo 128155" transform="translate(-895 -1311.174)">
    <path id="Trazado_190826" data-name="Trazado 190826" d="M13.143,9.685a3.522,3.522,0,0,1-1.186,2.529,4.165,4.165,0,0,1-2.82.923,3.745,3.745,0,0,1-3.011-1.289,5.284,5.284,0,0,1-1.1-3.538V7.7a5.966,5.966,0,0,1,.506-2.529A3.791,3.791,0,0,1,6.98,3.495,4.05,4.05,0,0,1,9.165,2.91a4.058,4.058,0,0,1,2.775.923,3.785,3.785,0,0,1,1.217,2.591H11.106a2.079,2.079,0,0,0-.537-1.4,1.987,1.987,0,0,0-1.4-.434,1.742,1.742,0,0,0-1.535.735,4.118,4.118,0,0,0-.523,2.28v.752A4.408,4.408,0,0,0,7.6,10.717a1.71,1.71,0,0,0,1.542.745,2.025,2.025,0,0,0,1.418-.434,1.961,1.961,0,0,0,.537-1.343Zm.909-.451a4.387,4.387,0,0,1,.424-1.962A3.1,3.1,0,0,1,15.7,5.938a3.56,3.56,0,0,1,1.849-.472,3.368,3.368,0,0,1,2.444.916,3.676,3.676,0,0,1,1.056,2.488l.014.506a3.866,3.866,0,0,1-.95,2.731,3.3,3.3,0,0,1-2.55,1.029,3.319,3.319,0,0,1-2.553-1.025,3.934,3.934,0,0,1-.954-2.789Zm1.976.14a2.765,2.765,0,0,0,.4,1.612,1.424,1.424,0,0,0,2.256.007,3.025,3.025,0,0,0,.4-1.763,2.737,2.737,0,0,0-.4-1.6,1.311,1.311,0,0,0-1.135-.568,1.29,1.29,0,0,0-1.121.565A3.076,3.076,0,0,0,16.028,9.374Zm12.906,0a4.436,4.436,0,0,1-.776,2.738,2.488,2.488,0,0,1-2.1,1.029,2.3,2.3,0,0,1-1.812-.779v3.486H22.276V5.6h1.832l.068.725a2.322,2.322,0,0,1,1.873-.861,2.5,2.5,0,0,1,2.126,1.012,4.556,4.556,0,0,1,.759,2.789ZM26.958,9.22a2.927,2.927,0,0,0-.366-1.6A1.19,1.19,0,0,0,25.53,7.06a1.293,1.293,0,0,0-1.278.713V10.81a1.315,1.315,0,0,0,1.292.734Q26.958,11.544,26.958,9.22ZM32.243,13H30.26V5.6h1.982Zm-2.1-9.311a.973.973,0,0,1,.3-.731,1.281,1.281,0,0,1,1.617,0,.967.967,0,0,1,.3.731.97.97,0,0,1-.3.738,1.267,1.267,0,0,1-1.606,0A.97.97,0,0,1,30.144,3.689ZM38.156,13a2.194,2.194,0,0,1-.2-.663,2.39,2.39,0,0,1-1.866.8,2.626,2.626,0,0,1-1.8-.629,2.023,2.023,0,0,1-.714-1.586,2.09,2.09,0,0,1,.872-1.8,4.3,4.3,0,0,1,2.519-.636h.909V8.058a1.219,1.219,0,0,0-.263-.82,1.035,1.035,0,0,0-.831-.308A1.177,1.177,0,0,0,36,7.169a.813.813,0,0,0-.284.656H33.74a1.984,1.984,0,0,1,.4-1.189,2.621,2.621,0,0,1,1.121-.858,4.086,4.086,0,0,1,1.627-.311,3.228,3.228,0,0,1,2.17.687,2.4,2.4,0,0,1,.8,1.931v3.206a3.536,3.536,0,0,0,.294,1.593V13Zm-1.634-1.374a1.7,1.7,0,0,0,.807-.195,1.28,1.28,0,0,0,.547-.523V9.637h-.738q-1.483,0-1.579,1.025l-.007.116a.791.791,0,0,0,.26.608A1.009,1.009,0,0,0,36.522,11.626Zm8.032-2.379a4.457,4.457,0,0,1,.776-2.755,2.517,2.517,0,0,1,2.123-1.025,2.265,2.265,0,0,1,1.784.807V2.5h1.982V13H49.435l-.1-.786a2.325,2.325,0,0,1-1.9.923,2.511,2.511,0,0,1-2.1-1.029A4.6,4.6,0,0,1,44.554,9.247Zm1.976.141a2.936,2.936,0,0,0,.362,1.6,1.179,1.179,0,0,0,1.053.556,1.321,1.321,0,0,0,1.292-.776V7.836a1.3,1.3,0,0,0-1.278-.776Q46.53,7.06,46.53,9.388Zm9.625,3.749a3.631,3.631,0,0,1-2.649-1,3.548,3.548,0,0,1-1.022-2.659V9.288A4.468,4.468,0,0,1,52.915,7.3a3.161,3.161,0,0,1,1.22-1.354,3.425,3.425,0,0,1,1.8-.475,3.07,3.07,0,0,1,2.389.957A3.889,3.889,0,0,1,59.2,9.138v.807h-4.71a1.835,1.835,0,0,0,.578,1.162,1.746,1.746,0,0,0,1.22.438,2.132,2.132,0,0,0,1.784-.827L59.04,11.8a2.966,2.966,0,0,1-1.2.981A3.947,3.947,0,0,1,56.155,13.137ZM55.929,7.06a1.234,1.234,0,0,0-.954.4,2.062,2.062,0,0,0-.468,1.14h2.748V8.44A1.471,1.471,0,0,0,56.9,7.42,1.274,1.274,0,0,0,55.929,7.06ZM5.418,24.956a.637.637,0,0,0-.359-.571,4.077,4.077,0,0,0-1.152-.373q-2.639-.554-2.639-2.242a2.032,2.032,0,0,1,.817-1.644,3.3,3.3,0,0,1,2.136-.66,3.547,3.547,0,0,1,2.252.663,2.09,2.09,0,0,1,.844,1.723H5.343a.956.956,0,0,0-.273-.7,1.157,1.157,0,0,0-.854-.277,1.182,1.182,0,0,0-.772.226.712.712,0,0,0-.273.574.609.609,0,0,0,.311.53,3.2,3.2,0,0,0,1.049.349,8.571,8.571,0,0,1,1.244.332,2.044,2.044,0,0,1,1.565,1.989,1.929,1.929,0,0,1-.868,1.637,3.745,3.745,0,0,1-2.242.625,3.912,3.912,0,0,1-1.651-.332A2.77,2.77,0,0,1,1.447,25.9a2.113,2.113,0,0,1-.41-1.248H2.91a1.031,1.031,0,0,0,.39.807,1.546,1.546,0,0,0,.971.28,1.43,1.43,0,0,0,.858-.215A.67.67,0,0,0,5.418,24.956Zm6.6,2.181a3.631,3.631,0,0,1-2.649-1,3.548,3.548,0,0,1-1.022-2.659v-.191A4.468,4.468,0,0,1,8.775,21.3,3.161,3.161,0,0,1,10,19.942a3.425,3.425,0,0,1,1.8-.475,3.07,3.07,0,0,1,2.389.957,3.889,3.889,0,0,1,.872,2.714v.807h-4.71a1.835,1.835,0,0,0,.578,1.162,1.746,1.746,0,0,0,1.22.438,2.132,2.132,0,0,0,1.784-.827L14.9,25.8a2.966,2.966,0,0,1-1.2.981A3.947,3.947,0,0,1,12.015,27.137ZM11.79,21.06a1.234,1.234,0,0,0-.954.4,2.062,2.062,0,0,0-.468,1.14h2.748V22.44a1.471,1.471,0,0,0-.355-1.02A1.274,1.274,0,0,0,11.79,21.06Zm4.1,2.188a4.335,4.335,0,0,1,.81-2.741,2.625,2.625,0,0,1,2.184-1.039,2.3,2.3,0,0,1,1.894.834l.082-.7h1.791v7.15a3.161,3.161,0,0,1-.441,1.688,2.832,2.832,0,0,1-1.241,1.094,4.362,4.362,0,0,1-1.873.376,4.056,4.056,0,0,1-1.586-.325,2.815,2.815,0,0,1-1.169-.837l.875-1.2a2.314,2.314,0,0,0,1.791.827,1.694,1.694,0,0,0,1.224-.42,1.577,1.577,0,0,0,.438-1.193v-.4a2.285,2.285,0,0,1-1.8.772,2.618,2.618,0,0,1-2.157-1.042,4.334,4.334,0,0,1-.824-2.765Zm1.976.141a2.714,2.714,0,0,0,.4,1.583,1.282,1.282,0,0,0,1.107.573,1.371,1.371,0,0,0,1.292-.68V21.739a1.368,1.368,0,0,0-1.278-.68,1.29,1.29,0,0,0-1.118.584A3.059,3.059,0,0,0,17.867,23.388ZM28.6,26.248a2.477,2.477,0,0,1-2.023.889,2.337,2.337,0,0,1-1.815-.684,2.918,2.918,0,0,1-.639-2V19.6H26.1v4.784q0,1.157,1.053,1.157a1.426,1.426,0,0,0,1.381-.7V19.6h1.982V27H28.654Zm7.561-4.792a5.367,5.367,0,0,0-.711-.055,1.447,1.447,0,0,0-1.47.759V27H32V19.6H33.87l.055.882a1.831,1.831,0,0,1,1.647-1.019,2.07,2.07,0,0,1,.615.089ZM39.195,27H37.212V19.6h1.982Zm-2.1-9.311a.973.973,0,0,1,.3-.731,1.281,1.281,0,0,1,1.617,0,1.044,1.044,0,0,1,0,1.47,1.267,1.267,0,0,1-1.606,0A.97.97,0,0,1,37.1,17.689Zm3.418,5.558a4.457,4.457,0,0,1,.776-2.755,2.517,2.517,0,0,1,2.123-1.025,2.265,2.265,0,0,1,1.784.807V16.5h1.982V27H45.4l-.1-.786a2.325,2.325,0,0,1-1.9.923,2.511,2.511,0,0,1-2.1-1.029A4.6,4.6,0,0,1,40.514,23.247Zm1.976.141a2.936,2.936,0,0,0,.362,1.6,1.179,1.179,0,0,0,1.053.556,1.321,1.321,0,0,0,1.292-.776V21.836a1.3,1.3,0,0,0-1.278-.776Q42.49,21.06,42.49,23.388ZM53,27a2.194,2.194,0,0,1-.2-.663,2.39,2.39,0,0,1-1.866.8,2.626,2.626,0,0,1-1.8-.629,2.023,2.023,0,0,1-.714-1.586,2.09,2.09,0,0,1,.872-1.8,4.3,4.3,0,0,1,2.519-.636h.909v-.424a1.219,1.219,0,0,0-.263-.82,1.035,1.035,0,0,0-.831-.308,1.177,1.177,0,0,0-.783.239.813.813,0,0,0-.284.656H48.581a1.984,1.984,0,0,1,.4-1.189,2.621,2.621,0,0,1,1.121-.858,4.086,4.086,0,0,1,1.627-.311,3.228,3.228,0,0,1,2.17.687,2.4,2.4,0,0,1,.8,1.931v3.206a3.536,3.536,0,0,0,.294,1.593V27Zm-1.634-1.374a1.7,1.7,0,0,0,.807-.195,1.28,1.28,0,0,0,.547-.523V23.637h-.738q-1.483,0-1.579,1.025l-.007.116a.791.791,0,0,0,.26.608A1.009,1.009,0,0,0,51.363,25.626Zm4.546-2.379a4.457,4.457,0,0,1,.776-2.755,2.517,2.517,0,0,1,2.123-1.025,2.265,2.265,0,0,1,1.784.807V16.5h1.982V27H60.79l-.1-.786a2.325,2.325,0,0,1-1.9.923,2.511,2.511,0,0,1-2.1-1.029A4.6,4.6,0,0,1,55.909,23.247Zm1.976.141a2.936,2.936,0,0,0,.362,1.6,1.179,1.179,0,0,0,1.053.556,1.321,1.321,0,0,0,1.292-.776V21.836a1.3,1.3,0,0,0-1.278-.776Q57.884,21.06,57.884,23.388Zm-42.6,17.749a3.631,3.631,0,0,1-2.649-1,3.548,3.548,0,0,1-1.022-2.659v-.191a4.468,4.468,0,0,1,.431-1.993,3.161,3.161,0,0,1,1.22-1.354,3.425,3.425,0,0,1,1.8-.475,3.07,3.07,0,0,1,2.389.957,3.889,3.889,0,0,1,.872,2.714v.807h-4.71a1.835,1.835,0,0,0,.578,1.162,1.746,1.746,0,0,0,1.22.438,2.132,2.132,0,0,0,1.784-.827l.971,1.087a2.966,2.966,0,0,1-1.2.981A3.947,3.947,0,0,1,15.279,41.137Zm-.226-6.077a1.234,1.234,0,0,0-.954.4,2.062,2.062,0,0,0-.468,1.14H16.38V36.44a1.471,1.471,0,0,0-.355-1.02A1.274,1.274,0,0,0,15.054,35.06Zm8.395,3.9a.637.637,0,0,0-.359-.571,4.077,4.077,0,0,0-1.152-.373Q19.3,37.459,19.3,35.771a2.032,2.032,0,0,1,.817-1.644,3.3,3.3,0,0,1,2.136-.66,3.547,3.547,0,0,1,2.252.663,2.09,2.09,0,0,1,.844,1.723H23.373a.956.956,0,0,0-.273-.7,1.157,1.157,0,0,0-.854-.277,1.182,1.182,0,0,0-.772.226.712.712,0,0,0-.273.574.609.609,0,0,0,.311.53,3.2,3.2,0,0,0,1.049.349,8.57,8.57,0,0,1,1.244.332,2.044,2.044,0,0,1,1.565,1.989,1.929,1.929,0,0,1-.868,1.637,3.745,3.745,0,0,1-2.242.625,3.912,3.912,0,0,1-1.651-.332,2.77,2.77,0,0,1-1.131-.909,2.113,2.113,0,0,1-.41-1.248h1.873a1.031,1.031,0,0,0,.39.807,1.546,1.546,0,0,0,.971.28,1.43,1.43,0,0,0,.858-.215A.67.67,0,0,0,23.448,38.956ZM33.3,37.37a4.436,4.436,0,0,1-.776,2.738,2.488,2.488,0,0,1-2.1,1.029,2.3,2.3,0,0,1-1.812-.779v3.486H26.641V33.6h1.832l.068.725a2.322,2.322,0,0,1,1.873-.861,2.5,2.5,0,0,1,2.126,1.012,4.556,4.556,0,0,1,.759,2.789Zm-1.976-.151a2.927,2.927,0,0,0-.366-1.6,1.19,1.19,0,0,0-1.063-.562,1.293,1.293,0,0,0-1.278.713V38.81a1.315,1.315,0,0,0,1.292.734Q31.323,39.544,31.323,37.22Zm6.6,3.917a3.631,3.631,0,0,1-2.649-1,3.548,3.548,0,0,1-1.022-2.659v-.191a4.468,4.468,0,0,1,.431-1.993,3.161,3.161,0,0,1,1.22-1.354,3.425,3.425,0,0,1,1.8-.475,3.07,3.07,0,0,1,2.389.957,3.889,3.889,0,0,1,.872,2.714v.807h-4.71a1.835,1.835,0,0,0,.578,1.162,1.746,1.746,0,0,0,1.22.438,2.132,2.132,0,0,0,1.784-.827l.971,1.087a2.966,2.966,0,0,1-1.2.981A3.947,3.947,0,0,1,37.927,41.137ZM37.7,35.06a1.234,1.234,0,0,0-.954.4,2.062,2.062,0,0,0-.468,1.14h2.748V36.44a1.471,1.471,0,0,0-.355-1.02A1.274,1.274,0,0,0,37.7,35.06Zm6.48-1.456v7.8a2.646,2.646,0,0,1-.649,1.9,2.468,2.468,0,0,1-1.873.68,4.017,4.017,0,0,1-.978-.116V42.306a3.708,3.708,0,0,0,.622.062q.9,0,.9-.95V33.6Zm-2.14-1.914a.973.973,0,0,1,.3-.731,1.286,1.286,0,0,1,1.62,0,1.048,1.048,0,0,1-.007,1.47,1.267,1.267,0,0,1-1.606,0A.97.97,0,0,1,42.042,31.689Zm3.377,5.544a4.387,4.387,0,0,1,.424-1.962,3.1,3.1,0,0,1,1.22-1.333,3.56,3.56,0,0,1,1.849-.472,3.368,3.368,0,0,1,2.444.916,3.676,3.676,0,0,1,1.056,2.488l.014.506a3.866,3.866,0,0,1-.95,2.731,3.683,3.683,0,0,1-5.1,0,3.934,3.934,0,0,1-.954-2.789Zm1.976.14a2.765,2.765,0,0,0,.4,1.612,1.424,1.424,0,0,0,2.256.007,3.025,3.025,0,0,0,.4-1.763,2.737,2.737,0,0,0-.4-1.6,1.311,1.311,0,0,0-1.135-.568,1.29,1.29,0,0,0-1.121.565A3.076,3.076,0,0,0,47.395,37.374Z" transform="translate(1031 1385.174)" fill="#00223d"/>
    <g id="Grupo_128111" data-name="Grupo 128111" transform="translate(12309.971 9493.174)">
      <g id="Grupo_128109" data-name="Grupo 128109" transform="translate(-11230.381 -8079.103)">
        <path id="Trazado_190687" data-name="Trazado 190687" d="M150.41,91.707c0,11.573-8.748,20.955-19.551,20.955H19.556C8.757,112.662,0,103.28,0,91.707S8.757,70.762,19.556,70.762h111.3c10.8,0,19.551,9.38,19.551,20.945" transform="translate(0 -29.128)" fill="#88e0ef" fill-rule="evenodd"/>
        <path id="Trazado_190688" data-name="Trazado 190688" d="M144.395,49.839c0,8.962-8.4,16.217-18.76,16.217H52.8c-10.365,0-18.765-7.255-18.765-16.217s8.4-16.206,18.765-16.206h72.834c10.361,0,18.76,7.258,18.76,16.206" transform="translate(-14.01 -13.844)" fill="#88e0ef" fill-rule="evenodd"/>
        <path id="Trazado_190689" data-name="Trazado 190689" d="M135.39,26.1a25.809,25.809,0,1,1-51.615,0,25.809,25.809,0,1,1,51.615,0" transform="translate(-34.484 0)" fill="#88e0ef" fill-rule="evenodd"/>
      </g>
      <g id="Grupo_128110" data-name="Grupo 128110" transform="translate(-11414.971 -8069.372)">
        <path id="Rectángulo_41114" data-name="Rectángulo 41114" d="M4.605,0H107.152a4.6,4.6,0,0,1,4.6,4.6V70.189a4.6,4.6,0,0,1-4.6,4.6H4.6a4.6,4.6,0,0,1-4.6-4.6V4.605A4.605,4.605,0,0,1,4.605,0Z" transform="translate(11.993 0)" fill="#592fe6"/>
        <path id="Trazado_190690" data-name="Trazado 190690" d="M203.618,229.244a1.129,1.129,0,0,0,0-2.256,1.129,1.129,0,0,0,0,2.256" transform="translate(-135.749 -225.623)" fill="#fff"/>
        <path id="Rectángulo_41115" data-name="Rectángulo 41115" d="M3.957,0h88.2A3.957,3.957,0,0,1,96.11,3.957v56.4a3.959,3.959,0,0,1-3.959,3.959H3.957A3.957,3.957,0,0,1,0,60.361V3.957A3.957,3.957,0,0,1,3.957,0Z" transform="translate(19.814 5.237)" fill="#88e0ef"/>
        <g id="Grupo_128108" data-name="Grupo 128108" transform="translate(19.814 5.104)" opacity="0.4">
          <g id="Grupo_128107" data-name="Grupo 128107" transform="translate(0 0)">
            <g id="Grupo_128106" data-name="Grupo 128106" clip-path="url(#clip-path)">
              <path id="Trazado_190691" data-name="Trazado 190691" d="M129.741,297.887h-4.7a2.329,2.329,0,0,1-2.33-2.328V235.9a2.329,2.329,0,0,1,2.33-2.329h65.487" transform="translate(-122.706 -233.436)" fill="#fff"/>
              <path id="Trazado_190692" data-name="Trazado 190692" d="M155.679,297.794h-5.973l60.782-64.318,6.007-.133Z" transform="translate(-133.82 -233.343)" fill="#fff"/>
            </g>
          </g>
        </g>
        <path id="Rectángulo_41117" data-name="Rectángulo 41117" d="M1,0h5.27a1,1,0,0,1,1,1V2.047a1,1,0,0,1-1,1H1a1,1,0,0,1-1-1V1A1,1,0,0,1,1,0Z" transform="translate(6.694 73.335)" fill="#88e0ef"/>
        <path id="Rectángulo_41118" data-name="Rectángulo 41118" d="M1,0h5.27a1,1,0,0,1,1,1V2.047a1,1,0,0,1-1,1H1a1,1,0,0,1-1-1V1A1,1,0,0,1,1,0Z" transform="translate(15.547 73.335)" fill="#88e0ef"/>
        <path id="Rectángulo_41119" data-name="Rectángulo 41119" d="M1,0h5.27a1,1,0,0,1,1,1V2.047a1,1,0,0,1-1,1H1a1,1,0,0,1-1-1V1A1,1,0,0,1,1,0Z" transform="translate(24.398 73.335)" fill="#88e0ef"/>
        <path id="Rectángulo_41120" data-name="Rectángulo 41120" d="M1,0H6.275a1,1,0,0,1,1,1V2.047a1,1,0,0,1-1,1H1a1,1,0,0,1-1-1V1A1,1,0,0,1,1,0Z" transform="translate(33.25 73.335)" fill="#88e0ef"/>
        <rect id="Rectángulo_41121" data-name="Rectángulo 41121" width="7.278" height="3.049" rx="1.004" transform="translate(42.102 73.335)" fill="#88e0ef"/>
        <path id="Rectángulo_41122" data-name="Rectángulo 41122" d="M1,0H6.275a1,1,0,0,1,1,1V2.047a1,1,0,0,1-1,1H1a1,1,0,0,1-1-1V1A1,1,0,0,1,1,0Z" transform="translate(50.954 73.335)" fill="#88e0ef"/>
        <path id="Rectángulo_41123" data-name="Rectángulo 41123" d="M1,0h5.27a1,1,0,0,1,1,1V2.047a1,1,0,0,1-1,1H1a1,1,0,0,1-1-1V1A1,1,0,0,1,1,0Z" transform="translate(59.806 73.335)" fill="#88e0ef"/>
        <path id="Rectángulo_41124" data-name="Rectángulo 41124" d="M1,0h5.27a1,1,0,0,1,1,1V2.047a1,1,0,0,1-1,1H1a1,1,0,0,1-1-1V1A1,1,0,0,1,1,0Z" transform="translate(68.657 73.335)" fill="#88e0ef"/>
        <path id="Rectángulo_41125" data-name="Rectángulo 41125" d="M1,0h5.27a1,1,0,0,1,1,1V2.047a1,1,0,0,1-1,1H1a1,1,0,0,1-1-1V1A1,1,0,0,1,1,0Z" transform="translate(77.509 73.335)" fill="#88e0ef"/>
        <path id="Rectángulo_41126" data-name="Rectángulo 41126" d="M1,0h5.27a1,1,0,0,1,1,1V2.047a1,1,0,0,1-1,1H1a1,1,0,0,1-1-1V1A1,1,0,0,1,1,0Z" transform="translate(86.361 73.335)" fill="#88e0ef"/>
        <path id="Rectángulo_41127" data-name="Rectángulo 41127" d="M1,0h5.27a1,1,0,0,1,1,1V2.046a1,1,0,0,1-1,1H1a1,1,0,0,1-1-1V1A1,1,0,0,1,1,0Z" transform="translate(95.213 73.335)" fill="#88e0ef"/>
        <path id="Rectángulo_41128" data-name="Rectángulo 41128" d="M1,0H6.275a1,1,0,0,1,1,1V2.047a1,1,0,0,1-1,1H1a1,1,0,0,1-1-1V1A1,1,0,0,1,1,0Z" transform="translate(104.064 73.335)" fill="#88e0ef"/>
        <path id="Rectángulo_41129" data-name="Rectángulo 41129" d="M1,0h5.27a1,1,0,0,1,1,1V2.047a1,1,0,0,1-1,1H1a1,1,0,0,1-1-1V1A1,1,0,0,1,1,0Z" transform="translate(112.917 73.335)" fill="#88e0ef"/>
        <path id="Rectángulo_41130" data-name="Rectángulo 41130" d="M1,0H6.275a1,1,0,0,1,1,1V2.047a1,1,0,0,1-1,1H1a1,1,0,0,1-1-1V1A1,1,0,0,1,1,0Z" transform="translate(121.768 73.335)" fill="#88e0ef"/>
        <path id="Trazado_190693" data-name="Trazado 190693" d="M224.768,356.5c0,1.5-.309,2.709-1.8,2.709H90.834c-1.5,0-1.805-1.213-1.805-2.709v-2.319c0-1.5.308-2.709,1.805-2.709H222.965c1.494,0,1.8,1.211,1.8,2.709Z" transform="translate(-89.029 -276.867)" fill="#592fe6"/>
        <path id="Trazado_190694" data-name="Trazado 190694" d="M224.768,356.08v4.436c0,1.494-.309,2.707-1.8,2.707H90.834c-1.5,0-1.805-1.213-1.805-2.707V356.08" transform="translate(-89.029 -278.761)" fill="#12263f"/>
      </g>
      <path id="Trazado_190655" data-name="Trazado 190655" d="M97.508,231.855H88.751v25.639A5.543,5.543,0,0,0,99.4,259.651a5.482,5.482,0,0,0,.322-1.04,5.545,5.545,0,0,0,.113-1.117V234.181a2.326,2.326,0,0,0-2.326-2.326" transform="translate(-11415.631 -8277.439)" fill="#ffc727" stroke="#12263f" stroke-width="1"/>
      <path id="Trazado_190656" data-name="Trazado 190656" d="M97.508,231.855H88.751v25.639A5.543,5.543,0,0,0,99.4,259.651a5.482,5.482,0,0,0,.322-1.04,5.545,5.545,0,0,0,.113-1.117V234.181A2.326,2.326,0,0,0,97.508,231.855Z" transform="translate(-11415.631 -8277.439)" fill="none" stroke="#12263f" stroke-miterlimit="10" stroke-width="1.915"/>
      <path id="Trazado_190657" data-name="Trazado 190657" d="M424.1,231.855h-8.757v25.639a5.543,5.543,0,0,0,10.647,2.157,5.481,5.481,0,0,0,.322-1.04,5.543,5.543,0,0,0,.113-1.117V234.181a2.326,2.326,0,0,0-2.326-2.326" transform="translate(-11550.065 -8277.439)" fill="#ffc727" stroke="#12263f" stroke-width="1"/>
      <path id="Trazado_190658" data-name="Trazado 190658" d="M424.1,231.855h-8.757v25.639a5.543,5.543,0,0,0,10.647,2.157,5.481,5.481,0,0,0,.322-1.04,5.543,5.543,0,0,0,.113-1.117V234.181A2.326,2.326,0,0,0,424.1,231.855Z" transform="translate(-11550.065 -8277.439)" fill="none" stroke="#12263f" stroke-miterlimit="10" stroke-width="1.915"/>
      <path id="Trazado_190659" data-name="Trazado 190659" d="M133.415,60.7a53.03,53.03,0,0,1,6.475-2.546" transform="translate(-11434.016 -8205.94)" fill="none" stroke="#6a79a2" stroke-linecap="round" stroke-miterlimit="10" stroke-width="1.915"/>
      <path id="Trazado_190660" data-name="Trazado 190660" d="M123.592,53.856q1.141-.673,2.343-1.307A50.844,50.844,0,0,1,139.468,47.6" transform="translate(-11429.972 -8201.594)" fill="none" stroke="#6a79a2" stroke-linecap="round" stroke-miterlimit="10" stroke-width="1.915"/>
      <path id="Trazado_190661" data-name="Trazado 190661" d="M110.857,53.311c1.377-.842,2.829-1.646,4.347-2.4q1.5-.745,3-1.383" transform="translate(-11424.73 -8202.387)" fill="none" stroke="#6a79a2" stroke-linecap="round" stroke-miterlimit="10" stroke-width="1.915"/>
      <path id="Trazado_190662" data-name="Trazado 190662" d="M297.192,60.7a53.028,53.028,0,0,0-6.475-2.546" transform="translate(-11498.767 -8205.94)" fill="none" stroke="#6a79a2" stroke-linecap="round" stroke-miterlimit="10" stroke-width="1.915"/>
      <path id="Trazado_190663" data-name="Trazado 190663" d="M300.438,53.856q-1.141-.673-2.343-1.307A50.837,50.837,0,0,0,284.562,47.6" transform="translate(-11496.232 -8201.594)" fill="none" stroke="#6a79a2" stroke-linecap="round" stroke-miterlimit="10" stroke-width="1.915"/>
      <path id="Trazado_190664" data-name="Trazado 190664" d="M319.141,53.311c-1.377-.842-2.829-1.646-4.347-2.4q-1.5-.745-3-1.383" transform="translate(-11507.443 -8202.387)" fill="none" stroke="#6a79a2" stroke-linecap="round" stroke-miterlimit="10" stroke-width="1.915"/>
      <g id="Grupo_128098" data-name="Grupo 128098" transform="translate(-11273.08 -8182)" opacity="0.8">
        <g id="Grupo_128097" data-name="Grupo 128097" transform="translate(0)">
          <g id="Grupo_128096" data-name="Grupo 128096" clip-path="url(#clip-path-2)">
            <path id="Trazado_190665" data-name="Trazado 190665" d="M224.005,10.1v41.82a5.154,5.154,0,0,1-.1,1.028,5.09,5.09,0,0,1-.768,1.825,5.119,5.119,0,0,1-2.246,1.849,5.044,5.044,0,0,1-.958.3,5.1,5.1,0,0,1-1.028.1H186.25a5.1,5.1,0,0,1-5.1-5.1V6.062a5.146,5.146,0,0,1,.1-1.028,5.087,5.087,0,0,1,.768-1.825,5.119,5.119,0,0,1,2.246-1.849,5.089,5.089,0,0,1,1.986-.4h28.57Z" transform="translate(-180.583 -0.394)" fill="#fff"/>
            <path id="Trazado_190666" data-name="Trazado 190666" d="M224.005,10.1v41.82a5.154,5.154,0,0,1-.1,1.028,5.09,5.09,0,0,1-.768,1.825,5.119,5.119,0,0,1-2.246,1.849,5.044,5.044,0,0,1-.958.3,5.1,5.1,0,0,1-1.028.1H186.25a5.1,5.1,0,0,1-5.1-5.1V6.062a5.146,5.146,0,0,1,.1-1.028,5.087,5.087,0,0,1,.768-1.825,5.119,5.119,0,0,1,2.246-1.849,5.089,5.089,0,0,1,1.986-.4h28.57Z" transform="translate(-180.583 -0.394)" fill="none" stroke="#6a79a2" stroke-linecap="round" stroke-miterlimit="10" stroke-width="1.915" stroke-dasharray="8.962 8.962"/>
            <path id="Trazado_190667" data-name="Trazado 190667" d="M247.564,10.1h-4.082a5.15,5.15,0,0,1-1.028-.1,5.057,5.057,0,0,1-.958-.3,5.109,5.109,0,0,1-2.716-2.716,5.057,5.057,0,0,1-.3-.958,5.149,5.149,0,0,1-.1-1.028V.958Z" transform="translate(-204.142 -0.394)" fill="#fff"/>
            <path id="Trazado_190668" data-name="Trazado 190668" d="M247.564,10.1h-4.082a5.15,5.15,0,0,1-1.028-.1,5.057,5.057,0,0,1-.958-.3,5.109,5.109,0,0,1-2.716-2.716,5.057,5.057,0,0,1-.3-.958,5.149,5.149,0,0,1-.1-1.028V.958Z" transform="translate(-204.142 -0.394)" fill="none" stroke="#6a79a2" stroke-linecap="round" stroke-linejoin="round" stroke-width="1.915"/>
            <line id="Línea_385" data-name="Línea 385" x2="16.326" transform="translate(5.667 10.566)" fill="none" stroke="#6a79a2" stroke-linecap="round" stroke-miterlimit="10" stroke-width="0.958"/>
            <line id="Línea_386" data-name="Línea 386" x2="32.651" transform="translate(5.667 15.074)" fill="none" stroke="#6a79a2" stroke-linecap="round" stroke-miterlimit="10" stroke-width="0.958"/>
            <line id="Línea_387" data-name="Línea 387" x2="32.651" transform="translate(5.667 19.582)" fill="none" stroke="#6a79a2" stroke-linecap="round" stroke-miterlimit="10" stroke-width="0.958"/>
            <line id="Línea_388" data-name="Línea 388" x2="32.651" transform="translate(5.667 24.09)" fill="none" stroke="#6a79a2" stroke-linecap="round" stroke-miterlimit="10" stroke-width="0.958"/>
            <line id="Línea_389" data-name="Línea 389" x2="32.651" transform="translate(5.667 28.598)" fill="none" stroke="#6a79a2" stroke-linecap="round" stroke-miterlimit="10" stroke-width="0.958"/>
            <line id="Línea_390" data-name="Línea 390" x2="32.651" transform="translate(5.667 33.106)" fill="none" stroke="#6a79a2" stroke-linecap="round" stroke-miterlimit="10" stroke-width="0.958"/>
            <line id="Línea_391" data-name="Línea 391" x2="32.651" transform="translate(5.667 37.614)" fill="none" stroke="#6a79a2" stroke-linecap="round" stroke-miterlimit="10" stroke-width="0.958"/>
            <line id="Línea_392" data-name="Línea 392" x2="32.651" transform="translate(5.667 42.122)" fill="none" stroke="#6a79a2" stroke-linecap="round" stroke-miterlimit="10" stroke-width="0.958"/>
            <line id="Línea_393" data-name="Línea 393" x2="8.163" transform="translate(30.156 49.448)" fill="none" stroke="#6a79a2" stroke-linecap="round" stroke-miterlimit="10" stroke-width="2.873"/>
          </g>
        </g>
      </g>
      <path id="Trazado_190669" data-name="Trazado 190669" d="M362.878,159.3v45.862a5.1,5.1,0,0,1-5.1,5.1H325.124a5.1,5.1,0,0,1-5.1-5.1V159.3a5.1,5.1,0,0,1,5.1-5.1h32.651a5.1,5.1,0,0,1,5.1,5.1" transform="translate(-11510.828 -8245.472)" fill="#fff"/>
      <rect id="Rectángulo_41107" data-name="Rectángulo 41107" width="42.858" height="56.069" rx="8.674" transform="translate(-11190.808 -8091.275)" fill="none" stroke="#6a79a2" stroke-miterlimit="10" stroke-width="1.915"/>
      <path id="Trazado_190670" data-name="Trazado 190670" d="M85.131,159.3v45.862a5.1,5.1,0,0,1-5.1,5.1H47.377a5.1,5.1,0,0,1-5.1-5.1V159.3a5.1,5.1,0,0,1,5.1-5.1H80.028a5.1,5.1,0,0,1,5.1,5.1" transform="translate(-11396.498 -8245.472)" fill="#fff"/>
      <rect id="Rectángulo_41108" data-name="Rectángulo 41108" width="42.858" height="56.069" rx="8.674" transform="translate(-11354.226 -8091.275)" fill="none" stroke="#6a79a2" stroke-miterlimit="10" stroke-width="1.915"/>
      <path id="Trazado_190671" data-name="Trazado 190671" d="M92.793,151.639V197.5a5.1,5.1,0,0,1-5.1,5.1H55.039a5.1,5.1,0,0,1-5.1-5.1V151.639a5.1,5.1,0,0,1,5.1-5.1H87.69a5.1,5.1,0,0,1,5.1,5.1" transform="translate(-11399.652 -8242.319)" fill="#fff"/>
      <rect id="Rectángulo_41109" data-name="Rectángulo 41109" width="42.858" height="56.069" rx="8.674" transform="translate(-11349.718 -8095.783)" fill="none" stroke="#6a79a2" stroke-miterlimit="10" stroke-width="1.915"/>
      <line id="Línea_394" data-name="Línea 394" x2="16.326" transform="translate(-11344.613 -8085.781)" fill="none" stroke="#6a79a2" stroke-linecap="round" stroke-miterlimit="10" stroke-width="0.958"/>
      <line id="Línea_395" data-name="Línea 395" x2="32.651" transform="translate(-11344.613 -8081.273)" fill="none" stroke="#6a79a2" stroke-linecap="round" stroke-miterlimit="10" stroke-width="0.958"/>
      <line id="Línea_396" data-name="Línea 396" x2="32.651" transform="translate(-11344.613 -8076.765)" fill="none" stroke="#6a79a2" stroke-linecap="round" stroke-miterlimit="10" stroke-width="0.958"/>
      <line id="Línea_397" data-name="Línea 397" x2="32.651" transform="translate(-11344.613 -8072.257)" fill="none" stroke="#6a79a2" stroke-linecap="round" stroke-miterlimit="10" stroke-width="0.958"/>
      <line id="Línea_398" data-name="Línea 398" x2="32.651" transform="translate(-11344.613 -8067.749)" fill="none" stroke="#6a79a2" stroke-linecap="round" stroke-miterlimit="10" stroke-width="0.958"/>
      <line id="Línea_399" data-name="Línea 399" x2="32.651" transform="translate(-11344.613 -8063.241)" fill="none" stroke="#6a79a2" stroke-linecap="round" stroke-miterlimit="10" stroke-width="0.958"/>
      <line id="Línea_400" data-name="Línea 400" x2="32.651" transform="translate(-11344.613 -8058.733)" fill="none" stroke="#6a79a2" stroke-linecap="round" stroke-miterlimit="10" stroke-width="0.958"/>
      <line id="Línea_401" data-name="Línea 401" x2="32.651" transform="translate(-11344.613 -8054.225)" fill="none" stroke="#6a79a2" stroke-linecap="round" stroke-miterlimit="10" stroke-width="0.958"/>
      <line id="Línea_402" data-name="Línea 402" x2="8.163" transform="translate(-11320.125 -8046.899)" fill="none" stroke="#6a79a2" stroke-linecap="round" stroke-miterlimit="10" stroke-width="2.873"/>
      <path id="Trazado_190672" data-name="Trazado 190672" d="M355.216,151.639V197.5a5.1,5.1,0,0,1-5.1,5.1H317.462a5.1,5.1,0,0,1-5.1-5.1V151.639a5.1,5.1,0,0,1,5.1-5.1h32.651a5.1,5.1,0,0,1,5.1,5.1" transform="translate(-11507.674 -8242.319)" fill="#fff"/>
      <rect id="Rectángulo_41110" data-name="Rectángulo 41110" width="42.858" height="56.069" rx="8.674" transform="translate(-11195.315 -8095.783)" fill="none" stroke="#6a79a2" stroke-miterlimit="10" stroke-width="1.915"/>
      <line id="Línea_403" data-name="Línea 403" x2="16.326" transform="translate(-11190.212 -8085.781)" fill="none" stroke="#6a79a2" stroke-linecap="round" stroke-miterlimit="10" stroke-width="0.958"/>
      <line id="Línea_404" data-name="Línea 404" x2="32.651" transform="translate(-11190.212 -8081.273)" fill="none" stroke="#6a79a2" stroke-linecap="round" stroke-miterlimit="10" stroke-width="0.958"/>
      <line id="Línea_405" data-name="Línea 405" x2="32.651" transform="translate(-11190.212 -8076.765)" fill="none" stroke="#6a79a2" stroke-linecap="round" stroke-miterlimit="10" stroke-width="0.958"/>
      <line id="Línea_406" data-name="Línea 406" x2="32.651" transform="translate(-11190.212 -8072.257)" fill="none" stroke="#6a79a2" stroke-linecap="round" stroke-miterlimit="10" stroke-width="0.958"/>
      <line id="Línea_407" data-name="Línea 407" x2="32.651" transform="translate(-11190.212 -8067.749)" fill="none" stroke="#6a79a2" stroke-linecap="round" stroke-miterlimit="10" stroke-width="0.958"/>
      <line id="Línea_408" data-name="Línea 408" x2="32.651" transform="translate(-11190.212 -8063.241)" fill="none" stroke="#6a79a2" stroke-linecap="round" stroke-miterlimit="10" stroke-width="0.958"/>
      <line id="Línea_409" data-name="Línea 409" x2="32.651" transform="translate(-11190.212 -8058.733)" fill="none" stroke="#6a79a2" stroke-linecap="round" stroke-miterlimit="10" stroke-width="0.958"/>
      <line id="Línea_410" data-name="Línea 410" x2="32.651" transform="translate(-11190.212 -8054.225)" fill="none" stroke="#6a79a2" stroke-linecap="round" stroke-miterlimit="10" stroke-width="0.958"/>
      <line id="Línea_411" data-name="Línea 411" x2="8.163" transform="translate(-11165.725 -8046.899)" fill="none" stroke="#6a79a2" stroke-linecap="round" stroke-miterlimit="10" stroke-width="2.873"/>
      <path id="Trazado_190673" data-name="Trazado 190673" d="M52.613,246.981V218.039a2.332,2.332,0,0,0-2.332-2.332h-16.6a2.994,2.994,0,0,1-2.247-1.016L24.756,207.1a2.326,2.326,0,0,0-1.746-.789H3.283A2.325,2.325,0,0,0,.958,208.64v38.341A5.536,5.536,0,0,0,6.5,252.522H58.154a5.541,5.541,0,0,1-5.541-5.541" transform="translate(-11379.492 -8266.927)" fill="#ffc727" stroke="#12263f" stroke-width="1"/>
      <path id="Trazado_190674" data-name="Trazado 190674" d="M52.613,246.981V218.039a2.332,2.332,0,0,0-2.332-2.332h-16.6a2.994,2.994,0,0,1-2.247-1.016L24.756,207.1a2.326,2.326,0,0,0-1.746-.789H3.283A2.325,2.325,0,0,0,.958,208.64v38.341A5.536,5.536,0,0,0,6.5,252.522H58.154A5.541,5.541,0,0,1,52.613,246.981Z" transform="translate(-11379.492 -8266.927)" fill="none" stroke="#12263f" stroke-miterlimit="10" stroke-width="1.915"/>
      <path id="Trazado_190675" data-name="Trazado 190675" d="M379.2,246.981V218.039a2.332,2.332,0,0,0-2.332-2.332h-16.6a2.994,2.994,0,0,1-2.246-1.016l-6.676-7.587a2.326,2.326,0,0,0-1.746-.789H329.875a2.325,2.325,0,0,0-2.325,2.325v38.341a5.536,5.536,0,0,0,5.541,5.541h51.655a5.541,5.541,0,0,1-5.541-5.541" transform="translate(-11513.928 -8266.927)" fill="#ffc727" stroke="#12263f" stroke-width="1"/>
      <path id="Trazado_190676" data-name="Trazado 190676" d="M379.2,246.981V218.039a2.332,2.332,0,0,0-2.332-2.332h-16.6a2.994,2.994,0,0,1-2.246-1.016l-6.676-7.587a2.326,2.326,0,0,0-1.746-.789H329.875a2.325,2.325,0,0,0-2.325,2.325v38.341a5.536,5.536,0,0,0,5.541,5.541h51.655A5.541,5.541,0,0,1,379.2,246.981Z" transform="translate(-11513.928 -8266.927)" fill="none" stroke="#12263f" stroke-miterlimit="10" stroke-width="1.915"/>
      <path id="Trazado_190677" data-name="Trazado 190677" d="M337.645,93.974,332.4,99.223l-4.053,4.054-4.054,4.054-4.053,4.053-4.053,4.054-4.054,4.054-4.053,4.054a5.175,5.175,0,0,1-.8.654,5.073,5.073,0,0,1-1.833.747,5.121,5.121,0,0,1-2.9-.28,5.062,5.062,0,0,1-.888-.467,5.133,5.133,0,0,1-.8-.654l-2.886-2.887-2.887-2.886-2.886-2.886L289.312,112l-2.886-2.886-2.886-2.886-2.886-2.886-2.886-2.886a5.138,5.138,0,0,1-.654-.8,5.06,5.06,0,0,1-.467-.888,5.112,5.112,0,0,1,0-3.841,5.076,5.076,0,0,1,1.121-1.688l4.053-4.054,4.054-4.054,4.053-4.053,4.054-4.054,4.053-4.054,4.053-4.053,4.054-4.054L310.2,60.81a5.115,5.115,0,0,1,.8-.654,5.088,5.088,0,0,1,1.833-.748,5.113,5.113,0,0,1,2.895.281,5.1,5.1,0,0,1,1.688,1.121L320.3,63.7l2.886,2.886,2.887,2.887,2.886,2.886,2.886,2.886,2.886,2.886,2.886,2.886Z" transform="translate(-11492.82 -8206.417)" fill="#fff"/>
      <path id="Trazado_190678" data-name="Trazado 190678" d="M337.645,93.974,332.4,99.223l-4.053,4.054-4.054,4.054-4.053,4.053-4.053,4.054-4.054,4.054-4.053,4.054a5.175,5.175,0,0,1-.8.654,5.073,5.073,0,0,1-1.833.747,5.121,5.121,0,0,1-2.9-.28,5.062,5.062,0,0,1-.888-.467,5.133,5.133,0,0,1-.8-.654l-2.886-2.887-2.887-2.886-2.886-2.886L289.312,112l-2.886-2.886-2.886-2.886-2.886-2.886-2.886-2.886a5.138,5.138,0,0,1-.654-.8,5.06,5.06,0,0,1-.467-.888,5.112,5.112,0,0,1,0-3.841,5.076,5.076,0,0,1,1.121-1.688l4.053-4.054,4.054-4.054,4.053-4.053,4.054-4.054,4.053-4.054,4.053-4.053,4.054-4.054L310.2,60.81a5.115,5.115,0,0,1,.8-.654,5.088,5.088,0,0,1,1.833-.748,5.113,5.113,0,0,1,2.895.281,5.1,5.1,0,0,1,1.688,1.121L320.3,63.7l2.886,2.886,2.887,2.887,2.886,2.886,2.886,2.886,2.886,2.886,2.886,2.886Z" transform="translate(-11492.82 -8206.417)" fill="none" stroke="#6a79a2" stroke-linecap="round" stroke-miterlimit="10" stroke-width="1.915" stroke-dasharray="8.962 8.962"/>
      <path id="Trazado_190679" data-name="Trazado 190679" d="M377.517,109.154l-2.887-2.886a5.216,5.216,0,0,1-.654-.8,5.054,5.054,0,0,1-.467-.887,5.114,5.114,0,0,1,0-3.841,5.055,5.055,0,0,1,.467-.887,5.215,5.215,0,0,1,.654-.8l2.858-2.858Z" transform="translate(-11532.692 -8221.596)" fill="#fff"/>
      <path id="Trazado_190680" data-name="Trazado 190680" d="M377.517,109.154l-2.887-2.886a5.216,5.216,0,0,1-.654-.8,5.054,5.054,0,0,1-.467-.887,5.114,5.114,0,0,1,0-3.841,5.055,5.055,0,0,1,.467-.887,5.215,5.215,0,0,1,.654-.8l2.858-2.858Z" transform="translate(-11532.692 -8221.596)" fill="none" stroke="#6a79a2" stroke-linecap="round" stroke-linejoin="round" stroke-width="1.915"/>
      <line id="Línea_412" data-name="Línea 412" x2="11.544" y2="11.544" transform="translate(-11182.479 -8138.533)" fill="none" stroke="#6a79a2" stroke-linecap="round" stroke-miterlimit="10" stroke-width="0.958"/>
      <line id="Línea_413" data-name="Línea 413" x2="23.088" y2="23.088" transform="translate(-11185.666 -8135.345)" fill="none" stroke="#6a79a2" stroke-linecap="round" stroke-miterlimit="10" stroke-width="0.958"/>
      <line id="Línea_414" data-name="Línea 414" x2="23.088" y2="23.088" transform="translate(-11188.854 -8132.158)" fill="none" stroke="#6a79a2" stroke-linecap="round" stroke-miterlimit="10" stroke-width="0.958"/>
      <line id="Línea_415" data-name="Línea 415" x2="23.088" y2="23.088" transform="translate(-11192.041 -8128.97)" fill="none" stroke="#6a79a2" stroke-linecap="round" stroke-miterlimit="10" stroke-width="0.958"/>
      <line id="Línea_416" data-name="Línea 416" x2="23.088" y2="23.088" transform="translate(-11195.229 -8125.782)" fill="none" stroke="#6a79a2" stroke-linecap="round" stroke-miterlimit="10" stroke-width="0.958"/>
      <line id="Línea_417" data-name="Línea 417" x2="23.088" y2="23.088" transform="translate(-11198.416 -8122.594)" fill="none" stroke="#6a79a2" stroke-linecap="round" stroke-miterlimit="10" stroke-width="0.958"/>
      <line id="Línea_418" data-name="Línea 418" x2="23.088" y2="23.088" transform="translate(-11201.604 -8119.407)" fill="none" stroke="#6a79a2" stroke-linecap="round" stroke-miterlimit="10" stroke-width="0.958"/>
      <line id="Línea_419" data-name="Línea 419" x2="23.088" y2="23.088" transform="translate(-11204.792 -8116.219)" fill="none" stroke="#6a79a2" stroke-linecap="round" stroke-miterlimit="10" stroke-width="0.958"/>
      <line id="Línea_420" data-name="Línea 420" x2="5.772" y2="5.772" transform="translate(-11192.656 -8093.723)" fill="none" stroke="#6a79a2" stroke-linecap="round" stroke-miterlimit="10" stroke-width="2.873"/>
      <g id="Grupo_128101" data-name="Grupo 128101" transform="translate(-11347.563 -8143.312)" opacity="0.4">
        <g id="Grupo_128100" data-name="Grupo 128100" transform="translate(0 0)">
          <g id="Grupo_128099" data-name="Grupo 128099" clip-path="url(#clip-path-3)">
            <path id="Trazado_190681" data-name="Trazado 190681" d="M89.213,66.715l5.249,5.249,4.054,4.054,4.054,4.054,4.053,4.053,4.054,4.054,4.054,4.054,4.054,4.054a5.138,5.138,0,0,1,.654.8,5.072,5.072,0,0,1,.747,1.833,5.127,5.127,0,0,1,0,1.95,5.072,5.072,0,0,1-.747,1.833,5.138,5.138,0,0,1-.654.8L115.9,106.39l-2.886,2.886-2.886,2.886-2.886,2.886-2.886,2.886-2.886,2.886-2.886,2.886L95.7,126.591a5.1,5.1,0,0,1-7.218,0l-4.054-4.053-4.054-4.054-4.053-4.054-4.054-4.053-4.054-4.054-4.053-4.054L60.1,98.216l-4.054-4.054a5.135,5.135,0,0,1-.654-.8,5.088,5.088,0,0,1-.748-1.833,5.155,5.155,0,0,1,0-1.949,5.093,5.093,0,0,1,1.4-2.634l2.886-2.886,2.886-2.886,2.887-2.886L67.594,75.4l2.886-2.886,2.886-2.886,2.886-2.886Z" transform="translate(-53.992 -66.151)" fill="#fff"/>
            <path id="Trazado_190682" data-name="Trazado 190682" d="M89.213,66.715l5.249,5.249,4.054,4.054,4.054,4.054,4.053,4.053,4.054,4.054,4.054,4.054,4.054,4.054a5.138,5.138,0,0,1,.654.8,5.072,5.072,0,0,1,.747,1.833,5.127,5.127,0,0,1,0,1.95,5.072,5.072,0,0,1-.747,1.833,5.138,5.138,0,0,1-.654.8L115.9,106.39l-2.886,2.886-2.886,2.886-2.886,2.886-2.886,2.886-2.886,2.886-2.886,2.886L95.7,126.591a5.1,5.1,0,0,1-7.218,0l-4.054-4.053-4.054-4.054-4.053-4.054-4.054-4.053-4.054-4.054-4.053-4.054L60.1,98.216l-4.054-4.054a5.135,5.135,0,0,1-.654-.8,5.088,5.088,0,0,1-.748-1.833,5.155,5.155,0,0,1,0-1.949,5.093,5.093,0,0,1,1.4-2.634l2.886-2.886,2.886-2.886,2.887-2.886L67.594,75.4l2.886-2.886,2.886-2.886,2.886-2.886Z" transform="translate(-53.992 -66.151)" fill="none" stroke="#6a79a2" stroke-linecap="round" stroke-miterlimit="10" stroke-width="1.915" stroke-dasharray="8.962 8.962"/>
            <path id="Trazado_190683" data-name="Trazado 190683" d="M104.393,66.715,101.507,69.6a5.1,5.1,0,0,1-7.218,0l-2.858-2.858Z" transform="translate(-69.171 -66.151)" fill="#fff"/>
            <path id="Trazado_190684" data-name="Trazado 190684" d="M104.393,66.715,101.507,69.6a5.1,5.1,0,0,1-7.218,0l-2.858-2.858Z" transform="translate(-69.171 -66.151)" fill="none" stroke="#6a79a2" stroke-linecap="round" stroke-linejoin="round" stroke-width="1.915"/>
            <line id="Línea_421" data-name="Línea 421" y1="11.544" x2="11.544" transform="translate(9.131 16.323)" fill="none" stroke="#6a79a2" stroke-linecap="round" stroke-miterlimit="10" stroke-width="0.958"/>
            <line id="Línea_422" data-name="Línea 422" y1="23.088" x2="23.088" transform="translate(12.319 7.966)" fill="none" stroke="#6a79a2" stroke-linecap="round" stroke-miterlimit="10" stroke-width="0.958"/>
            <line id="Línea_423" data-name="Línea 423" y1="23.088" x2="23.088" transform="translate(15.506 11.154)" fill="none" stroke="#6a79a2" stroke-linecap="round" stroke-miterlimit="10" stroke-width="0.958"/>
            <line id="Línea_424" data-name="Línea 424" y1="23.088" x2="23.088" transform="translate(18.694 14.341)" fill="none" stroke="#6a79a2" stroke-linecap="round" stroke-miterlimit="10" stroke-width="0.958"/>
            <line id="Línea_425" data-name="Línea 425" y1="23.088" x2="23.088" transform="translate(21.882 17.529)" fill="none" stroke="#6a79a2" stroke-linecap="round" stroke-miterlimit="10" stroke-width="0.958"/>
            <line id="Línea_426" data-name="Línea 426" y1="23.088" x2="23.088" transform="translate(25.069 20.717)" fill="none" stroke="#6a79a2" stroke-linecap="round" stroke-miterlimit="10" stroke-width="0.958"/>
            <line id="Línea_427" data-name="Línea 427" y1="23.088" x2="23.088" transform="translate(28.257 23.904)" fill="none" stroke="#6a79a2" stroke-linecap="round" stroke-miterlimit="10" stroke-width="0.958"/>
            <line id="Línea_428" data-name="Línea 428" y1="23.088" x2="23.088" transform="translate(31.445 27.092)" fill="none" stroke="#6a79a2" stroke-linecap="round" stroke-miterlimit="10" stroke-width="0.958"/>
            <line id="Línea_429" data-name="Línea 429" y1="5.772" x2="5.772" transform="translate(53.941 32.272)" fill="none" stroke="#6a79a2" stroke-linecap="round" stroke-miterlimit="10" stroke-width="2.873"/>
          </g>
        </g>
      </g>
      <path id="Trazado_190695" data-name="Trazado 190695" d="M0,0H64.089" transform="translate(-11282.502 -8051.447)" fill="none" stroke="#ff5151" stroke-linecap="round" stroke-width="4.789"/>
      <path id="Trazado_190685" data-name="Trazado 190685" d="M232.489,173.215l5.863,5.863-5.863,5.863" transform="translate(-11454.898 -8230.525)" fill="none" stroke="#ff5151" stroke-linecap="round" stroke-linejoin="round" stroke-width="4.789"/>
      <rect id="Rectángulo_41112" data-name="Rectángulo 41112" width="256.02" height="168.16" transform="translate(-11379.098 -8182)" fill="none"/>
    </g>
  </g>
</svg>
