<svg xmlns="http://www.w3.org/2000/svg" xmlns:xlink="http://www.w3.org/1999/xlink" width="735" height="606.768" viewBox="0 0 735 606.768">
  <defs>
    <clipPath id="clip-path">
      <rect id="Rectángulo_41075" data-name="Rectángulo 41075" width="59.05" height="104.012" fill="none"/>
    </clipPath>
  </defs>
  <g id="Grupo_128149" data-name="Grupo 128149" transform="translate(-180 -2052.301)">
    <g id="Grupo_127906" data-name="Grupo 127906" transform="translate(370 2140.939)">
      <rect id="Rectángulo_41005" data-name="Rectángulo 41005" width="183.546" height="418.701" transform="translate(8.047 8.527)" fill="#592fe6"/>
      <rect id="Rectángulo_41006" data-name="Rectángulo 41006" width="199.639" height="8.528" transform="translate(0 0)" fill="#271172"/>
      <rect id="Rectángulo_41007" data-name="Rectángulo 41007" width="74.761" height="8.528" transform="translate(199.638 0)" fill="#592fe6"/>
      <rect id="Rectángulo_41008" data-name="Rectángulo 41008" width="73.736" height="418.701" transform="translate(191.592 8.527)" fill="#271172"/>
      <rect id="Rectángulo_41009" data-name="Rectángulo 41009" width="147.371" height="73.239" transform="translate(26.134 334.703)" fill="none" stroke="#271172" stroke-miterlimit="10" stroke-width="0.5"/>
      <rect id="Rectángulo_41012" data-name="Rectángulo 41012" width="147.371" height="73.239" transform="translate(26.134 242.171)" fill="none" stroke="#271172" stroke-miterlimit="10" stroke-width="0.5"/>
      <rect id="Rectángulo_41015" data-name="Rectángulo 41015" width="147.371" height="73.239" transform="translate(26.134 57.649)" fill="none" stroke="#271172" stroke-miterlimit="10" stroke-width="0.5"/>
      <rect id="Rectángulo_41018" data-name="Rectángulo 41018" width="147.371" height="73.239" transform="translate(26.134 151.313)" fill="none" stroke="#271172" stroke-miterlimit="10" stroke-width="0.5"/>
      <rect id="Rectángulo_41067" data-name="Rectángulo 41067" width="22.82" height="90.9" transform="translate(8.047 427.229)" fill="#592fe6"/>
      <rect id="Rectángulo_41068" data-name="Rectángulo 41068" width="22.818" height="90.9" transform="translate(173.506 427.229)" fill="#592fe6"/>
      <rect id="Rectángulo_41069" data-name="Rectángulo 41069" width="22.818" height="90.9" transform="translate(123.236 427.229)" fill="#271172"/>
      <rect id="Rectángulo_41070" data-name="Rectángulo 41070" width="22.82" height="90.9" transform="translate(242.652 427.229)" fill="#271172"/>
    </g>
    <g id="Grupo_127907" data-name="Grupo 127907" transform="translate(183.406 2052.301)">
      <path id="Trazado_190499" data-name="Trazado 190499" d="M179.425,417.257c-3.961,1.279-116.889-.159-121.149-2.947-1.639-1.032-2.389-17.5-2.722-37.422l0-.623c-.078-4.105-.133-8.335-.139-12.62,0-.589,0-1.179-.023-1.768l5.467-58.586,75.543.74-7.443,58.037-.086,2.3-.453,12.012-.044,1.237s42.978,19.884,47.345,23.444c4.329,3.545,7.671,14.937,3.708,16.2" transform="translate(-3.23 187.845)" fill="#ad6359"/>
      <path id="Trazado_190500" data-name="Trazado 190500" d="M179.425,394.85c-3.961,1.279-116.889-.159-121.149-2.947-1.639-1.032-2.389-17.5-2.722-37.422l0-.623c-.078-4.105-.133-8.335-.139-12.62,0-.589,0-1.179-.023-1.768l73.567.191-.086,2.3-.453,12.012-.044,1.237s42.978,19.884,47.345,23.444c4.329,3.545,7.671,14.937,3.708,16.2" transform="translate(-3.23 210.256)" fill="#ebebeb"/>
      <path id="Trazado_190501" data-name="Trazado 190501" d="M179.375,389.345c-2.039.658-32.719.594-62.708,0-6.029-.12-12.024-.256-17.742-.41-21.387-.583-39.059-1.461-40.7-2.531-1.624-1.019-2.371-17.033-2.7-36.588,0-.277-.018-.552-.018-.829,0-.207,0-.432-.018-.64h.087l72.779.121-.034,1.244s42.984,19.874,47.339,23.432c4.337,3.558,7.674,14.942,3.718,16.2" transform="translate(-3.168 215.751)" fill="#ff5151"/>
      <path id="Trazado_190502" data-name="Trazado 190502" d="M175.15,371.446c-19.031-.709-95.853-1.778-114.717-1.033-.154.006-.155.11,0,.12,18.846,1.116,95.675,1.561,114.715,1.226.4-.008.4-.3,0-.313" transform="translate(-0.176 229.264)" fill="#263238"/>
      <path id="Trazado_190503" data-name="Trazado 190503" d="M114.1,348.854c-7.473-1.493-16.649-.46-22.441,4.8-.225.2.068.52.313.447a105.406,105.406,0,0,1,22.086-4.3.479.479,0,0,0,.042-.946" transform="translate(30.168 215.679)" fill="#263238"/>
      <path id="Trazado_190504" data-name="Trazado 190504" d="M117.417,350.909c-7.473-1.493-16.65-.46-22.441,4.8-.225.2.07.52.313.445a105.419,105.419,0,0,1,22.086-4.3.479.479,0,0,0,.042-.946" transform="translate(31.26 216.956)" fill="#263238"/>
      <path id="Trazado_190505" data-name="Trazado 190505" d="M120.731,352.964c-7.473-1.493-16.65-.46-22.441,4.8-.225.2.068.518.313.445a105.421,105.421,0,0,1,22.086-4.3.479.479,0,0,0,.042-.946" transform="translate(32.351 218.228)" fill="#263238"/>
      <path id="Trazado_190506" data-name="Trazado 190506" d="M116.666,389.342c-6.03-.12-12.025-.256-17.742-.41-21.387-.583-39.059-1.461-40.7-2.531-1.623-1.019-2.369-17.033-2.7-36.588,0-.277-.018-.552-.018-.829,0-.207,0-.432-.016-.64h.086c9.969,6.994,45.11,30.378,61.094,41" transform="translate(14.685 215.751)" fill="#263238"/>
      <path id="Trazado_190507" data-name="Trazado 190507" d="M148.39,497.685,67.06,497.7s16.334-189.96,15.695-193.277c-.813-4.249-5.621-23.476-12.017-48.592-2.006-7.86-4.168-16.289-6.416-25.031-6.068-23.63-12.759-49.456-18.587-71.929-8.748-33.667-15.577-51.017-15.577-51.017l68.926-.016S155.745,270.071,158,303.6c1.971,29.238-9.612,194.088-9.612,194.088" transform="translate(1.131 66.79)" fill="#1b2027"/>
      <path id="Trazado_190508" data-name="Trazado 190508" d="M128.893,340.232c-12.42-.256-8.853-.358-21.275-.474-6.081-.058-46.029-.4-51.708.546a.132.132,0,0,0,0,.253c5.681.939,45.629.583,51.708.523,12.422-.123,8.855-.223,21.275-.484a.182.182,0,0,0,0-.363" transform="translate(13.271 210.367)" fill="#263238"/>
      <path id="Trazado_190509" data-name="Trazado 190509" d="M92.672,286.2c-2.67-11.757-6.656-23.277-10.127-34.816q-10.583-35.17-21.291-70.3c-3.563-11.713-20.1-55.53-21.732-61.353-.664-2.369-1.027-1.067-.177,1.94,1.717,6.066,29.974,92.939,37.117,116.739q5.373,17.9,10.775,35.788a146.685,146.685,0,0,1,4.4,17.313,79.837,79.837,0,0,1,.722,18.522C91.582,322.478,90.144,334.9,89,347.317q-1.725,18.662-3.446,37.322-3.43,37.138-6.8,74.28c-.282,3.138-.555,6.277-.8,9.42-.081,1.051,1.508.97,1.619-.041,2.672-24.482,4.72-49.043,7.015-73.563q3.423-36.6,6.839-73.2c.57-6.126,1.221-12.262,1.224-18.42A75.989,75.989,0,0,0,92.672,286.2" transform="translate(10.7 73.399)" fill="#263238"/>
      <path id="Trazado_190510" data-name="Trazado 190510" d="M91.259,107.842c-4.777,37.022-13.883,97.632-20.522,147.989C55.176,194.82,30.157,107.855,30.157,107.855Z" transform="translate(7.986 66.791)" fill="#263238"/>
      <path id="Trazado_190511" data-name="Trazado 190511" d="M127.573,417.768c-3.956,1.294-116.889.267-121.16-2.505-1.64-1.027-2.45-17.491-2.858-37.412,0-.207,0-.416-.006-.624-.092-4.105-.162-8.333-.186-12.618,0-.589-.006-1.179-.028-1.768-.27-28.752,1.8-58.586,1.8-58.586l73.817.465L76.9,362.763l-.078,2.3-.41,12.016-.04,1.236s43.052,19.727,47.431,23.272c4.343,3.529,7.726,14.908,3.768,16.184" transform="translate(2.05 188.444)" fill="#ad6359"/>
      <path id="Trazado_190512" data-name="Trazado 190512" d="M127.564,395.39c-3.956,1.294-116.889.267-121.16-2.505-1.64-1.027-2.45-17.491-2.858-37.412,0-.207,0-.416-.006-.623-.092-4.105-.162-8.333-.186-12.618,0-.589-.006-1.179-.028-1.768l73.567-.078-.078,2.3-.41,12.016-.04,1.236s43.052,19.727,47.431,23.272c4.343,3.529,7.726,14.908,3.768,16.184" transform="translate(2.06 210.82)" fill="#ebebeb"/>
      <path id="Trazado_190513" data-name="Trazado 190513" d="M127.482,389.915c-3.956,1.294-116.889.267-121.16-2.505C4.681,386.384,3.872,369.92,3.463,350c0-.207,0-.416-.006-.624l72.866-.151-.04,1.236s43.052,19.727,47.431,23.272c4.343,3.529,7.726,14.908,3.768,16.184" transform="translate(2.141 216.298)" fill="#ff5151"/>
      <path id="Trazado_190514" data-name="Trazado 190514" d="M123.2,372.008c-19.032-.64-95.858-1.428-114.72-.615-.154.008-.155.112,0,.12,18.851,1.048,95.68,1.213,114.72.808.4-.01.4-.3,0-.313" transform="translate(5.182 229.811)" fill="#263238"/>
      <path id="Trazado_190515" data-name="Trazado 190515" d="M62.068,349.627c-7.478-1.466-16.65-.4-22.423,4.886-.225.206.07.52.314.445a105.328,105.328,0,0,1,22.07-4.385.479.479,0,0,0,.039-.946" transform="translate(13.033 216.175)" fill="#263238"/>
      <path id="Trazado_190516" data-name="Trazado 190516" d="M65.389,351.67c-7.478-1.467-16.652-.4-22.423,4.886-.225.2.071.52.311.445a105.387,105.387,0,0,1,22.072-4.385.479.479,0,0,0,.04-.946" transform="translate(14.128 217.441)" fill="#263238"/>
      <path id="Trazado_190517" data-name="Trazado 190517" d="M68.71,353.713c-7.478-1.465-16.653-.4-22.423,4.886-.225.206.07.52.314.445a105.32,105.32,0,0,1,22.069-4.385.479.479,0,0,0,.04-.946" transform="translate(15.222 218.708)" fill="#263238"/>
      <path id="Trazado_190518" data-name="Trazado 190518" d="M117.295,0a266.685,266.685,0,0,1-9.125,50.3c-.6,2.16-1.26,4.285-1.968,6.324,0,0-6.1,2.852-18.1,10.213,0,0-.789,26.535-1.576,56.127-.874,33.082-1.781,69.983-1.59,77.808.7,29.281-3.619,190.287-3.619,190.287L0,391.4s14.66-179.8,14.555-190.53c-.16-17.241,3.917-93.443,7.067-149.018C23.549,17.614,25.131.021,25.131.021Z" transform="matrix(1, -0.017, 0.017, 1, -3.407, 175.686)" fill="#1b2027"/>
      <path id="Trazado_190519" data-name="Trazado 190519" d="M76.441,340.555c-12.422-.2-8.855-.321-21.277-.384-6.081-.032-46.032-.2-51.706.766a.132.132,0,0,0,0,.253c5.684.915,45.63.389,51.709.3,12.422-.177,8.855-.261,21.274-.575a.181.181,0,0,0,0-.363" transform="translate(2.084 210.669)" fill="#263238"/>
      <path id="Trazado_190520" data-name="Trazado 190520" d="M27.577,115.24c-1.487,45.367-3.062,81.934-5.082,127.281-2.026,45.5-4.758,90.988-8.555,136.378-2.121,25.359-4.118,61.031-6.85,86.332-.018.17.241.232.264.058,5.912-45,9.2-100.649,12.1-145.936s4.865-90.638,6.4-135.983c.868-25.651,1.529-42.507,2.29-68.159.011-.366-.554-.334-.565.029" transform="translate(4.392 71.195)" fill="#263238"/>
      <path id="Trazado_190521" data-name="Trazado 190521" d="M21.749,143.527c2-.513,4.141-.677,6.181-1,1.649-.261,3.291-.552,4.921-.912a21.361,21.361,0,0,0,8.683-3.655c4.056-3.177,8.707-19.23,9.277-20.255.975-1.755,1.268-.212,1.268-.049.008,1.866-4.267,15.925-5.917,18.55-3.017,4.8-8.409,6.738-13.8,7.42-1.546.194-3.106.3-4.661.393a33.456,33.456,0,0,1-5.891.044.274.274,0,0,1-.06-.538" transform="translate(11.52 72.386)" fill="#263238"/>
      <path id="Trazado_190522" data-name="Trazado 190522" d="M74.233,143.058a145.328,145.328,0,0,0-22.9,10.665.259.259,0,0,0,.212.473c7.715-3.313,15.581-6.484,23.105-10.218a.505.505,0,0,0-.416-.92" transform="translate(16.802 88.58)" fill="#263238"/>
      <path id="Trazado_190523" data-name="Trazado 190523" d="M72.873,110.5c-.021-.267-.489-.325-.487-.037a256.921,256.921,0,0,1-1.294,25.777c-.358,3.974-3.554,25.936-10.446,24.334-1.153-.269-1.742-1.4-1.922-3.143-.219-2.091.568-4.656.913-6.735.766-4.6,1.38-9.209,1.775-13.854a126.083,126.083,0,0,0-.28-25.981.223.223,0,0,0-.445.026c.011,12-.3,23.978-2.1,35.864-.863,5.712-3.739,14.312,2.235,15.191,6.086.9,10.021-13.51,10.764-17.45,2.073-11,2.155-22.867,1.286-33.992" transform="translate(19.331 68.297)" fill="#263238"/>
      <path id="Trazado_190524" data-name="Trazado 190524" d="M60.266,141.883a36.838,36.838,0,0,0-1.55,4.552,10.359,10.359,0,0,0-.644,3.744c.028.241.348.266.478.1a13.156,13.156,0,0,0,1.6-3.64c.523-1.407,1.078-2.806,1.561-4.227a.77.77,0,0,0-1.446-.528" transform="translate(20.533 87.578)" fill="#263238"/>
      <path id="Trazado_190525" data-name="Trazado 190525" d="M51.62,51c1.81,21.575,15.949,70.015,25.254,78.753,7.114,6.682,43.292,11.846,58.341,12.053,6.45.089,7.65-38.42,2.814-39.083-14.953-2.052-39.116-6.6-43.324-8.131C91.753,93.518,84.015,77.878,66.97,48.467,57.518,32.156,50.6,38.853,51.62,51" transform="translate(10.022 24.023)" fill="#ad6359"/>
      <path id="Trazado_190526" data-name="Trazado 190526" d="M128.31,101.054c-2.455.588-2.163,1.88,1.912,3.757,4.12,1.908,21.8,5.844,19.9,11.912-1.9,6.09-26.836.109-33.385-3.537s-15.866-11.838-15.866-11.838c5.086.189,17.462-.534,27.442-.295" transform="translate(24.939 62.556)" fill="#ad6359"/>
      <path id="Trazado_190527" data-name="Trazado 190527" d="M106.342,78.33c14.3,1.051,32.172,1.488,45.476,10.7a8.01,8.01,0,0,1,3.206,4.152c6.037,4.021,5.951,8.079,5.951,8.079,4.476,5.467,3.818,9.6,3.818,9.6s7.034,4.8,4.842,9.532c-2.445,5.316-11.847-2.461-19.635-3.577-17.84-2.555-43.914-1.2-49.133-1.422Z" transform="translate(24.94 48.513)" fill="#ad6359"/>
      <path id="Trazado_190528" data-name="Trazado 190528" d="M120.894,92.419a115.924,115.924,0,0,1,15.492,3.122c5.588,1.713,10.676,4.3,15.923,6.8a.141.141,0,0,0,.139-.245c-8.78-6.034-20.891-9.645-31.519-9.917-.257-.006-.3.2-.036.238" transform="translate(37.233 57.091)" fill="#263238"/>
      <path id="Trazado_190529" data-name="Trazado 190529" d="M120.9,85.634c5.048,1.116,13.907,3.135,27.723,11.4.045.028.105-.04.06-.076a54.985,54.985,0,0,0-27.73-11.562c-.322-.044-.389.165-.053.24" transform="translate(37.208 52.884)" fill="#263238"/>
      <path id="Trazado_190530" data-name="Trazado 190530" d="M120.96,82.013c8.511,2.223,13.6,4.7,21.712,9.094.047.024.1-.049.053-.081-8.7-5.958-12.532-7.133-21.73-9.316-.316-.076-.368.215-.036.3" transform="translate(37.243 50.599)" fill="#263238"/>
      <path id="Trazado_190531" data-name="Trazado 190531" d="M129.588,146.046l3.99-46.134s-33.553-5.595-38.282-6.8c-2-.508-20.448-33.761-29.228-47.963C60.3,35.808,49.36,33.28,51.025,54.429c.976,12.382,14.153,70.088,24.256,77.6,8.035,5.972,54.307,14.022,54.307,14.022" transform="translate(10.864 23.664)" fill="#ff5151"/>
      <path id="Trazado_190532" data-name="Trazado 190532" d="M94.305,118.261c-.233-3.338,1.095-17.1,1.464-20.527.36-3.354,2.311-17.11,2.7-20.628.023-.191.3-.217.283-.023-.329,3.487-1.2,17.345-1.537,20.77S95.39,115,94.485,118.27a.09.09,0,0,1-.18-.01" transform="translate(33.266 47.657)" fill="#263238"/>
      <g id="Grupo_127903" data-name="Grupo 127903" transform="translate(64.534 61.889)" opacity="0.1">
        <g id="Grupo_127902" data-name="Grupo 127902" transform="translate(0 0)">
          <g id="Grupo_127901" data-name="Grupo 127901" clip-path="url(#clip-path)">
            <path id="Trazado_190533" data-name="Trazado 190533" d="M109.905,142.231c-13.635-2.882-30.12-6.866-34.622-10.218C65.178,124.515,52,66.8,51.025,54.429c-1.069-13.587,3.061-17.408,7.676-15.9Z" transform="translate(-50.855 -38.219)" fill="#020100"/>
          </g>
        </g>
      </g>
      <path id="Trazado_190534" data-name="Trazado 190534" d="M16.147,159.876c.25.259,105.4-.049,106.384-1.066.36-.377.1-8.194.1-8.194s6.878-7.878,3.1-20.411C117.737,103.7,98.348,48.041,92.572,42.553c-5.053-4.8-18.618-7.062-26.993-2.523-17.574,9.522-45.085,78.217-51.96,94.482-3.391,8.024,3.053,13.114,4.08,16.877,0,0-1.867,8.155-1.552,8.487" transform="translate(-1.16 23.267)" fill="#ff5151"/>
      <path id="Trazado_190535" data-name="Trazado 190535" d="M108.985,108.168c-3.028-.121-6.068.066-9.1.057-2.892-.01-5.783-.147-8.673-.136-5.932.024-11.86.108-17.789.134-11.863.05-23.725,0-35.587-.016q-4.967-.007-9.935-.039c-3.454-.021-6.908.177-10.359.177a.131.131,0,0,0-.011.261c3.028.13,6.052.453,9.086.534q4.341.119,8.685.217c5.928.134,11.857.2,17.787.236,11.86.075,23.724.031,35.584-.206,3.32-.066,6.625-.246,9.941-.432,3.444-.191,6.913-.109,10.349-.41.233-.021.269-.368.018-.377" transform="translate(10.786 66.944)" fill="#263238"/>
      <path id="Trazado_190536" data-name="Trazado 190536" d="M61.977,67.776C56.087,68.008,47,56.564,44.549,48.844c-.167-.53,1.551-5.425,3.355-11.472,1.08-3.674,2.2-7.791,2.946-11.621L73.73,36.278S69.8,43.844,68.538,50.53a8.722,8.722,0,0,0-.141,1.6c-.006.074,0,.165-.016.267-.1,3.08-.713,15.148-6.4,15.376" transform="translate(14.273 15.947)" fill="#ad6359"/>
      <path id="Trazado_190537" data-name="Trazado 190537" d="M65.417,51.863c-.008.068,0,.155-.015.256a15.459,15.459,0,0,1-2.494-.335C49.069,48.757,49.118,31.1,49.417,26.194l5.716,2.627,15.62,7.187s-3.933,7.567-5.185,14.254a8.273,8.273,0,0,0-.152,1.6" transform="translate(16.355 16.221)" fill="#263238"/>
      <path id="Trazado_190538" data-name="Trazado 190538" d="M50.971,14.886C47.1,23.092,48.013,48.559,53.313,54.98,61,64.292,75.382,67.172,83.747,57.524,91.855,48.171,90.076,15,83.988,8.98c-8.97-8.869-27.3-6.214-33.017,5.906" transform="translate(14.708 2.312)" fill="#ad6359"/>
      <path id="Trazado_190539" data-name="Trazado 190539" d="M64.364,22.773c-.016-.065-.131.086-.126.155.107,1.715-.058,3.7-1.593,4.314-.047.018-.04.1.018.094,1.885-.324,2.079-2.957,1.7-4.563" transform="translate(22.279 14.092)" fill="#263238"/>
      <path id="Trazado_190540" data-name="Trazado 190540" d="M63.526,21.691c-2.766-.125-2.811,5.417-.248,5.532,2.521.113,2.567-5.428.248-5.532" transform="translate(21.712 13.431)" fill="#263238"/>
      <path id="Trazado_190541" data-name="Trazado 190541" d="M69.759,22.623c.013-.065.133.083.131.152-.068,1.717.143,3.692,1.691,4.275.049.018.042.105-.015.1-1.893-.282-2.147-2.908-1.807-4.523" transform="translate(24.769 13.998)" fill="#263238"/>
      <path id="Trazado_190542" data-name="Trazado 190542" d="M71.289,21.52c2.763-.188,2.934,5.352.376,5.524-2.52.172-2.691-5.367-.376-5.524" transform="translate(24.632 13.323)" fill="#263238"/>
      <path id="Trazado_190543" data-name="Trazado 190543" d="M61.924,20.941a22.05,22.05,0,0,0,2.173-.675,3.689,3.689,0,0,0,2.084-1.113,1.173,1.173,0,0,0-.138-1.425,2.906,2.906,0,0,0-2.915-.408A4.271,4.271,0,0,0,60.6,19.076a1.25,1.25,0,0,0,1.321,1.866" transform="translate(21.204 10.6)" fill="#263238"/>
      <path id="Trazado_190544" data-name="Trazado 190544" d="M73.735,20.075a21.331,21.331,0,0,1-2.2-.589,3.665,3.665,0,0,1-2.126-1.028,1.171,1.171,0,0,1,.078-1.428,2.909,2.909,0,0,1,2.9-.523,4.263,4.263,0,0,1,2.594,1.652,1.25,1.25,0,0,1-1.245,1.917" transform="translate(24.293 10.126)" fill="#263238"/>
      <path id="Trazado_190545" data-name="Trazado 190545" d="M62.3,32.2c.408.4.813.962,1.436,1.019A4.541,4.541,0,0,0,65.58,32.8a.061.061,0,0,1,.074.089,2.314,2.314,0,0,1-2.186.913,1.828,1.828,0,0,1-1.339-1.529c-.024-.1.107-.134.167-.076" transform="translate(21.989 19.925)" fill="#263238"/>
      <path id="Trazado_190546" data-name="Trazado 190546" d="M63.384,36.127a5.839,5.839,0,0,0,3.88,2.631,7.36,7.36,0,0,0,2.1.113,2.007,2.007,0,0,0,.4-.044c.126-.015.24-.028.377-.055a.425.425,0,0,0,.347-.381V38.38a.79.79,0,0,0-.015-.175v-.013l0-.151c.047-1.321-.066-3.333-.066-3.333.481.246,2.934,1.373,2.9.682-.3-5.718-.625-12.077-2.126-17.7a.159.159,0,0,0-.314.04c.066,5.507,1.1,10.965,1.257,16.5a10.267,10.267,0,0,0-2.753-.86c-.188.053.287,3.883.219,4.474a.212.212,0,0,1-.013.063c-2.222.266-3.89-.418-6.034-1.925-.126-.1-.264.015-.162.152" transform="translate(21.935 10.878)" fill="#263238"/>
      <path id="Trazado_190547" data-name="Trazado 190547" d="M58.292,31.326C60.6,26.7,58.923,18.2,61.641,16.357c5.885-4,15.384,6.5,22.746,7.545,7.135,1.015,10.147-3.25,9.645-9.221S89.139,4.148,81.288,1.862C73.167-.5,65.156,1.808,60.69,3.881c0,0,2.2-2.648,1.644-3.639S57.906,1.557,56.676,2.6A10.88,10.88,0,0,0,54.46,5.8a11.618,11.618,0,0,0-3.214-.782c-1.822-.2-4.3.91-4.49,1.32s2.366,1.095,4.175,1.435c0,0-4.01,4.048-4.463,7.919s3.061,23.026,4.476,23.421c1.82.507,6.413-5.907,7.349-7.788" transform="translate(13.491 -0.001)" fill="#263238"/>
      <path id="Trazado_190548" data-name="Trazado 190548" d="M52.083,4.573c.07-.029.144.071.074.117a12.326,12.326,0,0,0-4.605,4.934,15.31,15.31,0,0,0-1.159,7.945c.439,5.224,2.29,10.16,3.807,15.135.045.144-.2.223-.254.081C48,27.62,46.068,22.035,45.827,16.479c-.206-4.737,1.59-9.907,6.256-11.906" transform="translate(16.062 2.825)" fill="#263238"/>
      <path id="Trazado_190549" data-name="Trazado 190549" d="M55.883,8.92A17.59,17.59,0,0,1,62.3,10.225c1.95.785,3.5,2.277,5.179,3.5,3.755,2.756,7.972,5.07,12.7,5.42.062,0,.052.094-.008.094-4.358-.045-8.374-1.891-11.92-4.3-1.789-1.216-3.415-2.831-5.341-3.825a22.818,22.818,0,0,0-7.062-1.807.194.194,0,0,1,.034-.387" transform="translate(18.215 5.523)" fill="#263238"/>
      <path id="Trazado_190550" data-name="Trazado 190550" d="M58.128,2.213A34.269,34.269,0,0,1,67.7.434a27.009,27.009,0,0,1,9.279.936c5.172,1.584,9.579,5.614,10.079,11.216a11.662,11.662,0,0,1-2.2,8.1.151.151,0,0,1-.246-.175,12.044,12.044,0,0,0-.8-14.4C79.985,1.758,73.932.639,68.4.767A49.39,49.39,0,0,0,58.14,2.251a.02.02,0,0,1-.011-.037" transform="translate(18.641 0.234)" fill="#263238"/>
      <path id="Trazado_190551" data-name="Trazado 190551" d="M63.58,33.362a7.223,7.223,0,1,1,1.8.028,7.234,7.234,0,0,1-1.8-.028m1.88-13.35a6.258,6.258,0,1,0,5.347,5.514,6.227,6.227,0,0,0-5.347-5.514" transform="translate(19.542 11.755)" fill="#ffc727"/>
      <path id="Trazado_190552" data-name="Trazado 190552" d="M73.25,33.555c-2.737-.385-4.824-3.538-4.738-7.307a8.625,8.625,0,0,1,1.642-5.014,4.5,4.5,0,0,1,7.7.178A8.629,8.629,0,0,1,79.265,26.5c-.092,3.98-2.578,7.166-5.541,7.1a4.54,4.54,0,0,1-.473-.039M74.4,20.146a3.042,3.042,0,0,0-.366-.029,3.85,3.85,0,0,0-3.111,1.7,7.685,7.685,0,0,0-1.444,4.45c-.079,3.451,1.827,6.3,4.267,6.358s4.474-2.7,4.555-6.154a7.664,7.664,0,0,0-1.239-4.512A3.975,3.975,0,0,0,74.4,20.146" transform="translate(23.656 11.858)" fill="#ffc727"/>
      <path id="Trazado_190553" data-name="Trazado 190553" d="M66.327,24.214l-.6-.755c1.117-.894,3.678-2.073,5.4-.144l-.721.641c-1.538-1.728-3.969.177-4.073.257" transform="translate(23.119 13.796)" fill="#ffc727"/>
      <path id="Trazado_190554" data-name="Trazado 190554" d="M46.525,25.946l-.847-.463c.217-.4,2.172-3.869,4.337-4.17,2.023-.275,14.935,1.236,15.483,1.3l-.113.959c-3.7-.439-13.675-1.521-15.237-1.3-1.43.2-3.1,2.721-3.623,3.676" transform="translate(15.239 13.177)" fill="#ffc727"/>
      <path id="Trazado_190555" data-name="Trazado 190555" d="M55.489,26.409s-4.615-8.749-8.516-7.2-1.135,13.737,2.949,15.871a4.393,4.393,0,0,0,6.134-1.611Z" transform="translate(15.559 11.782)" fill="#ad6359"/>
      <path id="Trazado_190556" data-name="Trazado 190556" d="M46.824,21.284a.06.06,0,0,0-.037.112c2.852,1.593,4.084,4.58,4.831,7.606-.755-1.224-1.895-1.985-3.519-1.109-.084.045-.024.178.062.172a2.7,2.7,0,0,1,2.834,1.305,13.072,13.072,0,0,1,1.113,2.563c.107.287.61.2.547-.12l-.016-.071c.557-3.822-1.749-9.556-5.813-10.458" transform="translate(16.415 13.178)" fill="#263238"/>
      <path id="Trazado_190557" data-name="Trazado 190557" d="M38.523,59.62C42.331,87.8,57.5,137.38,64.865,144.365c6.526,6.184,42.371,7.132,58.287,6.23,5.956-.337,1.038-46.1-5.321-45.61-7.63.586-30.237,1.517-31.6.032C84.738,103.387,67.9,72.56,55.273,53.863c-11.449-16.947-18.192-4.9-16.751,5.757" transform="translate(7.675 28.127)" fill="#ad6359"/>
      <path id="Trazado_190558" data-name="Trazado 190558" d="M100.051,82.717c13.943-.191,17.551,1.9,29.233-4.51,7.664-4.207,13.64-1.119,8.618,6.463-8.215,12.4-26.151,16.425-32.771,16.029Z" transform="translate(24.434 47.266)" fill="#ad6359"/>
      <path id="Trazado_190559" data-name="Trazado 190559" d="M76.553,88.917s16.469-6.622,31.305-8.3c10.262-1.158,32.865-1.189,51.4,23.432,4.4,5.841,6.521,17.28-4.125,10.351-7.562-4.923-10.871-10.328-15.79-12.391,0,0,.975,14.872-5.048,19.05a135.28,135.28,0,0,1-16.516,9.794,28.307,28.307,0,0,1-2.108-2.928s-5.995,3.372-16.2,1.095Z" transform="translate(9.88 49.698)" fill="#ad6359"/>
      <path id="Trazado_190560" data-name="Trazado 190560" d="M105.171,80.759c4.45,3.08,13.774,9.765,19.5,17.884,6.359,9.022,16.177,28.111,9.47,32.736-4.918,3.393-9.306-3.566-9.306-3.566s2.393,8.745-2.719,10.837c-4.659,1.908-7.731-3.681-7.731-3.681s.539,5.556-4.3,6.528c-5.823,1.169-6-10.665-12.922-14.578-1.555-.878,8.011-46.16,8.011-46.16" transform="translate(29.547 50.017)" fill="#ad6359"/>
      <path id="Trazado_190561" data-name="Trazado 190561" d="M107.542,94.977c3.712,3.582,10.05,13.881,10.913,23.832.019.227-.138.363-.2.16a108.306,108.306,0,0,0-10.8-23.933c-.031-.052.044-.1.087-.06" transform="translate(37.068 58.815)" fill="#263238"/>
      <path id="Trazado_190562" data-name="Trazado 190562" d="M102.034,99.106c2.884,3.42,8.945,14.327,9.473,24.441.013.227-.157.351-.211.147a115.994,115.994,0,0,0-9.352-24.533c-.029-.053.052-.1.089-.055" transform="translate(35.348 61.37)" fill="#263238"/>
      <path id="Trazado_190563" data-name="Trazado 190563" d="M101.6,80.967c6.988-.4,14.322.7,21-1.794-6.277,3.558-14.119,2.513-21,1.794" transform="translate(33.732 49.035)" fill="#263238"/>
      <path id="Trazado_190564" data-name="Trazado 190564" d="M126.817,80.952a16.37,16.37,0,0,1-8.024,8.523,67.082,67.082,0,0,0,8.024-8.523" transform="translate(36.041 50.137)" fill="#263238"/>
      <path id="Trazado_190565" data-name="Trazado 190565" d="M116.418,84.237c9.277,5.668,19.267,13.081,23.2,23.627.983,2.86.564,7.447-3.569,6.772-2.944-.58-5.239-2.45-7.426-4.312-4.16-3.726-8.2-7.559-12.971-10.325l.709-.742a93.4,93.4,0,0,1,7.08,14.144c1.376,3.673,2.7,7.595,2.337,11.575a5.582,5.582,0,0,1-1.621,3.537c1.844-2,1.546-4.963,1.078-7.431-1.937-8.315-6.445-15.8-10.845-23.016l1.785,1.015c6.23,3.412,10.838,8.785,16.474,12.838,4.379,2.98,7.481,1.874,5.938-3.762a24.038,24.038,0,0,0-3.814-7.182c-4.924-6.714-11.446-12.119-18.355-16.738" transform="translate(33.315 52.17)" fill="#263238"/>
      <path id="Trazado_190566" data-name="Trazado 190566" d="M118.82,158.274l-1.959-54.108-29.2-.016c-8.817-14.8-26.46-44.385-34.1-53.7-8.958-10.929-17.131-5.423-15.724,8.9,3.221,32.771,20.729,83.16,26.74,88.784,8.613,8.058,54.239,10.137,54.239,10.137" transform="translate(8.21 27.672)" fill="#ff5151"/>
      <path id="Trazado_190567" data-name="Trazado 190567" d="M82.981,126.984c-.742-3.31-1.5-17.306-1.649-20.8-.147-3.417-.279-17.5-.421-21.084-.008-.194.267-.264.279-.065.2,3.545,1.43,17.565,1.613,21.05s.771,17.46.359,20.879a.091.091,0,0,1-.181.016" transform="translate(28.743 52.594)" fill="#263238"/>
      <path id="Trazado_190568" data-name="Trazado 190568" d="M98.4,145.093q-7.054-.765-14.061-1.922c-6.931-1.388-14.309-2.123-20.457-5.946-5.088-5.206-7.119-12.422-9.763-18.984-3.252-8.91-5.852-18.024-8.356-27.149-2.432-9.146-4.635-18.352-6.545-27.618C44.155,81.713,49.029,100,55.187,117.861c2.526,6.393,4.49,13.642,9.167,18.777a21.89,21.89,0,0,0,6.3,2.874c9.012,2.745,18.394,4.267,27.748,5.582" transform="translate(10.541 39.313)" fill="#263238"/>
      <path id="Trazado_190569" data-name="Trazado 190569" d="M41.176,70.214a11.321,11.321,0,0,1-2.165-4.886,40.7,40.7,0,0,1,2.165,4.886" transform="translate(13.868 40.459)" fill="#263238"/>
      <path id="Trazado_190570" data-name="Trazado 190570" d="M56.531,61.967c6.847,9.927,12.412,20.7,19.212,30.651a5.566,5.566,0,0,0,.377.447,37.331,37.331,0,0,0,4.231.217l8.273.058c.015.018,16.636.039,16.594.117l.018,1.37-.083-1.367.032.031c-9.708.319-19.351.852-29.071.364-.449-.018-.751-.444-.994-.75-6.784-9.843-12.327-20.972-18.59-31.139" transform="translate(16.321 38.378)" fill="#263238"/>
      <path id="Trazado_190571" data-name="Trazado 190571" d="M57.723,62.452a11.365,11.365,0,0,1,1.585,5.12,41.149,41.149,0,0,1-1.585-5.12" transform="translate(20.56 38.679)" fill="#263238"/>
    </g>
    <g id="Grupo_127905" data-name="Grupo 127905" transform="translate(640.6 2237.082)">
      <rect id="Rectángulo_41071" data-name="Rectángulo 41071" width="22.82" height="90.9" transform="translate(8.046 331.085)" fill="#592fe6"/>
      <rect id="Rectángulo_41072" data-name="Rectángulo 41072" width="22.818" height="90.9" transform="translate(173.506 331.085)" fill="#592fe6"/>
      <rect id="Rectángulo_41073" data-name="Rectángulo 41073" width="22.818" height="90.9" transform="translate(123.236 331.085)" fill="#271172"/>
      <rect id="Rectángulo_41074" data-name="Rectángulo 41074" width="22.82" height="90.9" transform="translate(242.655 331.085)" fill="#271172"/>
      <rect id="Rectángulo_41021" data-name="Rectángulo 41021" width="183.546" height="326.172" transform="translate(8.048 8.527)" fill="#592fe6"/>
      <rect id="Rectángulo_41022" data-name="Rectángulo 41022" width="199.639" height="8.528" transform="translate(0 0)" fill="#271172"/>
      <rect id="Rectángulo_41023" data-name="Rectángulo 41023" width="74.761" height="8.528" transform="translate(199.64 0)" fill="#592fe6"/>
      <rect id="Rectángulo_41024" data-name="Rectángulo 41024" width="73.736" height="326.172" transform="translate(191.594 8.527)" fill="#271172"/>
      <rect id="Rectángulo_41025" data-name="Rectángulo 41025" width="147.371" height="73.239" transform="translate(26.135 242.171)" fill="none" stroke="#271172" stroke-miterlimit="10" stroke-width="0.5"/>
      <rect id="Rectángulo_41028" data-name="Rectángulo 41028" width="147.371" height="73.239" transform="translate(26.135 57.649)" fill="none" stroke="#271172" stroke-miterlimit="10" stroke-width="0.5"/>
      <rect id="Rectángulo_41031" data-name="Rectángulo 41031" width="147.371" height="73.239" transform="translate(26.135 151.313)" fill="none" stroke="#271172" stroke-miterlimit="10" stroke-width="0.5"/>
    </g>
  </g>
</svg>
