<svg xmlns="http://www.w3.org/2000/svg" xmlns:xlink="http://www.w3.org/1999/xlink" width="234.666" height="173.813" viewBox="0 0 234.666 173.813">
  <defs>
    <clipPath id="clip-path">
      <rect id="Rectángulo_40978" data-name="Rectángulo 40978" width="234.666" height="173.814" fill="none"/>
    </clipPath>
  </defs>
  <g id="Grupo_127821" data-name="Grupo 127821" transform="translate(0 -0.003)">
    <g id="Grupo_127796" data-name="Grupo 127796" transform="translate(0 0.003)">
      <g id="Grupo_127795" data-name="Grupo 127795" transform="translate(0 0)" clip-path="url(#clip-path)">
        <path id="Trazado_189359" data-name="Trazado 189359" d="M12.53,93.594c-10.967,12.7-15.268,25.542-10.766,36.574,9.961,24.359,59.363,31.753,115.2,18.936,55.665,13.373,105.167,6.49,115.43-17.754,4.678-11.009.528-23.9-10.263-36.69,10.967-12.7,15.268-25.542,10.766-36.6-3.773-9.2-13.18-15.992-26.462-20.164-9.206-13.907-26.386-23.247-46.081-23.247a59.434,59.434,0,0,0-23.267,4.659C127.432,7.628,111.711,0,93.928,0c-24.4,0-44.975,14.37-51.238,33.955C22.215,37.064,7.374,44.828,2.268,56.9-2.386,67.89,1.74,80.777,12.53,93.594" transform="translate(0 -0.003)" fill="#fff" fill-rule="evenodd" opacity="0.527"/>
        <path id="Trazado_189360" data-name="Trazado 189360" d="M173.663,602.118h19.1l5,4.616h38.861a2.273,2.273,0,0,1,2.178,2.334v9.819a2.273,2.273,0,0,1-2.178,2.334H195.877a2.273,2.273,0,0,1-2.178-2.334V614.7H173.663a1.9,1.9,0,0,1-1.953-1.815v-8.972a1.89,1.89,0,0,1,1.953-1.8" transform="translate(-155.821 -546.403)" fill="#feb542" fill-rule="evenodd"/>
        <path id="Trazado_189361" data-name="Trazado 189361" d="M152.988,692.54h67.558a1.66,1.66,0,0,1,1.66,1.66v38a1.656,1.656,0,0,1-1.66,1.642H152.988a1.653,1.653,0,0,1-1.642-1.642v-38a1.656,1.656,0,0,1,1.642-1.66" transform="translate(-137.342 -628.458)" fill="#eba73b" fill-rule="evenodd"/>
        <path id="Trazado_189362" data-name="Trazado 189362" d="M1641.238,602.118h19.1l5,4.616H1704.2a2.273,2.273,0,0,1,2.178,2.334v9.819a2.273,2.273,0,0,1-2.178,2.334h-40.746a2.273,2.273,0,0,1-2.178-2.334V614.7h-20.036a1.9,1.9,0,0,1-1.953-1.815v-8.972a1.89,1.89,0,0,1,1.953-1.8" transform="translate(-1487.598 -546.403)" fill="#feb542" fill-rule="evenodd"/>
        <path id="Trazado_189363" data-name="Trazado 189363" d="M1620.563,692.54h67.558a1.66,1.66,0,0,1,1.66,1.66v38a1.656,1.656,0,0,1-1.66,1.642h-67.558a1.653,1.653,0,0,1-1.642-1.642v-38a1.656,1.656,0,0,1,1.642-1.66" transform="translate(-1469.119 -628.458)" fill="#e39e30" fill-rule="evenodd"/>
        <path id="Trazado_189364" data-name="Trazado 189364" d="M536.939,1702.968H545.7a2.732,2.732,0,0,1,0,5.464h-8.766a2.732,2.732,0,1,1,0-5.464" transform="translate(-484.776 -1545.389)" fill="#6767fd" fill-rule="evenodd"/>
        <path id="Trazado_189365" data-name="Trazado 189365" d="M473.566,1478.033h-.275c-1.2,0-2.437,0-3.675.118a14.072,14.072,0,0,0-3.833.845c-3.046,2.064-6.938,11.3-6.329,14.839.747,2.123,6.171,1.887,10.161,2.4v.511h6.82v-.413c4.029-.649,10.161-.236,10.947-2.5.609-3.538-3.282-12.775-6.309-14.839a20.262,20.262,0,0,0-7.508-.963" transform="translate(-416.882 -1341.268)" fill="#592fe6" fill-rule="evenodd"/>
        <path id="Trazado_189366" data-name="Trazado 189366" d="M402.791,1809.686l-.9-2.535a4.481,4.481,0,0,0-1.847-.531c-1.651.1-4.658.1-4.756,1.219-.079,1.572,3.852,2.3,5.11,2.182Z" transform="translate(-358.706 -1639.45)" fill="#12263f" fill-rule="evenodd"/>
        <path id="Trazado_189367" data-name="Trazado 189367" d="M469.136,1805.954l-.943-2.732-2.2.885a2.2,2.2,0,0,0,.865,2.5Z" transform="translate(-422.771 -1636.367)" fill="#ff9866" fill-rule="evenodd"/>
        <path id="Trazado_189368" data-name="Trazado 189368" d="M483.2,1696.411a5.83,5.83,0,0,1-1.454-3.5c5.484-1.926,27.85-14.19,31.446-10.26,4.4,6.034-22.288,11.046-29.992,13.758" transform="translate(-437.166 -1526.254)" fill="#12263f" fill-rule="evenodd"/>
        <path id="Trazado_189369" data-name="Trazado 189369" d="M745.76,1809.686l.9-2.535a4.481,4.481,0,0,1,1.847-.531c1.651.1,4.658.1,4.737,1.219.1,1.572-3.833,2.3-5.09,2.182Z" transform="translate(-676.753 -1639.45)" fill="#12263f" fill-rule="evenodd"/>
        <path id="Trazado_189370" data-name="Trazado 189370" d="M720.909,1805.954l.943-2.732,2.2.885a2.162,2.162,0,0,1-.845,2.5Z" transform="translate(-654.202 -1636.367)" fill="#ff9866" fill-rule="evenodd"/>
        <path id="Trazado_189371" data-name="Trazado 189371" d="M425.819,1696.411a6.077,6.077,0,0,0,1.454-3.5c-5.5-1.926-27.85-14.19-31.446-10.26-4.4,6.034,22.268,11.046,29.992,13.758" transform="translate(-358.758 -1526.254)" fill="#12263f" fill-rule="evenodd"/>
        <path id="Trazado_189372" data-name="Trazado 189372" d="M504.218,1579.137h17.924a1.007,1.007,0,0,1,1,1v12.009a1.011,1.011,0,0,1-1,1.022H504.218a1.028,1.028,0,0,1-1.022-1.022v-12.009a1.024,1.024,0,0,1,1.022-1" transform="translate(-456.634 -1433.017)" fill="#84b2fe" fill-rule="evenodd"/>
        <path id="Trazado_189373" data-name="Trazado 189373" d="M593.941,1636.061H594a1.529,1.529,0,0,0-.039.314,1.422,1.422,0,0,0,1.415,1.415,1.527,1.527,0,0,0,.315-.039v.059a1.749,1.749,0,1,1-1.749-1.749" transform="translate(-537.395 -1484.673)" fill="#fff" fill-rule="evenodd"/>
        <path id="Trazado_189374" data-name="Trazado 189374" d="M587.307,1442.412q.03,2.329.059,4.658a2.856,2.856,0,0,0,4.678,0l-.177-4.933Z" transform="translate(-532.962 -1308.694)" fill="#ff9866" fill-rule="evenodd"/>
        <path id="Trazado_189375" data-name="Trazado 189375" d="M562.583,1368.493l-5.012-.059c.826,5.09.02,10.161,4.953,10.535h.138c4.933-.373,4.127-5.444,4.953-10.535Z" transform="translate(-505.978 -1241.81)" fill="#ffaa81" fill-rule="evenodd"/>
        <path id="Trazado_189376" data-name="Trazado 189376" d="M552.9,1322.864a8.3,8.3,0,0,0,1.533-4.854,1.117,1.117,0,0,0,.216-.649,1.54,1.54,0,0,0-1.179-1.317,5.181,5.181,0,0,0-2.752-1.179,2.609,2.609,0,0,0-2.024-.806,2.741,2.741,0,0,0-1.867.629,9.8,9.8,0,0,0-2.044.295,3.8,3.8,0,0,0-.472-.039c-1.277,0-2.3.688-2.3,1.513a.987.987,0,0,0,.118.472,4.2,4.2,0,0,0-.295.963,1.983,1.983,0,0,0,.216.668,10.331,10.331,0,0,1,.039,1.337c.039.079-.02.786.216,1a9.774,9.774,0,0,0,1.454,2.4c1.081-1.2.275-3.891,3.263-3.616,1.022,0,1.1-.589,1.946-.118.766-1.081,1.2.432,2.87,0,.865.059.059,1.69,1.061,3.3" transform="translate(-491.696 -1192.467)" fill="#12263f" fill-rule="evenodd"/>
        <path id="Trazado_189377" data-name="Trazado 189377" d="M1869.594,1803.773l-1.553.57c-1.926,1.179-6.6.747-5.778,3.518l9.06-.236a6.49,6.49,0,0,0-.57-3.361Z" transform="translate(-1689.856 -1636.867)" fill="#12263f" fill-rule="evenodd"/>
        <path id="Trazado_189378" data-name="Trazado 189378" d="M1928.2,1792.515l-2.751.1.02,1.513a4.393,4.393,0,0,0,2.712-.079Z" transform="translate(-1747.28 -1626.651)" fill="#ff9866" fill-rule="evenodd"/>
        <path id="Trazado_189379" data-name="Trazado 189379" d="M2039.455,1796.339l-1.474.727c-1.808,1.337-6.506,1.376-5.405,4.049l9-1.1a6.832,6.832,0,0,0-.9-3.3Z" transform="translate(-1844.348 -1630.121)" fill="#12263f" fill-rule="evenodd"/>
        <path id="Trazado_189380" data-name="Trazado 189380" d="M2093.446,1784.019l-2.751.354.177,1.513a4.465,4.465,0,0,0,2.693-.354Z" transform="translate(-1897.238 -1618.941)" fill="#ff9866" fill-rule="evenodd"/>
        <path id="Trazado_189381" data-name="Trazado 189381" d="M2084.557,1345.195l1.572,1.867-1.062,1.2c-.747,1.729-1.14,6.388-2.24,5.169l-.629-6.25,1.454-.708Z" transform="translate(-1889.528 -1220.722)" fill="#ff9866" fill-rule="evenodd"/>
        <path id="Trazado_189382" data-name="Trazado 189382" d="M1929.529,1326.716l5.68,5.189-.2,19.084,3.439,18.1-4.265.452-5.562-18.023-.708-9.257-2.968,10.122-2.123,18.219-3.6-.078-.157-17.826,3.813-21.128,2.24-2.732,3.636,1.552Z" transform="translate(-1741.497 -1203.953)" fill="#12263f" fill-rule="evenodd"/>
        <path id="Trazado_189383" data-name="Trazado 189383" d="M1637.459,1018.679l1.474-1.729c-.472-.354-.924-.708-1.4-1.061-.177-.688-.236-.688-1.179-1.671-.747-.413-1.12-1.219-2-1.1-1.474,0-4.127-1.2-4.658-.826-.57.649,3.754,1.317,3.184,2.693-.295.629.452,1.612.825,1.887a6.714,6.714,0,0,0,2.28.491Z" transform="translate(-1478.85 -918.557)" fill="#ffaa81" fill-rule="evenodd"/>
        <path id="Trazado_189384" data-name="Trazado 189384" d="M1743.365,1064.764a89.033,89.033,0,0,1,11.812,9.237,1.132,1.132,0,0,1,.1,1.533l-9.3,11.046-1.965-2.142,5.621-8.333-5.149-2.1-1.061,13.306c-4.324,3.341-8.117-.57-12.323-.334l-.767-15.782-8.117-.727a4.162,4.162,0,0,1-2.26-.708l-12.225-10.515,1.729-2.064,12.3,7.606,10.122-.216c3.695-.9,8.353-1.494,11.478.2" transform="translate(-1549.713 -959.356)" fill="#ff5151" fill-rule="evenodd"/>
        <path id="Trazado_189385" data-name="Trazado 189385" d="M1994.688,1096.566l4.147-.943,1,3.715a4.062,4.062,0,0,1-4.6.786Z" transform="translate(-1810.116 -994.243)" fill="#ff9866" fill-rule="evenodd"/>
        <path id="Trazado_189386" data-name="Trazado 189386" d="M1968.7,1002.59c-2.771.078-5.562.138-8.333.216-.688,1.73.236,8.589,1.887,10.083,2.064,1.887,5.267.059,5.935-2.044.747-1.926,1.258-6.643.511-8.255" transform="translate(-1778.758 -909.819)" fill="#ffaa81" fill-rule="evenodd"/>
        <path id="Trazado_189387" data-name="Trazado 189387" d="M1950.721,966.668c-1.022-.511-1.985.884-2.968.334-1.612-1.926-2.1-3.951.963-5.4a.778.778,0,0,0,.511.786c.432-.295.806-.845,1.651-.806-.491.57-.53.924-.2,1.336,1.14.315,2.712-.885,4.363-.432a4.529,4.529,0,0,1,2.634,2.535c1.159,2.948-.472,5.091-1.179,6.211-.315.295-.452.393-1.494-.55.845-.9,1.258-2.044.295-2.634-1.376-.9-.806,1.1-1.789,1.415-.1-.865-2.044-2.5-2.791-2.791" transform="translate(-1766.365 -872.599)" fill="#12263f" fill-rule="evenodd"/>
        <path id="Trazado_189388" data-name="Trazado 189388" d="M1070.187,245.8c-8.311,3.845-13.59,11.753-15.12,20.994a23.644,23.644,0,0,1,12.573-14.744c8.833-4.046,19.106-1.814,26.94,4.746l-5.212,2.39,7.683,4.294,7.683,4.293,1.744-8.636,1.755-8.553-5.77,2.638c-8.935-8.946-21.567-12.285-32.276-7.423" transform="translate(-957.439 -221.025)" fill="#592fe6" fill-rule="evenodd"/>
      </g>
    </g>
    <g id="Grupo_127820" data-name="Grupo 127820" transform="translate(0 0.003)">
      <g id="Grupo_127819" data-name="Grupo 127819" transform="translate(0 0)" clip-path="url(#clip-path)">
        <path id="Trazado_189406" data-name="Trazado 189406" d="M482.991,167.181l2.652-1.05a.882.882,0,0,1,1.139.5l1.223,3.1a11.732,11.732,0,0,1,4.62.076l1.324-3.059a.88.88,0,0,1,1.155-.455l2.616,1.135a.874.874,0,0,1,.455,1.151l-1.324,3.059a11.769,11.769,0,0,1,3.216,3.32l3.095-1.223a.879.879,0,0,1,1.139.5l1.05,2.652a.876.876,0,0,1-.5,1.135l-3.1,1.228a11.734,11.734,0,0,1-.076,4.62l3.059,1.324a.88.88,0,0,1,.455,1.155l-1.135,2.616a.874.874,0,0,1-1.151.455l-3.059-1.324a11.769,11.769,0,0,1-3.32,3.216l1.223,3.095a.879.879,0,0,1-.495,1.139l-2.652,1.05a.876.876,0,0,1-1.135-.495l-1.227-3.1a11.732,11.732,0,0,1-4.62-.076l-1.324,3.059a.88.88,0,0,1-1.155.455l-2.616-1.135a.878.878,0,0,1-.455-1.155l1.324-3.055a11.769,11.769,0,0,1-3.216-3.32l-3.095,1.223a.879.879,0,0,1-1.139-.495l-1.05-2.652a.876.876,0,0,1,.5-1.135l3.1-1.228a11.735,11.735,0,0,1,.076-4.62l-3.059-1.324a.88.88,0,0,1-.455-1.155l1.135-2.616a.88.88,0,0,1,1.155-.455l3.055,1.324a11.769,11.769,0,0,1,3.32-3.216L482.5,168.32a.879.879,0,0,1,.5-1.139m4.9,8.516a6.086,6.086,0,1,1-3.425,7.9,6.084,6.084,0,0,1,3.425-7.9" transform="translate(-379.195 -109.739)" fill="#592fe6" fill-rule="evenodd"/>
        <path id="Trazado_189413" data-name="Trazado 189413" d="M5.021.684,6.654.038a.543.543,0,0,1,.7.3l.753,1.908a7.224,7.224,0,0,1,2.845.047L11.769.414a.542.542,0,0,1,.711-.28l1.611.7a.538.538,0,0,1,.28.709l-.815,1.883a7.247,7.247,0,0,1,1.98,2.044l1.906-.753a.541.541,0,0,1,.7.3l.647,1.633a.539.539,0,0,1-.3.7l-1.908.756a7.224,7.224,0,0,1-.047,2.845l1.883.815a.542.542,0,0,1,.28.711l-.7,1.611a.538.538,0,0,1-.709.28L15.4,13.556a7.247,7.247,0,0,1-2.044,1.98l.753,1.906a.541.541,0,0,1-.3.7l-1.633.647a.539.539,0,0,1-.7-.3l-.756-1.908a7.224,7.224,0,0,1-2.845-.047l-.815,1.883a.542.542,0,0,1-.711.28l-1.611-.7a.54.54,0,0,1-.28-.711L5.271,15.4a7.247,7.247,0,0,1-1.98-2.044l-1.906.753a.541.541,0,0,1-.7-.3L.038,12.173a.539.539,0,0,1,.3-.7l1.908-.756A7.226,7.226,0,0,1,2.3,7.874L.414,7.058a.542.542,0,0,1-.28-.711l.7-1.611a.542.542,0,0,1,.711-.28l1.881.815A7.247,7.247,0,0,1,5.47,3.291L4.716,1.386a.541.541,0,0,1,.3-.7M8.037,5.928A3.748,3.748,0,1,1,5.928,10.79,3.746,3.746,0,0,1,8.037,5.928" transform="translate(122.312 77.462) rotate(11)" fill="#592fe6" fill-rule="evenodd"/>
        <path id="Trazado_189407" data-name="Trazado 189407" d="M533.11,219.051a9.41,9.41,0,1,1-5.292,12.211,9.408,9.408,0,0,1,5.292-12.211m1.223,3.091a6.086,6.086,0,1,1-3.425,7.9,6.084,6.084,0,0,1,3.425-7.9" transform="translate(-425.64 -156.185)" fill="#88e0ef" fill-rule="evenodd"/>
        <path id="Trazado_189414" data-name="Trazado 189414" d="M3.666.408A5.794,5.794,0,1,1,.408,7.926,5.793,5.793,0,0,1,3.666.408m.753,1.9A3.748,3.748,0,1,1,2.311,7.173,3.746,3.746,0,0,1,4.42,2.311" transform="translate(125.173 81.703) rotate(11)" fill="#88e0ef" fill-rule="evenodd"/>
        <path id="Trazado_189408" data-name="Trazado 189408" d="M533.73,232.843a7.9,7.9,0,1,1,2.9-.556,7.856,7.856,0,0,1-2.9.556m.005-15.519a7.627,7.627,0,0,0-2.81.539h0a7.587,7.587,0,1,0,2.81-.539m0,12.778a5.149,5.149,0,1,1,1.888-.362,5.12,5.12,0,0,1-1.888.362m0-10.034a4.9,4.9,0,1,0,4.561,3.1,4.87,4.87,0,0,0-4.561-3.1" transform="translate(-477.197 -197)" fill="#fff"/>
        <path id="Trazado_189409" data-name="Trazado 189409" d="M2100.706,244.328a12.584,12.584,0,1,0-12.6-12.6,12.61,12.61,0,0,0,12.6,12.6" transform="translate(-1894.89 -198.882)" fill="#ff5151" fill-rule="evenodd"/>
        <path id="Trazado_189410" data-name="Trazado 189410" d="M2311.865,253.11a.289.289,0,0,1-.272-.191,12.69,12.69,0,0,0-3.788-5.411.289.289,0,1,1,.371-.445,13.268,13.268,0,0,1,3.961,5.658.289.289,0,0,1-.272.388" transform="translate(-2094.165 -224.142)" fill="#8183f1"/>
        <path id="Trazado_189411" data-name="Trazado 189411" d="M2097.868,241.779a12.873,12.873,0,1,1,6.161-24.18.289.289,0,1,1-.277.508,12.185,12.185,0,0,0-5.885-1.5,12.294,12.294,0,1,0,12.311,12.278,10.5,10.5,0,0,0-.316-2.63.289.289,0,1,1,.56-.145,11.081,11.081,0,0,1,.335,2.775,12.9,12.9,0,0,1-12.889,12.889" transform="translate(-1892.052 -196.043)" fill="#8183f1"/>
        <path id="Trazado_189412" data-name="Trazado 189412" d="M2127.445,300.274l-5.4-2.865c-.26-.163-.325.13-.228.293l4.884,5.339a.991.991,0,0,0,1.5,0c4.167-3.712,8.3-7.423,12.469-11.135a.173.173,0,0,0-.228-.26Z" transform="translate(-1925.438 -264.628)" fill="#fff" fill-rule="evenodd"/>
      </g>
    </g>
  </g>
</svg>
