<svg id="Grupo_128077" data-name="Grupo 128077" xmlns="http://www.w3.org/2000/svg" xmlns:xlink="http://www.w3.org/1999/xlink" width="61.675" height="80.115" viewBox="0 0 61.675 80.115">
  <defs>
    <clipPath id="clip-path">
      <rect id="Rectángulo_41104" data-name="Rectángulo 41104" width="61.675" height="80.115" fill="none"/>
    </clipPath>
    <clipPath id="clip-path-3">
      <rect id="Rectángulo_41077" data-name="Rectángulo 41077" width="61.675" height="28.233" fill="none"/>
    </clipPath>
    <clipPath id="clip-path-4">
      <path id="Trazado_190575" data-name="Trazado 190575" d="M50.772,304.527c12-4.642,31.529-.184,43.61,4.458a60.7,60.7,0,0,0-19-3.432c-8.811-.312-17.89-3.627-24.612-1.026" transform="translate(-50.772 -302.565)" fill="none"/>
    </clipPath>
    <clipPath id="clip-path-5">
      <rect id="Rectángulo_41078" data-name="Rectángulo 41078" width="11.522" height="19.796" fill="none"/>
    </clipPath>
    <clipPath id="clip-path-6">
      <rect id="Rectángulo_41079" data-name="Rectángulo 41079" width="13.344" height="8.609" fill="none"/>
    </clipPath>
    <clipPath id="clip-path-7">
      <rect id="Rectángulo_41081" data-name="Rectángulo 41081" width="3.462" height="22.431" fill="none"/>
    </clipPath>
    <clipPath id="clip-path-8">
      <rect id="Rectángulo_41086" data-name="Rectángulo 41086" width="14.791" height="2.284" fill="none"/>
    </clipPath>
    <clipPath id="clip-path-9">
      <rect id="Rectángulo_41087" data-name="Rectángulo 41087" width="51.314" height="8.296" fill="none"/>
    </clipPath>
    <clipPath id="clip-path-10">
      <rect id="Rectángulo_41100" data-name="Rectángulo 41100" width="2.458" height="2.459" fill="none"/>
    </clipPath>
    <clipPath id="clip-path-12">
      <rect id="Rectángulo_41102" data-name="Rectángulo 41102" width="2.459" height="2.459" fill="none"/>
    </clipPath>
  </defs>
  <g id="Grupo_128076" data-name="Grupo 128076" clip-path="url(#clip-path)">
    <g id="Grupo_128075" data-name="Grupo 128075">
      <g id="Grupo_128074" data-name="Grupo 128074" clip-path="url(#clip-path)">
        <g id="Grupo_127998" data-name="Grupo 127998" transform="translate(0 51.882)" style="mix-blend-mode: multiply;isolation: isolate">
          <g id="Grupo_127997" data-name="Grupo 127997">
            <g id="Grupo_127996" data-name="Grupo 127996" clip-path="url(#clip-path-3)">
              <g id="Grupo_127995" data-name="Grupo 127995" transform="translate(8.961 1.52)">
                <g id="Grupo_127994" data-name="Grupo 127994" clip-path="url(#clip-path-4)">
                  <path id="Trazado_190572" data-name="Trazado 190572" d="M50.772,297.45c5.818-2.25,13.4-3.41,21.051-3.478-7.648.069-15.233,1.228-21.051,3.478" transform="translate(-50.772 -295.489)" fill="#a3a3a3"/>
                  <path id="Trazado_190573" data-name="Trazado 190573" d="M170.043,293.956q.486,0,.973,0-.487,0-.973,0" transform="translate(-148.992 -295.472)" fill="#dadada"/>
                  <path id="Trazado_190574" data-name="Trazado 190574" d="M175.555,293.954c7.809.024,15.609,1.185,21.586,3.482-5.978-2.3-13.777-3.457-21.586-3.482" transform="translate(-153.531 -295.474)" fill="#a3a3a3"/>
                </g>
              </g>
              <path id="Trazado_190576" data-name="Trazado 190576" d="M52.572,322.694c12.082,4.642,12.146,12.169.143,16.811s-31.529,4.642-43.611,0-12.146-12.169-.142-16.811,31.529-4.642,43.61,0" transform="translate(0 -314.754)" fill="#d9d9d9"/>
            </g>
          </g>
        </g>
        <path id="Trazado_190577" data-name="Trazado 190577" d="M15.36,262.824a3.619,3.619,0,0,1,.087-.549,4.14,4.14,0,0,1,.189-.628,4.752,4.752,0,0,1,.608-1.135c.149-.212.282-.366.386-.5.066-.078.148-.167.23-.253l.031-.033.006-.007.013-.014c.044-.047.09-.094.138-.141v0h0l.635-.625c-.013.013-.025.026-.038.039l.005-.006.037-.038.015-.015.01-.01.012-.012c.213-.206.426-.391.644-.564.11-.088.223-.173.346-.261.267-.192.547-.375.855-.565.081-.048.164-.095.247-.142l.01-.006c5.044-2.836,13.052-4.094,20.857-4.335,9.547-.331,19.5.877,25.272,3.584l.093.044.07.033q.245.117.478.239l.044.023.029.016a13.954,13.954,0,0,1,1.37.816,5.341,5.341,0,0,1,2.371,2.757c.008.031.016.06.023.091,0,0,0,.006,0,.009a2.361,2.361,0,0,1-.012,1.148,2.954,2.954,0,0,0-1.079-2.954l.639.624,0,0,.083.082,0,0,.023.024-.008-.008h0l.009.009,0,0,.01.01.005.006a6.837,6.837,0,0,1,.5.579,4.882,4.882,0,0,1,.586.912,4.391,4.391,0,0,1,.5,1.751c0,.053,0,.107.005.16s.006.119.009.182c0,1.529-1.367,2.937-3.718,4.146a38.891,38.891,0,0,1-11.533,3.28,89.222,89.222,0,0,1-25.353.133q-1.17-.168-2.262-.362c-8.589-1.529-13.517-4.258-13.522-7.1a3.346,3.346,0,0,1,.023-.445" transform="translate(-12.629 -208.323)" fill="#bdbdbd"/>
        <path id="Trazado_190578" data-name="Trazado 190578" d="M31.239,393.743c-9.759-1.4-15.519-4.249-15.774-7.255a4.433,4.433,0,0,0,.5,1.874A5.564,5.564,0,0,0,17.3,390.1l.533.52h0c.048.047.1.094.149.14a9.423,9.423,0,0,0,1.478,1.094q-.324-.2-.621-.416a12.325,12.325,0,0,0,1.226.74,6.779,6.779,0,0,1-.605-.324c8.953,5.633,32.643,6.016,44.516,1.762l.006,0a17.528,17.528,0,0,0,1.973-.8,16.539,16.539,0,0,0,1.649-.871c.194-.118.367-.229.524-.334-.346.229-.722.449-1.124.661.467-.263.865-.514,1.186-.731a9.263,9.263,0,0,0,.879-.646l.064-.054a9.574,9.574,0,0,1-1,.77,8.683,8.683,0,0,0,1.3-1.037l-.02.018.08-.077.636-.625h0a5.161,5.161,0,0,0,1.7-3.389c-.719,5.893-21.957,9.91-40.584,7.242" transform="translate(-12.735 -318.273)" fill="#6e6e6e"/>
        <path id="Trazado_190579" data-name="Trazado 190579" d="M99,338.986a.37.37,0,0,0,.363-.369l0-.115a.4.4,0,0,0-.1-.276.349.349,0,0,0-.255-.118,77.15,77.15,0,0,1-13.892-1.4.456.456,0,0,0-.5.267v0a.45.45,0,0,0,0,.379.406.406,0,0,0,.284.229,79.393,79.393,0,0,0,14.1,1.4" transform="translate(-69.646 -277.274)" fill="#e8e8e8"/>
        <path id="Trazado_190580" data-name="Trazado 190580" d="M71.741,323.812l-.012-13.065c.01,6.07-21.649,10.273-40.6,7.559-9.98-1.429-15.779-4.379-15.784-7.459l.012,13.064c.006,3.08,5.8,6.03,15.784,7.459,18.892,2.706,40.615-1.474,40.6-7.558" transform="translate(-12.633 -255.9)" fill="#a1a1a1"/>
        <g id="Grupo_128001" data-name="Grupo 128001" transform="translate(47.585 54.847)" style="mix-blend-mode: multiply;isolation: isolate">
          <g id="Grupo_128000" data-name="Grupo 128000">
            <g id="Grupo_127999" data-name="Grupo 127999" clip-path="url(#clip-path-5)">
              <path id="Trazado_190581" data-name="Trazado 190581" d="M269.607,317.478v13.065c6.873-1.506,11.527-3.915,11.522-6.731l-.012-13.065c0,2.811-4.639,5.222-11.51,6.731" transform="translate(-269.607 -310.747)" fill="#c9c9c9"/>
            </g>
          </g>
        </g>
        <g id="Grupo_128004" data-name="Grupo 128004" transform="translate(45.744 68.228)" style="mix-blend-mode: multiply;isolation: isolate">
          <g id="Grupo_128003" data-name="Grupo 128003">
            <g id="Grupo_128002" data-name="Grupo 128002" clip-path="url(#clip-path-6)">
              <path id="Trazado_190582" data-name="Trazado 190582" d="M268.824,391.671c-.346.229-.722.449-1.124.661.467-.263.865-.514,1.186-.731a9.324,9.324,0,0,0,.879-.646l.064-.054a9.6,9.6,0,0,1-1,.77,8.687,8.687,0,0,0,1.3-1.037l-.02.018.08-.077.636-.625h0a5.163,5.163,0,0,0,1.7-3.389c-.326,2.675-4.883,4.964-11.5,6.416l-1.84,2.193a40.117,40.117,0,0,0,5.5-1.49l.006,0a17.531,17.531,0,0,0,1.972-.8,16.512,16.512,0,0,0,1.649-.871c.194-.118.367-.229.524-.334" transform="translate(-259.174 -386.561)" fill="#c9c9c9"/>
            </g>
          </g>
        </g>
        <g id="Grupo_128010" data-name="Grupo 128010" transform="translate(2.707 50.325)" style="mix-blend-mode: multiply;isolation: isolate">
          <g id="Grupo_128009" data-name="Grupo 128009">
            <g id="Grupo_128008" data-name="Grupo 128008" clip-path="url(#clip-path-7)">
              <path id="Trazado_190584" data-name="Trazado 190584" d="M16.531,305.2V292.184l1.919-3.434.347-3.622-1.085.266-.006.006-.015.015-.037.038-.005.005.038-.039-.635.625h0v0q-.071.07-.138.141l-.013.014-.006.007-.031.033c-.082.086-.164.175-.23.253-.1.132-.237.286-.386.5a4.751,4.751,0,0,0-.607,1.135,4.119,4.119,0,0,0-.189.628,3.623,3.623,0,0,0-.087.549,3.346,3.346,0,0,0-.023.445l.012,13.064c0,.068,0,.137.01.2a4.436,4.436,0,0,0,.5,1.874,5.561,5.561,0,0,0,1.336,1.743l.533.52h0c.048.047.1.094.149.14q.146.134.3.265Z" transform="translate(-15.336 -285.128)" fill="#e3e3e3"/>
            </g>
          </g>
        </g>
        <path id="Trazado_190585" data-name="Trazado 190585" d="M32.313,257.62c-6.237,3.774-.982,8.31,11.738,10.131s28.088.239,34.325-3.535.982-8.31-11.738-10.131-28.088-.239-34.325,3.535" transform="translate(-24.448 -208.617)" fill="#cecece"/>
        <path id="Trazado_190595" data-name="Trazado 190595" d="M34.845,288.248h0q-.134-.087-.261-.175.128.091.261.181a6.526,6.526,0,0,0,.966.559c-.572-.3-.913-.533-.966-.565" transform="translate(-28.48 -237.228)" fill="#4271e5"/>
        <path id="Trazado_190596" data-name="Trazado 190596" d="M81,283.917c-2.516,2.341-7.523,3.765-10.81,4.4C56.719,291.052,36.649,289.74,30,284.238c-.053-.045-.119-.1-.312-.271v2.1h0c-.052,2.819,5.232,5.526,14.363,6.834,17.423,2.5,37.38-1.443,36.943-7.049H81Z" transform="translate(-24.446 -233.806)" fill="#4271e5"/>
        <path id="Trazado_190597" data-name="Trazado 190597" d="M307.477,286.1a10.6,10.6,0,0,0,2.129-1.431,14.775,14.775,0,0,1-2.129,1.431" transform="translate(-253.208 -234.423)" fill="#4271e5"/>
        <g id="Grupo_128025" data-name="Grupo 128025" transform="translate(14.927 56.123)" style="mix-blend-mode: screen;isolation: isolate">
          <g id="Grupo_128024" data-name="Grupo 128024">
            <g id="Grupo_128023" data-name="Grupo 128023" clip-path="url(#clip-path-8)">
              <path id="Trazado_190598" data-name="Trazado 190598" d="M99,320.262a.37.37,0,0,0,.363-.369l0-.115a.4.4,0,0,0-.1-.276.348.348,0,0,0-.255-.118,77.167,77.167,0,0,1-13.892-1.4.456.456,0,0,0-.5.267v0a.449.449,0,0,0,0,.379.4.4,0,0,0,.284.229,79.394,79.394,0,0,0,14.1,1.4" transform="translate(-84.573 -317.978)" fill="#497eff"/>
            </g>
          </g>
        </g>
        <g id="Grupo_128028" data-name="Grupo 128028" transform="translate(5.24 50.111)" style="mix-blend-mode: multiply;isolation: isolate">
          <g id="Grupo_128027" data-name="Grupo 128027">
            <g id="Grupo_128026" data-name="Grupo 128026" clip-path="url(#clip-path-9)">
              <path id="Trazado_190599" data-name="Trazado 190599" d="M70.19,288.318h0c-13.294,2.7-33.014,1.455-39.923-3.866l-.134-.1-.136-.11c-.053-.045-.119-.1-.312-.271v2.1h0a2.686,2.686,0,0,0,.58,1.644v-2.3a10.553,10.553,0,0,0,.9.615q-.324-.2-.621-.416a12.381,12.381,0,0,0,1.226.74c-.226-.109-.429-.217-.605-.324,7.722,4.859,26.408,5.812,39.019,3.252v2.936c6.581-1.4,11.011-3.692,10.8-6.365H81v-1.931c-2.516,2.341-7.523,3.765-10.81,4.4" transform="translate(-29.686 -283.917)" fill="#bdbdbd"/>
            </g>
          </g>
        </g>
        <path id="Trazado_190609" data-name="Trazado 190609" d="M34.845,161.761h0q-.134-.087-.261-.175.128.091.261.181a6.512,6.512,0,0,0,.966.559c-.572-.3-.913-.533-.966-.565" transform="translate(-28.48 -133.066)" fill="#4271e5"/>
        <path id="Trazado_190611" data-name="Trazado 190611" d="M307.477,159.612a10.617,10.617,0,0,0,2.129-1.431,14.8,14.8,0,0,1-2.129,1.431" transform="translate(-253.208 -130.262)" fill="#4271e5"/>
        <path id="Trazado_190632" data-name="Trazado 190632" d="M81.694,383.8a2.547,2.547,0,1,1-2.547-2.547,2.547,2.547,0,0,1,2.547,2.547" transform="translate(-63.081 -313.963)" fill="#0df904"/>
        <path id="Trazado_190633" data-name="Trazado 190633" d="M79.846,381.884a2.939,2.939,0,0,1-.47,1.669,3.012,3.012,0,1,1-4.167-4.167,2.941,2.941,0,0,1,1.67-.47,2.982,2.982,0,0,0-1.629.53,2.94,2.94,0,0,0-1.216,3,2.937,2.937,0,0,0,2.279,2.279,2.964,2.964,0,0,0,3.534-2.845" transform="translate(-60.812 -312.037)" fill="#e8e8e8"/>
        <g id="Grupo_128067" data-name="Grupo 128067" transform="translate(14.838 68.608)" opacity="0.4" style="mix-blend-mode: multiply;isolation: isolate">
          <g id="Grupo_128066" data-name="Grupo 128066">
            <g id="Grupo_128065" data-name="Grupo 128065" clip-path="url(#clip-path-10)">
              <path id="Trazado_190634" data-name="Trazado 190634" d="M86.524,389.948a1.229,1.229,0,1,1-1.229-1.229,1.229,1.229,0,0,1,1.229,1.229" transform="translate(-84.066 -388.719)" fill="#4271e5"/>
            </g>
          </g>
        </g>
        <path id="Trazado_190635" data-name="Trazado 190635" d="M128.406,389.74a2.547,2.547,0,1,1-2.547-2.547,2.547,2.547,0,0,1,2.547,2.547" transform="translate(-101.548 -318.854)" fill="#0df904"/>
        <path id="Trazado_190636" data-name="Trazado 190636" d="M126.558,387.824a2.942,2.942,0,0,1-.47,1.669,3.012,3.012,0,1,1-4.167-4.167,2.941,2.941,0,0,1,1.669-.47,2.976,2.976,0,0,0-1.628.53,2.939,2.939,0,0,0-1.216,3,2.937,2.937,0,0,0,2.279,2.279,2.965,2.965,0,0,0,3.534-2.845" transform="translate(-99.279 -316.929)" fill="#e8e8e8"/>
        <g id="Grupo_128070" data-name="Grupo 128070" transform="translate(23.082 69.657)" opacity="0.4" style="mix-blend-mode: multiply;isolation: isolate">
          <g id="Grupo_128069" data-name="Grupo 128069">
            <g id="Grupo_128068" data-name="Grupo 128068" clip-path="url(#clip-path-10)">
              <path id="Trazado_190637" data-name="Trazado 190637" d="M133.235,395.888a1.229,1.229,0,1,1-1.229-1.229,1.229,1.229,0,0,1,1.229,1.229" transform="translate(-130.777 -394.659)" fill="#4271e5"/>
            </g>
          </g>
        </g>
        <path id="Trazado_190638" data-name="Trazado 190638" d="M175.118,391.51a2.547,2.547,0,1,1-2.547-2.547,2.547,2.547,0,0,1,2.547,2.547" transform="translate(-140.015 -320.311)" fill="#0df904"/>
        <path id="Trazado_190639" data-name="Trazado 190639" d="M173.27,389.594a2.942,2.942,0,0,1-.47,1.669,3.012,3.012,0,1,1-4.167-4.167,2.942,2.942,0,0,1,1.669-.469,2.98,2.98,0,0,0-1.629.53,2.94,2.94,0,0,0-1.216,3,2.939,2.939,0,0,0,2.279,2.279,2.968,2.968,0,0,0,1.68-.155,2.938,2.938,0,0,0,1.324-1.061,2.983,2.983,0,0,0,.53-1.629" transform="translate(-137.746 -318.386)" fill="#e8e8e8"/>
        <g id="Grupo_128073" data-name="Grupo 128073" transform="translate(31.326 69.969)" opacity="0.4" style="mix-blend-mode: multiply;isolation: isolate">
          <g id="Grupo_128072" data-name="Grupo 128072">
            <g id="Grupo_128071" data-name="Grupo 128071" clip-path="url(#clip-path-12)">
              <path id="Trazado_190640" data-name="Trazado 190640" d="M179.946,397.657a1.229,1.229,0,1,1-1.229-1.229,1.229,1.229,0,0,1,1.229,1.229" transform="translate(-177.487 -396.428)" fill="#4271e5"/>
            </g>
          </g>
        </g>
      </g>
    </g>
  </g>
</svg>
