<svg xmlns="http://www.w3.org/2000/svg" xmlns:xlink="http://www.w3.org/1999/xlink" width="1030" height="600" viewBox="0 0 1030 600">
  <defs>
    <clipPath id="clip-path">
      <rect id="Rectángulo_40233" data-name="Rectángulo 40233" width="318.114" height="373.821" fill="none"/>
    </clipPath>
    <clipPath id="clip-path-2">
      <rect id="Rectángulo_40224" data-name="Rectángulo 40224" width="3.093" height="3.059" fill="none"/>
    </clipPath>
    <clipPath id="clip-path-3">
      <rect id="Rectángulo_40225" data-name="Rectángulo 40225" width="39.161" height="9.145" fill="none"/>
    </clipPath>
    <clipPath id="clip-path-4">
      <rect id="Rectángulo_40226" data-name="Rectángulo 40226" width="19.796" height="6.896" fill="none"/>
    </clipPath>
    <clipPath id="clip-path-5">
      <rect id="Rectángulo_40227" data-name="Rectángulo 40227" width="3.085" height="3.064" fill="none"/>
    </clipPath>
    <clipPath id="clip-path-6">
      <rect id="Rectángulo_40228" data-name="Rectángulo 40228" width="39.549" height="5.489" fill="none"/>
    </clipPath>
    <clipPath id="clip-path-7">
      <rect id="Rectángulo_40229" data-name="Rectángulo 40229" width="19.723" height="5.137" fill="none"/>
    </clipPath>
    <clipPath id="clip-path-8">
      <rect id="Rectángulo_40230" data-name="Rectángulo 40230" width="36.045" height="34.942" fill="none"/>
    </clipPath>
    <clipPath id="clip-path-9">
      <rect id="Rectángulo_40231" data-name="Rectángulo 40231" width="162.444" height="154.329" fill="none"/>
    </clipPath>
    <clipPath id="clip-path-10">
      <rect id="Rectángulo_40232" data-name="Rectángulo 40232" width="155.559" height="147.355" fill="none"/>
    </clipPath>
    <clipPath id="clip-path-11">
      <rect id="Rectángulo_40239" data-name="Rectángulo 40239" width="34.568" height="43.157" fill="none"/>
    </clipPath>
    <clipPath id="clip-path-12">
      <rect id="Rectángulo_40240" data-name="Rectángulo 40240" width="43.014" height="42.086" fill="none"/>
    </clipPath>
    <clipPath id="clip-path-13">
      <rect id="Rectángulo_40241" data-name="Rectángulo 40241" width="43" height="28.765" fill="none"/>
    </clipPath>
    <clipPath id="clip-path-14">
      <rect id="Rectángulo_40242" data-name="Rectángulo 40242" width="41.15" height="42.947" fill="none"/>
    </clipPath>
  </defs>
  <g id="Grupo_128714" data-name="Grupo 128714" transform="translate(-282 -1335)">
    <g id="Grupo_126800" data-name="Grupo 126800" transform="translate(-3 -0.744)">
      <path id="Rectángulo_40218" data-name="Rectángulo 40218" d="M0,0H1030a0,0,0,0,1,0,0V600a0,0,0,0,1,0,0H200A200,200,0,0,1,0,400V0A0,0,0,0,1,0,0Z" transform="translate(285 1335.744)" fill="#ff9b6a" opacity="0.204"/>
      <g id="Grupo_126799" data-name="Grupo 126799" transform="translate(285.001 1781.244)">
        <g id="Elipse_4053" data-name="Elipse 4053" transform="translate(0 42)" fill="none" stroke="#ff5151" stroke-width="3">
          <circle cx="49.5" cy="49.5" r="49.5" stroke="none"/>
          <circle cx="49.5" cy="49.5" r="48" fill="none"/>
        </g>
        <g id="Elipse_4056" data-name="Elipse 4056" transform="translate(21)" fill="none" stroke="#ff5151" stroke-width="3">
          <circle cx="14.5" cy="14.5" r="14.5" stroke="none"/>
          <circle cx="14.5" cy="14.5" r="13" fill="none"/>
        </g>
        <g id="Elipse_4057" data-name="Elipse 4057" transform="translate(129 103)" fill="none" stroke="#ff5151" stroke-width="3">
          <circle cx="7" cy="7" r="7" stroke="none"/>
          <circle cx="7" cy="7" r="5.5" fill="none"/>
        </g>
      </g>
    </g>
    <path id="Trazado_188343" data-name="Trazado 188343" d="M70.4,182.738l66.959-3.074-12.168,65.4Z" transform="translate(522.955 1318.824)" fill="#88e0ef"/>
    <rect id="Rectángulo_40219" data-name="Rectángulo 40219" width="152.84" height="37.794" transform="translate(500.023 1614.248) rotate(-41.321)" fill="#88e0ef"/>
    <path id="Trazado_188344" data-name="Trazado 188344" d="M276.422,106.508l66.959-3.074-12.168,65.4Z" transform="translate(590.064 1293.992)" fill="#88e0ef"/>
    <rect id="Rectángulo_40220" data-name="Rectángulo 40220" width="152.84" height="37.794" transform="translate(773.156 1513.186) rotate(-41.321)" fill="#88e0ef"/>
    <path id="Trazado_188345" data-name="Trazado 188345" d="M83.038,117.7,126,115.726l-7.807,41.96Z" transform="translate(527.072 1297.998)" fill="#88e0ef"/>
    <rect id="Rectángulo_40221" data-name="Rectángulo 40221" width="98.064" height="24.249" transform="matrix(0.751, -0.66, 0.66, 0.751, 550.227, 1487.996)" fill="#88e0ef"/>
    <path id="Trazado_188346" data-name="Trazado 188346" d="M359.811,119.421l35.155,39.987,7.806-41.961Z" transform="translate(617.227 1298.557)" fill="#88e0ef"/>
    <rect id="Rectángulo_40222" data-name="Rectángulo 40222" width="98.064" height="24.249" transform="translate(917.156 1490.279) rotate(-41.321)" fill="#88e0ef"/>
    <path id="Trazado_188347" data-name="Trazado 188347" d="M41.475,609.87s-.649-53.476-.7-80.514l0-.7h.7c36.492-.04,93.8-.086,137.985-.135l-.832.833c-.012-21.678-.026-44.464-.041-67.923v-.873h.875l113.246-.026q11.469,0,22.8,0l-.9.9c.007-26.623.014-52.662.019-77.9v-.88l.88,0,137.012.1-.78.782c.076-48.8.141-91.825.2-127.364l0-.585.583,0c36.761.114,90.273.2,110.335.267l22.971.152,5.924.081,1.5.041a2.37,2.37,0,0,1,.506.041,2.351,2.351,0,0,1-.506.041l-1.5.041-5.924.079c-5.235.036-12.955.086-22.971.154-20.061.062-73.574.154-110.335.267l.583-.583c.055,35.539.121,78.562.2,127.364l0,.78-.783,0-137.012.1.878-.878c.005,25.243.012,51.281.019,77.9v.9h-.9q-11.324,0-22.8,0l-113.246-.026.873-.873c-.014,23.459-.028,46.245-.041,67.923v.833l-.833,0c-44.186-.048-101.493-.093-137.985-.133l.7-.7c-.05,27.038-.7,80.514-.7,80.514" transform="translate(491.584 1276.434)" fill="#263238"/>
    <g id="Grupo_126796" data-name="Grupo 126796" transform="translate(576.887 1432.576)">
      <g id="Grupo_126795" data-name="Grupo 126795" clip-path="url(#clip-path)">
        <path id="Trazado_188348" data-name="Trazado 188348" d="M187.457,56.411l3.092-34.341c.491-8.567,5.886-15.422,14.436-14.695l.787.114a15.34,15.34,0,0,1,13.123,16.144c-.466,7.424-1.077,15.619-1.693,19.549-1.277,8.136-9.611,8.227-9.611,8.227-.018,0-.56,4.974-.8,7.378l-1.033,5.6-4.186-2.119Z" transform="translate(-35.417 -1.384)" fill="#ffc09d"/>
        <path id="Trazado_188349" data-name="Trazado 188349" d="M209.949,60.246a19.9,19.9,0,0,1-10.159-4.668s1.67,6.5,9.908,6.935Z" transform="translate(-37.747 -10.501)" fill="#ff9b6c"/>
        <path id="Trazado_188350" data-name="Trazado 188350" d="M221.239,35.84a1.175,1.175,0,0,1-1.291,1.013,1.125,1.125,0,0,1-1.049-1.222,1.176,1.176,0,0,1,1.29-1.014,1.126,1.126,0,0,1,1.05,1.223" transform="translate(-41.357 -6.539)" fill="#263238"/>
        <path id="Trazado_188351" data-name="Trazado 188351" d="M222.407,30.847c-.166.131-.954-.649-2.207-.826-1.249-.195-2.261.317-2.375.144-.057-.077.13-.33.572-.564a3.231,3.231,0,0,1,1.929-.3,3.1,3.1,0,0,1,1.729.847c.342.351.433.645.352.7" transform="translate(-41.153 -5.529)" fill="#263238"/>
        <path id="Trazado_188352" data-name="Trazado 188352" d="M207.752,34.02a1.175,1.175,0,0,1-1.292,1.012,1.124,1.124,0,0,1-1.048-1.222A1.176,1.176,0,0,1,206.7,32.8a1.125,1.125,0,0,1,1.05,1.223" transform="translate(-38.808 -6.196)" fill="#263238"/>
        <path id="Trazado_188353" data-name="Trazado 188353" d="M207.219,29.021c-.166.131-.955-.649-2.207-.826-1.249-.2-2.261.316-2.375.144-.057-.078.128-.33.572-.564a3.228,3.228,0,0,1,1.928-.3,3.1,3.1,0,0,1,1.729.847c.341.351.433.645.353.7" transform="translate(-38.283 -5.184)" fill="#263238"/>
        <path id="Trazado_188354" data-name="Trazado 188354" d="M212.117,39.6a8.382,8.382,0,0,1,2.087-.074c.325.014.637-.006.722-.217a1.646,1.646,0,0,0-.077-.979q-.284-1.225-.594-2.571a42.414,42.414,0,0,1-1.206-6.677,42.262,42.262,0,0,1,1.741,6.564q.288,1.35.552,2.58a1.878,1.878,0,0,1-.015,1.28.808.808,0,0,1-.593.391,2.2,2.2,0,0,1-.554,0,8.191,8.191,0,0,1-2.063-.294" transform="translate(-40.076 -5.495)" fill="#263238"/>
        <path id="Trazado_188355" data-name="Trazado 188355" d="M208.157,24.211c-.217.3-1.383-.217-2.858-.461-1.47-.275-2.741-.194-2.844-.545-.042-.167.248-.419.807-.6a5.031,5.031,0,0,1,4.343.767c.461.363.649.7.552.842" transform="translate(-38.25 -4.233)" fill="#263238"/>
        <path id="Trazado_188356" data-name="Trazado 188356" d="M223.033,26.3c-.3.251-1.281-.177-2.509-.349-1.221-.208-2.294-.1-2.495-.431-.086-.158.114-.423.6-.633a3.98,3.98,0,0,1,2.1-.2,3.919,3.919,0,0,1,1.93.831c.4.349.5.661.368.785" transform="translate(-41.19 -4.653)" fill="#263238"/>
        <path id="Trazado_188357" data-name="Trazado 188357" d="M189.646,32.586c-.13-.08-5.361-2.464-5.986,3.133s5.123,5.072,5.15,4.912.836-8.045.836-8.045" transform="translate(-34.691 -6.048)" fill="#ffc09d"/>
        <path id="Trazado_188358" data-name="Trazado 188358" d="M187.673,38.728c-.023-.021-.105.058-.278.114a.979.979,0,0,1-.731-.067,2.427,2.427,0,0,1-.874-2.29,3.228,3.228,0,0,1,.429-1.365,1.132,1.132,0,0,1,.817-.667.5.5,0,0,1,.546.332c.058.165.01.273.038.285s.131-.08.111-.316a.624.624,0,0,0-.181-.376.737.737,0,0,0-.523-.2,1.38,1.38,0,0,0-1.116.753,3.333,3.333,0,0,0-.512,1.522,2.547,2.547,0,0,0,1.152,2.577,1.049,1.049,0,0,0,.908-.049c.189-.119.233-.241.214-.253" transform="translate(-35.026 -6.457)" fill="#ff9b6c"/>
        <path id="Trazado_188359" data-name="Trazado 188359" d="M229.926,15.755a1.333,1.333,0,0,0-.534-.845,4.1,4.1,0,0,0-2.054-.578,11.852,11.852,0,0,1-4.974-1.869,5.85,5.85,0,0,0,1.625-.886A3.534,3.534,0,0,0,225.4,8.2a.782.782,0,0,0-.378-.586c-.35-.152-.71.168-1,.423a3.044,3.044,0,0,1-2.984.882,4.99,4.99,0,0,1-2.055-.872c-.022-.028-.04-.058-.062-.086-.257-.333-.508-.652-.757-.962l0,0V7a18.633,18.633,0,0,0-5.292-4.943A19.134,19.134,0,0,0,202.813.1c-2.934.423-5.755,2.443-6.484,5.317a5.947,5.947,0,0,0-5.879-1.233l-.046-.028c-2.255.526-3.746,2.676-4.638,4.813-.049.117-.092.235-.139.354a8.647,8.647,0,0,1-3.24,2.516c-.224.1-.481.22-.534.458a.7.7,0,0,0,.306.619,4.354,4.354,0,0,0,1.671.929,9.782,9.782,0,0,1-.891,1.441c-.292.386-.639.849-.474,1.3a.919.919,0,0,0,.909.526,2.7,2.7,0,0,0,1.061-.341l-.922,1.654a5.157,5.157,0,0,0,2.375.111c.225,2.119.135,5.986.508,7.446a8.567,8.567,0,0,1,2.583.409c.932.431.367,2.106,1.684,1.762.671-.175,1.933-2.5,2.222-3.126a32.157,32.157,0,0,0,2.923-13.369,10.359,10.359,0,0,1,3.432-1.928l-.107.076c2.379-.534,5.056-1.021,7.1.3,1.589,1.025,2.38,2.885,3.48,4.423a11.793,11.793,0,0,0,8.167,5.191c.039,2.507-.326,6.558-.467,8.877l2.494-4.39v.019c.19-.252.352-.51.51-.769l.053-.077,0-.011a14.335,14.335,0,0,1,.8-1.238l.02.022a1.449,1.449,0,0,0,2.324-1.686,3.242,3.242,0,0,0-.617-.779,2.294,2.294,0,0,0,2.107.809,1.8,1.8,0,0,0,1.466-1.624,1.531,1.531,0,0,0-.767-1.323,5.163,5.163,0,0,0,2.994-.311c.614-.263,1.241-.74,1.128-1.487" transform="translate(-34.357 0)" fill="#263238"/>
        <path id="Trazado_188360" data-name="Trazado 188360" d="M199.6,8.2a7.1,7.1,0,0,0-.907.658,5.911,5.911,0,0,0-1.567,2.577,10.361,10.361,0,0,0-.446,2.057c-.089.754-.121,1.569-.16,2.427a21.885,21.885,0,0,1-.244,2.693,9.406,9.406,0,0,1-.346,1.4,2.96,2.96,0,0,1-.734,1.308,1.244,1.244,0,0,1-1.2.257,1.848,1.848,0,0,1-.973-.706,4.279,4.279,0,0,1-.552-2.173l.17.041a6.93,6.93,0,0,1-1.192,1.6,2.453,2.453,0,0,1-1.692.686,1.579,1.579,0,0,1-.827-.244,1.372,1.372,0,0,1-.51-.63,1.419,1.419,0,0,1-.091-.746,1.022,1.022,0,0,1,.335-.607l.079.088A5.314,5.314,0,0,1,186.828,20a4.779,4.779,0,0,1-.569.15.907.907,0,0,1-.2.026,1.014,1.014,0,0,1,.194-.058c.128-.037.317-.088.556-.178a5.479,5.479,0,0,0,1.85-1.146l.079.087a1.056,1.056,0,0,0-.193,1.211,1.232,1.232,0,0,0,.462.56,1.437,1.437,0,0,0,.751.212,2.3,2.3,0,0,0,1.573-.656,6.826,6.826,0,0,0,1.151-1.569l.148-.25.022.29a4.128,4.128,0,0,0,.526,2.075,1.664,1.664,0,0,0,.87.632,1.049,1.049,0,0,0,1.02-.217,2.81,2.81,0,0,0,.68-1.226,9.436,9.436,0,0,0,.342-1.367,22.09,22.09,0,0,0,.252-2.669c.045-.856.081-1.674.178-2.437a10.381,10.381,0,0,1,.476-2.082A5.83,5.83,0,0,1,198.639,8.8a3.347,3.347,0,0,1,.957-.6" transform="translate(-35.153 -1.549)" fill="#455a64"/>
        <path id="Trazado_188361" data-name="Trazado 188361" d="M227.266,18.1a.3.3,0,0,1-.072.049l-.221.126a2.756,2.756,0,0,1-.372.182,4.263,4.263,0,0,1-.528.206,7.318,7.318,0,0,1-3.578.232,9.336,9.336,0,0,1-4.735-2.389,16.166,16.166,0,0,1-3.69-5.378C213.587,10.07,213.217,9,212.789,8a10.928,10.928,0,0,0-1.547-2.7,5.632,5.632,0,0,0-2.2-1.7,4.043,4.043,0,0,0-1.228-.285,4.443,4.443,0,0,0-1.164.089,4.775,4.775,0,0,0-2.886,1.927,5.756,5.756,0,0,0-.563,1.18.3.3,0,0,1,.016-.085c.019-.067.041-.148.067-.247a4.186,4.186,0,0,1,.417-.889,4.654,4.654,0,0,1,1.058-1.139,4.81,4.81,0,0,1,1.86-.881,4.544,4.544,0,0,1,1.2-.1,4.168,4.168,0,0,1,1.279.285,5.758,5.758,0,0,1,2.274,1.736,10.986,10.986,0,0,1,1.582,2.74c.435,1.007.8,2.077,1.284,3.127a16.176,16.176,0,0,0,3.634,5.326,9.279,9.279,0,0,0,4.638,2.385,7.415,7.415,0,0,0,3.531-.169,11.7,11.7,0,0,0,1.217-.492" transform="translate(-38.392 -0.596)" fill="#455a64"/>
        <path id="Trazado_188362" data-name="Trazado 188362" d="M232.266,17.083a1.285,1.285,0,0,1-.317.171,6.358,6.358,0,0,1-.92.343,8.566,8.566,0,0,1-1.429.3,8.967,8.967,0,0,1-3.546-.289,8.553,8.553,0,0,1-1.363-.523,6.4,6.4,0,0,1-.852-.487,1.313,1.313,0,0,1-.285-.22c.019-.031.445.253,1.195.583a9.667,9.667,0,0,0,1.352.475,9.59,9.59,0,0,0,3.48.284,9.732,9.732,0,0,0,1.411-.25c.792-.2,1.259-.416,1.273-.383" transform="translate(-42.237 -3.093)" fill="#455a64"/>
        <path id="Trazado_188363" data-name="Trazado 188363" d="M210.424,46.036c-.045-.209-1.419.166-2.719-.742s-1.55-2.413-1.745-2.371c-.092,0-.178.4-.024,1.023a3.547,3.547,0,0,0,1.379,2,3.094,3.094,0,0,0,2.256.534c.589-.105.887-.353.853-.444" transform="translate(-38.893 -8.109)" fill="#263238"/>
        <path id="Trazado_188364" data-name="Trazado 188364" d="M157,61.557a8.871,8.871,0,0,0-9.751,2.231c-4.308,4.611-20.17,35.46-22.26,41.281-3.436,9.574,3.968,17.753,10.133,18.089s30.285-7.425,30.285-7.425L160.156,101.9l-15.394,1.23L156.7,79.15Z" transform="translate(-23.45 -11.514)" fill="#592fe6"/>
        <path id="Trazado_188365" data-name="Trazado 188365" d="M197.176,92.331s5.937,30.094,8.765,32.525S231.1,137.29,231.1,137.29l6.688-10.871L220.038,115.6l-.088-22.842c-.182-6.446-2.766-10.48-5.716-12.64Z" transform="translate(-37.253 -15.137)" fill="#592fe6"/>
        <path id="Trazado_188366" data-name="Trazado 188366" d="M199.53,67.46l-4.023,5.2-2.495-6.446-14.188-9.2-4.131,3.966s-15.911.311-16.939,1.087c-2.286,1.727-6.467,27.489-6.467,27.489l-8.056,48.583c-.681,1.947,6.083,3.31,10,4.265l36.092,5.167s4.294,1.018,5.511-1.628c.982-2.134,3.035-24.574,5.111-36.822.549-3.244,1.046-14.827,1.046-14.827L205,76.373,200.658,73.1Z" transform="translate(-27.052 -10.771)" fill="#592fe6"/>
        <path id="Trazado_188367" data-name="Trazado 188367" d="M155.173,99.3a7.745,7.745,0,0,1-.685,1.686c-.473,1.018-1.153,2.414-1.927,3.943s-1.5,2.905-2.038,3.891a7.8,7.8,0,0,1-.953,1.552,7.832,7.832,0,0,1,.688-1.689c.473-1.019,1.152-2.412,1.925-3.94s1.494-2.9,2.036-3.883a7.938,7.938,0,0,1,.955-1.559" transform="translate(-28.258 -18.762)" fill="#263238"/>
        <path id="Trazado_188368" data-name="Trazado 188368" d="M199.621,67.4A13.678,13.678,0,0,1,198.2,69c-.925.981-2.25,2.35-3.81,3.943l-.122.124-.14-.107c-1.006-.767-2.092-1.629-3.2-2.558-2.489-2.076-4.63-4.087-6.126-5.592-.75-.751-1.339-1.376-1.738-1.815a3.886,3.886,0,0,1-.586-.715,3.862,3.862,0,0,1,.7.6l1.829,1.716c1.545,1.448,3.709,3.415,6.189,5.483,1.106.925,2.183,1.792,3.174,2.569l-.261.017c1.582-1.57,2.944-2.9,3.918-3.835a13.7,13.7,0,0,1,1.594-1.432" transform="translate(-34.476 -11.767)" fill="#263238"/>
        <path id="Trazado_188369" data-name="Trazado 188369" d="M216.824,89.7a52.174,52.174,0,0,1-.489,6.612,52.143,52.143,0,0,1-.909,6.568,52.19,52.19,0,0,1,.489-6.613,52.157,52.157,0,0,1,.909-6.567" transform="translate(-40.696 -16.947)" fill="#263238"/>
        <path id="Trazado_188370" data-name="Trazado 188370" d="M237.165,131.035s4.429-7.454,5.364-7.16,1.41,2.228.848,3.654-2.124,7.155-2.124,7.155Z" transform="translate(-44.809 -23.403)" fill="#ffc09d"/>
        <path id="Trazado_188371" data-name="Trazado 188371" d="M233.184,291.8l-4.4,19.831s18.926,9.674,18.47,13.417l-39-5.689,5.584-31.181Z" transform="translate(-39.346 -54.446)" fill="#592fe6"/>
        <g id="Grupo_126770" data-name="Grupo 126770" transform="translate(176.336 253.269)" opacity="0.6">
          <g id="Grupo_126769" data-name="Grupo 126769">
            <g id="Grupo_126768" data-name="Grupo 126768" clip-path="url(#clip-path-2)">
              <path id="Trazado_188372" data-name="Trazado 188372" d="M218.841,312.291a1.609,1.609,0,0,0-1.427,1.6,1.548,1.548,0,0,0,1.578,1.429,1.7,1.7,0,0,0,1.5-1.707,1.605,1.605,0,0,0-1.806-1.3" transform="translate(-217.413 -312.267)" fill="#fff"/>
            </g>
          </g>
        </g>
        <g id="Grupo_126773" data-name="Grupo 126773" transform="translate(168.906 261.766)" opacity="0.6">
          <g id="Grupo_126772" data-name="Grupo 126772">
            <g id="Grupo_126771" data-name="Grupo 126771" clip-path="url(#clip-path-3)">
              <path id="Trazado_188373" data-name="Trazado 188373" d="M208.252,325.888l.563-3.143,37.47,6.806a2.724,2.724,0,0,1,1.126,2.338Z" transform="translate(-208.252 -322.744)" fill="#fff"/>
            </g>
          </g>
        </g>
        <path id="Trazado_188374" data-name="Trazado 188374" d="M233.474,316.913c-.041.188-1,.1-2.046.536-1.055.41-1.686,1.141-1.847,1.034-.168-.069.323-1.148,1.6-1.655s2.37-.081,2.3.085" transform="translate(-43.37 -59.813)" fill="#263238"/>
        <path id="Trazado_188375" data-name="Trazado 188375" d="M238.306,319.957c.01.191-.869.362-1.659,1.044-.811.659-1.132,1.495-1.32,1.452-.183,0-.109-1.136.889-1.965s2.119-.711,2.09-.53" transform="translate(-44.446 -60.426)" fill="#263238"/>
        <path id="Trazado_188376" data-name="Trazado 188376" d="M240.729,325.81c-.179.009-.268-.985.409-1.933s1.638-1.2,1.689-1.024c.078.176-.6.625-1.143,1.411-.563.773-.764,1.561-.955,1.545" transform="translate(-45.458 -60.989)" fill="#263238"/>
        <path id="Trazado_188377" data-name="Trazado 188377" d="M234.059,311.029c-.111.158-.931-.264-2.015-.388-1.08-.147-1.979.058-2.047-.122-.084-.157.857-.708,2.131-.543s2.052.921,1.931,1.053" transform="translate(-43.453 -58.56)" fill="#263238"/>
        <g id="Grupo_126776" data-name="Grupo 126776" transform="translate(173.166 237.916)" opacity="0.3">
          <g id="Grupo_126775" data-name="Grupo 126775">
            <g id="Grupo_126774" data-name="Grupo 126774" clip-path="url(#clip-path-4)">
              <path id="Trazado_188378" data-name="Trazado 188378" d="M233.3,296.7l-.779,3.535L213.5,296.548l.567-3.21Z" transform="translate(-213.504 -293.338)"/>
            </g>
          </g>
        </g>
        <path id="Trazado_188379" data-name="Trazado 188379" d="M157.343,336.453l-2.521,20.157s19.749,7.858,19.646,11.628L135.1,366.227l2.638-31.567Z" transform="translate(-25.526 -63.229)" fill="#592fe6"/>
        <g id="Grupo_126779" data-name="Grupo 126779" transform="translate(116.025 290.561)" opacity="0.6">
          <g id="Grupo_126778" data-name="Grupo 126778">
            <g id="Grupo_126777" data-name="Grupo 126777" clip-path="url(#clip-path-5)">
              <path id="Trazado_188380" data-name="Trazado 188380" d="M144.337,358.287a1.61,1.61,0,0,0-1.271,1.731,1.548,1.548,0,0,0,1.7,1.275,1.7,1.7,0,0,0,1.337-1.84,1.6,1.6,0,0,0-1.921-1.129" transform="translate(-143.053 -358.246)" fill="#fff"/>
            </g>
          </g>
        </g>
        <g id="Grupo_126782" data-name="Grupo 126782" transform="translate(109.578 299.816)" opacity="0.6">
          <g id="Grupo_126781" data-name="Grupo 126781">
            <g id="Grupo_126780" data-name="Grupo 126780" clip-path="url(#clip-path-6)">
              <path id="Trazado_188381" data-name="Trazado 188381" d="M135.1,372.84l.266-3.182,37.943,3.266a2.724,2.724,0,0,1,1.34,2.222Z" transform="translate(-135.104 -369.658)" fill="#fff"/>
            </g>
          </g>
        </g>
        <path id="Trazado_188382" data-name="Trazado 188382" d="M159.345,361.49c-.024.191-.989.193-1.987.726-1.012.506-1.572,1.294-1.742,1.2-.173-.053.215-1.174,1.434-1.8s2.353-.3,2.3-.131" transform="translate(-29.394 -68.252)" fill="#263238"/>
        <path id="Trazado_188383" data-name="Trazado 188383" d="M164.453,364.073c.028.19-.831.442-1.555,1.195-.745.732-.987,1.594-1.177,1.569-.183.015-.217-1.12.7-2.039s2.043-.908,2.031-.724" transform="translate(-30.535 -68.767)" fill="#263238"/>
        <path id="Trazado_188384" data-name="Trazado 188384" d="M167.417,369.687c-.178.025-.359-.956.226-1.963s1.518-1.344,1.586-1.177c.094.167-.538.679-1.006,1.512-.487.822-.614,1.625-.806,1.628" transform="translate(-31.598 -69.246)" fill="#263238"/>
        <path id="Trazado_188385" data-name="Trazado 188385" d="M159.348,355.6c-.1.168-.951-.174-2.041-.2-1.09-.045-1.965.244-2.05.071-.1-.148.788-.784,2.071-.74s2.129.725,2.021.866" transform="translate(-29.332 -67.021)" fill="#263238"/>
        <g id="Grupo_126785" data-name="Grupo 126785" transform="translate(111.591 275.671)" opacity="0.3">
          <g id="Grupo_126784" data-name="Grupo 126784">
            <g id="Grupo_126783" data-name="Grupo 126783" clip-path="url(#clip-path-7)">
              <path id="Trazado_188386" data-name="Trazado 188386" d="M157.309,341.432l-.444,3.593-19.278-1.888.264-3.249Z" transform="translate(-137.586 -339.888)"/>
            </g>
          </g>
        </g>
        <path id="Trazado_188387" data-name="Trazado 188387" d="M132.086,37.769a15.012,15.012,0,1,1-15.757-14.227,15.011,15.011,0,0,1,15.757,14.227" transform="translate(-19.287 -4.444)" fill="#ff5151"/>
        <path id="Trazado_188388" data-name="Trazado 188388" d="M301.911,213.867l-14.986-34.781L133.483,33.348l-20.251,22.38L265.865,200.366Z" transform="translate(-21.394 -6.301)" fill="#ff9b6a"/>
        <g id="Grupo_126788" data-name="Grupo 126788" transform="translate(244.471 172.625)" opacity="0.7">
          <g id="Grupo_126787" data-name="Grupo 126787">
            <g id="Grupo_126786" data-name="Grupo 126786" clip-path="url(#clip-path-8)">
              <path id="Trazado_188389" data-name="Trazado 188389" d="M301.42,234.278a2.24,2.24,0,0,1,2.938-2,6.74,6.74,0,0,1,7.939-10,7.862,7.862,0,0,1,10.294-9.019l14.875,34.52Z" transform="translate(-301.42 -212.837)" fill="#fff"/>
            </g>
          </g>
        </g>
        <path id="Trazado_188390" data-name="Trazado 188390" d="M336.4,238.651s-7.068-1.632-8.742,8.456l14.768,5.531Z" transform="translate(-61.905 -45.071)" fill="#12263f"/>
        <g id="Grupo_126791" data-name="Grupo 126791" transform="translate(103.198 27.738)" opacity="0.3">
          <g id="Grupo_126790" data-name="Grupo 126790">
            <g id="Grupo_126789" data-name="Grupo 126789" clip-path="url(#clip-path-9)">
              <path id="Trazado_188391" data-name="Trazado 188391" d="M279.387,188.529,127.238,45.319,136.809,34.2,289.571,179.249l.11.261a7.557,7.557,0,0,0-3.436-.389,8.164,8.164,0,0,0-4.167,1.753,7.762,7.762,0,0,0-2.743,4.714,7.913,7.913,0,0,0,.052,2.942" transform="translate(-127.237 -34.2)"/>
            </g>
          </g>
        </g>
        <g id="Grupo_126794" data-name="Grupo 126794" transform="translate(91.85 46.711)" opacity="0.3">
          <g id="Grupo_126793" data-name="Grupo 126793">
            <g id="Grupo_126792" data-name="Grupo 126792" clip-path="url(#clip-path-10)">
              <path id="Trazado_188392" data-name="Trazado 188392" d="M268.805,202.952,115.784,57.592l-2.538,2.939L265.867,204.947a2.383,2.383,0,0,1,2.393-2.134,2.643,2.643,0,0,1,.544.139" transform="translate(-113.246 -57.592)"/>
            </g>
          </g>
        </g>
        <path id="Trazado_188393" data-name="Trazado 188393" d="M323.988,226.105a.6.6,0,0,0-.328-.255.821.821,0,0,0-.983.488,3.147,3.147,0,0,0-.025,1.907,1.938,1.938,0,0,0,.617,1,1.29,1.29,0,0,0,1.223.278,1.74,1.74,0,0,0,.969-1.028,5.632,5.632,0,0,0,.37-1.575,8.667,8.667,0,0,0-.3-3.557,2.22,2.22,0,0,0-1.16-1.41,1.968,1.968,0,0,0-1.844.3,5.255,5.255,0,0,0-1.642,3.763,7.5,7.5,0,0,0,3.5,6.972,1.95,1.95,0,0,0,1.726.057,3.593,3.593,0,0,0,1.3-1.1,10.5,10.5,0,0,0,1.461-2.769,11.5,11.5,0,0,0,.629-4.491c-.04-.539-.1-.955-.144-1.235s-.066-.43-.066-.43a8.366,8.366,0,0,1,.293,1.659,11.262,11.262,0,0,1-.571,4.545,10.515,10.515,0,0,1-1.463,2.827,3.756,3.756,0,0,1-1.362,1.165,2.139,2.139,0,0,1-1.887-.051,7.671,7.671,0,0,1-3.63-7.162,7.52,7.52,0,0,1,.48-2.16,3.861,3.861,0,0,1,1.251-1.755,2.17,2.17,0,0,1,2.041-.323,2.411,2.411,0,0,1,1.267,1.532,8.788,8.788,0,0,1,.291,3.641,5.764,5.764,0,0,1-.395,1.621,1.883,1.883,0,0,1-1.071,1.1,1.427,1.427,0,0,1-1.355-.316,2.056,2.056,0,0,1-.646-1.071,3.194,3.194,0,0,1,.065-1.974.873.873,0,0,1,1.07-.493.463.463,0,0,1,.315.3" transform="translate(-60.583 -41.875)" fill="#fff"/>
        <path id="Trazado_188394" data-name="Trazado 188394" d="M319.331,239.909c-.024-.01.186-.39.376-1.136a8.191,8.191,0,0,0,.082-3.232,20.72,20.72,0,0,0-1.43-4.614,18.12,18.12,0,0,1-1.574-5.745,10.286,10.286,0,0,1,1.46-5.746,10.019,10.019,0,0,1,6.515-4.6,6.724,6.724,0,0,1,1.195-.152,1.747,1.747,0,0,1-.306.059c-.2.028-.5.083-.871.172a10.412,10.412,0,0,0-3,1.234,9.931,9.931,0,0,0-3.365,3.383,10.181,10.181,0,0,0-1.416,5.634,18.242,18.242,0,0,0,1.545,5.685,20.249,20.249,0,0,1,1.4,4.664,7.963,7.963,0,0,1-.151,3.274,4.538,4.538,0,0,1-.454,1.115" transform="translate(-59.85 -40.562)" fill="#fff"/>
        <path id="Trazado_188395" data-name="Trazado 188395" d="M309.622,239.059a3.131,3.131,0,0,0,1.483-1.643,17.644,17.644,0,0,0,.781-5.429,30.2,30.2,0,0,0-.376-5.507c-.109-.7-.225-1.261-.3-1.65a3.5,3.5,0,0,1-.108-.608,3.393,3.393,0,0,1,.187.59c.1.384.239.943.368,1.643a27.079,27.079,0,0,1,.195,8.589,8.857,8.857,0,0,1-.61,2.432,3.093,3.093,0,0,1-1.056,1.32,1.89,1.89,0,0,1-.563.263" transform="translate(-58.498 -42.363)" fill="#fff"/>
        <path id="Trazado_188396" data-name="Trazado 188396" d="M306.141,226.079a5.7,5.7,0,0,1,.476,1.156,6.862,6.862,0,0,1,.4,3,3.491,3.491,0,0,1-1.508,2.579,2.493,2.493,0,0,1-.858.351.783.783,0,0,1-.338.02,3.792,3.792,0,0,0,1.113-.495,3.48,3.48,0,0,0,1.382-2.482,7.467,7.467,0,0,0-.334-2.925,10.045,10.045,0,0,1-.334-1.2" transform="translate(-57.496 -42.714)" fill="#fff"/>
        <path id="Trazado_188397" data-name="Trazado 188397" d="M325.743,244.76a.575.575,0,0,1-.071-.166c-.04-.111-.1-.275-.163-.492a2.251,2.251,0,0,1-.108-.822,2.427,2.427,0,0,1,.376-1.034,28.047,28.047,0,0,1,1.638-2.294,20.027,20.027,0,0,0,1.737-2.95,39.355,39.355,0,0,0,2.168-5.849c.2-.665.376-1.267.541-1.818a4.425,4.425,0,0,1,.221-.661,4.471,4.471,0,0,1-.142.682c-.105.436-.264,1.064-.477,1.838a34.721,34.721,0,0,1-2.121,5.9,19.155,19.155,0,0,1-1.77,2.972c-.631.859-1.265,1.57-1.668,2.256a2.018,2.018,0,0,0-.317,1.759,5.208,5.208,0,0,1,.155.679" transform="translate(-61.478 -43.205)" fill="#fff"/>
        <path id="Trazado_188398" data-name="Trazado 188398" d="M133.277,33.2,111.934,54.662a.774.774,0,0,1-1.094,0l-6.614-6.577a.774.774,0,0,1,0-1.094l21.342-21.466a.774.774,0,0,1,1.094,0l6.614,6.576a.774.774,0,0,1,0,1.094" transform="translate(-19.649 -4.78)" fill="#e0e0e0"/>
        <path id="Trazado_188399" data-name="Trazado 188399" d="M133.228,33.163c-.007-.006.047-.059.11-.184a.765.765,0,0,0,.034-.592c-.08-.254-.39-.453-.671-.749l-1.015-.982-2.773-2.707-1.728-1.694-.465-.457a1.18,1.18,0,0,0-.472-.36.635.635,0,0,0-.535.083c-.139.107-.32.316-.482.473L104.325,47.109a.565.565,0,0,0-.06.723c.191.216.492.5.732.741l1.513,1.506,2.958,2.945,1.44,1.435a.574.574,0,0,0,.684.135.618.618,0,0,0,.149-.106l.174-.175.35-.35,2.728-2.734,9.451-9.442,6.4-6.339,1.755-1.709.463-.436a.872.872,0,0,1,.169-.139.841.841,0,0,1-.138.169l-.434.466-1.7,1.765L124.655,42,115.268,51.5l-2.718,2.743-.349.352-.175.177a1.017,1.017,0,0,1-.254.182.986.986,0,0,1-1.153-.208l-1.444-1.432-2.962-2.94-1.514-1.5c-.26-.268-.495-.47-.779-.795a.988.988,0,0,1,.1-1.266l21-21.029a6.86,6.86,0,0,1,.53-.5.923.923,0,0,1,.78-.113,1.427,1.427,0,0,1,.584.436c.156.156.308.31.459.462l1.7,1.717,2.723,2.758.988,1.011c.266.3.575.509.663.811a.786.786,0,0,1-.076.64.5.5,0,0,1-.148.163" transform="translate(-19.6 -4.747)" fill="#263238"/>
        <path id="Trazado_188400" data-name="Trazado 188400" d="M107.44,49.239a33.443,33.443,0,0,1,3.978,3.506,33.421,33.421,0,0,1,3.686,3.812,33.429,33.429,0,0,1-3.978-3.506,33.507,33.507,0,0,1-3.686-3.812" transform="translate(-20.299 -9.302)" fill="#263238"/>
        <path id="Trazado_188401" data-name="Trazado 188401" d="M117.152,38.834a46.927,46.927,0,0,1,4.214,3.514,47.283,47.283,0,0,1,4.073,3.678,28.888,28.888,0,0,1-4.35-3.359,28.952,28.952,0,0,1-3.938-3.833" transform="translate(-22.134 -7.337)" fill="#263238"/>
        <path id="Trazado_188402" data-name="Trazado 188402" d="M136.771,34.714a34.493,34.493,0,0,1-4.079-3.505,34.409,34.409,0,0,1-3.792-3.814,34.3,34.3,0,0,1,4.08,3.505,34.373,34.373,0,0,1,3.791,3.814" transform="translate(-24.353 -5.175)" fill="#263238"/>
        <path id="Trazado_188403" data-name="Trazado 188403" d="M193.3,93.99s-7.227.775-9.391,1.084-5.083.9-6.1,2.618c-.412.7-6.748,9.966-6.748,9.966l-2.42.685,3.868,10.64,6.543-3.254s2.224-2.494,4-4.849,2.315-3.213,2.315-3.213,6.48.3,7.791-.82a1.619,1.619,0,0,0,.282-1.714l-7.063-.62s7.677-.021,8.95-.868a1.907,1.907,0,0,0,.3-.242,1.2,1.2,0,0,0-.882-2.021l-8.264-.055s9.489-.861,9.7-1.921a3.744,3.744,0,0,0,.068-.519,1.154,1.154,0,0,0-1.189-1.225l-7.745.244s7.491-1.2,7.562-2.246c.135-1.986-1.58-1.67-1.58-1.67" transform="translate(-31.863 -17.754)" fill="#ffc09d"/>
        <path id="Trazado_188404" data-name="Trazado 188404" d="M138.663,117.747a12.016,12.016,0,0,1,8.848-5.177c.34-.032,15.761-1.676,15.761-1.676l4.721,14.757-22.645,5.893" transform="translate(-26.198 -20.952)" fill="#592fe6"/>
        <path id="Trazado_188405" data-name="Trazado 188405" d="M145.348,131.492a2.187,2.187,0,0,1,.426-.147l1.25-.36,4.694-1.282,16.224-4.3-.142.257c-.885-2.756-1.841-5.737-2.832-8.824-.648-2.032-1.282-4.019-1.894-5.932l.22.143-10.435,1.084-4.477.455a14.556,14.556,0,0,0-3.768.715,12.155,12.155,0,0,0-4.643,2.875c-.9.926-1.274,1.542-1.308,1.518a2.716,2.716,0,0,1,.267-.446,10.365,10.365,0,0,1,.937-1.173,11.891,11.891,0,0,1,4.657-3.029,14.628,14.628,0,0,1,3.827-.78l4.472-.5,10.427-1.135.168-.018.051.161c.614,1.913,1.25,3.9,1.9,5.93l2.815,8.829.066.205-.208.053-16.261,4.154-4.724,1.168-1.267.3a2.233,2.233,0,0,1-.444.079" transform="translate(-26.198 -20.899)" fill="#263238"/>
        <path id="Trazado_188406" data-name="Trazado 188406" d="M242.159,132.166s4.541-1.549,5.739-.732a4.476,4.476,0,0,1,1.607,2.145,2.043,2.043,0,0,1,1.944,2.919s2.432.488,1.7,3.325c0,0,1.785-.048.932,2.3a29.843,29.843,0,0,1-5.325,7.653c-1.733,1.306-2.213-.766-1.789-1.593s2.807-5.377,2.807-5.377-4.127,6.5-5.524,5.413c-.8-.619-.621-1.575.432-3.481.732-1.324,2.07-3.932,2.07-3.932l-3.247,4.005a1.133,1.133,0,0,1-2-.5,2.278,2.278,0,0,1,.161-1.217,26.769,26.769,0,0,1,2.4-4.377l-2.635,2.586a1.4,1.4,0,0,1-2.084-.125,1.366,1.366,0,0,1-.2-1.522c.723-1.452,4.741-5.678,4.741-5.678Z" transform="translate(-45.155 -24.788)" fill="#ffc09d"/>
        <path id="Trazado_188407" data-name="Trazado 188407" d="M146.208,158.648s-3.765,18.9.063,27.134,13.871,12.193,24.317,15.4c13.955,4.28,38.075,17.554,38.075,17.554s-3.119,13.761-5.181,22c-1.979,7.907-7.506,36.7-7.506,36.7l25.374,3.5,18.1-65.116s5.054-13.374-5.928-20.007c-9.406-5.682-42.683-28.142-42.683-28.142l-2.575-5.965Z" transform="translate(-27.311 -29.974)" fill="#263238"/>
        <path id="Trazado_188408" data-name="Trazado 188408" d="M144.288,184.432l4.724,10.827-6.426,51.417s-5.5,16.9-6.718,25.825-3.894,44.85-3.894,44.85h24.875s3.856-43.716,11.323-56.847c5.881-10.341,9.876-28.339,10.119-29.513s8.914-29.977,8.914-29.977l-12.149-25.007Z" transform="translate(-24.934 -33.254)" fill="#263238"/>
        <path id="Trazado_188409" data-name="Trazado 188409" d="M232.378,225.306a48.277,48.277,0,0,0-4.673,2.624,48.365,48.365,0,0,0-4.085,3.469,4.743,4.743,0,0,1,.951-1.279,17.2,17.2,0,0,1,6.277-4.367,4.732,4.732,0,0,1,1.53-.447" transform="translate(-42.249 -42.566)" fill="#455a64"/>
        <path id="Trazado_188410" data-name="Trazado 188410" d="M221.323,280.923s-.152-.007-.447-.041l-1.309-.16-5.036-.655-18.6-2.5-.152-.02.028-.152c1.436-7.519,3.159-16.466,5.2-26.41.513-2.486,1.045-5.033,1.629-7.631l1.861-7.939,3.934-16.734.1.231c-1.862-1.017-3.868-2.082-5.9-3.144-5.652-2.948-11.228-5.715-16.688-8.225a135.931,135.931,0,0,0-16.081-6.381,70.57,70.57,0,0,1-14.53-5.941,27.019,27.019,0,0,1-5.673-4.323,17.755,17.755,0,0,1-3.7-5.433,20.4,20.4,0,0,1-1.337-5.829c-.092-.941-.168-1.855-.181-2.744-.046-.888-.035-1.749-.027-2.58a81,81,0,0,1,.6-8.5c.281-2.322.571-4.115.785-5.327.114-.593.2-1.05.263-1.375.063-.309.109-.465.109-.465s-.018.161-.067.473c-.052.327-.126.785-.221,1.381-.187,1.215-.451,3.01-.706,5.331a84.047,84.047,0,0,0-.53,8.484c0,.829-.008,1.685.043,2.569.019.885.1,1.792.2,2.725a20.174,20.174,0,0,0,1.344,5.74,17.459,17.459,0,0,0,3.659,5.323,26.724,26.724,0,0,0,5.617,4.248,70.592,70.592,0,0,0,14.469,5.872,135.189,135.189,0,0,1,16.139,6.377c5.47,2.509,11.054,5.276,16.711,8.227,2.03,1.063,4.036,2.128,5.9,3.149l.14.077-.036.154c-1.356,5.747-2.677,11.343-3.949,16.738q-.953,4.043-1.87,7.929c-.587,2.592-1.125,5.138-1.643,7.621-2.063,9.936-3.817,18.877-5.288,26.388l-.122-.172,18.584,2.627,5.025.732,1.3.2c.293.047.441.082.441.082" transform="translate(-27.285 -29.974)" fill="#455a64"/>
      </g>
    </g>
    <path id="Trazado_191292" data-name="Trazado 191292" d="M4.286,17V4.2H8.223a5.98,5.98,0,0,1,3.019.76,5.3,5.3,0,0,1,2.079,2.162,6.669,6.669,0,0,1,.747,3.186V10.9a6.688,6.688,0,0,1-.734,3.173,5.256,5.256,0,0,1-2.07,2.153A6.025,6.025,0,0,1,8.25,17ZM6.922,6.339v8.543H8.2a2.863,2.863,0,0,0,2.364-1.011,4.567,4.567,0,0,0,.835-2.892V10.3a4.64,4.64,0,0,0-.809-2.958A2.854,2.854,0,0,0,8.223,6.339ZM18.5,17H15.949V7.49H18.5ZM15.8,5.029a1.251,1.251,0,0,1,.382-.94,1.648,1.648,0,0,1,2.079,0,1.244,1.244,0,0,1,.387.94,1.247,1.247,0,0,1-.391.949,1.629,1.629,0,0,1-2.065,0A1.247,1.247,0,0,1,15.8,5.029Zm9.94,9.343a.818.818,0,0,0-.461-.734,5.241,5.241,0,0,0-1.481-.479Q20.4,12.447,20.4,10.276a2.613,2.613,0,0,1,1.05-2.114A4.237,4.237,0,0,1,24.2,7.314a4.56,4.56,0,0,1,2.9.853,2.687,2.687,0,0,1,1.085,2.215h-2.54a1.229,1.229,0,0,0-.352-.9,1.488,1.488,0,0,0-1.1-.356,1.52,1.52,0,0,0-.993.29.916.916,0,0,0-.352.738.783.783,0,0,0,.4.681,4.114,4.114,0,0,0,1.349.448,11.019,11.019,0,0,1,1.6.426,2.628,2.628,0,0,1,2.013,2.558,2.481,2.481,0,0,1-1.116,2.1,4.815,4.815,0,0,1-2.883.8,5.029,5.029,0,0,1-2.123-.426,3.561,3.561,0,0,1-1.455-1.169,2.716,2.716,0,0,1-.527-1.6h2.408a1.326,1.326,0,0,0,.5,1.037,1.987,1.987,0,0,0,1.248.36,1.839,1.839,0,0,0,1.1-.277A.861.861,0,0,0,25.74,14.372Zm8.481,2.8a4.668,4.668,0,0,1-3.406-1.283A4.561,4.561,0,0,1,29.5,12.474v-.246a5.745,5.745,0,0,1,.554-2.562,4.064,4.064,0,0,1,1.569-1.74,4.4,4.4,0,0,1,2.316-.611,3.947,3.947,0,0,1,3.072,1.23,5,5,0,0,1,1.121,3.489v1.037H32.077a2.36,2.36,0,0,0,.743,1.494,2.245,2.245,0,0,0,1.569.563,2.742,2.742,0,0,0,2.294-1.063l1.248,1.4a3.813,3.813,0,0,1-1.547,1.261A5.075,5.075,0,0,1,34.221,17.176Zm-.29-7.813a1.587,1.587,0,0,0-1.226.512,2.651,2.651,0,0,0-.6,1.466h3.533v-.2a1.891,1.891,0,0,0-.457-1.311A1.638,1.638,0,0,0,33.931,9.362Zm7.98-1.872.079,1.1a3.32,3.32,0,0,1,2.733-1.274,2.759,2.759,0,0,1,2.25.888,4.142,4.142,0,0,1,.756,2.654V17H45.19V10.9a1.654,1.654,0,0,0-.352-1.176,1.572,1.572,0,0,0-1.169-.366,1.747,1.747,0,0,0-1.608.916V17h-2.54V7.49Zm5.045-3.876a2.46,2.46,0,0,1-.58,1.666,1.8,1.8,0,0,1-1.415.672,2.146,2.146,0,0,1-.593-.075,3.981,3.981,0,0,1-.716-.321,3.864,3.864,0,0,0-.659-.3,1.611,1.611,0,0,0-.439-.057.7.7,0,0,0-.523.22.854.854,0,0,0-.215.624l-1.477-.088a2.5,2.5,0,0,1,.576-1.661,1.776,1.776,0,0,1,1.411-.686,1.816,1.816,0,0,1,.5.066,5.468,5.468,0,0,1,.76.321,4.941,4.941,0,0,0,.729.308,1.665,1.665,0,0,0,.422.053.741.741,0,0,0,.532-.215.819.819,0,0,0,.224-.62Zm2.3,8.543A5.64,5.64,0,0,1,49.8,9.635a3.989,3.989,0,0,1,1.569-1.714,4.577,4.577,0,0,1,2.377-.606,4.33,4.33,0,0,1,3.142,1.178,4.727,4.727,0,0,1,1.358,3.2l.018.65a4.97,4.97,0,0,1-1.222,3.511,4.735,4.735,0,0,1-6.561,0,5.058,5.058,0,0,1-1.226-3.586Zm2.54.18a3.555,3.555,0,0,0,.51,2.073,1.831,1.831,0,0,0,2.9.009,3.89,3.89,0,0,0,.519-2.267,3.519,3.519,0,0,0-.519-2.06,1.686,1.686,0,0,0-1.459-.731,1.658,1.658,0,0,0-1.441.726A3.955,3.955,0,0,0,51.8,12.338Z" transform="translate(570 1857)" fill="#12263f"/>
    <path id="Trazado_191291" data-name="Trazado 191291" d="M10.425,4.2l3.287,9.281L16.981,4.2h3.463V17H17.8V13.5l.264-6.038L14.608,17H12.8L9.353,7.473,9.616,13.5V17H6.979V4.2ZM28.091,17a2.821,2.821,0,0,1-.255-.853,3.073,3.073,0,0,1-2.4,1.028,3.376,3.376,0,0,1-2.316-.809,2.6,2.6,0,0,1-.918-2.039,2.687,2.687,0,0,1,1.121-2.32,5.529,5.529,0,0,1,3.239-.817H27.73v-.545a1.567,1.567,0,0,0-.338-1.055,1.331,1.331,0,0,0-1.068-.4,1.513,1.513,0,0,0-1.006.308,1.045,1.045,0,0,0-.365.844h-2.54a2.551,2.551,0,0,1,.51-1.529,3.37,3.37,0,0,1,1.441-1.1,5.253,5.253,0,0,1,2.092-.4,4.15,4.15,0,0,1,2.791.883,3.09,3.09,0,0,1,1.033,2.483V14.8a4.546,4.546,0,0,0,.378,2.048V17Zm-2.1-1.767a2.188,2.188,0,0,0,1.037-.25,1.645,1.645,0,0,0,.7-.672V12.676h-.949q-1.907,0-2.03,1.318l-.009.149a1.017,1.017,0,0,0,.334.782A1.3,1.3,0,0,0,25.99,15.233ZM34.568,7.49l.079,1.1a3.32,3.32,0,0,1,2.733-1.274,2.759,2.759,0,0,1,2.25.888,4.142,4.142,0,0,1,.756,2.654V17h-2.54V10.9A1.654,1.654,0,0,0,37.5,9.728a1.572,1.572,0,0,0-1.169-.366,1.747,1.747,0,0,0-1.608.916V17h-2.54V7.49ZM45.353,5.152V7.49h1.626V9.354H45.353V14.1a1.133,1.133,0,0,0,.2.756,1.015,1.015,0,0,0,.773.229,4.051,4.051,0,0,0,.747-.062v1.925a5.229,5.229,0,0,1-1.538.229,2.425,2.425,0,0,1-2.725-2.7V9.354H41.424V7.49h1.389V5.152Zm7.418,12.023a4.668,4.668,0,0,1-3.406-1.283,4.561,4.561,0,0,1-1.314-3.419v-.246A5.745,5.745,0,0,1,48.6,9.666a4.064,4.064,0,0,1,1.569-1.74,4.4,4.4,0,0,1,2.316-.611,3.947,3.947,0,0,1,3.072,1.23,5,5,0,0,1,1.121,3.489v1.037H50.626a2.36,2.36,0,0,0,.743,1.494,2.245,2.245,0,0,0,1.569.563,2.742,2.742,0,0,0,2.294-1.063l1.248,1.4a3.813,3.813,0,0,1-1.547,1.261A5.075,5.075,0,0,1,52.771,17.176Zm-.29-7.813a1.587,1.587,0,0,0-1.226.512,2.651,2.651,0,0,0-.6,1.466h3.533v-.2a1.891,1.891,0,0,0-.457-1.311A1.638,1.638,0,0,0,52.48,9.362Zm7.98-1.872.079,1.1a3.32,3.32,0,0,1,2.733-1.274,2.759,2.759,0,0,1,2.25.888,4.142,4.142,0,0,1,.756,2.654V17h-2.54V10.9a1.654,1.654,0,0,0-.352-1.176,1.572,1.572,0,0,0-1.169-.366,1.747,1.747,0,0,0-1.608.916V17H58.07V7.49ZM70.885,17H68.336V7.49h2.549Zm-2.7-11.971a1.251,1.251,0,0,1,.382-.94,1.648,1.648,0,0,1,2.079,0,1.244,1.244,0,0,1,.387.94,1.247,1.247,0,0,1-.391.949,1.629,1.629,0,0,1-2.065,0A1.247,1.247,0,0,1,68.187,5.029ZM75.358,7.49l.079,1.063a3.342,3.342,0,0,1,2.733-1.239,2.536,2.536,0,0,1,2.522,1.45,3.265,3.265,0,0,1,2.856-1.45,2.836,2.836,0,0,1,2.3.9,4.141,4.141,0,0,1,.756,2.711V17H84.06V10.922a1.818,1.818,0,0,0-.316-1.185,1.4,1.4,0,0,0-1.116-.374,1.585,1.585,0,0,0-1.582,1.092L81.054,17h-2.54V10.93a1.8,1.8,0,0,0-.325-1.2,1.414,1.414,0,0,0-1.107-.37,1.645,1.645,0,0,0-1.564.9V17h-2.54V7.49ZM91.24,17H88.691V7.49H91.24Zm-2.7-11.971a1.251,1.251,0,0,1,.382-.94,1.648,1.648,0,0,1,2.079,0,1.244,1.244,0,0,1,.387.94A1.247,1.247,0,0,1,91,5.979a1.629,1.629,0,0,1-2.065,0A1.247,1.247,0,0,1,88.542,5.029Zm9.167,12.146A4.668,4.668,0,0,1,94.3,15.893a4.561,4.561,0,0,1-1.314-3.419v-.246a5.745,5.745,0,0,1,.554-2.562,4.064,4.064,0,0,1,1.569-1.74,4.4,4.4,0,0,1,2.316-.611,3.947,3.947,0,0,1,3.072,1.23,5,5,0,0,1,1.121,3.489v1.037H95.564a2.36,2.36,0,0,0,.743,1.494,2.245,2.245,0,0,0,1.569.563,2.742,2.742,0,0,0,2.294-1.063l1.248,1.4a3.813,3.813,0,0,1-1.547,1.261A5.075,5.075,0,0,1,97.709,17.176Zm-.29-7.813a1.587,1.587,0,0,0-1.226.512,2.651,2.651,0,0,0-.6,1.466h3.533v-.2a1.891,1.891,0,0,0-.457-1.311A1.638,1.638,0,0,0,97.419,9.362ZM105.4,7.49l.079,1.1a3.32,3.32,0,0,1,2.733-1.274,2.759,2.759,0,0,1,2.25.888,4.142,4.142,0,0,1,.756,2.654V17h-2.54V10.9a1.654,1.654,0,0,0-.352-1.176,1.572,1.572,0,0,0-1.169-.366,1.747,1.747,0,0,0-1.608.916V17h-2.54V7.49Zm10.784-2.338V7.49h1.626V9.354h-1.626V14.1a1.133,1.133,0,0,0,.2.756,1.015,1.015,0,0,0,.773.229,4.051,4.051,0,0,0,.747-.062v1.925a5.229,5.229,0,0,1-1.538.229,2.425,2.425,0,0,1-2.725-2.7V9.354h-1.389V7.49h1.389V5.152Zm2.382,7a5.64,5.64,0,0,1,.545-2.522,3.989,3.989,0,0,1,1.569-1.714,4.577,4.577,0,0,1,2.377-.606A4.33,4.33,0,0,1,126.2,8.492a4.727,4.727,0,0,1,1.358,3.2l.018.65a4.97,4.97,0,0,1-1.222,3.511,4.735,4.735,0,0,1-6.561,0,5.058,5.058,0,0,1-1.226-3.586Zm2.54.18a3.555,3.555,0,0,0,.51,2.073,1.831,1.831,0,0,0,2.9.009,3.89,3.89,0,0,0,.519-2.267,3.519,3.519,0,0,0-.519-2.06,1.686,1.686,0,0,0-1.459-.731,1.658,1.658,0,0,0-1.441.726A3.955,3.955,0,0,0,121.105,12.338Z" transform="translate(674 1790)" fill="#12263f"/>
    <path id="Trazado_191290" data-name="Trazado 191290" d="M34.5,17V4.2H38.44a5.98,5.98,0,0,1,3.019.76,5.3,5.3,0,0,1,2.079,2.162,6.669,6.669,0,0,1,.747,3.186V10.9a6.688,6.688,0,0,1-.734,3.173,5.256,5.256,0,0,1-2.07,2.153A6.025,6.025,0,0,1,38.466,17ZM37.139,6.339v8.543h1.274a2.863,2.863,0,0,0,2.364-1.011,4.567,4.567,0,0,0,.835-2.892V10.3A4.64,4.64,0,0,0,40.8,7.345,2.854,2.854,0,0,0,38.44,6.339ZM48.714,17H46.166V7.49h2.549Zm-2.7-11.971a1.251,1.251,0,0,1,.382-.94,1.648,1.648,0,0,1,2.079,0,1.244,1.244,0,0,1,.387.94,1.247,1.247,0,0,1-.391.949,1.629,1.629,0,0,1-2.065,0A1.247,1.247,0,0,1,46.016,5.029ZM51.5,17V9.354H50.085V7.49H51.5V6.682A3.283,3.283,0,0,1,52.419,4.2a3.557,3.557,0,0,1,2.571-.883,5.987,5.987,0,0,1,1.292.174l-.026,1.953a3.238,3.238,0,0,0-.773-.079q-1.433,0-1.433,1.356V7.49h1.89V9.354h-1.89V17Zm11.452-.967a3.185,3.185,0,0,1-2.6,1.143,3,3,0,0,1-2.333-.879,3.752,3.752,0,0,1-.822-2.575V7.49h2.54v6.151q0,1.487,1.354,1.487a1.834,1.834,0,0,0,1.775-.9V7.49h2.549V17H63.023Zm9.527-1.661a.818.818,0,0,0-.461-.734,5.241,5.241,0,0,0-1.481-.479q-3.393-.712-3.393-2.883A2.613,2.613,0,0,1,68.2,8.163a4.237,4.237,0,0,1,2.747-.848,4.56,4.56,0,0,1,2.9.853,2.687,2.687,0,0,1,1.085,2.215h-2.54a1.229,1.229,0,0,0-.352-.9,1.488,1.488,0,0,0-1.1-.356,1.52,1.52,0,0,0-.993.29.916.916,0,0,0-.352.738.783.783,0,0,0,.4.681,4.114,4.114,0,0,0,1.349.448,11.019,11.019,0,0,1,1.6.426,2.628,2.628,0,0,1,2.013,2.558,2.481,2.481,0,0,1-1.116,2.1,4.815,4.815,0,0,1-2.883.8,5.029,5.029,0,0,1-2.123-.426,3.561,3.561,0,0,1-1.455-1.169,2.716,2.716,0,0,1-.527-1.6h2.408a1.326,1.326,0,0,0,.5,1.037,1.987,1.987,0,0,0,1.248.36,1.839,1.839,0,0,0,1.1-.277A.861.861,0,0,0,72.48,14.372ZM79.265,17H76.716V7.49h2.549Zm-2.7-11.971a1.251,1.251,0,0,1,.382-.94,1.648,1.648,0,0,1,2.079,0,1.244,1.244,0,0,1,.387.94,1.247,1.247,0,0,1-.391.949,1.629,1.629,0,0,1-2.065,0A1.247,1.247,0,0,1,76.567,5.029Zm4.395,7.128a5.64,5.64,0,0,1,.545-2.522,3.989,3.989,0,0,1,1.569-1.714,4.577,4.577,0,0,1,2.377-.606,4.33,4.33,0,0,1,3.142,1.178,4.727,4.727,0,0,1,1.358,3.2l.018.65a4.97,4.97,0,0,1-1.222,3.511,4.735,4.735,0,0,1-6.561,0,5.058,5.058,0,0,1-1.226-3.586Zm2.54.18a3.555,3.555,0,0,0,.51,2.073,1.831,1.831,0,0,0,2.9.009,3.89,3.89,0,0,0,.519-2.267,3.519,3.519,0,0,0-.519-2.06,1.686,1.686,0,0,0-1.459-.731,1.658,1.658,0,0,0-1.441.726A3.955,3.955,0,0,0,83.5,12.338ZM85.954,3.5h2.769L86.288,6.225H84.222Zm7.919,3.99.079,1.1a3.32,3.32,0,0,1,2.733-1.274,2.759,2.759,0,0,1,2.25.888,4.142,4.142,0,0,1,.756,2.654V17h-2.54V10.9A1.654,1.654,0,0,0,96.8,9.728a1.572,1.572,0,0,0-1.169-.366,1.747,1.747,0,0,0-1.608.916V17h-2.54V7.49Z" transform="translate(811 1718)" fill="#12263f"/>
    <path id="Trazado_191289" data-name="Trazado 191289" d="M13.782,14.363H9.159L8.28,17h-2.8L10.24,4.2h2.443L17.474,17h-2.8ZM9.871,12.228h3.2l-1.608-4.79Zm8.235-.053a5.731,5.731,0,0,1,1-3.542,3.237,3.237,0,0,1,2.729-1.318,2.913,2.913,0,0,1,2.294,1.037V3.5h2.549V17H24.382l-.123-1.011a2.989,2.989,0,0,1-2.443,1.187,3.228,3.228,0,0,1-2.694-1.323A5.916,5.916,0,0,1,18.106,12.175Zm2.54.181a3.775,3.775,0,0,0,.466,2.057,1.516,1.516,0,0,0,1.354.715,1.7,1.7,0,0,0,1.661-1V10.36a1.675,1.675,0,0,0-1.644-1Q20.646,9.362,20.646,12.356ZM31.026,7.49l.079,1.063a3.342,3.342,0,0,1,2.733-1.239,2.536,2.536,0,0,1,2.522,1.45,3.265,3.265,0,0,1,2.856-1.45,2.836,2.836,0,0,1,2.3.9,4.141,4.141,0,0,1,.756,2.711V17H39.728V10.922a1.818,1.818,0,0,0-.316-1.185,1.4,1.4,0,0,0-1.116-.374,1.585,1.585,0,0,0-1.582,1.092L36.722,17h-2.54V10.93a1.8,1.8,0,0,0-.325-1.2,1.414,1.414,0,0,0-1.107-.37,1.645,1.645,0,0,0-1.564.9V17h-2.54V7.49ZM46.908,17H44.359V7.49h2.549ZM44.21,5.029a1.251,1.251,0,0,1,.382-.94,1.648,1.648,0,0,1,2.079,0,1.244,1.244,0,0,1,.387.94,1.247,1.247,0,0,1-.391.949,1.629,1.629,0,0,1-2.065,0A1.247,1.247,0,0,1,44.21,5.029ZM51.338,7.49l.079,1.1A3.32,3.32,0,0,1,54.15,7.314,2.759,2.759,0,0,1,56.4,8.2a4.142,4.142,0,0,1,.756,2.654V17h-2.54V10.9a1.654,1.654,0,0,0-.352-1.176A1.572,1.572,0,0,0,53.1,9.362a1.747,1.747,0,0,0-1.608.916V17h-2.54V7.49ZM61.762,17H59.213V7.49h2.549Zm-2.7-11.971a1.251,1.251,0,0,1,.382-.94,1.648,1.648,0,0,1,2.079,0,1.244,1.244,0,0,1,.387.94,1.247,1.247,0,0,1-.391.949,1.629,1.629,0,0,1-2.065,0A1.247,1.247,0,0,1,59.063,5.029ZM69,14.372a.818.818,0,0,0-.461-.734,5.241,5.241,0,0,0-1.481-.479q-3.393-.712-3.393-2.883a2.613,2.613,0,0,1,1.05-2.114,4.237,4.237,0,0,1,2.747-.848,4.56,4.56,0,0,1,2.9.853,2.687,2.687,0,0,1,1.085,2.215h-2.54a1.229,1.229,0,0,0-.352-.9,1.488,1.488,0,0,0-1.1-.356,1.52,1.52,0,0,0-.993.29.916.916,0,0,0-.352.738.783.783,0,0,0,.4.681,4.114,4.114,0,0,0,1.349.448,11.019,11.019,0,0,1,1.6.426,2.628,2.628,0,0,1,2.013,2.558,2.481,2.481,0,0,1-1.116,2.1,4.815,4.815,0,0,1-2.883.8,5.029,5.029,0,0,1-2.123-.426A3.561,3.561,0,0,1,63.9,15.581a2.716,2.716,0,0,1-.527-1.6h2.408a1.326,1.326,0,0,0,.5,1.037,1.987,1.987,0,0,0,1.248.36,1.839,1.839,0,0,0,1.1-.277A.861.861,0,0,0,69,14.372Zm7.146-9.22V7.49h1.626V9.354H76.149V14.1a1.133,1.133,0,0,0,.2.756,1.015,1.015,0,0,0,.773.229,4.051,4.051,0,0,0,.747-.062v1.925a5.229,5.229,0,0,1-1.538.229,2.425,2.425,0,0,1-2.725-2.7V9.354H72.221V7.49h1.389V5.152Zm8.385,4.72a6.9,6.9,0,0,0-.914-.07,1.86,1.86,0,0,0-1.89.976V17H79.19V7.49h2.4l.07,1.134a2.354,2.354,0,0,1,2.118-1.31,2.662,2.662,0,0,1,.791.114ZM91,17a2.821,2.821,0,0,1-.255-.853,3.073,3.073,0,0,1-2.4,1.028,3.376,3.376,0,0,1-2.316-.809,2.6,2.6,0,0,1-.918-2.039,2.687,2.687,0,0,1,1.121-2.32,5.529,5.529,0,0,1,3.239-.817h1.169v-.545A1.567,1.567,0,0,0,90.3,9.591a1.331,1.331,0,0,0-1.068-.4A1.513,1.513,0,0,0,88.23,9.5a1.045,1.045,0,0,0-.365.844h-2.54a2.551,2.551,0,0,1,.51-1.529,3.37,3.37,0,0,1,1.441-1.1,5.253,5.253,0,0,1,2.092-.4,4.15,4.15,0,0,1,2.791.883,3.09,3.09,0,0,1,1.033,2.483V14.8a4.546,4.546,0,0,0,.378,2.048V17Zm-2.1-1.767a2.188,2.188,0,0,0,1.037-.25,1.645,1.645,0,0,0,.7-.672V12.676h-.949q-1.907,0-2.03,1.318l-.009.149a1.017,1.017,0,0,0,.334.782A1.3,1.3,0,0,0,88.9,15.233Zm10.2-.105a1.666,1.666,0,0,0,1.143-.387,1.355,1.355,0,0,0,.457-1.028h2.382a3.258,3.258,0,0,1-.527,1.771,3.48,3.48,0,0,1-1.419,1.248,4.442,4.442,0,0,1-1.991.444,4.129,4.129,0,0,1-3.217-1.3A5.13,5.13,0,0,1,94.747,12.3v-.167a5.071,5.071,0,0,1,1.169-3.507,4.08,4.08,0,0,1,3.208-1.31,4,4,0,0,1,2.861,1.015,3.594,3.594,0,0,1,1.094,2.7H100.7a1.745,1.745,0,0,0-.457-1.206,1.7,1.7,0,0,0-2.5.183,3.749,3.749,0,0,0-.453,2.1v.264a3.8,3.8,0,0,0,.448,2.113A1.549,1.549,0,0,0,99.1,15.128ZM107.21,17h-2.549V7.49h2.549Zm-2.7-11.971a1.251,1.251,0,0,1,.382-.94,1.648,1.648,0,0,1,2.079,0,1.244,1.244,0,0,1,.387.94,1.247,1.247,0,0,1-.391.949,1.629,1.629,0,0,1-2.065,0A1.247,1.247,0,0,1,104.512,5.029Zm4.395,7.128a5.64,5.64,0,0,1,.545-2.522,3.989,3.989,0,0,1,1.569-1.714,4.577,4.577,0,0,1,2.377-.606,4.33,4.33,0,0,1,3.142,1.178,4.727,4.727,0,0,1,1.358,3.2l.018.65a4.97,4.97,0,0,1-1.222,3.511,4.735,4.735,0,0,1-6.561,0,5.058,5.058,0,0,1-1.226-3.586Zm2.54.18a3.555,3.555,0,0,0,.51,2.073,1.831,1.831,0,0,0,2.9.009,3.89,3.89,0,0,0,.519-2.267,3.519,3.519,0,0,0-.519-2.06,1.686,1.686,0,0,0-1.459-.731,1.658,1.658,0,0,0-1.441.726A3.955,3.955,0,0,0,111.446,12.338ZM113.9,3.5h2.769l-2.435,2.725h-2.065Zm7.919,3.99.079,1.1a3.32,3.32,0,0,1,2.733-1.274,2.759,2.759,0,0,1,2.25.888,4.142,4.142,0,0,1,.756,2.654V17H125.1V10.9a1.654,1.654,0,0,0-.352-1.176,1.572,1.572,0,0,0-1.169-.366,1.747,1.747,0,0,0-1.608.916V17h-2.54V7.49Z" transform="translate(948 1598)" fill="#12263f"/>
    <g id="Grupo_126802" data-name="Grupo 126802" transform="translate(584 1811)">
      <g id="Grupo_126801" data-name="Grupo 126801" clip-path="url(#clip-path-11)">
        <path id="Trazado_188411" data-name="Trazado 188411" d="M36.449,53.923H24.232q.006-4.559.011-9.117c0-.7-.237-.94-.941-.94q-2.6,0-5.2,0a2.192,2.192,0,0,1-2.467-2.45c0-1.767,0-3.533,0-5.3,0-.616-.258-.87-.871-.874-.672,0-1.345.011-2.017-.005a.71.71,0,0,1-.7-.98c.034-.114.077-.226.119-.337q1.278-3.321,2.559-6.641a3.024,3.024,0,0,0,.207-1.089,11.97,11.97,0,0,1,.3-2.537A14.347,14.347,0,0,1,43,22.439a19.528,19.528,0,0,1,.608,6.133,14.2,14.2,0,0,1-2.929,8.407,34.917,34.917,0,0,1-3.108,3.293,3.493,3.493,0,0,0-1.12,2.468c-.016,3.728,0,7.456,0,11.183M17.786,23.374c0,.554.009,1.108,0,1.662a.974.974,0,0,0,.316.758q.974.962,1.933,1.938a1.007,1.007,0,0,0,.8.326,13.525,13.525,0,0,0,1.522-.016,2.69,2.69,0,0,1,2.737,1.134c.2.269.244.378-.007.625-1.744,1.724-3.47,3.467-5.2,5.2a2.222,2.222,0,0,0-.7,2.074,2.238,2.238,0,0,0,3.817,1.154q2.623-2.611,5.226-5.243c.254-.258.382-.288.653-.012,1.708,1.739,3.439,3.456,5.158,5.184a2.231,2.231,0,0,0,2.107.719,2.136,2.136,0,0,0,1.718-1.528,2.168,2.168,0,0,0-.594-2.3q-2.4-2.42-4.816-4.829c-.724-.726-.734-.736.019-1.462a3.146,3.146,0,0,1,1.047-.886c3.712-1.348,5.64-4.457,5.795-8.4a.694.694,0,0,0-.755-.754c-.327.009-.654.056-.98.1a8.414,8.414,0,0,0-7.415,5.751,1.078,1.078,0,0,1-.261.409c-.375.365-.756.725-1.105,1.115-.2.224-.314.174-.49-.017-.313-.341-.645-.666-.982-.984a.627.627,0,0,1-.2-.512c.01-.928-.006-1.856.01-2.784a1.109,1.109,0,0,0-.366-.873q-.934-.906-1.838-1.842a1.11,1.11,0,0,0-.869-.373c-1.075.015-2.151.011-3.227,0a.747.747,0,0,0-.555,1.35c.753.748,1.48,1.526,2.261,2.243.443.407.223.883.276,1.334,0,.031-.037.08-.069.1a2.091,2.091,0,0,1-1.266-.2q-1.126-1.126-2.248-2.256c-.272-.275-.544-.532-.974-.356s-.469.531-.46.928c.012.509,0,1.018,0,1.527m22.242,5.449a11.252,11.252,0,0,0-.357-2.883c-.261-1.023-.256-1.01-1.256-.677-.328.109-.384.225-.281.563a9.917,9.917,0,0,1-.439,7.079c-.129.3-.445.662-.36.859.11.257.55.359.821.563.29.219.4.108.541-.172a11.716,11.716,0,0,0,1.331-5.333m-11.5,11.449a11.533,11.533,0,0,0,3.816-.64c.816-.277.815-.282.48-1.05a1.351,1.351,0,0,1-.087-.206c-.087-.352-.269-.352-.579-.232a9.937,9.937,0,0,1-6.7.2c-.316-.1-.669-.427-.932-.249-.242.164-.292.6-.451.9-.127.241-.08.349.179.448a11.745,11.745,0,0,0,4.275.823m-2.274-22.7a8.1,8.1,0,0,1,.2,1c.024.339.191.33.446.284a10.033,10.033,0,0,1,4.689.319c.331.1.7.448.971.26.252-.173.3-.628.467-.943.12-.226.043-.305-.163-.387a11.535,11.535,0,0,0-6.368-.656c-.152.027-.269.051-.247.126M17.07,28.932a11.5,11.5,0,0,0,.986,4.516c.31.716.31.716,1.008.343a1.649,1.649,0,0,1,.275-.148c.324-.1.293-.261.164-.527a9.437,9.437,0,0,1-.981-4.5c.016-.485-.142-.566-.563-.568-.9,0-.9-.025-.89.885" transform="translate(-10.562 -10.788)" fill="#ffc8ad"/>
        <path id="Trazado_188412" data-name="Trazado 188412" d="M25.888,43.135c0-3.728-.015-7.456,0-11.183a3.493,3.493,0,0,1,1.12-2.468,34.916,34.916,0,0,0,3.108-3.293,14.2,14.2,0,0,0,2.929-8.407,19.528,19.528,0,0,0-.608-6.133A14.347,14.347,0,0,0,4.664,12.862a11.97,11.97,0,0,0-.3,2.537,3.021,3.021,0,0,1-.207,1.089Q2.874,19.806,1.6,23.129c-.043.111-.086.223-.119.337a.71.71,0,0,0,.7.98c.672.016,1.345,0,2.017.005.614,0,.87.259.872.874q.005,2.65,0,5.3a2.192,2.192,0,0,0,2.467,2.45q2.6,0,5.2,0c.7,0,.942.237.941.94q0,4.559-.01,9.117c-.359,0-.719-.02-1.075.013-.316.029-.356-.1-.355-.378.009-2.591,0-5.181.014-7.772,0-.369-.051-.5-.469-.5-1.479.032-2.959.017-4.439.012a3.59,3.59,0,0,1-3.708-3.7c-.006-1.512-.011-3.025.007-4.537,0-.316-.074-.418-.391-.389s-.657.009-.986.006A2.161,2.161,0,0,1,.178,22.832C1,20.656,1.82,18.476,2.693,16.319a6.274,6.274,0,0,0,.292-1.888,15.762,15.762,0,0,1,31.179-1.658,18.128,18.128,0,0,1-1.443,11.982,16.123,16.123,0,0,1-2.908,3.96c-.591.593-1.177,1.193-1.777,1.777a2.333,2.333,0,0,0-.729,1.766c.008,3.474,0,6.948.012,10.422,0,.354-.052.517-.448.468a8.512,8.512,0,0,0-.985-.013" transform="translate(0 0)" fill="#020303"/>
        <path id="Trazado_188413" data-name="Trazado 188413" d="M60.249,70.7c0-.509.009-1.018,0-1.527-.009-.4.037-.755.46-.928s.7.081.974.356q1.12,1.132,2.248,2.256a2.091,2.091,0,0,0,1.266.2c.032-.019.073-.068.069-.1-.053-.45.167-.927-.276-1.334-.781-.717-1.508-1.495-2.261-2.243a.747.747,0,0,1,.555-1.35c1.076.009,2.152.013,3.227,0a1.11,1.11,0,0,1,.869.373q.9.935,1.838,1.842a1.109,1.109,0,0,1,.366.873c-.016.928,0,1.856-.01,2.784a.627.627,0,0,0,.2.512c.337.318.669.642.982.984.176.192.29.241.49.017.349-.389.73-.75,1.105-1.115a1.078,1.078,0,0,0,.261-.409,8.414,8.414,0,0,1,7.415-5.751c.326-.039.653-.086.98-.1a.694.694,0,0,1,.755.754c-.154,3.941-2.082,7.05-5.795,8.4a3.146,3.146,0,0,0-1.047.886c-.753.726-.744.736-.019,1.462q2.408,2.414,4.816,4.829a2.168,2.168,0,0,1,.594,2.3A2.136,2.136,0,0,1,78.6,86.2a2.231,2.231,0,0,1-2.107-.719c-1.719-1.728-3.45-3.445-5.158-5.184-.271-.276-.4-.246-.653.012q-2.6,2.638-5.226,5.243A2.238,2.238,0,0,1,61.637,84.4a2.222,2.222,0,0,1,.7-2.074c1.735-1.734,3.46-3.477,5.2-5.2.251-.248.211-.356.007-.625a2.69,2.69,0,0,0-2.737-1.134,13.524,13.524,0,0,1-1.522.016,1.006,1.006,0,0,1-.8-.326q-.957-.978-1.933-1.938a.974.974,0,0,1-.316-.758c.013-.554,0-1.108,0-1.661M63.8,84.809a1.083,1.083,0,0,0,.786-.418q4.446-4.46,8.894-8.918c.26-.261.715-.484.713-.813s-.483-.524-.709-.817-.4-.258-.655,0q-4.672,4.71-9.366,9.4a2.142,2.142,0,0,0-.3.332.75.75,0,0,0-.031.808.8.8,0,0,0,.666.425M80.24,67.731c.035-.143-.082-.165-.267-.14a7.026,7.026,0,0,0-5.853,4.348.461.461,0,0,0,.109.623c.366.329.713.683,1.046,1.045a.416.416,0,0,0,.544.126,7.139,7.139,0,0,0,4.421-6M61.8,70.694l-.118.069a8.863,8.863,0,0,1-.006.921.978.978,0,0,0,.372.9c.411.369.791.772,1.174,1.171a.588.588,0,0,0,.472.195c.642-.01,1.291.055,1.924-.018a2.4,2.4,0,0,1,2.373.984c.238.311.526.789.867.774.364-.015.594-.536.912-.8.211-.176.158-.3-.015-.464-.421-.4-.817-.831-1.241-1.231a1.134,1.134,0,0,1-.383-.911c.019-.912,0-1.825.011-2.737a.683.683,0,0,0-.221-.553c-.443-.423-.868-.865-1.3-1.3-.1-.1-.192-.224-.369-.22-.427.008-.854,0-1.281,0l-.076.116c.493.468.983.938,1.48,1.4a.99.99,0,0,1,.335.795c-.015.628,0,1.257-.006,1.885a.73.73,0,0,1-.823.831c-.612.007-1.225-.012-1.836.007a1.058,1.058,0,0,1-.872-.364c-.45-.491-.913-.97-1.371-1.453M78.986,84.014a1,1,0,0,0-.385-.728q-2.3-2.3-4.594-4.6c-.272-.271-.506-.743-.844-.743s-.547.5-.849.737c-.279.218-.222.365.008.594,1.719,1.7,3.424,3.422,5.135,5.134a1.763,1.763,0,0,0,.338.29.8.8,0,0,0,1.19-.686" transform="translate(-53.025 -58.117)" fill="#020303"/>
        <path id="Trazado_188414" data-name="Trazado 188414" d="M225.988,122.862a11.717,11.717,0,0,1-1.331,5.333c-.145.28-.251.391-.541.172-.271-.2-.711-.306-.821-.563-.085-.2.231-.564.36-.859a9.917,9.917,0,0,0,.439-7.08c-.1-.339-.047-.454.281-.563,1-.332.995-.346,1.256.677a11.258,11.258,0,0,1,.357,2.883" transform="translate(-196.522 -104.827)" fill="#020303"/>
        <path id="Trazado_188415" data-name="Trazado 188415" d="M116.737,229.688a11.757,11.757,0,0,1-4.275-.824c-.259-.1-.306-.207-.179-.448.159-.3.21-.737.451-.9.262-.178.616.151.932.249a9.937,9.937,0,0,0,6.7-.2c.311-.12.492-.12.579.232a1.35,1.35,0,0,0,.087.206c.335.769.337.773-.48,1.05a11.549,11.549,0,0,1-3.816.641" transform="translate(-98.767 -200.204)" fill="#020303"/>
        <path id="Trazado_188416" data-name="Trazado 188416" d="M130.951,54.355c-.023-.075.094-.1.246-.126a11.534,11.534,0,0,1,6.368.656c.207.082.283.161.163.387-.168.315-.216.77-.467.943-.274.189-.64-.162-.971-.26a10.032,10.032,0,0,0-4.689-.319c-.256.046-.422.055-.446-.284a8.068,8.068,0,0,0-.2-1" transform="translate(-115.255 -47.568)" fill="#020303"/>
        <path id="Trazado_188417" data-name="Trazado 188417" d="M54.3,144.889c-.009-.91-.009-.89.89-.885.421,0,.579.083.563.568a9.437,9.437,0,0,0,.981,4.5c.13.266.16.428-.164.527a1.649,1.649,0,0,0-.275.148c-.7.373-.7.372-1.008-.343a11.5,11.5,0,0,1-.986-4.516" transform="translate(-47.788 -126.745)" fill="#020303"/>
        <path id="Trazado_188418" data-name="Trazado 188418" d="M84.271,140.645a.8.8,0,0,1-.666-.425.75.75,0,0,1,.031-.809,2.134,2.134,0,0,1,.3-.332q4.685-4.7,9.365-9.4c.259-.261.42-.307.655,0s.707.49.709.817-.452.551-.713.813q-4.443,4.463-8.894,8.918a1.083,1.083,0,0,1-.786.418" transform="translate(-73.494 -113.952)" fill="#ff5151"/>
        <path id="Trazado_188419" data-name="Trazado 188419" d="M181.6,79.131a7.139,7.139,0,0,1-4.421,6,.416.416,0,0,1-.544-.126c-.334-.363-.68-.716-1.046-1.045a.461.461,0,0,1-.109-.623,7.026,7.026,0,0,1,5.853-4.348c.185-.025.3,0,.267.14" transform="translate(-154.388 -69.517)" fill="#88e0ef"/>
        <path id="Trazado_188420" data-name="Trazado 188420" d="M72.28,81.287c.458.484.921.962,1.371,1.453a1.059,1.059,0,0,0,.872.364c.612-.019,1.224,0,1.836-.007a.73.73,0,0,0,.823-.831c.007-.628-.009-1.257.006-1.885a.989.989,0,0,0-.335-.795c-.5-.464-.987-.934-1.48-1.4l.076-.117c.427,0,.854.006,1.281,0,.177,0,.266.117.369.22.435.432.86.874,1.3,1.3a.682.682,0,0,1,.22.553c-.011.912.008,1.825-.011,2.737a1.135,1.135,0,0,0,.383.911c.424.4.82.829,1.241,1.231.174.166.226.288.015.464-.319.266-.549.786-.913.8-.341.014-.629-.463-.867-.774a2.4,2.4,0,0,0-2.373-.984c-.634.073-1.282.007-1.924.018a.588.588,0,0,1-.472-.195c-.383-.4-.764-.8-1.174-1.171a.978.978,0,0,1-.372-.9,8.893,8.893,0,0,0,.006-.921l.118-.069" transform="translate(-63.503 -68.71)" fill="#592fe6"/>
        <path id="Trazado_188421" data-name="Trazado 188421" d="M166.248,171.529a.8.8,0,0,1-1.19.686,1.75,1.75,0,0,1-.338-.29c-1.711-1.712-3.416-3.43-5.136-5.134-.23-.228-.287-.375-.008-.594.3-.237.512-.737.849-.737s.572.472.844.743q2.3,2.293,4.594,4.6a1,1,0,0,1,.385.728" transform="translate(-140.287 -145.631)" fill="#592fe6"/>
      </g>
    </g>
    <g id="Grupo_126809" data-name="Grupo 126809" transform="translate(719.09 1745)">
      <g id="Grupo_126808" data-name="Grupo 126808" clip-path="url(#clip-path-12)">
        <path id="Trazado_188422" data-name="Trazado 188422" d="M12.171,206.453a1.042,1.042,0,0,1-1.04.551c-.84-.018-1.68-.005-2.52-.005-.561,0-.56,0-.563.541a2.664,2.664,0,0,1-.008.294.834.834,0,0,1-.863.8q-3.15.013-6.3,0c-.572,0-.875-.363-.875-1q0-3.991,0-7.981,0-3.213,0-6.427c0-.745.3-1.044,1.045-1.044q2.982,0,5.965,0a.9.9,0,0,1,1.038,1.02c.006.307-.1.713.055.894.184.216.6.071.921.072q3.339.01,6.679,0a2.455,2.455,0,0,1,.976.19c2.678,1.117,5.341,2.275,8.046,3.323a3.859,3.859,0,0,1,1.072,6.6,2.51,2.51,0,0,1-.243.149,7.505,7.505,0,0,0,3.649.375c2.429-.39,4.8-1.062,7.2-1.579.71-.153,1.414-.332,2.125-.478a3.671,3.671,0,0,1,4.4,2.786c.016.063-.006.144.086.166v1.344c-.149.057-.12.208-.156.316a3.5,3.5,0,0,1-2.526,2.461c-3.159.829-6.338,1.583-9.488,2.442a11.176,11.176,0,0,1-7.573-.517c-1.641-.7-3.319-1.312-4.98-1.965-.674-.265-.807-.5-.711-1.218a.892.892,0,0,1,1.3-.355c1.846.72,3.694,1.434,5.534,2.17a8.421,8.421,0,0,0,5.263.43c3.388-.839,6.769-1.711,10.149-2.583a1.937,1.937,0,0,0,1.448-2.379,1.985,1.985,0,0,0-2.424-1.455c-2.465.561-4.942,1.078-7.388,1.711a11.545,11.545,0,0,1-7.706-.528c-1.6-.689-3.252-1.262-4.881-1.887-.821-.315-1.644-.623-2.461-.948a.843.843,0,0,1,.134-1.625,1.028,1.028,0,0,1,.608.114q2.677,1.027,5.356,2.052a2.148,2.148,0,0,0,2.876-1.191,2.115,2.115,0,0,0-1.273-2.831q-3.964-1.643-7.93-3.282a1.443,1.443,0,0,0-.567-.121q-3.612.007-7.224,0c-.273,0-.348.07-.347.346q.015,4.389,0,8.778c0,.274.073.353.348.348.91-.017,1.82-.009,2.73-.006.823,0,1.107.312,1.051,1.135m-5.8-6.018c0-2.058-.006-4.116.007-6.174,0-.307-.068-.407-.392-.4q-1.974.029-3.948,0c-.311,0-.359.1-.359.382q.012,6.174,0,12.348c0,.284.056.381.361.376q1.974-.027,3.948,0c.323,0,.392-.092.39-.4-.014-2.044-.007-4.088-.007-6.132" transform="translate(0 -170.607)" fill="#030303"/>
        <path id="Trazado_188423" data-name="Trazado 188423" d="M75.751,235.441c.056-.823-.229-1.133-1.051-1.135-.91,0-1.82-.011-2.73.006-.275.005-.349-.074-.348-.348q.014-4.389,0-8.778c0-.275.074-.347.347-.346q3.612.016,7.224,0a1.443,1.443,0,0,1,.567.121q3.964,1.642,7.93,3.282a2.115,2.115,0,0,1,1.273,2.831,2.148,2.148,0,0,1-2.877,1.191q-2.68-1.02-5.356-2.052a1.027,1.027,0,0,0-.608-.114.843.843,0,0,0-.134,1.625c.817.325,1.64.633,2.461.948,1.629.625,3.28,1.2,4.881,1.887a11.545,11.545,0,0,0,7.706.528c2.447-.633,4.923-1.149,7.388-1.711a1.985,1.985,0,0,1,2.425,1.455,1.937,1.937,0,0,1-1.448,2.379c-3.38.872-6.761,1.744-10.149,2.583a8.421,8.421,0,0,1-5.263-.43c-1.839-.736-3.688-1.449-5.534-2.17a.892.892,0,0,0-1.3.355c-.531-.2-1.064-.386-1.592-.589a1.009,1.009,0,0,0-.441-.093,1.05,1.05,0,0,0,.039-.614.815.815,0,0,0-.692-.59.871.871,0,0,0-.93.56c-.557-.355-1.214-.48-1.793-.785" transform="translate(-63.581 -199.595)" fill="#ffc8ad"/>
        <path id="Trazado_188424" data-name="Trazado 188424" d="M142.191,50.546a8.313,8.313,0,0,1-.27,2.05.84.84,0,0,1-1.14.666,1.556,1.556,0,0,0-.947-.021,1.337,1.337,0,0,0-.516,2.193c.614.653.606,1.01-.045,1.611a8.915,8.915,0,0,1-3.542,2.006.863.863,0,0,1-1.228-.69,1.367,1.367,0,0,0-1.3-1.111,1.35,1.35,0,0,0-1.319,1.074.884.884,0,0,1-1.287.71,8.94,8.94,0,0,1-3.625-2.107.852.852,0,0,1-.015-1.406,1.332,1.332,0,0,0-1.323-2.269.868.868,0,0,1-1.208-.731,8.965,8.965,0,0,1,0-4.239.866.866,0,0,1,1.213-.711,1.348,1.348,0,0,0,1.6-.567,1.332,1.332,0,0,0-.286-1.709.851.851,0,0,1,0-1.406,8.906,8.906,0,0,1,3.62-2.114c.73-.222,1.112-.013,1.3.735a1.332,1.332,0,0,0,2.3.6,1.564,1.564,0,0,0,.333-.712.835.835,0,0,1,1.139-.662,8.892,8.892,0,0,1,3.776,2.17.863.863,0,0,1-.007,1.383,1.332,1.332,0,0,0,1.3,2.282.859.859,0,0,1,1.216.7,9,9,0,0,1,.252,2.269m-6.208,6.632a6.6,6.6,0,0,0,1.683-.984c.107-.087-.01-.18-.051-.259a3,3,0,0,1,2.546-4.436c.244,0,.3-.1.317-.325a13.077,13.077,0,0,0,0-1.552c-.012-.206-.071-.283-.294-.292a3.005,3.005,0,0,1-2.556-4.457c.1-.181.061-.26-.091-.369a8.86,8.86,0,0,0-1.411-.818c-.176-.082-.263-.062-.366.108a3.006,3.006,0,0,1-5.138.012c-.122-.2-.219-.19-.4-.107a9.984,9.984,0,0,0-1.308.745c-.232.153-.258.261-.128.521a3.015,3.015,0,0,1-2.03,4.307c-.276.063-.673-.107-.813.211a2.716,2.716,0,0,0-.084.911c-.008.139,0,.28.006.42.022.632.023.631.657.7a2.072,2.072,0,0,1,.247.043,3,3,0,0,1,2.01,4.311c-.108.219-.111.326.1.468a9.342,9.342,0,0,0,1.342.769c.17.077.28.1.4-.1a3.007,3.007,0,0,1,5.14.015c.046.075.07.193.219.152" transform="translate(-110.231 -37.009)" fill="#030303"/>
        <path id="Trazado_188425" data-name="Trazado 188425" d="M72,15.594c.174-.248.317-.468.476-.676a.831.831,0,0,1,1.148-.234.82.82,0,0,1,.23,1.178q-.761,1.156-1.563,2.284a.8.8,0,0,1-1.118.234Q69.988,17.71,68.826,17a.837.837,0,1,1,.837-1.449c.2.1.385.218.635.361-.04-.337-.079-.618-.1-.9a13.061,13.061,0,0,1,5.06-12.1A13.433,13.433,0,0,1,96.8,11.022a13.124,13.124,0,0,1-3.67,11.943.839.839,0,0,1-1.092.235.812.812,0,0,1-.415-.888A1.077,1.077,0,0,1,92,21.724,11.789,11.789,0,1,0,71.957,11.472a12,12,0,0,0-.028,3.886,2.039,2.039,0,0,0,.071.236" transform="translate(-60.718 0)" fill="#030303"/>
        <path id="Trazado_188426" data-name="Trazado 188426" d="M249.322,209.986a.817.817,0,0,1,.844.838.843.843,0,0,1-.822.829.853.853,0,0,1-.849-.849.831.831,0,0,1,.828-.818" transform="translate(-220.594 -186.41)" fill="#030303"/>
        <path id="Trazado_188427" data-name="Trazado 188427" d="M124.327,321.763a.871.871,0,0,1,.93-.56.815.815,0,0,1,.692.591,1.049,1.049,0,0,1-.039.613.9.9,0,0,1-1.082.395c-.38-.152-.539-.482-.5-1.039" transform="translate(-110.363 -285.132)" fill="#030303"/>
        <path id="Trazado_188428" data-name="Trazado 188428" d="M19.609,213.666c0,2.044-.007,4.088.007,6.132,0,.308-.067.4-.39.4q-1.973-.03-3.948,0c-.305,0-.362-.093-.361-.376q.014-6.174,0-12.348c0-.278.048-.386.359-.382q1.974.027,3.948,0c.324,0,.394.1.392.4-.013,2.058-.007,4.116-.007,6.174" transform="translate(-13.242 -183.839)" fill="#592fe6"/>
        <path id="Trazado_188429" data-name="Trazado 188429" d="M149.283,72.583c-.149.041-.173-.077-.219-.152a3.007,3.007,0,0,0-5.14-.015c-.124.2-.235.175-.4.1a9.33,9.33,0,0,1-1.342-.769c-.211-.142-.208-.249-.1-.468a3,3,0,0,0-2.01-4.311,2.1,2.1,0,0,0-.247-.043c-.634-.073-.635-.073-.657-.7,0-.14-.013-.28-.005-.42a2.714,2.714,0,0,1,.083-.911c.14-.318.537-.148.813-.211a3.015,3.015,0,0,0,2.03-4.307c-.13-.259-.1-.368.128-.521a9.983,9.983,0,0,1,1.308-.745c.181-.083.279-.09.4.107a3.006,3.006,0,0,0,5.137-.012c.1-.17.19-.191.366-.108a8.86,8.86,0,0,1,1.411.818c.152.109.189.188.091.369a3.005,3.005,0,0,0,2.555,4.457c.223.009.282.086.294.292a13.08,13.08,0,0,1,0,1.552c-.013.22-.073.32-.317.325a3,3,0,0,0-2.546,4.436c.041.078.158.172.051.259a6.607,6.607,0,0,1-1.683.984m-6.434-6.765a3.638,3.638,0,1,0,3.615-3.653,3.638,3.638,0,0,0-3.615,3.653" transform="translate(-123.531 -52.414)" fill="#88e0ef"/>
        <path id="Trazado_188430" data-name="Trazado 188430" d="M172.064,90.5a3.638,3.638,0,1,1,3.634,3.629,3.645,3.645,0,0,1-3.634-3.629m1.681-.047a1.957,1.957,0,1,0,3.913.077,1.957,1.957,0,1,0-3.913-.077" transform="translate(-152.746 -77.093)" fill="#030303"/>
      </g>
    </g>
    <g id="Grupo_126811" data-name="Grupo 126811" transform="matrix(0.883, -0.469, 0.469, 0.883, 852.264, 1692.188)">
      <g id="Grupo_126810" data-name="Grupo 126810" clip-path="url(#clip-path-13)">
        <path id="Trazado_188431" data-name="Trazado 188431" d="M31.577,11.2q0,4.238,0,8.476a2.137,2.137,0,0,1-2.294,2.289,5.062,5.062,0,0,1-1.026-.046,2.135,2.135,0,0,1-1.7-2.212c0-.721,0-.721-.7-.858q-6.563-1.293-13.125-2.592a.429.429,0,0,0-.524.191,2.413,2.413,0,0,1-1.121.931c-.276.111-.323.267-.322.534q.014,4.462.006,8.924a2.136,2.136,0,0,1-2.32,2.3,3.861,3.861,0,0,1-1.112-.068A2.128,2.128,0,0,1,5.746,27q-.006-4.529,0-9.059a.54.54,0,0,0-.333-.577A3.259,3.259,0,0,1,3.6,14.437c-.011-.28-.057-.394-.362-.37-.371.029-.747.011-1.12.006A2.133,2.133,0,0,1,0,11.962Q0,11.2,0,10.437a2.132,2.132,0,0,1,2.115-2.1c.374,0,.749-.024,1.12.006.313.026.371-.1.355-.376a4.379,4.379,0,0,1,.273-1.977A3.029,3.029,0,0,1,6.786,4.017c1.014.043,2.032.006,3.049.009a2.806,2.806,0,0,1,2.588,1.547A.433.433,0,0,0,13,5.831Q19.626,4.51,26.258,3.219c.249-.049.3-.155.3-.386a2.161,2.161,0,0,1,2.452-2.4c1.413,0,2.226.542,2.516,1.666a2.621,2.621,0,0,1,.049.668q0,4.216,0,8.431M26.553,4.644c-.125.011-.215.01-.3.027Q19.758,5.955,13.264,7.233c-.29.057-.351.159-.35.429q.015,3.406,0,6.812c0,.309.1.388.384.444q6.452,1.262,12.9,2.555c.372.075.365-.092.365-.366q-.01-6.028,0-12.056Zm-15.07,6.2c0-1.15.014-2.3,0-3.451A1.768,1.768,0,0,0,9.531,5.461c-.956,0-1.912.006-2.868,0a1.388,1.388,0,0,0-1.134.529,2.216,2.216,0,0,0-.5,1.45c0,.762,0,1.524,0,2.286,0,1.524-.012,3.047,0,4.571a1.765,1.765,0,0,0,1.947,1.931c.941,0,1.882-.01,2.823,0a1.468,1.468,0,0,0,1.359-.787,2.355,2.355,0,0,0,.324-1.24c0-1.12,0-2.241,0-3.361m16.505.36q0,4.194,0,8.388c0,.293,0,.6.269.767a1.667,1.667,0,0,0,1.465.085c.434-.141.422-.558.422-.944q0-7.737,0-15.475c0-.463.01-.927,0-1.39a.714.714,0,0,0-.76-.759c-.134-.006-.269,0-.4,0-.765,0-.984.22-.984.987q0,4.171,0,8.343M7.18,22.463c0,1.464,0,2.927,0,4.391a.758.758,0,0,0,.855.855c.164,0,.329.006.493,0a.731.731,0,0,0,.8-.775c0-1.873,0-3.746,0-5.931,0-.8,0-1.916,0-3.03,0-.275-.113-.32-.347-.313-.463.013-.927.024-1.388,0-.328-.019-.435.071-.43.416.02,1.463.009,2.927.009,4.391M3.591,11.238c0-.4-.006-.806,0-1.209,0-.189-.06-.269-.257-.264-.4.011-.807-.015-1.208.011a.673.673,0,0,0-.681.693c-.023.491-.023.985,0,1.477a.659.659,0,0,0,.609.669A2.477,2.477,0,0,0,3.5,12.563c.275-.167.055-.75.09-1.145.005-.059,0-.119,0-.179" transform="translate(0 -0.385)" fill="#020101"/>
        <path id="Trazado_188432" data-name="Trazado 188432" d="M272.7,7.791a.735.735,0,0,1-.709-.422.658.658,0,0,1,.072-.753,1.61,1.61,0,0,1,.121-.132q3.1-3.1,6.206-6.206a.708.708,0,0,1,1.215.144.735.735,0,0,1-.213.922c-.891.882-1.774,1.772-2.661,2.659l-3.451,3.452c-.182.182-.364.361-.581.337" transform="translate(-239.311 0.001)" fill="#040405"/>
        <path id="Trazado_188433" data-name="Trazado 188433" d="M272.626,115.637a.678.678,0,0,1,.548.265q3.108,3.105,6.211,6.214a.709.709,0,0,1,.068,1.068.685.685,0,0,1-1.093-.046q-3.111-3.1-6.213-6.212a.665.665,0,0,1-.208-.8.768.768,0,0,1,.687-.485" transform="translate(-239.282 -101.772)" fill="#020101"/>
        <path id="Trazado_188434" data-name="Trazado 188434" d="M277.074,84.248q2.174,0,4.348,0c.563,0,.884.261.887.713s-.321.722-.878.722q-4.325,0-8.651,0c-.543,0-.887-.294-.874-.736s.343-.7.865-.7q2.151,0,4.3,0" transform="translate(-239.308 -74.148)" fill="#020101"/>
        <path id="Trazado_188435" data-name="Trazado 188435" d="M121.343,35.526v.407q0,6.028,0,12.056c0,.274.007.441-.365.366q-6.445-1.293-12.9-2.555c-.285-.056-.386-.135-.384-.443q.023-3.406,0-6.812c0-.27.06-.372.35-.429q6.5-1.266,12.987-2.563c.087-.017.177-.016.3-.027" transform="translate(-94.79 -31.267)" fill="#88e0ef"/>
        <path id="Trazado_188436" data-name="Trazado 188436" d="M48.357,47.711q0,1.68,0,3.361a2.354,2.354,0,0,1-.324,1.24,1.468,1.468,0,0,1-1.359.787c-.941-.013-1.882,0-2.823,0A1.765,1.765,0,0,1,41.9,51.163c-.017-1.523,0-3.047,0-4.571,0-.762,0-1.524,0-2.285a2.216,2.216,0,0,1,.5-1.45,1.388,1.388,0,0,1,1.134-.529c.956.008,1.912,0,2.867,0a1.767,1.767,0,0,1,1.948,1.931c.018,1.15,0,2.3,0,3.451" transform="translate(-36.873 -37.253)" fill="#592fe6"/>
        <path id="Trazado_188437" data-name="Trazado 188437" d="M233.454,21.732q0-4.172,0-8.343c0-.766.22-.985.985-.987.135,0,.269,0,.4,0a.714.714,0,0,1,.76.76c.014.463,0,.927,0,1.39q0,7.737,0,15.475c0,.385.013.8-.422.943a1.667,1.667,0,0,1-1.465-.085c-.268-.172-.269-.474-.269-.767q.005-4.194,0-8.388" transform="translate(-205.465 -10.914)" fill="#592fe6"/>
        <path id="Trazado_188438" data-name="Trazado 188438" d="M59.826,148.856c0-1.464.012-2.928-.009-4.391,0-.346.1-.436.43-.416.461.027.926.016,1.388,0,.234-.007.348.038.347.313-.009,2.987,0,5.974-.01,8.961a.731.731,0,0,1-.8.775c-.164.006-.329,0-.493,0a.758.758,0,0,1-.855-.855c-.006-1.464,0-2.927,0-4.391" transform="translate(-52.647 -126.777)" fill="#88e0ef"/>
        <path id="Trazado_188439" data-name="Trazado 188439" d="M14.091,79.715c0,.06,0,.12,0,.179-.035.4.185.978-.09,1.145a2.478,2.478,0,0,1-1.442.053.659.659,0,0,1-.609-.669c-.024-.491-.024-.985,0-1.477a.673.673,0,0,1,.681-.693c.4-.026.805,0,1.208-.011.2-.005.261.075.257.264-.009.4,0,.806,0,1.209" transform="translate(-10.5 -68.861)" fill="#88e0ef"/>
      </g>
    </g>
    <g id="Grupo_126813" data-name="Grupo 126813" transform="translate(994 1553.051)">
      <g id="Grupo_126812" data-name="Grupo 126812" clip-path="url(#clip-path-14)">
        <path id="Trazado_188440" data-name="Trazado 188440" d="M38.6,192.722a6.756,6.756,0,0,1,4.485-3.814,5.484,5.484,0,0,1-1.428-5.079,5.24,5.24,0,0,1,1.98-3.093,5.467,5.467,0,0,1,8.809,4.173c.051,1.227-.251,2.021-1.541,4.01a6.8,6.8,0,0,1,2.661,1.388,6.994,6.994,0,0,1,1.787,2.407,6.14,6.14,0,0,1,1.3-1.038c.307-.169.036-.295-.04-.411A3.48,3.48,0,0,1,62,186.908a3.427,3.427,0,0,1,.415,4.274c-.234.35-.148.442.157.642a4.962,4.962,0,0,1,2.342,4.229c.019.73.008,1.461,0,2.191a.91.91,0,0,1-1.021,1.018c-2.519,0-5.038.014-7.557-.011-.414,0-.524.122-.463.492a1.325,1.325,0,0,1,0,.223c-.007.762-.329,1.085-1.095,1.085q-7.8,0-15.607,0h-.089a.913.913,0,0,1-1.008-.989c-.019-.8-.019-.8-.811-.8H30.337c-1.07,0-1.316-.233-1.294-1.32a13.079,13.079,0,0,1,.157-3.114,4.917,4.917,0,0,1,2.245-3.045c.3-.183.3-.273.113-.555a3.471,3.471,0,1,1,5.775.023c-.183.269-.168.366.11.514a4.7,4.7,0,0,1,1.155.955m8.394,6.54c2.236,0,4.473-.006,6.709.007.315,0,.4-.085.4-.4-.019-1.222.013-2.445-.016-3.667a4.713,4.713,0,0,0-4.17-4.62,30.513,30.513,0,0,0-5.627-.026,4.709,4.709,0,0,0-4.413,4.94c0,1.118.014,2.237-.009,3.354-.007.338.087.42.42.418,2.236-.015,4.473-.008,6.709-.008m-.034-10.555a3.668,3.668,0,1,0,.017-7.336,3.668,3.668,0,1,0-.017,7.336m-12.524,8.766c1.1,0,2.206-.01,3.309.007.281,0,.361-.074.343-.349-.024-.371,0-.745-.009-1.118a3.306,3.306,0,0,0-2.32-3.072,5.587,5.587,0,0,0-1.686-.122,3.242,3.242,0,0,0-3.16,2.532,11.218,11.218,0,0,0-.088,1.781c-.019.278.068.351.345.347,1.088-.017,2.176-.007,3.265-.007m25.04,0c1.118,0,2.236-.005,3.354,0,.222,0,.322-.042.308-.291-.021-.4,0-.8-.01-1.207a3.284,3.284,0,0,0-2.525-3.086,6.247,6.247,0,0,0-1.469-.072,3.238,3.238,0,0,0-3.168,2.52,11.839,11.839,0,0,0-.091,1.781c-.025.317.109.359.38.356,1.073-.013,2.147-.005,3.22-.005M36.129,189.3a1.679,1.679,0,1,0-1.686,1.7,1.676,1.676,0,0,0,1.686-1.7m25.05.009A1.68,1.68,0,1,0,59.529,191a1.675,1.675,0,0,0,1.65-1.688" transform="translate(-25.557 -158.105)" fill="#030303"/>
        <path id="Trazado_188441" data-name="Trazado 188441" d="M5.918,19.871c0-.432-.006-.865,0-1.3a.877.877,0,0,1,.812-.948C8.115,17.413,9.5,17.2,10.883,17c.287-.041.467-.124.493-.44a1.355,1.355,0,0,1,.122-.519c.356-.664.124-1.066-.466-1.48-.962-.675-1.853-1.45-2.772-2.186a.943.943,0,0,1-.268-1.434Q8.582,9.92,9.18,8.9a.934.934,0,0,1,1.35-.461c1.287.5,2.577,1,3.856,1.519a.415.415,0,0,0,.57-.136,2.028,2.028,0,0,1,.433-.449c.561-.368.575-.783.306-1.376-.5-1.095-.9-2.232-1.337-3.352a.949.949,0,0,1,.469-1.384q1.02-.6,2.045-1.186a.94.94,0,0,1,1.43.29c.836,1.048,1.682,2.089,2.5,3.152a.517.517,0,0,0,.706.21,3.952,3.952,0,0,1,.945-.255c.337-.044.425-.22.468-.522.193-1.371.4-2.739.618-4.107a.878.878,0,0,1,.972-.836q1.275-.01,2.549,0a.874.874,0,0,1,.975.833q.323,2.051.615,4.108c.042.3.126.478.464.525a4.652,4.652,0,0,1,1.075.284c.258.1.374.009.516-.171.839-1.065,1.686-2.124,2.529-3.185.49-.616.839-.682,1.535-.283.671.385,1.342.768,2.008,1.161a.924.924,0,0,1,.453,1.316c-.492,1.259-.984,2.519-1.495,3.77-.122.3-.151.528.155.715a.505.505,0,0,1,.159.156c.514.817,1.137.833,1.967.421.968-.481,2.007-.818,3.017-1.212a.947.947,0,0,1,1.378.485q.584,1,1.159,2.009a.963.963,0,0,1-.291,1.468c-1.059.846-2.115,1.7-3.187,2.526a.422.422,0,0,0-.174.592,3.277,3.277,0,0,1,.157.511c.252.928.253.918,1.222,1.056,1.164.165,2.326.345,3.488.528a.886.886,0,0,1,.862,1q.009,1.275,0,2.549a.858.858,0,0,1-.8.954c-1.337.216-2.676.426-4.019.6-.389.051-.583.157-.666.58a13.055,13.055,0,0,1-.538,1.791.9.9,0,1,1-1.676-.608,15.693,15.693,0,0,0,.665-2.5c.1-.589.354-.785.962-.875,1.34-.2,2.678-.411,4.019-.6.206-.029.264-.093.272-.3.039-.943.045-.932-.895-1.065-1.179-.167-2.356-.353-3.533-.532a.861.861,0,0,1-.793-.731A17.685,17.685,0,0,0,37.9,15.13a.866.866,0,0,1,.363-1.018c1.051-.833,2.09-1.681,3.151-2.5.268-.207.293-.357.119-.638-.4-.643-.383-.652-1.094-.373q-1.659.651-3.319,1.3a.949.949,0,0,1-1.335-.334,15.328,15.328,0,0,0-1.741-1.733.923.923,0,0,1-.3-1.266c.486-1.246.967-2.493,1.473-3.731.109-.267.046-.386-.183-.517-.712-.408-.708-.415-1.227.235q-1.1,1.38-2.2,2.76a.948.948,0,0,1-1.287.371,14.059,14.059,0,0,0-2.411-.64.922.922,0,0,1-.874-.916c-.2-1.339-.415-2.678-.6-4.019-.033-.234-.087-.323-.342-.327-.9-.012-.893-.022-1.022.888-.167,1.179-.353,2.356-.532,3.533a.871.871,0,0,1-.724.8,19.056,19.056,0,0,0-2.753.741A.9.9,0,0,1,20,7.367c-.821-1.041-1.658-2.07-2.47-3.118-.2-.253-.338-.317-.632-.132-.653.41-.664.392-.374,1.129q.637,1.617,1.273,3.235a1,1,0,0,1-.336,1.413,15.071,15.071,0,0,0-1.643,1.641c-.488.572-.731.622-1.448.34-1.2-.473-2.409-.937-3.6-1.427-.264-.108-.385-.067-.524.176-.408.714-.419.709.23,1.228.919.735,1.842,1.465,2.76,2.2A.943.943,0,0,1,13.6,15.34a13.9,13.9,0,0,0-.631,2.367c-.1.613-.331.823-.969.923-1.324.208-2.647.415-3.974.6-.242.034-.32.1-.324.35-.014.9-.022.885.846,1.008,1.194.169,2.386.353,3.577.536a.888.888,0,0,1,.81.773,17.712,17.712,0,0,0,.711,2.669.886.886,0,1,1-1.664.609,10.331,10.331,0,0,1-.6-2,.457.457,0,0,0-.457-.427c-1.283-.178-2.563-.379-3.846-.558-.945-.131-1.158-.365-1.158-1.333q0-.492,0-.984" transform="translate(-5.209 -0.001)" fill="#030303"/>
        <path id="Trazado_188442" data-name="Trazado 188442" d="M99.534,82.324A9.88,9.88,0,0,1,109.448,92c0,.642-.344,1.057-.887,1.061s-.886-.4-.9-1.049a8.051,8.051,0,0,0-15.989-1.188,11.935,11.935,0,0,0-.11,1.289.9.9,0,1,1-1.791-.036,9.893,9.893,0,0,1,7.959-9.57,9.643,9.643,0,0,1,1.806-.181" transform="translate(-79.034 -72.479)" fill="#030303"/>
        <path id="Trazado_188443" data-name="Trazado 188443" d="M287.884,7.192a3.578,3.578,0,1,1,3.592-3.565,3.589,3.589,0,0,1-3.592,3.565M289.656,3.6a1.758,1.758,0,0,0-3.516,0,1.758,1.758,0,1,0,3.516,0" transform="translate(-250.325 -0.032)" fill="#030303"/>
        <path id="Trazado_188444" data-name="Trazado 188444" d="M12.836,17.705A2.683,2.683,0,1,1,10.2,15a2.692,2.692,0,0,1,2.639,2.705m-1.823-.03a.86.86,0,1,0-.853.868.9.9,0,0,0,.853-.868" transform="translate(-6.576 -13.207)" fill="#030303"/>
        <path id="Trazado_188445" data-name="Trazado 188445" d="M16.749,113.165a.892.892,0,1,1-.88-.883.9.9,0,0,1,.88.883" transform="translate(-13.175 -98.857)" fill="#030303"/>
        <path id="Trazado_188446" data-name="Trazado 188446" d="M322.626,112.283a.893.893,0,1,1-.883.879.9.9,0,0,1,.883-.879" transform="translate(-283.274 -98.857)" fill="#030303"/>
        <path id="Trazado_188447" data-name="Trazado 188447" d="M180.478,129.033a.893.893,0,1,1,.884-.924.9.9,0,0,1-.884.924" transform="translate(-158.106 -112.033)" fill="#030303"/>
        <path id="Trazado_188448" data-name="Trazado 188448" d="M135.578,149.695a.893.893,0,1,1-.9.866.9.9,0,0,1,.9-.866" transform="translate(-118.578 -131.796)" fill="#030303"/>
        <path id="Trazado_188449" data-name="Trazado 188449" d="M15.833,226.3a.893.893,0,1,1,.912-.9.9.9,0,0,1-.912.9" transform="translate(-13.171 -197.673)" fill="#030303"/>
        <path id="Trazado_188450" data-name="Trazado 188450" d="M233.739,232.9a.892.892,0,1,1-.863-.9.9.9,0,0,1,.863.9" transform="translate(-204.221 -204.259)" fill="#030303"/>
        <path id="Trazado_188451" data-name="Trazado 188451" d="M323.529,232.9a.892.892,0,1,1-.864-.9.9.9,0,0,1,.864.9" transform="translate(-283.274 -204.259)" fill="#030303"/>
        <path id="Trazado_188452" data-name="Trazado 188452" d="M1.785,322.677a.9.9,0,0,1-.91.9A.893.893,0,0,1,.91,321.79a.9.9,0,0,1,.875.888" transform="translate(0 -283.314)" fill="#030303"/>
        <path id="Trazado_188453" data-name="Trazado 188453" d="M126.761,279.261c-2.236,0-4.473-.007-6.709.008-.333,0-.427-.08-.42-.418.022-1.118.007-2.236.009-3.354a4.708,4.708,0,0,1,4.413-4.94,30.508,30.508,0,0,1,5.627.026,4.713,4.713,0,0,1,4.17,4.62c.029,1.222,0,2.445.016,3.667,0,.313-.081.4-.4.4-2.236-.013-4.473-.007-6.709-.007" transform="translate(-105.327 -238.104)" fill="#ff5151"/>
        <path id="Trazado_188454" data-name="Trazado 188454" d="M152.008,201.917a3.668,3.668,0,1,1,3.7-3.674,3.67,3.67,0,0,1-3.7,3.674" transform="translate(-130.609 -171.316)" fill="#fdd3a9"/>
        <path id="Trazado_188455" data-name="Trazado 188455" d="M47.634,294.943c-1.088,0-2.177-.01-3.265.007-.277,0-.365-.069-.345-.347a11.217,11.217,0,0,1,.088-1.781,3.242,3.242,0,0,1,3.16-2.532,5.59,5.59,0,0,1,1.686.122,3.306,3.306,0,0,1,2.32,3.072c.009.373-.015.747.009,1.118.018.274-.063.353-.343.349-1.1-.017-2.206-.007-3.309-.007" transform="translate(-38.758 -255.576)" fill="#ff9b6a"/>
        <path id="Trazado_188456" data-name="Trazado 188456" d="M257.121,294.942c-1.073,0-2.147-.008-3.22.005-.271,0-.406-.039-.38-.356a11.846,11.846,0,0,1,.091-1.781,3.238,3.238,0,0,1,3.168-2.52,6.247,6.247,0,0,1,1.469.072,3.284,3.284,0,0,1,2.525,3.086c.012.4-.011.806.01,1.207.013.249-.086.293-.308.291-1.118-.01-2.236,0-3.354,0" transform="translate(-223.206 -255.575)" fill="#592fe6"/>
        <path id="Trazado_188457" data-name="Trazado 188457" d="M63.692,248.628a1.679,1.679,0,1,1-1.672-1.672,1.665,1.665,0,0,1,1.672,1.672" transform="translate(-53.12 -217.428)" fill="#fdd3a9"/>
        <path id="Trazado_188458" data-name="Trazado 188458" d="M273.194,248.641a1.68,1.68,0,1,1-1.708-1.68,1.663,1.663,0,0,1,1.708,1.68" transform="translate(-237.571 -217.433)" fill="#fdd3a9"/>
        <path id="Trazado_188459" data-name="Trazado 188459" d="M303.054,17a1.758,1.758,0,1,1-1.778-1.749A1.8,1.8,0,0,1,303.054,17" transform="translate(-263.723 -13.429)" fill="#ff9b6a"/>
        <path id="Trazado_188460" data-name="Trazado 188460" d="M24.437,31.095a.86.86,0,1,1-.867-.853.9.9,0,0,1,.867.853" transform="translate(-20 -26.626)" fill="#ff5151"/>
      </g>
    </g>
  </g>
</svg>
