<svg id="Grupo_128086" data-name="Grupo 128086" xmlns="http://www.w3.org/2000/svg" xmlns:xlink="http://www.w3.org/1999/xlink" width="61.675" height="80.115" viewBox="0 0 61.675 80.115">
  <defs>
    <clipPath id="clip-path">
      <rect id="Rectángulo_41104" data-name="Rectángulo 41104" width="61.675" height="80.115" fill="none"/>
    </clipPath>
    <clipPath id="clip-path-3">
      <rect id="Rectángulo_41077" data-name="Rectángulo 41077" width="61.675" height="28.233" fill="none"/>
    </clipPath>
    <clipPath id="clip-path-4">
      <path id="Trazado_190575" data-name="Trazado 190575" d="M50.772,304.527c12-4.642,31.529-.184,43.61,4.458a60.7,60.7,0,0,0-19-3.432c-8.811-.312-17.89-3.627-24.612-1.026" transform="translate(-50.772 -302.565)" fill="none"/>
    </clipPath>
    <clipPath id="clip-path-5">
      <rect id="Rectángulo_41078" data-name="Rectángulo 41078" width="11.522" height="19.796" fill="none"/>
    </clipPath>
    <clipPath id="clip-path-6">
      <rect id="Rectángulo_41079" data-name="Rectángulo 41079" width="13.344" height="8.609" fill="none"/>
    </clipPath>
    <clipPath id="clip-path-7">
      <rect id="Rectángulo_41080" data-name="Rectángulo 41080" width="13.115" height="13.285" fill="none"/>
    </clipPath>
    <clipPath id="clip-path-8">
      <rect id="Rectángulo_41081" data-name="Rectángulo 41081" width="3.462" height="22.431" fill="none"/>
    </clipPath>
    <clipPath id="clip-path-13">
      <rect id="Rectángulo_41086" data-name="Rectángulo 41086" width="14.791" height="2.284" fill="none"/>
    </clipPath>
    <clipPath id="clip-path-14">
      <rect id="Rectángulo_41087" data-name="Rectángulo 41087" width="51.314" height="8.296" fill="none"/>
    </clipPath>
    <clipPath id="clip-path-19">
      <rect id="Rectángulo_41092" data-name="Rectángulo 41092" width="14.793" height="2.284" fill="none"/>
    </clipPath>
    <clipPath id="clip-path-21">
      <rect id="Rectángulo_41094" data-name="Rectángulo 41094" width="2.458" height="2.458" fill="none"/>
    </clipPath>
    <clipPath id="clip-path-22">
      <rect id="Rectángulo_41095" data-name="Rectángulo 41095" width="2.458" height="2.459" fill="none"/>
    </clipPath>
    <clipPath id="clip-path-23">
      <rect id="Rectángulo_41096" data-name="Rectángulo 41096" width="2.459" height="2.458" fill="none"/>
    </clipPath>
    <clipPath id="clip-path-26">
      <rect id="Rectángulo_41099" data-name="Rectángulo 41099" width="2.459" height="2.459" fill="none"/>
    </clipPath>
  </defs>
  <g id="Grupo_128076" data-name="Grupo 128076" clip-path="url(#clip-path)">
    <g id="Grupo_128075" data-name="Grupo 128075">
      <g id="Grupo_128074" data-name="Grupo 128074" clip-path="url(#clip-path)">
        <g id="Grupo_127998" data-name="Grupo 127998" transform="translate(0 51.882)" style="mix-blend-mode: multiply;isolation: isolate">
          <g id="Grupo_127997" data-name="Grupo 127997">
            <g id="Grupo_127996" data-name="Grupo 127996" clip-path="url(#clip-path-3)">
              <g id="Grupo_127995" data-name="Grupo 127995" transform="translate(8.961 1.52)">
                <g id="Grupo_127994" data-name="Grupo 127994" clip-path="url(#clip-path-4)">
                  <path id="Trazado_190572" data-name="Trazado 190572" d="M50.772,297.45c5.818-2.25,13.4-3.41,21.051-3.478-7.648.069-15.233,1.228-21.051,3.478" transform="translate(-50.772 -295.489)" fill="#a3a3a3"/>
                  <path id="Trazado_190573" data-name="Trazado 190573" d="M170.043,293.956q.486,0,.973,0-.487,0-.973,0" transform="translate(-148.992 -295.472)" fill="#dadada"/>
                  <path id="Trazado_190574" data-name="Trazado 190574" d="M175.555,293.954c7.809.024,15.609,1.185,21.586,3.482-5.978-2.3-13.777-3.457-21.586-3.482" transform="translate(-153.531 -295.474)" fill="#a3a3a3"/>
                </g>
              </g>
              <path id="Trazado_190576" data-name="Trazado 190576" d="M52.572,322.694c12.082,4.642,12.146,12.169.143,16.811s-31.529,4.642-43.611,0-12.146-12.169-.142-16.811,31.529-4.642,43.61,0" transform="translate(0 -314.754)" fill="#d9d9d9"/>
            </g>
          </g>
        </g>
        <path id="Trazado_190577" data-name="Trazado 190577" d="M15.36,262.824a3.619,3.619,0,0,1,.087-.549,4.14,4.14,0,0,1,.189-.628,4.752,4.752,0,0,1,.608-1.135c.149-.212.282-.366.386-.5.066-.078.148-.167.23-.253l.031-.033.006-.007.013-.014c.044-.047.09-.094.138-.141v0h0l.635-.625c-.013.013-.025.026-.038.039l.005-.006.037-.038.015-.015.01-.01.012-.012c.213-.206.426-.391.644-.564.11-.088.223-.173.346-.261.267-.192.547-.375.855-.565.081-.048.164-.095.247-.142l.01-.006c5.044-2.836,13.052-4.094,20.857-4.335,9.547-.331,19.5.877,25.272,3.584l.093.044.07.033q.245.117.478.239l.044.023.029.016a13.954,13.954,0,0,1,1.37.816,5.341,5.341,0,0,1,2.371,2.757c.008.031.016.06.023.091,0,0,0,.006,0,.009a2.361,2.361,0,0,1-.012,1.148,2.954,2.954,0,0,0-1.079-2.954l.639.624,0,0,.083.082,0,0,.023.024-.008-.008h0l.009.009,0,0,.01.01.005.006a6.837,6.837,0,0,1,.5.579,4.882,4.882,0,0,1,.586.912,4.391,4.391,0,0,1,.5,1.751c0,.053,0,.107.005.16s.006.119.009.182c0,1.529-1.367,2.937-3.718,4.146a38.891,38.891,0,0,1-11.533,3.28,89.222,89.222,0,0,1-25.353.133q-1.17-.168-2.262-.362c-8.589-1.529-13.517-4.258-13.522-7.1a3.346,3.346,0,0,1,.023-.445" transform="translate(-12.629 -208.323)" fill="#bdbdbd"/>
        <path id="Trazado_190578" data-name="Trazado 190578" d="M31.239,393.743c-9.759-1.4-15.519-4.249-15.774-7.255a4.433,4.433,0,0,0,.5,1.874A5.564,5.564,0,0,0,17.3,390.1l.533.52h0c.048.047.1.094.149.14a9.423,9.423,0,0,0,1.478,1.094q-.324-.2-.621-.416a12.325,12.325,0,0,0,1.226.74,6.779,6.779,0,0,1-.605-.324c8.953,5.633,32.643,6.016,44.516,1.762l.006,0a17.528,17.528,0,0,0,1.973-.8,16.539,16.539,0,0,0,1.649-.871c.194-.118.367-.229.524-.334-.346.229-.722.449-1.124.661.467-.263.865-.514,1.186-.731a9.263,9.263,0,0,0,.879-.646l.064-.054a9.574,9.574,0,0,1-1,.77,8.683,8.683,0,0,0,1.3-1.037l-.02.018.08-.077.636-.625h0a5.161,5.161,0,0,0,1.7-3.389c-.719,5.893-21.957,9.91-40.584,7.242" transform="translate(-12.735 -318.273)" fill="#6e6e6e"/>
        <path id="Trazado_190579" data-name="Trazado 190579" d="M99,338.986a.37.37,0,0,0,.363-.369l0-.115a.4.4,0,0,0-.1-.276.349.349,0,0,0-.255-.118,77.15,77.15,0,0,1-13.892-1.4.456.456,0,0,0-.5.267v0a.45.45,0,0,0,0,.379.406.406,0,0,0,.284.229,79.393,79.393,0,0,0,14.1,1.4" transform="translate(-69.646 -277.274)" fill="#e8e8e8"/>
        <path id="Trazado_190580" data-name="Trazado 190580" d="M71.741,323.812l-.012-13.065c.01,6.07-21.649,10.273-40.6,7.559-9.98-1.429-15.779-4.379-15.784-7.459l.012,13.064c.006,3.08,5.8,6.03,15.784,7.459,18.892,2.706,40.615-1.474,40.6-7.558" transform="translate(-12.633 -255.9)" fill="#a1a1a1"/>
        <g id="Grupo_128001" data-name="Grupo 128001" transform="translate(47.585 54.847)" style="mix-blend-mode: multiply;isolation: isolate">
          <g id="Grupo_128000" data-name="Grupo 128000">
            <g id="Grupo_127999" data-name="Grupo 127999" clip-path="url(#clip-path-5)">
              <path id="Trazado_190581" data-name="Trazado 190581" d="M269.607,317.478v13.065c6.873-1.506,11.527-3.915,11.522-6.731l-.012-13.065c0,2.811-4.639,5.222-11.51,6.731" transform="translate(-269.607 -310.747)" fill="#c9c9c9"/>
            </g>
          </g>
        </g>
        <g id="Grupo_128004" data-name="Grupo 128004" transform="translate(45.744 68.228)" style="mix-blend-mode: multiply;isolation: isolate">
          <g id="Grupo_128003" data-name="Grupo 128003">
            <g id="Grupo_128002" data-name="Grupo 128002" clip-path="url(#clip-path-6)">
              <path id="Trazado_190582" data-name="Trazado 190582" d="M268.824,391.671c-.346.229-.722.449-1.124.661.467-.263.865-.514,1.186-.731a9.324,9.324,0,0,0,.879-.646l.064-.054a9.6,9.6,0,0,1-1,.77,8.687,8.687,0,0,0,1.3-1.037l-.02.018.08-.077.636-.625h0a5.163,5.163,0,0,0,1.7-3.389c-.326,2.675-4.883,4.964-11.5,6.416l-1.84,2.193a40.117,40.117,0,0,0,5.5-1.49l.006,0a17.531,17.531,0,0,0,1.972-.8,16.512,16.512,0,0,0,1.649-.871c.194-.118.367-.229.524-.334" transform="translate(-259.174 -386.561)" fill="#c9c9c9"/>
            </g>
          </g>
        </g>
        <g id="Grupo_128007" data-name="Grupo 128007" transform="translate(45.981 48.298)" style="mix-blend-mode: multiply;isolation: isolate">
          <g id="Grupo_128006" data-name="Grupo 128006">
            <g id="Grupo_128005" data-name="Grupo 128005" clip-path="url(#clip-path-7)">
              <path id="Trazado_190583" data-name="Trazado 190583" d="M273.62,280.01q0-.08-.005-.16a4.391,4.391,0,0,0-.5-1.751,4.879,4.879,0,0,0-.586-.912,6.868,6.868,0,0,0-.5-.579l-.005-.006-.01-.01,0,0-.009-.009h0l.008.008-.023-.024,0,0-.083-.082,0,0-.639-.624a2.954,2.954,0,0,1,1.079,2.954,2.36,2.36,0,0,0,.012-1.148s0-.006,0-.009c-.007-.03-.015-.06-.023-.091a5.341,5.341,0,0,0-2.371-2.757,13.714,13.714,0,0,0-1.3-.779l-1.341-.38-3.176,4.34-3.616,5.775,1.6,3.164.006.006a31.891,31.891,0,0,0,7.786-2.59c2.351-1.209,3.72-2.617,3.718-4.146,0-.063-.005-.123-.009-.182" transform="translate(-260.514 -273.643)" fill="#d4d4d4"/>
            </g>
          </g>
        </g>
        <g id="Grupo_128010" data-name="Grupo 128010" transform="translate(2.707 50.325)" style="mix-blend-mode: multiply;isolation: isolate">
          <g id="Grupo_128009" data-name="Grupo 128009">
            <g id="Grupo_128008" data-name="Grupo 128008" clip-path="url(#clip-path-8)">
              <path id="Trazado_190584" data-name="Trazado 190584" d="M16.531,305.2V292.184l1.919-3.434.347-3.622-1.085.266-.006.006-.015.015-.037.038-.005.005.038-.039-.635.625h0v0q-.071.07-.138.141l-.013.014-.006.007-.031.033c-.082.086-.164.175-.23.253-.1.132-.237.286-.386.5a4.751,4.751,0,0,0-.607,1.135,4.119,4.119,0,0,0-.189.628,3.623,3.623,0,0,0-.087.549,3.346,3.346,0,0,0-.023.445l.012,13.064c0,.068,0,.137.01.2a4.436,4.436,0,0,0,.5,1.874,5.561,5.561,0,0,0,1.336,1.743l.533.52h0c.048.047.1.094.149.14q.146.134.3.265Z" transform="translate(-15.336 -285.128)" fill="#e3e3e3"/>
            </g>
          </g>
        </g>
        <path id="Trazado_190585" data-name="Trazado 190585" d="M32.313,257.62c-6.237,3.774-.982,8.31,11.738,10.131s28.088.239,34.325-3.535.982-8.31-11.738-10.131-28.088-.239-34.325,3.535" transform="translate(-24.448 -208.617)" fill="#cecece"/>
        <path id="Trazado_190586" data-name="Trazado 190586" d="M15.36,136.338a3.62,3.62,0,0,1,.087-.549,4.156,4.156,0,0,1,.189-.629,4.755,4.755,0,0,1,.608-1.135c.149-.212.282-.366.386-.5.066-.078.148-.167.23-.253l.031-.033.006-.007.013-.014c.044-.047.09-.094.138-.141h0l.635-.625c-.013.013-.025.026-.038.039l.005-.005.037-.038.015-.014.01-.01.012-.012c.213-.206.426-.39.644-.563.11-.088.223-.173.346-.261.267-.192.547-.375.855-.566.081-.048.164-.095.247-.141l.01-.006c5.044-2.835,13.052-4.094,20.857-4.335,9.547-.331,19.5.877,25.272,3.584l.093.044.07.033q.245.118.478.239l.044.023.029.015a13.916,13.916,0,0,1,1.37.816,5.339,5.339,0,0,1,2.371,2.757c.008.03.016.06.023.09,0,0,0,.007,0,.01a2.359,2.359,0,0,1-.012,1.148,2.953,2.953,0,0,0-1.079-2.954l.639.624,0,0,.083.082,0,0,.023.024-.008-.008h0l.009.008,0,0,.01.01.005.006a6.84,6.84,0,0,1,.5.579,4.883,4.883,0,0,1,.586.912,4.393,4.393,0,0,1,.5,1.751c0,.053,0,.107.005.16s.006.119.009.182c0,1.528-1.367,2.937-3.718,4.146a38.888,38.888,0,0,1-11.533,3.279,89.2,89.2,0,0,1-25.353.133q-1.17-.168-2.262-.362c-8.589-1.529-13.517-4.258-13.522-7.1a3.348,3.348,0,0,1,.023-.445" transform="translate(-12.629 -104.161)" fill="#bdbdbd"/>
        <path id="Trazado_190587" data-name="Trazado 190587" d="M31.239,267.258c-9.759-1.4-15.519-4.249-15.774-7.254a4.433,4.433,0,0,0,.5,1.874A5.563,5.563,0,0,0,17.3,263.62l.533.52h0c.048.047.1.094.149.14a9.43,9.43,0,0,0,1.478,1.093q-.324-.2-.621-.416a12.36,12.36,0,0,0,1.226.74c-.226-.109-.429-.217-.605-.324,8.953,5.633,32.643,6.016,44.516,1.762l.006,0a17.534,17.534,0,0,0,1.973-.8,16.6,16.6,0,0,0,1.649-.871c.194-.118.367-.229.524-.335-.346.229-.722.449-1.124.661.467-.263.865-.514,1.186-.731a9.263,9.263,0,0,0,.879-.646l.064-.054a9.5,9.5,0,0,1-1,.77,8.686,8.686,0,0,0,1.3-1.037l-.02.018.08-.077.636-.626h0a5.161,5.161,0,0,0,1.7-3.388c-.719,5.893-21.957,9.909-40.584,7.242" transform="translate(-12.735 -214.113)" fill="#6e6e6e"/>
        <path id="Trazado_190588" data-name="Trazado 190588" d="M98.99,212.5a.369.369,0,0,0,.363-.369l0-.115a.4.4,0,0,0-.1-.277.347.347,0,0,0-.255-.118,77.165,77.165,0,0,1-13.893-1.4.456.456,0,0,0-.5.267v0a.45.45,0,0,0,0,.379.4.4,0,0,0,.284.229,79.383,79.383,0,0,0,14.1,1.4" transform="translate(-69.639 -173.111)" fill="#e8e8e8"/>
        <path id="Trazado_190589" data-name="Trazado 190589" d="M71.741,197.327l-.012-13.065c.01,6.07-21.649,10.273-40.6,7.558-9.98-1.429-15.779-4.379-15.784-7.459l.012,13.064c.006,3.08,5.8,6.03,15.784,7.459,18.892,2.706,40.615-1.473,40.6-7.558" transform="translate(-12.633 -151.74)" fill="#a1a1a1"/>
        <g id="Grupo_128013" data-name="Grupo 128013" transform="translate(47.585 32.522)" style="mix-blend-mode: multiply;isolation: isolate">
          <g id="Grupo_128012" data-name="Grupo 128012">
            <g id="Grupo_128011" data-name="Grupo 128011" clip-path="url(#clip-path-5)">
              <path id="Trazado_190590" data-name="Trazado 190590" d="M269.607,190.993v13.065c6.873-1.506,11.527-3.914,11.522-6.731l-.012-13.065c0,2.811-4.639,5.222-11.51,6.731" transform="translate(-269.607 -184.262)" fill="#c9c9c9"/>
            </g>
          </g>
        </g>
        <g id="Grupo_128016" data-name="Grupo 128016" transform="translate(45.744 45.903)" style="mix-blend-mode: multiply;isolation: isolate">
          <g id="Grupo_128015" data-name="Grupo 128015">
            <g id="Grupo_128014" data-name="Grupo 128014" clip-path="url(#clip-path-6)">
              <path id="Trazado_190591" data-name="Trazado 190591" d="M268.824,265.186c-.346.229-.722.449-1.124.661.467-.263.865-.514,1.186-.731a9.276,9.276,0,0,0,.879-.646l.064-.054a9.53,9.53,0,0,1-1,.77,8.693,8.693,0,0,0,1.3-1.037l-.02.018.08-.077.636-.625h0a5.162,5.162,0,0,0,1.7-3.388c-.326,2.676-4.883,4.964-11.5,6.416l-1.84,2.193a40.139,40.139,0,0,0,5.5-1.49l.006,0a17.6,17.6,0,0,0,1.972-.8,16.563,16.563,0,0,0,1.649-.871c.194-.118.367-.229.524-.335" transform="translate(-259.174 -260.076)" fill="#c9c9c9"/>
            </g>
          </g>
        </g>
        <g id="Grupo_128019" data-name="Grupo 128019" transform="translate(45.981 25.973)" style="mix-blend-mode: multiply;isolation: isolate">
          <g id="Grupo_128018" data-name="Grupo 128018">
            <g id="Grupo_128017" data-name="Grupo 128017" clip-path="url(#clip-path-7)">
              <path id="Trazado_190592" data-name="Trazado 190592" d="M273.62,153.525c0-.053,0-.107-.005-.16a4.392,4.392,0,0,0-.5-1.751,4.885,4.885,0,0,0-.586-.912,6.868,6.868,0,0,0-.5-.579l-.005-.006-.01-.01,0,0L272,150.1h0l.008.008-.023-.024,0,0L271.9,150l0,0-.639-.624a2.953,2.953,0,0,1,1.079,2.954,2.359,2.359,0,0,0,.012-1.148s0-.006,0-.01c-.007-.03-.015-.06-.023-.09a5.339,5.339,0,0,0-2.371-2.757,13.74,13.74,0,0,0-1.3-.779l-1.341-.38-3.176,4.34-3.616,5.775,1.6,3.165.006.005a31.883,31.883,0,0,0,7.786-2.59c2.351-1.209,3.72-2.617,3.718-4.146,0-.063-.005-.123-.009-.182" transform="translate(-260.514 -147.158)" fill="#d4d4d4"/>
            </g>
          </g>
        </g>
        <g id="Grupo_128022" data-name="Grupo 128022" transform="translate(2.707 28)" style="mix-blend-mode: multiply;isolation: isolate">
          <g id="Grupo_128021" data-name="Grupo 128021">
            <g id="Grupo_128020" data-name="Grupo 128020" clip-path="url(#clip-path-8)">
              <path id="Trazado_190593" data-name="Trazado 190593" d="M16.531,178.712V165.7l1.919-3.434.347-3.622-1.085.266-.006.006-.015.015-.037.038-.005.005.038-.039-.635.625h0v0c-.048.047-.094.094-.138.141l-.013.014-.006.007-.031.033c-.082.086-.164.175-.23.253-.1.132-.237.286-.386.5a4.75,4.75,0,0,0-.607,1.135,4.131,4.131,0,0,0-.189.629,3.615,3.615,0,0,0-.087.548,3.348,3.348,0,0,0-.023.445l.012,13.064c0,.068,0,.137.01.2h0a4.435,4.435,0,0,0,.5,1.873,5.559,5.559,0,0,0,1.336,1.743l.533.52h0q.073.07.149.141.146.134.3.264Z" transform="translate(-15.336 -158.643)" fill="#e3e3e3"/>
            </g>
          </g>
        </g>
        <path id="Trazado_190594" data-name="Trazado 190594" d="M32.313,131.135c-6.237,3.774-.982,8.31,11.738,10.131s28.088.239,34.325-3.535.982-8.31-11.738-10.131-28.088-.239-34.325,3.535" transform="translate(-24.448 -104.456)" fill="#cecece"/>
        <path id="Trazado_190595" data-name="Trazado 190595" d="M34.845,288.248h0q-.134-.087-.261-.175.128.091.261.181a6.526,6.526,0,0,0,.966.559c-.572-.3-.913-.533-.966-.565" transform="translate(-28.48 -237.228)" fill="#4271e5"/>
        <path id="Trazado_190596" data-name="Trazado 190596" d="M81,283.917c-2.516,2.341-7.523,3.765-10.81,4.4C56.719,291.052,36.649,289.74,30,284.238c-.053-.045-.119-.1-.312-.271v2.1h0c-.052,2.819,5.232,5.526,14.363,6.834,17.423,2.5,37.38-1.443,36.943-7.049H81Z" transform="translate(-24.446 -233.806)" fill="#4271e5"/>
        <path id="Trazado_190597" data-name="Trazado 190597" d="M307.477,286.1a10.6,10.6,0,0,0,2.129-1.431,14.775,14.775,0,0,1-2.129,1.431" transform="translate(-253.208 -234.423)" fill="#4271e5"/>
        <g id="Grupo_128025" data-name="Grupo 128025" transform="translate(14.927 56.123)" style="mix-blend-mode: screen;isolation: isolate">
          <g id="Grupo_128024" data-name="Grupo 128024">
            <g id="Grupo_128023" data-name="Grupo 128023" clip-path="url(#clip-path-13)">
              <path id="Trazado_190598" data-name="Trazado 190598" d="M99,320.262a.37.37,0,0,0,.363-.369l0-.115a.4.4,0,0,0-.1-.276.348.348,0,0,0-.255-.118,77.167,77.167,0,0,1-13.892-1.4.456.456,0,0,0-.5.267v0a.449.449,0,0,0,0,.379.4.4,0,0,0,.284.229,79.394,79.394,0,0,0,14.1,1.4" transform="translate(-84.573 -317.978)" fill="#497eff"/>
            </g>
          </g>
        </g>
        <g id="Grupo_128028" data-name="Grupo 128028" transform="translate(5.24 50.111)" style="mix-blend-mode: multiply;isolation: isolate">
          <g id="Grupo_128027" data-name="Grupo 128027">
            <g id="Grupo_128026" data-name="Grupo 128026" clip-path="url(#clip-path-14)">
              <path id="Trazado_190599" data-name="Trazado 190599" d="M70.19,288.318h0c-13.294,2.7-33.014,1.455-39.923-3.866l-.134-.1-.136-.11c-.053-.045-.119-.1-.312-.271v2.1h0a2.686,2.686,0,0,0,.58,1.644v-2.3a10.553,10.553,0,0,0,.9.615q-.324-.2-.621-.416a12.381,12.381,0,0,0,1.226.74c-.226-.109-.429-.217-.605-.324,7.722,4.859,26.408,5.812,39.019,3.252v2.936c6.581-1.4,11.011-3.692,10.8-6.365H81v-1.931c-2.516,2.341-7.523,3.765-10.81,4.4" transform="translate(-29.686 -283.917)" fill="#bdbdbd"/>
            </g>
          </g>
        </g>
        <path id="Trazado_190600" data-name="Trazado 190600" d="M15.36,9.853a3.62,3.62,0,0,1,.087-.549,4.143,4.143,0,0,1,.189-.628,4.753,4.753,0,0,1,.608-1.135c.149-.213.282-.366.386-.5.066-.078.148-.167.23-.253l.031-.033L16.9,6.75l.013-.014q.067-.07.138-.14v0h0l.635-.625c-.013.013-.025.026-.038.039L17.654,6l.037-.038.015-.014.01-.01.012-.012c.213-.206.426-.39.644-.563.11-.088.223-.173.346-.261.267-.192.547-.375.855-.565l.247-.142.01-.006C24.875,1.554,32.884.3,40.688.054c9.547-.331,19.5.877,25.272,3.584l.093.044.07.033q.245.118.478.239l.044.023.029.015a13.951,13.951,0,0,1,1.37.816,5.34,5.34,0,0,1,2.371,2.757c.008.03.016.06.023.09,0,0,0,.006,0,.009a2.361,2.361,0,0,1-.012,1.148,2.954,2.954,0,0,0-1.079-2.954l.639.624,0,0,.083.082,0,0L70.1,6.6l-.008-.008h0L70.1,6.6l0,0,.01.01.005.006a6.844,6.844,0,0,1,.5.579,4.854,4.854,0,0,1,.586.912,4.391,4.391,0,0,1,.5,1.751q0,.08.005.16c0,.059.006.119.009.182,0,1.528-1.367,2.937-3.718,4.146a38.9,38.9,0,0,1-11.533,3.279,89.2,89.2,0,0,1-25.353.133q-1.17-.168-2.262-.362c-8.589-1.529-13.517-4.258-13.522-7.1a3.345,3.345,0,0,1,.023-.444" transform="translate(-12.629 0)" fill="#bdbdbd"/>
        <path id="Trazado_190601" data-name="Trazado 190601" d="M31.239,140.772c-9.759-1.4-15.519-4.249-15.774-7.254a4.433,4.433,0,0,0,.5,1.874,5.572,5.572,0,0,0,1.336,1.743l.533.52h0c.048.047.1.094.149.14a9.421,9.421,0,0,0,1.478,1.094q-.324-.2-.621-.416a12.29,12.29,0,0,0,1.226.74,6.772,6.772,0,0,1-.605-.324c8.953,5.633,32.643,6.016,44.516,1.763l.006,0a17.565,17.565,0,0,0,1.973-.8,16.609,16.609,0,0,0,1.649-.871c.194-.118.367-.229.524-.335-.346.229-.722.449-1.124.661.467-.263.865-.514,1.186-.731a9.356,9.356,0,0,0,.879-.646l.064-.054a9.531,9.531,0,0,1-1,.769,8.672,8.672,0,0,0,1.3-1.037l-.02.018.08-.076.636-.625h0a5.162,5.162,0,0,0,1.7-3.388c-.719,5.893-21.957,9.909-40.584,7.242" transform="translate(-12.735 -109.952)" fill="#6e6e6e"/>
        <path id="Trazado_190602" data-name="Trazado 190602" d="M98.99,86.013a.37.37,0,0,0,.364-.369l0-.115a.4.4,0,0,0-.1-.277A.349.349,0,0,0,99,85.134a77.186,77.186,0,0,1-13.894-1.4.457.457,0,0,0-.5.267v0a.452.452,0,0,0,0,.38.406.406,0,0,0,.284.229,79.432,79.432,0,0,0,14.1,1.4" transform="translate(-69.638 -68.951)" fill="#e8e8e8"/>
        <path id="Trazado_190603" data-name="Trazado 190603" d="M71.741,70.842l-.012-13.064c.01,6.07-21.649,10.273-40.6,7.558-9.98-1.429-15.779-4.379-15.784-7.459l.012,13.065c.006,3.08,5.8,6.03,15.784,7.459,18.892,2.706,40.615-1.474,40.6-7.558" transform="translate(-12.633 -47.58)" fill="#a1a1a1"/>
        <g id="Grupo_128031" data-name="Grupo 128031" transform="translate(47.585 10.198)" style="mix-blend-mode: multiply;isolation: isolate">
          <g id="Grupo_128030" data-name="Grupo 128030">
            <g id="Grupo_128029" data-name="Grupo 128029" clip-path="url(#clip-path-5)">
              <path id="Trazado_190604" data-name="Trazado 190604" d="M269.607,64.508V77.574c6.873-1.506,11.527-3.914,11.522-6.731l-.012-13.064c0,2.811-4.639,5.222-11.51,6.73" transform="translate(-269.607 -57.778)" fill="#c9c9c9"/>
            </g>
          </g>
        </g>
        <g id="Grupo_128034" data-name="Grupo 128034" transform="translate(45.744 23.579)" style="mix-blend-mode: multiply;isolation: isolate">
          <g id="Grupo_128033" data-name="Grupo 128033">
            <g id="Grupo_128032" data-name="Grupo 128032" clip-path="url(#clip-path-6)">
              <path id="Trazado_190605" data-name="Trazado 190605" d="M268.824,138.7c-.346.229-.722.449-1.124.661.467-.263.865-.514,1.186-.731a9.375,9.375,0,0,0,.879-.646l.064-.054a9.533,9.533,0,0,1-1,.769,8.672,8.672,0,0,0,1.3-1.037l-.02.018.08-.077.636-.625h0a5.163,5.163,0,0,0,1.7-3.388c-.326,2.675-4.883,4.964-11.5,6.416l-1.84,2.193a40.19,40.19,0,0,0,5.5-1.489l.006,0a17.563,17.563,0,0,0,1.972-.8,16.566,16.566,0,0,0,1.649-.871c.194-.118.367-.229.524-.335" transform="translate(-259.174 -133.591)" fill="#c9c9c9"/>
            </g>
          </g>
        </g>
        <g id="Grupo_128037" data-name="Grupo 128037" transform="translate(45.981 3.649)" style="mix-blend-mode: multiply;isolation: isolate">
          <g id="Grupo_128036" data-name="Grupo 128036">
            <g id="Grupo_128035" data-name="Grupo 128035" clip-path="url(#clip-path-7)">
              <path id="Trazado_190606" data-name="Trazado 190606" d="M273.62,27.04q0-.08-.005-.16a4.391,4.391,0,0,0-.5-1.751,4.86,4.86,0,0,0-.586-.912,6.845,6.845,0,0,0-.5-.579l-.005-.006-.01-.01,0,0L272,23.615h0l.008.008-.023-.024,0,0-.083-.082,0,0-.639-.624a2.954,2.954,0,0,1,1.079,2.954,2.36,2.36,0,0,0,.012-1.148s0-.006,0-.009c-.007-.03-.015-.06-.023-.09a5.339,5.339,0,0,0-2.371-2.757,13.777,13.777,0,0,0-1.3-.779l-1.341-.38-3.176,4.34-3.616,5.775,1.6,3.164.006.005a31.884,31.884,0,0,0,7.786-2.59c2.351-1.209,3.72-2.617,3.718-4.146,0-.063-.005-.123-.009-.182" transform="translate(-260.514 -20.673)" fill="#d4d4d4"/>
            </g>
          </g>
        </g>
        <g id="Grupo_128040" data-name="Grupo 128040" transform="translate(2.707 5.676)" style="mix-blend-mode: multiply;isolation: isolate">
          <g id="Grupo_128039" data-name="Grupo 128039">
            <g id="Grupo_128038" data-name="Grupo 128038" clip-path="url(#clip-path-8)">
              <path id="Trazado_190607" data-name="Trazado 190607" d="M16.531,52.226V39.214l1.919-3.434.347-3.622-1.085.266-.006.006-.015.014-.037.038-.005.005.038-.038-.635.625h0l0,0h0q-.071.07-.138.14l-.013.014-.006.007-.031.034c-.082.086-.164.175-.23.253-.1.132-.237.285-.386.5a4.747,4.747,0,0,0-.607,1.135,4.133,4.133,0,0,0-.189.628,3.618,3.618,0,0,0-.087.549,3.35,3.35,0,0,0-.023.445l.012,13.064c0,.068,0,.137.01.2a4.436,4.436,0,0,0,.5,1.874,5.572,5.572,0,0,0,1.336,1.743l.533.52h0c.048.047.1.094.149.14q.146.134.3.265Z" transform="translate(-15.336 -32.158)" fill="#e3e3e3"/>
            </g>
          </g>
        </g>
        <path id="Trazado_190608" data-name="Trazado 190608" d="M32.313,4.649c-6.237,3.773-.982,8.309,11.738,10.131s28.088.239,34.325-3.535.982-8.31-11.738-10.132S38.55.875,32.313,4.649" transform="translate(-24.448 -0.295)" fill="#cecece"/>
        <path id="Trazado_190609" data-name="Trazado 190609" d="M34.845,161.761h0q-.134-.087-.261-.175.128.091.261.181a6.512,6.512,0,0,0,.966.559c-.572-.3-.913-.533-.966-.565" transform="translate(-28.48 -133.066)" fill="#4271e5"/>
        <path id="Trazado_190610" data-name="Trazado 190610" d="M81,157.431c-2.516,2.341-7.523,3.765-10.81,4.4-13.471,2.734-33.541,1.421-40.193-4.081-.053-.045-.119-.1-.312-.271v2.1h0c-.052,2.819,5.232,5.525,14.363,6.833,17.423,2.5,37.38-1.443,36.943-7.048H81Z" transform="translate(-24.446 -129.645)" fill="#4271e5"/>
        <path id="Trazado_190611" data-name="Trazado 190611" d="M307.477,159.612a10.617,10.617,0,0,0,2.129-1.431,14.8,14.8,0,0,1-2.129,1.431" transform="translate(-253.208 -130.262)" fill="#4271e5"/>
        <g id="Grupo_128043" data-name="Grupo 128043" transform="translate(14.925 33.798)" style="mix-blend-mode: screen;isolation: isolate">
          <g id="Grupo_128042" data-name="Grupo 128042">
            <g id="Grupo_128041" data-name="Grupo 128041" clip-path="url(#clip-path-19)">
              <path id="Trazado_190612" data-name="Trazado 190612" d="M98.99,193.776a.369.369,0,0,0,.364-.369l0-.116a.4.4,0,0,0-.1-.277A.349.349,0,0,0,99,192.9a77.187,77.187,0,0,1-13.894-1.4.457.457,0,0,0-.5.267v0a.452.452,0,0,0,0,.379.4.4,0,0,0,.284.229,79.417,79.417,0,0,0,14.1,1.4" transform="translate(-84.564 -191.492)" fill="#497eff"/>
            </g>
          </g>
        </g>
        <g id="Grupo_128046" data-name="Grupo 128046" transform="translate(5.24 27.786)" style="mix-blend-mode: multiply;isolation: isolate">
          <g id="Grupo_128045" data-name="Grupo 128045">
            <g id="Grupo_128044" data-name="Grupo 128044" clip-path="url(#clip-path-14)">
              <path id="Trazado_190613" data-name="Trazado 190613" d="M70.19,161.832h0c-13.294,2.7-33.014,1.455-39.923-3.866l-.134-.105-.136-.11c-.053-.045-.119-.1-.312-.271v2.1h0a2.686,2.686,0,0,0,.58,1.643v-2.3a10.648,10.648,0,0,0,.9.615q-.324-.2-.621-.416a12.343,12.343,0,0,0,1.226.74,6.69,6.69,0,0,1-.605-.324c7.722,4.859,26.408,5.812,39.019,3.252v2.936c6.581-1.4,11.011-3.692,10.8-6.365H81v-1.931c-2.516,2.341-7.523,3.765-10.81,4.4" transform="translate(-29.686 -157.431)" fill="#bdbdbd"/>
            </g>
          </g>
        </g>
        <path id="Trazado_190614" data-name="Trazado 190614" d="M81.694,130.663a2.547,2.547,0,1,1-2.547-2.547,2.547,2.547,0,0,1,2.547,2.547" transform="translate(-63.081 -105.504)" fill="#0df904"/>
        <path id="Trazado_190615" data-name="Trazado 190615" d="M79.846,128.747a2.939,2.939,0,0,1-.47,1.669,3.012,3.012,0,1,1-4.167-4.167,2.942,2.942,0,0,1,1.67-.47,2.981,2.981,0,0,0-1.629.53,2.94,2.94,0,0,0-1.216,3,2.937,2.937,0,0,0,2.279,2.279,2.964,2.964,0,0,0,3.534-2.845" transform="translate(-60.812 -103.579)" fill="#e8e8e8"/>
        <g id="Grupo_128049" data-name="Grupo 128049" transform="translate(14.838 23.93)" opacity="0.4" style="mix-blend-mode: multiply;isolation: isolate">
          <g id="Grupo_128048" data-name="Grupo 128048">
            <g id="Grupo_128047" data-name="Grupo 128047" clip-path="url(#clip-path-21)">
              <path id="Trazado_190616" data-name="Trazado 190616" d="M86.524,136.811a1.229,1.229,0,1,1-1.229-1.229,1.229,1.229,0,0,1,1.229,1.229" transform="translate(-84.066 -135.582)" fill="#4271e5"/>
            </g>
          </g>
        </g>
        <path id="Trazado_190617" data-name="Trazado 190617" d="M128.406,136.6a2.547,2.547,0,1,1-2.547-2.547,2.547,2.547,0,0,1,2.547,2.547" transform="translate(-101.548 -110.395)" fill="#0df904"/>
        <path id="Trazado_190618" data-name="Trazado 190618" d="M126.558,134.688a2.943,2.943,0,0,1-.47,1.669,3.012,3.012,0,1,1-4.167-4.167,2.942,2.942,0,0,1,1.669-.469,2.978,2.978,0,0,0-1.628.53,2.939,2.939,0,0,0-1.216,3,2.937,2.937,0,0,0,2.279,2.279,2.964,2.964,0,0,0,3.534-2.845" transform="translate(-99.279 -108.471)" fill="#e8e8e8"/>
        <g id="Grupo_128052" data-name="Grupo 128052" transform="translate(23.082 24.978)" opacity="0.4" style="mix-blend-mode: multiply;isolation: isolate">
          <g id="Grupo_128051" data-name="Grupo 128051">
            <g id="Grupo_128050" data-name="Grupo 128050" clip-path="url(#clip-path-22)">
              <path id="Trazado_190619" data-name="Trazado 190619" d="M133.235,142.75a1.229,1.229,0,1,1-1.229-1.229,1.229,1.229,0,0,1,1.229,1.229" transform="translate(-130.777 -141.521)" fill="#4271e5"/>
            </g>
          </g>
        </g>
        <path id="Trazado_190620" data-name="Trazado 190620" d="M175.118,138.373a2.547,2.547,0,1,1-2.547-2.547,2.547,2.547,0,0,1,2.547,2.547" transform="translate(-140.015 -111.853)" fill="#0df904"/>
        <path id="Trazado_190621" data-name="Trazado 190621" d="M173.27,136.458a2.941,2.941,0,0,1-.47,1.669,3.012,3.012,0,1,1-4.167-4.167,2.941,2.941,0,0,1,1.669-.47,2.98,2.98,0,0,0-1.629.53,2.94,2.94,0,0,0-1.216,3,2.938,2.938,0,0,0,2.279,2.279,2.968,2.968,0,0,0,1.68-.155,2.938,2.938,0,0,0,1.324-1.061,2.983,2.983,0,0,0,.53-1.629" transform="translate(-137.746 -109.928)" fill="#e8e8e8"/>
        <g id="Grupo_128055" data-name="Grupo 128055" transform="translate(31.326 25.291)" opacity="0.4" style="mix-blend-mode: multiply;isolation: isolate">
          <g id="Grupo_128054" data-name="Grupo 128054">
            <g id="Grupo_128053" data-name="Grupo 128053" clip-path="url(#clip-path-23)">
              <path id="Trazado_190622" data-name="Trazado 190622" d="M179.946,144.52a1.229,1.229,0,1,1-1.229-1.229,1.229,1.229,0,0,1,1.229,1.229" transform="translate(-177.487 -143.291)" fill="#4271e5"/>
            </g>
          </g>
        </g>
        <path id="Trazado_190623" data-name="Trazado 190623" d="M81.694,257.3a2.547,2.547,0,1,1-2.547-2.547,2.547,2.547,0,0,1,2.547,2.547" transform="translate(-63.081 -209.789)" fill="#0df904"/>
        <path id="Trazado_190624" data-name="Trazado 190624" d="M79.846,255.384a2.939,2.939,0,0,1-.47,1.669,3.012,3.012,0,1,1-4.167-4.167,2.942,2.942,0,0,1,1.67-.47,2.981,2.981,0,0,0-1.629.53,2.94,2.94,0,0,0-1.216,3,2.936,2.936,0,0,0,2.279,2.279,2.964,2.964,0,0,0,3.534-2.845" transform="translate(-60.812 -207.864)" fill="#e8e8e8"/>
        <g id="Grupo_128058" data-name="Grupo 128058" transform="translate(14.838 46.281)" opacity="0.4" style="mix-blend-mode: multiply;isolation: isolate">
          <g id="Grupo_128057" data-name="Grupo 128057">
            <g id="Grupo_128056" data-name="Grupo 128056" clip-path="url(#clip-path-22)">
              <path id="Trazado_190625" data-name="Trazado 190625" d="M86.524,263.447a1.229,1.229,0,1,1-1.229-1.229,1.229,1.229,0,0,1,1.229,1.229" transform="translate(-84.066 -262.218)" fill="#4271e5"/>
            </g>
          </g>
        </g>
        <path id="Trazado_190626" data-name="Trazado 190626" d="M128.406,263.24a2.547,2.547,0,1,1-2.547-2.547,2.547,2.547,0,0,1,2.547,2.547" transform="translate(-101.548 -214.681)" fill="#0df904"/>
        <path id="Trazado_190627" data-name="Trazado 190627" d="M126.558,261.325a2.944,2.944,0,0,1-.47,1.669,3.012,3.012,0,1,1-4.167-4.167,2.941,2.941,0,0,1,1.669-.47,2.976,2.976,0,0,0-1.628.53,2.939,2.939,0,0,0-1.216,3,2.937,2.937,0,0,0,2.279,2.279,2.965,2.965,0,0,0,3.534-2.845" transform="translate(-99.279 -212.756)" fill="#e8e8e8"/>
        <g id="Grupo_128061" data-name="Grupo 128061" transform="translate(23.082 47.33)" opacity="0.4" style="mix-blend-mode: multiply;isolation: isolate">
          <g id="Grupo_128060" data-name="Grupo 128060">
            <g id="Grupo_128059" data-name="Grupo 128059" clip-path="url(#clip-path-21)">
              <path id="Trazado_190628" data-name="Trazado 190628" d="M133.235,269.388a1.229,1.229,0,1,1-1.229-1.229,1.229,1.229,0,0,1,1.229,1.229" transform="translate(-130.777 -268.159)" fill="#4271e5"/>
            </g>
          </g>
        </g>
        <path id="Trazado_190629" data-name="Trazado 190629" d="M175.118,265.009a2.547,2.547,0,1,1-2.547-2.547,2.547,2.547,0,0,1,2.547,2.547" transform="translate(-140.015 -216.138)" fill="#0df904"/>
        <path id="Trazado_190630" data-name="Trazado 190630" d="M173.27,263.094a2.942,2.942,0,0,1-.47,1.669,3.012,3.012,0,1,1-4.167-4.167,2.942,2.942,0,0,1,1.669-.47,2.979,2.979,0,0,0-1.629.53,2.94,2.94,0,0,0-1.216,3,2.938,2.938,0,0,0,2.279,2.279,2.964,2.964,0,0,0,3.534-2.845" transform="translate(-137.746 -214.213)" fill="#e8e8e8"/>
        <g id="Grupo_128064" data-name="Grupo 128064" transform="translate(31.326 47.642)" opacity="0.4" style="mix-blend-mode: multiply;isolation: isolate">
          <g id="Grupo_128063" data-name="Grupo 128063">
            <g id="Grupo_128062" data-name="Grupo 128062" clip-path="url(#clip-path-26)">
              <path id="Trazado_190631" data-name="Trazado 190631" d="M179.946,271.157a1.229,1.229,0,1,1-1.229-1.229,1.229,1.229,0,0,1,1.229,1.229" transform="translate(-177.487 -269.928)" fill="#4271e5"/>
            </g>
          </g>
        </g>
        <path id="Trazado_190632" data-name="Trazado 190632" d="M81.694,383.8a2.547,2.547,0,1,1-2.547-2.547,2.547,2.547,0,0,1,2.547,2.547" transform="translate(-63.081 -313.963)" fill="#0df904"/>
        <path id="Trazado_190633" data-name="Trazado 190633" d="M79.846,381.884a2.939,2.939,0,0,1-.47,1.669,3.012,3.012,0,1,1-4.167-4.167,2.941,2.941,0,0,1,1.67-.47,2.982,2.982,0,0,0-1.629.53,2.94,2.94,0,0,0-1.216,3,2.937,2.937,0,0,0,2.279,2.279,2.964,2.964,0,0,0,3.534-2.845" transform="translate(-60.812 -312.037)" fill="#e8e8e8"/>
        <g id="Grupo_128067" data-name="Grupo 128067" transform="translate(14.838 68.608)" opacity="0.4" style="mix-blend-mode: multiply;isolation: isolate">
          <g id="Grupo_128066" data-name="Grupo 128066">
            <g id="Grupo_128065" data-name="Grupo 128065" clip-path="url(#clip-path-22)">
              <path id="Trazado_190634" data-name="Trazado 190634" d="M86.524,389.948a1.229,1.229,0,1,1-1.229-1.229,1.229,1.229,0,0,1,1.229,1.229" transform="translate(-84.066 -388.719)" fill="#4271e5"/>
            </g>
          </g>
        </g>
        <path id="Trazado_190635" data-name="Trazado 190635" d="M128.406,389.74a2.547,2.547,0,1,1-2.547-2.547,2.547,2.547,0,0,1,2.547,2.547" transform="translate(-101.548 -318.854)" fill="#0df904"/>
        <path id="Trazado_190636" data-name="Trazado 190636" d="M126.558,387.824a2.942,2.942,0,0,1-.47,1.669,3.012,3.012,0,1,1-4.167-4.167,2.941,2.941,0,0,1,1.669-.47,2.976,2.976,0,0,0-1.628.53,2.939,2.939,0,0,0-1.216,3,2.937,2.937,0,0,0,2.279,2.279,2.965,2.965,0,0,0,3.534-2.845" transform="translate(-99.279 -316.929)" fill="#e8e8e8"/>
        <g id="Grupo_128070" data-name="Grupo 128070" transform="translate(23.082 69.657)" opacity="0.4" style="mix-blend-mode: multiply;isolation: isolate">
          <g id="Grupo_128069" data-name="Grupo 128069">
            <g id="Grupo_128068" data-name="Grupo 128068" clip-path="url(#clip-path-22)">
              <path id="Trazado_190637" data-name="Trazado 190637" d="M133.235,395.888a1.229,1.229,0,1,1-1.229-1.229,1.229,1.229,0,0,1,1.229,1.229" transform="translate(-130.777 -394.659)" fill="#4271e5"/>
            </g>
          </g>
        </g>
        <path id="Trazado_190638" data-name="Trazado 190638" d="M175.118,391.51a2.547,2.547,0,1,1-2.547-2.547,2.547,2.547,0,0,1,2.547,2.547" transform="translate(-140.015 -320.311)" fill="#0df904"/>
        <path id="Trazado_190639" data-name="Trazado 190639" d="M173.27,389.594a2.942,2.942,0,0,1-.47,1.669,3.012,3.012,0,1,1-4.167-4.167,2.942,2.942,0,0,1,1.669-.469,2.98,2.98,0,0,0-1.629.53,2.94,2.94,0,0,0-1.216,3,2.939,2.939,0,0,0,2.279,2.279,2.968,2.968,0,0,0,1.68-.155,2.938,2.938,0,0,0,1.324-1.061,2.983,2.983,0,0,0,.53-1.629" transform="translate(-137.746 -318.386)" fill="#e8e8e8"/>
        <g id="Grupo_128073" data-name="Grupo 128073" transform="translate(31.326 69.969)" opacity="0.4" style="mix-blend-mode: multiply;isolation: isolate">
          <g id="Grupo_128072" data-name="Grupo 128072">
            <g id="Grupo_128071" data-name="Grupo 128071" clip-path="url(#clip-path-26)">
              <path id="Trazado_190640" data-name="Trazado 190640" d="M179.946,397.657a1.229,1.229,0,1,1-1.229-1.229,1.229,1.229,0,0,1,1.229,1.229" transform="translate(-177.487 -396.428)" fill="#4271e5"/>
            </g>
          </g>
        </g>
      </g>
    </g>
  </g>
</svg>
