<svg xmlns="http://www.w3.org/2000/svg" xmlns:xlink="http://www.w3.org/1999/xlink" width="320.316" height="219.513" viewBox="0 0 320.316 219.513">
  <defs>
    <clipPath id="clip-path">
      <rect id="Rectángulo_41190" data-name="Rectángulo 41190" width="93.949" height="94.114" fill="none"/>
    </clipPath>
    <clipPath id="clip-path-2">
      <rect id="Rectángulo_41189" data-name="Rectángulo 41189" width="42.888" height="53.495" fill="#592fe6"/>
    </clipPath>
    <clipPath id="clip-path-3">
      <rect id="Rectángulo_41191" data-name="Rectángulo 41191" width="117.066" height="94.859" fill="none"/>
    </clipPath>
    <clipPath id="clip-path-5">
      <rect id="Rectángulo_41104" data-name="Rectángulo 41104" width="112.325" height="145.908" fill="none"/>
    </clipPath>
    <clipPath id="clip-path-7">
      <rect id="Rectángulo_41077" data-name="Rectángulo 41077" width="112.325" height="51.418" fill="none"/>
    </clipPath>
    <clipPath id="clip-path-8">
      <path id="Trazado_190575" data-name="Trazado 190575" d="M50.772,306.138c21.861-8.455,57.421-.336,79.424,8.119-9.682-3.721-21.99-5.8-34.6-6.25-16.046-.568-32.583-6.6-44.824-1.869" transform="translate(-50.772 -302.565)" fill="none"/>
    </clipPath>
    <clipPath id="clip-path-9">
      <rect id="Rectángulo_41078" data-name="Rectángulo 41078" width="20.984" height="36.053" fill="none"/>
    </clipPath>
    <clipPath id="clip-path-10">
      <rect id="Rectángulo_41079" data-name="Rectángulo 41079" width="24.302" height="15.679" fill="none"/>
    </clipPath>
    <clipPath id="clip-path-11">
      <rect id="Rectángulo_41080" data-name="Rectángulo 41080" width="23.885" height="24.195" fill="none"/>
    </clipPath>
    <clipPath id="clip-path-12">
      <rect id="Rectángulo_41081" data-name="Rectángulo 41081" width="6.305" height="40.853" fill="none"/>
    </clipPath>
    <clipPath id="clip-path-16">
      <rect id="Rectángulo_41085" data-name="Rectángulo 41085" width="6.305" height="40.852" fill="none"/>
    </clipPath>
    <clipPath id="clip-path-17">
      <rect id="Rectángulo_41086" data-name="Rectángulo 41086" width="26.938" height="4.159" fill="none"/>
    </clipPath>
    <clipPath id="clip-path-18">
      <rect id="Rectángulo_41087" data-name="Rectángulo 41087" width="93.455" height="15.108" fill="none"/>
    </clipPath>
    <clipPath id="clip-path-23">
      <rect id="Rectángulo_41092" data-name="Rectángulo 41092" width="26.941" height="4.16" fill="none"/>
    </clipPath>
    <clipPath id="clip-path-24">
      <rect id="Rectángulo_41093" data-name="Rectángulo 41093" width="93.455" height="15.109" fill="none"/>
    </clipPath>
    <clipPath id="clip-path-25">
      <rect id="Rectángulo_41094" data-name="Rectángulo 41094" width="4.477" height="4.477" fill="none"/>
    </clipPath>
    <clipPath id="clip-path-26">
      <rect id="Rectángulo_41095" data-name="Rectángulo 41095" width="4.477" height="4.478" fill="none"/>
    </clipPath>
    <clipPath id="clip-path-27">
      <rect id="Rectángulo_41096" data-name="Rectángulo 41096" width="4.478" height="4.477" fill="none"/>
    </clipPath>
    <clipPath id="clip-path-30">
      <rect id="Rectángulo_41099" data-name="Rectángulo 41099" width="4.478" height="4.478" fill="none"/>
    </clipPath>
  </defs>
  <g id="Grupo_128219" data-name="Grupo 128219" transform="translate(-328.004 -442.529)">
    <g id="Grupo_128218" data-name="Grupo 128218" transform="translate(328.004 442.529)">
      <path id="Trazado_189360" data-name="Trazado 189360" d="M175.735,602.118H215.09l10.293,9.51h80.064a4.683,4.683,0,0,1,4.488,4.808v20.23a4.683,4.683,0,0,1-4.488,4.808H221.5a4.683,4.683,0,0,1-4.488-4.808v-8.619H175.735a3.923,3.923,0,0,1-4.025-3.74V605.822a3.894,3.894,0,0,1,4.025-3.7" transform="translate(-167.827 -555.06)" fill="#feb542" fill-rule="evenodd"/>
      <g id="Grupo_128214" data-name="Grupo 128214" transform="translate(24.989 0)">
        <g id="Grupo_128213" data-name="Grupo 128213" clip-path="url(#clip-path)">
          <path id="Trazado_190830" data-name="Trazado 190830" d="M118.564,239.979H48.126q0-4.539,0-9.078-.01-9.581-.026-19.162c.009-5.9.035-11.794.006-17.691,0-.838.213-1.053,1.05-1.049,5.9.029,11.794,0,17.691-.006.4.009.794.025,1.19.025q24.754,0,49.507-.019c.842,0,1.04.219,1.039,1.047q-.039,22.966-.019,45.933m-34.488-35.22h-22.1c-.244,0-.491-.016-.733.006a1.547,1.547,0,0,0-1.33,1.105,1.321,1.321,0,0,0,.517,1.458,1.818,1.818,0,0,0,1.368.37q22.283-.008,44.567,0c.153,0,.306,0,.458,0a1.51,1.51,0,0,0,1.419-1.111c.232-.652-.139-1.151-.661-1.565a1.755,1.755,0,0,0-1.22-.256q-11.142,0-22.283,0m-.091,14.675q11.279,0,22.558,0a1.488,1.488,0,1,0,0-2.932q-22.467,0-44.933,0a1.432,1.432,0,0,0-.885.153c-.561.385-1.039.861-.829,1.58a1.6,1.6,0,0,0,1.711,1.21q11.187-.026,22.375-.01m0,11.74q11.279,0,22.558,0a1.488,1.488,0,1,0,0-2.932q-22.467,0-44.933,0a1.431,1.431,0,0,0-.884.153c-.561.385-1.039.861-.829,1.58a1.6,1.6,0,0,0,1.711,1.209q11.187-.025,22.375-.01" transform="translate(-36.354 -145.865)" fill="#fefefe"/>
          <path id="Trazado_190831" data-name="Trazado 190831" d="M176.586,96.819q0-22.966.019-45.932c0-.828-.2-1.048-1.039-1.047q-24.754.04-49.507.019c-.4,0-.794-.016-1.19-.025.222-.249.433-.51.669-.746q7.964-7.971,15.93-15.94c.252-.253.594-.45.643-.859.366-.013.731-.037,1.1-.037q7.737,0,15.474,0a5.913,5.913,0,0,0,5-2.393,6.311,6.311,0,0,0,1.174-3.956q0-8.194.034-16.387a58.217,58.217,0,0,0,6.025-5.935,6.111,6.111,0,0,1,2.023,1.535q5.7,5.687,11.39,11.383c1.582,1.579,3.311,3.045,4,5.3V92.233c-.515.665-.639,1.525-1.157,2.205a7.516,7.516,0,0,1-3.612,2.38Z" transform="translate(-94.376 -2.705)" fill="#592fe6"/>
          <path id="Trazado_190832" data-name="Trazado 190832" d="M4.743,298c-.652-.493-1.491-.612-2.147-1.117A5.654,5.654,0,0,1,.19,292.37c-.054-3.745,0-7.491.007-11.237.376-.037.561-.345.792-.576,2.005-2,4-4.005,6.007-6,1.618-1.607,3.249-3.2,4.875-4.8q.013,9.581.026,19.162,0,4.539,0,9.077Z" transform="translate(-0.125 -203.886)" fill="#1e88e4"/>
          <path id="Trazado_190833" data-name="Trazado 190833" d="M11.745,66.407c-1.625,1.6-3.257,3.191-4.875,4.8-2.008,1.994-4,4-6.007,6-.232.231-.417.538-.792.576-.013-.335-.037-.67-.037-1.005C.032,53.461.061,30.149,0,6.836A6.062,6.062,0,0,1,6.1.711c1.889.1,3.787.036,5.68.046q0,11.729,0,23.458a5.949,5.949,0,0,0,5.9,5.86q7.7.013,15.394,0c.295,0,.616.1.877-.14,3.922.312,7.851.066,11.776.144l2.008.039c-.049.409-.391.607-.644.859q-7.961,7.973-15.93,15.94c-.236.236-.446.5-.669.746-5.9.009-11.794.035-17.691.006-.837,0-1.054.211-1.05,1.049.03,5.9,0,11.794-.006,17.691" transform="translate(0 -0.532)" fill="#592fe6"/>
          <path id="Trazado_190834" data-name="Trazado 190834" d="M120.418,241.159q11.142,0,22.283,0a1.757,1.757,0,0,1,1.22.256c.522.415.894.913.661,1.565a1.51,1.51,0,0,1-1.419,1.111c-.153,0-.305,0-.458,0q-22.283,0-44.566,0a1.819,1.819,0,0,1-1.368-.37,1.321,1.321,0,0,1-.517-1.458,1.548,1.548,0,0,1,1.33-1.105c.243-.022.489-.006.733-.006h22.1" transform="translate(-72.696 -182.265)" fill="#e1e3e4"/>
          <path id="Trazado_190835" data-name="Trazado 190835" d="M120.352,292.182q-11.187,0-22.375.01a1.6,1.6,0,0,1-1.711-1.21c-.21-.719.268-1.195.829-1.58a1.432,1.432,0,0,1,.885-.153q22.467,0,44.933,0a1.488,1.488,0,1,1,0,2.932q-11.279,0-22.558,0" transform="translate(-72.721 -218.613)" fill="#e1e3e4"/>
          <path id="Trazado_190836" data-name="Trazado 190836" d="M120.352,340.257q-11.187,0-22.375.01a1.6,1.6,0,0,1-1.711-1.209c-.21-.719.268-1.2.829-1.58a1.431,1.431,0,0,1,.884-.153q22.467,0,44.933,0a1.488,1.488,0,1,1,0,2.932q-11.279,0-22.558,0" transform="translate(-72.72 -254.948)" fill="#e1e3e4"/>
          <path id="Trazado_190837" data-name="Trazado 190837" d="M288.618,7.345q-.019-3.013-.037-6.026c0-.263-.064-.6.365-.58,1.749.082,3.534-.292,5.236.394a3.335,3.335,0,0,1,.461.277,58.236,58.236,0,0,1-6.026,5.934" transform="translate(-218.108 -0.536)" fill="#2a1379"/>
          <path id="Trazado_190838" data-name="Trazado 190838" d="M70.386,29.948c-.262.236-.582.139-.877.14q-7.7.008-15.394,0a5.949,5.949,0,0,1-5.9-5.859Q48.2,12.5,48.214.772c5.653-.01,11.305,0,16.957-.048.776-.006.645.424.645.87q0,7.792,0,15.584,0,3.209,0,6.417c0,3.37,1.377,5.279,4.569,6.353" transform="translate(-36.436 -0.547)" fill="#2a1379"/>
          <path id="Trazado_190839" data-name="Trazado 190839" d="M216.472,34.059q-.018-5.539-.035-11.079c-.006-3.144.011-6.289-.012-9.433,0-.568.111-.795.744-.789,3.419.031,6.838.022,10.257.007.5,0,.772.049.764.674-.039,3.082-.03,6.165-.038,9.248-.249.221-.51.43-.745.665q-5.04,5.032-10.077,10.067c-.252.251-.449.592-.857.641" transform="translate(-163.574 -9.642)" fill="#2a1379"/>
          <path id="Trazado_190840" data-name="Trazado 190840" d="M216.459,64.79c.408-.049.6-.389.857-.641q5.043-5.029,10.077-10.067c.235-.235.5-.444.745-.665.008,4.3.009,8.6.034,12.9,0,.5-.113.684-.652.681q-5.213-.035-10.428,0c-.5,0-.731-.106-.678-.651.05-.514.032-1.034.045-1.552" transform="translate(-163.561 -40.374)" fill="#2a1379"/>
          <path id="Trazado_190841" data-name="Trazado 190841" d="M161.467,0Q139,.009,116.535,0V.178h.279c.776-.006.645.424.645.87q0,7.792,0,15.584,0,3.209,0,6.417c0,3.37,1.377,5.279,4.569,6.353,3.922.312,7.851.066,11.776.144l2.008.039c.365-.013.731-.037,1.1-.037q7.737,0,15.474,0a5.913,5.913,0,0,0,5-2.393,6.311,6.311,0,0,0,1.174-3.956q0-8.194.034-16.387-.019-3.013-.036-6.026c0-.263-.064-.6.365-.58.847.04,1.7-.027,2.551-.029Zm-8.779,25.941c0,.5-.113.684-.652.681q-5.214-.035-10.428,0c-.5,0-.731-.106-.678-.651.05-.514.032-1.034.045-1.552q-.018-5.539-.035-11.079c-.006-3.144.011-6.289-.012-9.433,0-.568.111-.795.744-.789,3.419.031,6.838.022,10.257.007.5,0,.772.049.764.674-.04,3.082-.031,6.165-.039,9.248.008,4.3.009,8.6.034,12.9" transform="translate(-88.078)" fill="#dee4f0"/>
        </g>
      </g>
      <path id="Trazado_189361" data-name="Trazado 189361" d="M154.729,692.54H293.916a3.42,3.42,0,0,1,3.419,3.419v78.284a3.413,3.413,0,0,1-3.419,3.383H154.729a3.4,3.4,0,0,1-3.383-3.383V695.959a3.413,3.413,0,0,1,3.383-3.419" transform="translate(-151.346 -628.244)" fill="#eba73b" fill-rule="evenodd"/>
      <g id="Grupo_128211" data-name="Grupo 128211" transform="matrix(-0.966, 0.259, -0.259, -0.966, 97.4, 132.452)">
        <g id="Grupo_128210" data-name="Grupo 128210" clip-path="url(#clip-path-2)">
          <path id="Trazado_190829" data-name="Trazado 190829" d="M19.457,53.5a10.825,10.825,0,0,0-2.063-.391A21.333,21.333,0,0,1,5.751,46.581,21.242,21.242,0,0,1,.261,35.3C.107,34.35.061,33.393,0,32.436c-.022-.355.123-.393.419-.391,1.483.012,2.966.023,4.448-.006.416-.008.537.122.541.516a14.446,14.446,0,0,0,1.068,5.292,15.748,15.748,0,0,0,9.184,9.17,15.355,15.355,0,0,0,13.319-.8,15.666,15.666,0,0,0,8.051-10.307A16.093,16.093,0,0,0,21.891,16c-.374-.012-.455.076-.454.441.015,3.209.009,6.419.009,9.628v.5l-.144.1a2.981,2.981,0,0,0-.29-.405Q14.726,19.978,8.425,13.7c-.338-.336-.3-.486.012-.8Q14.744,6.627,21.024.327A1.177,1.177,0,0,1,21.446,0V.534c0,3.209.006,6.419-.008,9.628,0,.345.06.477.44.482a20.783,20.783,0,0,1,9.465,2.44,21.322,21.322,0,0,1,6.87,5.694,21.148,21.148,0,0,1,4.176,8.781,20.684,20.684,0,0,1-.774,11.674A21.321,21.321,0,0,1,31.7,50.851a20.187,20.187,0,0,1-8.268,2.542c-.082.007-.177-.014-.2.1Z" transform="translate(0 0)" fill="#592fe6"/>
        </g>
      </g>
    </g>
    <g id="Grupo_128217" data-name="Grupo 128217" transform="translate(502.331 453.898)">
      <path id="Trazado_190828" data-name="Trazado 190828" d="M175.735,602.118H215.09l10.293,9.51h80.064a4.683,4.683,0,0,1,4.488,4.808v20.23a4.683,4.683,0,0,1-4.488,4.808H221.5a4.683,4.683,0,0,1-4.488-4.808v-8.619H175.735a3.923,3.923,0,0,1-4.025-3.74V605.822a3.894,3.894,0,0,1,4.025-3.7" transform="translate(-167.827 -566.43)" fill="#feb542" fill-rule="evenodd"/>
      <g id="Grupo_128216" data-name="Grupo 128216" transform="translate(14.124 0)">
        <g id="Grupo_128215" data-name="Grupo 128215" clip-path="url(#clip-path-3)">
          <path id="Trazado_190842" data-name="Trazado 190842" d="M117.075,64.255q0,32.152,0,64.3a9.21,9.21,0,0,1-8.871,8.853q-49.678.008-99.355,0c-4.458,0-8.8-4.134-8.8-8.531Q0,96.665.043,64.45c0-.084.012-.168.018-.251H44.607c.25.023.5.066.751.066q35.858,0,71.716-.011M104.99,91.984a13.378,13.378,0,1,0-13.347,13.4,13.312,13.312,0,0,0,13.347-13.4M91.571,112.955c-4.073,0-8.147.013-12.22-.012-.754,0-1.155.122-1.138,1.02.05,2.687.039,5.375,0,8.062-.01.76.231,1.023,1.007,1.02q12.346-.032,24.691,0c.828,0,1.089-.263,1.076-1.084-.042-2.6-.053-5.208,0-7.81.021-.936-.255-1.23-1.206-1.219-4.072.048-8.146.02-12.219.021M36.346,82.408H13.028a8.457,8.457,0,0,0-1.133.02,1.61,1.61,0,0,0-1.537,1.683A1.679,1.679,0,0,0,11.8,85.9a4.055,4.055,0,0,0,1,.039q23.444,0,46.888,0a3.2,3.2,0,0,0,1.486-.172,1.651,1.651,0,0,0,1.08-1.8,1.675,1.675,0,0,0-1.584-1.537c-.376-.03-.756-.017-1.134-.017H36.346M36.24,108.14q11.659,0,23.318,0a5.419,5.419,0,0,0,1.254-.056,1.745,1.745,0,0,0-.259-3.466c-.293-.013-.588-.009-.882-.009H12.908a6.728,6.728,0,0,0-1.132.033,1.736,1.736,0,0,0-1.19,2.624,2.152,2.152,0,0,0,2.084.883q11.784-.021,23.57-.008M30.9,93.507H22.833c-3.529,0-7.058-.02-10.587.011A1.743,1.743,0,0,0,10.6,96.193a2.19,2.19,0,0,0,2.1.856q13.8-.019,27.6-.008c2.941,0,5.882-.009,8.823.006a2.175,2.175,0,0,0,1.92-.725,1.548,1.548,0,0,0,.218-1.762A1.931,1.931,0,0,0,49.3,93.5c-6.134.019-12.268.01-18.4.009m.16,22.2q-9.264,0-18.528,0c-1.457,0-2.143.55-2.177,1.691-.035,1.158.748,1.835,2.187,1.836q18.275.008,36.552,0c1.438,0,2.324-.662,2.36-1.72.037-1.1-.873-1.809-2.369-1.81q-9.012-.005-18.024,0" transform="translate(-0.02 -42.556)" fill="#e0f6fe"/>
          <path id="Trazado_190843" data-name="Trazado 190843" d="M204.724,21.7q-35.858.007-71.716.011c-.25,0-.5-.043-.751-.066.13-.308.249-.621.392-.923q4.861-10.34,9.727-20.679c3.233-.011,6.466-.031,9.7-.032Q174.686,0,197.3,0a8,8,0,0,1,7.438,7.464q-.006,7.118-.012,14.235M172.393,9.085q-11.088,0-22.176,0c-1.284,0-2.182.693-2.23,1.7-.051,1.041.892,1.829,2.257,1.829q22.05.009,44.1,0c1.44,0,2.294-.67,2.309-1.755.018-1.249-.663-1.773-2.336-1.773q-10.962,0-21.924,0" transform="translate(-87.67 0)" fill="#592fe6"/>
          <path id="Trazado_190844" data-name="Trazado 190844" d="M54.7.047q-4.864,10.339-9.727,20.678c-.142.3-.262.615-.392.923l-44.546,0c-.007-4.665-.088-9.332,0-14A7.956,7.956,0,0,1,8.175.019Q22.739-.011,37.3.014,46,.019,54.7.047M35.955,10.875a4.034,4.034,0,1,0-8.068-.036,4.034,4.034,0,0,0,8.068.036M15.662,6.81a4.041,4.041,0,0,0-3.994,4.035,4.134,4.134,0,0,0,4.038,4.027,4.043,4.043,0,0,0,4.019-4.13A3.976,3.976,0,0,0,15.662,6.81" transform="translate(0 -0.004)" fill="#592fe6"/>
          <path id="Trazado_190845" data-name="Trazado 190845" d="M258.759,120.355A13.378,13.378,0,1,1,245.378,107a13.324,13.324,0,0,1,13.381,13.355" transform="translate(-153.789 -70.928)" fill="#88e0ef"/>
          <path id="Trazado_190846" data-name="Trazado 190846" d="M245.3,208.782c4.073,0,8.147.027,12.219-.02.95-.011,1.226.283,1.206,1.219-.057,2.6-.046,5.207,0,7.81.013.82-.248,1.086-1.076,1.084q-12.345-.037-24.691,0c-.776,0-1.016-.261-1.007-1.02.034-2.687.045-5.375,0-8.062-.017-.9.384-1.025,1.138-1.02,4.073.025,8.147.012,12.22.012" transform="translate(-153.747 -138.382)" fill="#a3ddf6"/>
          <path id="Trazado_190847" data-name="Trazado 190847" d="M56.647,118.193H79.839c.378,0,.758-.013,1.134.017a1.676,1.676,0,0,1,1.584,1.537,1.651,1.651,0,0,1-1.08,1.8,3.2,3.2,0,0,1-1.486.173q-23.444,0-46.888,0a4.04,4.04,0,0,1-1-.039,1.678,1.678,0,0,1-1.44-1.79,1.61,1.61,0,0,1,1.537-1.683,8.4,8.4,0,0,1,1.133-.019H56.647" transform="translate(-20.322 -78.341)" fill="#5ab7e7"/>
          <path id="Trazado_190848" data-name="Trazado 190848" d="M56.48,187.58q-11.785,0-23.57.008a2.153,2.153,0,0,1-2.083-.884,1.736,1.736,0,0,1,1.19-2.624,6.7,6.7,0,0,1,1.132-.033q23.381,0,46.762,0c.294,0,.589,0,.882.009a1.745,1.745,0,0,1,.259,3.466,5.442,5.442,0,0,1-1.254.057q-11.659,0-23.318,0" transform="translate(-20.261 -121.995)" fill="#5ab7e7"/>
          <path id="Trazado_190849" data-name="Trazado 190849" d="M51.112,151.117c6.134,0,12.268.009,18.4-.01a1.93,1.93,0,0,1,1.963,1.062,1.548,1.548,0,0,1-.218,1.762,2.176,2.176,0,0,1-1.92.725c-2.941-.014-5.882-.006-8.823-.006q-13.8,0-27.6.008a2.191,2.191,0,0,1-2.1-.856,1.744,1.744,0,0,1,1.644-2.674c3.529-.031,7.058-.011,10.587-.011h8.067" transform="translate(-20.233 -100.165)" fill="#5ab7e7"/>
          <path id="Trazado_190850" data-name="Trazado 190850" d="M51.357,216.981q9.012,0,18.024,0c1.5,0,2.406.705,2.369,1.81-.036,1.058-.922,1.719-2.36,1.72q-18.276.006-36.552,0c-1.438,0-2.221-.678-2.187-1.836.034-1.141.72-1.689,2.177-1.691q9.264-.009,18.528,0" transform="translate(-20.318 -143.831)" fill="#5ab7e7"/>
          <path id="Trazado_190851" data-name="Trazado 190851" d="M203.318,26.945q10.962,0,21.924,0c1.673,0,2.353.524,2.336,1.773-.015,1.085-.869,1.755-2.309,1.755q-22.05.008-44.1,0c-1.365,0-2.308-.789-2.257-1.83.049-1,.946-1.7,2.23-1.7q11.088-.005,22.176,0" transform="translate(-118.595 -17.861)" fill="#ff9b6a"/>
          <path id="Trazado_190852" data-name="Trazado 190852" d="M90.788,24.255a4.034,4.034,0,0,1-8.068-.035,4.034,4.034,0,1,1,8.068.035" transform="translate(-54.833 -13.384)" fill="#ff9b6a"/>
          <path id="Trazado_190853" data-name="Trazado 190853" d="M38.6,20.188a3.976,3.976,0,0,1,4.062,3.932,4.043,4.043,0,0,1-4.019,4.13,4.134,4.134,0,0,1-4.038-4.027A4.041,4.041,0,0,1,38.6,20.188" transform="translate(-22.943 -13.382)" fill="#ff9b6a"/>
        </g>
      </g>
      <path id="Trazado_190827" data-name="Trazado 190827" d="M154.729,692.54H293.916a3.42,3.42,0,0,1,3.419,3.419v78.284a3.413,3.413,0,0,1-3.419,3.383H154.729a3.4,3.4,0,0,1-3.383-3.383V695.959a3.413,3.413,0,0,1,3.383-3.419" transform="translate(-151.346 -639.613)" fill="#eba73b" fill-rule="evenodd"/>
      <g id="Grupo_128212" data-name="Grupo 128212" transform="matrix(0.966, -0.259, 0.259, 0.966, 48.15, 74.575)">
        <g id="Grupo_128210-2" data-name="Grupo 128210" clip-path="url(#clip-path-2)">
          <path id="Trazado_190829-2" data-name="Trazado 190829" d="M19.457,53.5a10.825,10.825,0,0,0-2.063-.391A21.333,21.333,0,0,1,5.751,46.581,21.242,21.242,0,0,1,.261,35.3C.107,34.35.061,33.393,0,32.436c-.022-.355.123-.393.419-.391,1.483.012,2.966.023,4.448-.006.416-.008.537.122.541.516a14.446,14.446,0,0,0,1.068,5.292,15.748,15.748,0,0,0,9.184,9.17,15.355,15.355,0,0,0,13.319-.8,15.666,15.666,0,0,0,8.051-10.307A16.093,16.093,0,0,0,21.891,16c-.374-.012-.455.076-.454.441.015,3.209.009,6.419.009,9.628v.5l-.144.1a2.981,2.981,0,0,0-.29-.405Q14.726,19.978,8.425,13.7c-.338-.336-.3-.486.012-.8Q14.744,6.627,21.024.327A1.177,1.177,0,0,1,21.446,0V.534c0,3.209.006,6.419-.008,9.628,0,.345.06.477.44.482a20.783,20.783,0,0,1,9.465,2.44,21.322,21.322,0,0,1,6.87,5.694,21.148,21.148,0,0,1,4.176,8.781,20.684,20.684,0,0,1-.774,11.674A21.321,21.321,0,0,1,31.7,50.851a20.187,20.187,0,0,1-8.268,2.542c-.082.007-.177-.014-.2.1Z" transform="translate(0 0)" fill="#592fe6"/>
        </g>
      </g>
    </g>
    <g id="Grupo_128086" data-name="Grupo 128086" transform="translate(432 516.135)">
      <g id="Grupo_128076" data-name="Grupo 128076" clip-path="url(#clip-path-5)">
        <g id="Grupo_128075" data-name="Grupo 128075">
          <g id="Grupo_128074" data-name="Grupo 128074" clip-path="url(#clip-path-5)">
            <g id="Grupo_127998" data-name="Grupo 127998" transform="translate(0 94.489)" style="mix-blend-mode: multiply;isolation: isolate">
              <g id="Grupo_127997" data-name="Grupo 127997">
                <g id="Grupo_127996" data-name="Grupo 127996" clip-path="url(#clip-path-7)">
                  <g id="Grupo_127995" data-name="Grupo 127995" transform="translate(16.32 2.769)">
                    <g id="Grupo_127994" data-name="Grupo 127994" clip-path="url(#clip-path-8)">
                      <path id="Trazado_190572" data-name="Trazado 190572" d="M50.772,300.307c10.6-4.1,24.41-6.21,38.339-6.335-13.929.125-27.743,2.237-38.339,6.335" transform="translate(-50.772 -296.734)" fill="#a3a3a3"/>
                      <path id="Trazado_190573" data-name="Trazado 190573" d="M170.043,293.959q.885-.009,1.772-.006-.886,0-1.772.006" transform="translate(-131.704 -296.721)" fill="#dadada"/>
                      <path id="Trazado_190574" data-name="Trazado 190574" d="M175.555,293.954c14.223.044,28.427,2.158,39.314,6.341-10.886-4.183-25.091-6.3-39.314-6.341" transform="translate(-135.444 -296.722)" fill="#a3a3a3"/>
                    </g>
                  </g>
                  <path id="Trazado_190576" data-name="Trazado 190576" d="M95.745,325.553c22,8.454,22.121,22.162.26,30.616s-57.422,8.455-79.426,0-22.12-22.162-.259-30.616,57.421-8.455,79.424,0" transform="translate(0 -311.093)" fill="#d9d9d9"/>
                </g>
              </g>
            </g>
            <path id="Trazado_190577" data-name="Trazado 190577" d="M15.38,270.915a6.591,6.591,0,0,1,.159-1,7.542,7.542,0,0,1,.344-1.144,8.655,8.655,0,0,1,1.106-2.067c.272-.386.513-.666.7-.906.12-.142.269-.3.419-.461l.057-.06.011-.013c.007-.009.016-.016.024-.025q.122-.129.251-.256l0,0,0,0h0l1.157-1.138c-.024.023-.046.047-.069.071l.01-.01c.023-.023.045-.046.068-.069l.027-.027.018-.018.022-.021c.389-.375.775-.712,1.173-1.026.2-.161.406-.316.63-.476.486-.349,1-.683,1.557-1.029.148-.087.3-.173.45-.258l.019-.011c9.186-5.164,23.771-7.456,37.984-7.9,17.388-.6,35.523,1.6,46.025,6.527l.169.079.127.06q.446.213.871.435l.081.041.052.028a25.409,25.409,0,0,1,2.5,1.486c2.486,1.694,3.875,3.382,4.318,5.021.015.056.029.11.042.165,0,.006,0,.011,0,.017a4.3,4.3,0,0,1-.022,2.091c.484-1.752-.111-3.569-1.966-5.38l1.163,1.136.007.008c.05.049.1.1.151.15l.008.009.042.044-.014-.014,0,0,.016.016,0,0,.018.018.01.011a12.446,12.446,0,0,1,.918,1.055,8.89,8.89,0,0,1,1.067,1.66,8,8,0,0,1,.916,3.19c.006.1.009.194.01.292s.011.217.016.331c0,2.784-2.489,5.348-6.771,7.551-4.989,2.613-12.391,4.65-21,5.973a162.5,162.5,0,0,1-46.174.242q-2.13-.306-4.119-.66c-15.643-2.784-24.618-7.754-24.627-12.925a6.1,6.1,0,0,1,.042-.81" transform="translate(-10.406 -171.655)" fill="#bdbdbd"/>
            <path id="Trazado_190578" data-name="Trazado 190578" d="M44.193,399.7c-17.774-2.545-28.263-7.739-28.728-13.212a8.073,8.073,0,0,0,.909,3.412,10.134,10.134,0,0,0,2.433,3.174l.971.947h0c.088.086.179.171.272.256a17.163,17.163,0,0,0,2.692,1.992q-.59-.371-1.132-.758a22.439,22.439,0,0,0,2.234,1.348,12.354,12.354,0,0,1-1.1-.59c16.305,10.259,59.45,10.957,81.074,3.209l.012,0a31.919,31.919,0,0,0,3.592-1.461,30.128,30.128,0,0,0,3-1.586c.354-.214.669-.417.955-.609-.63.417-1.315.818-2.048,1.2.851-.479,1.575-.936,2.16-1.331a16.863,16.863,0,0,0,1.6-1.177l.117-.1a17.44,17.44,0,0,1-1.83,1.4,15.813,15.813,0,0,0,2.371-1.888l-.036.032c.049-.046.1-.093.146-.139l1.159-1.139h0a9.4,9.4,0,0,0,3.087-6.171C116.8,397.243,78.116,404.559,44.193,399.7" transform="translate(-10.494 -262.253)" fill="#6e6e6e"/>
            <path id="Trazado_190579" data-name="Trazado 190579" d="M110.843,340.861a.674.674,0,0,0,.662-.672l.006-.21a.72.72,0,0,0-.18-.5.636.636,0,0,0-.464-.216,140.5,140.5,0,0,1-25.3-2.542.83.83,0,0,0-.916.486l0,0a.819.819,0,0,0,0,.691.739.739,0,0,0,.518.417,144.6,144.6,0,0,0,25.674,2.546" transform="translate(-57.388 -228.471)" fill="#e8e8e8"/>
            <path id="Trazado_190580" data-name="Trazado 190580" d="M118.057,334.541l-.022-23.794c.019,11.055-39.428,18.709-73.949,13.766-18.176-2.6-28.737-7.976-28.746-13.585l.022,23.793c.01,5.609,10.57,10.982,28.746,13.585,34.406,4.928,73.968-2.684,73.949-13.765" transform="translate(-10.41 -210.859)" fill="#a1a1a1"/>
            <g id="Grupo_128001" data-name="Grupo 128001" transform="translate(86.664 99.888)" style="mix-blend-mode: multiply;isolation: isolate">
              <g id="Grupo_128000" data-name="Grupo 128000">
                <g id="Grupo_127999" data-name="Grupo 127999" clip-path="url(#clip-path-9)">
                  <path id="Trazado_190581" data-name="Trazado 190581" d="M269.607,323.005V346.8c12.518-2.743,20.993-7.129,20.984-12.259l-.022-23.794c.009,5.12-8.449,9.511-20.962,12.258" transform="translate(-269.607 -310.747)" fill="#c9c9c9"/>
                </g>
              </g>
            </g>
            <g id="Grupo_128004" data-name="Grupo 128004" transform="translate(83.31 124.258)" style="mix-blend-mode: multiply;isolation: isolate">
              <g id="Grupo_128003" data-name="Grupo 128003">
                <g id="Grupo_128002" data-name="Grupo 128002" clip-path="url(#clip-path-10)">
                  <path id="Trazado_190582" data-name="Trazado 190582" d="M276.749,395.868c-.63.416-1.315.818-2.048,1.2.851-.478,1.575-.936,2.16-1.331a16.988,16.988,0,0,0,1.6-1.177l.117-.1a17.471,17.471,0,0,1-1.83,1.4,15.825,15.825,0,0,0,2.371-1.889l-.036.033c.049-.046.1-.093.145-.139l1.159-1.139h0a9.4,9.4,0,0,0,3.088-6.171c-.594,4.872-8.892,9.041-20.95,11.685l-3.352,3.994a73.069,73.069,0,0,0,10.013-2.713l.012,0a31.923,31.923,0,0,0,3.592-1.461,30.079,30.079,0,0,0,3-1.586c.354-.214.669-.417.955-.609" transform="translate(-259.174 -386.561)" fill="#c9c9c9"/>
                </g>
              </g>
            </g>
            <g id="Grupo_128007" data-name="Grupo 128007" transform="translate(83.741 87.961)" style="mix-blend-mode: multiply;isolation: isolate">
              <g id="Grupo_128006" data-name="Grupo 128006">
                <g id="Grupo_128005" data-name="Grupo 128005" clip-path="url(#clip-path-11)">
                  <path id="Trazado_190583" data-name="Trazado 190583" d="M284.383,285.239q0-.146-.01-.292a8,8,0,0,0-.916-3.189,8.884,8.884,0,0,0-1.067-1.661,12.5,12.5,0,0,0-.918-1.054l-.01-.011-.018-.017,0,0a.143.143,0,0,0-.016-.016l0,0,.014.015-.042-.044-.008-.009-.151-.149-.007-.008-1.163-1.136c1.854,1.811,2.45,3.628,1.966,5.38a4.3,4.3,0,0,0,.022-2.091c0-.006,0-.011,0-.017-.013-.055-.027-.109-.042-.165-.443-1.638-1.832-3.326-4.318-5.021a24.98,24.98,0,0,0-2.368-1.418l-2.443-.692-5.784,7.9-6.586,10.518,2.923,5.763.012.01a58.082,58.082,0,0,0,14.18-4.718c4.282-2.2,6.775-4.767,6.771-7.551-.005-.114-.01-.224-.016-.331" transform="translate(-260.514 -273.643)" fill="#d4d4d4"/>
                </g>
              </g>
            </g>
            <g id="Grupo_128010" data-name="Grupo 128010" transform="translate(4.93 91.653)" style="mix-blend-mode: multiply;isolation: isolate">
              <g id="Grupo_128009" data-name="Grupo 128009">
                <g id="Grupo_128008" data-name="Grupo 128008" clip-path="url(#clip-path-12)">
                  <path id="Trazado_190584" data-name="Trazado 190584" d="M17.513,321.678v-23.7l3.5-6.254.633-6.6-1.976.484-.011.011-.027.027c-.023.022-.045.046-.068.069l-.01.01c.023-.024.045-.048.069-.07L18.46,286.8h0l0,0,0,0q-.13.128-.251.256l-.024.025-.011.013-.057.06c-.15.157-.3.318-.419.46-.19.241-.431.52-.7.906a8.652,8.652,0,0,0-1.106,2.068,7.5,7.5,0,0,0-.344,1.144,6.6,6.6,0,0,0-.159,1,6.094,6.094,0,0,0-.042.81l.022,23.793c0,.125.008.249.018.373a8.078,8.078,0,0,0,.909,3.412A10.129,10.129,0,0,0,18.72,324.3l.97.947h0c.088.086.179.171.272.256q.266.244.554.482Z" transform="translate(-15.336 -285.128)" fill="#e3e3e3"/>
                </g>
              </g>
            </g>
            <path id="Trazado_190585" data-name="Trazado 190585" d="M34.469,261.144c-11.359,6.873-1.788,15.134,21.378,18.452s51.154.436,62.513-6.438,1.788-15.134-21.378-18.452-51.155-.436-62.514,6.438" transform="translate(-20.144 -171.898)" fill="#cecece"/>
            <path id="Trazado_190586" data-name="Trazado 190586" d="M15.38,144.428a6.592,6.592,0,0,1,.159-1,7.568,7.568,0,0,1,.344-1.145,8.661,8.661,0,0,1,1.106-2.067c.272-.386.513-.666.7-.906.12-.142.269-.3.419-.461.02-.02.038-.041.057-.061l.011-.012.024-.025c.081-.086.165-.171.251-.256l0,0,0,0h0l1.157-1.138c-.024.023-.046.047-.069.07l.01-.01.068-.069.027-.026.018-.018.022-.022c.389-.374.775-.711,1.173-1.026.2-.161.406-.316.63-.475.486-.349,1-.683,1.557-1.03.148-.087.3-.173.45-.257l.019-.011c9.186-5.164,23.771-7.456,37.984-7.9,17.388-.6,35.523,1.6,46.025,6.527l.169.08.127.059q.446.214.871.435l.081.042.052.027a25.344,25.344,0,0,1,2.5,1.486c2.486,1.694,3.875,3.382,4.318,5.022.015.054.029.109.042.164,0,.006,0,.012,0,.018a4.3,4.3,0,0,1-.022,2.09c.484-1.752-.111-3.568-1.966-5.379l1.163,1.136.007.007.151.15.008.009.042.043-.014-.014,0,0,.016.015,0,0,.018.018.01.011a12.458,12.458,0,0,1,.918,1.055,8.893,8.893,0,0,1,1.067,1.66,8,8,0,0,1,.916,3.19c.006.1.009.2.01.292s.011.217.016.332c0,2.784-2.489,5.349-6.771,7.551-4.989,2.612-12.391,4.65-21,5.972a162.46,162.46,0,0,1-46.174.243q-2.13-.305-4.119-.66c-15.643-2.784-24.618-7.754-24.627-12.925a6.1,6.1,0,0,1,.042-.81" transform="translate(-10.406 -85.827)" fill="#bdbdbd"/>
            <path id="Trazado_190587" data-name="Trazado 190587" d="M44.193,273.216C26.419,270.671,15.93,265.478,15.465,260a8.073,8.073,0,0,0,.909,3.412,10.131,10.131,0,0,0,2.433,3.173l.971.947h0c.088.085.179.171.272.256a17.177,17.177,0,0,0,2.692,1.991q-.59-.371-1.132-.758a22.52,22.52,0,0,0,2.234,1.348c-.412-.2-.781-.395-1.1-.59,16.305,10.259,59.45,10.957,81.074,3.209l.012,0a31.93,31.93,0,0,0,3.592-1.461,30.23,30.23,0,0,0,3-1.586c.354-.215.669-.417.955-.609-.63.417-1.315.818-2.048,1.2.851-.478,1.575-.936,2.16-1.331a16.858,16.858,0,0,0,1.6-1.177c.076-.062.117-.1.117-.1a17.306,17.306,0,0,1-1.83,1.4,15.82,15.82,0,0,0,2.371-1.889l-.036.033c.049-.047.1-.093.146-.14l1.159-1.139h0a9.4,9.4,0,0,0,3.087-6.171c-1.309,10.732-39.989,18.047-73.913,13.189" transform="translate(-10.494 -176.427)" fill="#6e6e6e"/>
            <path id="Trazado_190588" data-name="Trazado 190588" d="M110.837,214.374a.672.672,0,0,0,.662-.672l.006-.21a.719.719,0,0,0-.18-.5.631.631,0,0,0-.464-.215,140.533,140.533,0,0,1-25.3-2.543.831.831,0,0,0-.916.487l0,0a.82.82,0,0,0,0,.69.736.736,0,0,0,.518.417,144.574,144.574,0,0,0,25.676,2.546" transform="translate(-57.382 -142.642)" fill="#e8e8e8"/>
            <path id="Trazado_190589" data-name="Trazado 190589" d="M118.057,208.056l-.022-23.794c.019,11.055-39.428,18.709-73.949,13.766-18.176-2.6-28.737-7.976-28.746-13.585l.022,23.793c.01,5.61,10.57,10.982,28.746,13.585,34.406,4.928,73.968-2.683,73.949-13.765" transform="translate(-10.41 -125.032)" fill="#a1a1a1"/>
            <g id="Grupo_128013" data-name="Grupo 128013" transform="translate(86.664 59.23)" style="mix-blend-mode: multiply;isolation: isolate">
              <g id="Grupo_128012" data-name="Grupo 128012">
                <g id="Grupo_128011" data-name="Grupo 128011" clip-path="url(#clip-path-9)">
                  <path id="Trazado_190590" data-name="Trazado 190590" d="M269.607,196.521v23.794c12.518-2.743,20.993-7.129,20.984-12.259l-.022-23.794c.009,5.12-8.449,9.511-20.962,12.259" transform="translate(-269.607 -184.262)" fill="#c9c9c9"/>
                </g>
              </g>
            </g>
            <g id="Grupo_128016" data-name="Grupo 128016" transform="translate(83.31 83.6)" style="mix-blend-mode: multiply;isolation: isolate">
              <g id="Grupo_128015" data-name="Grupo 128015">
                <g id="Grupo_128014" data-name="Grupo 128014" clip-path="url(#clip-path-10)">
                  <path id="Trazado_190591" data-name="Trazado 190591" d="M276.749,269.382c-.63.416-1.315.818-2.048,1.2.851-.478,1.575-.936,2.16-1.331a16.9,16.9,0,0,0,1.6-1.177c.076-.062.117-.1.117-.1a17.355,17.355,0,0,1-1.83,1.4,15.833,15.833,0,0,0,2.371-1.889l-.036.033c.049-.047.1-.093.145-.14l1.159-1.139h0a9.4,9.4,0,0,0,3.088-6.171c-.594,4.873-8.892,9.04-20.95,11.685l-3.352,3.994a73.1,73.1,0,0,0,10.013-2.713l.012,0a32.039,32.039,0,0,0,3.592-1.461,30.162,30.162,0,0,0,3-1.586c.354-.215.669-.417.955-.609" transform="translate(-259.174 -260.076)" fill="#c9c9c9"/>
                </g>
              </g>
            </g>
            <g id="Grupo_128019" data-name="Grupo 128019" transform="translate(83.741 47.303)" style="mix-blend-mode: multiply;isolation: isolate">
              <g id="Grupo_128018" data-name="Grupo 128018">
                <g id="Grupo_128017" data-name="Grupo 128017" clip-path="url(#clip-path-11)">
                  <path id="Trazado_190592" data-name="Trazado 190592" d="M284.383,158.753c0-.1,0-.194-.01-.292a8,8,0,0,0-.916-3.19,8.9,8.9,0,0,0-1.067-1.661,12.5,12.5,0,0,0-.918-1.054l-.01-.011-.018-.018,0,0-.016-.015,0,0,.014.014-.042-.043-.008-.009-.151-.15-.007-.007-1.163-1.136c1.854,1.811,2.45,3.628,1.966,5.379a4.3,4.3,0,0,0,.022-2.09c0-.006,0-.011,0-.018-.013-.054-.027-.109-.042-.164-.443-1.64-1.832-3.327-4.318-5.022a25.024,25.024,0,0,0-2.368-1.418l-2.443-.692-5.784,7.9-6.586,10.518,2.923,5.763.012.01a58.069,58.069,0,0,0,14.18-4.717c4.282-2.2,6.775-4.767,6.771-7.551-.005-.115-.01-.224-.016-.331" transform="translate(-260.514 -147.158)" fill="#d4d4d4"/>
                </g>
              </g>
            </g>
            <g id="Grupo_128022" data-name="Grupo 128022" transform="translate(4.93 50.995)" style="mix-blend-mode: multiply;isolation: isolate">
              <g id="Grupo_128021" data-name="Grupo 128021">
                <g id="Grupo_128020" data-name="Grupo 128020" clip-path="url(#clip-path-16)">
                  <path id="Trazado_190593" data-name="Trazado 190593" d="M17.513,195.193v-23.7l3.5-6.255.633-6.6-1.976.485-.011.011-.027.027c-.023.023-.045.046-.068.069l-.01.01c.023-.023.045-.047.069-.07l-1.157,1.138h0l0,0,0,0c-.087.086-.17.171-.251.256l-.024.025-.011.013-.057.06c-.15.157-.3.318-.419.461-.19.24-.431.52-.7.906a8.651,8.651,0,0,0-1.106,2.067,7.523,7.523,0,0,0-.344,1.145,6.582,6.582,0,0,0-.159,1,6.1,6.1,0,0,0-.042.81l.022,23.793c0,.125.008.249.018.373h0a8.077,8.077,0,0,0,.909,3.412,10.125,10.125,0,0,0,2.433,3.174l.97.947h0q.132.128.272.256.266.244.554.482Z" transform="translate(-15.336 -158.643)" fill="#e3e3e3"/>
                </g>
              </g>
            </g>
            <path id="Trazado_190594" data-name="Trazado 190594" d="M34.469,134.658c-11.359,6.873-1.788,15.134,21.378,18.452s51.154.436,62.513-6.437,1.788-15.134-21.378-18.452-51.155-.436-62.514,6.437" transform="translate(-20.144 -86.071)" fill="#cecece"/>
            <path id="Trazado_190595" data-name="Trazado 190595" d="M35.059,288.391h0q-.244-.159-.475-.318.233.166.475.329a11.882,11.882,0,0,0,1.759,1.019c-1.041-.554-1.662-.971-1.759-1.03" transform="translate(-23.467 -195.473)" fill="#4271e5"/>
            <path id="Trazado_190596" data-name="Trazado 190596" d="M123.141,283.917c-4.582,4.264-13.7,6.857-19.687,8.016-24.534,4.98-61.086,2.59-73.2-7.432-.1-.082-.217-.176-.567-.494v3.818h0c-.095,5.134,9.528,10.063,26.158,12.445,31.732,4.544,68.078-2.628,67.282-12.837h.013Z" transform="translate(-20.144 -192.653)" fill="#4271e5"/>
            <path id="Trazado_190597" data-name="Trazado 190597" d="M307.477,287.271a19.313,19.313,0,0,0,3.878-2.605,26.911,26.911,0,0,1-3.878,2.605" transform="translate(-208.64 -193.162)" fill="#4271e5"/>
            <g id="Grupo_128025" data-name="Grupo 128025" transform="translate(27.186 102.213)" style="mix-blend-mode: screen;isolation: isolate">
              <g id="Grupo_128024" data-name="Grupo 128024">
                <g id="Grupo_128023" data-name="Grupo 128023" clip-path="url(#clip-path-17)">
                  <path id="Trazado_190598" data-name="Trazado 190598" d="M110.843,322.138a.673.673,0,0,0,.662-.672l.006-.21a.72.72,0,0,0-.18-.5.633.633,0,0,0-.464-.215,140.547,140.547,0,0,1-25.3-2.543.831.831,0,0,0-.916.487v0a.819.819,0,0,0,0,.691.737.737,0,0,0,.518.417,144.588,144.588,0,0,0,25.674,2.546" transform="translate(-84.573 -317.978)" fill="#497eff"/>
                </g>
              </g>
            </g>
            <g id="Grupo_128028" data-name="Grupo 128028" transform="translate(9.542 91.264)" style="mix-blend-mode: multiply;isolation: isolate">
              <g id="Grupo_128027" data-name="Grupo 128027">
                <g id="Grupo_128026" data-name="Grupo 128026" clip-path="url(#clip-path-18)">
                  <path id="Trazado_190599" data-name="Trazado 190599" d="M103.454,291.933h0c-24.211,4.914-60.126,2.65-72.708-7.041-.083-.063-.164-.127-.245-.191s-.166-.133-.248-.2-.217-.176-.567-.494v3.818h0a4.892,4.892,0,0,0,1.057,2.993v-4.182a19.221,19.221,0,0,0,1.647,1.12q-.59-.371-1.132-.758a22.54,22.54,0,0,0,2.234,1.348c-.412-.2-.781-.4-1.1-.591,14.064,8.848,48.095,10.584,71.061,5.922v5.347c11.986-2.546,20.054-6.724,19.674-11.592h.013v-3.516c-4.582,4.264-13.7,6.857-19.687,8.016" transform="translate(-29.686 -283.917)" fill="#bdbdbd"/>
                </g>
              </g>
            </g>
            <path id="Trazado_190600" data-name="Trazado 190600" d="M15.38,17.943a6.593,6.593,0,0,1,.159-1,7.546,7.546,0,0,1,.344-1.144,8.657,8.657,0,0,1,1.106-2.067c.272-.387.513-.666.7-.906.12-.143.269-.3.419-.461l.057-.061.011-.013.024-.025q.122-.128.251-.256l0,0,0,0h0l1.157-1.138c-.024.023-.046.047-.069.07l.01-.01.068-.07.027-.026.018-.018.022-.022c.389-.374.775-.711,1.173-1.026.2-.161.406-.316.63-.476.486-.349,1-.683,1.557-1.03.148-.087.3-.173.45-.258l.019-.011C32.709,2.829,47.294.538,61.507.1c17.388-.6,35.523,1.6,46.025,6.527l.169.079.127.06q.446.214.871.435l.081.042.052.028a25.407,25.407,0,0,1,2.5,1.486c2.486,1.694,3.875,3.382,4.318,5.022.015.055.029.11.042.164,0,.006,0,.012,0,.017a4.3,4.3,0,0,1-.022,2.091c.484-1.752-.111-3.569-1.966-5.38l1.163,1.137.007.007.151.15.008.009.042.044L115.063,12l0,0,.016.016,0,0,.018.018.01.011a12.464,12.464,0,0,1,.918,1.055,8.84,8.84,0,0,1,1.067,1.66,8,8,0,0,1,.916,3.189q.009.147.01.292c.006.107.011.217.016.332,0,2.783-2.489,5.348-6.771,7.55-4.989,2.612-12.391,4.649-21,5.972a162.461,162.461,0,0,1-46.174.243q-2.13-.305-4.119-.66c-15.643-2.785-24.618-7.755-24.627-12.926a6.093,6.093,0,0,1,.042-.809" transform="translate(-10.406 0)" fill="#bdbdbd"/>
            <path id="Trazado_190601" data-name="Trazado 190601" d="M44.193,146.73c-17.774-2.545-28.263-7.739-28.728-13.212a8.074,8.074,0,0,0,.909,3.412,10.147,10.147,0,0,0,2.433,3.174l.971.947h0c.088.086.179.17.272.255a17.158,17.158,0,0,0,2.692,1.992q-.59-.37-1.132-.758a22.378,22.378,0,0,0,2.234,1.348,12.333,12.333,0,0,1-1.1-.59c16.305,10.259,59.45,10.957,81.074,3.21l.012,0a31.984,31.984,0,0,0,3.592-1.461,30.249,30.249,0,0,0,3-1.586c.354-.215.669-.418.955-.61-.63.417-1.315.818-2.048,1.2.851-.478,1.575-.936,2.16-1.331a17.041,17.041,0,0,0,1.6-1.176l.117-.1a17.355,17.355,0,0,1-1.83,1.4,15.793,15.793,0,0,0,2.371-1.888l-.036.032c.049-.046.1-.092.146-.139l1.159-1.139h0a9.4,9.4,0,0,0,3.087-6.171c-1.309,10.732-39.989,18.047-73.913,13.189" transform="translate(-10.494 -90.599)" fill="#6e6e6e"/>
            <path id="Trazado_190602" data-name="Trazado 190602" d="M110.836,87.889a.674.674,0,0,0,.662-.672l.006-.21a.721.721,0,0,0-.18-.5.636.636,0,0,0-.464-.215,140.574,140.574,0,0,1-25.3-2.543.833.833,0,0,0-.917.487v0a.824.824,0,0,0,0,.691.74.74,0,0,0,.518.417,144.664,144.664,0,0,0,25.677,2.546" transform="translate(-57.381 -56.815)" fill="#e8e8e8"/>
            <path id="Trazado_190603" data-name="Trazado 190603" d="M118.057,81.571l-.022-23.793c.019,11.055-39.428,18.709-73.949,13.765-18.176-2.6-28.737-7.976-28.746-13.585l.022,23.794c.01,5.609,10.57,10.982,28.746,13.585,34.406,4.927,73.968-2.684,73.949-13.765" transform="translate(-10.41 -39.206)" fill="#a1a1a1"/>
            <g id="Grupo_128031" data-name="Grupo 128031" transform="translate(86.664 18.572)" style="mix-blend-mode: multiply;isolation: isolate">
              <g id="Grupo_128030" data-name="Grupo 128030">
                <g id="Grupo_128029" data-name="Grupo 128029" clip-path="url(#clip-path-9)">
                  <path id="Trazado_190604" data-name="Trazado 190604" d="M269.607,70.036V93.831c12.518-2.743,20.993-7.129,20.984-12.259l-.022-23.793c.009,5.12-8.449,9.511-20.962,12.258" transform="translate(-269.607 -57.778)" fill="#c9c9c9"/>
                </g>
              </g>
            </g>
            <g id="Grupo_128034" data-name="Grupo 128034" transform="translate(83.31 42.942)" style="mix-blend-mode: multiply;isolation: isolate">
              <g id="Grupo_128033" data-name="Grupo 128033">
                <g id="Grupo_128032" data-name="Grupo 128032" clip-path="url(#clip-path-10)">
                  <path id="Trazado_190605" data-name="Trazado 190605" d="M276.749,142.9c-.63.417-1.315.818-2.048,1.2.851-.478,1.575-.936,2.16-1.331a17.082,17.082,0,0,0,1.6-1.176l.117-.1a17.354,17.354,0,0,1-1.83,1.4,15.8,15.8,0,0,0,2.371-1.888l-.036.032c.049-.046.1-.093.145-.14l1.159-1.139h0a9.4,9.4,0,0,0,3.088-6.171c-.594,4.872-8.892,9.04-20.95,11.685l-3.352,3.994a73.2,73.2,0,0,0,10.013-2.713l.012,0a31.989,31.989,0,0,0,3.592-1.461,30.162,30.162,0,0,0,3-1.586c.354-.215.669-.418.955-.61" transform="translate(-259.174 -133.591)" fill="#c9c9c9"/>
                </g>
              </g>
            </g>
            <g id="Grupo_128037" data-name="Grupo 128037" transform="translate(83.741 6.645)" style="mix-blend-mode: multiply;isolation: isolate">
              <g id="Grupo_128036" data-name="Grupo 128036">
                <g id="Grupo_128035" data-name="Grupo 128035" clip-path="url(#clip-path-11)">
                  <path id="Trazado_190606" data-name="Trazado 190606" d="M284.383,32.268q0-.146-.01-.292a8,8,0,0,0-.916-3.189,8.852,8.852,0,0,0-1.067-1.66,12.458,12.458,0,0,0-.918-1.055l-.01-.012-.018-.018,0,0-.016-.016,0,0,.014.014L281.4,26l-.008-.009-.151-.15-.007-.007L280.071,24.7c1.854,1.812,2.45,3.628,1.966,5.38a4.3,4.3,0,0,0,.022-2.091c0-.005,0-.011,0-.017-.013-.054-.027-.109-.042-.164-.443-1.639-1.832-3.327-4.318-5.021a25.088,25.088,0,0,0-2.368-1.418l-2.443-.692-5.784,7.9-6.586,10.518,2.923,5.763.012.01a58.069,58.069,0,0,0,14.18-4.717c4.282-2.2,6.775-4.767,6.771-7.55-.005-.115-.01-.224-.016-.332" transform="translate(-260.514 -20.673)" fill="#d4d4d4"/>
                </g>
              </g>
            </g>
            <g id="Grupo_128040" data-name="Grupo 128040" transform="translate(4.93 10.337)" style="mix-blend-mode: multiply;isolation: isolate">
              <g id="Grupo_128039" data-name="Grupo 128039">
                <g id="Grupo_128038" data-name="Grupo 128038" clip-path="url(#clip-path-16)">
                  <path id="Trazado_190607" data-name="Trazado 190607" d="M17.513,68.707v-23.7l3.5-6.254.633-6.6-1.976.484-.011.012-.027.025c-.023.023-.045.047-.068.07l-.01.01c.023-.023.045-.047.069-.07L18.46,33.827h0l0,0,0,0q-.13.128-.251.256l-.024.025-.011.013-.057.061c-.15.157-.3.318-.419.46-.19.24-.431.52-.7.906a8.645,8.645,0,0,0-1.106,2.067,7.526,7.526,0,0,0-.344,1.144,6.589,6.589,0,0,0-.159,1,6.1,6.1,0,0,0-.042.81l.022,23.793c0,.124.008.249.018.373a8.08,8.08,0,0,0,.909,3.412,10.147,10.147,0,0,0,2.433,3.174l.97.947h0c.088.086.179.17.272.255q.266.244.554.482Z" transform="translate(-15.336 -32.158)" fill="#e3e3e3"/>
                </g>
              </g>
            </g>
            <path id="Trazado_190608" data-name="Trazado 190608" d="M34.469,8.174C23.11,15.046,32.681,23.307,55.847,26.625s51.154.435,62.513-6.438S120.148,5.053,96.983,1.735,45.828,1.3,34.469,8.174" transform="translate(-20.144 -0.243)" fill="#cecece"/>
            <path id="Trazado_190609" data-name="Trazado 190609" d="M35.059,161.9h0q-.244-.158-.475-.318.233.166.475.33a11.861,11.861,0,0,0,1.759,1.018c-1.041-.554-1.662-.971-1.759-1.03" transform="translate(-23.467 -109.645)" fill="#4271e5"/>
            <path id="Trazado_190610" data-name="Trazado 190610" d="M123.141,157.431c-4.582,4.264-13.7,6.856-19.687,8.016-24.534,4.98-61.086,2.589-73.2-7.432-.1-.082-.217-.175-.567-.494v3.819h0c-.095,5.134,9.528,10.063,26.158,12.444,31.732,4.545,68.078-2.627,67.282-12.836h.013Z" transform="translate(-20.144 -106.826)" fill="#4271e5"/>
            <path id="Trazado_190611" data-name="Trazado 190611" d="M307.477,160.786a19.339,19.339,0,0,0,3.878-2.605,26.961,26.961,0,0,1-3.878,2.605" transform="translate(-208.64 -107.335)" fill="#4271e5"/>
            <g id="Grupo_128043" data-name="Grupo 128043" transform="translate(27.183 61.554)" style="mix-blend-mode: screen;isolation: isolate">
              <g id="Grupo_128042" data-name="Grupo 128042">
                <g id="Grupo_128041" data-name="Grupo 128041" clip-path="url(#clip-path-23)">
                  <path id="Trazado_190612" data-name="Trazado 190612" d="M110.836,195.652a.673.673,0,0,0,.662-.672l.006-.211a.722.722,0,0,0-.18-.5.635.635,0,0,0-.464-.215,140.576,140.576,0,0,1-25.3-2.543.832.832,0,0,0-.917.487v0a.823.823,0,0,0,0,.691.737.737,0,0,0,.518.416,144.636,144.636,0,0,0,25.677,2.546" transform="translate(-84.564 -191.492)" fill="#497eff"/>
                </g>
              </g>
            </g>
            <g id="Grupo_128046" data-name="Grupo 128046" transform="translate(9.542 50.605)" style="mix-blend-mode: multiply;isolation: isolate">
              <g id="Grupo_128045" data-name="Grupo 128045">
                <g id="Grupo_128044" data-name="Grupo 128044" clip-path="url(#clip-path-24)">
                  <path id="Trazado_190613" data-name="Trazado 190613" d="M103.454,165.447h0c-24.211,4.915-60.126,2.65-72.708-7.041q-.124-.1-.245-.191c-.084-.066-.166-.133-.248-.2s-.217-.175-.567-.494v3.819h0a4.891,4.891,0,0,0,1.057,2.993V160.15a19.389,19.389,0,0,0,1.647,1.119q-.59-.37-1.132-.757a22.474,22.474,0,0,0,2.234,1.348,12.185,12.185,0,0,1-1.1-.59c14.064,8.849,48.095,10.584,71.061,5.923v5.347c11.986-2.546,20.054-6.724,19.674-11.592h.013v-3.516c-4.582,4.264-13.7,6.856-19.687,8.016" transform="translate(-29.686 -157.431)" fill="#bdbdbd"/>
                </g>
              </g>
            </g>
            <path id="Trazado_190614" data-name="Trazado 190614" d="M85.877,132.754a4.638,4.638,0,1,1-4.638-4.638,4.638,4.638,0,0,1,4.638,4.638" transform="translate(-51.978 -86.934)" fill="#0df904"/>
            <path id="Trazado_190615" data-name="Trazado 190615" d="M84.774,131.186a5.352,5.352,0,0,1-.856,3.04,5.485,5.485,0,1,1-7.589-7.589,5.358,5.358,0,0,1,3.041-.856,5.43,5.43,0,0,0-2.967.966,5.355,5.355,0,0,0-2.215,5.47,5.348,5.348,0,0,0,4.15,4.15,5.4,5.4,0,0,0,6.435-5.182" transform="translate(-50.108 -85.348)" fill="#e8e8e8"/>
            <g id="Grupo_128049" data-name="Grupo 128049" transform="translate(27.023 43.582)" opacity="0.4" style="mix-blend-mode: multiply;isolation: isolate">
              <g id="Grupo_128048" data-name="Grupo 128048">
                <g id="Grupo_128047" data-name="Grupo 128047" clip-path="url(#clip-path-25)">
                  <path id="Trazado_190616" data-name="Trazado 190616" d="M88.543,137.821a2.239,2.239,0,1,1-2.238-2.239,2.239,2.239,0,0,1,2.238,2.239" transform="translate(-84.066 -135.582)" fill="#4271e5"/>
                </g>
              </g>
            </g>
            <path id="Trazado_190617" data-name="Trazado 190617" d="M132.589,138.694a4.638,4.638,0,1,1-4.638-4.638,4.638,4.638,0,0,1,4.638,4.638" transform="translate(-83.675 -90.964)" fill="#0df904"/>
            <path id="Trazado_190618" data-name="Trazado 190618" d="M131.486,137.127a5.36,5.36,0,0,1-.856,3.04,5.485,5.485,0,1,1-7.59-7.589,5.359,5.359,0,0,1,3.04-.855,5.423,5.423,0,0,0-2.966.966,5.353,5.353,0,0,0-2.215,5.47,5.35,5.35,0,0,0,4.15,4.15,5.4,5.4,0,0,0,6.436-5.181" transform="translate(-81.804 -89.379)" fill="#e8e8e8"/>
            <g id="Grupo_128052" data-name="Grupo 128052" transform="translate(42.038 45.491)" opacity="0.4" style="mix-blend-mode: multiply;isolation: isolate">
              <g id="Grupo_128051" data-name="Grupo 128051">
                <g id="Grupo_128050" data-name="Grupo 128050" clip-path="url(#clip-path-26)">
                  <path id="Trazado_190619" data-name="Trazado 190619" d="M135.254,143.76a2.239,2.239,0,1,1-2.239-2.239,2.239,2.239,0,0,1,2.239,2.239" transform="translate(-130.777 -141.521)" fill="#4271e5"/>
                </g>
              </g>
            </g>
            <path id="Trazado_190620" data-name="Trazado 190620" d="M179.3,140.464a4.638,4.638,0,1,1-4.639-4.638,4.639,4.639,0,0,1,4.639,4.638" transform="translate(-115.371 -92.165)" fill="#0df904"/>
            <path id="Trazado_190621" data-name="Trazado 190621" d="M178.2,138.9a5.357,5.357,0,0,1-.856,3.039,5.485,5.485,0,1,1-7.589-7.589,5.356,5.356,0,0,1,3.04-.855,5.426,5.426,0,0,0-2.966.966,5.354,5.354,0,0,0-2.215,5.47,5.351,5.351,0,0,0,4.15,4.15,5.405,5.405,0,0,0,3.06-.283,5.35,5.35,0,0,0,2.411-1.933,5.432,5.432,0,0,0,.965-2.966" transform="translate(-113.501 -90.579)" fill="#e8e8e8"/>
            <g id="Grupo_128055" data-name="Grupo 128055" transform="translate(57.053 46.06)" opacity="0.4" style="mix-blend-mode: multiply;isolation: isolate">
              <g id="Grupo_128054" data-name="Grupo 128054">
                <g id="Grupo_128053" data-name="Grupo 128053" clip-path="url(#clip-path-27)">
                  <path id="Trazado_190622" data-name="Trazado 190622" d="M181.965,145.53a2.239,2.239,0,1,1-2.239-2.239,2.239,2.239,0,0,1,2.239,2.239" transform="translate(-177.487 -143.291)" fill="#4271e5"/>
                </g>
              </g>
            </g>
            <path id="Trazado_190623" data-name="Trazado 190623" d="M85.877,259.391a4.638,4.638,0,1,1-4.638-4.638,4.638,4.638,0,0,1,4.638,4.638" transform="translate(-51.978 -172.864)" fill="#0df904"/>
            <path id="Trazado_190624" data-name="Trazado 190624" d="M84.774,257.822a5.352,5.352,0,0,1-.856,3.04,5.485,5.485,0,1,1-7.589-7.589,5.358,5.358,0,0,1,3.041-.856,5.43,5.43,0,0,0-2.967.966,5.354,5.354,0,0,0-2.215,5.47,5.348,5.348,0,0,0,4.15,4.15,5.4,5.4,0,0,0,6.435-5.181" transform="translate(-50.108 -171.277)" fill="#e8e8e8"/>
            <g id="Grupo_128058" data-name="Grupo 128058" transform="translate(27.023 84.289)" opacity="0.4" style="mix-blend-mode: multiply;isolation: isolate">
              <g id="Grupo_128057" data-name="Grupo 128057">
                <g id="Grupo_128056" data-name="Grupo 128056" clip-path="url(#clip-path-26)">
                  <path id="Trazado_190625" data-name="Trazado 190625" d="M88.543,264.457a2.239,2.239,0,1,1-2.238-2.239,2.239,2.239,0,0,1,2.238,2.239" transform="translate(-84.066 -262.218)" fill="#4271e5"/>
                </g>
              </g>
            </g>
            <path id="Trazado_190626" data-name="Trazado 190626" d="M132.589,265.331a4.638,4.638,0,1,1-4.638-4.638,4.638,4.638,0,0,1,4.638,4.638" transform="translate(-83.675 -176.895)" fill="#0df904"/>
            <path id="Trazado_190627" data-name="Trazado 190627" d="M131.486,263.763a5.361,5.361,0,0,1-.856,3.04,5.485,5.485,0,1,1-7.59-7.589,5.357,5.357,0,0,1,3.04-.855,5.42,5.42,0,0,0-2.966.966,5.352,5.352,0,0,0-2.215,5.47,5.349,5.349,0,0,0,4.15,4.151,5.4,5.4,0,0,0,6.436-5.181" transform="translate(-81.804 -175.308)" fill="#e8e8e8"/>
            <g id="Grupo_128061" data-name="Grupo 128061" transform="translate(42.038 86.198)" opacity="0.4" style="mix-blend-mode: multiply;isolation: isolate">
              <g id="Grupo_128060" data-name="Grupo 128060">
                <g id="Grupo_128059" data-name="Grupo 128059" clip-path="url(#clip-path-25)">
                  <path id="Trazado_190628" data-name="Trazado 190628" d="M135.254,270.4a2.239,2.239,0,1,1-2.239-2.239,2.239,2.239,0,0,1,2.239,2.239" transform="translate(-130.777 -268.159)" fill="#4271e5"/>
                </g>
              </g>
            </g>
            <path id="Trazado_190629" data-name="Trazado 190629" d="M179.3,267.1a4.638,4.638,0,1,1-4.639-4.638A4.639,4.639,0,0,1,179.3,267.1" transform="translate(-115.371 -178.095)" fill="#0df904"/>
            <path id="Trazado_190630" data-name="Trazado 190630" d="M178.2,265.533a5.359,5.359,0,0,1-.856,3.04,5.485,5.485,0,1,1-7.589-7.589,5.359,5.359,0,0,1,3.04-.855,5.426,5.426,0,0,0-2.966.965,5.354,5.354,0,0,0-2.215,5.47,5.351,5.351,0,0,0,4.15,4.15,5.4,5.4,0,0,0,6.436-5.181" transform="translate(-113.501 -176.509)" fill="#e8e8e8"/>
            <g id="Grupo_128064" data-name="Grupo 128064" transform="translate(57.053 86.767)" opacity="0.4" style="mix-blend-mode: multiply;isolation: isolate">
              <g id="Grupo_128063" data-name="Grupo 128063">
                <g id="Grupo_128062" data-name="Grupo 128062" clip-path="url(#clip-path-30)">
                  <path id="Trazado_190631" data-name="Trazado 190631" d="M181.965,272.167a2.239,2.239,0,1,1-2.239-2.239,2.239,2.239,0,0,1,2.239,2.239" transform="translate(-177.487 -269.928)" fill="#4271e5"/>
                </g>
              </g>
            </g>
            <path id="Trazado_190632" data-name="Trazado 190632" d="M85.877,385.892a4.638,4.638,0,1,1-4.638-4.638,4.638,4.638,0,0,1,4.638,4.638" transform="translate(-51.978 -258.702)" fill="#0df904"/>
            <path id="Trazado_190633" data-name="Trazado 190633" d="M84.774,384.323a5.352,5.352,0,0,1-.856,3.04,5.485,5.485,0,1,1-7.589-7.589,5.355,5.355,0,0,1,3.041-.856,5.43,5.43,0,0,0-2.967.965,5.355,5.355,0,0,0-2.215,5.47,5.349,5.349,0,0,0,4.15,4.151,5.4,5.4,0,0,0,6.435-5.182" transform="translate(-50.108 -257.115)" fill="#e8e8e8"/>
            <g id="Grupo_128067" data-name="Grupo 128067" transform="translate(27.023 124.951)" opacity="0.4" style="mix-blend-mode: multiply;isolation: isolate">
              <g id="Grupo_128066" data-name="Grupo 128066">
                <g id="Grupo_128065" data-name="Grupo 128065" clip-path="url(#clip-path-26)">
                  <path id="Trazado_190634" data-name="Trazado 190634" d="M88.543,390.958a2.239,2.239,0,1,1-2.238-2.238,2.239,2.239,0,0,1,2.238,2.238" transform="translate(-84.066 -388.719)" fill="#4271e5"/>
                </g>
              </g>
            </g>
            <path id="Trazado_190635" data-name="Trazado 190635" d="M132.589,391.831a4.638,4.638,0,1,1-4.638-4.638,4.638,4.638,0,0,1,4.638,4.638" transform="translate(-83.675 -262.732)" fill="#0df904"/>
            <path id="Trazado_190636" data-name="Trazado 190636" d="M131.486,390.263a5.358,5.358,0,0,1-.856,3.039,5.485,5.485,0,1,1-7.59-7.589,5.356,5.356,0,0,1,3.04-.855,5.421,5.421,0,0,0-2.966.966,5.353,5.353,0,0,0-2.215,5.47,5.35,5.35,0,0,0,4.15,4.15,5.4,5.4,0,0,0,6.436-5.181" transform="translate(-81.804 -261.146)" fill="#e8e8e8"/>
            <g id="Grupo_128070" data-name="Grupo 128070" transform="translate(42.038 126.861)" opacity="0.4" style="mix-blend-mode: multiply;isolation: isolate">
              <g id="Grupo_128069" data-name="Grupo 128069">
                <g id="Grupo_128068" data-name="Grupo 128068" clip-path="url(#clip-path-26)">
                  <path id="Trazado_190637" data-name="Trazado 190637" d="M135.254,396.9a2.239,2.239,0,1,1-2.239-2.238,2.239,2.239,0,0,1,2.239,2.238" transform="translate(-130.777 -394.659)" fill="#4271e5"/>
                </g>
              </g>
            </g>
            <path id="Trazado_190638" data-name="Trazado 190638" d="M179.3,393.6a4.638,4.638,0,1,1-4.639-4.638A4.639,4.639,0,0,1,179.3,393.6" transform="translate(-115.371 -263.933)" fill="#0df904"/>
            <path id="Trazado_190639" data-name="Trazado 190639" d="M178.2,392.033a5.358,5.358,0,0,1-.856,3.04,5.485,5.485,0,1,1-7.589-7.589,5.36,5.36,0,0,1,3.04-.855,5.427,5.427,0,0,0-2.966.966,5.354,5.354,0,0,0-2.215,5.47,5.352,5.352,0,0,0,4.15,4.151,5.405,5.405,0,0,0,3.06-.282A5.35,5.35,0,0,0,177.233,395a5.433,5.433,0,0,0,.965-2.966" transform="translate(-113.501 -262.347)" fill="#e8e8e8"/>
            <g id="Grupo_128073" data-name="Grupo 128073" transform="translate(57.053 127.43)" opacity="0.4" style="mix-blend-mode: multiply;isolation: isolate">
              <g id="Grupo_128072" data-name="Grupo 128072">
                <g id="Grupo_128071" data-name="Grupo 128071" clip-path="url(#clip-path-30)">
                  <path id="Trazado_190640" data-name="Trazado 190640" d="M181.965,398.667a2.239,2.239,0,1,1-2.239-2.239,2.239,2.239,0,0,1,2.239,2.239" transform="translate(-177.487 -396.428)" fill="#4271e5"/>
                </g>
              </g>
            </g>
          </g>
        </g>
      </g>
    </g>
  </g>
</svg>
