<svg xmlns="http://www.w3.org/2000/svg" xmlns:xlink="http://www.w3.org/1999/xlink" width="192.957" height="195.392" viewBox="0 0 192.957 195.392">
  <defs>
    <clipPath id="clip-path">
      <path id="Trazado_188616" data-name="Trazado 188616" d="M1892.948,2346.305c-7.808,9.883-10.217,10.032-16.113,9.24-4.13-.555-14.958-4.8-19.087,1.195s-8.638,10.565-13.345,8.243c-3.619-1.785-7.162-.52-9.793,1.065,2.345,2.537,4.787,4.983,7.35,7.3a79.454,79.454,0,0,1,8.782,6.085c4.144-1.414,10.391-.223,14.279.115,3.3.287,4.906-.64,6.137-.729a52.224,52.224,0,0,1,12.182.486c4.123.619,6.444,1.237,8.81-.464,4.468-3.213.975-8.858,5.651-12.61,5.281-4.236,13.28.118,17.381-5.008a8.6,8.6,0,0,0,1.8-3.247c.993-3.57-1.118-6.43,1.772-9.007,5.809-5.18,7.726-13.6,1.484-18.64a7.912,7.912,0,0,0-5.093-1.714c-6.421,0-15.075,6.2-22.2,17.694" transform="translate(-1834.61 -2328.611)" fill="none"/>
    </clipPath>
    <linearGradient id="linear-gradient" x1="-1.275" y1="1.176" x2="-1.274" y2="1.176" gradientUnits="objectBoundingBox">
      <stop offset="0" stop-color="#ffc444"/>
      <stop offset="0.996" stop-color="#f36f56"/>
      <stop offset="1" stop-color="#f36f56"/>
    </linearGradient>
    <clipPath id="clip-path-3">
      <rect id="Rectángulo_40558" data-name="Rectángulo 40558" width="92.82" height="53.309" fill="none"/>
    </clipPath>
    <clipPath id="clip-path-4">
      <path id="Trazado_188625" data-name="Trazado 188625" d="M1776.72,1678.219c-.3,14.848-5.592,14.413-11.81,13.978a21.694,21.694,0,0,0-7.113.3,15.544,15.544,0,0,0-3.338,1.543c-8.179,5.045-6.531,14.825-11.519,23.935-6.8,12.424-21.745,15.939-20.971,17.516.24.488,1.617-.062,3.934-.612a26.87,26.87,0,0,1,8.62-.71c1.859.157,12.058.31,14.8,7.471l1.6,4.17c3.576.126,6.971-.417,6.717-5.1-.395-7.276,10.67-11.079,15.231-10.543,5.645.664,18.807,1.932,18.367-9.318-.366-9.366-2.447-15.419,7.776-19.431s14.671-12.135,10.632-21.888c-4.251-10.264,6.046-23.194-1.333-30.328a12.046,12.046,0,0,0-8.5-3.715c-11.192,0-22.77,16.587-23.1,32.733" transform="translate(-1721.941 -1645.486)" fill="none"/>
    </clipPath>
    <linearGradient id="linear-gradient-2" x1="-1.074" y1="1.435" x2="-1.073" y2="1.435" gradientUnits="objectBoundingBox">
      <stop offset="0" stop-color="#ff9085"/>
      <stop offset="1" stop-color="#fb6fbb"/>
    </linearGradient>
    <clipPath id="clip-path-5">
      <path id="Trazado_188631" data-name="Trazado 188631" d="M2019.383,1678.219c-.3,14.848-5.592,14.413-11.81,13.978a21.7,21.7,0,0,0-7.112.3c-11.881,3.145-3.7,18.912-6.77,24.791-2.409,4.609-7.579,5.593-10.883,5.79l8.01,22.775c3.527.3,9.77.089,9.486-5.145-.4-7.276,10.67-11.079,15.231-10.543,5.645.664,18.807,1.932,18.367-9.319-.366-9.366-2.447-15.419,7.776-19.431s14.671-12.135,10.631-21.888c-4.251-10.264,6.046-23.194-1.332-30.327a12.046,12.046,0,0,0-8.5-3.715c-11.192,0-22.77,16.587-23.1,32.733" transform="translate(-1982.809 -1645.486)" fill="none"/>
    </clipPath>
    <clipPath id="clip-path-6">
      <rect id="Rectángulo_40560" data-name="Rectángulo 40560" width="65.821" height="89.584" fill="none"/>
    </clipPath>
    <clipPath id="clip-path-7">
      <path id="Trazado_188638" data-name="Trazado 188638" d="M585.185,545.3a40.171,40.171,0,0,0-31.282,23.71,4.132,4.132,0,0,1-3.836,2.573,20.517,20.517,0,0,0-3.642.2c-10.515,1.512-19.007,11.249-19.661,22.187a21.36,21.36,0,0,0,5.166,15.63,18.96,18.96,0,0,0,14.683,6.457l14.067-.2a1.143,1.143,0,0,1,1.15,1.193l-.235,10.761a1.213,1.213,0,0,1-1.2,1.2l-5.5-.043L568.2,644.683l3.714,1.351.253-.631,13.572-14.266,1-.656-3.9-1.287-5.749-.045a1.214,1.214,0,0,1-1.208-1.246l4.331-21.568-3.818-1.127-7.323.226a1.128,1.128,0,0,1-1.086-.694,1.269,1.269,0,0,1,.238-1.324L585.809,583.6a1.338,1.338,0,0,1,1.894-.123l17.8,18.658a1.226,1.226,0,0,1,.2,1.391,1.452,1.452,0,0,1-1.256.811l-8,.247-.256,10.78,4.065,1.228,25.953-1.649c11.272-.158,21.108-8.766,21.578-19.2a16.679,16.679,0,0,0-5.727-13.465c-2.03-1.792-.387-2.2-3.028-2.991-.466-.14-4.932-1.152-5.405-1.257a21.329,21.329,0,0,0-6.116-.44q-.481.034-.955.087a4.052,4.052,0,0,1-4.748-3.535c-1.423-17.337-15.154-29.131-31.992-29.133a37.03,37.03,0,0,0-4.632.293" transform="translate(-526.72 -545.011)" fill="none"/>
    </clipPath>
    <linearGradient id="linear-gradient-3" x1="-0.116" y1="1.587" x2="-0.116" y2="1.587" gradientUnits="objectBoundingBox">
      <stop offset="0" stop-color="#444b8c"/>
      <stop offset="0.996" stop-color="#26264f"/>
      <stop offset="1" stop-color="#26264f"/>
    </linearGradient>
    <clipPath id="clip-path-8">
      <path id="Trazado_188639" data-name="Trazado 188639" d="M632.159,556.4a40.565,40.565,0,0,0-31.667,23.813,4.35,4.35,0,0,1-2.157,2.225,3.724,3.724,0,0,1-1.724.356,20.985,20.985,0,0,0-3.686.2c-10.636,1.507-19.226,11.286-19.89,22.284A21.44,21.44,0,0,0,578.26,621a19.267,19.267,0,0,0,14.854,6.52l14.232-.17a1.153,1.153,0,0,1,1.164,1.2l-.237,10.825a1.222,1.222,0,0,1-1.215,1.205l-5.571-.054,13.466,15.828L629.774,640.8l-5.821-.058a1.227,1.227,0,0,1-1.224-1.256l.522-22.832-7.414.215a1.14,1.14,0,0,1-1.1-.7,1.263,1.263,0,0,1,.24-1.33l17.806-19.9a1.357,1.357,0,0,1,1.917-.122l18.024,18.806a1.233,1.233,0,0,1,.205,1.4,1.472,1.472,0,0,1-1.273.814l-8.1.234-.259,10.847,30.41-.369a22.907,22.907,0,0,0,19.441-11.1,18.055,18.055,0,0,0,2.43-8.19,16.754,16.754,0,0,0-5.8-13.565,20.064,20.064,0,0,0-14.748-4.744c-.324.022-.647.051-.968.086a4.108,4.108,0,0,1-4.811-3.564C667.81,568,653.877,556.107,636.8,556.107a37.768,37.768,0,0,0-4.643.289" transform="translate(-572.991 -556.107)" fill="none"/>
    </clipPath>
    <linearGradient id="linear-gradient-4" x1="-0.322" y1="2.195" x2="-0.322" y2="2.195" xlink:href="#linear-gradient-2"/>
    <clipPath id="clip-path-9">
      <rect id="Rectángulo_40565" data-name="Rectángulo 40565" width="120.161" height="73.921" fill="none"/>
    </clipPath>
    <clipPath id="clip-path-10">
      <path id="Trazado_188640" data-name="Trazado 188640" d="M693.152,966.39a22.907,22.907,0,0,1-19.441,11.1l-30.41.369.259-10.847,8.1-.234a1.472,1.472,0,0,0,1.273-.814,1.233,1.233,0,0,0-.205-1.4L634.7,945.753a1.357,1.357,0,0,0-1.917.122l-17.806,19.9a1.264,1.264,0,0,0-.24,1.33,1.14,1.14,0,0,0,1.1.7l7.414-.215-.522,22.832a1.227,1.227,0,0,0,1.224,1.257l5.821.058-14.822,15.553-13.466-15.828,5.571.055a1.222,1.222,0,0,0,1.215-1.205l.237-10.825a1.153,1.153,0,0,0-1.164-1.2l-14.232.17a19.267,19.267,0,0,1-14.854-6.52,21.44,21.44,0,0,1-5.225-15.729c.664-11,9.254-20.778,19.89-22.284a21,21,0,0,1,3.686-.2,3.723,3.723,0,0,0,1.724-.356q.524.654,1.026,1.333c3.016,4.071,6.113,9.26,11.78,9.533,5.513.263,10.543-3.436,15.626-4.984,6.392-1.943,12.719-1.577,18.117,2.673,5.43,4.276,8.982,10.443,14.441,14.7a30.262,30.262,0,0,0,15.258,6.026c5.7.66,11.588.381,16.925,2.853a14.927,14.927,0,0,1,1.644.885" transform="translate(-572.991 -933.374)" fill="none"/>
    </clipPath>
    <linearGradient id="linear-gradient-5" x1="-0.833" y1="1.795" x2="-0.832" y2="1.795" xlink:href="#linear-gradient-2"/>
    <clipPath id="clip-path-11">
      <path id="Trazado_188643" data-name="Trazado 188643" d="M763.858,2069.972a2.828,2.828,0,0,0-2.773,2.877V2136.5a2.591,2.591,0,0,0,2.773,2.673l85.482-6.293a2.684,2.684,0,0,0,2.279-2.768v-57.544a2.455,2.455,0,0,0-2.279-2.6Z" transform="translate(-761.085 -2069.972)" fill="none"/>
    </clipPath>
    <linearGradient id="linear-gradient-6" x1="-0.587" y1="1.651" x2="-0.586" y2="1.651" xlink:href="#linear-gradient-3"/>
    <clipPath id="clip-path-12">
      <path id="Trazado_188644" data-name="Trazado 188644" d="M896.244,2122.934l-79.618.343a2.317,2.317,0,0,0-2.256,2.358v55.731a2.124,2.124,0,0,0,2.256,2.194l79.618-5.466a2.2,2.2,0,0,0,1.88-2.268v-50.761a2.012,2.012,0,0,0-1.873-2.131h-.007" transform="translate(-814.37 -2122.934)" fill="none"/>
    </clipPath>
    <linearGradient id="linear-gradient-7" x1="-0.679" y1="1.824" x2="-0.678" y2="1.824" gradientUnits="objectBoundingBox">
      <stop offset="0" stop-color="#aa80f9"/>
      <stop offset="0.996" stop-color="#6165d7"/>
      <stop offset="1" stop-color="#6165d7"/>
    </linearGradient>
    <clipPath id="clip-path-13">
      <rect id="Rectángulo_40569" data-name="Rectángulo 40569" width="89.761" height="69.213" fill="none"/>
    </clipPath>
    <clipPath id="clip-path-14">
      <path id="Trazado_188647" data-name="Trazado 188647" d="M852.747,2966.281l-91.663,6.623,39.967,7.02a5.409,5.409,0,0,0,1.384.064l95.036-7.845-43.266-5.816a7.069,7.069,0,0,0-.947-.064q-.256,0-.511.019" transform="translate(-761.085 -2966.262)" fill="none"/>
    </clipPath>
    <linearGradient id="linear-gradient-8" x1="-0.389" y1="3.771" x2="-0.389" y2="3.771" xlink:href="#linear-gradient-3"/>
    <clipPath id="clip-path-15">
      <path id="Trazado_188649" data-name="Trazado 188649" d="M1631.611,1484.2c-20.482.05-37.048,17.526-37,39.034s16.69,38.9,37.172,38.854l1.754,0c1.617,0,3.786,0,3.984,0,20.05-.568,31.309-17.854,31.262-39.034-.046-21.005-11.9-38.052-31.723-38.793-.468-.018-4.855-.061-5.429-.061h-.021" transform="translate(-1594.61 -1484.2)" fill="none"/>
    </clipPath>
    <linearGradient id="linear-gradient-9" x1="-0.878" y1="1.582" x2="-0.877" y2="1.582" gradientUnits="objectBoundingBox">
      <stop offset="0" stop-color="#ab316d"/>
      <stop offset="1" stop-color="#792d3d"/>
    </linearGradient>
    <clipPath id="clip-path-16">
      <path id="Trazado_188650" data-name="Trazado 188650" d="M1730.97,1489.19c-20.482.05-37.048,17.526-37,39.034s16.69,38.9,37.172,38.854,37.048-17.526,37-39.034c-.047-21.478-16.642-38.855-37.085-38.854h-.088" transform="translate(-1693.97 -1489.19)" fill="none"/>
    </clipPath>
    <linearGradient id="linear-gradient-10" x1="-0.965" y1="1.605" x2="-0.964" y2="1.605" xlink:href="#linear-gradient"/>
    <clipPath id="clip-path-17">
      <rect id="Rectángulo_40576" data-name="Rectángulo 40576" width="72.304" height="75.926" fill="none"/>
    </clipPath>
    <clipPath id="clip-path-18">
      <path id="Trazado_188651" data-name="Trazado 188651" d="M1779.662,1541.124c.046,20.966-16.1,38-36.068,38.051s-36.189-16.908-36.236-37.875,16.1-38,36.068-38.051,36.19,16.908,36.236,37.875" transform="translate(-1707.358 -1503.25)" fill="none"/>
    </clipPath>
    <linearGradient id="linear-gradient-11" x1="-0.994" y1="1.625" x2="-0.993" y2="1.625" xlink:href="#linear-gradient"/>
    <clipPath id="clip-path-19">
      <path id="Trazado_188652" data-name="Trazado 188652" d="M1723,1556.489c0,20.333,15.7,36.817,35.061,36.817s35.061-16.483,35.061-36.817-15.7-36.817-35.061-36.817S1723,1536.156,1723,1556.489" transform="translate(-1722.997 -1519.672)" fill="none"/>
    </clipPath>
    <linearGradient id="linear-gradient-12" x1="-1.198" y1="1.741" x2="-1.197" y2="1.741" xlink:href="#linear-gradient"/>
    <clipPath id="clip-path-20">
      <path id="Trazado_188653" data-name="Trazado 188653" d="M1723,1566.981c0,19.9,15.362,36.03,34.311,36.03s34.311-16.131,34.311-36.03-15.362-36.03-34.311-36.03S1723,1547.082,1723,1566.981" transform="translate(-1722.997 -1530.951)" fill="none"/>
    </clipPath>
    <linearGradient id="linear-gradient-13" x1="-1.19" y1="1.798" x2="-1.19" y2="1.798" gradientUnits="objectBoundingBox">
      <stop offset="0" stop-color="#ebeff2"/>
      <stop offset="0.004" stop-color="#ebeff2"/>
      <stop offset="1" stop-color="#fff"/>
    </linearGradient>
    <clipPath id="clip-path-21">
      <path id="Trazado_188654" data-name="Trazado 188654" d="M2266.6,1642.077l26.136,10.135a31.784,31.784,0,0,0,1.31-9.066c0-16.259-12.157-29.536-27.446-30.356Z" transform="translate(-2266.598 -1612.79)" fill="none"/>
    </clipPath>
    <linearGradient id="linear-gradient-14" x1="-3.117" y1="3.506" x2="-3.116" y2="3.506" xlink:href="#linear-gradient"/>
    <clipPath id="clip-path-22">
      <rect id="Rectángulo_40581" data-name="Rectángulo 40581" width="51.344" height="76.328" fill="none"/>
    </clipPath>
    <clipPath id="clip-path-23">
      <path id="Trazado_188656" data-name="Trazado 188656" d="M2182.041,2024.811a2.184,2.184,0,1,0,2.182-2.291,2.238,2.238,0,0,0-2.182,2.291" transform="translate(-2182.041 -2022.52)" fill="none"/>
    </clipPath>
    <linearGradient id="linear-gradient-15" x1="-25.196" y1="19.429" x2="-25.185" y2="19.429" xlink:href="#linear-gradient-2"/>
    <clipPath id="clip-path-24">
      <path id="Trazado_188657" data-name="Trazado 188657" d="M2193.547,1795.188v15.442a1.38,1.38,0,1,0,2.757,0v-15.442a1.38,1.38,0,1,0-2.757,0" transform="translate(-2193.547 -1793.74)" fill="none"/>
    </clipPath>
    <linearGradient id="linear-gradient-16" x1="-13.417" y1="7.633" x2="-13.411" y2="7.633" xlink:href="#linear-gradient-2"/>
    <clipPath id="clip-path-25">
      <path id="Trazado_188658" data-name="Trazado 188658" d="M1943.78,2056.419l-18.565,17.838a.877.877,0,0,0-.062,1.2.78.78,0,0,0,1.138.065l18.565-17.838a.876.876,0,0,0,.062-1.2.779.779,0,0,0-1.138-.065" transform="translate(-1924.947 -2056.203)" fill="none"/>
    </clipPath>
    <linearGradient id="linear-gradient-17" x1="-4.806" y1="4.423" x2="-4.803" y2="4.423" xlink:href="#linear-gradient-2"/>
    <clipPath id="clip-path-26">
      <path id="Trazado_188660" data-name="Trazado 188660" d="M1851.951,3203.807a1.047,1.047,0,0,0-.109,1.258c.174.2.407.166.875.131a8.252,8.252,0,0,1,.882-.023c1.186.035,1.5.316,2.3.093.326-.09.9-.308.89-.541-.008-.164-.3-.248-1.278-.576a12.588,12.588,0,0,0-1.677-.539,6.414,6.414,0,0,0-1-.115,1.13,1.13,0,0,0-.882.311" transform="translate(-1851.679 -3203.495)" fill="none"/>
    </clipPath>
    <linearGradient id="linear-gradient-18" x1="-23.169" y1="10.889" x2="-23.157" y2="10.889" xlink:href="#linear-gradient-3"/>
    <clipPath id="clip-path-27">
      <path id="Trazado_188661" data-name="Trazado 188661" d="M1845.591,3180.532l.883,1.921a1.152,1.152,0,0,0,1.169-.236l-.595-1.979Z" transform="translate(-1845.591 -3180.239)" fill="none"/>
    </clipPath>
    <linearGradient id="linear-gradient-19" x1="-41.25" y1="11.728" x2="-41.228" y2="11.728" xlink:href="#linear-gradient"/>
    <clipPath id="clip-path-28">
      <path id="Trazado_188662" data-name="Trazado 188662" d="M1744.155,3228.728a1.047,1.047,0,0,0-.109,1.258c.174.2.407.166.875.131a8.177,8.177,0,0,1,.882-.023c1.186.035,1.5.315,2.3.093.326-.09.9-.308.89-.541-.008-.164-.3-.248-1.278-.575a12.666,12.666,0,0,0-1.677-.539,6.413,6.413,0,0,0-1-.115,1.128,1.128,0,0,0-.882.312" transform="translate(-1743.882 -3228.416)" fill="none"/>
    </clipPath>
    <linearGradient id="linear-gradient-20" x1="-21.818" y1="10.363" x2="-21.805" y2="10.363" xlink:href="#linear-gradient-3"/>
    <clipPath id="clip-path-29">
      <path id="Trazado_188663" data-name="Trazado 188663" d="M1737.794,3205.453l.883,1.921a1.152,1.152,0,0,0,1.169-.236l-.6-1.979Z" transform="translate(-1737.794 -3205.159)" fill="none"/>
    </clipPath>
    <linearGradient id="linear-gradient-21" x1="-38.831" y1="11.182" x2="-38.809" y2="11.182" xlink:href="#linear-gradient"/>
    <clipPath id="clip-path-30">
      <rect id="Rectángulo_40592" data-name="Rectángulo 40592" width="15.186" height="30.081" fill="none"/>
    </clipPath>
    <clipPath id="clip-path-31">
      <path id="Trazado_188665" data-name="Trazado 188665" d="M1284.08,2623.306c-.762-2.087.028-4.477-1.672-5.521a4.086,4.086,0,0,0-2.241-.525c.1,7.338.245,14.668.424,22.327.059,2.529.375,2.655,2.827,4.871,2.841,2.568,7.736,3.407,11.935,2.567-5.5-3.382-9.423-6.885-8.861-9.888.654-3.5,7.059-4.53,6.8-7.016-.273-2.635-7.547-2.25-9.213-6.814" transform="translate(-1280.167 -2617.259)" fill="none"/>
    </clipPath>
    <linearGradient id="linear-gradient-22" x1="-2.398" y1="2.473" x2="-2.396" y2="2.473" xlink:href="#linear-gradient-7"/>
    <clipPath id="clip-path-32">
      <path id="Trazado_188667" data-name="Trazado 188667" d="M1343.286,2821.518c-1.222,3.976,1.04,2.36,5.647.09,4.852-2.391,15.458-5.823,20.028-1.327,3.4,3.349,1,8.644,6.262,14.472a17.083,17.083,0,0,0,2.356,2.16l2.847-1.178c.372-2.174,1.545-10.557-3.731-18.064-1.276-1.815-3.7-5.3-7.854-6.774a15.317,15.317,0,0,0-5.149-.861c-9.774,0-19.45,8.366-20.408,11.482" transform="translate(-1342.959 -2810.036)" fill="none"/>
    </clipPath>
    <linearGradient id="linear-gradient-23" x1="-1.961" y1="1.529" x2="-1.959" y2="1.529" xlink:href="#linear-gradient-2"/>
    <clipPath id="clip-path-33">
      <path id="Trazado_188668" data-name="Trazado 188668" d="M1279.046,2840.934a7.2,7.2,0,0,0,1.213,6.539c2.869,3.62,9.31,3.239,13.333,1.9,4.895-1.626,5.988-4.589,7.913-3.86,2.991,1.131.863,8.5,6.262,14.473a17.1,17.1,0,0,0,2.356,2.16l2.847-1.178a33.674,33.674,0,0,0-.353-11.711c-.626-2.972-1.187-5.634-3.281-8.2a15.786,15.786,0,0,0-7.951-4.925,28.768,28.768,0,0,0-8.484-1.234c-6.353,0-12.447,1.971-13.856,6.037" transform="translate(-1278.714 -2834.897)" fill="none"/>
    </clipPath>
    <linearGradient id="linear-gradient-24" x1="-1.922" y1="1.565" x2="-1.92" y2="1.565" xlink:href="#linear-gradient-2"/>
    <clipPath id="clip-path-34">
      <path id="Trazado_188669" data-name="Trazado 188669" d="M1353.579,2831.031l16.41-1.074-.057-1.452-22.277-.333Z" transform="translate(-1347.655 -2828.172)" fill="none"/>
    </clipPath>
    <linearGradient id="linear-gradient-25" x1="-4.28" y1="6.434" x2="-4.276" y2="6.434" gradientUnits="objectBoundingBox">
      <stop offset="0" stop-color="#311944"/>
      <stop offset="1" stop-color="#893976"/>
    </linearGradient>
    <clipPath id="clip-path-35">
      <path id="Trazado_188670" data-name="Trazado 188670" d="M1336.388,2828.439h0a.992.992,0,0,0,.653.932l7.118,2.791.032-1.935-7.017-2.38a.615.615,0,0,0-.786.592" transform="translate(-1336.388 -2827.823)" fill="none"/>
    </clipPath>
    <linearGradient id="linear-gradient-26" x1="-11.143" y1="11.474" x2="-11.135" y2="11.474" xlink:href="#linear-gradient-25"/>
    <clipPath id="clip-path-36">
      <path id="Trazado_188671" data-name="Trazado 188671" d="M1381.76,2804.376c1.112.248,2.557,1.541,3.391,1.822a6.9,6.9,0,0,0,2.178.175l-.28-.736c-.28-.736-3.363-2.522-3.993-2.707a.379.379,0,0,0-.1-.015c-.611,0-1.321,1.431-1.192,1.46" transform="translate(-1381.745 -2802.916)" fill="none"/>
    </clipPath>
    <linearGradient id="linear-gradient-27" x1="-16.901" y1="17.77" x2="-16.889" y2="17.77" xlink:href="#linear-gradient"/>
    <clipPath id="clip-path-37">
      <path id="Trazado_188672" data-name="Trazado 188672" d="M1460.631,2647.712l-24.14.679a.808.808,0,0,0-.78.719l-1.57,14.3a1.349,1.349,0,0,0,1.132,1.2l23.036-1.414a.808.808,0,0,0,.758-.67l2.891-13.809c.085-.5-.793-1.008-1.306-1.008h-.021" transform="translate(-1434.138 -2647.712)" fill="none"/>
    </clipPath>
    <linearGradient id="linear-gradient-28" x1="-2.997" y1="2.694" x2="-2.995" y2="2.694" xlink:href="#linear-gradient-3"/>
    <clipPath id="clip-path-38">
      <path id="Trazado_188673" data-name="Trazado 188673" d="M1468.148,2653.687l-24.14.679a.808.808,0,0,0-.78.719l-1.57,14.3a.808.808,0,0,0,.841.9l23.327-1.1a.808.808,0,0,0,.758-.67l2.383-13.872a.808.808,0,0,0-.8-.944h-.023" transform="translate(-1441.653 -2653.687)" fill="none"/>
    </clipPath>
    <linearGradient id="linear-gradient-29" x1="-3.728" y1="2.546" x2="-3.725" y2="2.546" xlink:href="#linear-gradient-25"/>
    <clipPath id="clip-path-39">
      <rect id="Rectángulo_40602" data-name="Rectángulo 40602" width="25.26" height="15.962" fill="none"/>
    </clipPath>
    <clipPath id="clip-path-40">
      <path id="Trazado_188674" data-name="Trazado 188674" d="M1456.926,2674.22c-2.037-.863-1.318-2.51-3.723-4.561-3.173-2.707-6.407-1.533-7.54-3.63a3.894,3.894,0,0,1,.093-3.315l-1.748.049a.808.808,0,0,0-.78.719l-1.57,14.3a.808.808,0,0,0,.841.895l23.327-1.1a.808.808,0,0,0,.758-.67l.329-1.914a8.807,8.807,0,0,0-2.54-.952c-3.422-.694-5.1,1.18-7.446.186" transform="translate(-1441.653 -2662.714)" fill="none"/>
    </clipPath>
    <linearGradient id="linear-gradient-30" x1="-3.973" y1="4.572" x2="-3.97" y2="4.572" xlink:href="#linear-gradient-25"/>
    <clipPath id="clip-path-41">
      <path id="Trazado_188675" data-name="Trazado 188675" d="M1338.6,2426.55a2.683,2.683,0,0,1-.473,1.354c-.248.291-.624.536-2.749,1.062-1.156.287-1.305.279-1.331.394-.125.56,3.029,2.468,6.286,2.008,1.994-.282,3.807-1.419,3.7-2.016s-2.1-.279-2.7-1.366c-.413-.756.05-1.831.6-2.72-.53-.993-2.49-1.187-3.02-2.18a17.348,17.348,0,0,1-.31,3.464" transform="translate(-1334.039 -2423.086)" fill="none"/>
    </clipPath>
    <linearGradient id="linear-gradient-31" x1="-7.471" y1="7.074" x2="-7.466" y2="7.074" xlink:href="#linear-gradient"/>
    <clipPath id="clip-path-42">
      <path id="Trazado_188676" data-name="Trazado 188676" d="M1394.785,2397.687c-.5.589-.166,2.166-.123,2.445.049.316.246.471.4.74.208.372.532.962,1.056,1.944a5.257,5.257,0,0,1,.5-.763,4.638,4.638,0,0,1,.841-.83c.846-.616,1.309-.257,1.89-.718a2.1,2.1,0,0,0,.565-2.339,2.285,2.285,0,0,0-1.4-1.119,4.081,4.081,0,0,0-1.452-.263,2.931,2.931,0,0,0-2.269.9" transform="translate(-1394.515 -2396.784)" fill="none"/>
    </clipPath>
    <linearGradient id="linear-gradient-32" x1="-11.432" y1="11.084" x2="-11.423" y2="11.084" gradientUnits="objectBoundingBox">
      <stop offset="0" stop-color="#311944"/>
      <stop offset="1" stop-color="#6b3976"/>
    </linearGradient>
    <clipPath id="clip-path-43">
      <path id="Trazado_188677" data-name="Trazado 188677" d="M1397.577,2433.551c-.318.006-.45.1-.969.1-.479,0-.593-.083-.758,0-.206.1-.421.416-.385,1.436a.812.812,0,0,0-.769-.494.511.511,0,0,0-.241.137c-.3.317-.083.878.615,1.352a2.846,2.846,0,0,0,2.1,1.856c1.469.282,2.524-2.9,1.781-3.83a1.878,1.878,0,0,0-1.347-.556h-.03" transform="translate(-1394.323 -2433.551)" fill="none"/>
    </clipPath>
    <linearGradient id="linear-gradient-33" x1="-17.072" y1="14.125" x2="-17.06" y2="14.125" xlink:href="#linear-gradient"/>
    <clipPath id="clip-path-44">
      <path id="Trazado_188678" data-name="Trazado 188678" d="M1399.094,2432.264a2.074,2.074,0,0,0,.075.313,3.455,3.455,0,0,0,.546.9c.294.522-.147.8.044,1.512a2.137,2.137,0,0,0,.958,1.177,1.869,1.869,0,0,0,1.6.358,1.8,1.8,0,0,0,1.012-1.793,3.413,3.413,0,0,0-1.035-.334,2.544,2.544,0,0,0-.759-.006,1.1,1.1,0,0,1-.594-.031,1.827,1.827,0,0,1-1-2.016c.112-.364.392-.568.336-.638a.059.059,0,0,0-.049-.018,4.225,4.225,0,0,0-1.129.578" transform="translate(-1399.094 -2431.686)" fill="none"/>
    </clipPath>
    <linearGradient id="linear-gradient-34" x1="-14.595" y1="13.991" x2="-14.585" y2="13.991" xlink:href="#linear-gradient-32"/>
    <clipPath id="clip-path-45">
      <path id="Trazado_188679" data-name="Trazado 188679" d="M1437.52,2476.14a.684.684,0,0,0,.6.361c.243,0,.475-.173.458-.236-.007-.026-.059-.036-.112-.041a1.817,1.817,0,0,1-.885-.089.111.111,0,0,0-.035-.006c-.014,0-.025,0-.029.01" transform="translate(-1437.518 -2476.13)" fill="none"/>
    </clipPath>
    <linearGradient id="linear-gradient-35" x1="-134.984" y1="74.251" x2="-134.89" y2="74.251" gradientUnits="objectBoundingBox">
      <stop offset="0" stop-color="#ffc444"/>
      <stop offset="1" stop-color="#f36f56"/>
    </linearGradient>
  </defs>
  <g id="Grupo_127006" data-name="Grupo 127006" transform="translate(-947.247 -1544.856)">
    <path id="Trazado_188615" data-name="Trazado 188615" d="M536.407,460.744c-9.2,3.59-34.408,13.433-41.846,35.517-12.048,35.769,31.994,75.561,17.834,92.162-5.553,6.51-14.525,2.97-16.426,8.035C491.714,607.8,529.7,644.1,572.935,648.92c41.786,4.655,96.873-19.176,109.818-66.64,15.382-56.4-39.361-107.2-82.129-121.465-8.027-2.678-34.723-11.584-64.217-.07" transform="translate(454.8 1089.855)" fill="#f4f7fa" opacity="0.54"/>
    <g id="Grupo_126891" data-name="Grupo 126891" transform="translate(1040.907 1675.601)">
      <g id="Grupo_126890" data-name="Grupo 126890" clip-path="url(#clip-path)">
        <rect id="Rectángulo_40557" data-name="Rectángulo 40557" width="98.033" height="104.141" transform="matrix(0.626, -0.779, 0.779, 0.626, -25.356, 31.546)" fill="url(#linear-gradient)"/>
      </g>
    </g>
    <g id="Grupo_126896" data-name="Grupo 126896" transform="translate(1040.907 1675.601)">
      <g id="Grupo_126895" data-name="Grupo 126895" clip-path="url(#clip-path)">
        <g id="Grupo_126894" data-name="Grupo 126894" transform="translate(-3.149 -2.135)" opacity="0.5" style="mix-blend-mode: soft-light;isolation: isolate">
          <g id="Grupo_126893" data-name="Grupo 126893">
            <g id="Grupo_126892" data-name="Grupo 126892" clip-path="url(#clip-path-3)">
              <path id="Trazado_188617" data-name="Trazado 188617" d="M1789.483,2348.689l.042.3c1.651-.218,3.312-.46,4.938-.719a162.21,162.21,0,0,0,33.9-9.1,132.489,132.489,0,0,0,24.665-12.772,114.006,114.006,0,0,0,16.539-13.295,94.433,94.433,0,0,0,9.286-10.448c.469-.619.917-1.281,1.349-1.92.576-.853,1.171-1.735,1.825-2.521l-.212-.2c-.662.8-1.262,1.685-1.842,2.543-.43.637-.875,1.3-1.34,1.907a94.136,94.136,0,0,1-9.259,10.417,113.737,113.737,0,0,1-16.5,13.263,132.211,132.211,0,0,1-24.616,12.747,161.948,161.948,0,0,1-33.844,9.083c-1.624.259-3.283.5-4.931.718" transform="translate(-1789.483 -2298.01)" fill="#fcfdfe"/>
              <path id="Trazado_188618" data-name="Trazado 188618" d="M2563.467,2747.24l.126.273c10.744-5.46,30.976-.6,31.179-.549l.054-.293c-.2-.05-20.528-4.934-31.359.569" transform="translate(-2509.456 -2713.459)" fill="#fcfdfe"/>
              <path id="Trazado_188619" data-name="Trazado 188619" d="M2113.752,2714.031l.1.286c7.732-2.78,13.356-18.455,13.412-18.613l-.262-.114c-.055.156-5.635,15.7-13.245,18.441" transform="translate(-2091.123 -2667.845)" fill="#fcfdfe"/>
              <path id="Trazado_188620" data-name="Trazado 188620" d="M2048.905,2974.093l.048.3c5.293-.818,13,1.116,21.705,5.447.438.218.438.218.49.21l-.045-.3.022.149.031-.145c-.031-.011-.2-.093-.387-.189-8.753-4.355-16.519-6.3-21.865-5.472" transform="translate(-2030.802 -2926.741)" fill="#fcfdfe"/>
              <path id="Trazado_188621" data-name="Trazado 188621" d="M1832.553,2862.033l.125.273c5.3-2.663,7.181-11.8,7.2-11.893l-.274-.071c-.018.091-1.875,9.09-7.05,11.692" transform="translate(-1829.547 -2811.798)" fill="#fcfdfe"/>
              <path id="Trazado_188622" data-name="Trazado 188622" d="M2892.034,2464.882l.14.265a73.393,73.393,0,0,1,14.939-6.19c.547-.167.739-.227.8-.26l-.13-.271c-.049.025-.361.12-.757.241a73.654,73.654,0,0,0-14.994,6.215" transform="translate(-2815.095 -2447.232)" fill="#fcfdfe"/>
              <path id="Trazado_188623" data-name="Trazado 188623" d="M2768.248,2403.49l.205.211c4.282-4.8,3.8-18.279,3.775-18.851l-.28,0c.005.138.5,13.929-3.7,18.635" transform="translate(-2699.947 -2378.79)" fill="#fcfdfe"/>
            </g>
          </g>
        </g>
      </g>
    </g>
    <g id="Grupo_126898" data-name="Grupo 126898" transform="translate(1033.045 1627.931)">
      <g id="Grupo_126897" data-name="Grupo 126897" clip-path="url(#clip-path-4)">
        <rect id="Rectángulo_40559" data-name="Rectángulo 40559" width="105.907" height="100.317" transform="matrix(0.06, -0.998, 0.998, 0.06, -6.722, 100.095)" fill="url(#linear-gradient-2)"/>
      </g>
    </g>
    <g id="Grupo_126903" data-name="Grupo 126903" transform="translate(1051.249 1627.931)">
      <g id="Grupo_126902" data-name="Grupo 126902" clip-path="url(#clip-path-5)">
        <g id="Grupo_126901" data-name="Grupo 126901" transform="translate(7.173 -1.959)" opacity="0.5" style="mix-blend-mode: soft-light;isolation: isolate">
          <g id="Grupo_126900" data-name="Grupo 126900">
            <g id="Grupo_126899" data-name="Grupo 126899" clip-path="url(#clip-path-6)">
              <path id="Trazado_188626" data-name="Trazado 188626" d="M2085.6,1706.546l.261.454c31.16-18.286,52.913-52.583,56.77-89.505l-.5-.079c-3.841,36.767-25.5,70.92-56.534,89.13" transform="translate(-2085.6 -1617.417)" fill="#fcfdfe"/>
              <path id="Trazado_188627" data-name="Trazado 188627" d="M2316.288,2712.244l.171.494c13.484-4.47,28.214,4.2,28.361,4.289l.235-.446c-.149-.089-15.07-8.878-28.768-4.337" transform="translate(-2300.19 -2634.633)" fill="#fcfdfe"/>
              <path id="Trazado_188628" data-name="Trazado 188628" d="M2166.372,2344.827l.374.361c9.659-10.824,2.284-37.545,2.209-37.813l-.479.124c.075.266,7.372,26.71-2.1,37.328" transform="translate(-2160.736 -2259.228)" fill="#fcfdfe"/>
              <path id="Trazado_188629" data-name="Trazado 188629" d="M2647.574,2254.412l.344.392c8.372-7.843,26.055-6.081,26.232-6.062l.028-.515c-.18-.019-18.078-1.8-26.6,6.186" transform="translate(-2608.358 -2204.037)" fill="#fcfdfe"/>
              <path id="Trazado_188630" data-name="Trazado 188630" d="M2703.608,1648.263l.49.126c2.623-13.231-6.911-29.216-7.007-29.376l-.42.26c.1.158,9.521,15.965,6.938,28.99" transform="translate(-2654.028 -1618.902)" fill="#fcfdfe"/>
            </g>
          </g>
        </g>
      </g>
    </g>
    <path id="Trazado_188632" data-name="Trazado 188632" d="M1905.371,657.6a6.495,6.495,0,0,0,1.087-12.9c-.17-.014-.339-.016-.507-.015a37.331,37.331,0,0,0-.857-5.395c.156-.064.312-.13.466-.209a6.775,6.775,0,0,0,2.923-8.629,5.737,5.737,0,0,0-7.94-3.047c-.157.081-.306.171-.454.264a34.256,34.256,0,0,0-3.244-4.167c.109-.142.216-.286.316-.44a6.774,6.774,0,0,0-1.438-9,5.737,5.737,0,0,0-8.338,1.676c-.1.151-.184.306-.268.463a30.358,30.358,0,0,0-4.762-1.821c.029-.179.056-.36.071-.545.3-3.563.949-7.586-2.345-7.811-7.621-.522-9.271,3.245-9.571,6.808-.016.184-.02.367-.021.549a30.38,30.38,0,0,0-5,1c-.057-.168-.116-.336-.187-.5-1.385-3.224-1.135-5.375-4.284-4.167-6.867,2.635-7.964,6.525-6.579,9.749.073.168.154.329.238.487a34.248,34.248,0,0,0-3.9,3.565c-.13-.116-.262-.23-.4-.336a5.737,5.737,0,0,0-8.338,1.676,6.775,6.775,0,0,0,1.439,9c.138.1.281.2.424.284a37.35,37.35,0,0,0-1.747,5.176c-.166-.029-.332-.056-.5-.07a6.495,6.495,0,0,0-1.087,12.9c.17.014.339.016.507.015a37.364,37.364,0,0,0,.857,5.395c-.156.064-.312.13-.466.209a6.775,6.775,0,0,0-2.923,8.629,5.737,5.737,0,0,0,7.94,3.047c.157-.081.306-.171.454-.264a34.239,34.239,0,0,0,3.244,4.167c-.109.142-.216.286-.316.44a6.774,6.774,0,0,0,1.439,9c2.7,2.022,8.544,1.1,10.449-1.85.1-.151-1.927-.132-1.843-.288a30.346,30.346,0,0,0,4.762,1.821c-.029.179-.056.36-.072.545a6,6,0,1,0,11.916,1c.016-.185.02-.367.021-.549a30.349,30.349,0,0,0,5-1c.057.168.116.336.187.5a5.737,5.737,0,0,0,7.94,3.047,6.774,6.774,0,0,0,2.923-8.629c-.073-.169-.154-.329-.238-.487a34.257,34.257,0,0,0,3.9-3.565c.13.116.262.23.4.336a5.737,5.737,0,0,0,8.338-1.676,6.775,6.775,0,0,0-1.438-9c-.138-.1-.281-.195-.424-.284a37.356,37.356,0,0,0,1.747-5.175c.166.029.332.056.5.07m-33.833,14.243c-11.947-1.006-20.749-12.309-19.66-25.246s11.658-22.608,23.605-21.6,20.75,12.309,19.66,25.246-11.658,22.608-23.606,21.6" transform="translate(-794.182 949.412)" fill="#bfc6d1"/>
    <path id="Trazado_188633" data-name="Trazado 188633" d="M2486.808,676.822a6.774,6.774,0,0,0,2.923-8.629,5.737,5.737,0,0,0-7.94-3.047c-.157.081-.306.171-.454.264a34.264,34.264,0,0,0-3.245-4.167c.109-.142.217-.286.316-.44,1.905-2.947,3.369-8.793.476-10.527-5.49-3.291-8.347.259-10.253,3.206-.1.151-.184.306-.268.463a30.384,30.384,0,0,0-4.763-1.821c.029-.179.056-.36.072-.545a6.689,6.689,0,0,0-1.635-5.029q-1.1,8.357-2.06,16.731c10.254,2.581,17.4,12.97,16.415,24.7-.837,9.944-7.278,17.952-15.637,20.671.019,1.087.047,2.177.037,3.265-.027,2.954-.219,5.913-.413,8.87q1.217-.246,2.4-.588c.057.168.116.336.187.5,1.385,3.224,4.481,5.185,10,2.594,3.053-1.433,2.249-4.952.863-8.177-.072-.168-.154-.329-.238-.487a34.282,34.282,0,0,0,3.9-3.565c.13.116.262.23.4.336,2.7,2.022,8.756.887,10.661-2.061s-1.062-6.59-3.762-8.612c-.138-.1-.281-.2-.424-.284a37.321,37.321,0,0,0,1.747-5.176c.166.029.333.056.5.07a6.495,6.495,0,0,0,1.087-12.9c-.171-.014-.339-.016-.507-.015a37.362,37.362,0,0,0-.857-5.395c.156-.064.312-.13.466-.209" transform="translate(-1375.43 911.672)" fill="#bfc6d1"/>
    <path id="Trazado_188634" data-name="Trazado 188634" d="M1949.36,657.131a6.495,6.495,0,0,0,1.087-12.9c-.171-.014-.339-.016-.507-.015a37.345,37.345,0,0,0-.857-5.395c.156-.064.312-.13.466-.209a6.774,6.774,0,0,0,2.923-8.629,5.737,5.737,0,0,0-7.94-3.047c-.157.081-.306.171-.453.264a34.259,34.259,0,0,0-3.245-4.167c.109-.142.217-.286.316-.44a6.774,6.774,0,0,0-1.438-9,5.737,5.737,0,0,0-8.338,1.676c-.1.151-.184.306-.268.463a30.362,30.362,0,0,0-4.763-1.821c.029-.18.056-.36.072-.545a6,6,0,1,0-11.916-1c-.016.185-.019.367-.021.549a30.346,30.346,0,0,0-5,1c-.057-.168-.116-.336-.187-.5a5.737,5.737,0,0,0-7.94-3.047,6.774,6.774,0,0,0-2.923,8.629c.072.169.154.329.238.487a34.252,34.252,0,0,0-3.9,3.565c-.13-.116-.262-.23-.4-.336a5.737,5.737,0,0,0-8.338,1.676,6.774,6.774,0,0,0,1.439,9c.138.1.281.2.424.284a37.334,37.334,0,0,0-1.747,5.176c-.166-.029-.332-.056-.5-.07a6.495,6.495,0,0,0-1.087,12.9c.17.014.339.016.507.015a37.328,37.328,0,0,0,.857,5.395c-.156.064-.312.13-.466.209a6.775,6.775,0,0,0-2.923,8.629,5.737,5.737,0,0,0,7.94,3.047c.157-.081.306-.171.454-.264a34.251,34.251,0,0,0,3.244,4.167c-.109.142-.217.286-.316.44a6.774,6.774,0,0,0,1.439,9,5.737,5.737,0,0,0,8.338-1.676c.1-.151.184-.306.268-.463a30.345,30.345,0,0,0,4.763,1.821c-.029.18-.056.36-.072.545a6,6,0,1,0,11.916,1c.016-.185.019-.367.021-.549a30.34,30.34,0,0,0,5-1c.057.168.116.336.187.5a5.737,5.737,0,0,0,7.94,3.047,6.774,6.774,0,0,0,2.923-8.629c-.072-.169-.154-.329-.238-.487a34.232,34.232,0,0,0,3.9-3.565c.13.116.262.23.4.336a5.737,5.737,0,0,0,8.338-1.676,6.774,6.774,0,0,0-1.438-9c-.138-.1-.281-.2-.424-.284a37.334,37.334,0,0,0,1.747-5.175c.166.029.332.056.5.07m-33.833,14.243c-11.948-1.006-20.75-12.309-19.66-25.246s11.658-22.608,23.606-21.6,20.749,12.309,19.66,25.246-11.658,22.608-23.605,21.6" transform="translate(-835.101 949.027)" fill="#d8dee8"/>
    <path id="Trazado_188635" data-name="Trazado 188635" d="M2745.991,1688.8a2.664,2.664,0,0,0,.446-5.293c-.07-.006-.139-.007-.208-.006a15.327,15.327,0,0,0-.352-2.213c.064-.026.128-.053.191-.086a2.779,2.779,0,0,0,1.2-3.54,2.353,2.353,0,0,0-3.257-1.25c-.064.033-.126.07-.186.108a14.053,14.053,0,0,0-1.331-1.709c.045-.058.089-.117.129-.181a2.779,2.779,0,0,0-.59-3.69,2.353,2.353,0,0,0-3.42.687c-.04.062-.075.126-.11.19a12.471,12.471,0,0,0-1.954-.747c.012-.073.023-.148.03-.223.123-1.462.389-3.112-.962-3.2-3.126-.214-3.8,1.331-3.926,2.792-.007.076-.008.151-.008.225a12.443,12.443,0,0,0-2.051.41c-.023-.069-.048-.138-.077-.206-.568-1.323-.466-2.2-1.757-1.709-2.817,1.081-3.267,2.677-2.7,4,.03.069.063.135.1.2a14.046,14.046,0,0,0-1.6,1.462c-.053-.048-.108-.095-.166-.138a2.353,2.353,0,0,0-3.42.688,2.779,2.779,0,0,0,.59,3.69c.057.042.115.08.174.117a15.26,15.26,0,0,0-.717,2.123c-.068-.012-.136-.023-.206-.029a2.664,2.664,0,0,0-.446,5.293c.07.006.139.007.208.006a15.29,15.29,0,0,0,.351,2.213c-.064.026-.128.053-.191.086a2.779,2.779,0,0,0-1.2,3.54,2.353,2.353,0,0,0,3.257,1.25c.064-.033.125-.07.186-.108a14.019,14.019,0,0,0,1.331,1.709c-.045.058-.089.117-.13.181a2.779,2.779,0,0,0,.59,3.69,3.447,3.447,0,0,0,4.286-.759c.04-.062-.791-.054-.756-.118a12.453,12.453,0,0,0,1.953.747c-.012.074-.023.148-.029.223a2.46,2.46,0,1,0,4.888.412c.006-.076.008-.151.008-.225a12.44,12.44,0,0,0,2.051-.41c.023.069.048.138.077.206a2.353,2.353,0,0,0,3.257,1.25,2.779,2.779,0,0,0,1.2-3.54c-.03-.069-.063-.135-.1-.2a14.035,14.035,0,0,0,1.6-1.462c.053.048.107.094.165.138a2.353,2.353,0,0,0,3.42-.687,2.779,2.779,0,0,0-.59-3.69c-.057-.042-.115-.08-.174-.117a15.322,15.322,0,0,0,.717-2.123c.068.012.136.023.206.029m-13.878,5.842c-4.9-.413-8.511-5.049-8.064-10.355s4.782-9.274,9.683-8.861,8.511,5.049,8.064,10.355-4.782,9.274-9.683,8.861" transform="translate(-1614.682 -38.145)" fill="#bfc6d1"/>
    <path id="Trazado_188636" data-name="Trazado 188636" d="M2984.491,1696.679a2.779,2.779,0,0,0,1.2-3.54,2.353,2.353,0,0,0-3.257-1.25c-.064.033-.125.07-.186.108a14.044,14.044,0,0,0-1.331-1.709c.045-.058.089-.118.13-.181.782-1.209,1.382-3.607.2-4.318-2.252-1.35-3.424.106-4.206,1.315-.04.062-.075.126-.11.19a12.455,12.455,0,0,0-1.953-.747c.012-.074.023-.148.029-.224a2.743,2.743,0,0,0-.671-2.063q-.451,3.428-.845,6.863a9.439,9.439,0,0,1,6.734,10.133,9.656,9.656,0,0,1-6.414,8.479c.008.446.019.893.015,1.339-.011,1.212-.09,2.426-.17,3.639q.5-.1.986-.241c.024.069.048.138.077.206.568,1.323,1.838,2.127,4.1,1.064,1.252-.588.922-2.032.354-3.354-.03-.069-.063-.135-.1-.2a14.059,14.059,0,0,0,1.6-1.462c.053.048.107.095.165.138a3.592,3.592,0,0,0,4.373-.845c.781-1.209-.436-2.7-1.543-3.533-.057-.042-.115-.08-.174-.116a15.3,15.3,0,0,0,.717-2.123c.068.012.136.023.206.029a2.664,2.664,0,0,0,.446-5.293c-.07-.006-.139-.007-.208-.006a15.354,15.354,0,0,0-.352-2.213c.064-.026.128-.053.191-.086" transform="translate(-1853.104 -53.625)" fill="#bfc6d1"/>
    <path id="Trazado_188637" data-name="Trazado 188637" d="M2764.035,1688.6a2.664,2.664,0,0,0,.446-5.293c-.07-.006-.14-.007-.208-.006a15.324,15.324,0,0,0-.352-2.213c.064-.026.128-.053.191-.086a2.778,2.778,0,0,0,1.2-3.54,2.353,2.353,0,0,0-3.257-1.25c-.064.033-.126.07-.186.108a14.055,14.055,0,0,0-1.331-1.709c.045-.058.089-.117.13-.181a2.779,2.779,0,0,0-.59-3.69,2.354,2.354,0,0,0-3.42.687c-.04.062-.075.126-.11.19a12.44,12.44,0,0,0-1.954-.747c.012-.074.023-.148.03-.223a2.46,2.46,0,1,0-4.888-.412c-.006.076-.008.151-.009.225a12.448,12.448,0,0,0-2.051.41c-.023-.069-.047-.138-.077-.206a2.353,2.353,0,0,0-3.257-1.25,2.779,2.779,0,0,0-1.2,3.54c.03.069.063.135.1.2a14.091,14.091,0,0,0-1.6,1.462c-.053-.048-.107-.094-.165-.138a2.353,2.353,0,0,0-3.42.688,2.778,2.778,0,0,0,.59,3.69c.057.042.115.08.174.117a15.263,15.263,0,0,0-.717,2.123c-.068-.012-.136-.023-.206-.029a2.664,2.664,0,0,0-.446,5.292c.07.006.139.007.208.006a15.251,15.251,0,0,0,.351,2.213c-.064.026-.128.054-.191.086a2.779,2.779,0,0,0-1.2,3.54,2.353,2.353,0,0,0,3.257,1.25c.064-.033.125-.07.186-.108a14.1,14.1,0,0,0,1.331,1.709c-.044.058-.088.117-.129.181a2.779,2.779,0,0,0,.59,3.69,2.353,2.353,0,0,0,3.42-.687c.04-.062.075-.126.11-.19a12.477,12.477,0,0,0,1.954.747c-.012.074-.023.148-.029.223a2.46,2.46,0,1,0,4.888.412c.006-.076.008-.151.009-.225a12.445,12.445,0,0,0,2.051-.41c.023.069.048.138.077.206a2.353,2.353,0,0,0,3.257,1.25,2.779,2.779,0,0,0,1.2-3.539c-.03-.069-.063-.135-.1-.2a14.035,14.035,0,0,0,1.6-1.462c.053.048.108.094.166.138a2.353,2.353,0,0,0,3.42-.687,2.779,2.779,0,0,0-.59-3.69c-.057-.042-.116-.08-.174-.117a15.318,15.318,0,0,0,.717-2.123c.068.012.136.023.206.029m-13.877,5.842c-4.9-.413-8.511-5.049-8.064-10.356s4.782-9.274,9.683-8.861,8.511,5.049,8.064,10.356-4.782,9.274-9.683,8.861" transform="translate(-1631.467 -38.303)" fill="#d8dee8"/>
    <g id="Grupo_126907" data-name="Grupo 126907" transform="translate(949.639 1551.137)">
      <g id="Grupo_126906" data-name="Grupo 126906" clip-path="url(#clip-path-7)">
        <rect id="Rectángulo_40562" data-name="Rectángulo 40562" width="157.892" height="156.704" transform="translate(-50.654 46.393) rotate(-42.662)" fill="url(#linear-gradient-3)"/>
      </g>
    </g>
    <g id="Grupo_126909" data-name="Grupo 126909" transform="translate(952.868 1551.911)">
      <g id="Grupo_126908" data-name="Grupo 126908" clip-path="url(#clip-path-8)">
        <rect id="Rectángulo_40563" data-name="Rectángulo 40563" width="123.146" height="100.247" transform="translate(-0.315 0)" fill="url(#linear-gradient-4)"/>
      </g>
    </g>
    <g id="Grupo_126914" data-name="Grupo 126914" transform="translate(952.868 1578.237)" opacity="0.3" style="mix-blend-mode: multiply;isolation: isolate">
      <g id="Grupo_126913" data-name="Grupo 126913">
        <g id="Grupo_126912" data-name="Grupo 126912" clip-path="url(#clip-path-9)">
          <g id="Grupo_126911" data-name="Grupo 126911" transform="translate(0 0)">
            <g id="Grupo_126910" data-name="Grupo 126910" clip-path="url(#clip-path-10)">
              <rect id="Rectángulo_40564" data-name="Rectángulo 40564" width="74.959" height="121.11" transform="translate(-0.954 73.915) rotate(-89.505)" fill="url(#linear-gradient-5)"/>
            </g>
          </g>
        </g>
      </g>
    </g>
    <path id="Trazado_188641" data-name="Trazado 188641" d="M897.472,3035.025l-136.387-1.163v3.44a1.83,1.83,0,0,0,1.4,1.869l38.566,6.773a5.387,5.387,0,0,0,1.384.063l93.554-7.723a1.746,1.746,0,0,0,1.482-1.824Z" transform="translate(204.908 -1309.046)" fill="#26264f"/>
    <path id="Trazado_188642" data-name="Trazado 188642" d="M829.807,2132.885l-85.482,6.293a2.591,2.591,0,0,1-2.773-2.673v-63.656a2.828,2.828,0,0,1,2.773-2.877h85.482a2.455,2.455,0,0,1,2.279,2.6v57.544a2.685,2.685,0,0,1-2.279,2.769" transform="translate(223.078 -412.419)" fill="#26264f"/>
    <g id="Grupo_126918" data-name="Grupo 126918" transform="translate(965.993 1657.553)">
      <g id="Grupo_126917" data-name="Grupo 126917" clip-path="url(#clip-path-11)">
        <rect id="Rectángulo_40567" data-name="Rectángulo 40567" width="90.534" height="69.318" transform="translate(0 0)" fill="url(#linear-gradient-6)"/>
      </g>
    </g>
    <g id="Grupo_126919" data-name="Grupo 126919" transform="translate(969.712 1661.249)" clip-path="url(#clip-path-12)">
      <rect id="Rectángulo_40568" data-name="Rectángulo 40568" width="83.754" height="60.712" transform="translate(0 0)" fill="url(#linear-gradient-7)"/>
    </g>
    <path id="Trazado_188645" data-name="Trazado 188645" d="M1430.335,2080.656a.988.988,0,1,1-.983-1.07,1.034,1.034,0,0,1,.983,1.07" transform="translate(-415.808 -421.362)" fill="#fff"/>
    <g id="Grupo_126923" data-name="Grupo 126923" transform="translate(965.993 1657.553)" opacity="0.48" style="mix-blend-mode: soft-light;isolation: isolate">
      <g id="Grupo_126922" data-name="Grupo 126922">
        <g id="Grupo_126921" data-name="Grupo 126921" clip-path="url(#clip-path-13)">
          <path id="Trazado_188646" data-name="Trazado 188646" d="M763.857,2139.177l85.05-6.261.433-.032a2.293,2.293,0,0,0,1.505-.762c-6.12-.335-9.922-2.507-12.374-4.751-4.925-4.507-4.07-8.951-9.381-11.915-6.624-3.7-11.832.987-16.858-3.634-3.047-2.8-1.551-4.89-5.3-9.077-4.153-4.637-6.857-3.078-11.03-7.251-5.277-5.277-2.638-9.382-7.184-13.17-5.515-4.6-11.462-.342-16.711-4.75a13.425,13.425,0,0,1-4.155-7.6h-3.994a2.828,2.828,0,0,0-2.773,2.877V2136.5a2.591,2.591,0,0,0,2.773,2.673" transform="translate(-761.084 -2069.971)" fill="#fff"/>
        </g>
      </g>
    </g>
    <g id="Grupo_126927" data-name="Grupo 126927" transform="translate(965.993 1720.098)">
      <g id="Grupo_126926" data-name="Grupo 126926" clip-path="url(#clip-path-14)">
        <rect id="Rectángulo_40571" data-name="Rectángulo 40571" width="136.387" height="13.763" transform="translate(0 0)" fill="url(#linear-gradient-8)"/>
      </g>
    </g>
    <path id="Trazado_188648" data-name="Trazado 188648" d="M952.751,2987.657l76.312-5.6,23.618,3.15-75.654,5.982Z" transform="translate(26.618 -1260.86)" fill="#26264f"/>
    <g id="Grupo_126931" data-name="Grupo 126931" transform="translate(1024.159 1616.676)">
      <g id="Grupo_126930" data-name="Grupo 126930" clip-path="url(#clip-path-15)">
        <rect id="Rectángulo_40573" data-name="Rectángulo 40573" width="107.656" height="107.548" transform="matrix(0.692, -0.722, 0.722, 0.692, -38.983, 40.585)" fill="url(#linear-gradient-9)"/>
      </g>
    </g>
    <g id="Grupo_126933" data-name="Grupo 126933" transform="translate(1031.093 1617.024)">
      <g id="Grupo_126932" data-name="Grupo 126932" clip-path="url(#clip-path-16)">
        <rect id="Rectángulo_40574" data-name="Rectángulo 40574" width="106.032" height="105.01" transform="matrix(0.554, -0.832, 0.832, 0.554, -35.998, 54.009)" fill="url(#linear-gradient-10)"/>
      </g>
    </g>
    <g id="Grupo_126938" data-name="Grupo 126938" transform="translate(1032.027 1618.005)" opacity="0.3" style="mix-blend-mode: multiply;isolation: isolate">
      <g id="Grupo_126937" data-name="Grupo 126937">
        <g id="Grupo_126936" data-name="Grupo 126936" clip-path="url(#clip-path-17)">
          <g id="Grupo_126935" data-name="Grupo 126935" transform="translate(0 0)">
            <g id="Grupo_126934" data-name="Grupo 126934" clip-path="url(#clip-path-18)">
              <rect id="Rectángulo_40575" data-name="Rectángulo 40575" width="103.95" height="103.11" transform="matrix(0.582, -0.813, 0.813, 0.582, -36.016, 50.253)" fill="url(#linear-gradient-11)"/>
            </g>
          </g>
        </g>
      </g>
    </g>
    <g id="Grupo_126942" data-name="Grupo 126942" transform="translate(1033.118 1619.151)">
      <g id="Grupo_126941" data-name="Grupo 126941" clip-path="url(#clip-path-19)">
        <rect id="Rectángulo_40578" data-name="Rectángulo 40578" width="91.464" height="93.524" transform="matrix(0.937, -0.35, 0.35, 0.937, -24.149, 9.026)" fill="url(#linear-gradient-12)"/>
      </g>
    </g>
    <g id="Grupo_126944" data-name="Grupo 126944" transform="translate(1033.118 1619.938)">
      <g id="Grupo_126943" data-name="Grupo 126943" clip-path="url(#clip-path-20)">
        <rect id="Rectángulo_40579" data-name="Rectángulo 40579" width="91.43" height="89.403" transform="translate(-23.501 63.34) rotate(-69.644)" fill="url(#linear-gradient-13)"/>
      </g>
    </g>
    <g id="Grupo_126946" data-name="Grupo 126946" transform="translate(1071.052 1625.649)">
      <g id="Grupo_126945" data-name="Grupo 126945" clip-path="url(#clip-path-21)">
        <rect id="Rectángulo_40580" data-name="Rectángulo 40580" width="47.519" height="42.127" transform="translate(-15.715 31.609) rotate(-63.565)" fill="url(#linear-gradient-14)"/>
      </g>
    </g>
    <g id="Grupo_126949" data-name="Grupo 126949" transform="translate(1031.093 1618.584)" opacity="0.54" style="mix-blend-mode: multiply;isolation: isolate">
      <g id="Grupo_126948" data-name="Grupo 126948">
        <g id="Grupo_126947" data-name="Grupo 126947" clip-path="url(#clip-path-22)">
          <path id="Trazado_188655" data-name="Trazado 188655" d="M1721.691,1548.112c-2.713-8.788,7.1-15.13,5.55-25.373-.682-4.52-3.338-8.223-6.6-11.194-15.442,4.738-26.706,19.734-26.667,37.474.048,21.508,16.69,38.9,37.172,38.854a35.45,35.45,0,0,0,14.172-2.984c-.632-12.43-4.445-19.451-8.5-23.682-6.249-6.52-13.053-6.395-15.122-13.1" transform="translate(-1693.969 -1511.545)" fill="#d8dee8"/>
        </g>
      </g>
    </g>
    <g id="Grupo_126953" data-name="Grupo 126953" transform="translate(1065.152 1654.241)">
      <g id="Grupo_126952" data-name="Grupo 126952" clip-path="url(#clip-path-23)">
        <rect id="Rectángulo_40583" data-name="Rectángulo 40583" width="6.011" height="6.1" transform="translate(-1.909 1.024) rotate(-28.21)" fill="url(#linear-gradient-15)"/>
      </g>
    </g>
    <g id="Grupo_126955" data-name="Grupo 126955" transform="translate(1065.954 1638.277)">
      <g id="Grupo_126954" data-name="Grupo 126954" clip-path="url(#clip-path-24)">
        <rect id="Rectángulo_40584" data-name="Rectángulo 40584" width="11.098" height="17.463" transform="translate(-7.639 4.098) rotate(-28.21)" fill="url(#linear-gradient-16)"/>
      </g>
    </g>
    <g id="Grupo_126957" data-name="Grupo 126957" transform="translate(1047.211 1656.592)">
      <g id="Grupo_126956" data-name="Grupo 126956" clip-path="url(#clip-path-25)">
        <rect id="Rectángulo_40585" data-name="Rectángulo 40585" width="27.219" height="26.919" transform="translate(-8.267 4.386) rotate(-28.21)" fill="url(#linear-gradient-17)"/>
      </g>
    </g>
    <path id="Trazado_188659" data-name="Trazado 188659" d="M1474.542,2526.243c1.627-.9,1.151-6.018-1.056-9.613-3.134-5.105-10-7.542-11.41-6.022-1.441,1.556,2.707,7.4,3.381,8.346,2.444,3.442,7.161,8.356,9.085,7.289" transform="translate(-446.884 -821.89)" fill="#fff"/>
    <g id="Grupo_126961" data-name="Grupo 126961" transform="translate(1042.098 1736.653)">
      <g id="Grupo_126960" data-name="Grupo 126960" clip-path="url(#clip-path-26)">
        <rect id="Rectángulo_40587" data-name="Rectángulo 40587" width="5.565" height="3.306" transform="translate(-0.61 0.14) rotate(-15.373)" fill="url(#linear-gradient-18)"/>
      </g>
    </g>
    <g id="Grupo_126963" data-name="Grupo 126963" transform="translate(1041.673 1735.03)">
      <g id="Grupo_126962" data-name="Grupo 126962" clip-path="url(#clip-path-27)">
        <rect id="Rectángulo_40588" data-name="Rectángulo 40588" width="3.109" height="3.184" transform="translate(-1.175 0.892) rotate(-37.202)" fill="url(#linear-gradient-19)"/>
      </g>
    </g>
    <g id="Grupo_126965" data-name="Grupo 126965" transform="translate(1034.576 1738.392)">
      <g id="Grupo_126964" data-name="Grupo 126964" clip-path="url(#clip-path-28)">
        <rect id="Rectángulo_40589" data-name="Rectángulo 40589" width="5.565" height="3.306" transform="translate(-0.61 0.14) rotate(-15.373)" fill="url(#linear-gradient-20)"/>
      </g>
    </g>
    <g id="Grupo_126967" data-name="Grupo 126967" transform="translate(1034.151 1736.769)">
      <g id="Grupo_126966" data-name="Grupo 126966" clip-path="url(#clip-path-29)">
        <rect id="Rectángulo_40590" data-name="Rectángulo 40590" width="3.109" height="3.184" transform="matrix(0.797, -0.605, 0.605, 0.797, -1.175, 0.892)" fill="url(#linear-gradient-21)"/>
      </g>
    </g>
    <path id="Trazado_188664" data-name="Trazado 188664" d="M1262.177,2502.786a25.806,25.806,0,0,1,8.324-1.39c4,0,7.212,0,9.43,1.891,5.383,4.588-.642,15.577,2.444,23.716a11.124,11.124,0,0,1,.466,6.765,6.814,6.814,0,0,1-1.038,1.873c-3.26,4.837-12.419,5.234-16.615,1.04-2.217-2.217-4.211-1.811-4.265-4.34-.21-9.984,1.339-19.942,1.252-29.555" transform="translate(-260.033 -813.737)" fill="#fff"/>
    <g id="Grupo_126972" data-name="Grupo 126972" transform="translate(1002.216 1695.744)" opacity="0.3" style="mix-blend-mode: multiply;isolation: isolate">
      <g id="Grupo_126971" data-name="Grupo 126971">
        <g id="Grupo_126970" data-name="Grupo 126970" clip-path="url(#clip-path-30)">
          <g id="Grupo_126969" data-name="Grupo 126969" transform="translate(0 0)">
            <g id="Grupo_126968" data-name="Grupo 126968" clip-path="url(#clip-path-31)">
              <rect id="Rectángulo_40591" data-name="Rectángulo 40591" width="33.445" height="30.897" transform="matrix(0.62, -0.785, 0.785, 0.62, -14.895, 18.843)" fill="url(#linear-gradient-22)"/>
            </g>
          </g>
        </g>
      </g>
    </g>
    <path id="Trazado_188666" data-name="Trazado 188666" d="M1129.833,2520.8c-1.849-1.248-6.3,1.9-8.773,4.67-1.148,1.288-5.143,5.771-4.151,11.794.162.981.907,5.57,4.835,7.818,3.517,2.012,8.266,1.495,12.071-1.356l1.56-1.384,1.535-1.659a12.322,12.322,0,0,0-4.09-2.253c-2.924-.944-4.847.457-5.546-.465-.861-1.135,1.76-3.249,2.448-8.058.185-1.3,2.175-7.713.11-9.107" transform="translate(-125.94 -831.528)" fill="#fff"/>
    <g id="Grupo_126976" data-name="Grupo 126976" transform="translate(1006.598 1709.197)">
      <g id="Grupo_126975" data-name="Grupo 126975" clip-path="url(#clip-path-32)">
        <rect id="Rectángulo_40594" data-name="Rectángulo 40594" width="45.827" height="47.977" transform="matrix(0.62, -0.785, 0.785, 0.62, -13.967, 16.553)" fill="url(#linear-gradient-23)"/>
      </g>
    </g>
    <g id="Grupo_126978" data-name="Grupo 126978" transform="translate(1002.115 1710.931)">
      <g id="Grupo_126977" data-name="Grupo 126977" clip-path="url(#clip-path-33)">
        <rect id="Rectángulo_40595" data-name="Rectángulo 40595" width="43.97" height="44.561" transform="translate(-14.014 15.014) rotate(-47.925)" fill="url(#linear-gradient-24)"/>
      </g>
    </g>
    <g id="Grupo_126980" data-name="Grupo 126980" transform="translate(1006.926 1710.462)">
      <g id="Grupo_126979" data-name="Grupo 126979" clip-path="url(#clip-path-34)">
        <rect id="Rectángulo_40596" data-name="Rectángulo 40596" width="22.013" height="10.129" transform="matrix(0.943, -0.333, 0.333, 0.943, -0.897, 0.317)" fill="url(#linear-gradient-25)"/>
      </g>
    </g>
    <g id="Grupo_126982" data-name="Grupo 126982" transform="translate(1006.139 1710.438)">
      <g id="Grupo_126981" data-name="Grupo 126981" clip-path="url(#clip-path-35)">
        <rect id="Rectángulo_40597" data-name="Rectángulo 40597" width="8.345" height="5.412" transform="translate(-0.615 0.089) rotate(-8.236)" fill="url(#linear-gradient-26)"/>
      </g>
    </g>
    <g id="Grupo_126984" data-name="Grupo 126984" transform="translate(1009.305 1708.699)">
      <g id="Grupo_126983" data-name="Grupo 126983" clip-path="url(#clip-path-36)">
        <rect id="Rectángulo_40598" data-name="Rectángulo 40598" width="5.698" height="3.562" transform="translate(-0.114)" fill="url(#linear-gradient-27)"/>
      </g>
    </g>
    <g id="Grupo_126986" data-name="Grupo 126986" transform="translate(1012.961 1697.869)">
      <g id="Grupo_126985" data-name="Grupo 126985" clip-path="url(#clip-path-37)">
        <rect id="Rectángulo_40599" data-name="Rectángulo 40599" width="32.602" height="29.934" transform="translate(-8.018 5.611) rotate(-35.154)" fill="url(#linear-gradient-28)"/>
      </g>
    </g>
    <g id="Grupo_126988" data-name="Grupo 126988" transform="translate(1013.486 1698.286)">
      <g id="Grupo_126987" data-name="Grupo 126987" clip-path="url(#clip-path-38)">
        <rect id="Rectángulo_40600" data-name="Rectángulo 40600" width="27.029" height="31.964" transform="translate(-6.633 13.373) rotate(-63.789)" fill="url(#linear-gradient-29)"/>
      </g>
    </g>
    <g id="Grupo_126993" data-name="Grupo 126993" transform="translate(1013.485 1698.916)" opacity="0.3" style="mix-blend-mode: multiply;isolation: isolate">
      <g id="Grupo_126992" data-name="Grupo 126992">
        <g id="Grupo_126991" data-name="Grupo 126991" clip-path="url(#clip-path-39)">
          <g id="Grupo_126990" data-name="Grupo 126990" transform="translate(0 0)">
            <g id="Grupo_126989" data-name="Grupo 126989" clip-path="url(#clip-path-40)">
              <rect id="Rectángulo_40601" data-name="Rectángulo 40601" width="25.309" height="15.984" transform="translate(-0.049)" fill="url(#linear-gradient-30)"/>
            </g>
          </g>
        </g>
      </g>
    </g>
    <g id="Grupo_126997" data-name="Grupo 126997" transform="translate(1005.975 1682.194)">
      <g id="Grupo_126996" data-name="Grupo 126996" clip-path="url(#clip-path-41)">
        <rect id="Rectángulo_40604" data-name="Rectángulo 40604" width="12.304" height="12.996" transform="matrix(0.433, -0.901, 0.901, 0.433, -3.533, 7.104)" fill="url(#linear-gradient-31)"/>
      </g>
    </g>
    <g id="Grupo_126999" data-name="Grupo 126999" transform="translate(1010.196 1680.359)">
      <g id="Grupo_126998" data-name="Grupo 126998" clip-path="url(#clip-path-42)">
        <rect id="Rectángulo_40605" data-name="Rectángulo 40605" width="8.387" height="8.373" transform="translate(-3.09 3.96) rotate(-54.121)" fill="url(#linear-gradient-32)"/>
      </g>
    </g>
    <g id="Grupo_127001" data-name="Grupo 127001" transform="translate(1010.183 1682.924)">
      <g id="Grupo_127000" data-name="Grupo 127000" clip-path="url(#clip-path-43)">
        <rect id="Rectángulo_40606" data-name="Rectángulo 40606" width="5.685" height="6.366" transform="translate(-1.086 4.479) rotate(-78.412)" fill="url(#linear-gradient-33)"/>
      </g>
    </g>
    <g id="Grupo_127003" data-name="Grupo 127003" transform="translate(1010.516 1682.794)">
      <g id="Grupo_127002" data-name="Grupo 127002" clip-path="url(#clip-path-44)">
        <rect id="Rectángulo_40607" data-name="Rectángulo 40607" width="6.609" height="6.424" transform="translate(-2.412 3.334) rotate(-54.121)" fill="url(#linear-gradient-34)"/>
      </g>
    </g>
    <g id="Grupo_127005" data-name="Grupo 127005" transform="translate(1013.197 1685.895)">
      <g id="Grupo_127004" data-name="Grupo 127004" clip-path="url(#clip-path-45)">
        <rect id="Rectángulo_40608" data-name="Rectángulo 40608" width="0.744" height="1.165" transform="matrix(0.355, -0.935, 0.935, 0.355, -0.149, 0.33)" fill="url(#linear-gradient-35)"/>
      </g>
    </g>
  </g>
</svg>
