<svg id="Grupo_128093" data-name="Grupo 128093" xmlns="http://www.w3.org/2000/svg" xmlns:xlink="http://www.w3.org/1999/xlink" width="48.629" height="63.169" viewBox="0 0 48.629 63.169">
  <defs>
    <clipPath id="clip-path">
      <rect id="Rectángulo_41104" data-name="Rectángulo 41104" width="48.629" height="63.169" fill="none"/>
    </clipPath>
    <clipPath id="clip-path-3">
      <rect id="Rectángulo_41077" data-name="Rectángulo 41077" width="48.629" height="22.261" fill="none"/>
    </clipPath>
    <clipPath id="clip-path-4">
      <path id="Trazado_190575" data-name="Trazado 190575" d="M50.772,304.112c9.464-3.66,24.859-.145,34.386,3.515a47.858,47.858,0,0,0-14.98-2.706c-6.947-.246-14.106-2.859-19.406-.809" transform="translate(-50.772 -302.565)" fill="none"/>
    </clipPath>
    <clipPath id="clip-path-5">
      <rect id="Rectángulo_41078" data-name="Rectángulo 41078" width="9.085" height="15.609" fill="none"/>
    </clipPath>
    <clipPath id="clip-path-6">
      <rect id="Rectángulo_41079" data-name="Rectángulo 41079" width="10.521" height="6.788" fill="none"/>
    </clipPath>
    <clipPath id="clip-path-7">
      <rect id="Rectángulo_41080" data-name="Rectángulo 41080" width="10.341" height="10.475" fill="none"/>
    </clipPath>
    <clipPath id="clip-path-8">
      <rect id="Rectángulo_41081" data-name="Rectángulo 41081" width="2.729" height="17.687" fill="none"/>
    </clipPath>
    <clipPath id="clip-path-12">
      <rect id="Rectángulo_41085" data-name="Rectángulo 41085" width="2.729" height="17.686" fill="none"/>
    </clipPath>
    <clipPath id="clip-path-13">
      <rect id="Rectángulo_41086" data-name="Rectángulo 41086" width="11.662" height="1.801" fill="none"/>
    </clipPath>
    <clipPath id="clip-path-14">
      <rect id="Rectángulo_41087" data-name="Rectángulo 41087" width="40.46" height="6.541" fill="none"/>
    </clipPath>
    <clipPath id="clip-path-15">
      <rect id="Rectángulo_41088" data-name="Rectángulo 41088" width="9.085" height="15.608" fill="none"/>
    </clipPath>
    <clipPath id="clip-path-19">
      <rect id="Rectángulo_41092" data-name="Rectángulo 41092" width="11.664" height="1.801" fill="none"/>
    </clipPath>
    <clipPath id="clip-path-21">
      <rect id="Rectángulo_41094" data-name="Rectángulo 41094" width="1.938" height="1.938" fill="none"/>
    </clipPath>
    <clipPath id="clip-path-22">
      <rect id="Rectángulo_41095" data-name="Rectángulo 41095" width="1.938" height="1.939" fill="none"/>
    </clipPath>
    <clipPath id="clip-path-23">
      <rect id="Rectángulo_41096" data-name="Rectángulo 41096" width="1.939" height="1.938" fill="none"/>
    </clipPath>
    <clipPath id="clip-path-26">
      <rect id="Rectángulo_41099" data-name="Rectángulo 41099" width="1.939" height="1.939" fill="none"/>
    </clipPath>
  </defs>
  <g id="Grupo_128076" data-name="Grupo 128076" clip-path="url(#clip-path)">
    <g id="Grupo_128075" data-name="Grupo 128075">
      <g id="Grupo_128074" data-name="Grupo 128074" clip-path="url(#clip-path)">
        <g id="Grupo_127998" data-name="Grupo 127998" transform="translate(0 40.908)" style="mix-blend-mode: multiply;isolation: isolate">
          <g id="Grupo_127997" data-name="Grupo 127997">
            <g id="Grupo_127996" data-name="Grupo 127996" clip-path="url(#clip-path-3)">
              <g id="Grupo_127995" data-name="Grupo 127995" transform="translate(7.066 1.199)">
                <g id="Grupo_127994" data-name="Grupo 127994" clip-path="url(#clip-path-4)">
                  <path id="Trazado_190572" data-name="Trazado 190572" d="M50.772,296.715a49.063,49.063,0,0,1,16.6-2.743,49.063,49.063,0,0,0-16.6,2.743" transform="translate(-50.772 -295.168)" fill="#a3a3a3"/>
                  <path id="Trazado_190573" data-name="Trazado 190573" d="M170.043,293.955q.383,0,.767,0-.384,0-.767,0" transform="translate(-153.445 -295.151)" fill="#dadada"/>
                  <path id="Trazado_190574" data-name="Trazado 190574" d="M175.555,293.954a49.82,49.82,0,0,1,17.02,2.745,49.82,49.82,0,0,0-17.02-2.745" transform="translate(-158.19 -295.152)" fill="#a3a3a3"/>
                </g>
              </g>
              <path id="Trazado_190576" data-name="Trazado 190576" d="M41.452,321.958c9.527,3.66,9.577,9.595.113,13.255s-24.86,3.661-34.386,0-9.577-9.595-.112-13.255,24.859-3.66,34.386,0" transform="translate(0 -315.697)" fill="#d9d9d9"/>
            </g>
          </g>
        </g>
        <path id="Trazado_190577" data-name="Trazado 190577" d="M15.355,260.74a2.854,2.854,0,0,1,.069-.433,3.265,3.265,0,0,1,.149-.5,3.747,3.747,0,0,1,.479-.9c.118-.167.222-.288.3-.392.052-.062.116-.131.181-.2l.025-.026,0-.005.01-.011c.035-.037.071-.074.109-.111h0l.5-.493-.03.031,0,0,.03-.03.012-.012.008-.008.01-.009c.168-.162.336-.308.508-.444.087-.07.176-.137.273-.206.21-.151.431-.3.674-.446l.195-.112.008,0c3.977-2.236,10.291-3.228,16.445-3.418,7.528-.261,15.379.692,19.926,2.826l.073.034.055.026q.193.092.377.188l.035.018.023.012a11,11,0,0,1,1.08.643,4.211,4.211,0,0,1,1.869,2.174c.007.024.013.048.018.071,0,0,0,0,0,.007a1.861,1.861,0,0,1-.009.905,2.329,2.329,0,0,0-.851-2.329l.5.492,0,0,.065.065,0,0,.018.019-.006-.006h0l.007.007h0l.008.008,0,0a5.392,5.392,0,0,1,.4.457,3.851,3.851,0,0,1,.462.719,3.462,3.462,0,0,1,.4,1.381q0,.063,0,.126c0,.047,0,.094.007.143,0,1.205-1.078,2.316-2.931,3.269a30.665,30.665,0,0,1-9.093,2.586,70.35,70.35,0,0,1-19.99.1q-.922-.132-1.783-.286c-6.772-1.205-10.658-3.357-10.662-5.6a2.638,2.638,0,0,1,.018-.351" transform="translate(-13.202 -217.767)" fill="#bdbdbd"/>
        <path id="Trazado_190578" data-name="Trazado 190578" d="M27.9,392.208c-7.695-1.1-12.236-3.35-12.437-5.72a3.5,3.5,0,0,0,.394,1.477,4.387,4.387,0,0,0,1.053,1.374l.42.41h0c.038.037.077.074.118.111a7.43,7.43,0,0,0,1.166.862q-.256-.161-.49-.328a9.721,9.721,0,0,0,.967.583,5.344,5.344,0,0,1-.477-.255c7.059,4.441,25.738,4.744,35.1,1.389l.005,0a13.825,13.825,0,0,0,1.555-.632,13.045,13.045,0,0,0,1.3-.687c.153-.093.29-.181.413-.264-.273.18-.569.354-.887.521.368-.207.682-.405.935-.576a7.31,7.31,0,0,0,.693-.509l.051-.042a7.546,7.546,0,0,1-.792.607,6.848,6.848,0,0,0,1.026-.818l-.016.014.063-.06.5-.493h0A4.069,4.069,0,0,0,59.9,386.5c-.567,4.646-17.313,7.813-32,5.71" transform="translate(-13.313 -332.702)" fill="#6e6e6e"/>
        <path id="Trazado_190579" data-name="Trazado 190579" d="M95.946,338.5a.292.292,0,0,0,.287-.291l0-.091a.312.312,0,0,0-.078-.218.275.275,0,0,0-.2-.093A60.83,60.83,0,0,1,85,336.709a.359.359,0,0,0-.4.21h0a.354.354,0,0,0,0,.3.32.32,0,0,0,.224.181,62.6,62.6,0,0,0,11.115,1.1" transform="translate(-72.804 -289.845)" fill="#e8e8e8"/>
        <path id="Trazado_190580" data-name="Trazado 190580" d="M59.811,321.048l-.009-10.3c.008,4.786-17.07,8.1-32.015,5.96-7.869-1.127-12.441-3.453-12.445-5.881l.009,10.3c0,2.429,4.576,4.755,12.445,5.882,14.9,2.133,32.023-1.162,32.015-5.959" transform="translate(-13.206 -267.502)" fill="#a1a1a1"/>
        <g id="Grupo_128001" data-name="Grupo 128001" transform="translate(37.52 43.245)" style="mix-blend-mode: multiply;isolation: isolate">
          <g id="Grupo_128000" data-name="Grupo 128000">
            <g id="Grupo_127999" data-name="Grupo 127999" clip-path="url(#clip-path-5)">
              <path id="Trazado_190581" data-name="Trazado 190581" d="M269.607,316.054v10.3c5.419-1.188,9.089-3.087,9.085-5.307l-.009-10.3c0,2.217-3.658,4.118-9.075,5.307" transform="translate(-269.607 -310.747)" fill="#c9c9c9"/>
            </g>
          </g>
        </g>
        <g id="Grupo_128004" data-name="Grupo 128004" transform="translate(36.068 53.796)" style="mix-blend-mode: multiply;isolation: isolate">
          <g id="Grupo_128003" data-name="Grupo 128003">
            <g id="Grupo_128002" data-name="Grupo 128002" clip-path="url(#clip-path-6)">
              <path id="Trazado_190582" data-name="Trazado 190582" d="M266.783,390.59c-.273.18-.569.354-.887.521.368-.207.682-.405.935-.576a7.357,7.357,0,0,0,.693-.509l.05-.042a7.566,7.566,0,0,1-.792.607,6.847,6.847,0,0,0,1.026-.818l-.016.014.063-.06.5-.493h0a4.071,4.071,0,0,0,1.337-2.672c-.257,2.109-3.85,3.914-9.07,5.059l-1.451,1.729a31.634,31.634,0,0,0,4.335-1.175l.005,0a13.821,13.821,0,0,0,1.555-.633,13.021,13.021,0,0,0,1.3-.687c.153-.093.29-.181.413-.264" transform="translate(-259.174 -386.561)" fill="#c9c9c9"/>
            </g>
          </g>
        </g>
        <g id="Grupo_128007" data-name="Grupo 128007" transform="translate(36.254 38.081)" style="mix-blend-mode: multiply;isolation: isolate">
          <g id="Grupo_128006" data-name="Grupo 128006">
            <g id="Grupo_128005" data-name="Grupo 128005" clip-path="url(#clip-path-7)">
              <path id="Trazado_190583" data-name="Trazado 190583" d="M270.848,278.663q0-.063,0-.126a3.462,3.462,0,0,0-.4-1.381,3.846,3.846,0,0,0-.462-.719,5.417,5.417,0,0,0-.4-.456l0,0-.008-.008h0l-.007-.007h0l.006.006-.018-.019,0,0-.065-.065,0,0-.5-.492a2.329,2.329,0,0,1,.851,2.329,1.86,1.86,0,0,0,.009-.905s0,0,0-.007c-.006-.024-.012-.047-.018-.072a4.212,4.212,0,0,0-1.869-2.174,10.815,10.815,0,0,0-1.025-.614l-1.058-.3-2.5,3.422-2.851,4.554,1.265,2.495.005,0a25.146,25.146,0,0,0,6.139-2.043c1.854-.954,2.933-2.064,2.931-3.269,0-.049,0-.1-.007-.143" transform="translate(-260.514 -273.643)" fill="#d4d4d4"/>
            </g>
          </g>
        </g>
        <g id="Grupo_128010" data-name="Grupo 128010" transform="translate(2.134 39.68)" style="mix-blend-mode: multiply;isolation: isolate">
          <g id="Grupo_128009" data-name="Grupo 128009">
            <g id="Grupo_128008" data-name="Grupo 128008" clip-path="url(#clip-path-8)">
              <path id="Trazado_190584" data-name="Trazado 190584" d="M16.278,300.952v-10.26l1.513-2.708.274-2.856-.855.21,0,0-.012.012-.03.03,0,0,.03-.03-.5.492h0q-.056.055-.109.111l-.01.011,0,.006-.025.026c-.065.068-.129.138-.181.2-.082.1-.187.225-.3.392a3.746,3.746,0,0,0-.479.9,3.248,3.248,0,0,0-.149.5,2.857,2.857,0,0,0-.069.433,2.638,2.638,0,0,0-.018.351l.009,10.3c0,.054,0,.108.008.161a3.5,3.5,0,0,0,.394,1.477,4.385,4.385,0,0,0,1.053,1.374l.42.41h0c.038.037.077.074.118.111q.115.106.24.209Z" transform="translate(-15.336 -285.128)" fill="#e3e3e3"/>
            </g>
          </g>
        </g>
        <path id="Trazado_190585" data-name="Trazado 190585" d="M31.757,256.713c-4.918,2.975-.774,6.552,9.255,7.988s22.146.189,27.064-2.787.774-6.552-9.255-7.988-22.147-.189-27.064,2.787" transform="translate(-25.556 -218.075)" fill="#cecece"/>
        <path id="Trazado_190586" data-name="Trazado 190586" d="M15.355,134.254a2.854,2.854,0,0,1,.069-.433,3.276,3.276,0,0,1,.149-.5,3.75,3.75,0,0,1,.479-.895c.118-.167.222-.288.3-.392.052-.062.116-.132.181-.2l.025-.026,0-.005.01-.011c.035-.037.071-.074.109-.111h0l.5-.493-.03.03,0,0,.03-.03.012-.011.008-.008.01-.009c.168-.162.336-.308.508-.444.087-.07.176-.137.273-.206.21-.151.431-.3.674-.446l.195-.111.008,0c3.977-2.236,10.291-3.228,16.445-3.418,7.528-.261,15.379.692,19.926,2.826l.073.035.055.026q.193.093.377.188l.035.018.023.012a10.973,10.973,0,0,1,1.08.644,4.209,4.209,0,0,1,1.869,2.174c.007.024.013.047.018.071,0,0,0,.005,0,.008a1.86,1.86,0,0,1-.009.9,2.329,2.329,0,0,0-.851-2.329l.5.492,0,0,.065.065,0,0,.018.019-.006-.006h0l.007.006h0l.008.008,0,0a5.391,5.391,0,0,1,.4.457,3.851,3.851,0,0,1,.462.719,3.464,3.464,0,0,1,.4,1.381c0,.042,0,.084,0,.126s0,.094.007.144c0,1.205-1.078,2.316-2.931,3.269a30.662,30.662,0,0,1-9.093,2.586,70.335,70.335,0,0,1-19.99.105q-.922-.132-1.783-.286c-6.772-1.205-10.658-3.357-10.662-5.6a2.64,2.64,0,0,1,.018-.351" transform="translate(-13.202 -108.883)" fill="#bdbdbd"/>
        <path id="Trazado_190587" data-name="Trazado 190587" d="M27.9,265.724c-7.695-1.1-12.236-3.35-12.437-5.72a3.5,3.5,0,0,0,.394,1.477,4.386,4.386,0,0,0,1.053,1.374l.42.41h0c.038.037.077.074.118.111a7.435,7.435,0,0,0,1.166.862q-.256-.161-.49-.328a9.75,9.75,0,0,0,.967.584c-.178-.086-.338-.171-.477-.256,7.059,4.441,25.738,4.744,35.1,1.389l.005,0a13.824,13.824,0,0,0,1.555-.633,13.09,13.09,0,0,0,1.3-.687c.153-.093.29-.181.413-.264-.273.18-.569.354-.887.521.368-.207.682-.405.935-.576a7.3,7.3,0,0,0,.693-.51l.051-.042a7.492,7.492,0,0,1-.792.607,6.85,6.85,0,0,0,1.026-.818L58,263.24l.063-.061.5-.493h0a4.07,4.07,0,0,0,1.337-2.672c-.567,4.646-17.313,7.813-32,5.71" transform="translate(-13.313 -223.821)" fill="#6e6e6e"/>
        <path id="Trazado_190588" data-name="Trazado 190588" d="M95.939,212.015a.291.291,0,0,0,.286-.291l0-.091a.311.311,0,0,0-.078-.218.273.273,0,0,0-.2-.093,60.841,60.841,0,0,1-10.955-1.1.36.36,0,0,0-.4.211v0a.355.355,0,0,0,0,.3.319.319,0,0,0,.224.18,62.59,62.59,0,0,0,11.116,1.1" transform="translate(-72.797 -180.96)" fill="#e8e8e8"/>
        <path id="Trazado_190589" data-name="Trazado 190589" d="M59.811,194.563l-.009-10.3c.008,4.786-17.07,8.1-32.015,5.96-7.869-1.127-12.441-3.453-12.445-5.881l.009,10.3c0,2.429,4.576,4.754,12.445,5.881,14.9,2.133,32.023-1.162,32.015-5.959" transform="translate(-13.206 -158.619)" fill="#a1a1a1"/>
        <g id="Grupo_128013" data-name="Grupo 128013" transform="translate(37.52 25.643)" style="mix-blend-mode: multiply;isolation: isolate">
          <g id="Grupo_128012" data-name="Grupo 128012">
            <g id="Grupo_128011" data-name="Grupo 128011" clip-path="url(#clip-path-5)">
              <path id="Trazado_190590" data-name="Trazado 190590" d="M269.607,189.569v10.3c5.419-1.187,9.089-3.086,9.085-5.307l-.009-10.3c0,2.217-3.658,4.118-9.075,5.307" transform="translate(-269.607 -184.262)" fill="#c9c9c9"/>
            </g>
          </g>
        </g>
        <g id="Grupo_128016" data-name="Grupo 128016" transform="translate(36.068 36.193)" style="mix-blend-mode: multiply;isolation: isolate">
          <g id="Grupo_128015" data-name="Grupo 128015">
            <g id="Grupo_128014" data-name="Grupo 128014" clip-path="url(#clip-path-6)">
              <path id="Trazado_190591" data-name="Trazado 190591" d="M266.783,264.1c-.273.18-.569.354-.887.521.368-.207.682-.405.935-.576a7.308,7.308,0,0,0,.693-.509l.05-.042a7.512,7.512,0,0,1-.792.607,6.855,6.855,0,0,0,1.026-.818l-.016.014.063-.06.5-.493h0a4.07,4.07,0,0,0,1.337-2.672c-.257,2.11-3.85,3.914-9.07,5.059l-1.451,1.729a31.647,31.647,0,0,0,4.335-1.175l.005,0a13.874,13.874,0,0,0,1.555-.633,13.053,13.053,0,0,0,1.3-.687c.153-.093.29-.18.413-.264" transform="translate(-259.174 -260.076)" fill="#c9c9c9"/>
            </g>
          </g>
        </g>
        <g id="Grupo_128019" data-name="Grupo 128019" transform="translate(36.254 20.479)" style="mix-blend-mode: multiply;isolation: isolate">
          <g id="Grupo_128018" data-name="Grupo 128018">
            <g id="Grupo_128017" data-name="Grupo 128017" clip-path="url(#clip-path-7)">
              <path id="Trazado_190592" data-name="Trazado 190592" d="M270.848,152.178c0-.042,0-.084,0-.126a3.463,3.463,0,0,0-.4-1.381,3.851,3.851,0,0,0-.462-.719,5.414,5.414,0,0,0-.4-.456l0,0-.008-.008h0l-.007-.007h0l.006.006-.018-.019,0,0-.065-.065,0,0-.5-.492a2.329,2.329,0,0,1,.851,2.329,1.859,1.859,0,0,0,.009-.9s0,0,0-.008c-.006-.024-.012-.047-.018-.071a4.21,4.21,0,0,0-1.869-2.174,10.834,10.834,0,0,0-1.025-.614l-1.058-.3-2.5,3.422-2.851,4.553,1.265,2.5.005,0a25.139,25.139,0,0,0,6.139-2.042c1.854-.953,2.933-2.064,2.931-3.269,0-.05,0-.1-.007-.143" transform="translate(-260.514 -147.158)" fill="#d4d4d4"/>
            </g>
          </g>
        </g>
        <g id="Grupo_128022" data-name="Grupo 128022" transform="translate(2.134 22.078)" style="mix-blend-mode: multiply;isolation: isolate">
          <g id="Grupo_128021" data-name="Grupo 128021">
            <g id="Grupo_128020" data-name="Grupo 128020" clip-path="url(#clip-path-12)">
              <path id="Trazado_190593" data-name="Trazado 190593" d="M16.278,174.467v-10.26l1.513-2.708.274-2.856-.855.21,0,0-.012.012-.03.03,0,0,.03-.03-.5.493h0c-.038.037-.074.074-.109.111l-.01.011,0,.005-.025.026c-.065.068-.129.138-.181.2-.082.1-.187.225-.3.392a3.745,3.745,0,0,0-.479.895,3.257,3.257,0,0,0-.149.5,2.85,2.85,0,0,0-.069.432,2.639,2.639,0,0,0-.018.351l.009,10.3c0,.054,0,.108.008.162h0a3.5,3.5,0,0,0,.394,1.477A4.383,4.383,0,0,0,16.8,175.6l.42.41h0q.057.056.118.111.115.106.24.208Z" transform="translate(-15.336 -158.643)" fill="#e3e3e3"/>
            </g>
          </g>
        </g>
        <path id="Trazado_190594" data-name="Trazado 190594" d="M31.757,130.227c-4.918,2.975-.774,6.552,9.255,7.988s22.146.189,27.064-2.787.774-6.552-9.255-7.988-22.147-.189-27.064,2.787" transform="translate(-25.556 -109.192)" fill="#cecece"/>
        <path id="Trazado_190595" data-name="Trazado 190595" d="M34.79,288.211h0q-.106-.069-.206-.138.1.072.206.142a5.143,5.143,0,0,0,.761.441c-.451-.24-.72-.42-.761-.446" transform="translate(-29.771 -247.983)" fill="#4271e5"/>
        <path id="Trazado_190596" data-name="Trazado 190596" d="M70.146,283.917c-1.984,1.846-5.932,2.969-8.523,3.47C51,289.543,35.176,288.508,29.932,284.17c-.042-.035-.094-.076-.246-.214v1.653h0c-.041,2.223,4.125,4.357,11.325,5.388,13.738,1.967,29.473-1.138,29.129-5.558h.006Z" transform="translate(-25.555 -244.406)" fill="#4271e5"/>
        <path id="Trazado_190597" data-name="Trazado 190597" d="M307.477,285.794a8.362,8.362,0,0,0,1.679-1.128,11.65,11.65,0,0,1-1.679,1.128" transform="translate(-264.687 -245.051)" fill="#4271e5"/>
        <g id="Grupo_128025" data-name="Grupo 128025" transform="translate(11.77 44.251)" style="mix-blend-mode: screen;isolation: isolate">
          <g id="Grupo_128024" data-name="Grupo 128024">
            <g id="Grupo_128023" data-name="Grupo 128023" clip-path="url(#clip-path-13)">
              <path id="Trazado_190598" data-name="Trazado 190598" d="M95.946,319.779a.292.292,0,0,0,.287-.291l0-.091a.312.312,0,0,0-.078-.218.274.274,0,0,0-.2-.093A60.841,60.841,0,0,1,85,317.985a.36.36,0,0,0-.4.211h0a.354.354,0,0,0,0,.3.319.319,0,0,0,.224.18,62.6,62.6,0,0,0,11.115,1.1" transform="translate(-84.573 -317.978)" fill="#497eff"/>
            </g>
          </g>
        </g>
        <g id="Grupo_128028" data-name="Grupo 128028" transform="translate(4.131 39.511)" style="mix-blend-mode: multiply;isolation: isolate">
          <g id="Grupo_128027" data-name="Grupo 128027">
            <g id="Grupo_128026" data-name="Grupo 128026" clip-path="url(#clip-path-14)">
              <path id="Trazado_190599" data-name="Trazado 190599" d="M61.623,287.387h0c-10.482,2.128-26.03,1.147-31.478-3.048l-.106-.083-.107-.087c-.042-.035-.094-.076-.246-.214v1.653h0a2.118,2.118,0,0,0,.458,1.3v-1.81a8.314,8.314,0,0,0,.713.485q-.256-.161-.49-.328a9.755,9.755,0,0,0,.967.584c-.178-.086-.338-.171-.477-.256,6.089,3.831,20.822,4.582,30.765,2.564v2.315c5.189-1.1,8.682-2.911,8.518-5.019h.006v-1.522c-1.984,1.846-5.932,2.969-8.523,3.47" transform="translate(-29.686 -283.917)" fill="#bdbdbd"/>
            </g>
          </g>
        </g>
        <path id="Trazado_190600" data-name="Trazado 190600" d="M15.355,7.769a2.854,2.854,0,0,1,.069-.433,3.267,3.267,0,0,1,.149-.5,3.748,3.748,0,0,1,.479-.895c.118-.168.222-.288.3-.392.052-.062.116-.132.181-.2l.025-.026,0-.005.01-.011q.053-.055.109-.111h0l.5-.493-.03.03,0,0,.03-.03.012-.011.008-.008.01-.009c.168-.162.336-.308.508-.444.087-.07.176-.137.273-.206.21-.151.431-.3.674-.446l.195-.112.008,0C22.858,1.225,29.172.233,35.325.043,42.853-.219,50.7.734,55.251,2.869l.073.034.055.026q.193.093.377.188l.035.018.023.012a11,11,0,0,1,1.08.643,4.211,4.211,0,0,1,1.869,2.174c.007.024.013.047.018.071,0,0,0,.005,0,.007a1.861,1.861,0,0,1-.009.905,2.329,2.329,0,0,0-.851-2.329l.5.492,0,0,.065.065,0,0,.018.019L58.511,5.2h0l.007.007h0l.008.008,0,0a5.4,5.4,0,0,1,.4.457,3.827,3.827,0,0,1,.462.719,3.462,3.462,0,0,1,.4,1.381q0,.063,0,.127c0,.046,0,.094.007.144,0,1.205-1.078,2.315-2.931,3.269A30.67,30.67,0,0,1,47.772,13.9,70.335,70.335,0,0,1,27.782,14q-.922-.132-1.783-.286c-6.772-1.206-10.658-3.357-10.662-5.6a2.638,2.638,0,0,1,.018-.35" transform="translate(-13.202 0)" fill="#bdbdbd"/>
        <path id="Trazado_190601" data-name="Trazado 190601" d="M27.9,139.238c-7.695-1.1-12.236-3.35-12.437-5.72A3.5,3.5,0,0,0,15.859,135a4.393,4.393,0,0,0,1.053,1.374l.42.41h0c.038.037.077.074.118.111a7.43,7.43,0,0,0,1.166.862q-.256-.16-.49-.328a9.692,9.692,0,0,0,.967.584,5.341,5.341,0,0,1-.477-.256c7.059,4.442,25.738,4.744,35.1,1.39l.005,0a13.853,13.853,0,0,0,1.555-.633,13.1,13.1,0,0,0,1.3-.687c.153-.093.29-.181.413-.264-.273.181-.569.354-.887.521.368-.207.682-.405.935-.576a7.379,7.379,0,0,0,.693-.509l.051-.042a7.514,7.514,0,0,1-.792.607,6.838,6.838,0,0,0,1.026-.817l-.016.014.063-.06.5-.493h0a4.07,4.07,0,0,0,1.337-2.672c-.567,4.646-17.313,7.813-32,5.71" transform="translate(-13.313 -114.937)" fill="#6e6e6e"/>
        <path id="Trazado_190602" data-name="Trazado 190602" d="M95.938,85.53a.292.292,0,0,0,.287-.291l0-.091a.312.312,0,0,0-.078-.218.275.275,0,0,0-.2-.093,60.859,60.859,0,0,1-10.955-1.1.361.361,0,0,0-.4.211h0a.357.357,0,0,0,0,.3.32.32,0,0,0,.224.18,62.629,62.629,0,0,0,11.116,1.1" transform="translate(-72.796 -72.077)" fill="#e8e8e8"/>
        <path id="Trazado_190603" data-name="Trazado 190603" d="M59.811,68.079l-.009-10.3c.008,4.786-17.07,8.1-32.015,5.959-7.869-1.127-12.441-3.453-12.445-5.882l.009,10.3c0,2.428,4.576,4.755,12.445,5.881,14.9,2.133,32.023-1.162,32.015-5.959" transform="translate(-13.206 -49.737)" fill="#a1a1a1"/>
        <g id="Grupo_128031" data-name="Grupo 128031" transform="translate(37.52 8.041)" style="mix-blend-mode: multiply;isolation: isolate">
          <g id="Grupo_128030" data-name="Grupo 128030">
            <g id="Grupo_128029" data-name="Grupo 128029" clip-path="url(#clip-path-15)">
              <path id="Trazado_190604" data-name="Trazado 190604" d="M269.607,63.085v10.3c5.419-1.188,9.089-3.086,9.085-5.307l-.009-10.3c0,2.216-3.658,4.117-9.075,5.307" transform="translate(-269.607 -57.778)" fill="#c9c9c9"/>
            </g>
          </g>
        </g>
        <g id="Grupo_128034" data-name="Grupo 128034" transform="translate(36.068 18.591)" style="mix-blend-mode: multiply;isolation: isolate">
          <g id="Grupo_128033" data-name="Grupo 128033">
            <g id="Grupo_128032" data-name="Grupo 128032" clip-path="url(#clip-path-6)">
              <path id="Trazado_190605" data-name="Trazado 190605" d="M266.783,137.62c-.273.181-.569.354-.887.521.368-.207.682-.405.935-.576a7.391,7.391,0,0,0,.693-.509l.05-.042a7.515,7.515,0,0,1-.792.607,6.835,6.835,0,0,0,1.026-.817l-.016.014.063-.06.5-.493h0a4.071,4.071,0,0,0,1.337-2.672c-.257,2.109-3.85,3.914-9.07,5.059l-1.451,1.729a31.69,31.69,0,0,0,4.335-1.174l.005,0a13.844,13.844,0,0,0,1.555-.633,13.059,13.059,0,0,0,1.3-.686c.153-.093.29-.181.413-.264" transform="translate(-259.174 -133.591)" fill="#c9c9c9"/>
            </g>
          </g>
        </g>
        <g id="Grupo_128037" data-name="Grupo 128037" transform="translate(36.254 2.877)" style="mix-blend-mode: multiply;isolation: isolate">
          <g id="Grupo_128036" data-name="Grupo 128036">
            <g id="Grupo_128035" data-name="Grupo 128035" clip-path="url(#clip-path-7)">
              <path id="Trazado_190606" data-name="Trazado 190606" d="M270.848,25.693q0-.063,0-.127a3.462,3.462,0,0,0-.4-1.381,3.832,3.832,0,0,0-.462-.719,5.4,5.4,0,0,0-.4-.457l0-.005L269.575,23h0l-.007-.007h0l.006.006-.018-.019,0,0-.065-.065,0,0-.5-.492a2.329,2.329,0,0,1,.851,2.329,1.86,1.86,0,0,0,.009-.905s0,0,0-.007c-.006-.024-.012-.047-.018-.071a4.21,4.21,0,0,0-1.869-2.174,10.862,10.862,0,0,0-1.025-.614l-1.058-.3-2.5,3.422-2.851,4.553,1.265,2.495.005,0a25.14,25.14,0,0,0,6.139-2.042c1.854-.953,2.933-2.064,2.931-3.269,0-.05,0-.1-.007-.144" transform="translate(-260.514 -20.673)" fill="#d4d4d4"/>
            </g>
          </g>
        </g>
        <g id="Grupo_128040" data-name="Grupo 128040" transform="translate(2.134 4.475)" style="mix-blend-mode: multiply;isolation: isolate">
          <g id="Grupo_128039" data-name="Grupo 128039">
            <g id="Grupo_128038" data-name="Grupo 128038" clip-path="url(#clip-path-12)">
              <path id="Trazado_190607" data-name="Trazado 190607" d="M16.278,47.981V37.722l1.513-2.708.274-2.856-.855.21,0,.005-.012.011-.03.03,0,0,.03-.03-.5.493h0q-.056.056-.109.111l-.01.011,0,.005-.025.026c-.065.068-.129.138-.181.2-.082.1-.187.225-.3.392a3.743,3.743,0,0,0-.479.895,3.258,3.258,0,0,0-.149.5,2.853,2.853,0,0,0-.069.433,2.641,2.641,0,0,0-.018.351l.009,10.3c0,.054,0,.108.008.161a3.5,3.5,0,0,0,.394,1.477A4.393,4.393,0,0,0,16.8,49.115l.42.41h0c.038.037.077.074.118.11q.115.106.24.209Z" transform="translate(-15.336 -32.158)" fill="#e3e3e3"/>
            </g>
          </g>
        </g>
        <path id="Trazado_190608" data-name="Trazado 190608" d="M31.757,3.742c-4.918,2.975-.774,6.552,9.255,7.988s22.146.188,27.064-2.787.774-6.552-9.255-7.989S36.675.766,31.757,3.742" transform="translate(-25.556 -0.308)" fill="#cecece"/>
        <path id="Trazado_190609" data-name="Trazado 190609" d="M34.79,161.724h0q-.106-.068-.206-.138.1.072.206.143a5.134,5.134,0,0,0,.761.441c-.451-.24-.72-.42-.761-.446" transform="translate(-29.771 -139.099)" fill="#4271e5"/>
        <path id="Trazado_190610" data-name="Trazado 190610" d="M70.146,157.431c-1.984,1.846-5.932,2.968-8.523,3.47-10.622,2.156-26.446,1.121-31.691-3.218-.042-.035-.094-.076-.246-.214v1.653h0c-.041,2.223,4.125,4.357,11.325,5.388,13.738,1.967,29.473-1.137,29.129-5.557h.006Z" transform="translate(-25.555 -135.522)" fill="#4271e5"/>
        <path id="Trazado_190611" data-name="Trazado 190611" d="M307.477,159.309a8.372,8.372,0,0,0,1.679-1.128,11.672,11.672,0,0,1-1.679,1.128" transform="translate(-264.687 -136.168)" fill="#4271e5"/>
        <g id="Grupo_128043" data-name="Grupo 128043" transform="translate(11.768 26.649)" style="mix-blend-mode: screen;isolation: isolate">
          <g id="Grupo_128042" data-name="Grupo 128042">
            <g id="Grupo_128041" data-name="Grupo 128041" clip-path="url(#clip-path-19)">
              <path id="Trazado_190612" data-name="Trazado 190612" d="M95.938,193.293a.291.291,0,0,0,.287-.291l0-.091a.313.313,0,0,0-.078-.218.275.275,0,0,0-.2-.093,60.861,60.861,0,0,1-10.955-1.1.36.36,0,0,0-.4.211h0a.356.356,0,0,0,0,.3.319.319,0,0,0,.224.18,62.619,62.619,0,0,0,11.116,1.1" transform="translate(-84.564 -191.492)" fill="#497eff"/>
            </g>
          </g>
        </g>
        <g id="Grupo_128046" data-name="Grupo 128046" transform="translate(4.131 21.909)" style="mix-blend-mode: multiply;isolation: isolate">
          <g id="Grupo_128045" data-name="Grupo 128045">
            <g id="Grupo_128044" data-name="Grupo 128044" clip-path="url(#clip-path-14)">
              <path id="Trazado_190613" data-name="Trazado 190613" d="M61.623,160.9h0c-10.482,2.128-26.03,1.147-31.478-3.048l-.106-.083-.107-.087c-.042-.035-.094-.076-.246-.214v1.653h0a2.118,2.118,0,0,0,.458,1.3v-1.81a8.394,8.394,0,0,0,.713.485q-.256-.16-.49-.328a9.729,9.729,0,0,0,.967.584,5.271,5.271,0,0,1-.477-.256c6.089,3.831,20.822,4.582,30.765,2.564v2.315c5.189-1.1,8.682-2.911,8.518-5.019h.006v-1.522c-1.984,1.846-5.932,2.968-8.523,3.47" transform="translate(-29.686 -157.431)" fill="#bdbdbd"/>
            </g>
          </g>
        </g>
        <path id="Trazado_190614" data-name="Trazado 190614" d="M80.617,130.124a2.008,2.008,0,1,1-2.008-2.008,2.008,2.008,0,0,1,2.008,2.008" transform="translate(-65.941 -110.287)" fill="#0df904"/>
        <path id="Trazado_190615" data-name="Trazado 190615" d="M78.577,128.119a2.317,2.317,0,0,1-.37,1.316,2.375,2.375,0,1,1-3.286-3.286,2.32,2.32,0,0,1,1.316-.37,2.351,2.351,0,0,0-1.284.418,2.318,2.318,0,0,0-.959,2.368,2.316,2.316,0,0,0,1.8,1.8,2.337,2.337,0,0,0,2.786-2.243" transform="translate(-63.569 -108.275)" fill="#e8e8e8"/>
        <g id="Grupo_128049" data-name="Grupo 128049" transform="translate(11.699 18.868)" opacity="0.4" style="mix-blend-mode: multiply;isolation: isolate">
          <g id="Grupo_128048" data-name="Grupo 128048">
            <g id="Grupo_128047" data-name="Grupo 128047" clip-path="url(#clip-path-21)">
              <path id="Trazado_190616" data-name="Trazado 190616" d="M86,136.551a.969.969,0,1,1-.969-.969.969.969,0,0,1,.969.969" transform="translate(-84.066 -135.582)" fill="#4271e5"/>
            </g>
          </g>
        </g>
        <path id="Trazado_190617" data-name="Trazado 190617" d="M127.329,136.064a2.008,2.008,0,1,1-2.008-2.008,2.008,2.008,0,0,1,2.008,2.008" transform="translate(-106.152 -115.4)" fill="#0df904"/>
        <path id="Trazado_190618" data-name="Trazado 190618" d="M125.289,134.06a2.321,2.321,0,0,1-.371,1.316,2.375,2.375,0,1,1-3.286-3.286,2.32,2.32,0,0,1,1.316-.37,2.348,2.348,0,0,0-1.284.418,2.317,2.317,0,0,0-.959,2.368,2.316,2.316,0,0,0,1.8,1.8,2.337,2.337,0,0,0,2.786-2.243" transform="translate(-103.78 -113.389)" fill="#e8e8e8"/>
        <g id="Grupo_128052" data-name="Grupo 128052" transform="translate(18.2 19.695)" opacity="0.4" style="mix-blend-mode: multiply;isolation: isolate">
          <g id="Grupo_128051" data-name="Grupo 128051">
            <g id="Grupo_128050" data-name="Grupo 128050" clip-path="url(#clip-path-22)">
              <path id="Trazado_190619" data-name="Trazado 190619" d="M132.715,142.49a.969.969,0,1,1-.969-.969.969.969,0,0,1,.969.969" transform="translate(-130.777 -141.521)" fill="#4271e5"/>
            </g>
          </g>
        </g>
        <path id="Trazado_190620" data-name="Trazado 190620" d="M174.04,137.834a2.008,2.008,0,1,1-2.008-2.008,2.008,2.008,0,0,1,2.008,2.008" transform="translate(-146.363 -116.924)" fill="#0df904"/>
        <path id="Trazado_190621" data-name="Trazado 190621" d="M172,135.829a2.319,2.319,0,0,1-.37,1.316,2.375,2.375,0,1,1-3.286-3.286,2.319,2.319,0,0,1,1.316-.37,2.349,2.349,0,0,0-1.284.418,2.318,2.318,0,0,0-.959,2.368,2.317,2.317,0,0,0,1.8,1.8,2.34,2.34,0,0,0,1.325-.122,2.316,2.316,0,0,0,1.044-.837,2.352,2.352,0,0,0,.418-1.284" transform="translate(-143.991 -114.911)" fill="#e8e8e8"/>
        <g id="Grupo_128055" data-name="Grupo 128055" transform="translate(24.7 19.941)" opacity="0.4" style="mix-blend-mode: multiply;isolation: isolate">
          <g id="Grupo_128054" data-name="Grupo 128054">
            <g id="Grupo_128053" data-name="Grupo 128053" clip-path="url(#clip-path-23)">
              <path id="Trazado_190622" data-name="Trazado 190622" d="M179.426,144.26a.969.969,0,1,1-.969-.969.969.969,0,0,1,.969.969" transform="translate(-177.487 -143.291)" fill="#4271e5"/>
            </g>
          </g>
        </g>
        <path id="Trazado_190623" data-name="Trazado 190623" d="M80.617,256.761a2.008,2.008,0,1,1-2.008-2.008,2.008,2.008,0,0,1,2.008,2.008" transform="translate(-65.941 -219.3)" fill="#0df904"/>
        <path id="Trazado_190624" data-name="Trazado 190624" d="M78.577,254.756a2.317,2.317,0,0,1-.37,1.316,2.375,2.375,0,1,1-3.286-3.286,2.32,2.32,0,0,1,1.316-.371,2.351,2.351,0,0,0-1.284.418,2.318,2.318,0,0,0-.959,2.368,2.315,2.315,0,0,0,1.8,1.8,2.337,2.337,0,0,0,2.786-2.243" transform="translate(-63.569 -217.287)" fill="#e8e8e8"/>
        <g id="Grupo_128058" data-name="Grupo 128058" transform="translate(11.699 36.492)" opacity="0.4" style="mix-blend-mode: multiply;isolation: isolate">
          <g id="Grupo_128057" data-name="Grupo 128057">
            <g id="Grupo_128056" data-name="Grupo 128056" clip-path="url(#clip-path-22)">
              <path id="Trazado_190625" data-name="Trazado 190625" d="M86,263.187a.969.969,0,1,1-.969-.969.969.969,0,0,1,.969.969" transform="translate(-84.066 -262.218)" fill="#4271e5"/>
            </g>
          </g>
        </g>
        <path id="Trazado_190626" data-name="Trazado 190626" d="M127.329,262.7a2.008,2.008,0,1,1-2.008-2.008,2.008,2.008,0,0,1,2.008,2.008" transform="translate(-106.152 -224.414)" fill="#0df904"/>
        <path id="Trazado_190627" data-name="Trazado 190627" d="M125.289,260.7a2.321,2.321,0,0,1-.371,1.316,2.375,2.375,0,1,1-3.286-3.286,2.319,2.319,0,0,1,1.316-.37,2.347,2.347,0,0,0-1.284.418,2.317,2.317,0,0,0-.959,2.368,2.316,2.316,0,0,0,1.8,1.8,2.338,2.338,0,0,0,2.786-2.243" transform="translate(-103.78 -222.401)" fill="#e8e8e8"/>
        <g id="Grupo_128061" data-name="Grupo 128061" transform="translate(18.2 37.318)" opacity="0.4" style="mix-blend-mode: multiply;isolation: isolate">
          <g id="Grupo_128060" data-name="Grupo 128060">
            <g id="Grupo_128059" data-name="Grupo 128059" clip-path="url(#clip-path-21)">
              <path id="Trazado_190628" data-name="Trazado 190628" d="M132.715,269.128a.969.969,0,1,1-.969-.969.969.969,0,0,1,.969.969" transform="translate(-130.777 -268.159)" fill="#4271e5"/>
            </g>
          </g>
        </g>
        <path id="Trazado_190629" data-name="Trazado 190629" d="M174.04,264.47a2.008,2.008,0,1,1-2.008-2.008,2.008,2.008,0,0,1,2.008,2.008" transform="translate(-146.363 -225.937)" fill="#0df904"/>
        <path id="Trazado_190630" data-name="Trazado 190630" d="M172,262.466a2.32,2.32,0,0,1-.37,1.316,2.375,2.375,0,1,1-3.286-3.286,2.32,2.32,0,0,1,1.316-.37,2.349,2.349,0,0,0-1.284.418,2.318,2.318,0,0,0-.959,2.368,2.317,2.317,0,0,0,1.8,1.8A2.337,2.337,0,0,0,172,262.466" transform="translate(-143.991 -223.925)" fill="#e8e8e8"/>
        <g id="Grupo_128064" data-name="Grupo 128064" transform="translate(24.7 37.564)" opacity="0.4" style="mix-blend-mode: multiply;isolation: isolate">
          <g id="Grupo_128063" data-name="Grupo 128063">
            <g id="Grupo_128062" data-name="Grupo 128062" clip-path="url(#clip-path-26)">
              <path id="Trazado_190631" data-name="Trazado 190631" d="M179.426,270.9a.969.969,0,1,1-.969-.969.969.969,0,0,1,.969.969" transform="translate(-177.487 -269.928)" fill="#4271e5"/>
            </g>
          </g>
        </g>
        <path id="Trazado_190632" data-name="Trazado 190632" d="M80.617,383.262a2.008,2.008,0,1,1-2.008-2.008,2.008,2.008,0,0,1,2.008,2.008" transform="translate(-65.941 -328.197)" fill="#0df904"/>
        <path id="Trazado_190633" data-name="Trazado 190633" d="M78.577,381.256a2.317,2.317,0,0,1-.37,1.316,2.374,2.374,0,1,1-3.286-3.285,2.318,2.318,0,0,1,1.316-.37,2.351,2.351,0,0,0-1.284.418,2.318,2.318,0,0,0-.959,2.368,2.316,2.316,0,0,0,1.8,1.8,2.337,2.337,0,0,0,2.786-2.243" transform="translate(-63.569 -326.184)" fill="#e8e8e8"/>
        <g id="Grupo_128067" data-name="Grupo 128067" transform="translate(11.699 54.096)" opacity="0.4" style="mix-blend-mode: multiply;isolation: isolate">
          <g id="Grupo_128066" data-name="Grupo 128066">
            <g id="Grupo_128065" data-name="Grupo 128065" clip-path="url(#clip-path-22)">
              <path id="Trazado_190634" data-name="Trazado 190634" d="M86,389.688a.969.969,0,1,1-.969-.969.969.969,0,0,1,.969.969" transform="translate(-84.066 -388.719)" fill="#4271e5"/>
            </g>
          </g>
        </g>
        <path id="Trazado_190635" data-name="Trazado 190635" d="M127.329,389.2a2.008,2.008,0,1,1-2.008-2.008,2.008,2.008,0,0,1,2.008,2.008" transform="translate(-106.152 -333.309)" fill="#0df904"/>
        <path id="Trazado_190636" data-name="Trazado 190636" d="M125.289,387.2a2.32,2.32,0,0,1-.371,1.316,2.375,2.375,0,1,1-3.286-3.285,2.319,2.319,0,0,1,1.316-.37,2.346,2.346,0,0,0-1.284.418,2.317,2.317,0,0,0-.959,2.368,2.316,2.316,0,0,0,1.8,1.8,2.338,2.338,0,0,0,2.786-2.243" transform="translate(-103.78 -331.297)" fill="#e8e8e8"/>
        <g id="Grupo_128070" data-name="Grupo 128070" transform="translate(18.2 54.923)" opacity="0.4" style="mix-blend-mode: multiply;isolation: isolate">
          <g id="Grupo_128069" data-name="Grupo 128069">
            <g id="Grupo_128068" data-name="Grupo 128068" clip-path="url(#clip-path-22)">
              <path id="Trazado_190637" data-name="Trazado 190637" d="M132.715,395.628a.969.969,0,1,1-.969-.969.969.969,0,0,1,.969.969" transform="translate(-130.777 -394.659)" fill="#4271e5"/>
            </g>
          </g>
        </g>
        <path id="Trazado_190638" data-name="Trazado 190638" d="M174.04,390.971a2.008,2.008,0,1,1-2.008-2.008,2.008,2.008,0,0,1,2.008,2.008" transform="translate(-146.363 -334.833)" fill="#0df904"/>
        <path id="Trazado_190639" data-name="Trazado 190639" d="M172,388.966a2.32,2.32,0,0,1-.37,1.316A2.375,2.375,0,1,1,168.344,387a2.32,2.32,0,0,1,1.316-.37,2.349,2.349,0,0,0-1.284.418,2.318,2.318,0,0,0-.959,2.368,2.317,2.317,0,0,0,1.8,1.8,2.34,2.34,0,0,0,1.325-.122,2.316,2.316,0,0,0,1.044-.837,2.352,2.352,0,0,0,.418-1.284" transform="translate(-143.991 -332.821)" fill="#e8e8e8"/>
        <g id="Grupo_128073" data-name="Grupo 128073" transform="translate(24.7 55.169)" opacity="0.4" style="mix-blend-mode: multiply;isolation: isolate">
          <g id="Grupo_128072" data-name="Grupo 128072">
            <g id="Grupo_128071" data-name="Grupo 128071" clip-path="url(#clip-path-26)">
              <path id="Trazado_190640" data-name="Trazado 190640" d="M179.426,397.4a.969.969,0,1,1-.969-.969.969.969,0,0,1,.969.969" transform="translate(-177.487 -396.428)" fill="#4271e5"/>
            </g>
          </g>
        </g>
      </g>
    </g>
  </g>
</svg>
