<svg id="Grupo_128082" data-name="Grupo 128082" xmlns="http://www.w3.org/2000/svg" xmlns:xlink="http://www.w3.org/1999/xlink" width="55.589" height="80.681" viewBox="0 0 55.589 80.681">
  <defs>
    <clipPath id="clip-path">
      <rect id="Rectángulo_41105" data-name="Rectángulo 41105" width="55.589" height="80.681" fill="none"/>
    </clipPath>
  </defs>
  <g id="Grupo_128080" data-name="Grupo 128080" clip-path="url(#clip-path)">
    <path id="Trazado_190641" data-name="Trazado 190641" d="M23.714,80.681a8.655,8.655,0,0,0-2.358-.3A45.3,45.3,0,0,1,7.068,76.9a15.28,15.28,0,0,1-5.319-3.69A6.749,6.749,0,0,1,.028,68.539q.027-20.36.01-40.721C.037,22.777.132,17.733,0,12.7a7.871,7.871,0,0,1,3.736-7A28.234,28.234,0,0,1,14.146,1.464,63.882,63.882,0,0,1,35.195.422a43.063,43.063,0,0,1,13.422,3.4A13.165,13.165,0,0,1,54.7,8.614a6.064,6.064,0,0,1,.885,3.292q0,28.434,0,56.868c0,2.824-1.578,4.7-3.7,6.215a28.567,28.567,0,0,1-10.48,4.256,54.96,54.96,0,0,1-9.338,1.292c-.163.009-.378-.1-.477.143ZM2.56,16.627a3.01,3.01,0,0,0-.06.378q0,6.733,0,13.465a3.887,3.887,0,0,0,.805,2.413A10.667,10.667,0,0,0,6.847,35.7a32.159,32.159,0,0,0,9.21,3.058A64.94,64.94,0,0,0,30.7,39.844,47.932,47.932,0,0,0,43.82,37.972a20.366,20.366,0,0,0,7.8-4.272,4.549,4.549,0,0,0,1.528-3.564c-.031-4.252-.009-8.5-.016-12.757,0-.22.1-.468-.15-.724A18.512,18.512,0,0,1,49.812,18.8,41.612,41.612,0,0,1,34.8,22.822a63.876,63.876,0,0,1-19.119-.765,31.654,31.654,0,0,1-11.431-4.2c-.56-.366-1.082-.788-1.686-1.232M53.131,54.85a18.672,18.672,0,0,1-4.1,2.664,44.489,44.489,0,0,1-15.658,3.767,64.187,64.187,0,0,1-17.946-.942A31.651,31.651,0,0,1,4.292,56.226c-.582-.375-1.119-.819-1.795-1.319v.9c0,4.122.049,8.245-.022,12.365a5.17,5.17,0,0,0,2.147,4.394,21.034,21.034,0,0,0,6.95,3.4,49.784,49.784,0,0,0,12.293,2.1A57.534,57.534,0,0,0,44.028,75.97a20.6,20.6,0,0,0,7.014-3.437,5.134,5.134,0,0,0,2.11-4.333c-.068-4.121-.021-8.244-.021-12.365V54.85M2.494,35.687c0,4.569.05,8.926-.023,13.28a5.2,5.2,0,0,0,2.179,4.46,23.784,23.784,0,0,0,8.926,3.943,58.434,58.434,0,0,0,17.1,1.586,49.762,49.762,0,0,0,14.958-2.7,18.489,18.489,0,0,0,5.513-2.967,5.053,5.053,0,0,0,2-4.23c-.058-4.148-.019-8.3-.019-12.447v-.937a17.693,17.693,0,0,1-3.918,2.6,43.9,43.9,0,0,1-15.1,3.788,65.861,65.861,0,0,1-15.242-.3,43.693,43.693,0,0,1-11.447-3,18.9,18.9,0,0,1-4.934-3.065M25.233,20.661c7.146.08,12.593-.4,17.91-1.919a21.4,21.4,0,0,0,7.909-3.72,4.854,4.854,0,0,0,1.969-2.847c.317-1.767-.7-2.942-1.918-3.959a19.985,19.985,0,0,0-7.068-3.5A53.765,53.765,0,0,0,28.04,2.51,51.771,51.771,0,0,0,9.719,5.366,15.535,15.535,0,0,0,3.931,8.758c-1.882,1.884-1.879,3.8.009,5.689a15.994,15.994,0,0,0,6.084,3.5,48.85,48.85,0,0,0,15.209,2.713" transform="translate(0 0)" fill="#020203"/>
    <path id="Trazado_190642" data-name="Trazado 190642" d="M12.713,84.228c.6.444,1.127.867,1.686,1.232a31.648,31.648,0,0,0,11.431,4.2,63.868,63.868,0,0,0,19.118.766A41.616,41.616,0,0,0,59.965,86.4a18.519,18.519,0,0,0,3.164-2.141c.246.255.15.5.15.724.007,4.252-.015,8.5.016,12.757a4.55,4.55,0,0,1-1.528,3.565,20.365,20.365,0,0,1-7.8,4.272,47.925,47.925,0,0,1-13.117,1.873,64.942,64.942,0,0,1-14.646-1.082A32.158,32.158,0,0,1,17,103.3a10.666,10.666,0,0,1-3.541-2.821,3.887,3.887,0,0,1-.805-2.413q-.012-6.733,0-13.465a2.958,2.958,0,0,1,.06-.378M53.238,96.951a2.27,2.27,0,0,0-4.539,0,2.27,2.27,0,1,0,4.539,0M42.6,100.535a2.28,2.28,0,0,0,2.29-2.219A2.3,2.3,0,0,0,42.611,96a2.33,2.33,0,0,0-2.261,2.269,2.306,2.306,0,0,0,2.25,2.269M61.107,94.6a2.27,2.27,0,1,0-4.539.035,2.27,2.27,0,0,0,4.539-.035" transform="translate(-10.152 -67.6)" fill="#592fe6"/>
    <path id="Trazado_190643" data-name="Trazado 190643" d="M63.191,277.848v.984c0,4.122-.047,8.245.021,12.366a5.134,5.134,0,0,1-2.11,4.333,20.612,20.612,0,0,1-7.015,3.437,57.533,57.533,0,0,1-20.163,2.094,49.782,49.782,0,0,1-12.293-2.1,21.035,21.035,0,0,1-6.95-3.4,5.17,5.17,0,0,1-2.147-4.394c.071-4.121.022-8.244.022-12.366v-.9c.676.5,1.213.943,1.795,1.319a31.659,31.659,0,0,0,11.137,4.114,64.2,64.2,0,0,0,17.946.942,44.5,44.5,0,0,0,15.658-3.767,18.659,18.659,0,0,0,4.1-2.664M61.014,288.34a2.269,2.269,0,0,0-4.538-.056,2.269,2.269,0,1,0,4.538.056m-7.869,2.326a2.271,2.271,0,1,0-2.211,2.3,2.28,2.28,0,0,0,2.211-2.3m-10.6,3.579a2.247,2.247,0,0,0,.011-4.494,2.247,2.247,0,1,0-.011,4.494" transform="translate(-10.06 -222.998)" fill="#592fe6"/>
    <path id="Trazado_190644" data-name="Trazado 190644" d="M12.54,180.729a18.89,18.89,0,0,0,4.934,3.065,43.7,43.7,0,0,0,11.447,3,65.873,65.873,0,0,0,15.242.3,43.9,43.9,0,0,0,15.1-3.788,17.689,17.689,0,0,0,3.918-2.6v.937c0,4.149-.04,8.3.019,12.447a5.053,5.053,0,0,1-2,4.23,18.5,18.5,0,0,1-5.513,2.967A49.769,49.769,0,0,1,40.725,204a58.433,58.433,0,0,1-17.1-1.586,23.782,23.782,0,0,1-8.926-3.943,5.2,5.2,0,0,1-2.179-4.46c.073-4.354.023-8.711.023-13.28m32.24,14.394A2.268,2.268,0,1,0,40.246,195a2.268,2.268,0,0,0,4.534.121m6.081.867a2.243,2.243,0,1,0-2.269-2.227,2.259,2.259,0,0,0,2.269,2.227m7.83-2.376a2.241,2.241,0,1,0-2.229-2.258,2.268,2.268,0,0,0,2.229,2.258" transform="translate(-10.045 -145.042)" fill="#592fe6"/>
    <path id="Trazado_190645" data-name="Trazado 190645" d="M35.487,30.867a48.85,48.85,0,0,1-15.209-2.713,15.994,15.994,0,0,1-6.084-3.5c-1.888-1.884-1.891-3.8-.009-5.689a15.535,15.535,0,0,1,5.789-3.392,51.772,51.772,0,0,1,18.321-2.855,53.765,53.765,0,0,1,15.994,2.209,19.985,19.985,0,0,1,7.068,3.5c1.22,1.017,2.236,2.192,1.918,3.959a4.854,4.854,0,0,1-1.969,2.847,21.4,21.4,0,0,1-7.909,3.72c-5.317,1.516-10.764,2-17.91,1.919" transform="translate(-10.253 -10.206)" fill="#592fe6"/>
    <path id="Trazado_190646" data-name="Trazado 190646" d="M199.794,139.567a2.27,2.27,0,1,1-2.269-2.241,2.281,2.281,0,0,1,2.269,2.241" transform="translate(-156.709 -110.216)" fill="#030505"/>
    <path id="Trazado_190647" data-name="Trazado 190647" d="M155.216,148.38a2.306,2.306,0,0,1-2.25-2.269,2.33,2.33,0,0,1,2.261-2.269,2.3,2.3,0,0,1,2.279,2.319,2.28,2.28,0,0,1-2.29,2.219" transform="translate(-122.769 -115.446)" fill="#030505"/>
    <path id="Trazado_190648" data-name="Trazado 190648" d="M239.656,127.6a2.27,2.27,0,0,1-4.539.035,2.27,2.27,0,1,1,4.539-.035" transform="translate(-188.702 -100.599)" fill="#030505"/>
    <path id="Trazado_190649" data-name="Trazado 190649" d="M239.658,321.719a2.269,2.269,0,1,1-2.244-2.281,2.3,2.3,0,0,1,2.244,2.281" transform="translate(-188.704 -256.377)" fill="#030505"/>
    <path id="Trazado_190650" data-name="Trazado 190650" d="M199.791,333.679a2.271,2.271,0,1,1-4.541.034,2.271,2.271,0,0,1,4.541-.034" transform="translate(-156.705 -266.011)" fill="#030505"/>
    <path id="Trazado_190651" data-name="Trazado 190651" d="M155.269,342.638a2.247,2.247,0,1,1,2.25-2.239,2.267,2.267,0,0,1-2.25,2.239" transform="translate(-122.782 -271.391)" fill="#020203"/>
    <path id="Trazado_190652" data-name="Trazado 190652" d="M157.516,244.2a2.268,2.268,0,0,1-4.534-.121,2.268,2.268,0,1,1,4.534.121" transform="translate(-122.781 -194.119)" fill="#020203"/>
    <path id="Trazado_190653" data-name="Trazado 190653" d="M197.531,239.849a2.243,2.243,0,1,1,2.267-2.224,2.269,2.269,0,0,1-2.267,2.224" transform="translate(-156.715 -188.9)" fill="#020203"/>
    <path id="Trazado_190654" data-name="Trazado 190654" d="M237.357,227.831a2.241,2.241,0,1,1,2.306-2.185,2.25,2.25,0,0,1-2.306,2.185" transform="translate(-188.711 -179.258)" fill="#020203"/>
  </g>
</svg>
