<svg xmlns="http://www.w3.org/2000/svg" width="327.67" height="411.419" viewBox="0 0 327.67 411.419">
  <g id="Grupo_128716" data-name="Grupo 128716" transform="translate(-266.432 -1359.561)">
    <g id="Grupo_128244" data-name="Grupo 128244" transform="translate(8703.432 22085.904)">
      <rect id="Rectángulo_41225" data-name="Rectángulo 41225" width="9.444" height="73.287" transform="translate(-8437 -20668.357)" fill="#592fe6"/>
      <rect id="Rectángulo_41226" data-name="Rectángulo 41226" width="9.444" height="73.287" transform="translate(-8437 -20557.086)" fill="#592fe6"/>
      <rect id="Rectángulo_41227" data-name="Rectángulo 41227" width="9.444" height="73.287" transform="translate(-8437 -20445.811)" fill="#592fe6"/>
      <rect id="Rectángulo_41232" data-name="Rectángulo 41232" width="9.444" height="73.287" transform="translate(-8118.774 -20668.357)" fill="#592fe6"/>
      <path id="Trazado_190891" data-name="Trazado 190891" d="M163.831,115.968C83.3,115.968,0,94.284,0,57.987S83.3,0,163.831,0,327.662,21.691,327.662,57.987s-83.3,57.98-163.831,57.98m0-106.524c-92.355,0-154.394,25.1-154.394,48.544s62.039,48.544,154.394,48.544,154.394-25.1,154.394-48.544S256.186,9.444,163.831,9.444" transform="translate(-8437 -20726.344)" fill="#592fe6"/>
      <path id="Trazado_190896" data-name="Trazado 190896" d="M209.582,32.6c0,15.64-44.866,28.324-100.21,28.324S9.17,48.239,9.17,32.6,54.029,4.275,109.373,4.275,209.582,16.952,209.582,32.6" transform="translate(-8382.542 -20700.955)" fill="#ff5151"/>
      <rect id="Rectángulo_41238" data-name="Rectángulo 41238" width="9.437" height="73.287" transform="translate(-8118.767 -20557.086)" fill="#592fe6"/>
      <rect id="Rectángulo_41239" data-name="Rectángulo 41239" width="9.437" height="73.287" transform="translate(-8118.767 -20445.811)" fill="#592fe6"/>
      <path id="Trazado_190897" data-name="Trazado 190897" d="M163.831,76.9C83.3,76.9,0,55.209,0,18.919H9.437c0,23.439,62.039,48.537,154.394,48.537s154.394-25.1,154.394-48.537h9.437c0,36.29-83.3,57.98-163.831,57.98" transform="translate(-8437 -20613.988)" fill="#592fe6"/>
      <path id="Trazado_190898" data-name="Trazado 190898" d="M163.831,92.908C83.3,92.908,0,71.218,0,34.928H9.437c0,23.439,62.039,48.537,154.394,48.537s154.394-25.1,154.394-48.537h9.437c0,36.29-83.3,57.98-163.831,57.98" transform="translate(-8437 -20518.914)" fill="#592fe6"/>
      <path id="Trazado_190899" data-name="Trazado 190899" d="M163.831,108.923C83.3,108.923,0,87.233,0,50.936H9.437c0,23.446,62.039,48.544,154.394,48.544s154.394-25.1,154.394-48.544h9.437c0,36.3-83.3,57.987-163.831,57.987" transform="translate(-8437 -20423.848)" fill="#592fe6"/>
      <path id="Trazado_190901" data-name="Trazado 190901" d="M163.831,100.891C83.3,100.891,0,79.2,0,42.911c0-7.7,3.782-15.05,11.241-21.85l6.363,6.98c-5.419,4.933-8.167,9.936-8.167,14.87,0,23.439,62.039,48.544,154.394,48.544s154.394-25.1,154.394-48.544c0-4.927-2.748-9.929-8.153-14.863l6.356-6.98c7.459,6.8,11.234,14.148,11.234,21.843,0,36.29-83.3,57.98-163.831,57.98" transform="translate(-8437 -20601.268)" fill="#592fe6"/>
      <path id="Trazado_190902" data-name="Trazado 190902" d="M163.831,117.112C83.3,117.112,0,95.422,0,59.125c0-7.688,3.782-15.043,11.241-21.843l6.363,6.98C12.184,49.2,9.437,54.2,9.437,59.125c0,23.446,62.039,48.544,154.394,48.544s154.394-25.1,154.394-48.544c0-4.92-2.748-9.922-8.153-14.863l6.356-6.973c7.459,6.8,11.234,14.148,11.234,21.836,0,36.3-83.3,57.987-163.831,57.987" transform="translate(-8437 -20504.938)" fill="#592fe6"/>
      <rect id="Rectángulo_41241" data-name="Rectángulo 41241" width="9.444" height="44.491" transform="translate(-8413.798 -20611.855)" fill="#592fe6"/>
      <rect id="Rectángulo_41242" data-name="Rectángulo 41242" width="9.444" height="44.491" transform="translate(-8413.798 -20501.848)" fill="#592fe6"/>
      <rect id="Rectángulo_41243" data-name="Rectángulo 41243" width="9.444" height="44.491" transform="translate(-8413.798 -20390.049)" fill="#592fe6"/>
    </g>
  </g>
</svg>
