<svg id="Grupo_126875" data-name="Grupo 126875" xmlns="http://www.w3.org/2000/svg" xmlns:xlink="http://www.w3.org/1999/xlink" width="64.956" height="50.394" viewBox="0 0 64.956 50.394">
  <defs>
    <clipPath id="clip-path">
      <rect id="Rectángulo_40278" data-name="Rectángulo 40278" width="64.956" height="50.394" fill="none"/>
    </clipPath>
  </defs>
  <g id="Grupo_126874" data-name="Grupo 126874" clip-path="url(#clip-path)">
    <path id="Trazado_188490" data-name="Trazado 188490" d="M64.957.963V49.557a2.04,2.04,0,0,1-1.779.837q-30.7-.02-61.392-.011C.433,50.383,0,49.949,0,48.608Q0,25.2,0,1.8C0,.443.426.01,1.772.01q30.7,0,61.392-.01a1.735,1.735,0,0,1,1.793.963M32.478,2.606h-8.56q-10.3,0-20.607-.011c-.541,0-.764.081-.748.7.048,1.859.043,3.72,0,5.579-.013.585.18.689.717.687,4.967-.02,9.933-.012,14.9-.012q21.748,0,43.5.012c.541,0,.728-.108.715-.689q-.061-2.757,0-5.516c.013-.6-.118-.772-.748-.77q-14.583.034-29.166.016M24.665,47.786c2.006,0,4.012-.012,6.018.01.419,0,.526-.116.522-.527q-.032-2.978,0-5.955c.006-.441-.152-.511-.543-.51q-5.987.019-11.973,0c-.423,0-.53.122-.526.532.02,1.964.03,3.928-.005,5.892-.009.513.174.575.615.571,1.964-.022,3.928-.01,5.892-.01m15.573,0c2.006,0,4.012-.01,6.018.008.4,0,.545-.077.54-.514q-.037-2.977,0-5.955c0-.423-.124-.525-.535-.523q-5.987.023-11.974,0c-.4,0-.54.092-.534.519q.034,2.977,0,5.955c-.005.426.126.522.531.518,1.985-.02,3.97-.009,5.955-.009M9.146,12.149c-1.986,0-3.972.013-5.957-.01-.445-.005-.629.068-.62.576.032,1.964.022,3.929,0,5.894,0,.374.074.508.482.506q6.052-.024,12.1,0c.372,0,.448-.123.446-.467-.015-2.007-.019-4.014,0-6.021,0-.406-.128-.489-.505-.485-1.986.018-3.971.008-5.957.008m15.529,0c-1.965,0-3.93.02-5.894-.013-.521-.009-.626.159-.619.641q.039,2.884,0,5.768c-.005.427.082.575.545.573q5.99-.029,11.979,0c.425,0,.522-.125.518-.531-.02-1.965-.024-3.93,0-5.895.006-.461-.144-.556-.574-.551-1.986.022-3.972.01-5.958.01m15.541,6.957c2.028,0,4.057-.01,6.085.009.39,0,.5-.1.494-.495q-.03-2.979,0-5.958c0-.43-.137-.523-.542-.522q-5.99.021-11.98,0c-.429,0-.524.134-.52.539.019,1.965.025,3.93,0,5.9-.006.465.148.547.571.543,1.965-.022,3.93-.01,5.895-.01m15.672,0c1.986,0,3.972-.01,5.957.008.395,0,.547-.073.542-.512q-.038-2.947,0-5.894c0-.437-.109-.572-.56-.57q-5.957.026-11.914,0c-.442,0-.569.109-.563.557q.038,2.947,0,5.894c0,.409.1.531.519.526,2.007-.023,4.013-.01,6.02-.01M9.137,28.66c1.986,0,3.972-.007,5.958.007.357,0,.521-.046.516-.471q-.036-3.01,0-6.021c0-.393-.109-.5-.5-.5q-6.021.02-12.042,0c-.4,0-.5.131-.494.51.016,1.986.021,3.972,0,5.958,0,.436.144.525.544.521,2.007-.018,4.014-.008,6.021-.008m46.722,0c2.007,0,4.014-.009,6.021.008.383,0,.509-.1.505-.5q-.029-2.979,0-5.958c0-.416-.113-.538-.533-.537q-5.989.022-11.979,0c-.419,0-.529.119-.525.533q.033,2.947,0,5.895c-.005.436.1.571.552.565,1.986-.026,3.972-.011,5.958-.011M9.071,31.266c-1.987,0-3.974.011-5.961-.009-.408,0-.543.1-.538.523.023,1.987.018,3.975,0,5.962,0,.374.082.512.489.511q6.025-.023,12.05,0c.4,0,.5-.111.493-.5-.019-1.987-.025-3.975,0-5.962.007-.474-.164-.54-.578-.536-1.987.02-3.974.009-5.961.009m15.569,6.978c2.009,0,4.017-.01,6.026.009.4,0,.544-.09.539-.521q-.035-2.981,0-5.963c.006-.445-.154-.511-.544-.51-3.975.012-7.95.018-11.925-.005-.505,0-.581.168-.576.614.023,1.924.031,3.849,0,5.773-.01.53.174.62.647.614,1.945-.024,3.89-.01,5.836-.01m15.577-6.978c-1.987,0-3.975.009-5.963-.008-.377,0-.507.082-.5.487q.033,3.013,0,6.026c0,.417.149.481.515.48q5.994-.017,11.988,0c.482,0,.542-.183.538-.591-.018-1.924-.023-3.849,0-5.773.007-.482-.1-.648-.616-.639-1.987.033-3.975.013-5.962.013m15.669,0c-2.008,0-4.017.007-6.025-.007-.357,0-.519.046-.513.47.024,2.008.021,4.017,0,6.025,0,.387.1.5.493.5q6.025-.022,12.05,0c.407,0,.493-.137.49-.511-.015-1.987-.02-3.975,0-5.962,0-.428-.13-.527-.538-.523-1.987.02-3.974.009-5.961.009M9.141,47.786c1.964,0,3.927-.019,5.891.013.491.008.585-.139.578-.6-.026-1.942-.023-3.885,0-5.828,0-.421-.073-.576-.54-.574q-5.986.03-11.971,0c-.433,0-.526.136-.522.537.018,1.963.021,3.927,0,5.891-.005.432.1.574.551.569,2.005-.025,4.011-.011,6.017-.011m46.75,0c1.985,0,3.97-.01,5.954.009.4,0,.546-.078.541-.514q-.036-2.977,0-5.954c0-.42-.122-.526-.535-.524q-5.986.023-11.971,0c-.407,0-.534.1-.53.52q.034,2.977,0,5.954c0,.42.117.524.525.519,2.006-.021,4.011-.009,6.017-.009M24.632,28.66c2.007,0,4.015-.007,6.022.006.377,0,.56-.045.553-.5q-.042-2.979,0-5.959c.005-.433-.137-.525-.539-.524q-5.99.019-11.981,0c-.425,0-.529.133-.525.543.021,1.965.024,3.931,0,5.9-.006.461.15.557.576.552,1.965-.02,3.93-.009,5.9-.009m15.652,0c1.965,0,3.93-.012,5.9.009.441,0,.629-.063.62-.575q-.049-2.915,0-5.832c.008-.5-.159-.587-.613-.585q-5.927.025-11.854,0c-.421,0-.588.077-.581.547q.041,2.947,0,5.9c-.006.463.15.553.575.548,1.986-.021,3.972-.009,5.959-.009" transform="translate(0 0)" fill="#020202"/>
    <path id="Trazado_188491" data-name="Trazado 188491" d="M45.715,15.99q14.583,0,29.166-.016c.63,0,.762.173.748.77q-.061,2.757,0,5.516c.013.581-.174.69-.715.689q-21.748-.022-43.5-.012c-4.967,0-9.933-.008-14.9.012-.537,0-.73-.1-.717-.687.041-1.859.046-3.721,0-5.579-.016-.623.208-.705.748-.7q10.3.024,20.607.011Zm7,4.049q5.962,0,11.924,0a2.829,2.829,0,0,0,.877-.1,1.267,1.267,0,0,0,.888-1.249,1.223,1.223,0,0,0-.966-1.178,4.163,4.163,0,0,0-.879-.084q-5.962-.008-11.924,0-5.994,0-11.987,0c-1.031,0-1.629.479-1.647,1.279-.018.817.611,1.32,1.663,1.33.127,0,.254,0,.381,0Zm18.368,0c.443,0,.887.023,1.328,0a1.3,1.3,0,0,0,1.364-1.284,1.264,1.264,0,0,0-1.336-1.3,26.821,26.821,0,0,0-2.719,0,1.262,1.262,0,0,0-1.33,1.306,1.3,1.3,0,0,0,1.364,1.281c.441.028.885.005,1.328,0" transform="translate(-13.237 -13.384)" fill="#ff5151"/>
    <path id="Trazado_188492" data-name="Trazado 188492" d="M118.495,258.635c-1.964,0-3.928-.012-5.892.009-.44.005-.624-.057-.615-.57.035-1.963.025-3.928.005-5.892,0-.41.1-.533.526-.532q5.987.024,11.973,0c.392,0,.549.069.543.51q-.037,2.977,0,5.955c0,.411-.1.532-.522.527-2.006-.022-4.012-.01-6.018-.01" transform="translate(-93.831 -210.848)" fill="#cfdae8"/>
    <path id="Trazado_188493" data-name="Trazado 188493" d="M214.652,258.637c-1.985,0-3.97-.011-5.955.009-.405,0-.536-.092-.531-.518q.035-2.977,0-5.955c0-.427.13-.52.535-.519q5.987.021,11.973,0c.411,0,.539.1.535.523q-.032,2.978,0,5.955c.006.437-.142.518-.54.514-2.006-.018-4.012-.008-6.019-.008" transform="translate(-174.415 -210.851)" fill="#cfdae8"/>
    <path id="Trazado_188494" data-name="Trazado 188494" d="M22.417,74.88c1.986,0,3.971.009,5.957-.008.377,0,.51.079.505.485-.021,2.007-.017,4.014,0,6.021,0,.344-.073.468-.446.467q-6.052-.02-12.1,0c-.409,0-.485-.132-.482-.506.017-1.965.027-3.93-.005-5.894-.008-.508.175-.581.62-.576,1.985.022,3.971.01,5.957.01" transform="translate(-13.271 -62.73)" fill="#ced9e8"/>
    <path id="Trazado_188495" data-name="Trazado 188495" d="M118.522,74.86c1.986,0,3.972.012,5.958-.01.429,0,.58.09.574.551-.026,1.965-.022,3.93,0,5.9,0,.405-.093.532-.518.531q-5.99-.025-11.98,0c-.464,0-.55-.145-.545-.572q.034-2.884,0-5.768c-.006-.482.1-.65.619-.641,1.964.034,3.93.013,5.895.013" transform="translate(-93.848 -62.711)" fill="#ced9e8"/>
    <path id="Trazado_188496" data-name="Trazado 188496" d="M214.622,81.838c-1.965,0-3.93-.012-5.895.01-.424,0-.578-.078-.571-.543.028-1.965.023-3.93,0-5.895,0-.4.091-.54.52-.539q5.99.025,11.98,0c.4,0,.547.092.542.522q-.033,2.979,0,5.959c0,.393-.1.5-.494.494-2.028-.019-4.057-.009-6.085-.009" transform="translate(-174.406 -62.732)" fill="#ced9e8"/>
    <path id="Trazado_188497" data-name="Trazado 188497" d="M310.9,81.835c-2.007,0-4.014-.012-6.02.01-.42,0-.523-.117-.518-.526q.032-2.947,0-5.894c-.006-.449.121-.559.563-.557q5.957.026,11.914,0c.452,0,.565.132.56.57q-.033,2.947,0,5.894c.006.439-.147.516-.542.512-1.986-.018-3.971-.008-5.957-.008" transform="translate(-255.01 -62.729)" fill="#ced9e8"/>
    <path id="Trazado_188498" data-name="Trazado 188498" d="M22.421,140.686c-2.007,0-4.014-.01-6.021.008-.4,0-.549-.086-.544-.521.024-1.986.019-3.972,0-5.958,0-.378.1-.511.494-.51q6.021.02,12.042,0c.388,0,.5.1.5.5-.019,2.007-.022,4.015,0,6.021.005.425-.159.473-.516.471-1.986-.014-3.972-.007-5.958-.007" transform="translate(-13.284 -112.026)" fill="#ced8e7"/>
    <path id="Trazado_188499" data-name="Trazado 188499" d="M310.869,140.683c-1.986,0-3.972-.015-5.958.011-.452.006-.558-.129-.553-.565q.035-2.947,0-5.895c0-.415.105-.535.524-.533q5.989.023,11.979,0c.42,0,.537.121.533.537q-.03,2.979,0,5.958c0,.4-.122.5-.505.495-2.007-.017-4.014-.008-6.021-.008" transform="translate(-255.011 -112.023)" fill="#ced8e7"/>
    <path id="Trazado_188500" data-name="Trazado 188500" d="M22.359,192.787c1.987,0,3.974.011,5.962-.009.414,0,.585.062.578.536-.029,1.987-.022,3.975,0,5.962,0,.387-.1.5-.493.5q-6.025-.022-12.05,0c-.408,0-.493-.137-.49-.511.015-1.987.02-3.975,0-5.962,0-.428.13-.527.538-.523,1.987.02,3.974.009,5.961.009" transform="translate(-13.288 -161.522)" fill="#ced9e8"/>
    <path id="Trazado_188501" data-name="Trazado 188501" d="M118.471,199.746c-1.945,0-3.891-.014-5.836.01-.473.006-.657-.083-.647-.614.035-1.924.027-3.848,0-5.772-.005-.447.071-.617.576-.614,3.975.023,7.95.018,11.925.005.39,0,.55.065.544.51q-.039,2.981,0,5.963c.005.431-.136.525-.539.521-2.009-.019-4.017-.009-6.026-.009" transform="translate(-93.83 -161.503)" fill="#ced9e8"/>
    <path id="Trazado_188502" data-name="Trazado 188502" d="M214.633,192.764c1.987,0,3.975.02,5.962-.013.52-.009.623.157.616.639-.027,1.924-.021,3.848,0,5.773,0,.408-.057.593-.538.591q-5.994-.03-11.989,0c-.366,0-.519-.063-.515-.48q.033-3.013,0-6.026c0-.4.126-.49.5-.487,1.987.017,3.975.008,5.963.008" transform="translate(-174.416 -161.498)" fill="#ced9e8"/>
    <path id="Trazado_188503" data-name="Trazado 188503" d="M310.895,192.787c1.987,0,3.974.011,5.962-.009.408,0,.543.1.538.523-.023,1.987-.018,3.975,0,5.962,0,.374-.082.512-.49.511q-6.025-.023-12.05,0c-.4,0-.5-.111-.493-.5.019-2.008.022-4.017,0-6.025-.005-.424.156-.473.513-.47,2.008.014,4.017.007,6.025.007" transform="translate(-255.009 -161.522)" fill="#ced9e8"/>
    <path id="Trazado_188504" data-name="Trazado 188504" d="M22.43,258.626c-2.006,0-4.012-.015-6.017.011-.456.006-.556-.137-.552-.569.023-1.963.019-3.927,0-5.891,0-.4.09-.539.522-.537q5.986.027,11.971,0c.467,0,.545.153.541.574-.021,1.942-.025,3.885,0,5.828.006.459-.088.606-.579.6-1.963-.032-3.927-.013-5.89-.013" transform="translate(-13.289 -210.84)" fill="#cfdae8"/>
    <path id="Trazado_188505" data-name="Trazado 188505" d="M310.9,258.637c-2.006,0-4.012-.011-6.017.009-.409,0-.531-.1-.526-.519q.035-2.977,0-5.954c0-.423.122-.521.53-.519q5.986.022,11.971,0c.413,0,.539.1.535.524q-.031,2.977,0,5.954c.005.436-.143.518-.541.514-1.985-.018-3.969-.008-5.954-.008" transform="translate(-255.013 -210.851)" fill="#cfdae8"/>
    <path id="Trazado_188506" data-name="Trazado 188506" d="M118.477,140.684c-1.965,0-3.93-.011-5.9.009-.426,0-.582-.091-.576-.552.026-1.965.022-3.931,0-5.9,0-.41.1-.544.525-.543q5.99.022,11.98,0c.4,0,.544.091.539.524q-.036,2.979,0,5.959c.006.459-.177.507-.554.5-2.007-.014-4.015-.006-6.022-.006" transform="translate(-93.846 -112.024)" fill="#ced8e7"/>
    <path id="Trazado_188507" data-name="Trazado 188507" d="M214.691,140.678c-1.986,0-3.973-.012-5.959.009-.425,0-.581-.085-.575-.548q.04-2.947,0-5.9c-.007-.47.16-.548.581-.547q5.927.022,11.854,0c.454,0,.621.088.613.585q-.046,2.916,0,5.832c.009.511-.179.579-.62.575-1.965-.021-3.93-.009-5.9-.009" transform="translate(-174.407 -112.019)" fill="#ced8e7"/>
    <path id="Trazado_188508" data-name="Trazado 188508" d="M172.584,27.547h-11.67c-.127,0-.254,0-.381,0-1.051-.01-1.681-.513-1.663-1.33.017-.8.616-1.277,1.647-1.279q5.994-.008,11.987,0,5.962,0,11.924,0a4.163,4.163,0,0,1,.879.083,1.223,1.223,0,0,1,.966,1.178,1.267,1.267,0,0,1-.888,1.249,2.828,2.828,0,0,1-.877.1q-5.962,0-11.924,0" transform="translate(-133.111 -20.892)" fill="#020202"/>
    <path id="Trazado_188509" data-name="Trazado 188509" d="M342.827,27.455c-.443,0-.887.023-1.328,0a1.3,1.3,0,0,1-1.364-1.281,1.262,1.262,0,0,1,1.33-1.306,26.726,26.726,0,0,1,2.719,0,1.263,1.263,0,0,1,1.336,1.3,1.3,1.3,0,0,1-1.364,1.284c-.441.028-.885.005-1.328.005" transform="translate(-284.987 -20.802)" fill="#020202"/>
  </g>
</svg>
