<svg id="Grupo_128091" data-name="Grupo 128091" xmlns="http://www.w3.org/2000/svg" xmlns:xlink="http://www.w3.org/1999/xlink" width="31.324" height="40.689" viewBox="0 0 31.324 40.689">
  <defs>
    <clipPath id="clip-path">
      <rect id="Rectángulo_41104" data-name="Rectángulo 41104" width="31.324" height="40.689" fill="none"/>
    </clipPath>
    <clipPath id="clip-path-3">
      <rect id="Rectángulo_41077" data-name="Rectángulo 41077" width="31.324" height="14.339" fill="none"/>
    </clipPath>
    <clipPath id="clip-path-4">
      <path id="Trazado_190575" data-name="Trazado 190575" d="M50.772,303.561c6.1-2.358,16.013-.094,22.149,2.264a30.828,30.828,0,0,0-9.649-1.743c-4.475-.158-9.086-1.842-12.5-.521" transform="translate(-50.772 -302.565)" fill="none"/>
    </clipPath>
    <clipPath id="clip-path-5">
      <rect id="Rectángulo_41078" data-name="Rectángulo 41078" width="5.852" height="10.054" fill="none"/>
    </clipPath>
    <clipPath id="clip-path-6">
      <rect id="Rectángulo_41079" data-name="Rectángulo 41079" width="6.777" height="4.372" fill="none"/>
    </clipPath>
    <clipPath id="clip-path-7">
      <rect id="Rectángulo_41080" data-name="Rectángulo 41080" width="6.661" height="6.747" fill="none"/>
    </clipPath>
    <clipPath id="clip-path-8">
      <rect id="Rectángulo_41081" data-name="Rectángulo 41081" width="1.758" height="11.393" fill="none"/>
    </clipPath>
    <clipPath id="clip-path-12">
      <rect id="Rectángulo_41085" data-name="Rectángulo 41085" width="1.758" height="11.392" fill="none"/>
    </clipPath>
    <clipPath id="clip-path-13">
      <rect id="Rectángulo_41086" data-name="Rectángulo 41086" width="7.512" height="1.16" fill="none"/>
    </clipPath>
    <clipPath id="clip-path-14">
      <rect id="Rectángulo_41087" data-name="Rectángulo 41087" width="26.062" height="4.213" fill="none"/>
    </clipPath>
    <clipPath id="clip-path-19">
      <rect id="Rectángulo_41092" data-name="Rectángulo 41092" width="7.513" height="1.16" fill="none"/>
    </clipPath>
    <clipPath id="clip-path-21">
      <rect id="Rectángulo_41094" data-name="Rectángulo 41094" width="1.248" height="1.249" fill="none"/>
    </clipPath>
    <clipPath id="clip-path-22">
      <rect id="Rectángulo_41095" data-name="Rectángulo 41095" width="1.249" height="1.249" fill="none"/>
    </clipPath>
  </defs>
  <g id="Grupo_128076" data-name="Grupo 128076" clip-path="url(#clip-path)">
    <g id="Grupo_128075" data-name="Grupo 128075">
      <g id="Grupo_128074" data-name="Grupo 128074" clip-path="url(#clip-path)">
        <g id="Grupo_127998" data-name="Grupo 127998" transform="translate(0 26.35)" style="mix-blend-mode: multiply;isolation: isolate">
          <g id="Grupo_127997" data-name="Grupo 127997">
            <g id="Grupo_127996" data-name="Grupo 127996" clip-path="url(#clip-path-3)">
              <g id="Grupo_127995" data-name="Grupo 127995" transform="translate(4.551 0.772)">
                <g id="Grupo_127994" data-name="Grupo 127994" clip-path="url(#clip-path-4)">
                  <path id="Trazado_190572" data-name="Trazado 190572" d="M50.772,295.739a31.6,31.6,0,0,1,10.692-1.767,31.6,31.6,0,0,0-10.692,1.767" transform="translate(-50.772 -294.742)" fill="#a3a3a3"/>
                  <path id="Trazado_190573" data-name="Trazado 190573" d="M170.043,293.954q.247,0,.494,0-.247,0-.494,0" transform="translate(-159.351 -294.724)" fill="#dadada"/>
                  <path id="Trazado_190574" data-name="Trazado 190574" d="M175.555,293.954a32.092,32.092,0,0,1,10.963,1.768,32.092,32.092,0,0,0-10.963-1.768" transform="translate(-164.369 -294.726)" fill="#a3a3a3"/>
                </g>
              </g>
              <path id="Trazado_190576" data-name="Trazado 190576" d="M26.7,320.981c6.136,2.358,6.169,6.18.073,8.538s-16.013,2.358-22.149,0-6.169-6.18-.072-8.538,16.013-2.358,22.149,0" transform="translate(0 -316.948)" fill="#d9d9d9"/>
            </g>
          </g>
        </g>
        <path id="Trazado_190577" data-name="Trazado 190577" d="M15.348,257.976a1.838,1.838,0,0,1,.044-.279,2.1,2.1,0,0,1,.1-.319,2.413,2.413,0,0,1,.309-.577c.076-.108.143-.186.2-.253.033-.04.075-.085.117-.128l.016-.017,0,0,.007-.007.07-.072h0L16.53,256l-.019.02,0,0,.019-.019.008-.007.005-.005.006-.006c.108-.1.216-.2.327-.286.056-.045.113-.088.176-.133.135-.1.278-.19.434-.287l.125-.072.005,0c2.562-1.44,6.629-2.079,10.593-2.2,4.849-.168,9.906.446,12.835,1.82l.047.022.035.017q.125.059.243.121l.023.012.015.008a7.087,7.087,0,0,1,.7.414,2.713,2.713,0,0,1,1.2,1.4c0,.016.008.031.012.046v0a1.2,1.2,0,0,1-.006.583,1.5,1.5,0,0,0-.548-1.5l.324.317,0,0,.042.042,0,0,.012.012,0,0h0l0,0h0l.005,0,0,0a3.475,3.475,0,0,1,.256.294,2.48,2.48,0,0,1,.3.463,2.23,2.23,0,0,1,.256.889c0,.027,0,.054,0,.081s0,.061,0,.092c0,.776-.694,1.492-1.888,2.106a19.752,19.752,0,0,1-5.857,1.666,45.315,45.315,0,0,1-12.876.068q-.594-.085-1.149-.184c-4.362-.776-6.865-2.162-6.868-3.6a1.7,1.7,0,0,1,.012-.226" transform="translate(-13.961 -230.295)" fill="#bdbdbd"/>
        <path id="Trazado_190578" data-name="Trazado 190578" d="M23.476,390.173c-4.957-.71-7.882-2.158-8.011-3.685a2.251,2.251,0,0,0,.254.952,2.826,2.826,0,0,0,.678.885l.271.264h0l.076.071a4.786,4.786,0,0,0,.751.555q-.165-.1-.316-.211a6.263,6.263,0,0,0,.623.376,3.437,3.437,0,0,1-.307-.164c4.547,2.861,16.579,3.056,22.609.895h0a8.894,8.894,0,0,0,1-.407,8.393,8.393,0,0,0,.838-.442c.1-.06.187-.116.266-.17-.176.116-.367.228-.571.336.237-.133.439-.261.6-.371a4.707,4.707,0,0,0,.447-.328l.033-.027a4.86,4.86,0,0,1-.51.391,4.411,4.411,0,0,0,.661-.527l-.01.009.041-.039.323-.318h0a2.621,2.621,0,0,0,.861-1.721c-.365,2.993-11.152,5.033-20.612,3.678" transform="translate(-14.079 -351.843)" fill="#6e6e6e"/>
        <path id="Trazado_190579" data-name="Trazado 190579" d="M91.9,337.862a.188.188,0,0,0,.185-.188l0-.059a.2.2,0,0,0-.05-.14.177.177,0,0,0-.129-.06,39.186,39.186,0,0,1-7.056-.709.231.231,0,0,0-.255.135h0a.228.228,0,0,0,0,.193.206.206,0,0,0,.144.116,40.325,40.325,0,0,0,7.16.71" transform="translate(-76.992 -306.52)" fill="#e8e8e8"/>
        <path id="Trazado_190580" data-name="Trazado 190580" d="M43.985,317.382l-.006-6.635c.005,3.083-11,5.217-20.622,3.839-5.069-.726-8.014-2.224-8.016-3.788l.006,6.635c0,1.564,2.948,3.063,8.016,3.788,9.595,1.374,20.627-.748,20.622-3.839" transform="translate(-13.966 -282.891)" fill="#a1a1a1"/>
        <g id="Grupo_128001" data-name="Grupo 128001" transform="translate(24.168 27.856)" style="mix-blend-mode: multiply;isolation: isolate">
          <g id="Grupo_128000" data-name="Grupo 128000">
            <g id="Grupo_127999" data-name="Grupo 127999" clip-path="url(#clip-path-5)">
              <path id="Trazado_190581" data-name="Trazado 190581" d="M269.607,314.165V320.8c3.491-.765,5.854-1.988,5.852-3.419l-.006-6.635c0,1.428-2.356,2.652-5.846,3.418" transform="translate(-269.607 -310.747)" fill="#c9c9c9"/>
            </g>
          </g>
        </g>
        <g id="Grupo_128004" data-name="Grupo 128004" transform="translate(23.233 34.652)" style="mix-blend-mode: multiply;isolation: isolate">
          <g id="Grupo_128003" data-name="Grupo 128003">
            <g id="Grupo_128002" data-name="Grupo 128002" clip-path="url(#clip-path-6)">
              <path id="Trazado_190582" data-name="Trazado 190582" d="M264.075,389.156c-.176.116-.367.228-.571.336.237-.133.439-.261.6-.371a4.743,4.743,0,0,0,.447-.328l.033-.027a4.874,4.874,0,0,1-.51.391,4.413,4.413,0,0,0,.661-.527l-.01.009.041-.039.323-.318h0a2.622,2.622,0,0,0,.861-1.721c-.166,1.359-2.48,2.521-5.842,3.259l-.935,1.114a20.372,20.372,0,0,0,2.792-.757h0a8.9,8.9,0,0,0,1-.408,8.382,8.382,0,0,0,.837-.442c.1-.06.187-.116.266-.17" transform="translate(-259.174 -386.561)" fill="#c9c9c9"/>
            </g>
          </g>
        </g>
        <g id="Grupo_128007" data-name="Grupo 128007" transform="translate(23.353 24.53)" style="mix-blend-mode: multiply;isolation: isolate">
          <g id="Grupo_128006" data-name="Grupo 128006">
            <g id="Grupo_128005" data-name="Grupo 128005" clip-path="url(#clip-path-7)">
              <path id="Trazado_190583" data-name="Trazado 190583" d="M267.17,276.877q0-.041,0-.081a2.23,2.23,0,0,0-.256-.889,2.477,2.477,0,0,0-.3-.463,3.491,3.491,0,0,0-.256-.294l0,0-.005,0h0l0,0h0l0,0-.012-.012,0,0-.042-.042,0,0-.324-.317a1.5,1.5,0,0,1,.548,1.5,1.2,1.2,0,0,0,.006-.583v0c0-.015-.008-.03-.012-.046a2.713,2.713,0,0,0-1.2-1.4,6.966,6.966,0,0,0-.66-.4l-.681-.193-1.613,2.2-1.837,2.933.815,1.607,0,0a16.2,16.2,0,0,0,3.954-1.316c1.194-.614,1.889-1.329,1.888-2.106,0-.032,0-.062,0-.092" transform="translate(-260.514 -273.643)" fill="#d4d4d4"/>
            </g>
          </g>
        </g>
        <g id="Grupo_128010" data-name="Grupo 128010" transform="translate(1.375 25.559)" style="mix-blend-mode: multiply;isolation: isolate">
          <g id="Grupo_128009" data-name="Grupo 128009">
            <g id="Grupo_128008" data-name="Grupo 128008" clip-path="url(#clip-path-8)">
              <path id="Trazado_190584" data-name="Trazado 190584" d="M15.943,295.32v-6.609l.975-1.744.176-1.84-.551.135,0,0-.008.007-.019.019,0,0,.019-.02-.323.317h0l-.07.071-.007.007,0,0-.016.017c-.042.044-.083.089-.117.128-.053.067-.12.145-.2.253a2.414,2.414,0,0,0-.308.577,2.093,2.093,0,0,0-.1.319,1.84,1.84,0,0,0-.044.279,1.7,1.7,0,0,0-.012.226l.006,6.635c0,.035,0,.069.005.1a2.253,2.253,0,0,0,.254.952,2.825,2.825,0,0,0,.678.885l.271.264h0l.076.071q.074.068.154.134Z" transform="translate(-15.336 -285.128)" fill="#e3e3e3"/>
            </g>
          </g>
        </g>
        <path id="Trazado_190585" data-name="Trazado 190585" d="M31.021,255.509c-3.168,1.917-.5,4.22,5.962,5.146s14.265.122,17.433-1.8.5-4.22-5.962-5.146-14.266-.121-17.433,1.8" transform="translate(-27.026 -230.621)" fill="#cecece"/>
        <path id="Trazado_190586" data-name="Trazado 190586" d="M15.348,131.489a1.839,1.839,0,0,1,.044-.279,2.11,2.11,0,0,1,.1-.319,2.415,2.415,0,0,1,.309-.576c.076-.108.143-.186.2-.253.033-.04.075-.085.117-.128l.016-.017,0,0,.007-.007.07-.072h0l.323-.317-.019.02,0,0,.019-.019.008-.007.005-.005.006-.006c.108-.1.216-.2.327-.286.056-.045.113-.088.176-.133.135-.1.278-.19.434-.287l.125-.072.005,0c2.562-1.44,6.629-2.079,10.593-2.2,4.849-.168,9.906.446,12.835,1.82l.047.022.035.017q.125.06.243.121l.023.012.015.008a7.066,7.066,0,0,1,.7.414,2.712,2.712,0,0,1,1.2,1.4c0,.015.008.03.012.046v0a1.2,1.2,0,0,1-.006.583,1.5,1.5,0,0,0-.548-1.5l.324.317,0,0,.042.042,0,0,.012.012,0,0h0l0,0h0l.005.005,0,0a3.473,3.473,0,0,1,.256.294,2.48,2.48,0,0,1,.3.463,2.231,2.231,0,0,1,.256.889c0,.027,0,.054,0,.081s0,.061,0,.093c0,.776-.694,1.492-1.888,2.106a19.75,19.75,0,0,1-5.857,1.665,45.3,45.3,0,0,1-12.876.068q-.594-.085-1.149-.184c-4.362-.776-6.865-2.162-6.868-3.6a1.7,1.7,0,0,1,.012-.226" transform="translate(-13.961 -115.147)" fill="#bdbdbd"/>
        <path id="Trazado_190587" data-name="Trazado 190587" d="M23.476,263.688c-4.957-.71-7.882-2.158-8.011-3.684a2.251,2.251,0,0,0,.254.952,2.826,2.826,0,0,0,.678.885l.271.264h0l.076.071a4.789,4.789,0,0,0,.751.555q-.165-.1-.316-.211a6.275,6.275,0,0,0,.623.376c-.115-.055-.218-.11-.307-.165,4.547,2.861,16.579,3.056,22.609.895h0a8.9,8.9,0,0,0,1-.407,8.431,8.431,0,0,0,.838-.442c.1-.06.187-.116.266-.17-.176.116-.367.228-.571.336.237-.133.439-.261.6-.371a4.7,4.7,0,0,0,.447-.328l.033-.027a4.823,4.823,0,0,1-.51.391,4.41,4.41,0,0,0,.661-.527l-.01.009.041-.039.323-.318h0a2.621,2.621,0,0,0,.861-1.721c-.365,2.993-11.152,5.033-20.612,3.678" transform="translate(-14.079 -236.697)" fill="#6e6e6e"/>
        <path id="Trazado_190588" data-name="Trazado 190588" d="M91.891,211.374a.187.187,0,0,0,.184-.187l0-.059a.2.2,0,0,0-.05-.14.176.176,0,0,0-.129-.06,39.19,39.19,0,0,1-7.056-.709.232.232,0,0,0-.256.136h0a.229.229,0,0,0,0,.193.205.205,0,0,0,.144.116,40.318,40.318,0,0,0,7.16.71" transform="translate(-76.984 -191.37)" fill="#e8e8e8"/>
        <path id="Trazado_190589" data-name="Trazado 190589" d="M43.985,190.9l-.006-6.635c.005,3.083-11,5.217-20.622,3.839-5.069-.726-8.014-2.224-8.016-3.788l.006,6.635c0,1.564,2.948,3.063,8.016,3.788,9.595,1.374,20.627-.748,20.622-3.839" transform="translate(-13.966 -167.745)" fill="#a1a1a1"/>
        <g id="Grupo_128013" data-name="Grupo 128013" transform="translate(24.168 16.517)" style="mix-blend-mode: multiply;isolation: isolate">
          <g id="Grupo_128012" data-name="Grupo 128012">
            <g id="Grupo_128011" data-name="Grupo 128011" clip-path="url(#clip-path-5)">
              <path id="Trazado_190590" data-name="Trazado 190590" d="M269.607,187.681v6.635c3.491-.765,5.854-1.988,5.852-3.419l-.006-6.635c0,1.428-2.356,2.652-5.846,3.419" transform="translate(-269.607 -184.262)" fill="#c9c9c9"/>
            </g>
          </g>
        </g>
        <g id="Grupo_128016" data-name="Grupo 128016" transform="translate(23.233 23.313)" style="mix-blend-mode: multiply;isolation: isolate">
          <g id="Grupo_128015" data-name="Grupo 128015">
            <g id="Grupo_128014" data-name="Grupo 128014" clip-path="url(#clip-path-6)">
              <path id="Trazado_190591" data-name="Trazado 190591" d="M264.075,262.671c-.176.116-.367.228-.571.336.237-.133.439-.261.6-.371a4.716,4.716,0,0,0,.447-.328l.033-.027a4.84,4.84,0,0,1-.51.391,4.415,4.415,0,0,0,.661-.527l-.01.009.041-.039.323-.318h0a2.622,2.622,0,0,0,.861-1.721c-.166,1.359-2.48,2.521-5.842,3.259l-.935,1.114a20.385,20.385,0,0,0,2.792-.757h0a8.934,8.934,0,0,0,1-.407,8.407,8.407,0,0,0,.837-.442c.1-.06.187-.116.266-.17" transform="translate(-259.174 -260.076)" fill="#c9c9c9"/>
            </g>
          </g>
        </g>
        <g id="Grupo_128019" data-name="Grupo 128019" transform="translate(23.353 13.191)" style="mix-blend-mode: multiply;isolation: isolate">
          <g id="Grupo_128018" data-name="Grupo 128018">
            <g id="Grupo_128017" data-name="Grupo 128017" clip-path="url(#clip-path-7)">
              <path id="Trazado_190592" data-name="Trazado 190592" d="M267.17,150.392c0-.027,0-.054,0-.081a2.23,2.23,0,0,0-.256-.889,2.481,2.481,0,0,0-.3-.463,3.488,3.488,0,0,0-.256-.294l0,0-.005-.005h0l0,0h0l0,0-.012-.012,0,0-.042-.042,0,0-.324-.317a1.5,1.5,0,0,1,.548,1.5,1.2,1.2,0,0,0,.006-.583v0c0-.015-.008-.03-.012-.046a2.712,2.712,0,0,0-1.2-1.4,6.978,6.978,0,0,0-.66-.4l-.681-.193-1.613,2.2-1.837,2.933.815,1.607,0,0a16.193,16.193,0,0,0,3.954-1.316c1.194-.614,1.889-1.329,1.888-2.106,0-.032,0-.062,0-.092" transform="translate(-260.514 -147.158)" fill="#d4d4d4"/>
            </g>
          </g>
        </g>
        <g id="Grupo_128022" data-name="Grupo 128022" transform="translate(1.375 14.221)" style="mix-blend-mode: multiply;isolation: isolate">
          <g id="Grupo_128021" data-name="Grupo 128021">
            <g id="Grupo_128020" data-name="Grupo 128020" clip-path="url(#clip-path-12)">
              <path id="Trazado_190593" data-name="Trazado 190593" d="M15.943,168.836v-6.609l.975-1.744.176-1.84-.551.135,0,0-.008.007-.019.019,0,0,.019-.02-.323.317h0l-.07.071-.007.007,0,0-.016.017c-.042.044-.083.089-.117.128-.053.067-.12.145-.2.253a2.413,2.413,0,0,0-.308.576,2.1,2.1,0,0,0-.1.319,1.836,1.836,0,0,0-.044.279,1.7,1.7,0,0,0-.012.226l.006,6.635c0,.035,0,.069.005.1h0a2.253,2.253,0,0,0,.254.951,2.824,2.824,0,0,0,.678.885l.271.264h0l.076.071q.074.068.154.134Z" transform="translate(-15.336 -158.643)" fill="#e3e3e3"/>
            </g>
          </g>
        </g>
        <path id="Trazado_190594" data-name="Trazado 190594" d="M31.021,129.023c-3.168,1.917-.5,4.22,5.962,5.146s14.265.121,17.433-1.8.5-4.22-5.962-5.146-14.266-.121-17.433,1.8" transform="translate(-27.026 -115.473)" fill="#cecece"/>
        <path id="Trazado_190595" data-name="Trazado 190595" d="M34.717,288.162h0l-.133-.089.133.092a3.312,3.312,0,0,0,.49.284c-.29-.155-.464-.271-.49-.287" transform="translate(-31.484 -262.25)" fill="#4271e5"/>
        <path id="Trazado_190596" data-name="Trazado 190596" d="M55.748,283.917c-1.278,1.189-3.821,1.912-5.49,2.235-6.842,1.389-17.035.722-20.413-2.073-.027-.023-.061-.049-.158-.138v1.065h0c-.026,1.432,2.657,2.806,7.295,3.471,8.849,1.267,18.985-.733,18.763-3.58h0Z" transform="translate(-27.025 -258.466)" fill="#4271e5"/>
        <path id="Trazado_190597" data-name="Trazado 190597" d="M307.477,285.393a5.384,5.384,0,0,0,1.081-.727,7.5,7.5,0,0,1-1.081.727" transform="translate(-279.915 -259.148)" fill="#4271e5"/>
        <g id="Grupo_128025" data-name="Grupo 128025" transform="translate(7.581 28.504)" style="mix-blend-mode: screen;isolation: isolate">
          <g id="Grupo_128024" data-name="Grupo 128024">
            <g id="Grupo_128023" data-name="Grupo 128023" clip-path="url(#clip-path-13)">
              <path id="Trazado_190598" data-name="Trazado 190598" d="M91.9,319.138a.188.188,0,0,0,.185-.187l0-.059a.2.2,0,0,0-.05-.14.177.177,0,0,0-.129-.06,39.194,39.194,0,0,1-7.056-.709.232.232,0,0,0-.256.136h0a.228.228,0,0,0,0,.193.206.206,0,0,0,.144.116,40.322,40.322,0,0,0,7.16.71" transform="translate(-84.573 -317.978)" fill="#497eff"/>
            </g>
          </g>
        </g>
        <g id="Grupo_128028" data-name="Grupo 128028" transform="translate(2.661 25.451)" style="mix-blend-mode: multiply;isolation: isolate">
          <g id="Grupo_128027" data-name="Grupo 128027">
            <g id="Grupo_128026" data-name="Grupo 128026" clip-path="url(#clip-path-14)">
              <path id="Trazado_190599" data-name="Trazado 190599" d="M50.257,286.152h0c-6.752,1.37-16.767.739-20.276-1.963l-.068-.053-.069-.056c-.027-.023-.061-.049-.158-.138v1.065h0a1.364,1.364,0,0,0,.295.835v-1.166a5.36,5.36,0,0,0,.459.312q-.165-.1-.316-.211a6.285,6.285,0,0,0,.623.376c-.115-.055-.218-.11-.307-.165,3.922,2.468,13.412,2.952,19.817,1.651v1.491c3.343-.71,5.592-1.875,5.486-3.233h0v-.98c-1.278,1.189-3.821,1.912-5.49,2.235" transform="translate(-29.686 -283.917)" fill="#bdbdbd"/>
            </g>
          </g>
        </g>
        <path id="Trazado_190600" data-name="Trazado 190600" d="M15.348,5a1.839,1.839,0,0,1,.044-.279,2.1,2.1,0,0,1,.1-.319A2.414,2.414,0,0,1,15.8,3.83c.076-.108.143-.186.2-.253.033-.04.075-.085.117-.128l.016-.017,0,0,.007-.007.07-.071h0l.323-.317-.019.02,0,0,.019-.019.008-.007.005-.005.006-.006c.108-.1.216-.2.327-.286.056-.045.113-.088.176-.133.135-.1.278-.19.434-.287l.125-.072.005,0C20.181.789,24.248.15,28.212.028c4.849-.168,9.906.446,12.835,1.82l.047.022.035.017q.125.06.243.121l.023.012.015.008a7.086,7.086,0,0,1,.7.414,2.712,2.712,0,0,1,1.2,1.4c0,.015.008.031.012.046v0a1.2,1.2,0,0,1-.006.583,1.5,1.5,0,0,0-.548-1.5l.324.317,0,0,.042.042,0,0,.012.012,0,0h0l0,0h0l.005,0,0,0a3.475,3.475,0,0,1,.256.294,2.465,2.465,0,0,1,.3.463,2.23,2.23,0,0,1,.256.889q0,.041,0,.081c0,.03,0,.06,0,.093,0,.776-.694,1.491-1.888,2.106a19.756,19.756,0,0,1-5.857,1.665,45.305,45.305,0,0,1-12.876.068q-.594-.085-1.149-.184c-4.362-.777-6.865-2.162-6.868-3.6A1.7,1.7,0,0,1,15.348,5" transform="translate(-13.961 -0.001)" fill="#bdbdbd"/>
        <path id="Trazado_190601" data-name="Trazado 190601" d="M23.476,137.2c-4.957-.71-7.882-2.158-8.011-3.684a2.252,2.252,0,0,0,.254.952,2.829,2.829,0,0,0,.678.885l.271.264h0l.076.071a4.785,4.785,0,0,0,.751.555q-.165-.1-.316-.211a6.24,6.24,0,0,0,.623.376,3.436,3.436,0,0,1-.307-.165c4.547,2.861,16.579,3.055,22.609.9h0a8.925,8.925,0,0,0,1-.408,8.44,8.44,0,0,0,.838-.442c.1-.06.187-.116.266-.17-.176.116-.367.228-.571.336.237-.133.439-.261.6-.371a4.75,4.75,0,0,0,.447-.328l.033-.027a4.841,4.841,0,0,1-.51.391,4.4,4.4,0,0,0,.661-.527l-.01.009.041-.039.323-.318h0a2.622,2.622,0,0,0,.861-1.721c-.365,2.993-11.152,5.033-20.612,3.678" transform="translate(-14.079 -121.549)" fill="#6e6e6e"/>
        <path id="Trazado_190602" data-name="Trazado 190602" d="M91.89,84.889a.188.188,0,0,0,.185-.188l0-.059a.2.2,0,0,0-.05-.14.177.177,0,0,0-.129-.06,39.2,39.2,0,0,1-7.056-.709.232.232,0,0,0-.256.136h0a.23.23,0,0,0,0,.193.206.206,0,0,0,.144.116,40.343,40.343,0,0,0,7.161.71" transform="translate(-76.983 -76.224)" fill="#e8e8e8"/>
        <path id="Trazado_190603" data-name="Trazado 190603" d="M43.985,64.413l-.006-6.635c.005,3.083-11,5.217-20.622,3.839-5.069-.726-8.014-2.224-8.016-3.788l.006,6.635c0,1.564,2.948,3.063,8.016,3.788,9.595,1.374,20.627-.748,20.622-3.839" transform="translate(-13.966 -52.599)" fill="#a1a1a1"/>
        <g id="Grupo_128031" data-name="Grupo 128031" transform="translate(24.168 5.179)" style="mix-blend-mode: multiply;isolation: isolate">
          <g id="Grupo_128030" data-name="Grupo 128030">
            <g id="Grupo_128029" data-name="Grupo 128029" clip-path="url(#clip-path-5)">
              <path id="Trazado_190604" data-name="Trazado 190604" d="M269.607,61.2v6.636c3.491-.765,5.854-1.988,5.852-3.419l-.006-6.635c0,1.428-2.356,2.652-5.846,3.418" transform="translate(-269.607 -57.778)" fill="#c9c9c9"/>
            </g>
          </g>
        </g>
        <g id="Grupo_128034" data-name="Grupo 128034" transform="translate(23.233 11.975)" style="mix-blend-mode: multiply;isolation: isolate">
          <g id="Grupo_128033" data-name="Grupo 128033">
            <g id="Grupo_128032" data-name="Grupo 128032" clip-path="url(#clip-path-6)">
              <path id="Trazado_190605" data-name="Trazado 190605" d="M264.075,136.186c-.176.116-.367.228-.571.336.237-.133.439-.261.6-.371a4.762,4.762,0,0,0,.447-.328l.033-.027a4.842,4.842,0,0,1-.51.391,4.406,4.406,0,0,0,.661-.527l-.01.009.041-.039.323-.318h0a2.622,2.622,0,0,0,.861-1.721c-.166,1.359-2.48,2.521-5.842,3.259l-.935,1.114a20.412,20.412,0,0,0,2.792-.756h0a8.919,8.919,0,0,0,1-.408,8.41,8.41,0,0,0,.837-.442c.1-.06.187-.116.266-.17" transform="translate(-259.174 -133.591)" fill="#c9c9c9"/>
            </g>
          </g>
        </g>
        <g id="Grupo_128037" data-name="Grupo 128037" transform="translate(23.353 1.853)" style="mix-blend-mode: multiply;isolation: isolate">
          <g id="Grupo_128036" data-name="Grupo 128036">
            <g id="Grupo_128035" data-name="Grupo 128035" clip-path="url(#clip-path-7)">
              <path id="Trazado_190606" data-name="Trazado 190606" d="M267.17,23.907q0-.041,0-.081a2.23,2.23,0,0,0-.256-.889,2.469,2.469,0,0,0-.3-.463,3.476,3.476,0,0,0-.256-.294l0,0-.005,0h0l0,0h0l0,0-.012-.012,0,0-.042-.042,0,0-.324-.317a1.5,1.5,0,0,1,.548,1.5,1.2,1.2,0,0,0,.006-.583v0c0-.015-.008-.03-.012-.046a2.711,2.711,0,0,0-1.2-1.4,7,7,0,0,0-.66-.4l-.681-.193-1.613,2.2-1.837,2.933.815,1.607,0,0a16.193,16.193,0,0,0,3.954-1.315c1.194-.614,1.889-1.329,1.888-2.106,0-.032,0-.063,0-.093" transform="translate(-260.514 -20.673)" fill="#d4d4d4"/>
            </g>
          </g>
        </g>
        <g id="Grupo_128040" data-name="Grupo 128040" transform="translate(1.375 2.883)" style="mix-blend-mode: multiply;isolation: isolate">
          <g id="Grupo_128039" data-name="Grupo 128039">
            <g id="Grupo_128038" data-name="Grupo 128038" clip-path="url(#clip-path-12)">
              <path id="Trazado_190607" data-name="Trazado 190607" d="M15.943,42.35V35.742L16.918,34l.176-1.84-.551.135,0,0-.008.007-.019.019,0,0,.019-.02-.323.317h0l-.07.071-.007.007,0,0-.016.017c-.042.044-.083.089-.117.128-.053.067-.12.145-.2.253a2.411,2.411,0,0,0-.308.576,2.1,2.1,0,0,0-.1.319,1.838,1.838,0,0,0-.044.279,1.7,1.7,0,0,0-.012.226l.006,6.635c0,.035,0,.069.005.1a2.253,2.253,0,0,0,.254.952,2.83,2.83,0,0,0,.678.885l.271.264h0l.076.071q.074.068.154.134Z" transform="translate(-15.336 -32.158)" fill="#e3e3e3"/>
            </g>
          </g>
        </g>
        <path id="Trazado_190608" data-name="Trazado 190608" d="M31.021,2.538c-3.168,1.916-.5,4.22,5.962,5.146s14.265.121,17.433-1.8.5-4.221-5.962-5.146S34.188.621,31.021,2.538" transform="translate(-27.026 -0.326)" fill="#cecece"/>
        <path id="Trazado_190609" data-name="Trazado 190609" d="M34.717,161.675h0q-.068-.044-.133-.089l.133.092a3.308,3.308,0,0,0,.49.284c-.29-.155-.464-.271-.49-.287" transform="translate(-31.484 -147.101)" fill="#4271e5"/>
        <path id="Trazado_190610" data-name="Trazado 190610" d="M55.748,157.431c-1.278,1.189-3.821,1.912-5.49,2.235-6.842,1.389-17.035.722-20.413-2.073-.027-.023-.061-.049-.158-.138v1.065h0c-.026,1.432,2.657,2.806,7.295,3.47,8.849,1.267,18.985-.733,18.763-3.58h0Z" transform="translate(-27.025 -143.319)" fill="#4271e5"/>
        <path id="Trazado_190611" data-name="Trazado 190611" d="M307.477,158.908a5.391,5.391,0,0,0,1.081-.727,7.517,7.517,0,0,1-1.081.727" transform="translate(-279.915 -144.002)" fill="#4271e5"/>
        <g id="Grupo_128043" data-name="Grupo 128043" transform="translate(7.58 17.165)" style="mix-blend-mode: screen;isolation: isolate">
          <g id="Grupo_128042" data-name="Grupo 128042">
            <g id="Grupo_128041" data-name="Grupo 128041" clip-path="url(#clip-path-19)">
              <path id="Trazado_190612" data-name="Trazado 190612" d="M91.89,192.652a.188.188,0,0,0,.185-.187l0-.059a.2.2,0,0,0-.05-.141.177.177,0,0,0-.129-.06,39.2,39.2,0,0,1-7.056-.709.232.232,0,0,0-.256.136h0a.229.229,0,0,0,0,.193.205.205,0,0,0,.144.116,40.335,40.335,0,0,0,7.161.71" transform="translate(-84.564 -191.492)" fill="#497eff"/>
            </g>
          </g>
        </g>
        <g id="Grupo_128046" data-name="Grupo 128046" transform="translate(2.661 14.112)" style="mix-blend-mode: multiply;isolation: isolate">
          <g id="Grupo_128045" data-name="Grupo 128045">
            <g id="Grupo_128044" data-name="Grupo 128044" clip-path="url(#clip-path-14)">
              <path id="Trazado_190613" data-name="Trazado 190613" d="M50.257,159.666h0c-6.752,1.371-16.767.739-20.276-1.963l-.068-.053-.069-.056c-.027-.023-.061-.049-.158-.138v1.065h0a1.364,1.364,0,0,0,.295.835v-1.166a5.409,5.409,0,0,0,.459.312q-.165-.1-.316-.211a6.268,6.268,0,0,0,.623.376,3.4,3.4,0,0,1-.307-.165c3.922,2.468,13.412,2.952,19.817,1.652v1.491c3.343-.71,5.592-1.875,5.486-3.233h0v-.981c-1.278,1.189-3.821,1.912-5.49,2.235" transform="translate(-29.686 -157.431)" fill="#bdbdbd"/>
            </g>
          </g>
        </g>
        <path id="Trazado_190614" data-name="Trazado 190614" d="M79.188,129.41a1.293,1.293,0,1,1-1.293-1.294,1.293,1.293,0,0,1,1.293,1.294" transform="translate(-69.734 -116.632)" fill="#0df904"/>
        <path id="Trazado_190615" data-name="Trazado 190615" d="M76.893,127.286a1.493,1.493,0,0,1-.239.848,1.529,1.529,0,1,1-2.116-2.116,1.494,1.494,0,0,1,.848-.239,1.514,1.514,0,0,0-.827.269,1.493,1.493,0,0,0-.618,1.526,1.492,1.492,0,0,0,1.157,1.157,1.505,1.505,0,0,0,1.795-1.445" transform="translate(-67.226 -114.504)" fill="#e8e8e8"/>
        <g id="Grupo_128049" data-name="Grupo 128049" transform="translate(7.536 12.154)" opacity="0.4" style="mix-blend-mode: multiply;isolation: isolate">
          <g id="Grupo_128048" data-name="Grupo 128048">
            <g id="Grupo_128047" data-name="Grupo 128047" clip-path="url(#clip-path-21)">
              <path id="Trazado_190616" data-name="Trazado 190616" d="M85.315,136.206a.624.624,0,1,1-.624-.624.624.624,0,0,1,.624.624" transform="translate(-84.066 -135.582)" fill="#4271e5"/>
            </g>
          </g>
        </g>
        <path id="Trazado_190617" data-name="Trazado 190617" d="M125.9,135.349a1.293,1.293,0,1,1-1.294-1.293,1.294,1.294,0,0,1,1.294,1.293" transform="translate(-112.259 -122.039)" fill="#0df904"/>
        <path id="Trazado_190618" data-name="Trazado 190618" d="M123.6,133.227a1.5,1.5,0,0,1-.239.848,1.53,1.53,0,1,1-2.117-2.116,1.494,1.494,0,0,1,.848-.238,1.512,1.512,0,0,0-.827.269,1.493,1.493,0,0,0-.618,1.525,1.492,1.492,0,0,0,1.157,1.157,1.506,1.506,0,0,0,1.795-1.445" transform="translate(-109.75 -119.912)" fill="#e8e8e8"/>
        <g id="Grupo_128052" data-name="Grupo 128052" transform="translate(11.723 12.686)" opacity="0.4" style="mix-blend-mode: multiply;isolation: isolate">
          <g id="Grupo_128051" data-name="Grupo 128051">
            <g id="Grupo_128050" data-name="Grupo 128050" clip-path="url(#clip-path-22)">
              <path id="Trazado_190619" data-name="Trazado 190619" d="M132.026,142.145a.624.624,0,1,1-.624-.624.624.624,0,0,1,.624.624" transform="translate(-130.777 -141.521)" fill="#4271e5"/>
            </g>
          </g>
        </g>
        <path id="Trazado_190620" data-name="Trazado 190620" d="M172.611,137.119a1.293,1.293,0,1,1-1.294-1.293,1.294,1.294,0,0,1,1.294,1.293" transform="translate(-154.783 -123.65)" fill="#0df904"/>
        <path id="Trazado_190621" data-name="Trazado 190621" d="M170.317,135a1.494,1.494,0,0,1-.239.848,1.53,1.53,0,1,1-2.116-2.116,1.493,1.493,0,0,1,.848-.239,1.513,1.513,0,0,0-.827.269,1.493,1.493,0,0,0-.618,1.526,1.492,1.492,0,0,0,1.157,1.157,1.508,1.508,0,0,0,.853-.079,1.492,1.492,0,0,0,.672-.539,1.515,1.515,0,0,0,.269-.827" transform="translate(-152.275 -121.522)" fill="#e8e8e8"/>
        <g id="Grupo_128055" data-name="Grupo 128055" transform="translate(15.91 12.845)" opacity="0.4" style="mix-blend-mode: multiply;isolation: isolate">
          <g id="Grupo_128054" data-name="Grupo 128054">
            <g id="Grupo_128053" data-name="Grupo 128053" clip-path="url(#clip-path-22)">
              <path id="Trazado_190622" data-name="Trazado 190622" d="M178.736,143.915a.624.624,0,1,1-.624-.624.624.624,0,0,1,.624.624" transform="translate(-177.487 -143.291)" fill="#4271e5"/>
            </g>
          </g>
        </g>
        <path id="Trazado_190623" data-name="Trazado 190623" d="M79.188,256.047a1.293,1.293,0,1,1-1.293-1.294,1.293,1.293,0,0,1,1.293,1.294" transform="translate(-69.734 -231.917)" fill="#0df904"/>
        <path id="Trazado_190624" data-name="Trazado 190624" d="M76.893,253.923a1.493,1.493,0,0,1-.239.848,1.53,1.53,0,1,1-2.116-2.116,1.5,1.5,0,0,1,.848-.239,1.514,1.514,0,0,0-.827.269,1.493,1.493,0,0,0-.618,1.526,1.491,1.491,0,0,0,1.157,1.157,1.505,1.505,0,0,0,1.795-1.445" transform="translate(-67.226 -229.788)" fill="#e8e8e8"/>
        <g id="Grupo_128058" data-name="Grupo 128058" transform="translate(7.536 23.505)" opacity="0.4" style="mix-blend-mode: multiply;isolation: isolate">
          <g id="Grupo_128057" data-name="Grupo 128057">
            <g id="Grupo_128056" data-name="Grupo 128056" clip-path="url(#clip-path-21)">
              <path id="Trazado_190625" data-name="Trazado 190625" d="M85.315,262.842a.624.624,0,1,1-.624-.624.624.624,0,0,1,.624.624" transform="translate(-84.066 -262.218)" fill="#4271e5"/>
            </g>
          </g>
        </g>
        <path id="Trazado_190626" data-name="Trazado 190626" d="M125.9,261.987a1.293,1.293,0,1,1-1.294-1.294,1.294,1.294,0,0,1,1.294,1.294" transform="translate(-112.259 -237.324)" fill="#0df904"/>
        <path id="Trazado_190627" data-name="Trazado 190627" d="M123.6,259.863a1.5,1.5,0,0,1-.239.848,1.53,1.53,0,1,1-2.117-2.116,1.494,1.494,0,0,1,.848-.239,1.512,1.512,0,0,0-.827.269,1.493,1.493,0,0,0-.618,1.525,1.492,1.492,0,0,0,1.157,1.158,1.506,1.506,0,0,0,1.795-1.445" transform="translate(-109.75 -235.196)" fill="#e8e8e8"/>
        <g id="Grupo_128061" data-name="Grupo 128061" transform="translate(11.723 24.038)" opacity="0.4" style="mix-blend-mode: multiply;isolation: isolate">
          <g id="Grupo_128060" data-name="Grupo 128060">
            <g id="Grupo_128059" data-name="Grupo 128059" clip-path="url(#clip-path-22)">
              <path id="Trazado_190628" data-name="Trazado 190628" d="M132.026,268.783a.624.624,0,1,1-.624-.624.624.624,0,0,1,.624.624" transform="translate(-130.777 -268.159)" fill="#4271e5"/>
            </g>
          </g>
        </g>
        <path id="Trazado_190629" data-name="Trazado 190629" d="M172.611,263.756a1.293,1.293,0,1,1-1.294-1.294,1.294,1.294,0,0,1,1.294,1.294" transform="translate(-154.783 -238.935)" fill="#0df904"/>
        <path id="Trazado_190630" data-name="Trazado 190630" d="M170.317,261.633a1.5,1.5,0,0,1-.239.848,1.53,1.53,0,1,1-2.116-2.116,1.494,1.494,0,0,1,.848-.238,1.513,1.513,0,0,0-.827.269,1.493,1.493,0,0,0-.618,1.526,1.492,1.492,0,0,0,1.157,1.157,1.505,1.505,0,0,0,1.795-1.445" transform="translate(-152.275 -236.807)" fill="#e8e8e8"/>
        <g id="Grupo_128064" data-name="Grupo 128064" transform="translate(15.91 24.197)" opacity="0.4" style="mix-blend-mode: multiply;isolation: isolate">
          <g id="Grupo_128063" data-name="Grupo 128063">
            <g id="Grupo_128062" data-name="Grupo 128062" clip-path="url(#clip-path-22)">
              <path id="Trazado_190631" data-name="Trazado 190631" d="M178.736,270.552a.624.624,0,1,1-.624-.624.624.624,0,0,1,.624.624" transform="translate(-177.487 -269.928)" fill="#4271e5"/>
            </g>
          </g>
        </g>
        <path id="Trazado_190632" data-name="Trazado 190632" d="M79.188,382.547a1.293,1.293,0,1,1-1.293-1.293,1.294,1.294,0,0,1,1.293,1.293" transform="translate(-69.734 -347.078)" fill="#0df904"/>
        <path id="Trazado_190633" data-name="Trazado 190633" d="M76.893,380.423a1.492,1.492,0,0,1-.239.848,1.529,1.529,0,1,1-2.116-2.116,1.493,1.493,0,0,1,.848-.239,1.514,1.514,0,0,0-.827.269,1.493,1.493,0,0,0-.618,1.526,1.492,1.492,0,0,0,1.157,1.158,1.505,1.505,0,0,0,1.795-1.445" transform="translate(-67.226 -344.949)" fill="#e8e8e8"/>
        <g id="Grupo_128067" data-name="Grupo 128067" transform="translate(7.536 34.845)" opacity="0.4" style="mix-blend-mode: multiply;isolation: isolate">
          <g id="Grupo_128066" data-name="Grupo 128066">
            <g id="Grupo_128065" data-name="Grupo 128065" clip-path="url(#clip-path-21)">
              <path id="Trazado_190634" data-name="Trazado 190634" d="M85.315,389.343a.624.624,0,1,1-.624-.624.624.624,0,0,1,.624.624" transform="translate(-84.066 -388.719)" fill="#4271e5"/>
            </g>
          </g>
        </g>
        <path id="Trazado_190635" data-name="Trazado 190635" d="M125.9,388.487a1.293,1.293,0,1,1-1.294-1.294,1.294,1.294,0,0,1,1.294,1.294" transform="translate(-112.259 -352.485)" fill="#0df904"/>
        <path id="Trazado_190636" data-name="Trazado 190636" d="M123.6,386.363a1.494,1.494,0,0,1-.239.848,1.53,1.53,0,1,1-2.117-2.116,1.494,1.494,0,0,1,.848-.239,1.512,1.512,0,0,0-.827.269,1.493,1.493,0,0,0-.618,1.525,1.492,1.492,0,0,0,1.157,1.157,1.506,1.506,0,0,0,1.795-1.445" transform="translate(-109.75 -350.357)" fill="#e8e8e8"/>
        <g id="Grupo_128070" data-name="Grupo 128070" transform="translate(11.723 35.377)" opacity="0.4" style="mix-blend-mode: multiply;isolation: isolate">
          <g id="Grupo_128069" data-name="Grupo 128069">
            <g id="Grupo_128068" data-name="Grupo 128068" clip-path="url(#clip-path-22)">
              <path id="Trazado_190637" data-name="Trazado 190637" d="M132.026,395.283a.624.624,0,1,1-.624-.624.624.624,0,0,1,.624.624" transform="translate(-130.777 -394.659)" fill="#4271e5"/>
            </g>
          </g>
        </g>
        <path id="Trazado_190638" data-name="Trazado 190638" d="M172.611,390.256a1.293,1.293,0,1,1-1.294-1.293,1.294,1.294,0,0,1,1.294,1.293" transform="translate(-154.783 -354.096)" fill="#0df904"/>
        <path id="Trazado_190639" data-name="Trazado 190639" d="M170.317,388.133a1.494,1.494,0,0,1-.239.848,1.53,1.53,0,1,1-2.116-2.116,1.494,1.494,0,0,1,.848-.238,1.513,1.513,0,0,0-.827.269,1.493,1.493,0,0,0-.618,1.525,1.492,1.492,0,0,0,1.157,1.158,1.507,1.507,0,0,0,.853-.079,1.492,1.492,0,0,0,.672-.539,1.515,1.515,0,0,0,.269-.827" transform="translate(-152.275 -351.968)" fill="#e8e8e8"/>
        <g id="Grupo_128073" data-name="Grupo 128073" transform="translate(15.91 35.536)" opacity="0.4" style="mix-blend-mode: multiply;isolation: isolate">
          <g id="Grupo_128072" data-name="Grupo 128072">
            <g id="Grupo_128071" data-name="Grupo 128071" clip-path="url(#clip-path-22)">
              <path id="Trazado_190640" data-name="Trazado 190640" d="M178.736,397.052a.624.624,0,1,1-.624-.624.624.624,0,0,1,.624.624" transform="translate(-177.487 -396.428)" fill="#4271e5"/>
            </g>
          </g>
        </g>
      </g>
    </g>
  </g>
</svg>
