<svg xmlns="http://www.w3.org/2000/svg" xmlns:xlink="http://www.w3.org/1999/xlink" width="286.978" height="176.05" viewBox="0 0 286.978 176.05">
  <defs>
    <clipPath id="clip-path">
      <rect id="Rectángulo_41104" data-name="Rectángulo 41104" width="135.529" height="176.05" fill="none"/>
    </clipPath>
    <clipPath id="clip-path-3">
      <rect id="Rectángulo_41077" data-name="Rectángulo 41077" width="135.529" height="62.04" fill="none"/>
    </clipPath>
    <clipPath id="clip-path-4">
      <path id="Trazado_190575" data-name="Trazado 190575" d="M50.772,306.876c26.377-10.2,69.283-.4,95.832,9.8-11.682-4.489-26.532-7-41.749-7.541-19.361-.685-39.314-7.969-54.083-2.256" transform="translate(-50.772 -302.565)" fill="none"/>
    </clipPath>
    <clipPath id="clip-path-5">
      <rect id="Rectángulo_41078" data-name="Rectángulo 41078" width="25.319" height="43.501" fill="none"/>
    </clipPath>
    <clipPath id="clip-path-6">
      <rect id="Rectángulo_41079" data-name="Rectángulo 41079" width="29.323" height="18.918" fill="none"/>
    </clipPath>
    <clipPath id="clip-path-7">
      <rect id="Rectángulo_41080" data-name="Rectángulo 41080" width="28.819" height="29.194" fill="none"/>
    </clipPath>
    <clipPath id="clip-path-8">
      <rect id="Rectángulo_41081" data-name="Rectángulo 41081" width="7.607" height="49.292" fill="none"/>
    </clipPath>
    <clipPath id="clip-path-11">
      <rect id="Rectángulo_41084" data-name="Rectángulo 41084" width="28.819" height="29.193" fill="none"/>
    </clipPath>
    <clipPath id="clip-path-13">
      <rect id="Rectángulo_41086" data-name="Rectángulo 41086" width="32.503" height="5.018" fill="none"/>
    </clipPath>
    <clipPath id="clip-path-14">
      <rect id="Rectángulo_41087" data-name="Rectángulo 41087" width="112.761" height="18.229" fill="none"/>
    </clipPath>
    <clipPath id="clip-path-15">
      <rect id="Rectángulo_41088" data-name="Rectángulo 41088" width="25.319" height="43.5" fill="none"/>
    </clipPath>
    <clipPath id="clip-path-18">
      <rect id="Rectángulo_41091" data-name="Rectángulo 41091" width="7.607" height="49.291" fill="none"/>
    </clipPath>
    <clipPath id="clip-path-19">
      <rect id="Rectángulo_41092" data-name="Rectángulo 41092" width="32.507" height="5.019" fill="none"/>
    </clipPath>
    <clipPath id="clip-path-20">
      <rect id="Rectángulo_41093" data-name="Rectángulo 41093" width="112.761" height="18.23" fill="none"/>
    </clipPath>
    <clipPath id="clip-path-21">
      <rect id="Rectángulo_41094" data-name="Rectángulo 41094" width="5.402" height="5.402" fill="none"/>
    </clipPath>
    <clipPath id="clip-path-22">
      <rect id="Rectángulo_41095" data-name="Rectángulo 41095" width="5.402" height="5.403" fill="none"/>
    </clipPath>
    <clipPath id="clip-path-23">
      <rect id="Rectángulo_41096" data-name="Rectángulo 41096" width="5.403" height="5.402" fill="none"/>
    </clipPath>
    <clipPath id="clip-path-26">
      <rect id="Rectángulo_41099" data-name="Rectángulo 41099" width="5.403" height="5.403" fill="none"/>
    </clipPath>
    <clipPath id="clip-path-30">
      <rect id="Rectángulo_41158" data-name="Rectángulo 41158" width="64.978" height="79.961" fill="#592fe6"/>
    </clipPath>
    <clipPath id="clip-path-31">
      <rect id="Rectángulo_41158-2" data-name="Rectángulo 41158" width="64.978" height="79.961" fill="#ff5151"/>
    </clipPath>
  </defs>
  <g id="Grupo_128158" data-name="Grupo 128158" transform="translate(-577 -5538.624)">
    <g id="Grupo_128144" data-name="Grupo 128144" transform="translate(651 5538.624)">
      <g id="Grupo_128076" data-name="Grupo 128076" clip-path="url(#clip-path)">
        <g id="Grupo_128075" data-name="Grupo 128075">
          <g id="Grupo_128074" data-name="Grupo 128074" clip-path="url(#clip-path)">
            <g id="Grupo_127998" data-name="Grupo 127998" transform="translate(0 114.009)" style="mix-blend-mode: multiply;isolation: isolate">
              <g id="Grupo_127997" data-name="Grupo 127997">
                <g id="Grupo_127996" data-name="Grupo 127996" clip-path="url(#clip-path-3)">
                  <g id="Grupo_127995" data-name="Grupo 127995" transform="translate(19.692 3.341)">
                    <g id="Grupo_127994" data-name="Grupo 127994" clip-path="url(#clip-path-4)">
                      <path id="Trazado_190572" data-name="Trazado 190572" d="M50.772,301.616c12.785-4.945,29.453-7.493,46.259-7.644-16.807.151-33.474,2.7-46.259,7.644" transform="translate(-50.772 -297.305)" fill="#a3a3a3"/>
                      <path id="Trazado_190573" data-name="Trazado 190573" d="M170.043,293.96q1.068-.011,2.138-.007-1.069,0-2.138.007" transform="translate(-123.784 -297.293)" fill="#dadada"/>
                      <path id="Trazado_190574" data-name="Trazado 190574" d="M175.555,293.954c17.161.053,34.3,2.6,47.435,7.651-13.135-5.047-30.274-7.6-47.435-7.651" transform="translate(-127.158 -297.294)" fill="#a3a3a3"/>
                    </g>
                  </g>
                  <path id="Trazado_190576" data-name="Trazado 190576" d="M115.524,326.863c26.55,10.2,26.69,26.741.314,36.941s-69.284,10.2-95.834,0-26.69-26.74-.312-36.941,69.283-10.2,95.832,0" transform="translate(0 -309.415)" fill="#d9d9d9"/>
                </g>
              </g>
            </g>
            <path id="Trazado_190577" data-name="Trazado 190577" d="M15.389,274.621a7.953,7.953,0,0,1,.192-1.205,9.1,9.1,0,0,1,.415-1.38,10.443,10.443,0,0,1,1.335-2.495c.328-.466.619-.8.848-1.094.145-.172.324-.366.505-.556l.069-.073.014-.015c.009-.01.019-.02.029-.03.1-.1.2-.206.3-.309l0,0,0,0h0l1.4-1.373c-.029.028-.055.057-.083.085l.012-.012c.028-.028.054-.056.082-.083.011-.011.022-.021.033-.032l.022-.022.027-.026c.469-.453.935-.859,1.415-1.238.242-.194.49-.381.76-.574.586-.421,1.2-.824,1.878-1.242.179-.105.361-.209.543-.311l.023-.013c11.084-6.231,28.682-9,45.831-9.526,20.98-.728,42.861,1.928,55.533,7.876l.2.1.153.073q.539.257,1.051.525l.1.05.063.034a30.657,30.657,0,0,1,3.01,1.793c3,2.044,4.675,4.081,5.21,6.058.018.067.035.133.051.2,0,.007,0,.014,0,.021a5.188,5.188,0,0,1-.026,2.523c.584-2.114-.134-4.307-2.372-6.491l1.4,1.371.009.01c.061.059.121.119.182.18l.01.011.051.053-.017-.017,0,0,.019.019a.007.007,0,0,0,0,0l.022.021.012.013a15.032,15.032,0,0,1,1.108,1.273,10.73,10.73,0,0,1,1.288,2,9.649,9.649,0,0,1,1.106,3.849c.007.117.011.235.012.352s.013.262.019.4c.005,3.359-3,6.453-8.169,9.111-6.02,3.152-14.951,5.61-25.343,7.207a196.063,196.063,0,0,1-55.713.292q-2.57-.369-4.97-.8c-18.874-3.359-29.7-9.356-29.714-15.6a7.354,7.354,0,0,1,.051-.977" transform="translate(-9.388 -154.857)" fill="#bdbdbd"/>
            <path id="Trazado_190578" data-name="Trazado 190578" d="M50.128,402.43c-21.445-3.071-34.1-9.337-34.663-15.942a9.74,9.74,0,0,0,1.1,4.117,12.227,12.227,0,0,0,2.935,3.83l1.171,1.143h0c.106.1.216.207.328.309a20.712,20.712,0,0,0,3.249,2.4q-.712-.448-1.366-.915a27.077,27.077,0,0,0,2.7,1.626,14.907,14.907,0,0,1-1.33-.712c19.674,12.378,71.731,13.221,97.822,3.872l.014,0a38.513,38.513,0,0,0,4.335-1.763,36.343,36.343,0,0,0,3.624-1.914c.427-.259.807-.5,1.152-.735-.76.5-1.586.987-2.471,1.453,1.026-.578,1.9-1.13,2.606-1.606a20.358,20.358,0,0,0,1.932-1.42c.092-.076.141-.118.141-.118a21.035,21.035,0,0,1-2.208,1.691,19.08,19.08,0,0,0,2.86-2.279l-.044.039c.059-.056.119-.112.176-.168l1.4-1.374h0a11.341,11.341,0,0,0,3.725-7.446c-1.58,12.949-48.25,21.776-89.182,15.914" transform="translate(-9.467 -236.589)" fill="#6e6e6e"/>
            <path id="Trazado_190579" data-name="Trazado 190579" d="M116.27,341.72a.813.813,0,0,0,.8-.811l.008-.253a.869.869,0,0,0-.218-.607.767.767,0,0,0-.56-.26,169.531,169.531,0,0,1-30.527-3.067,1,1,0,0,0-1.105.586l0,0a.988.988,0,0,0,0,.834.891.891,0,0,0,.625.5,174.467,174.467,0,0,0,30.978,3.072" transform="translate(-51.772 -206.112)" fill="#e8e8e8"/>
            <path id="Trazado_190580" data-name="Trazado 190580" d="M139.277,339.457l-.026-28.71c.023,13.339-47.573,22.574-89.225,16.61-21.931-3.141-34.673-9.624-34.684-16.391l.026,28.708c.012,6.768,12.754,13.251,34.685,16.392,41.514,5.946,89.249-3.238,89.225-16.609" transform="translate(-9.391 -190.224)" fill="#a1a1a1"/>
            <g id="Grupo_128001" data-name="Grupo 128001" transform="translate(104.567 120.523)" style="mix-blend-mode: multiply;isolation: isolate">
              <g id="Grupo_128000" data-name="Grupo 128000">
                <g id="Grupo_127999" data-name="Grupo 127999" clip-path="url(#clip-path-5)">
                  <path id="Trazado_190581" data-name="Trazado 190581" d="M269.607,325.538v28.711c15.1-3.31,25.33-8.6,25.319-14.792l-.026-28.709c.011,6.178-10.195,11.476-25.292,14.791" transform="translate(-269.607 -310.747)" fill="#c9c9c9"/>
                </g>
              </g>
            </g>
            <g id="Grupo_128004" data-name="Grupo 128004" transform="translate(100.521 149.927)" style="mix-blend-mode: multiply;isolation: isolate">
              <g id="Grupo_128003" data-name="Grupo 128003">
                <g id="Grupo_128002" data-name="Grupo 128002" clip-path="url(#clip-path-6)">
                  <path id="Trazado_190582" data-name="Trazado 190582" d="M280.379,397.79c-.76.5-1.586.987-2.471,1.452,1.026-.577,1.9-1.129,2.606-1.606a20.488,20.488,0,0,0,1.932-1.42l.141-.118a21.105,21.105,0,0,1-2.208,1.691,19.094,19.094,0,0,0,2.86-2.279l-.043.04c.059-.056.118-.112.175-.168l1.4-1.374h0a11.345,11.345,0,0,0,3.726-7.446c-.717,5.879-10.729,10.908-25.279,14.1l-4.044,4.819a88.158,88.158,0,0,0,12.081-3.273l.014,0a38.531,38.531,0,0,0,4.334-1.763,36.283,36.283,0,0,0,3.624-1.914c.427-.259.808-.5,1.152-.735" transform="translate(-259.174 -386.561)" fill="#c9c9c9"/>
                </g>
              </g>
            </g>
            <g id="Grupo_128007" data-name="Grupo 128007" transform="translate(101.04 106.132)" style="mix-blend-mode: multiply;isolation: isolate">
              <g id="Grupo_128006" data-name="Grupo 128006">
                <g id="Grupo_128005" data-name="Grupo 128005" clip-path="url(#clip-path-7)">
                  <path id="Trazado_190583" data-name="Trazado 190583" d="M289.314,287.634q0-.176-.012-.352a9.648,9.648,0,0,0-1.106-3.848,10.72,10.72,0,0,0-1.288-2,15.09,15.09,0,0,0-1.108-1.272l-.012-.014-.022-.021a.007.007,0,0,1,0,0,.179.179,0,0,0-.019-.019l0,0,.017.018-.051-.053-.01-.011q-.091-.091-.182-.18l-.009-.01-1.4-1.37c2.238,2.185,2.956,4.378,2.372,6.491a5.187,5.187,0,0,0,.026-2.523c0-.007,0-.014,0-.021-.016-.067-.033-.132-.051-.2-.534-1.977-2.21-4.013-5.21-6.058a30.136,30.136,0,0,0-2.857-1.711l-2.948-.835-6.979,9.537-7.947,12.691,3.527,6.953.014.012a70.081,70.081,0,0,0,17.109-5.692c5.166-2.658,8.174-5.752,8.169-9.111-.006-.138-.012-.27-.019-.4" transform="translate(-260.514 -273.643)" fill="#d4d4d4"/>
                </g>
              </g>
            </g>
            <g id="Grupo_128010" data-name="Grupo 128010" transform="translate(5.948 110.587)" style="mix-blend-mode: multiply;isolation: isolate">
              <g id="Grupo_128009" data-name="Grupo 128009">
                <g id="Grupo_128008" data-name="Grupo 128008" clip-path="url(#clip-path-8)">
                  <path id="Trazado_190584" data-name="Trazado 190584" d="M17.963,329.228V300.633l4.217-7.546.763-7.959-2.384.584-.014.014-.033.032c-.028.027-.054.055-.082.083l-.012.012c.028-.029.054-.057.083-.085l-1.4,1.373h0l0,0,0,0q-.157.154-.3.309l-.029.03-.014.016-.069.073c-.181.189-.36.384-.5.555-.23.291-.52.628-.849,1.094A10.44,10.44,0,0,0,16,291.72a9.05,9.05,0,0,0-.415,1.38,7.962,7.962,0,0,0-.192,1.206,7.352,7.352,0,0,0-.051.977l.026,28.709c0,.151.009.3.022.45a9.747,9.747,0,0,0,1.1,4.117,12.221,12.221,0,0,0,2.935,3.83l1.171,1.143h0c.106.1.216.207.328.309q.321.294.668.582Z" transform="translate(-15.336 -285.128)" fill="#e3e3e3"/>
                </g>
              </g>
            </g>
            <path id="Trazado_190585" data-name="Trazado 190585" d="M35.457,262.759c-13.706,8.293-2.157,18.26,25.795,22.263s61.721.526,75.427-7.768,2.157-18.26-25.794-22.263-61.723-.526-75.428,7.767" transform="translate(-18.173 -155.076)" fill="#cecece"/>
            <path id="Trazado_190586" data-name="Trazado 190586" d="M15.389,148.135a7.954,7.954,0,0,1,.192-1.205A9.131,9.131,0,0,1,16,145.549a10.45,10.45,0,0,1,1.335-2.493c.328-.466.619-.8.848-1.094.145-.172.324-.367.505-.556.024-.024.045-.049.069-.073l.014-.015.029-.03c.1-.1.2-.206.3-.309l0,0,0,0h0l1.4-1.373c-.029.028-.055.057-.083.085l.012-.012c.028-.028.054-.056.082-.083l.033-.032.022-.022.027-.026c.469-.452.935-.858,1.415-1.238.242-.194.49-.381.76-.574.586-.421,1.2-.824,1.878-1.243.179-.1.361-.208.543-.311l.023-.013c11.084-6.231,28.682-9,45.831-9.526,20.98-.728,42.861,1.928,55.533,7.876l.2.1.153.072q.539.258,1.051.525l.1.051.063.033a30.581,30.581,0,0,1,3.01,1.793c3,2.044,4.675,4.081,5.21,6.059.018.066.035.132.051.2,0,.008,0,.014,0,.021a5.184,5.184,0,0,1-.026,2.522c.584-2.113-.134-4.306-2.372-6.491l1.4,1.371.009.009c.061.06.121.12.182.181l.01.011.051.052-.017-.017,0,0,.019.018,0,0,.022.022.012.013a15.027,15.027,0,0,1,1.108,1.273,10.729,10.729,0,0,1,1.288,2,9.653,9.653,0,0,1,1.106,3.849c.007.117.011.235.012.352s.013.262.019.4c.005,3.359-3,6.453-8.169,9.111-6.02,3.152-14.951,5.61-25.343,7.206a196.022,196.022,0,0,1-55.713.293q-2.57-.368-4.97-.8c-18.874-3.36-29.7-9.356-29.714-15.6a7.356,7.356,0,0,1,.051-.977" transform="translate(-9.388 -77.428)" fill="#bdbdbd"/>
            <path id="Trazado_190587" data-name="Trazado 190587" d="M50.128,275.945c-21.445-3.07-34.1-9.337-34.663-15.941a9.74,9.74,0,0,0,1.1,4.117A12.225,12.225,0,0,0,19.5,267.95l1.171,1.143h0c.106.1.216.206.328.308a20.722,20.722,0,0,0,3.249,2.4q-.712-.448-1.366-.914a27.158,27.158,0,0,0,2.7,1.627c-.5-.239-.943-.476-1.33-.712,19.674,12.378,71.731,13.221,97.822,3.872l.014,0a38.524,38.524,0,0,0,4.335-1.763A36.5,36.5,0,0,0,130.04,272c.427-.259.807-.5,1.152-.735-.76.5-1.586.987-2.471,1.453,1.026-.577,1.9-1.13,2.606-1.606a20.358,20.358,0,0,0,1.932-1.42c.092-.075.141-.118.141-.118a20.877,20.877,0,0,1-2.208,1.691,19.089,19.089,0,0,0,2.86-2.279l-.044.04c.059-.056.119-.112.176-.169l1.4-1.375h0a11.342,11.342,0,0,0,3.725-7.446c-1.58,12.95-48.25,21.775-89.182,15.913" transform="translate(-9.467 -159.161)" fill="#6e6e6e"/>
            <path id="Trazado_190588" data-name="Trazado 190588" d="M116.264,215.233a.811.811,0,0,0,.8-.811l.008-.253a.867.867,0,0,0-.217-.608.762.762,0,0,0-.56-.259,169.565,169.565,0,0,1-30.53-3.069,1,1,0,0,0-1.106.587l0,0a.99.99,0,0,0,0,.833.888.888,0,0,0,.625.5,174.441,174.441,0,0,0,30.981,3.072" transform="translate(-51.766 -128.683)" fill="#e8e8e8"/>
            <path id="Trazado_190589" data-name="Trazado 190589" d="M139.277,212.971l-.026-28.709c.023,13.339-47.573,22.574-89.225,16.609-21.931-3.141-34.673-9.623-34.684-16.391l.026,28.709c.012,6.768,12.754,13.251,34.685,16.391,41.514,5.946,89.249-3.238,89.225-16.609" transform="translate(-9.391 -112.796)" fill="#a1a1a1"/>
            <g id="Grupo_128013" data-name="Grupo 128013" transform="translate(104.567 71.466)" style="mix-blend-mode: multiply;isolation: isolate">
              <g id="Grupo_128012" data-name="Grupo 128012">
                <g id="Grupo_128011" data-name="Grupo 128011" clip-path="url(#clip-path-5)">
                  <path id="Trazado_190590" data-name="Trazado 190590" d="M269.607,199.053v28.71c15.1-3.31,25.33-8.6,25.319-14.791l-.026-28.709c.011,6.178-10.195,11.476-25.292,14.791" transform="translate(-269.607 -184.262)" fill="#c9c9c9"/>
                </g>
              </g>
            </g>
            <g id="Grupo_128016" data-name="Grupo 128016" transform="translate(100.521 100.87)" style="mix-blend-mode: multiply;isolation: isolate">
              <g id="Grupo_128015" data-name="Grupo 128015">
                <g id="Grupo_128014" data-name="Grupo 128014" clip-path="url(#clip-path-6)">
                  <path id="Trazado_190591" data-name="Trazado 190591" d="M280.379,271.3c-.76.5-1.586.987-2.471,1.452,1.026-.577,1.9-1.129,2.606-1.606a20.381,20.381,0,0,0,1.932-1.42c.092-.075.141-.118.141-.118a20.947,20.947,0,0,1-2.208,1.691,19.1,19.1,0,0,0,2.86-2.279l-.043.04c.059-.056.118-.112.175-.168l1.4-1.375h0a11.344,11.344,0,0,0,3.726-7.446c-.717,5.879-10.729,10.907-25.279,14.1l-4.044,4.819a88.2,88.2,0,0,0,12.081-3.273l.014,0a38.67,38.67,0,0,0,4.334-1.763,36.4,36.4,0,0,0,3.624-1.914c.427-.259.808-.5,1.152-.735" transform="translate(-259.174 -260.076)" fill="#c9c9c9"/>
                </g>
              </g>
            </g>
            <g id="Grupo_128019" data-name="Grupo 128019" transform="translate(101.04 57.075)" style="mix-blend-mode: multiply;isolation: isolate">
              <g id="Grupo_128018" data-name="Grupo 128018">
                <g id="Grupo_128017" data-name="Grupo 128017" clip-path="url(#clip-path-11)">
                  <path id="Trazado_190592" data-name="Trazado 190592" d="M289.314,161.149c0-.116,0-.235-.012-.352a9.651,9.651,0,0,0-1.106-3.849,10.732,10.732,0,0,0-1.288-2,15.085,15.085,0,0,0-1.108-1.272.126.126,0,0,0-.012-.014l-.022-.022,0,0-.019-.018,0,0,.017.017-.051-.052a.069.069,0,0,0-.01-.011l-.182-.181-.009-.009-1.4-1.37c2.238,2.185,2.956,4.377,2.372,6.491a5.184,5.184,0,0,0,.026-2.522c0-.007,0-.014,0-.021-.016-.066-.033-.132-.051-.2-.534-1.978-2.21-4.015-5.21-6.059a30.187,30.187,0,0,0-2.857-1.711l-2.948-.835-6.979,9.537-7.947,12.69,3.527,6.954.014.012a70.062,70.062,0,0,0,17.109-5.692c5.166-2.657,8.174-5.752,8.169-9.111-.006-.138-.012-.27-.019-.4" transform="translate(-260.514 -147.158)" fill="#d4d4d4"/>
                </g>
              </g>
            </g>
            <g id="Grupo_128022" data-name="Grupo 128022" transform="translate(5.948 61.53)" style="mix-blend-mode: multiply;isolation: isolate">
              <g id="Grupo_128021" data-name="Grupo 128021">
                <g id="Grupo_128020" data-name="Grupo 128020" clip-path="url(#clip-path-8)">
                  <path id="Trazado_190593" data-name="Trazado 190593" d="M17.963,202.743V174.149L22.18,166.6l.763-7.959-2.384.585-.014.013-.033.032c-.028.027-.054.055-.082.083l-.012.012c.028-.028.054-.057.083-.085l-1.4,1.373h0l0,0,0,0c-.1.1-.206.206-.3.309l-.029.03-.014.015c-.023.024-.045.049-.069.073-.181.189-.36.384-.5.556-.23.29-.52.628-.849,1.094A10.438,10.438,0,0,0,16,165.234a9.077,9.077,0,0,0-.415,1.381,7.943,7.943,0,0,0-.192,1.205,7.356,7.356,0,0,0-.051.977l.026,28.708c0,.15.009.3.022.45h0a9.746,9.746,0,0,0,1.1,4.117,12.216,12.216,0,0,0,2.935,3.829l1.171,1.143h0q.159.155.328.309.321.295.668.581Z" transform="translate(-15.336 -158.643)" fill="#e3e3e3"/>
                </g>
              </g>
            </g>
            <path id="Trazado_190594" data-name="Trazado 190594" d="M35.457,136.273c-13.706,8.292-2.157,18.261,25.795,22.263s61.721.526,75.427-7.767,2.157-18.261-25.794-22.263-61.723-.526-75.428,7.767" transform="translate(-18.173 -77.647)" fill="#cecece"/>
            <path id="Trazado_190595" data-name="Trazado 190595" d="M35.158,288.457h0q-.294-.191-.574-.384.282.2.574.4A14.34,14.34,0,0,0,37.28,289.7c-1.256-.669-2.006-1.172-2.122-1.242" transform="translate(-21.171 -176.344)" fill="#4271e5"/>
            <path id="Trazado_190596" data-name="Trazado 190596" d="M142.447,283.917c-5.528,5.145-16.532,8.273-23.754,9.671-29.6,6.009-73.705,3.125-88.322-8.967-.117-.1-.262-.212-.685-.6v4.607h0c-.114,6.2,11.5,12.142,31.562,15.016,38.287,5.483,82.142-3.17,81.181-15.489h.016Z" transform="translate(-18.172 -173.8)" fill="#4271e5"/>
            <path id="Trazado_190597" data-name="Trazado 190597" d="M307.477,287.809a23.3,23.3,0,0,0,4.679-3.144,32.466,32.466,0,0,1-4.679,3.144" transform="translate(-188.222 -174.258)" fill="#4271e5"/>
            <g id="Grupo_128025" data-name="Grupo 128025" transform="translate(32.802 123.328)" style="mix-blend-mode: screen;isolation: isolate">
              <g id="Grupo_128024" data-name="Grupo 128024">
                <g id="Grupo_128023" data-name="Grupo 128023" clip-path="url(#clip-path-13)">
                  <path id="Trazado_190598" data-name="Trazado 190598" d="M116.27,323a.813.813,0,0,0,.8-.811l.008-.253a.869.869,0,0,0-.218-.607.764.764,0,0,0-.56-.259A169.571,169.571,0,0,1,85.771,318a1,1,0,0,0-1.106.587l0,0a.988.988,0,0,0,0,.833.889.889,0,0,0,.625.5A174.462,174.462,0,0,0,116.27,323" transform="translate(-84.573 -317.978)" fill="#497eff"/>
                </g>
              </g>
            </g>
            <g id="Grupo_128028" data-name="Grupo 128028" transform="translate(11.514 110.117)" style="mix-blend-mode: multiply;isolation: isolate">
              <g id="Grupo_128027" data-name="Grupo 128027">
                <g id="Grupo_128026" data-name="Grupo 128026" clip-path="url(#clip-path-14)">
                  <path id="Trazado_190599" data-name="Trazado 190599" d="M118.693,293.588h0c-29.213,5.929-72.547,3.2-87.729-8.5-.1-.076-.2-.153-.3-.23s-.2-.161-.3-.242c-.116-.1-.262-.212-.685-.6v4.606h0a5.9,5.9,0,0,0,1.275,3.612V287.2a23.2,23.2,0,0,0,1.987,1.351q-.712-.448-1.366-.914a27.215,27.215,0,0,0,2.7,1.627c-.5-.239-.943-.477-1.33-.713,16.97,10.676,58.03,12.771,85.742,7.145v6.452c14.462-3.071,24.2-8.113,23.738-13.987h.016v-4.242c-5.528,5.145-16.532,8.274-23.754,9.671" transform="translate(-29.686 -283.917)" fill="#bdbdbd"/>
                </g>
              </g>
            </g>
            <path id="Trazado_190600" data-name="Trazado 190600" d="M15.389,21.65a7.955,7.955,0,0,1,.192-1.206A9.1,9.1,0,0,1,16,19.064a10.445,10.445,0,0,1,1.335-2.494c.328-.467.619-.8.848-1.094.145-.172.324-.367.505-.556l.069-.073.014-.015c.009-.01.019-.02.029-.03q.147-.154.3-.308l0,0,0,0h0l1.4-1.373c-.029.028-.055.057-.083.085l.012-.012c.028-.028.054-.056.082-.084l.033-.031c.008-.007.014-.016.022-.022l.027-.026c.469-.452.935-.858,1.415-1.238.242-.194.49-.381.76-.574.586-.422,1.2-.824,1.878-1.242.179-.1.361-.209.543-.311l.023-.013C36.3,3.414,53.9.648,71.046.118c20.98-.728,42.861,1.928,55.533,7.876l.2.1.153.073q.539.258,1.051.525l.1.051.063.033a30.657,30.657,0,0,1,3.01,1.793c3,2.044,4.675,4.081,5.21,6.059.018.066.035.132.051.2,0,.007,0,.014,0,.021a5.187,5.187,0,0,1-.026,2.523c.584-2.114-.134-4.306-2.372-6.492l1.4,1.372.009.009c.061.06.121.12.182.181l.01.01.051.053-.017-.017,0,0,.019.019,0,0,.022.021.012.014a15.038,15.038,0,0,1,1.108,1.273,10.666,10.666,0,0,1,1.288,2,9.649,9.649,0,0,1,1.106,3.848q.01.177.012.353c.007.13.013.261.019.4.005,3.358-3,6.453-8.169,9.11-6.02,3.152-14.951,5.609-25.343,7.206a196.023,196.023,0,0,1-55.713.293q-2.57-.368-4.97-.8c-18.874-3.36-29.7-9.356-29.714-15.6a7.351,7.351,0,0,1,.051-.977" transform="translate(-9.388 0)" fill="#bdbdbd"/>
            <path id="Trazado_190601" data-name="Trazado 190601" d="M50.128,149.459c-21.445-3.071-34.1-9.337-34.663-15.941a9.742,9.742,0,0,0,1.1,4.117,12.243,12.243,0,0,0,2.935,3.829l1.171,1.143h0c.106.1.216.206.328.308a20.7,20.7,0,0,0,3.249,2.4q-.712-.447-1.366-.914a27.008,27.008,0,0,0,2.7,1.627,14.877,14.877,0,0,1-1.33-.712c19.674,12.379,71.731,13.22,97.822,3.873l.014,0a38.6,38.6,0,0,0,4.335-1.763,36.5,36.5,0,0,0,3.624-1.913c.427-.26.807-.5,1.152-.736-.76.5-1.586.987-2.471,1.453,1.026-.577,1.9-1.129,2.606-1.606a20.565,20.565,0,0,0,1.932-1.42l.141-.118a20.944,20.944,0,0,1-2.208,1.691,19.057,19.057,0,0,0,2.86-2.278l-.044.039c.059-.056.119-.111.176-.168l1.4-1.374h0a11.343,11.343,0,0,0,3.725-7.446c-1.58,12.949-48.25,21.775-89.182,15.913" transform="translate(-9.467 -81.733)" fill="#6e6e6e"/>
            <path id="Trazado_190602" data-name="Trazado 190602" d="M116.264,88.749a.813.813,0,0,0,.8-.811l.008-.253a.87.87,0,0,0-.218-.608.768.768,0,0,0-.56-.259,169.612,169.612,0,0,1-30.531-3.068,1,1,0,0,0-1.107.587v0a.994.994,0,0,0,0,.834.893.893,0,0,0,.625.5,174.549,174.549,0,0,0,30.981,3.072" transform="translate(-51.766 -51.255)" fill="#e8e8e8"/>
            <path id="Trazado_190603" data-name="Trazado 190603" d="M139.277,86.487l-.026-28.709c.023,13.339-47.573,22.574-89.225,16.609C28.094,71.246,15.352,64.764,15.341,58L15.367,86.7c.012,6.768,12.754,13.251,34.685,16.391,41.514,5.945,89.249-3.239,89.225-16.608" transform="translate(-9.391 -35.369)" fill="#a1a1a1"/>
            <g id="Grupo_128031" data-name="Grupo 128031" transform="translate(104.567 22.409)" style="mix-blend-mode: multiply;isolation: isolate">
              <g id="Grupo_128030" data-name="Grupo 128030">
                <g id="Grupo_128029" data-name="Grupo 128029" clip-path="url(#clip-path-15)">
                  <path id="Trazado_190604" data-name="Trazado 190604" d="M269.607,72.568v28.711c15.1-3.31,25.33-8.6,25.319-14.792L294.9,57.778c.011,6.177-10.195,11.475-25.292,14.79" transform="translate(-269.607 -57.778)" fill="#c9c9c9"/>
                </g>
              </g>
            </g>
            <g id="Grupo_128034" data-name="Grupo 128034" transform="translate(100.521 51.813)" style="mix-blend-mode: multiply;isolation: isolate">
              <g id="Grupo_128033" data-name="Grupo 128033">
                <g id="Grupo_128032" data-name="Grupo 128032" clip-path="url(#clip-path-6)">
                  <path id="Trazado_190605" data-name="Trazado 190605" d="M280.379,144.819c-.76.5-1.586.987-2.471,1.453,1.026-.577,1.9-1.129,2.606-1.606a20.606,20.606,0,0,0,1.932-1.42l.141-.118a20.949,20.949,0,0,1-2.208,1.691,19.06,19.06,0,0,0,2.86-2.278l-.043.039c.059-.056.118-.112.175-.168l1.4-1.374h0a11.345,11.345,0,0,0,3.726-7.446c-.717,5.879-10.729,10.908-25.279,14.1l-4.044,4.819a88.317,88.317,0,0,0,12.081-3.273l.014,0a38.594,38.594,0,0,0,4.334-1.763,36.4,36.4,0,0,0,3.624-1.913c.427-.26.808-.5,1.152-.736" transform="translate(-259.174 -133.591)" fill="#c9c9c9"/>
                </g>
              </g>
            </g>
            <g id="Grupo_128037" data-name="Grupo 128037" transform="translate(101.04 8.018)" style="mix-blend-mode: multiply;isolation: isolate">
              <g id="Grupo_128036" data-name="Grupo 128036">
                <g id="Grupo_128035" data-name="Grupo 128035" clip-path="url(#clip-path-11)">
                  <path id="Trazado_190606" data-name="Trazado 190606" d="M289.314,34.664q0-.176-.012-.353a9.649,9.649,0,0,0-1.106-3.848,10.679,10.679,0,0,0-1.288-2,15.037,15.037,0,0,0-1.108-1.273l-.012-.014-.022-.021,0,0-.019-.019,0,0,.017.017-.051-.053-.01-.01-.182-.181-.009-.009-1.4-1.372c2.238,2.186,2.956,4.378,2.372,6.492a5.187,5.187,0,0,0,.026-2.523c0-.007,0-.014,0-.021-.016-.066-.033-.132-.051-.2-.534-1.978-2.21-4.015-5.21-6.059a30.273,30.273,0,0,0-2.857-1.711l-2.948-.835-6.979,9.537L260.514,42.9l3.527,6.953.014.012a70.065,70.065,0,0,0,17.109-5.692c5.166-2.657,8.174-5.752,8.169-9.11-.006-.139-.012-.271-.019-.4" transform="translate(-260.514 -20.673)" fill="#d4d4d4"/>
                </g>
              </g>
            </g>
            <g id="Grupo_128040" data-name="Grupo 128040" transform="translate(5.948 12.472)" style="mix-blend-mode: multiply;isolation: isolate">
              <g id="Grupo_128039" data-name="Grupo 128039">
                <g id="Grupo_128038" data-name="Grupo 128038" clip-path="url(#clip-path-18)">
                  <path id="Trazado_190607" data-name="Trazado 190607" d="M17.963,76.258V47.664l4.217-7.546.763-7.959-2.384.584-.014.014-.033.031c-.028.028-.054.057-.082.084l-.012.012c.028-.028.054-.056.083-.085l-1.4,1.373h0l0,0,0,0q-.157.155-.3.309l-.029.03-.014.015-.069.074c-.181.189-.36.384-.5.555-.23.29-.52.627-.849,1.094A10.431,10.431,0,0,0,16,38.749a9.081,9.081,0,0,0-.415,1.38,7.951,7.951,0,0,0-.192,1.206,7.361,7.361,0,0,0-.051.977l.026,28.708c0,.15.009.3.022.45a9.749,9.749,0,0,0,1.1,4.117,12.243,12.243,0,0,0,2.935,3.83l1.171,1.142h0c.106.1.216.206.328.308q.321.295.668.581Z" transform="translate(-15.336 -32.158)" fill="#e3e3e3"/>
                </g>
              </g>
            </g>
            <path id="Trazado_190608" data-name="Trazado 190608" d="M35.457,9.788C21.751,18.08,33.3,28.048,61.252,32.051s61.721.525,75.427-7.767S138.836,6.023,110.885,2.02,49.162,1.495,35.457,9.788" transform="translate(-18.173 -0.219)" fill="#cecece"/>
            <path id="Trazado_190609" data-name="Trazado 190609" d="M35.158,161.97h0q-.294-.19-.574-.384.282.2.574.4a14.31,14.31,0,0,0,2.122,1.228c-1.256-.669-2.006-1.172-2.122-1.243" transform="translate(-21.171 -98.915)" fill="#4271e5"/>
            <path id="Trazado_190610" data-name="Trazado 190610" d="M142.447,157.431c-5.528,5.145-16.532,8.273-23.754,9.672-29.6,6.009-73.705,3.123-88.322-8.968-.117-.1-.262-.211-.685-.6v4.608h0c-.114,6.195,11.5,12.142,31.562,15.015,38.287,5.483,82.142-3.17,81.181-15.488h.016Z" transform="translate(-18.172 -96.371)" fill="#4271e5"/>
            <path id="Trazado_190611" data-name="Trazado 190611" d="M307.477,161.324a23.33,23.33,0,0,0,4.679-3.144,32.526,32.526,0,0,1-4.679,3.144" transform="translate(-188.222 -96.83)" fill="#4271e5"/>
            <g id="Grupo_128043" data-name="Grupo 128043" transform="translate(32.798 74.27)" style="mix-blend-mode: screen;isolation: isolate">
              <g id="Grupo_128042" data-name="Grupo 128042">
                <g id="Grupo_128041" data-name="Grupo 128041" clip-path="url(#clip-path-19)">
                  <path id="Trazado_190612" data-name="Trazado 190612" d="M116.264,196.511a.811.811,0,0,0,.8-.81l.008-.254a.871.871,0,0,0-.218-.608.766.766,0,0,0-.56-.259,169.614,169.614,0,0,1-30.531-3.068,1,1,0,0,0-1.107.588v0a.993.993,0,0,0,0,.834.889.889,0,0,0,.625.5,174.517,174.517,0,0,0,30.981,3.072" transform="translate(-84.564 -191.492)" fill="#497eff"/>
                </g>
              </g>
            </g>
            <g id="Grupo_128046" data-name="Grupo 128046" transform="translate(11.514 61.06)" style="mix-blend-mode: multiply;isolation: isolate">
              <g id="Grupo_128045" data-name="Grupo 128045">
                <g id="Grupo_128044" data-name="Grupo 128044" clip-path="url(#clip-path-20)">
                  <path id="Trazado_190613" data-name="Trazado 190613" d="M118.693,167.1h0c-29.213,5.93-72.547,3.2-87.729-8.5q-.15-.115-.3-.231c-.1-.08-.2-.16-.3-.242-.116-.1-.262-.211-.685-.6v4.608h0a5.9,5.9,0,0,0,1.275,3.611v-5.045a23.392,23.392,0,0,0,1.987,1.35q-.712-.447-1.366-.914a27.122,27.122,0,0,0,2.7,1.626,14.7,14.7,0,0,1-1.33-.712c16.97,10.677,58.03,12.771,85.742,7.146v6.452c14.462-3.071,24.2-8.113,23.738-13.987h.016v-4.243c-5.528,5.145-16.532,8.273-23.754,9.672" transform="translate(-29.686 -157.431)" fill="#bdbdbd"/>
                </g>
              </g>
            </g>
            <path id="Trazado_190614" data-name="Trazado 190614" d="M87.794,133.713a5.6,5.6,0,1,1-5.6-5.6,5.6,5.6,0,0,1,5.6,5.6" transform="translate(-46.891 -78.426)" fill="#0df904"/>
            <path id="Trazado_190615" data-name="Trazado 190615" d="M87.032,132.3A6.458,6.458,0,0,1,86,135.971a6.618,6.618,0,1,1-9.157-9.157,6.465,6.465,0,0,1,3.669-1.032,6.551,6.551,0,0,0-3.579,1.165,6.461,6.461,0,0,0-2.673,6.6,6.453,6.453,0,0,0,5.008,5.008,6.512,6.512,0,0,0,7.765-6.252" transform="translate(-45.204 -76.995)" fill="#e8e8e8"/>
            <g id="Grupo_128049" data-name="Grupo 128049" transform="translate(32.605 52.585)" opacity="0.4" style="mix-blend-mode: multiply;isolation: isolate">
              <g id="Grupo_128048" data-name="Grupo 128048">
                <g id="Grupo_128047" data-name="Grupo 128047" clip-path="url(#clip-path-21)">
                  <path id="Trazado_190616" data-name="Trazado 190616" d="M89.468,138.283a2.7,2.7,0,1,1-2.7-2.7,2.7,2.7,0,0,1,2.7,2.7" transform="translate(-84.066 -135.582)" fill="#4271e5"/>
                </g>
              </g>
            </g>
            <path id="Trazado_190617" data-name="Trazado 190617" d="M134.505,139.652a5.6,5.6,0,1,1-5.6-5.6,5.6,5.6,0,0,1,5.6,5.6" transform="translate(-75.486 -82.062)" fill="#0df904"/>
            <path id="Trazado_190618" data-name="Trazado 190618" d="M133.744,138.244a6.467,6.467,0,0,1-1.033,3.668,6.618,6.618,0,1,1-9.158-9.157,6.465,6.465,0,0,1,3.668-1.032,6.543,6.543,0,0,0-3.578,1.165,6.458,6.458,0,0,0-2.673,6.6,6.455,6.455,0,0,0,5.008,5.008,6.514,6.514,0,0,0,7.766-6.252" transform="translate(-73.799 -80.632)" fill="#e8e8e8"/>
            <g id="Grupo_128052" data-name="Grupo 128052" transform="translate(50.722 54.889)" opacity="0.4" style="mix-blend-mode: multiply;isolation: isolate">
              <g id="Grupo_128051" data-name="Grupo 128051">
                <g id="Grupo_128050" data-name="Grupo 128050" clip-path="url(#clip-path-22)">
                  <path id="Trazado_190619" data-name="Trazado 190619" d="M136.179,144.222a2.7,2.7,0,1,1-2.7-2.7,2.7,2.7,0,0,1,2.7,2.7" transform="translate(-130.777 -141.521)" fill="#4271e5"/>
                </g>
              </g>
            </g>
            <path id="Trazado_190620" data-name="Trazado 190620" d="M181.217,141.422a5.6,5.6,0,1,1-5.6-5.6,5.6,5.6,0,0,1,5.6,5.6" transform="translate(-104.08 -83.146)" fill="#0df904"/>
            <path id="Trazado_190621" data-name="Trazado 190621" d="M180.455,140.013a6.463,6.463,0,0,1-1.032,3.667,6.618,6.618,0,1,1-9.157-9.157,6.462,6.462,0,0,1,3.668-1.032,6.547,6.547,0,0,0-3.579,1.165,6.461,6.461,0,0,0-2.673,6.6,6.456,6.456,0,0,0,5.008,5.008,6.522,6.522,0,0,0,3.692-.341,6.455,6.455,0,0,0,2.909-2.332,6.554,6.554,0,0,0,1.164-3.579" transform="translate(-102.394 -81.715)" fill="#e8e8e8"/>
            <g id="Grupo_128055" data-name="Grupo 128055" transform="translate(68.839 55.575)" opacity="0.4" style="mix-blend-mode: multiply;isolation: isolate">
              <g id="Grupo_128054" data-name="Grupo 128054">
                <g id="Grupo_128053" data-name="Grupo 128053" clip-path="url(#clip-path-23)">
                  <path id="Trazado_190622" data-name="Trazado 190622" d="M182.89,145.992a2.7,2.7,0,1,1-2.7-2.7,2.7,2.7,0,0,1,2.7,2.7" transform="translate(-177.487 -143.291)" fill="#4271e5"/>
                </g>
              </g>
            </g>
            <path id="Trazado_190623" data-name="Trazado 190623" d="M87.794,260.35a5.6,5.6,0,1,1-5.6-5.6,5.6,5.6,0,0,1,5.6,5.6" transform="translate(-46.891 -155.947)" fill="#0df904"/>
            <path id="Trazado_190624" data-name="Trazado 190624" d="M87.032,258.939A6.458,6.458,0,0,1,86,262.607a6.618,6.618,0,1,1-9.157-9.157,6.465,6.465,0,0,1,3.669-1.033,6.552,6.552,0,0,0-3.579,1.166,6.46,6.46,0,0,0-2.673,6.6,6.453,6.453,0,0,0,5.008,5.008,6.512,6.512,0,0,0,7.765-6.252" transform="translate(-45.204 -154.516)" fill="#e8e8e8"/>
            <g id="Grupo_128058" data-name="Grupo 128058" transform="translate(32.605 101.701)" opacity="0.4" style="mix-blend-mode: multiply;isolation: isolate">
              <g id="Grupo_128057" data-name="Grupo 128057">
                <g id="Grupo_128056" data-name="Grupo 128056" clip-path="url(#clip-path-22)">
                  <path id="Trazado_190625" data-name="Trazado 190625" d="M89.468,264.919a2.7,2.7,0,1,1-2.7-2.7,2.7,2.7,0,0,1,2.7,2.7" transform="translate(-84.066 -262.218)" fill="#4271e5"/>
                </g>
              </g>
            </g>
            <path id="Trazado_190626" data-name="Trazado 190626" d="M134.505,266.29a5.6,5.6,0,1,1-5.6-5.6,5.6,5.6,0,0,1,5.6,5.6" transform="translate(-75.486 -159.583)" fill="#0df904"/>
            <path id="Trazado_190627" data-name="Trazado 190627" d="M133.744,264.88a6.469,6.469,0,0,1-1.033,3.667,6.618,6.618,0,1,1-9.158-9.157,6.463,6.463,0,0,1,3.668-1.032,6.54,6.54,0,0,0-3.578,1.166,6.458,6.458,0,0,0-2.673,6.6,6.455,6.455,0,0,0,5.008,5.008,6.515,6.515,0,0,0,7.766-6.252" transform="translate(-73.799 -158.152)" fill="#e8e8e8"/>
            <g id="Grupo_128061" data-name="Grupo 128061" transform="translate(50.722 104.005)" opacity="0.4" style="mix-blend-mode: multiply;isolation: isolate">
              <g id="Grupo_128060" data-name="Grupo 128060">
                <g id="Grupo_128059" data-name="Grupo 128059" clip-path="url(#clip-path-21)">
                  <path id="Trazado_190628" data-name="Trazado 190628" d="M136.179,270.86a2.7,2.7,0,1,1-2.7-2.7,2.7,2.7,0,0,1,2.7,2.7" transform="translate(-130.777 -268.159)" fill="#4271e5"/>
                </g>
              </g>
            </g>
            <path id="Trazado_190629" data-name="Trazado 190629" d="M181.217,268.059a5.6,5.6,0,1,1-5.6-5.6,5.6,5.6,0,0,1,5.6,5.6" transform="translate(-104.08 -160.666)" fill="#0df904"/>
            <path id="Trazado_190630" data-name="Trazado 190630" d="M180.455,266.65a6.465,6.465,0,0,1-1.032,3.667,6.618,6.618,0,1,1-9.157-9.157,6.466,6.466,0,0,1,3.668-1.032,6.547,6.547,0,0,0-3.579,1.165,6.461,6.461,0,0,0-2.673,6.6,6.457,6.457,0,0,0,5.008,5.008,6.513,6.513,0,0,0,7.766-6.252" transform="translate(-102.394 -159.236)" fill="#e8e8e8"/>
            <g id="Grupo_128064" data-name="Grupo 128064" transform="translate(68.839 104.692)" opacity="0.4" style="mix-blend-mode: multiply;isolation: isolate">
              <g id="Grupo_128063" data-name="Grupo 128063">
                <g id="Grupo_128062" data-name="Grupo 128062" clip-path="url(#clip-path-26)">
                  <path id="Trazado_190631" data-name="Trazado 190631" d="M182.89,272.629a2.7,2.7,0,1,1-2.7-2.7,2.7,2.7,0,0,1,2.7,2.7" transform="translate(-177.487 -269.928)" fill="#4271e5"/>
                </g>
              </g>
            </g>
            <path id="Trazado_190632" data-name="Trazado 190632" d="M87.794,386.85a5.6,5.6,0,1,1-5.6-5.6,5.6,5.6,0,0,1,5.6,5.6" transform="translate(-46.891 -233.385)" fill="#0df904"/>
            <path id="Trazado_190633" data-name="Trazado 190633" d="M87.032,385.44A6.457,6.457,0,0,1,86,389.107a6.618,6.618,0,1,1-9.157-9.156,6.462,6.462,0,0,1,3.669-1.032,6.551,6.551,0,0,0-3.579,1.165,6.461,6.461,0,0,0-2.673,6.6,6.454,6.454,0,0,0,5.008,5.008,6.513,6.513,0,0,0,7.765-6.252" transform="translate(-45.204 -231.953)" fill="#e8e8e8"/>
            <g id="Grupo_128067" data-name="Grupo 128067" transform="translate(32.605 150.764)" opacity="0.4" style="mix-blend-mode: multiply;isolation: isolate">
              <g id="Grupo_128066" data-name="Grupo 128066">
                <g id="Grupo_128065" data-name="Grupo 128065" clip-path="url(#clip-path-22)">
                  <path id="Trazado_190634" data-name="Trazado 190634" d="M89.468,391.42a2.7,2.7,0,1,1-2.7-2.7,2.7,2.7,0,0,1,2.7,2.7" transform="translate(-84.066 -388.719)" fill="#4271e5"/>
                </g>
              </g>
            </g>
            <path id="Trazado_190635" data-name="Trazado 190635" d="M134.505,392.79a5.6,5.6,0,1,1-5.6-5.6,5.6,5.6,0,0,1,5.6,5.6" transform="translate(-75.486 -237.02)" fill="#0df904"/>
            <path id="Trazado_190636" data-name="Trazado 190636" d="M133.744,391.38a6.465,6.465,0,0,1-1.033,3.667,6.618,6.618,0,1,1-9.158-9.156,6.462,6.462,0,0,1,3.668-1.032,6.541,6.541,0,0,0-3.578,1.165,6.458,6.458,0,0,0-2.673,6.6,6.455,6.455,0,0,0,5.008,5.008,6.515,6.515,0,0,0,7.766-6.252" transform="translate(-73.799 -235.589)" fill="#e8e8e8"/>
            <g id="Grupo_128070" data-name="Grupo 128070" transform="translate(50.722 153.068)" opacity="0.4" style="mix-blend-mode: multiply;isolation: isolate">
              <g id="Grupo_128069" data-name="Grupo 128069">
                <g id="Grupo_128068" data-name="Grupo 128068" clip-path="url(#clip-path-22)">
                  <path id="Trazado_190637" data-name="Trazado 190637" d="M136.179,397.36a2.7,2.7,0,1,1-2.7-2.7,2.7,2.7,0,0,1,2.7,2.7" transform="translate(-130.777 -394.659)" fill="#4271e5"/>
                </g>
              </g>
            </g>
            <path id="Trazado_190638" data-name="Trazado 190638" d="M181.217,394.559a5.6,5.6,0,1,1-5.6-5.6,5.6,5.6,0,0,1,5.6,5.6" transform="translate(-104.08 -238.104)" fill="#0df904"/>
            <path id="Trazado_190639" data-name="Trazado 190639" d="M180.455,393.15a6.465,6.465,0,0,1-1.032,3.668,6.618,6.618,0,1,1-9.157-9.157,6.466,6.466,0,0,1,3.668-1.032,6.547,6.547,0,0,0-3.579,1.165,6.46,6.46,0,0,0-2.673,6.6,6.458,6.458,0,0,0,5.008,5.008,6.522,6.522,0,0,0,3.692-.341,6.455,6.455,0,0,0,2.909-2.332,6.555,6.555,0,0,0,1.164-3.579" transform="translate(-102.394 -236.673)" fill="#e8e8e8"/>
            <g id="Grupo_128073" data-name="Grupo 128073" transform="translate(68.839 153.754)" opacity="0.4" style="mix-blend-mode: multiply;isolation: isolate">
              <g id="Grupo_128072" data-name="Grupo 128072">
                <g id="Grupo_128071" data-name="Grupo 128071" clip-path="url(#clip-path-26)">
                  <path id="Trazado_190640" data-name="Trazado 190640" d="M182.89,399.129a2.7,2.7,0,1,1-2.7-2.7,2.7,2.7,0,0,1,2.7,2.7" transform="translate(-177.487 -396.428)" fill="#4271e5"/>
                </g>
              </g>
            </g>
          </g>
        </g>
      </g>
    </g>
    <g id="Grupo_128146" data-name="Grupo 128146" transform="translate(577 5586.668)">
      <g id="Grupo_128145" data-name="Grupo 128145" clip-path="url(#clip-path-30)">
        <path id="Trazado_190804" data-name="Trazado 190804" d="M45.762,0a2.968,2.968,0,0,1,1.9,3.165c-.037,13.089-.021,26.178-.021,39.267,0,1.97.584,2.552,2.557,2.552,3.929,0,7.858.015,11.787-.009a2.645,2.645,0,0,1,2.792,1.559,2.59,2.59,0,0,1-.855,3.005Q49.23,64.21,34.553,78.9c-1.412,1.412-2.71,1.417-4.111.017Q15.73,64.207,1.022,49.495c-1.063-1.064-1.3-2.148-.7-3.222a2.582,2.582,0,0,1,2.487-1.293q6.049.012,12.1,0c1.885,0,2.479-.587,2.479-2.458q0-19.711-.013-39.423a2.853,2.853,0,0,1,2-3.1Z" transform="translate(0)" fill="#592fe6"/>
      </g>
    </g>
    <g id="Grupo_128147" data-name="Grupo 128147" transform="translate(863.978 5666.629) rotate(180)">
      <g id="Grupo_128145-2" data-name="Grupo 128145" clip-path="url(#clip-path-31)">
        <path id="Trazado_190804-2" data-name="Trazado 190804" d="M45.762,0a2.968,2.968,0,0,1,1.9,3.165c-.037,13.089-.021,26.178-.021,39.267,0,1.97.584,2.552,2.557,2.552,3.929,0,7.858.015,11.787-.009a2.645,2.645,0,0,1,2.792,1.559,2.59,2.59,0,0,1-.855,3.005Q49.23,64.21,34.553,78.9c-1.412,1.412-2.71,1.417-4.111.017Q15.73,64.207,1.022,49.495c-1.063-1.064-1.3-2.148-.7-3.222a2.582,2.582,0,0,1,2.487-1.293q6.049.012,12.1,0c1.885,0,2.479-.587,2.479-2.458q0-19.711-.013-39.423a2.853,2.853,0,0,1,2-3.1Z" transform="translate(0)" fill="#ff5151"/>
      </g>
    </g>
  </g>
</svg>
