<svg id="Grupo_128238" data-name="Grupo 128238" xmlns="http://www.w3.org/2000/svg" xmlns:xlink="http://www.w3.org/1999/xlink" width="119.956" height="120" viewBox="0 0 119.956 120">
  <defs>
    <clipPath id="clip-path">
      <rect id="Rectángulo_41224" data-name="Rectángulo 41224" width="119.956" height="120" fill="none"/>
    </clipPath>
  </defs>
  <g id="Grupo_128237" data-name="Grupo 128237" clip-path="url(#clip-path)">
    <path id="Trazado_190880" data-name="Trazado 190880" d="M77.094,26.966c0,3.087.032,6.174-.022,9.26-.014.813.287,1.107,1.014,1.325a32.511,32.511,0,0,1,23.25,34.271,30.8,30.8,0,0,1-2.277,9.294,1.134,1.134,0,0,0,.288,1.479q1.933,1.855,3.78,3.8a4.187,4.187,0,0,1,.913,4.927c-.336.736-.132,1.058.387,1.5,4.068,3.488,8.151,6.96,12.162,10.514a9.409,9.409,0,1,1-12.88,13.677c-3.721-4.02-7.224-8.243-10.794-12.4a1.279,1.279,0,0,0-1.8-.454,4.063,4.063,0,0,1-4.707-.925q-1.938-1.851-3.8-3.776a1.163,1.163,0,0,0-1.471-.334c-11.559,4.34-22.356,2.937-32.32-4.413a2.055,2.055,0,0,0-1.582-.362,81.619,81.619,0,0,1-17.26,0C22.217,93.5,14.7,91.815,7.906,87.75a18.6,18.6,0,0,1-6.013-5.42A10.306,10.306,0,0,1,0,76.4Q.01,47.221,0,18.041a10.379,10.379,0,0,1,3.054-7.1c3.087-3.391,7.034-5.444,11.255-7C23.8.448,33.654-.4,43.666.158A62.729,62.729,0,0,1,64.041,4.431a29.394,29.394,0,0,1,8.627,5.148,11.938,11.938,0,0,1,4.447,9.834c-.113,2.513-.021,5.035-.021,7.553M38.7,4.839c-2.377.081-4.644.059-6.915.255a61.084,61.084,0,0,0-15.2,3.1,25.255,25.255,0,0,0-9.371,5.268c-3.355,3.216-3.162,6.8.412,9.8,3.693,3.1,8.059,4.792,12.63,6.017a72.962,72.962,0,0,0,24.235,2,60.877,60.877,0,0,0,16.155-3.2,24.084,24.084,0,0,0,9.5-5.509c2.858-2.915,2.8-5.942-.043-8.853a20.6,20.6,0,0,0-6.8-4.405C55.415,5.934,47.1,4.846,38.7,4.839m2.254,63.978A27.875,27.875,0,1,0,68.867,40.973,27.92,27.92,0,0,0,40.959,68.818M72.317,27.486a.4.4,0,0,0-.546.053C66.48,31.575,60.352,33.6,53.938,34.887a79.8,79.8,0,0,1-24.966.924A57.922,57.922,0,0,1,11.4,31.2,33.756,33.756,0,0,1,4.823,27.17c0,3.282.108,6.318-.032,9.341a7.439,7.439,0,0,0,2.884,6.265,25.637,25.637,0,0,0,8.012,4.52c7.952,2.961,16.218,3.849,24.642,3.7a1.97,1.97,0,0,0,1.778-.946A32.317,32.317,0,0,1,57.041,38.37a31.292,31.292,0,0,1,14.317-2.1c.386.036.96.286.959-.5,0-2.787,0-5.574,0-8.292M4.823,66.076c0,3.408.082,6.493-.027,9.573a7.085,7.085,0,0,0,2.4,5.621,22.455,22.455,0,0,0,7.318,4.5c9.063,3.646,18.537,4.529,28.2,4.072.256-.012.563.039.8-.26-.287-.381-.577-.765-.865-1.151A31.435,31.435,0,0,1,37.082,76.5c-.206-.907-.529-1.231-1.485-1.266a69.889,69.889,0,0,1-19.032-3.1A36,36,0,0,1,4.823,66.076m0-19.381c0,3.442.04,6.676-.016,9.908a6.36,6.36,0,0,0,1.674,4.433,17.343,17.343,0,0,0,5.437,4.037c7.355,3.712,15.293,4.909,23.4,5.364.637.035.844-.163.838-.809a32.641,32.641,0,0,1,2.386-12.941c.32-.775.062-.848-.628-.86-1.784-.032-3.57-.076-5.348-.218-9.845-.785-19.329-2.726-27.742-8.914m110.259,63.667a3.928,3.928,0,0,0-1.424-3.163c-4.214-3.689-8.452-7.351-12.669-11.037-.49-.428-.839-.459-1.315.042Q98,97.971,96.228,99.646c-.517.489-.59.826-.074,1.389,1.233,1.345,2.392,2.76,3.587,4.141,2.444,2.823,4.864,5.668,7.349,8.455a4.65,4.65,0,0,0,5.248,1.154,4.545,4.545,0,0,0,2.744-4.423M89.514,99.48c.277-.254.52-.463.746-.689,2.323-2.319,4.653-4.631,6.957-6.968.732-.743,2.041-1.4,2.017-2.283-.025-.959-1.392-1.56-2.083-2.4-.541-.654-.89-.585-1.35.115a29.852,29.852,0,0,1-8.616,8.609c-.612.4-.784.721-.15,1.272.671.584,1.266,1.254,1.9,1.878a7.352,7.352,0,0,0,.576.462" transform="translate(0 0)"/>
    <path id="Trazado_190881" data-name="Trazado 190881" d="M48.693,14.859c8.4.007,16.709,1.095,24.6,4.473a20.6,20.6,0,0,1,6.8,4.405c2.846,2.911,2.9,5.939.043,8.853a24.09,24.09,0,0,1-9.5,5.509,60.875,60.875,0,0,1-16.155,3.2,72.962,72.962,0,0,1-24.235-2c-4.571-1.225-8.937-2.916-12.63-6.017-3.575-3-3.768-6.581-.412-9.8a25.245,25.245,0,0,1,9.371-5.268,61.079,61.079,0,0,1,15.2-3.1c2.271-.2,4.538-.173,6.915-.255" transform="translate(-9.988 -10.02)" fill="#592fe6"/>
    <path id="Trazado_190882" data-name="Trazado 190882" d="M125.757,153.646A27.875,27.875,0,1,1,153.583,181.6a27.884,27.884,0,0,1-27.826-27.949m48.795.05a20.952,20.952,0,1,0-20.978,20.936A20.955,20.955,0,0,0,174.552,153.7" transform="translate(-84.799 -84.828)" fill="#fefefe"/>
    <path id="Trazado_190883" data-name="Trazado 190883" d="M82.217,83.739c0,2.718,0,5.5,0,8.292,0,.783-.573.533-.959.5a31.3,31.3,0,0,0-14.317,2.1A32.317,32.317,0,0,0,52.006,106.3a1.97,1.97,0,0,1-1.777.946c-8.425.153-16.691-.735-24.642-3.7a25.635,25.635,0,0,1-8.012-4.52,7.439,7.439,0,0,1-2.884-6.265c.14-3.024.032-6.06.032-9.341A33.74,33.74,0,0,0,21.3,87.449a57.922,57.922,0,0,0,17.571,4.614,79.8,79.8,0,0,0,24.966-.924c6.414-1.286,12.542-3.312,17.833-7.348a.4.4,0,0,1,.546-.053" transform="translate(-9.9 -56.253)" fill="#bfadfc"/>
    <path id="Trazado_190884" data-name="Trazado 190884" d="M14.743,202.877a35.994,35.994,0,0,0,11.742,6.064,69.888,69.888,0,0,0,19.032,3.1c.955.035,1.279.359,1.485,1.266a31.432,31.432,0,0,0,5.566,11.928c.288.386.579.77.865,1.151-.241.3-.549.247-.8.26-9.66.458-19.134-.426-28.2-4.072a22.449,22.449,0,0,1-7.319-4.5,7.085,7.085,0,0,1-2.4-5.621c.108-3.079.027-6.165.027-9.573" transform="translate(-9.92 -136.801)" fill="#bfadfc"/>
    <path id="Trazado_190885" data-name="Trazado 190885" d="M14.774,143.371c8.413,6.188,17.9,8.129,27.742,8.914,1.777.142,3.564.186,5.348.218.689.012.948.085.628.86A32.64,32.64,0,0,0,46.106,166.3c.007.646-.2.844-.838.809-8.107-.455-16.045-1.651-23.4-5.364a17.343,17.343,0,0,1-5.437-4.037,6.36,6.36,0,0,1-1.674-4.433c.056-3.232.016-6.466.016-9.908" transform="translate(-9.951 -96.676)" fill="#bfadfc"/>
    <path id="Trazado_190886" data-name="Trazado 190886" d="M313.426,308.774a4.544,4.544,0,0,1-2.744,4.423,4.649,4.649,0,0,1-5.249-1.154c-2.485-2.787-4.9-5.631-7.349-8.455-1.2-1.381-2.353-2.8-3.587-4.141-.517-.563-.444-.9.074-1.389q1.77-1.672,3.447-3.441c.476-.5.824-.47,1.314-.042,4.217,3.686,8.455,7.347,12.669,11.036a3.929,3.929,0,0,1,1.424,3.163" transform="translate(-198.343 -198.412)" fill="#ff9b6a"/>
    <path id="Trazado_190887" data-name="Trazado 190887" d="M268.881,278.961a7.35,7.35,0,0,1-.576-.462c-.637-.624-1.232-1.294-1.9-1.878-.634-.551-.461-.87.15-1.272a29.851,29.851,0,0,0,8.616-8.609c.46-.7.809-.77,1.35-.115.691.836,2.058,1.437,2.083,2.4.024.887-1.285,1.541-2.017,2.283-2.3,2.337-4.635,4.649-6.957,6.968-.226.226-.47.435-.746.689" transform="translate(-179.367 -179.481)" fill="#592fe6"/>
    <path id="Trazado_190888" data-name="Trazado 190888" d="M188.817,168a20.952,20.952,0,1,1-20.948-20.985A20.921,20.921,0,0,1,188.817,168m-37.1-.006a16.17,16.17,0,1,0,16.216-16.171A16.273,16.273,0,0,0,151.722,168" transform="translate(-99.064 -99.136)"/>
    <path id="Trazado_190889" data-name="Trazado 190889" d="M161.678,177.954a16.17,16.17,0,1,1,16.108,16.179,16.217,16.217,0,0,1-16.108-16.179m27.813-5.335a2.09,2.09,0,0,0-1.194-2.052,2.222,2.222,0,0,0-2.425.072,13.673,13.673,0,0,0-1.414,1.152c-3.657,3.157-7.322,6.3-10.951,9.492-.561.493-.892.512-1.377-.048a21.777,21.777,0,0,0-1.8-1.812,2.356,2.356,0,0,0-3.479-.055,2.312,2.312,0,0,0,.116,3.458c1.243,1.284,2.511,2.543,3.786,3.795a2.415,2.415,0,0,0,3.753.137q7.012-6.04,14-12.105a2.4,2.4,0,0,0,.987-2.035" transform="translate(-109.02 -109.091)" fill="#ff5151"/>
    <path id="Trazado_190890" data-name="Trazado 190890" d="M198.7,190.134a2.4,2.4,0,0,1-.987,2.035q-7,6.052-14,12.105a2.415,2.415,0,0,1-3.753-.137c-1.275-1.252-2.543-2.511-3.786-3.795a2.312,2.312,0,0,1-.116-3.458,2.356,2.356,0,0,1,3.479.055,21.773,21.773,0,0,1,1.8,1.812c.485.56.816.541,1.377.048,3.63-3.188,7.295-6.335,10.951-9.492a13.674,13.674,0,0,1,1.415-1.152,2.222,2.222,0,0,1,2.425-.072,2.09,2.09,0,0,1,1.194,2.052" transform="translate(-118.226 -126.606)"/>
  </g>
</svg>
