<svg id="Grupo_128224" data-name="Grupo 128224" xmlns="http://www.w3.org/2000/svg" xmlns:xlink="http://www.w3.org/1999/xlink" width="126.307" height="120" viewBox="0 0 126.307 120">
  <defs>
    <clipPath id="clip-path">
      <rect id="Rectángulo_41195" data-name="Rectángulo 41195" width="126.307" height="120" fill="none"/>
    </clipPath>
  </defs>
  <g id="Grupo_128223" data-name="Grupo 128223" clip-path="url(#clip-path)">
    <path id="Trazado_190865" data-name="Trazado 190865" d="M0,13.125C2.091,7.948,6.707,5.977,11.443,4.262A74.563,74.563,0,0,1,30.094.512,116.026,116.026,0,0,1,52.255.548c7.455.736,14.8,1.992,21.687,5.155a19.463,19.463,0,0,1,5.152,3.32,8.167,8.167,0,0,1,2.775,6.325c-.037,12.745-.017,25.491-.017,38.236V55c.5-.111.629-.537.878-.812,5.789-6.418,12.936-8.826,21.246-6.459,8.256,2.352,13.061,8.149,14.616,16.572a36.961,36.961,0,0,1,.229,7.386c-.014.779.212.976.963.943,1.4-.062,2.795-.035,4.192-.013a2.055,2.055,0,0,1,2.325,2.365q.01,21.338,0,42.676c0,1.62-.706,2.32-2.339,2.321q-25.591.01-51.182,0c-1.7,0-2.332-.686-2.286-2.593.024-.992-.124-1.241-1.195-.912A89.613,89.613,0,0,1,45.97,119.9a118.01,118.01,0,0,1-27.482-1.925,53.009,53.009,0,0,1-9.442-2.712c-3.93-1.583-7.365-3.734-9.046-7.895Zm40.948,11.8a73.66,73.66,0,0,0,8-.215c6.733-.414,13.411-1.181,19.822-3.449a21.812,21.812,0,0,0,7.563-4c2.025-1.816,2.033-3.475.069-5.325a15.6,15.6,0,0,0-4.916-2.992C61.69,4.955,51.4,4.011,40.949,4.018a83.032,83.032,0,0,0-11.442.494A67.944,67.944,0,0,0,11.76,8.361,17.43,17.43,0,0,0,5.032,12.33c-1.451,1.535-1.452,2.911-.012,4.44A11.479,11.479,0,0,0,6.8,18.276a23.447,23.447,0,0,0,5.62,2.746c9.233,3.3,18.847,3.845,28.526,3.9m0,22.727A80.376,80.376,0,0,0,50.3,47.4a80.428,80.428,0,0,0,18.626-3.229,22.2,22.2,0,0,0,6.621-3.179,5.278,5.278,0,0,0,2.382-4.712c-.105-2.748-.026-5.5-.026-8.255V21.578c-1.281.694-2.4,1.372-3.57,1.923-5.3,2.485-10.987,3.51-16.7,4.427A123.8,123.8,0,0,1,40.948,29.19c-3.531-.1-7.062-.193-10.582-.522A91.273,91.273,0,0,1,11.538,25.1a29.673,29.673,0,0,1-7.59-3.6c0,4.935.111,9.7-.045,14.456a5.725,5.725,0,0,0,2.924,5.415A21.249,21.249,0,0,0,9.3,42.742a48.377,48.377,0,0,0,12.876,3.568,101.734,101.734,0,0,0,18.775,1.342m0,4.061c-4.144-.108-8.29-.173-12.419-.6A75.393,75.393,0,0,1,9.56,47.174a29.179,29.179,0,0,1-5.612-2.9c0,5.156.041,10.125-.022,15.092a4.849,4.849,0,0,0,1.832,3.97,16.169,16.169,0,0,0,4.44,2.6A58.843,58.843,0,0,0,24.97,69.494a106.652,106.652,0,0,0,15.955.949c.817.007,1.634.033,2.451.017a95.015,95.015,0,0,0,24-3.056,24,24,0,0,0,8.351-3.793,5.15,5.15,0,0,0,2.194-4.434c-.075-4.562-.02-9.125-.033-13.688,0-.341.161-.731-.209-1.082a30.829,30.829,0,0,1-4.191,2.264c-5.736,2.4-11.785,3.464-17.911,4.205-4.861.589-9.747.734-14.635.835m0,45.569c-4.6-.113-9.2-.255-13.774-.765A71.021,71.021,0,0,1,9.2,92.558a31.717,31.717,0,0,1-5.254-2.742c0,5.144.04,10.115-.022,15.086a4.833,4.833,0,0,0,1.828,3.972,16.575,16.575,0,0,0,5.238,2.921c9.69,3.484,19.773,4.2,29.956,4.18a89.367,89.367,0,0,0,11.923-.484A75.515,75.515,0,0,0,69.5,112.3a1.22,1.22,0,0,0,.995-1.387q-.056-8.191,0-16.382c.009-1.079-.317-1.08-1.2-.809A75.706,75.706,0,0,1,56.541,96.3c-5.179.659-10.383.843-15.593.983m0-4.044A94.256,94.256,0,0,0,52.023,92.8,78.089,78.089,0,0,0,69.3,89.6a1.428,1.428,0,0,0,1.2-1.624c-.062-4.315-.036-8.632-.022-12.948.006-1.711.7-2.394,2.387-2.414,1.4-.017,2.795,0,4.192-.01.336,0,.821.143.827-.442.017-1.654.006-3.309.006-5.175a24.031,24.031,0,0,1-4.864,2.644c-6.981,2.8-14.328,3.827-21.752,4.409-3.436.269-6.888.34-10.332.5-.367-.03-.733-.08-1.1-.086a118.408,118.408,0,0,1-19.362-1.644c-4.929-.893-9.8-2.011-14.264-4.413-.735-.4-1.447-.835-2.272-1.314,0,5.052.064,9.937-.031,14.819a5.2,5.2,0,0,0,2.226,4.529,18.432,18.432,0,0,0,5.092,2.684c9.619,3.407,19.623,4.07,29.71,4.12m57.395,22.8v-.01c7.6,0,15.2-.015,22.8.019.91,0,1.241-.157,1.238-1.177q-.06-18.553-.006-37.106c0-.936-.195-1.233-1.195-1.231q-22.8.048-45.609,0c-.9,0-1.183.187-1.18,1.14q.051,18.615,0,37.23c0,.906.2,1.168,1.141,1.163,7.6-.042,15.2-.023,22.8-.023m-.031-43.43c5.137,0,10.273-.031,15.409.026,1.011.011,1.244-.3,1.192-1.239-.077-1.393,0-2.794-.028-4.191a16.5,16.5,0,0,0-32.37-4.389c-.849,2.9-.524,5.868-.634,8.813-.031.832.24,1,1.022,1,5.136-.034,10.273-.018,15.41-.018" transform="translate(0 0)" fill="#030302"/>
    <path id="Trazado_190866" data-name="Trazado 190866" d="M249.579,271.63c-7.6,0-15.2-.018-22.8.023-.94,0-1.143-.257-1.141-1.163q.047-18.615,0-37.23c0-.953.284-1.142,1.18-1.14q22.8.046,45.609,0c1,0,1.2.3,1.194,1.231q-.045,18.553.006,37.106c0,1.02-.328,1.181-1.238,1.177-7.6-.034-15.2-.019-22.8-.019Zm-1.907-13.368c0,1.15-.007,2.3,0,3.449.011,1.546.748,2.451,1.973,2.444,1.194-.008,1.955-.956,1.963-2.486.011-2.176.05-4.354-.019-6.528a1.621,1.621,0,0,1,1.133-1.822,7.094,7.094,0,0,0,4.029-7.592,7.221,7.221,0,0,0-13.889-1.359c-1.12,3.017-.23,6.763,2.6,8.226,2.188,1.131,2.4,2.593,2.213,4.561-.034.366,0,.739,0,1.108" transform="translate(-151.238 -155.588)" fill="#ff9b6a"/>
    <path id="Trazado_190867" data-name="Trazado 190867" d="M48.907,229.623c-10.087-.051-20.091-.714-29.71-4.12a18.454,18.454,0,0,1-5.092-2.684,5.2,5.2,0,0,1-2.226-4.53c.094-4.882.031-9.767.031-14.819.825.479,1.537.918,2.272,1.314,4.465,2.4,9.335,3.52,14.264,4.413a118.408,118.408,0,0,0,19.362,1.643c.367.006.734.056,1.1.086q0,9.348,0,18.7" transform="translate(-7.961 -136.383)" fill="#88e0ef"/>
    <path id="Trazado_190868" data-name="Trazado 190868" d="M48.928,298.567c-10.183.024-20.266-.7-29.956-4.18a16.574,16.574,0,0,1-5.238-2.921,4.833,4.833,0,0,1-1.828-3.972c.062-4.97.022-9.942.022-15.086a31.7,31.7,0,0,0,5.254,2.742,71.029,71.029,0,0,0,17.972,3.96c4.577.51,9.175.652,13.774.765v18.692" transform="translate(-7.98 -182.592)" fill="#88e0ef"/>
    <path id="Trazado_190869" data-name="Trazado 190869" d="M124.147,141.994c4.888-.1,9.774-.247,14.635-.835,6.125-.742,12.175-1.8,17.911-4.205a30.865,30.865,0,0,0,4.191-2.264c.369.35.208.741.209,1.082.013,4.563-.043,9.126.033,13.688a5.15,5.15,0,0,1-2.194,4.434,24,24,0,0,1-8.351,3.793,95.025,95.025,0,0,1-24,3.056c-.816.016-1.634-.011-2.451-.017q.011-9.365.021-18.729" transform="translate(-83.2 -90.28)" fill="#88e0ef"/>
    <path id="Trazado_190870" data-name="Trazado 190870" d="M48.927,141.713q-.011,9.365-.021,18.729a106.646,106.646,0,0,1-15.955-.949,58.849,58.849,0,0,1-14.774-3.566,16.179,16.179,0,0,1-4.44-2.6,4.85,4.85,0,0,1-1.831-3.97c.063-4.967.022-9.936.022-15.092a29.181,29.181,0,0,0,5.612,2.9,75.4,75.4,0,0,0,18.968,3.944c4.13.422,8.275.487,12.419.6" transform="translate(-7.98 -89.999)" fill="#88e0ef"/>
    <path id="Trazado_190871" data-name="Trazado 190871" d="M124.193,73.059A123.754,123.754,0,0,0,140.878,71.8c5.712-.917,11.4-1.941,16.7-4.427,1.174-.551,2.289-1.229,3.57-1.923v6.446c0,2.752-.079,5.507.026,8.255a5.279,5.279,0,0,1-2.382,4.712,22.2,22.2,0,0,1-6.621,3.178,80.428,80.428,0,0,1-18.626,3.229,80.378,80.378,0,0,1-9.351.254V73.059" transform="translate(-83.245 -43.868)" fill="#88e0ef"/>
    <path id="Trazado_190872" data-name="Trazado 190872" d="M48.874,72.9V91.362A101.762,101.762,0,0,1,30.1,90.02a48.377,48.377,0,0,1-12.876-3.568,21.22,21.22,0,0,1-2.471-1.372,5.725,5.725,0,0,1-2.924-5.415c.156-4.756.045-9.521.045-14.456a29.683,29.683,0,0,0,7.59,3.6,91.3,91.3,0,0,0,18.828,3.566c3.52.329,7.051.418,10.582.522" transform="translate(-7.926 -43.709)" fill="#88e0ef"/>
    <path id="Trazado_190873" data-name="Trazado 190873" d="M48.961,33.013c-9.679-.058-19.292-.6-28.526-3.9a23.453,23.453,0,0,1-5.62-2.747,11.461,11.461,0,0,1-1.782-1.506c-1.44-1.529-1.439-2.9.012-4.44a17.428,17.428,0,0,1,6.728-3.969A67.952,67.952,0,0,1,37.52,12.6a83.079,83.079,0,0,1,11.442-.494V33.013" transform="translate(-8.013 -8.088)" fill="#3dabbe"/>
    <path id="Trazado_190874" data-name="Trazado 190874" d="M124.192,33.1V12.189c10.447-.008,20.741.936,30.541,4.925a15.592,15.592,0,0,1,4.916,2.992c1.964,1.849,1.956,3.508-.069,5.324a21.815,21.815,0,0,1-7.563,4c-6.411,2.268-13.089,3.035-19.822,3.449a73.658,73.658,0,0,1-8,.215" transform="translate(-83.244 -8.17)" fill="#3dabbe"/>
    <path id="Trazado_190875" data-name="Trazado 190875" d="M124.187,229.425q0-9.348,0-18.7c3.445-.161,6.9-.232,10.332-.5,7.425-.581,14.771-1.612,21.752-4.409a24,24,0,0,0,4.864-2.644c0,1.867.011,3.521-.006,5.175-.006.585-.492.439-.827.442-1.4.014-2.795-.007-4.193.01-1.692.02-2.382.7-2.387,2.414-.015,4.316-.041,8.633.022,12.948a1.427,1.427,0,0,1-1.2,1.624,78.07,78.07,0,0,1-17.278,3.193,94.259,94.259,0,0,1-11.077.444" transform="translate(-83.241 -136.185)" fill="#88e0ef"/>
    <path id="Trazado_190876" data-name="Trazado 190876" d="M124.194,306.206V287.515c5.209-.14,10.414-.324,15.593-.983a75.705,75.705,0,0,0,12.756-2.575c.884-.272,1.209-.27,1.2.809q-.069,8.191,0,16.382a1.22,1.22,0,0,1-1,1.386,75.488,75.488,0,0,1-16.63,3.189,89.372,89.372,0,0,1-11.923.484" transform="translate(-83.246 -190.231)" fill="#88e0ef"/>
    <path id="Trazado_190877" data-name="Trazado 190877" d="M281.75,273.63c0-.369-.029-.741,0-1.108.184-1.967-.025-3.43-2.213-4.561-2.83-1.463-3.72-5.209-2.6-8.226a7.221,7.221,0,0,1,13.889,1.36,7.094,7.094,0,0,1-4.029,7.592,1.621,1.621,0,0,0-1.133,1.822c.07,2.174.031,4.352.019,6.528-.008,1.531-.77,2.479-1.963,2.486-1.226.008-1.962-.9-1.973-2.444-.008-1.149,0-2.3,0-3.449m5.2-11.406a3.25,3.25,0,0,0-3.325-3.238,3.2,3.2,0,0,0-3.168,3.252,3.245,3.245,0,0,0,3.181,3.255,3.286,3.286,0,0,0,3.311-3.269" transform="translate(-185.316 -170.955)" fill="#030302"/>
    <path id="Trazado_190878" data-name="Trazado 190878" d="M295.05,270.232a3.286,3.286,0,0,1-3.311,3.269,3.245,3.245,0,0,1-3.181-3.255,3.2,3.2,0,0,1,3.168-3.252,3.25,3.25,0,0,1,3.325,3.238" transform="translate(-193.416 -178.963)" fill="#60b6fd"/>
  </g>
</svg>
