<svg id="Grupo_128695" data-name="Grupo 128695" xmlns="http://www.w3.org/2000/svg" xmlns:xlink="http://www.w3.org/1999/xlink" width="374.716" height="372.534" viewBox="0 0 374.716 372.534">
  <defs>
    <clipPath id="clip-path">
      <rect id="Rectángulo_41484" data-name="Rectángulo 41484" width="374.716" height="372.534" fill="none"/>
    </clipPath>
    <clipPath id="clip-path-3">
      <rect id="Rectángulo_41462" data-name="Rectángulo 41462" width="98.689" height="279.602" fill="none"/>
    </clipPath>
    <clipPath id="clip-path-4">
      <rect id="Rectángulo_41463" data-name="Rectángulo 41463" width="85.265" height="174.549" fill="none"/>
    </clipPath>
    <clipPath id="clip-path-5">
      <rect id="Rectángulo_41464" data-name="Rectángulo 41464" width="86.155" height="56.331" fill="none"/>
    </clipPath>
    <clipPath id="clip-path-6">
      <rect id="Rectángulo_41465" data-name="Rectángulo 41465" width="87.946" height="61.213" fill="none"/>
    </clipPath>
    <clipPath id="clip-path-7">
      <rect id="Rectángulo_41466" data-name="Rectángulo 41466" width="44.287" height="43.698" fill="none"/>
    </clipPath>
    <clipPath id="clip-path-8">
      <rect id="Rectángulo_41467" data-name="Rectángulo 41467" width="54.044" height="18.72" fill="none"/>
    </clipPath>
    <clipPath id="clip-path-9">
      <path id="Trazado_191249" data-name="Trazado 191249" d="M1286.078,1078.245a7.98,7.98,0,0,0,11.129,3.574l12.783-7.168-30.57-10.61Z" transform="translate(-1279.42 -1064.041)" fill="#ff9b6a"/>
    </clipPath>
    <clipPath id="clip-path-11">
      <path id="Trazado_191252" data-name="Trazado 191252" d="M1440.469,1719.2l1.237,6.894a1.913,1.913,0,0,0,1.286,1.471,6.291,6.291,0,0,0,2.873.238,1.617,1.617,0,0,0,1.381-1.521l.358-7.082Z" transform="translate(-1440.469 -1719.198)" fill="none"/>
    </clipPath>
    <linearGradient id="linear-gradient" x1="-29.905" y1="2.655" x2="-29.885" y2="2.655" gradientUnits="objectBoundingBox">
      <stop offset="0" stop-color="#fff"/>
      <stop offset="1" stop-color="#efeff4"/>
    </linearGradient>
    <clipPath id="clip-path-13">
      <path id="Trazado_191255" data-name="Trazado 191255" d="M1630.461,1699.233l2.571,7.328a1.58,1.58,0,0,0,1.288,1.053,6.711,6.711,0,0,0,3.627-.878,1.89,1.89,0,0,0,.983-2.143l-1.751-6.965Z" transform="translate(-1630.461 -1697.628)" fill="none"/>
    </clipPath>
    <linearGradient id="linear-gradient-2" x1="-29.697" y1="2.302" x2="-29.679" y2="2.302" xlink:href="#linear-gradient"/>
    <clipPath id="clip-path-15">
      <path id="Trazado_191259" data-name="Trazado 191259" d="M1419.963,847.489l-.5,11.778a2.564,2.564,0,0,0,1.423,2.413c5.652,2.77,9.783,1.164,11.506.18a1.233,1.233,0,0,0,.581-1.408c-1.015-3.605-2.168-15.794-2.168-15.794Z" transform="translate(-1419.463 -844.659)" fill="#ff9b6a"/>
    </clipPath>
    <clipPath id="clip-path-16">
      <path id="Trazado_191260" data-name="Trazado 191260" d="M1391.16,778.787c-1.15,4.3-2.677,6.93,2.173,8.856s9.611.3,12.811-3.553c0,0,4.992-5.929,4.755-8.833s-13.25-8.31-13.25-8.31-5.339,7.539-6.489,11.84" transform="translate(-1389.99 -766.947)" fill="#ff9b6a"/>
    </clipPath>
    <clipPath id="clip-path-18">
      <path id="Trazado_191262" data-name="Trazado 191262" d="M1462.508,824.17l.126,2.448c1.951.2,6.485-3.5,4.421-5.477a1.484,1.484,0,0,0-1.044-.463c-1.773,0-3.5,3.492-3.5,3.492" transform="translate(-1462.508 -820.678)" fill="#ff9b6a"/>
    </clipPath>
    <clipPath id="clip-path-20">
      <path id="Trazado_191264" data-name="Trazado 191264" d="M1471.277,1064.284a8.167,8.167,0,0,1-1.122,5.623c-4.638,7.67-21.586-1.575-21.586-1.575l-2.136,4.7s25.945,21.768,35.484,1.14a23.449,23.449,0,0,0,1.858-13.851,29.949,29.949,0,0,0-12.5,3.959" transform="translate(-1446.432 -1060.325)" fill="#ff9b6a"/>
    </clipPath>
    <clipPath id="clip-path-22">
      <path id="Trazado_191268" data-name="Trazado 191268" d="M1414.313,1064.126a55.338,55.338,0,0,0-8.236,2.2,2.163,2.163,0,0,0,3.1,1.867l-1.781,1.378s.255,2.207,2.68,1.028l-1.656,1.827a1.93,1.93,0,0,0,2.826.65c.924-.6,1.6.515,2.739,1.632a5.487,5.487,0,0,0,4.963,1.734s1.45-5.964.865-8.08c-.528-1.912-1.505-4.317-4.476-4.318a6.485,6.485,0,0,0-1.021.086" transform="translate(-1406.077 -1064.04)" fill="#ff9b6a"/>
    </clipPath>
    <clipPath id="clip-path-23">
      <path id="Trazado_191269" data-name="Trazado 191269" d="M1265.076,1020.653c-2.58,1.117-1.655,3.8-.76,5.769s5.24,6.182,5.24,6.182c3.4-1.57.834-6.188,2.565-6s1.284-1.729,1.284-1.729l-2.045-.777c2.119-.076.977-1.973.977-1.973l-1.856-.36c2.212-.5.731-2.831.731-2.831a32.021,32.021,0,0,0-6.137,1.723" transform="translate(-1263.392 -1018.93)" fill="#ff9b6a"/>
    </clipPath>
  </defs>
  <g id="Grupo_128694" data-name="Grupo 128694" clip-path="url(#clip-path)">
    <g id="Grupo_128663" data-name="Grupo 128663">
      <g id="Grupo_128662" data-name="Grupo 128662" clip-path="url(#clip-path)">
        <path id="Trazado_191151" data-name="Trazado 191151" d="M338.106,330.268a132.935,132.935,0,0,1-20.34,17.125C251.415,395,172.9,381.124,156.218,377.735c-24.64-5-72.268-14.678-106.7-55.172-52.1-61.264-43.984-157.783-3.574-221.5,7.391-11.654,46.435-76.339,125.792-86.712C219.76,8.076,275.742,20.738,316.283,54.7c85.1,71.3,79.041,215.327,21.823,275.565" transform="translate(-10.369 -10.197)" fill="#ff5151" opacity="0.501"/>
        <path id="Trazado_191152" data-name="Trazado 191152" d="M15.788,132.065l-8.448.545A7.845,7.845,0,0,0,0,140.569L3.326,341.127a8.232,8.232,0,0,0,8.422,8.093l58.032-1.348Z" transform="translate(0 -105.18)" fill="#d6b933"/>
        <path id="Trazado_191153" data-name="Trazado 191153" d="M140.7,112.458,33.555,107.48A3.8,3.8,0,0,0,29.58,111.4l7,206.658a7.944,7.944,0,0,0,8.274,7.668l75.3-3.168Z" transform="translate(-23.557 -85.597)" fill="#c6c9d3"/>
        <path id="Trazado_191154" data-name="Trazado 191154" d="M161.08,106.878,66.825,95.031a3.994,3.994,0,0,0-4.491,4.059l4.973,208.439a5.522,5.522,0,0,0,5.369,5.388l69.33,1.9Z" transform="translate(-49.643 -75.66)" fill="#e8e8ef"/>
        <path id="Trazado_191155" data-name="Trazado 191155" d="M227.635,77.754,124.31,71.516a8.945,8.945,0,0,0-9.484,8.946l.052,27.757.347,185.1a7.816,7.816,0,0,0,7.831,7.8l95.252-.178a8.458,8.458,0,0,0,8.43-8.019l10.616-204.3a10.356,10.356,0,0,0-9.718-10.875" transform="translate(-91.451 -56.944)" fill="#d6b933"/>
        <path id="Trazado_191156" data-name="Trazado 191156" d="M79.9,234.933l7.534-.014a4.263,4.263,0,0,0,4.255-4.271l-.1-54.995a4.263,4.263,0,0,0-4.271-4.255l-7.534.014a4.263,4.263,0,0,0-4.255,4.271l.1,54.995a4.263,4.263,0,0,0,4.271,4.255" transform="translate(-60.15 -136.506)" fill="#d6b933"/>
        <path id="Trazado_191157" data-name="Trazado 191157" d="M213.229,225l-8.448.545a7.845,7.845,0,0,0-7.339,7.959l3.325,200.558a8.232,8.232,0,0,0,8.422,8.093l58.032-1.348Z" transform="translate(-157.248 -179.195)" fill="#f7e057"/>
        <path id="Trazado_191158" data-name="Trazado 191158" d="M338.144,205.392l-107.15-4.979a3.8,3.8,0,0,0-3.974,3.925l7,206.658a7.944,7.944,0,0,0,8.274,7.668l75.3-3.168Z" transform="translate(-180.804 -159.611)" fill="#d7d9e0"/>
        <path id="Trazado_191159" data-name="Trazado 191159" d="M358.521,199.812l-94.255-11.847a3.994,3.994,0,0,0-4.491,4.059l4.973,208.44a5.522,5.522,0,0,0,5.369,5.388l69.33,1.9Z" transform="translate(-206.891 -149.675)" fill="#fff"/>
        <path id="Trazado_191160" data-name="Trazado 191160" d="M425.076,170.688,321.751,164.45a8.945,8.945,0,0,0-9.484,8.946l.4,212.861a7.816,7.816,0,0,0,7.831,7.8l95.252-.178a8.458,8.458,0,0,0,8.43-8.019l10.616-204.3a10.357,10.357,0,0,0-9.718-10.875" transform="translate(-248.699 -130.96)" fill="#f3d33f"/>
        <path id="Trazado_191161" data-name="Trazado 191161" d="M277.339,327.866l7.534-.014a4.263,4.263,0,0,0,4.255-4.271l-.1-54.995a4.263,4.263,0,0,0-4.271-4.255l-7.534.014a4.263,4.263,0,0,0-4.255,4.271l.1,54.995a4.263,4.263,0,0,0,4.271,4.255" transform="translate(-217.397 -210.521)" fill="#f3d33f"/>
        <path id="Trazado_191162" data-name="Trazado 191162" d="M1037.784,3.281A2.519,2.519,0,0,0,1033.872.51C1014,15.33,965.12,60.918,965.841,150.38c.9,112.243-26.749,150.018-58.257,171.4,0,0,40.74-7.107,70.2-45.278,72.338-93.721,46.619-231.924,60-273.217" transform="translate(-722.827 0)" fill="#ff9b6a"/>
        <g id="Grupo_128646" data-name="Grupo 128646" transform="translate(198.7 35.464)" style="mix-blend-mode: soft-light;isolation: isolate">
          <g id="Grupo_128645" data-name="Grupo 128645">
            <g id="Grupo_128644" data-name="Grupo 128644" clip-path="url(#clip-path-3)">
              <path id="Trazado_191163" data-name="Trazado 191163" d="M1074.74,175.051c-3.647,12.069-7.055,24.2-10.013,36.446q-4.534,18.337-7.936,36.91c-2.215,12.383-4.2,24.805-5.65,37.294-1.508,12.481-2.478,25.013-3.409,37.6-1,12.573-1.936,25.245-4.172,37.86a127.907,127.907,0,0,1-11.914,36.588c-1.483,2.858-3.024,5.7-4.717,8.423-1.643,2.756-3.409,5.439-5.221,8.09a132.629,132.629,0,0,1-41.937,39.2,2.437,2.437,0,0,1-2.573-4.139l.008-.005c2.62-1.678,5.218-3.384,7.731-5.2,1.271-.888,2.5-1.831,3.747-2.75,1.21-.965,2.458-1.884,3.637-2.885a128.521,128.521,0,0,0,13.446-12.75,140.852,140.852,0,0,0,21.1-30.415,122.716,122.716,0,0,0,7.084-17.076,139.169,139.169,0,0,0,4.528-18.006c2.265-12.233,3.295-24.768,4.385-37.334,1.107-12.567,2.306-25.188,4.022-37.739q1.261-9.416,2.86-18.78c.515-3.124,1.09-6.237,1.659-9.35q.9-4.662,1.857-9.311,3.884-18.586,8.906-36.892c3.409-12.179,7.14-24.263,11.33-36.183a.654.654,0,0,1,1.243.406" transform="translate(-976.077 -174.208)" fill="#fff"/>
            </g>
          </g>
        </g>
        <path id="Trazado_191164" data-name="Trazado 191164" d="M1191.749,427.126a5.817,5.817,0,0,0,8.536,4.517c20.111-10.729,74.228-46.2,89.271-123.441,12.7-65.222,25.789-99.381,32.8-114.477a3.648,3.648,0,0,0-5.06-4.735c-34.083,18.614-140.555,89.2-125.551,238.135" transform="translate(-947.998 -150.149)" fill="#ff9b6a"/>
        <g id="Grupo_128649" data-name="Grupo 128649" transform="translate(248.749 104.356)" style="mix-blend-mode: soft-light;isolation: isolate">
          <g id="Grupo_128648" data-name="Grupo 128648">
            <g id="Grupo_128647" data-name="Grupo 128647" clip-path="url(#clip-path-4)">
              <path id="Trazado_191165" data-name="Trazado 191165" d="M1222.345,686.648a1.615,1.615,0,0,0,2.488-.121c.6-.81,60.555-82.018,82.314-171.908a1.613,1.613,0,0,0-3.136-.759c-21.6,89.235-81.167,169.935-81.765,170.74a1.613,1.613,0,0,0,.1,2.047" transform="translate(-1221.927 -512.628)" fill="#fff"/>
            </g>
          </g>
        </g>
        <g id="Grupo_128652" data-name="Grupo 128652" transform="translate(27.213 241.743)" opacity="0.3">
          <g id="Grupo_128651" data-name="Grupo 128651">
            <g id="Grupo_128650" data-name="Grupo 128650" clip-path="url(#clip-path-5)">
              <path id="Trazado_191166" data-name="Trazado 191166" d="M248.8,1243.846a1.322,1.322,0,0,1-1.267-1.376c.058-1.418.056-2.86-.008-4.286a1.322,1.322,0,0,1,1.237-1.378h.026a1.323,1.323,0,0,1,1.38,1.263c.067,1.5.069,3.018.008,4.511a1.322,1.322,0,0,1-1.236,1.265,1.233,1.233,0,0,1-.139,0m-2.059-12.578c-.257-1.4-.576-2.808-.949-4.177a1.323,1.323,0,1,1,2.552-.7c.393,1.441.729,2.92,1,4.4a1.323,1.323,0,0,1-2.6.477m-3.241-10.746c-.561-1.307-1.186-2.6-1.857-3.859a1.323,1.323,0,1,1,2.332-1.249c.707,1.321,1.365,2.688,1.956,4.064a1.323,1.323,0,1,1-2.431,1.044m-5.563-9.751c-.84-1.15-1.74-2.276-2.674-3.349a1.323,1.323,0,0,1,1.995-1.738c.984,1.129,1.931,2.315,2.815,3.525a1.323,1.323,0,1,1-2.136,1.561m-7.6-8.269c-1.072-.932-2.2-1.832-3.35-2.673a1.323,1.323,0,1,1,1.561-2.135c1.211.885,2.4,1.832,3.524,2.813a1.323,1.323,0,0,1-1.736,2m-9.237-6.382c-1.253-.673-2.551-1.3-3.857-1.865a1.323,1.323,0,0,1,1.049-2.429c1.375.594,2.741,1.255,4.06,1.963a1.323,1.323,0,0,1-1.252,2.331m-49.115-.616a1.323,1.323,0,0,1,.545-1.79c1.321-.7,2.69-1.36,4.07-1.949a1.323,1.323,0,0,1,1.039,2.433c-1.31.559-2.61,1.183-3.864,1.851a1.322,1.322,0,0,1-1.789-.545m38.7-3.557c-1.371-.377-2.774-.7-4.173-.958a1.323,1.323,0,0,1,.481-2.6c1.472.272,2.951.612,4.394,1.009a1.323,1.323,0,1,1-.7,2.55m-28.092-.961a1.323,1.323,0,0,1,.932-1.622c1.444-.39,2.925-.723,4.4-.991a1.323,1.323,0,1,1,.472,2.6c-1.4.254-2.809.571-4.182.942a1.342,1.342,0,0,1-.263.043,1.323,1.323,0,0,1-1.359-.975m17.007-.779c-1.42-.061-2.861-.062-4.284,0a1.323,1.323,0,0,1-.14-2.641h.028c1.5-.064,3.015-.063,4.51,0a1.323,1.323,0,0,1,.029,2.641c-.047,0-.094,0-.142,0" transform="translate(-164.065 -1187.516)" fill="#d7d9e0"/>
              <path id="Trazado_191167" data-name="Trazado 191167" d="M135.086,1239.859a1.317,1.317,0,0,0,.737-.284c.534-.424,1.086-.844,1.64-1.249a1.323,1.323,0,1,0-1.559-2.136c-.583.425-1.163.867-1.726,1.313a1.323,1.323,0,0,0,.908,2.356" transform="translate(-133.678 -1226.079)" fill="#d7d9e0"/>
            </g>
          </g>
        </g>
        <g id="Grupo_128655" data-name="Grupo 128655" transform="translate(7.74 286.197)" opacity="0.3">
          <g id="Grupo_128654" data-name="Grupo 128654">
            <g id="Grupo_128653" data-name="Grupo 128653" clip-path="url(#clip-path-6)">
              <path id="Trazado_191168" data-name="Trazado 191168" d="M40.359,1410.632a1.323,1.323,0,0,0,1.231-1.194c.065-.679.145-1.368.239-2.047a1.323,1.323,0,1,0-2.621-.361c-.1.716-.183,1.441-.251,2.156a1.323,1.323,0,0,0,1.4,1.446" transform="translate(-38.762 -1405.887)" fill="#d7d9e0"/>
              <path id="Trazado_191169" data-name="Trazado 191169" d="M91.506,1502.813a1.323,1.323,0,1,1-.038-2.645c1.391-.02,2.8-.1,4.211-.237a1.323,1.323,0,0,1,.256,2.633q-.916.089-1.827.147c-.866.055-1.742.089-2.6.1m9.948-2.414a1.323,1.323,0,0,1,.982-1.592c1.365-.324,2.73-.708,4.059-1.144a1.323,1.323,0,1,1,.824,2.514c-1.4.459-2.837.864-4.273,1.2a1.321,1.321,0,0,1-1.592-.982m-17.145,2.024c-1.461-.18-2.934-.425-4.378-.729a1.323,1.323,0,0,1,.544-2.589c1.372.289,2.77.521,4.157.692a1.323,1.323,0,0,1-.323,2.626m27.923-5.564a1.323,1.323,0,0,1,.608-1.769c1.258-.614,2.506-1.29,3.707-2.007a1.323,1.323,0,0,1,1.357,2.271c-1.265.756-2.578,1.467-3.9,2.114a1.321,1.321,0,0,1-1.769-.609M73,1499.73c-1.384-.5-2.767-1.059-4.109-1.673a1.323,1.323,0,1,1,1.1-2.406c1.275.583,2.588,1.118,3.9,1.589a1.323,1.323,0,1,1-.893,2.49m-10.443-5.107c-1.245-.789-2.472-1.64-3.645-2.529a1.323,1.323,0,1,1,1.6-2.109c1.115.845,2.281,1.653,3.464,2.4a1.323,1.323,0,1,1-1.416,2.234m-9.082-7.262c-1.044-1.042-2.056-2.14-3.008-3.263a1.323,1.323,0,1,1,2.018-1.71c.9,1.067,1.865,2.11,2.858,3.1a1.323,1.323,0,0,1-1.869,1.873m-7.282-9.07c-.791-1.245-1.538-2.539-2.22-3.844a1.323,1.323,0,1,1,2.345-1.225c.648,1.24,1.357,2.468,2.109,3.651a1.323,1.323,0,1,1-2.233,1.418m-5.113-10.454c-.5-1.386-.939-2.811-1.318-4.236a1.323,1.323,0,1,1,2.557-.679c.359,1.354.78,2.708,1.252,4.024a1.323,1.323,0,1,1-2.491.891m-2.69-11.31c-.135-1.076-.238-2.17-.306-3.25q-.037-.587-.061-1.171a1.308,1.308,0,0,1,1.267-1.376A1.323,1.323,0,0,1,40.666,1452q.023.556.058,1.114c.065,1.027.163,2.066.291,3.089a1.323,1.323,0,0,1-1.148,1.476l-.082.008a1.323,1.323,0,0,1-1.395-1.156" transform="translate(-38.021 -1441.601)" fill="#d7d9e0"/>
              <path id="Trazado_191170" data-name="Trazado 191170" d="M450.486,1635.388a1.319,1.319,0,0,0,.743-.288c.559-.448,1.118-.916,1.664-1.392a1.323,1.323,0,1,0-1.739-1.993c-.518.452-1.05.9-1.58,1.322a1.323,1.323,0,0,0,.912,2.352" transform="translate(-365.4 -1585.483)" fill="#d7d9e0"/>
            </g>
          </g>
        </g>
        <path id="Trazado_191171" data-name="Trazado 191171" d="M176.045,1308.6a.618.618,0,0,0,0-.718l-4.358-6.134a32.781,32.781,0,0,0,2.407-10.342l6.612-3.581a.618.618,0,0,0,.316-.645l-1.477-8.9a.618.618,0,0,0-.506-.508l-7.414-1.255a32.781,32.781,0,0,0-5.617-9.012l2.144-7.212a.618.618,0,0,0-.233-.679l-7.34-5.252a.618.618,0,0,0-.718,0l-6.134,4.358a32.771,32.771,0,0,0-10.343-2.408l-3.581-6.612a.617.617,0,0,0-.645-.315l-8.9,1.476a.619.619,0,0,0-.508.507l-1.255,7.414a32.774,32.774,0,0,0-9.012,5.617l-7.212-2.144a.618.618,0,0,0-.679.233l-5.252,7.34a.618.618,0,0,0,0,.718l4.358,6.134a32.769,32.769,0,0,0-2.407,10.342l-6.612,3.581a.618.618,0,0,0-.316.645l1.477,8.9a.618.618,0,0,0,.507.508l7.414,1.255a32.776,32.776,0,0,0,5.617,9.012l-2.144,7.212a.618.618,0,0,0,.233.679l7.34,5.252a.618.618,0,0,0,.718,0l6.134-4.358A32.777,32.777,0,0,0,139,1322.117l3.581,6.612a.618.618,0,0,0,.645.315l8.9-1.476a.618.618,0,0,0,.509-.507l1.255-7.414a32.78,32.78,0,0,0,9.012-5.617l7.212,2.144a.619.619,0,0,0,.679-.233Z" transform="translate(-80.72 -995.038)" fill="#88e0ef"/>
        <path id="Trazado_191172" data-name="Trazado 191172" d="M260.812,1418.623a9.065,9.065,0,1,1,1.332.014,9.082,9.082,0,0,1-1.332-.014m-3.742-14.35a6.955,6.955,0,1,0,5.07-1.623,7.056,7.056,0,0,0-1.032-.01,6.9,6.9,0,0,0-4.038,1.633" transform="translate(-201.091 -1115.407)" fill="#e8e8ef"/>
        <path id="Trazado_191173" data-name="Trazado 191173" d="M210.419,1379.456a22.708,22.708,0,0,0,2.278-.26q.358-.059.715-.13a22.449,22.449,0,0,0,3.437-.974l.046-.017.129-.049.25-.1a.529.529,0,1,0-.389-.984,21.274,21.274,0,0,1-23.663-5.585,21.119,21.119,0,0,1-5.136-10.694,21.543,21.543,0,0,1-.249-2.173,21.25,21.25,0,0,1,42.173-4.78,21.254,21.254,0,0,1-1.186,11.257.529.529,0,1,0,.984.388,22.309,22.309,0,1,0-43.028-6.8,22.84,22.84,0,0,0,.261,2.28,22.311,22.311,0,0,0,23.378,18.618" transform="translate(-148.721 -1063.138)" fill="#e8e8ef"/>
        <g id="Grupo_128658" data-name="Grupo 128658" transform="translate(116.662 286.303)" opacity="0.3">
          <g id="Grupo_128657" data-name="Grupo 128657">
            <g id="Grupo_128656" data-name="Grupo 128656" clip-path="url(#clip-path-7)">
              <path id="Trazado_191174" data-name="Trazado 191174" d="M779.343,1606.83a.817.817,0,0,0,.745-.635c.153-.677.287-1.367.4-2.052a.817.817,0,0,0-1.612-.264c-.107.653-.235,1.311-.38,1.957a.816.816,0,0,0,.849.995" transform="translate(-736.661 -1563.134)" fill="#d7d9e0"/>
              <path id="Trazado_191175" data-name="Trazado 191175" d="M616.491,1443.877a.817.817,0,0,1-.785-.848,33.88,33.88,0,0,0-.043-3.427q-.023-.359-.054-.721a.817.817,0,0,1,.745-.883.846.846,0,0,1,.883.746q.032.378.056.754a35.517,35.517,0,0,1,.045,3.594.817.817,0,0,1-.764.784c-.027,0-.056,0-.084,0m-1.482-9.1a33.9,33.9,0,0,0-1.1-4,.817.817,0,1,1,1.546-.528,35.4,35.4,0,0,1,1.15,4.193.818.818,0,0,1-.633.968.831.831,0,0,1-.116.015.817.817,0,0,1-.85-.648m-2.681-7.835a33.567,33.567,0,0,0-2.047-3.609.817.817,0,0,1,1.369-.893,35.209,35.209,0,0,1,2.147,3.785.817.817,0,0,1-1.469.717M607.8,1420a33.717,33.717,0,0,0-2.867-3,.817.817,0,0,1,1.109-1.2,35.428,35.428,0,0,1,3.007,3.144A.817.817,0,1,1,607.8,1420m-6.081-5.622a34.046,34.046,0,0,0-3.509-2.212.817.817,0,0,1,.785-1.433,35.81,35.81,0,0,1,3.678,2.317.817.817,0,0,1-.954,1.327m-7.261-3.976a33.507,33.507,0,0,0-3.939-1.287.817.817,0,0,1,.41-1.582,35.109,35.109,0,0,1,4.131,1.35.817.817,0,1,1-.6,1.519m-8.01-2.078a33.611,33.611,0,0,0-4.138-.281.817.817,0,0,1,.011-1.635,35.426,35.426,0,0,1,4.339.3.817.817,0,0,1-.053,1.625.8.8,0,0,1-.158-.005m-13.351.083a.816.816,0,0,1,.6-.987,35.535,35.535,0,0,1,3.713-.7c.19-.026.379-.05.569-.072a.817.817,0,0,1,.188,1.624c-.178.02-.356.043-.537.068a33.93,33.93,0,0,0-3.546.665.816.816,0,0,1-.987-.6" transform="translate(-573.078 -1406.411)" fill="#d7d9e0"/>
            </g>
          </g>
        </g>
        <g id="Grupo_128661" data-name="Grupo 128661" transform="translate(95.073 338.159)" opacity="0.3">
          <g id="Grupo_128660" data-name="Grupo 128660">
            <g id="Grupo_128659" data-name="Grupo 128659" clip-path="url(#clip-path-8)">
              <path id="Trazado_191176" data-name="Trazado 191176" d="M499.36,1679.818a35.592,35.592,0,0,1-4.276-.043.817.817,0,1,1,.116-1.63,33.8,33.8,0,0,0,4.079.041.817.817,0,0,1,.093,1.631h-.011m3.309-1.139a.817.817,0,0,1,.666-.943,34.171,34.171,0,0,0,3.974-.932.817.817,0,0,1,.468,1.566,35.7,35.7,0,0,1-4.165.977.771.771,0,0,1-.088.01.817.817,0,0,1-.856-.677m-11.828.533a35.454,35.454,0,0,1-4.14-1.075.817.817,0,0,1,.506-1.554,33.888,33.888,0,0,0,3.949,1.027.817.817,0,1,1-.315,1.6m19.879-2.739a.817.817,0,0,1,.42-1.076,33.52,33.52,0,0,0,3.631-1.864.817.817,0,0,1,.833,1.405,35.087,35.087,0,0,1-3.808,1.955.817.817,0,0,1-1.076-.42m-28,.094a35.552,35.552,0,0,1-3.76-2.04.817.817,0,0,1,.865-1.387,33.568,33.568,0,0,0,3.586,1.945.817.817,0,0,1-.691,1.481m-7.247-4.516a35.77,35.77,0,0,1-3.164-2.88.817.817,0,1,1,1.171-1.139,34.11,34.11,0,0,0,3.018,2.747.817.817,0,0,1-1.026,1.272m-5.957-6.122a35.328,35.328,0,0,1-2.381-3.557.817.817,0,0,1,1.411-.825,33.4,33.4,0,0,0,2.271,3.391.817.817,0,0,1-.155,1.145.807.807,0,0,1-.442.166.817.817,0,0,1-.7-.32" transform="translate(-467.027 -1661.143)" fill="#d7d9e0"/>
              <path id="Trazado_191177" data-name="Trazado 191177" d="M717.6,1706.373a.815.815,0,0,0,.447-.169c.553-.427,1.1-.874,1.614-1.325a.817.817,0,1,0-1.074-1.232c-.494.431-1.012.856-1.54,1.265a.817.817,0,0,0,.552,1.461" transform="translate(-665.902 -1694.834)" fill="#d7d9e0"/>
            </g>
          </g>
        </g>
        <path id="Trazado_191178" data-name="Trazado 191178" d="M536.115,1487.111a.414.414,0,0,0,0-.48l-2.916-4.1a21.929,21.929,0,0,0,1.611-6.92l4.424-2.4a.414.414,0,0,0,.211-.431l-.988-5.958a.413.413,0,0,0-.339-.34l-4.961-.84a21.932,21.932,0,0,0-3.759-6.03l1.435-4.826a.413.413,0,0,0-.156-.454l-4.912-3.514a.413.413,0,0,0-.48,0l-4.1,2.916a21.932,21.932,0,0,0-6.921-1.611l-2.4-4.424a.414.414,0,0,0-.431-.211l-5.958.988a.414.414,0,0,0-.34.339l-.84,4.961a21.924,21.924,0,0,0-6.03,3.759l-4.826-1.435a.413.413,0,0,0-.454.156l-3.514,4.912a.413.413,0,0,0,0,.48l2.916,4.1a21.932,21.932,0,0,0-1.611,6.921l-4.424,2.4a.413.413,0,0,0-.211.431l.988,5.958a.414.414,0,0,0,.339.34l4.961.84a21.935,21.935,0,0,0,3.759,6.031l-1.435,4.826a.413.413,0,0,0,.156.454l4.911,3.514a.414.414,0,0,0,.48,0l4.1-2.916a21.924,21.924,0,0,0,6.921,1.611l2.4,4.425a.414.414,0,0,0,.431.211l5.958-.988a.414.414,0,0,0,.34-.339l.84-4.961a21.924,21.924,0,0,0,6.03-3.759l4.826,1.435a.414.414,0,0,0,.454-.156Z" transform="translate(-387.171 -1152.814)" fill="#88e0ef"/>
        <path id="Trazado_191179" data-name="Trazado 191179" d="M592.4,1560.418a6.159,6.159,0,1,1,.916.009,6.291,6.291,0,0,1-.916-.009m-4.019-6.535a4.546,4.546,0,1,0,4.907-4.153,4.547,4.547,0,0,0-4.907,4.153" transform="translate(-467.292 -1232.937)" fill="#e8e8ef"/>
        <path id="Trazado_191180" data-name="Trazado 191180" d="M557.35,1533.16a15.54,15.54,0,0,0,4.581-1l.131-.052a.817.817,0,1,0-.6-1.519,13.8,13.8,0,0,1-2.823.781h0l-.159.025a13.625,13.625,0,0,1-6.707-.63,13.835,13.835,0,0,1-3.287-1.706l-.025-.018-.076-.054a13.667,13.667,0,0,1-5.566-8.937,14.005,14.005,0,0,1-.161-1.406,13.757,13.757,0,0,1,27.3-3.094,13.746,13.746,0,0,1-.767,7.287.817.817,0,1,0,1.52.6,15.391,15.391,0,1,0-29.685-4.691,15.621,15.621,0,0,0,.18,1.573,15.412,15.412,0,0,0,16.146,12.843" transform="translate(-430.864 -1196.56)" fill="#e8e8ef"/>
        <path id="Trazado_191181" data-name="Trazado 191181" d="M847.287,1374.394,840,1424.7h84.581l-11.017-50.31Z" transform="translate(-668.998 -1094.608)" fill="#333435"/>
        <path id="Trazado_191182" data-name="Trazado 191182" d="M177.864,517.747V667.491A22.716,22.716,0,0,0,199.995,690.2c54.694,1.41,245.987,4.83,298.052,4.063A16.715,16.715,0,0,0,514.5,678.025c1-34.788,2.635-118.44-3.4-157.277a17.2,17.2,0,0,0-16.447-14.559c-45.827-1.466-248.61-6.121-300.651-4.952a16.512,16.512,0,0,0-16.142,16.511" transform="translate(-141.656 -399.051)" fill="#48494b"/>
        <path id="Trazado_191183" data-name="Trazado 191183" d="M224.02,539.778V682.046a13.162,13.162,0,0,0,12.965,13.16l290.332,3.587a12.809,12.809,0,0,0,13-12.76l.486-141a9.368,9.368,0,0,0-9.14-9.4l-297.246-6.005a10.15,10.15,0,0,0-10.4,10.147" transform="translate(-178.416 -421.811)" fill="#88e0ef"/>
        <path id="Trazado_191184" data-name="Trazado 191184" d="M540.928,1364.88h-.007l-318.482-5.427a.4.4,0,0,1-.4-.409.409.409,0,0,1,.409-.4l318.483,5.427a.4.4,0,0,1-.007.805" transform="translate(-176.841 -1082.068)" fill="#74767b"/>
        <path id="Trazado_191185" data-name="Trazado 191185" d="M1007.156,1392.738a3.716,3.716,0,1,1,3.716-3.716,3.721,3.721,0,0,1-3.716,3.716m0-6.628a2.911,2.911,0,1,0,2.911,2.911,2.915,2.915,0,0,0-2.911-2.911" transform="translate(-799.169 -1103.298)" fill="#74767b"/>
        <path id="Trazado_191186" data-name="Trazado 191186" d="M839.781,1615.542H715.991c-3.363,0-5.888-2.394-5.238-4.965l1.589-6.282c.478-1.889,2.556-3.276,5.025-3.353l119.338-3.724c2.579-.08,4.863,1.289,5.425,3.252l2.863,10.006c.744,2.6-1.793,5.067-5.211,5.067" transform="translate(-565.983 -1272.068)" fill="#48494b"/>
        <path id="Trazado_191187" data-name="Trazado 191187" d="M1062.658,1620.437a.4.4,0,0,1-.006-.805l5.114-.075a.412.412,0,0,1,.409.4.4.4,0,0,1-.4.408l-5.114.075Z" transform="translate(-846.012 -1289.863)" fill="#74767b"/>
        <path id="Trazado_191188" data-name="Trazado 191188" d="M732.091,1630.608a.408.408,0,0,1-.064-.005.4.4,0,0,1-.334-.461l.73-4.569a5.1,5.1,0,0,1,4.966-4.3l54.24-.793h.006a.4.4,0,0,1,.006.805l-54.24.793a4.292,4.292,0,0,0-4.183,3.621l-.73,4.569a.4.4,0,0,1-.4.339" transform="translate(-582.738 -1290.599)" fill="#74767b"/>
        <path id="Trazado_191189" data-name="Trazado 191189" d="M540.528,557.553V545.734a9.5,9.5,0,0,0-9.226-9.452L233.956,530.25a10.214,10.214,0,0,0-10.5,10.121v14.576Z" transform="translate(-177.969 -422.304)" fill="#592fe6"/>
        <path id="Trazado_191190" data-name="Trazado 191190" d="M1554.458,605.7a4.05,4.05,0,1,1-4.05-4.05,4.05,4.05,0,0,1,4.05,4.05" transform="translate(-1231.566 -479.173)" fill="#ff9b6a"/>
        <path id="Trazado_191191" data-name="Trazado 191191" d="M1629.254,605.549a4.05,4.05,0,1,1-4.05-4.05,4.05,4.05,0,0,1,4.05,4.05" transform="translate(-1291.135 -479.052)" fill="#ff9b6a"/>
        <path id="Trazado_191192" data-name="Trazado 191192" d="M1704.052,605.549a4.05,4.05,0,1,1-4.05-4.05,4.05,4.05,0,0,1,4.05,4.05" transform="translate(-1350.707 -479.052)" fill="#ff9b6a"/>
        <path id="Trazado_191193" data-name="Trazado 191193" d="M310.618,813.4H252.846a7.389,7.389,0,0,1-7.389-7.389V691.968a7.389,7.389,0,0,1,7.389-7.389h57.771a7.389,7.389,0,0,1,7.389,7.389V806.013a7.389,7.389,0,0,1-7.389,7.389" transform="translate(-195.489 -545.219)" fill="#baf1fa"/>
        <path id="Trazado_191194" data-name="Trazado 191194" d="M326.225,719.685h-55.99a1.68,1.68,0,0,1-1.679-1.679v-2.049a1.679,1.679,0,0,1,1.679-1.679h55.99a1.679,1.679,0,0,1,1.679,1.679v2.049a1.68,1.68,0,0,1-1.679,1.679" transform="translate(-213.886 -568.872)" fill="#ff5151"/>
        <path id="Trazado_191195" data-name="Trazado 191195" d="M394.428,775.953H355.871a1.679,1.679,0,0,1-1.68-1.68v-2.049a1.679,1.679,0,0,1,1.68-1.679h38.557a1.679,1.679,0,0,1,1.679,1.679v2.049a1.679,1.679,0,0,1-1.679,1.68" transform="translate(-282.089 -613.686)" fill="#ff5151"/>
        <path id="Trazado_191196" data-name="Trazado 191196" d="M316.488,772.045a3.012,3.012,0,1,1-3.012-3.012,3.012,3.012,0,0,1,3.012,3.012" transform="translate(-247.263 -612.481)" fill="#ff5151"/>
        <path id="Trazado_191197" data-name="Trazado 191197" d="M396.231,831.9H357.674a1.68,1.68,0,0,1-1.679-1.68v-2.049a1.679,1.679,0,0,1,1.679-1.679h38.557a1.679,1.679,0,0,1,1.679,1.679v2.049a1.68,1.68,0,0,1-1.679,1.68" transform="translate(-283.525 -658.246)" fill="#ff5151"/>
        <path id="Trazado_191198" data-name="Trazado 191198" d="M318.291,827.994a3.012,3.012,0,1,1-3.012-3.012,3.012,3.012,0,0,1,3.012,3.012" transform="translate(-248.699 -657.04)" fill="#ff5151"/>
        <path id="Trazado_191199" data-name="Trazado 191199" d="M396.628,884.3H358.071a1.68,1.68,0,0,1-1.679-1.679v-2.049a1.679,1.679,0,0,1,1.679-1.679h38.557a1.679,1.679,0,0,1,1.679,1.679v2.049a1.68,1.68,0,0,1-1.679,1.679" transform="translate(-283.841 -699.976)" fill="#ff5151"/>
        <path id="Trazado_191200" data-name="Trazado 191200" d="M318.688,880.391a3.012,3.012,0,1,1-3.012-3.012,3.012,3.012,0,0,1,3.012,3.012" transform="translate(-249.015 -698.771)" fill="#ff5151"/>
        <path id="Trazado_191201" data-name="Trazado 191201" d="M398.431,940.248H359.874a1.679,1.679,0,0,1-1.679-1.68V936.52a1.679,1.679,0,0,1,1.679-1.679h38.557a1.679,1.679,0,0,1,1.679,1.679v2.049a1.679,1.679,0,0,1-1.679,1.68" transform="translate(-285.277 -744.535)" fill="#ff5151"/>
        <path id="Trazado_191202" data-name="Trazado 191202" d="M320.491,936.34a3.012,3.012,0,1,1-3.012-3.012,3.012,3.012,0,0,1,3.012,3.012" transform="translate(-250.451 -743.33)" fill="#ff5151"/>
        <path id="Trazado_191203" data-name="Trazado 191203" d="M326.424,1015.061h-55.99a1.68,1.68,0,0,1-1.679-1.679v-2.049a1.679,1.679,0,0,1,1.679-1.679h55.99a1.679,1.679,0,0,1,1.679,1.679v2.049a1.68,1.68,0,0,1-1.679,1.679" transform="translate(-214.044 -804.118)" fill="#ff5151"/>
        <path id="Trazado_191204" data-name="Trazado 191204" d="M394.628,1071.329H356.07a1.679,1.679,0,0,1-1.679-1.679V1067.6a1.679,1.679,0,0,1,1.679-1.679h38.557a1.679,1.679,0,0,1,1.679,1.679v2.049a1.679,1.679,0,0,1-1.679,1.679" transform="translate(-282.248 -848.932)" fill="#ff5151"/>
        <path id="Trazado_191205" data-name="Trazado 191205" d="M316.686,1067.42a3.012,3.012,0,1,1-3.012-3.012,3.012,3.012,0,0,1,3.012,3.012" transform="translate(-247.42 -847.726)" fill="#ff5151"/>
        <path id="Trazado_191206" data-name="Trazado 191206" d="M396.43,1127.278H357.873a1.679,1.679,0,0,1-1.68-1.679v-2.049a1.679,1.679,0,0,1,1.68-1.679H396.43a1.679,1.679,0,0,1,1.679,1.679v2.049a1.679,1.679,0,0,1-1.679,1.679" transform="translate(-283.683 -893.491)" fill="#ff5151"/>
        <path id="Trazado_191207" data-name="Trazado 191207" d="M318.489,1123.37a3.012,3.012,0,1,1-3.012-3.012,3.012,3.012,0,0,1,3.012,3.012" transform="translate(-248.856 -892.286)" fill="#ff5151"/>
        <path id="Trazado_191208" data-name="Trazado 191208" d="M396.827,1179.675H358.27a1.679,1.679,0,0,1-1.679-1.679v-2.049a1.679,1.679,0,0,1,1.679-1.679h38.557a1.679,1.679,0,0,1,1.679,1.679V1178a1.679,1.679,0,0,1-1.679,1.679" transform="translate(-284 -935.222)" fill="#ff5151"/>
        <path id="Trazado_191209" data-name="Trazado 191209" d="M318.886,1175.766a3.012,3.012,0,1,1-3.012-3.012,3.012,3.012,0,0,1,3.012,3.012" transform="translate(-249.173 -934.016)" fill="#ff5151"/>
        <path id="Trazado_191210" data-name="Trazado 191210" d="M398.63,1235.625H360.072a1.68,1.68,0,0,1-1.679-1.68V1231.9a1.679,1.679,0,0,1,1.679-1.679H398.63a1.679,1.679,0,0,1,1.679,1.679v2.049a1.68,1.68,0,0,1-1.679,1.68" transform="translate(-285.435 -979.781)" fill="#ff5151"/>
        <path id="Trazado_191211" data-name="Trazado 191211" d="M320.689,1231.715a3.012,3.012,0,1,1-3.012-3.012,3.012,3.012,0,0,1,3.012,3.012" transform="translate(-250.609 -978.576)" fill="#ff5151"/>
        <path id="Trazado_191212" data-name="Trazado 191212" d="M1359.541,757.186V704.812a3.783,3.783,0,0,1,4.045-3.507l68.306.743a3.771,3.771,0,0,1,3.946,3.491l.286,52.928a3.785,3.785,0,0,1-4.082,3.523l-68.592-1.3a3.763,3.763,0,0,1-3.91-3.507" transform="translate(-1082.779 -558.54)" fill="#d9faff"/>
        <path id="Trazado_191213" data-name="Trazado 191213" d="M1359.541,1086.162v-52.374a3.783,3.783,0,0,1,4.045-3.507l68.306.743a3.771,3.771,0,0,1,3.946,3.491l.286,52.928a3.785,3.785,0,0,1-4.082,3.523l-68.592-1.3a3.763,3.763,0,0,1-3.91-3.507" transform="translate(-1082.779 -820.546)" fill="#d9faff"/>
        <path id="Trazado_191214" data-name="Trazado 191214" d="M625.276,815.678V702.667a7.569,7.569,0,0,1,7.662-7.568l129.387,1.6a7.568,7.568,0,0,1,7.474,7.532l.543,114.208a7.569,7.569,0,0,1-7.732,7.6l-129.929-2.8a7.568,7.568,0,0,1-7.405-7.567" transform="translate(-497.988 -553.597)" fill="#baf1fa"/>
        <path id="Trazado_191215" data-name="Trazado 191215" d="M698.416,722.848v33.425a4.639,4.639,0,0,1-4.639,4.639h-29a4.639,4.639,0,0,1-4.639-4.639V713.65a4.639,4.639,0,0,1,4.639-4.639h20.093l.283.289,13.063,13.339Z" transform="translate(-525.753 -564.677)" fill="#fff"/>
        <path id="Trazado_191216" data-name="Trazado 191216" d="M796.079,723.772H786.17a3.154,3.154,0,0,1-3.154-3.154V710.433Z" transform="translate(-623.617 -565.81)" fill="#e8e8ef"/>
        <path id="Trazado_191217" data-name="Trazado 191217" d="M698.645,827.457a12.674,12.674,0,0,1-.179-25.346.912.912,0,0,1,.925.912v11.014h11.015a.916.916,0,0,1,.913.875.925.925,0,0,1-.241.662.912.912,0,0,1-.673.3h0l-10,0,6.222,7.579a.913.913,0,0,1-.14,1.3,12.532,12.532,0,0,1-7.842,2.717m-1.079-23.469a10.849,10.849,0,0,0,1.079,21.644,10.719,10.719,0,0,0,5.956-1.778l-6.833-8.322a.912.912,0,0,1-.2-.673Z" transform="translate(-546.329 -638.825)" fill="#88e0ef"/>
        <path id="Trazado_191218" data-name="Trazado 191218" d="M777.639,795.629H765.712a.913.913,0,0,1-.912-.913V782.79a.912.912,0,0,1,.876-.912c.067,0,.135,0,.2,0a12.69,12.69,0,0,1,12.676,12.676c0,.069,0,.138,0,.206a.913.913,0,0,1-.912.873M766.625,793.8H776.7a10.867,10.867,0,0,0-10.079-10.078Z" transform="translate(-609.109 -622.708)" fill="#592fe6"/>
        <path id="Trazado_191219" data-name="Trazado 191219" d="M750.533,871.064a1.1,1.1,0,0,1-.85-.4l-7.448-9.071a1.1,1.1,0,0,1,.849-1.8h0l11.932.005a1.1,1.1,0,0,1,1.1,1.115,12.809,12.809,0,0,1-4.9,9.914,1.094,1.094,0,0,1-.68.236m-5.123-9.07,5.254,6.4a10.6,10.6,0,0,0,3.179-6.4Z" transform="translate(-590.939 -684.766)" fill="#88e0ef"/>
        <path id="Trazado_191220" data-name="Trazado 191220" d="M924.035,722.844v33.448a4.642,4.642,0,0,1-4.642,4.642H890.371a4.642,4.642,0,0,1-4.642-4.642V713.64A4.642,4.642,0,0,1,890.371,709h20.107l.283.29,13.072,13.348Z" transform="translate(-705.421 -564.667)" fill="#fff"/>
        <path id="Trazado_191221" data-name="Trazado 191221" d="M1021.767,723.769h-9.916a3.156,3.156,0,0,1-3.156-3.156V710.421Z" transform="translate(-803.355 -565.8)" fill="#e8e8ef"/>
        <path id="Trazado_191222" data-name="Trazado 191222" d="M944.642,838.1H924.991a.672.672,0,0,1-.672-.672V816.348a.672.672,0,0,1,.672-.672h19.652a.672.672,0,0,1,.672.672v21.083a.672.672,0,0,1-.672.672m-18.98-1.344h18.308V817.02H925.663Z" transform="translate(-736.155 -649.629)" fill="#a8abb2"/>
        <path id="Trazado_191223" data-name="Trazado 191223" d="M949.536,838.1a.672.672,0,0,1-.672-.672V816.348a.672.672,0,1,1,1.344,0v21.081a.672.672,0,0,1-.672.672" transform="translate(-755.704 -649.629)" fill="#a8abb2"/>
        <path id="Trazado_191224" data-name="Trazado 191224" d="M944.652,842.16H925a.672.672,0,1,1,0-1.344h19.653a.672.672,0,0,1,0,1.344" transform="translate(-736.162 -669.651)" fill="#a8abb2"/>
        <path id="Trazado_191225" data-name="Trazado 191225" d="M944.652,868.694H925a.672.672,0,1,1,0-1.344h19.653a.672.672,0,0,1,0,1.344" transform="translate(-736.162 -690.783)" fill="#a8abb2"/>
        <path id="Trazado_191226" data-name="Trazado 191226" d="M944.652,894.546H925a.672.672,0,1,1,0-1.344h19.653a.672.672,0,0,1,0,1.344" transform="translate(-736.162 -711.373)" fill="#a8abb2"/>
        <path id="Trazado_191227" data-name="Trazado 191227" d="M993.926,838.1a.672.672,0,0,1-.672-.672V816.348a.672.672,0,1,1,1.344,0v21.081a.672.672,0,0,1-.672.672" transform="translate(-791.057 -649.629)" fill="#a8abb2"/>
        <path id="Trazado_191228" data-name="Trazado 191228" d="M1147.191,725.159v33.048a4.587,4.587,0,0,1-4.587,4.587h-28.673a4.587,4.587,0,0,1-4.587-4.587V716.066a4.587,4.587,0,0,1,4.587-4.587H1133.8l.279.286,12.915,13.188Z" transform="translate(-883.515 -566.643)" fill="#fff"/>
        <path id="Trazado_191229" data-name="Trazado 191229" d="M1243.752,726.073h-9.8a3.118,3.118,0,0,1-3.118-3.118v-10.07Z" transform="translate(-980.275 -567.763)" fill="#e8e8ef"/>
        <path id="Trazado_191230" data-name="Trazado 191230" d="M1170.506,842.287h-21.2a.582.582,0,0,1-.582-.582V824.039a.582.582,0,0,1,.582-.582h21.2a.582.582,0,0,1,.582.582v17.667a.582.582,0,0,1-.582.582m-20.619-1.163h20.037v-16.5h-20.037Z" transform="translate(-914.878 -655.826)" fill="#592fe6"/>
        <path id="Trazado_191231" data-name="Trazado 191231" d="M1149.313,863.756a.582.582,0,0,1-.421-.983l5.8-6.091a.582.582,0,0,1,.41-.18.62.62,0,0,1,.417.165l3.192,3.108,5.179-5a.583.583,0,0,1,.82.012l6.216,6.356a.582.582,0,1,1-.832.813l-5.812-5.943L1159.117,861a.583.583,0,0,1-.81,0l-3.175-3.092-5.4,5.666a.58.58,0,0,1-.421.18" transform="translate(-914.884 -680.636)" fill="#88e0ef"/>
        <path id="Trazado_191232" data-name="Trazado 191232" d="M922.2,1069.041v33.448a4.643,4.643,0,0,1-4.642,4.642H888.533a4.642,4.642,0,0,1-4.642-4.642v-42.652a4.642,4.642,0,0,1,4.642-4.642H908.64l.283.29,13.072,13.348Z" transform="translate(-703.956 -840.389)" fill="#fff"/>
        <path id="Trazado_191233" data-name="Trazado 191233" d="M1019.928,1069.966h-9.916a3.156,3.156,0,0,1-3.156-3.156v-10.192Z" transform="translate(-801.89 -841.522)" fill="#e8e8ef"/>
        <path id="Trazado_191234" data-name="Trazado 191234" d="M941.474,1177.884a2.44,2.44,0,0,1-2.44,2.44h-17.96a2.44,2.44,0,0,1-2.44-2.44V1164.4a2.44,2.44,0,0,1,2.44-2.44h17.96a2.44,2.44,0,0,1,2.44,2.44Zm-1.791-13.3a.832.832,0,0,0-.832-.832H920.81a.832.832,0,0,0-.832.832V1177.7a.832.832,0,0,0,.832.832H938.85a.832.832,0,0,0,.832-.832Z" transform="translate(-731.627 -925.421)" fill="#ff9b6a"/>
        <path id="Trazado_191235" data-name="Trazado 191235" d="M931.119,1173.522a.8.8,0,0,1-.465-.148l-10.06-7.134a.8.8,0,0,1,.93-1.312l9.595,6.8,9.469-6.726a.8.8,0,0,1,.931,1.311l-9.935,7.057a.805.805,0,0,1-.466.149" transform="translate(-732.919 -927.665)" fill="#ff9b6a"/>
        <path id="Trazado_191236" data-name="Trazado 191236" d="M921.7,1198.964l-.237-1.59.111.8-.674-.438c.186-.3,3.814-6.645,6.208-10.838a.8.8,0,0,1,1.4.8s-1.552,2.719-3.107,5.438c-.778,1.36-1.556,2.72-2.142,3.74-1.167,2.033-1.167,2.033-1.556,2.095" transform="translate(-733.429 -944.955)" fill="#ff9b6a"/>
        <path id="Trazado_191237" data-name="Trazado 191237" d="M995.092,1198.964c-.388-.062-.388-.062-1.556-2.095-.586-1.02-1.364-2.38-2.142-3.74-1.555-2.719-3.107-5.438-3.107-5.438a.8.8,0,1,1,1.4-.8c2.393,4.193,6.022,10.539,6.208,10.838l-.674.438Z" transform="translate(-787.018 -944.955)" fill="#ff9b6a"/>
        <path id="Trazado_191238" data-name="Trazado 191238" d="M1145.352,1071.357v33.048a4.587,4.587,0,0,1-4.587,4.587h-28.673a4.587,4.587,0,0,1-4.587-4.587v-42.141a4.587,4.587,0,0,1,4.587-4.587h19.866l.279.286,12.915,13.188Z" transform="translate(-882.05 -842.365)" fill="#fff"/>
        <path id="Trazado_191239" data-name="Trazado 191239" d="M1241.913,1072.27h-9.8a3.118,3.118,0,0,1-3.118-3.118v-10.069Z" transform="translate(-978.811 -843.484)" fill="#e8e8ef"/>
        <path id="Trazado_191240" data-name="Trazado 191240" d="M1156.07,1175.533a10.841,10.841,0,1,1,10.841-10.841,10.853,10.853,0,0,1-10.841,10.841m0-19.864a9.024,9.024,0,1,0,9.024,9.024,9.034,9.034,0,0,0-9.024-9.024" transform="translate(-912.094 -918.962)" fill="#a8abb2"/>
        <path id="Trazado_191241" data-name="Trazado 191241" d="M1181.8,1192.911v-7.793a1.074,1.074,0,0,1,1.623-.924l6.567,3.9a1.074,1.074,0,0,1,0,1.848l-6.567,3.9a1.074,1.074,0,0,1-1.623-.924" transform="translate(-941.22 -943.006)" fill="#592fe6" fill-rule="evenodd"/>
        <path id="Trazado_191242" data-name="Trazado 191242" d="M696.691,1076.329v33.363a4.631,4.631,0,0,1-4.631,4.631H663.113a4.63,4.63,0,0,1-4.63-4.631v-42.543a4.631,4.631,0,0,1,4.63-4.631h20.056l.282.289,13.039,13.314Z" transform="translate(-524.435 -846.221)" fill="#fff"/>
        <path id="Trazado_191243" data-name="Trazado 191243" d="M794.174,1077.252h-9.891a3.148,3.148,0,0,1-3.148-3.148v-10.166Z" transform="translate(-622.119 -847.352)" fill="#e8e8ef"/>
        <path id="Trazado_191244" data-name="Trazado 191244" d="M772.568,1180.478h-6.62a.784.784,0,0,1,0-1.567h6.62a.784.784,0,0,1,0,1.567" transform="translate(-609.399 -938.919)" fill="#a8abb2"/>
        <path id="Trazado_191245" data-name="Trazado 191245" d="M772.571,1205.556h-6.62a.784.784,0,1,1,0-1.567h6.62a.784.784,0,1,1,0,1.567" transform="translate(-609.402 -958.892)" fill="#a8abb2"/>
        <path id="Trazado_191246" data-name="Trazado 191246" d="M719.466,1232.021h-19.6a.784.784,0,0,1,0-1.568h19.6a.784.784,0,0,1,0,1.568" transform="translate(-556.768 -979.969)" fill="#a8abb2"/>
        <path id="Trazado_191247" data-name="Trazado 191247" d="M719.466,1257.805h-19.6a.784.784,0,0,1,0-1.567h19.6a.784.784,0,1,1,0,1.567" transform="translate(-556.768 -1000.505)" fill="#a8abb2"/>
        <path id="Trazado_191248" data-name="Trazado 191248" d="M709.209,1185.933h-9.746a.784.784,0,0,1-.784-.784v-5.542a.784.784,0,0,1,.784-.784h9.746a.784.784,0,0,1,.784.784v5.542a.784.784,0,0,1-.784.784m-8.962-1.567h8.178v-3.974h-8.178Z" transform="translate(-556.449 -938.851)" fill="#ff5151"/>
      </g>
    </g>
    <g id="Grupo_128665" data-name="Grupo 128665" transform="translate(260.452 216.607)">
      <g id="Grupo_128664" data-name="Grupo 128664" clip-path="url(#clip-path-9)">
        <rect id="Rectángulo_41469" data-name="Rectángulo 41469" width="34.31" height="36.495" transform="translate(-9.59 12.934) rotate(-53.443)" fill="#ff9b6a"/>
      </g>
    </g>
    <g id="Grupo_128667" data-name="Grupo 128667">
      <g id="Grupo_128666" data-name="Grupo 128666" clip-path="url(#clip-path)">
        <path id="Trazado_191250" data-name="Trazado 191250" d="M1363.3,1792.9c4.339.375,11.869.985,17.806,1.245,3.569.157,5.623-.192,6.806-.666,0,.134-.006.26-.011.377a1.228,1.228,0,0,1-1.167,1.159,208.656,208.656,0,0,1-23.315.024.875.875,0,0,1-.713-1.314,7.173,7.173,0,0,1,.593-.825" transform="translate(-1085.203 -1427.922)" fill="#333435"/>
        <path id="Trazado_191251" data-name="Trazado 191251" d="M1383.9,1759.873c-5.937-.261-13.467-.87-17.806-1.245,4.266-5.234,17.806-8.761,17.806-8.761h3.824a16.039,16.039,0,0,1,2.982,9.341c-1.183.474-3.238.823-6.806.666" transform="translate(-1088.001 -1393.645)" fill="#48494b"/>
      </g>
    </g>
    <g id="Grupo_128669" data-name="Grupo 128669" transform="translate(293.237 349.978)">
      <g id="Grupo_128668" data-name="Grupo 128668" clip-path="url(#clip-path-11)">
        <rect id="Rectángulo_41471" data-name="Rectángulo 41471" width="9.762" height="8.447" transform="translate(-1.388 8.499) rotate(-80.727)" fill="url(#linear-gradient)"/>
      </g>
    </g>
    <g id="Grupo_128671" data-name="Grupo 128671">
      <g id="Grupo_128670" data-name="Grupo 128670" clip-path="url(#clip-path)">
        <path id="Trazado_191253" data-name="Trazado 191253" d="M1667.933,1812.4a3.575,3.575,0,0,0,3.09-2.66l.007.033a2.936,2.936,0,0,1-1.648,3.246,9.4,9.4,0,0,1-4.563.832,4.312,4.312,0,0,1-3.421-1.837l-.011-.016c1.418.817,3.407.913,6.545.4" transform="translate(-1323.179 -1441.331)" fill="#333435"/>
        <path id="Trazado_191254" data-name="Trazado 191254" d="M1641.022,1729.913h3.154c4.8-.114,7.82,11.682,8.807,16.25a3.575,3.575,0,0,1-3.09,2.66c-3.138.51-5.128.413-6.545-.4-2.595-3.976-3.882-9.8-4.5-13.2a4.775,4.775,0,0,1,2.174-5.309" transform="translate(-1305.139 -1377.753)" fill="#48494b"/>
      </g>
    </g>
    <g id="Grupo_128673" data-name="Grupo 128673" transform="translate(331.913 345.587)">
      <g id="Grupo_128672" data-name="Grupo 128672" clip-path="url(#clip-path-13)">
        <rect id="Rectángulo_41473" data-name="Rectángulo 41473" width="11.135" height="12.134" transform="translate(-2.678 0.765) rotate(-15.945)" fill="url(#linear-gradient-2)"/>
      </g>
    </g>
    <g id="Grupo_128675" data-name="Grupo 128675">
      <g id="Grupo_128674" data-name="Grupo 128674" clip-path="url(#clip-path)">
        <path id="Trazado_191256" data-name="Trazado 191256" d="M1360.85,1239.272s15.649,97.823,15.392,98.36a13.018,13.018,0,0,0,9.034.25s-1.415-52.293-4.731-72.344c0,0,26.708,46.74,35.19,70.029a21.2,21.2,0,0,0,8.085-2.938s-28.757-84.129-36.43-95.335Z" transform="translate(-1083.821 -985.419)" fill="#12263f"/>
        <path id="Trazado_191257" data-name="Trazado 191257" d="M1411.849,1329.121a.756.756,0,0,0,.64-1.157l-5.848-9.342a.756.756,0,0,0-.492-.34l-4.3-.866a.756.756,0,0,0-.3,1.483l3.985.8,5.675,9.065a.755.755,0,0,0,.642.355" transform="translate(-1115.75 -1049.216)" fill="#727997"/>
        <path id="Trazado_191258" data-name="Trazado 191258" d="M1340.947,919.09c2.632-5.521,25.358-6.1,42.007-.6,3.5,1.158,6,6.207,6.063,9.867.029,1.827-2.077,6.416-2.077,6.416s-4.786,5.168-9.2,5.573c-4.218,11.389-8.073,26.978-8.487,34.333a15.809,15.809,0,0,0,1.239,7.074l.1.244a.837.837,0,0,1-.588,1.143c-11.4,2.56-23.247,1.864-26.788,1.572a1.461,1.461,0,0,1-1.3-1.115c-5.541-23.349-4.937-56.192-.974-64.5" transform="translate(-1065.518 -728.45)" fill="#592fe6"/>
      </g>
    </g>
    <g id="Grupo_128677" data-name="Grupo 128677" transform="translate(288.96 171.947)">
      <g id="Grupo_128676" data-name="Grupo 128676" clip-path="url(#clip-path-15)">
        <rect id="Rectángulo_41475" data-name="Rectángulo 41475" width="15.412" height="20.932" transform="matrix(0.996, -0.089, 0.089, 0.996, -1.794, 0.157)" fill="#ff9b6a"/>
      </g>
    </g>
    <g id="Grupo_128679" data-name="Grupo 128679" transform="translate(282.961 156.128)">
      <g id="Grupo_128678" data-name="Grupo 128678" clip-path="url(#clip-path-16)">
        <rect id="Rectángulo_41476" data-name="Rectángulo 41476" width="31.409" height="31.418" transform="matrix(0.558, -0.83, 0.83, 0.558, -11.978, 15.588)" fill="#ff9b6a"/>
      </g>
    </g>
    <g id="Grupo_128681" data-name="Grupo 128681">
      <g id="Grupo_128680" data-name="Grupo 128680" clip-path="url(#clip-path)">
        <path id="Trazado_191261" data-name="Trazado 191261" d="M1419.255,744.023l-.26-.186a.706.706,0,0,1-.14-1.019c1-1.223,3.034-4.076,1.4-5.182-2.106-1.425-10.841-5.188-12.134-8.835a6.152,6.152,0,0,1,4.028-7.789.354.354,0,0,1,.423.242l.127.441a.349.349,0,0,0,.644.067.348.348,0,0,1,.634.04c.4,1.095,1.709,3.005,5.909,4.722,5.969,2.44,9.549,5.809,8.757,10.12a.35.35,0,0,0,.47.392c.516-.184,1.277-.162,2.086.867,1.406,1.789-.067,5.362-4.443,7.642a.347.347,0,0,0-.1.551c.586.582,1.377,1.842-1.532,2.7a9,9,0,0,1-5.757.051.348.348,0,0,1-.191-.469l1.617-3.6a.349.349,0,0,0-.247-.485Z" transform="translate(-1121.21 -574.228)" fill="#333435"/>
      </g>
    </g>
    <g id="Grupo_128683" data-name="Grupo 128683" transform="translate(297.723 167.066)">
      <g id="Grupo_128682" data-name="Grupo 128682" clip-path="url(#clip-path-18)">
        <rect id="Rectángulo_41478" data-name="Rectángulo 41478" width="8.784" height="8.913" transform="translate(-2.843 4.231) rotate(-56.108)" fill="#ff9b6a"/>
      </g>
    </g>
    <g id="Grupo_128685" data-name="Grupo 128685">
      <g id="Grupo_128684" data-name="Grupo 128684" clip-path="url(#clip-path)">
        <path id="Trazado_191263" data-name="Trazado 191263" d="M1532.841,958.665l2.136-20.1c.439-1.319,4.248-2.055,5.219-1.147,4.048,3.786,10.586,13.489,12.4,24.7a29.941,29.941,0,0,0-12.5,3.959,16.911,16.911,0,0,0-7.255-7.412" transform="translate(-1220.8 -746.267)" fill="#592fe6"/>
      </g>
    </g>
    <g id="Grupo_128687" data-name="Grupo 128687" transform="translate(294.451 215.851)">
      <g id="Grupo_128686" data-name="Grupo 128686" clip-path="url(#clip-path-20)">
        <rect id="Rectángulo_41480" data-name="Rectángulo 41480" width="41.837" height="38.705" transform="translate(-4.017 0.475) rotate(-6.738)" fill="#ff9b6a"/>
      </g>
    </g>
    <g id="Grupo_128689" data-name="Grupo 128689">
      <g id="Grupo_128688" data-name="Grupo 128688" clip-path="url(#clip-path)">
        <path id="Trazado_191265" data-name="Trazado 191265" d="M1295.176,1014.016l-10.412-36.363a1.06,1.06,0,0,0-.9-.764c-1.886-.22-7.353-.838-13.665-1.372-7.6-.643-16.431-1.164-21.707-.721a1.064,1.064,0,0,0-.87,1.531c3,6.07,15.341,30.76,21.521,38.848a1.067,1.067,0,0,0,.859.421l24.159-.225a1.064,1.064,0,0,0,1.013-1.357" transform="translate(-993.557 -776.226)" fill="#333435"/>
        <path id="Trazado_191266" data-name="Trazado 191266" d="M1321.653,958.547l-7.549-1.258a.542.542,0,0,0-.6.7l.747,2.265a.541.541,0,0,0,.443.367l7.264.97a.542.542,0,0,0,.6-.66l-.463-1.977a.542.542,0,0,0-.438-.411" transform="translate(-1046.089 -762.407)" fill="#74767b"/>
        <path id="Trazado_191267" data-name="Trazado 191267" d="M1313.532,973.788l-.622-3.239a.749.749,0,0,0-.66-.6L1297,968.4a.749.749,0,0,0-.8.92l.97,4.037a.749.749,0,0,0,.69.573l14.9.75a.749.749,0,0,0,.773-.889" transform="translate(-1032.314 -771.257)" fill="#74767b"/>
      </g>
    </g>
    <g id="Grupo_128691" data-name="Grupo 128691" transform="translate(286.235 216.607)">
      <g id="Grupo_128690" data-name="Grupo 128690" clip-path="url(#clip-path-22)">
        <rect id="Rectángulo_41482" data-name="Rectángulo 41482" width="15.715" height="14.336" transform="translate(-1.485 0.175) rotate(-6.738)" fill="#ff9b6a"/>
      </g>
    </g>
    <g id="Grupo_128693" data-name="Grupo 128693" transform="translate(257.189 207.424)">
      <g id="Grupo_128692" data-name="Grupo 128692" clip-path="url(#clip-path-23)">
        <rect id="Rectángulo_41483" data-name="Rectángulo 41483" width="17.748" height="17.267" transform="matrix(0.596, -0.803, 0.803, 0.596, -7.438, 8.823)" fill="#ff9b6a"/>
      </g>
    </g>
  </g>
</svg>
