<svg xmlns="http://www.w3.org/2000/svg" xmlns:xlink="http://www.w3.org/1999/xlink" width="1030" height="600.457" viewBox="0 0 1030 600.457">
  <defs>
    <clipPath id="clip-path">
      <rect id="Rectángulo_38219" data-name="Rectángulo 38219" width="37.432" height="4.025" fill="none"/>
    </clipPath>
    <clipPath id="clip-path-2">
      <rect id="Rectángulo_38220" data-name="Rectángulo 38220" width="22.379" height="3.392" fill="none"/>
    </clipPath>
    <clipPath id="clip-path-3">
      <rect id="Rectángulo_38221" data-name="Rectángulo 38221" width="37.427" height="4.111" fill="none"/>
    </clipPath>
    <clipPath id="clip-path-4">
      <rect id="Rectángulo_38222" data-name="Rectángulo 38222" width="22.383" height="3.507" fill="none"/>
    </clipPath>
  </defs>
  <g id="Grupo_128210" data-name="Grupo 128210" transform="translate(-285 -4469.301)">
    <g id="Grupo_128199" data-name="Grupo 128199" transform="translate(0 -152.699)">
      <path id="Trazado_190825" data-name="Trazado 190825" d="M0,0H1030V600H200C89.543,600,0,510.457,0,400Z" transform="translate(285 4622)" fill="#ff9b6a" opacity="0.199"/>
      <g id="Grupo_128198" data-name="Grupo 128198" transform="translate(285 5081.457)">
        <g id="Elipse_4053" data-name="Elipse 4053" transform="translate(0 42)" fill="none" stroke="#ff5151" stroke-width="3">
          <circle cx="49.5" cy="49.5" r="49.5" stroke="none"/>
          <circle cx="49.5" cy="49.5" r="48" fill="none"/>
        </g>
        <g id="Elipse_4056" data-name="Elipse 4056" transform="translate(21)" fill="none" stroke="#ff5151" stroke-width="3">
          <circle cx="14.5" cy="14.5" r="14.5" stroke="none"/>
          <circle cx="14.5" cy="14.5" r="13" fill="none"/>
        </g>
        <g id="Elipse_4057" data-name="Elipse 4057" transform="translate(129 103)" fill="none" stroke="#ff5151" stroke-width="3">
          <circle cx="7" cy="7" r="7" stroke="none"/>
          <circle cx="7" cy="7" r="5.5" fill="none"/>
        </g>
      </g>
    </g>
    <g id="Grupo_128193" data-name="Grupo 128193" transform="translate(14217.926 21930.301)">
      <path id="Trazado_183163" data-name="Trazado 183163" d="M152.327,74.647a3.593,3.593,0,0,1-.056,3.41L124.419,127.8a17.607,17.607,0,0,1-23.6,5.961l-15.575-8.829,10.79-18.713L107.6,113.2l27.98-36.98a34.519,34.519,0,0,0,.414-6.2,9.356,9.356,0,0,0-.576-3.125,14.316,14.316,0,0,0-1.727-3.564,1.229,1.229,0,0,1,1.065-2.065c1.074.27,3.283,2.807,4.295,6.6s3.545-1.843,4.506-3.881,4.228-8.206,5.089-8.407c1.262-.294,1.81,1,.8,3.017-1.019,2.038-3.6,8.263-2.5,8.718,0,0,1.951.448,2.437,1.661Z" transform="translate(-13795.188 -17370.52)" fill="#ffbe9d"/>
      <path id="Trazado_183164" data-name="Trazado 183164" d="M134.269,65.177a8.5,8.5,0,0,1-.568,2.35q-.385,1.2-.8,2.481l-.492,1.457a2.115,2.115,0,0,1-.444.841,1.022,1.022,0,0,1-1.159.153,3.78,3.78,0,0,1-.777-.511,1.565,1.565,0,0,1-.574-.837,3.1,3.1,0,0,1,.351-1.669l.956-2.422a8.366,8.366,0,0,1,1.047-2.171,8.382,8.382,0,0,1-.587,2.337q-.393,1.2-.816,2.473a2.889,2.889,0,0,0-.291,1.294c.043.286.583.668.969.872.21.087.307.073.4-.012a1.7,1.7,0,0,0,.293-.592c.18-.491.355-.97.53-1.443.322-.838.633-1.645.934-2.427a8.3,8.3,0,0,1,1.026-2.173" transform="translate(-13780.57 -17367.439)" fill="#eb996e"/>
      <path id="Trazado_183165" data-name="Trazado 183165" d="M134.9,68.7a6.867,6.867,0,0,1-.484,2.133c-.233.74-.468,1.489-.709,2.258l-.216.651a1.51,1.51,0,0,1-.5.747,1.045,1.045,0,0,1-1.035.045,3.639,3.639,0,0,1-.708-.456,1.752,1.752,0,0,1-.587-.721,1.514,1.514,0,0,1-.023-.932c.154-.527.331-.914.487-1.343.3-.747.587-1.475.873-2.192a6.922,6.922,0,0,1,.972-1.96,6.986,6.986,0,0,1-.51,2.127c-.241.735-.484,1.48-.735,2.242-.132.411-.319.885-.427,1.288a.787.787,0,0,0,.378.946c.381.315.805.532.932.4.19-.108.347-.676.5-1.063.287-.747.567-1.476.844-2.195A6.985,6.985,0,0,1,134.9,68.7" transform="translate(-13780.19 -17366.752)" fill="#eb996e"/>
      <path id="Trazado_183166" data-name="Trazado 183166" d="M136.294,70.448a6.914,6.914,0,0,1-.484,2.133c-.233.74-.468,1.489-.709,2.258l-.217.651a1.5,1.5,0,0,1-.5.747,1.042,1.042,0,0,1-1.035.044,3.537,3.537,0,0,1-.708-.455,1.752,1.752,0,0,1-.587-.721,1.514,1.514,0,0,1-.023-.932c.154-.527.331-.914.487-1.343.3-.747.587-1.475.873-2.192a6.987,6.987,0,0,1,.97-1.96,6.9,6.9,0,0,1-.51,2.127c-.24.735-.483,1.479-.733,2.242-.132.411-.319.885-.427,1.288a.787.787,0,0,0,.378.946c.381.315.805.532.932.4.19-.108.347-.676.5-1.063.287-.747.567-1.475.844-2.195a7.01,7.01,0,0,1,.948-1.971" transform="translate(-13779.73 -17366.174)" fill="#eb996e"/>
      <path id="Trazado_183167" data-name="Trazado 183167" d="M129.527,75.578c-.2-.041.222-1.912-.492-4.06-.668-2.161-2.1-3.436-1.962-3.588.053-.067.5.158,1.054.724a6.959,6.959,0,0,1,1.837,5.723c-.126.784-.354,1.226-.437,1.2" transform="translate(-13781.354 -17366.424)" fill="#eb996e"/>
      <path id="Trazado_183168" data-name="Trazado 183168" d="M74.284,22.234a11.764,11.764,0,0,0-13.1-2.374c-1.975.933-3.7,2.435-5.812,2.988-2.53.663-5.178-.137-7.775-.459s-5.66.06-7.084,2.254c-.918,1.413-.969,3.339-2.163,4.528-1.646,1.641-4.414.987-6.645,1.641a6.2,6.2,0,0,0-4.2,4.927,7.369,7.369,0,0,0,2.124,6.23c.922.926,2.1,1.666,2.655,2.849.724,1.548.174,3.35-.105,5.036s-.06,3.785,1.473,4.539a2.311,2.311,0,0,0,3.222-2.773L69.116,41.29c4.863,0,6.4-4.376,7.167-5.893a11.763,11.763,0,0,0-2-13.163" transform="translate(-13814.319 -17382.668)" fill="#263238"/>
      <path id="Trazado_183169" data-name="Trazado 183169" d="M33.765,30.4l.069,3.487.7,52.189c.081,6.058,5.355,10.813,11.842,10.677,6.552-.138,11.872-5.209,11.891-11.331.02-6.425.158-13.19.158-13.19s8.278-1.373,9.992-12.173c.853-5.371.583-14.177.13-21.376A11.4,11.4,0,0,0,55.969,28.056Z" transform="translate(-13812.221 -17379.635)" fill="#ffbe9d"/>
      <path id="Trazado_183170" data-name="Trazado 183170" d="M58.925,40.947a1.385,1.385,0,0,1-1.336,1.4A1.324,1.324,0,0,1,56.162,41.1,1.385,1.385,0,0,1,57.5,39.7a1.326,1.326,0,0,1,1.429,1.25" transform="translate(-13804.812 -17375.762)" fill="#263238"/>
      <path id="Trazado_183171" data-name="Trazado 183171" d="M59.826,39.832c-.172.181-1.22-.6-2.712-.592-1.488-.017-2.582.749-2.744.567-.079-.081.1-.406.572-.753a3.793,3.793,0,0,1,2.2-.677,3.648,3.648,0,0,1,2.157.7c.459.351.615.677.53.759" transform="translate(-13805.41 -17376.197)" fill="#263238"/>
      <path id="Trazado_183172" data-name="Trazado 183172" d="M47.716,40.947a1.385,1.385,0,0,1-1.336,1.4A1.324,1.324,0,0,1,44.953,41.1a1.385,1.385,0,0,1,1.334-1.4,1.325,1.325,0,0,1,1.429,1.25" transform="translate(-13808.52 -17375.762)" fill="#263238"/>
      <path id="Trazado_183173" data-name="Trazado 183173" d="M48.818,40.041c-.172.181-1.223-.6-2.712-.592-1.488-.017-2.582.749-2.744.567-.079-.081.094-.406.572-.753a3.792,3.792,0,0,1,2.2-.677,3.649,3.649,0,0,1,2.159.7c.458.351.614.677.53.759" transform="translate(-13809.052 -17376.129)" fill="#263238"/>
      <path id="Trazado_183174" data-name="Trazado 183174" d="M51.694,51.072a9.835,9.835,0,0,1,2.421-.437c.381-.04.741-.114.805-.375a1.945,1.945,0,0,0-.254-1.127q-.537-1.381-1.126-2.9c-1.562-4.126-2.694-7.518-2.527-7.58s1.569,3.234,3.131,7.36c.377,1.018.736,1.987,1.078,2.916a2.2,2.2,0,0,1,.2,1.493.952.952,0,0,1-.627.556,2.61,2.61,0,0,1-.645.09,9.655,9.655,0,0,1-2.454,0" transform="translate(-13806.52 -17376.105)" fill="#263238"/>
      <path id="Trazado_183175" data-name="Trazado 183175" d="M55.89,62.2a27.476,27.476,0,0,1-14.464-3.858s3.509,7.418,14.319,6.408Z" transform="translate(-13809.687 -17369.594)" fill="#eb996e"/>
      <path id="Trazado_183176" data-name="Trazado 183176" d="M48.285,48.759c.242-.013.245,1.6,1.63,2.752s3.106.97,3.119,1.2c.023.1-.385.314-1.113.334a4.028,4.028,0,0,1-2.6-.908,3.5,3.5,0,0,1-1.263-2.308c-.063-.676.118-1.077.229-1.067" transform="translate(-13807.497 -17372.764)" fill="#263238"/>
      <path id="Trazado_183177" data-name="Trazado 183177" d="M49.437,35.567c-.148.407-1.636.214-3.383.425-1.754.177-3.163.688-3.395.325-.1-.174.142-.555.712-.948a5.925,5.925,0,0,1,5.164-.57c.643.258.966.576.9.768" transform="translate(-13809.286 -17377.496)" fill="#263238"/>
      <path id="Trazado_183178" data-name="Trazado 183178" d="M59.315,36.613c-.262.338-1.288-.013-2.523-.029-1.234-.06-2.28.228-2.521-.126-.105-.172.059-.511.516-.832a3.651,3.651,0,0,1,4.064.126c.435.347.579.7.463.861" transform="translate(-13805.447 -17377.293)" fill="#263238"/>
      <path id="Trazado_183179" data-name="Trazado 183179" d="M69.354,34.386s-5.515,2.888-12.92-.519c-4.859-2.236-10.471-3.226-11.67-2.226s-1.3,5.938-5.994,7.527c0,0,.623,9.393-3.138,9.176s-3.191-19.071-3.191-19.071l10.345-.554,9.949-2.208,9.474,1.031,7.36,1.767Z" transform="translate(-13812.669 -17380.123)" fill="#263238"/>
      <path id="Trazado_183180" data-name="Trazado 183180" d="M32.243,26.638c-.052-.142.833-.475,1.87-.1s1.512,1.19,1.381,1.266c-.126.1-.7-.431-1.572-.733-.865-.322-1.648-.274-1.68-.434" transform="translate(-13812.726 -17380.172)" fill="#263238"/>
      <path id="Trazado_183181" data-name="Trazado 183181" d="M34.661,24.182c.174.013.116,1.117.311,2.39s.743,2.2.608,2.3c-.105.105-.952-.78-1.167-2.209a3.681,3.681,0,0,1,.248-2.481" transform="translate(-13812.029 -17380.895)" fill="#263238"/>
      <path id="Trazado_183182" data-name="Trazado 183182" d="M36.564,40.1c-.154-.075-6.243-2.137-6.308,4.162s6.272,5.065,6.286,4.886.023-9.047.023-9.047" transform="translate(-13813.382 -17375.754)" fill="#ffbe9d"/>
      <path id="Trazado_183183" data-name="Trazado 183183" d="M34.244,46.237c-.028-.02-.11.076-.3.158a1.1,1.1,0,0,1-.821.009,2.713,2.713,0,0,1-1.23-2.45,3.617,3.617,0,0,1,.322-1.568,1.266,1.266,0,0,1,.834-.833.557.557,0,0,1,.644.307c.083.177.041.3.075.313.017.016.137-.1.089-.365a.7.7,0,0,0-.244-.4.823.823,0,0,0-.606-.166,1.541,1.541,0,0,0-1.156.964,3.718,3.718,0,0,0-.4,1.753A2.847,2.847,0,0,0,33.029,46.7a1.18,1.18,0,0,0,1.006-.156c.2-.154.23-.294.209-.306" transform="translate(-13812.984 -17375.25)" fill="#eb996e"/>
      <path id="Trazado_183184" data-name="Trazado 183184" d="M71.3,73.579c4.626.261,12.4.89,27.747,9.86,3.351,1.959,37.78,25.076,37.78,25.076l-15.245,19.51-28.07-15.81,3.781,33.61,4.207,39.966-68.018-.864-1.7-40.139-.575-27.3L26.9,153.929,0,151.372l7.418-48.019A32,32,0,0,1,14.5,87.377c4.626-5.41,10.535-8.693,17.282-11.132a56.646,56.646,0,0,1,12.678-2.317L44.244,65.9s12.1,1.131,15.319,8.9c0,0,4.012-9.185,11.783-9.944Z" transform="translate(-13823.392 -17367.439)" fill="#592fe6"/>
      <path id="Trazado_183185" data-name="Trazado 183185" d="M43.254,180.748c-.088.052-1.011-1.251-1.861-3.974a36.216,36.216,0,0,1-1.146-11.894c.075-2.515.281-5.253.406-8.163a73.171,73.171,0,0,0-.181-9.248,176.962,176.962,0,0,0-3.653-21.027,125.565,125.565,0,0,1-3.139-21.4c-.168-6.7.4-12.6.084-17.53a36.11,36.11,0,0,0-2.234-11.372c-1.013-2.561-1.886-3.849-1.743-3.945.089-.071,1.2,1.07,2.483,3.617A32.571,32.571,0,0,1,35.23,87.4c.506,5.049.093,11.05.363,17.558a136.315,136.315,0,0,0,3.261,21.051,158.109,158.109,0,0,1,3.528,21.308,69.824,69.824,0,0,1-.008,9.492c-.236,2.923-.456,5.647-.659,8.142a41.024,41.024,0,0,0,.462,11.62c.58,2.687,1.244,4.1,1.077,4.175" transform="translate(-13813.542 -17365.012)" fill="#fafafa"/>
      <path id="Trazado_183186" data-name="Trazado 183186" d="M64.358,182.431c-.144.009-.383-1.524-.693-4.3-.3-2.844-.733-6.842-1.26-11.754-1.049-9.921-2.615-23.612-4.842-38.661-1.109-7.529-2.265-14.684-3.384-21.183s-2.185-12.366-2.771-17.353a85.9,85.9,0,0,1-.7-11.867c.068-2.809.3-4.351.427-4.345.326.009.124,6.192,1.731,16.01.765,4.911,1.972,10.716,3.2,17.216s2.443,13.668,3.556,21.219c2.233,15.1,3.573,28.861,4.249,38.835.345,4.988.528,9.03.6,11.826s.031,4.347-.113,4.356" transform="translate(-13806.62 -17364.754)" fill="#fafafa"/>
      <path id="Trazado_183187" data-name="Trazado 183187" d="M59.877,72.33c.168,0,.225,1.556.672,4.3a88.846,88.846,0,0,0,2.909,11.443c.715,2.4,1.53,5.045,2.205,7.96a67.531,67.531,0,0,1,1.455,9.429c.6,6.69.514,13.987.934,21.606.765,15.265,2.265,29.048,3.266,39.035.511,4.993.913,9.038,1.143,11.838s.293,4.359.149,4.377-.474-1.505-.953-4.275-1.1-6.787-1.8-11.765c-1.376-9.951-3.114-23.751-3.883-39.108-.422-7.682-.283-15-.767-21.553A70.674,70.674,0,0,0,63.978,96.4c-.584-2.855-1.311-5.5-1.936-7.932a66.435,66.435,0,0,1-2.3-11.742c-.208-2.836.011-4.4.13-4.4" transform="translate(-13803.653 -17364.965)" fill="#fafafa"/>
      <path id="Trazado_183188" data-name="Trazado 183188" d="M52.3,73.883c-.6-.1-.675-1.845-1.172-3.629s-1.331-3.322-.869-3.713c.217-.177.712-.008,1.3.518a5.833,5.833,0,0,1,1.589,5.712c-.23.752-.567,1.152-.845,1.113" transform="translate(-13806.808 -17366.902)" fill="#fafafa"/>
      <path id="Trazado_183189" data-name="Trazado 183189" d="M35.975,74.6c-.254.1-.717-.287-1.049-1.143a6.018,6.018,0,0,1,1.791-6.463c.727-.563,1.324-.659,1.488-.441.337.482-.833,1.892-1.364,3.954-.607,2.04-.33,3.853-.866,4.092" transform="translate(-13811.94 -17366.912)" fill="#fafafa"/>
      <path id="Trazado_183190" data-name="Trazado 183190" d="M55.656,181.729c-.184-.035.152-1.556,0-4.292a41.972,41.972,0,0,0-2.639-11.295c-.792-2.346-1.742-4.919-2.553-7.769s-1.54-5.918-2.16-9.173c-1.247-6.517-2.077-13.725-3.036-21.255-1.887-15.081-3.479-28.747-4.529-38.653-.524-4.952-.913-8.965-1.135-11.743s-.278-4.323-.136-4.341.47,1.493.938,4.241S41.489,84.18,42.2,89.109c1.423,9.858,3.246,23.5,5.133,38.578.96,7.541,1.731,14.73,2.859,21.168.56,3.221,1.2,6.256,1.936,9.06s1.581,5.379,2.292,7.779c1.479,4.778,2.189,8.885,2.047,11.733-.1,2.849-.717,4.332-.81,4.3" transform="translate(-13810.359 -17364.674)" fill="#fafafa"/>
      <path id="Trazado_183191" data-name="Trazado 183191" d="M32.449,171.989c-.3.019-.8-4.106-1.564-10.768S29.072,145.356,28,135.17s-1.827-19.449-2.14-26.164-.257-10.881.019-10.894c.3-.016.755,4.114,1.447,10.782.711,6.755,1.676,15.926,2.743,26.061,1.07,10.182,1.9,19.429,2.28,26.14s.375,10.877.1,10.894" transform="translate(-13814.906 -17356.436)" fill="#fafafa"/>
      <path id="Trazado_183192" data-name="Trazado 183192" d="M3.513,148.228c-.279-.067.5-4.432,1.984-11.433s3.674-16.642,6.219-27.258c1.3-5.3,2.537-10.345,3.666-14.949,1.117-4.575,2.292-8.829,4.162-12.041a16.443,16.443,0,0,1,5.986-6.27c1.818-1.006,2.984-1.117,3.01-1.006.057.161-1,.538-2.571,1.686a17.518,17.518,0,0,0-5.13,6.284c-1.59,3.094-2.574,7.171-3.593,11.793-1.081,4.617-2.265,9.675-3.508,14.988-2.545,10.616-4.961,20.2-6.811,27.116s-3.134,11.158-3.414,11.091" transform="translate(-13822.248 -17364.004)" fill="#fafafa"/>
      <path id="Trazado_183193" data-name="Trazado 183193" d="M32.072,79.387c.113.132-.628.809-1.4,2.419a36,36,0,0,0-2.458,7.169l-1.242,5.156c-.414,1.842-.76,3.851-1.2,5.983a40.015,40.015,0,0,1-1.887,6.654,69.9,69.9,0,0,1-3.125,6.669c-1.142,2.212-2.284,4.348-3.179,6.439a30.914,30.914,0,0,0-1.754,6.284,89.024,89.024,0,0,0-1.151,11.262c-.277,6.481-.181,10.52-.492,10.539-.261.019-.878-4-.977-10.566a72.228,72.228,0,0,1,.732-11.556,31.027,31.027,0,0,1,1.765-6.753c.928-2.234,2.071-4.4,3.21-6.6s2.223-4.341,3.077-6.461A41.07,41.07,0,0,0,23.9,99.7c.482-2.079.894-4.1,1.4-5.982s1-3.571,1.5-5.153a27.806,27.806,0,0,1,3.175-7.175c1.045-1.582,2.039-2.105,2.1-2.007" transform="translate(-13819.022 -17362.635)" fill="#fafafa"/>
      <path id="Trazado_183194" data-name="Trazado 183194" d="M107.972,109.78c-.106.25-2.732-.627-6.585-2.793A84.132,84.132,0,0,1,87.32,97.015c-2.562-2.3-4.626-4.686-6.7-6.642a38.751,38.751,0,0,0-5.8-4.75c-3.573-2.328-6.276-2.872-6.187-3.223.027-.126.727-.145,1.956.1a17.917,17.917,0,0,1,4.977,1.855A32.506,32.506,0,0,1,81.92,88.97C84.129,90.9,86.289,93.3,88.7,95.463a136.825,136.825,0,0,0,13.453,10.271c3.592,2.449,5.94,3.77,5.814,4.046" transform="translate(-13800.688 -17361.664)" fill="#fafafa"/>
      <path id="Trazado_183195" data-name="Trazado 183195" d="M101.166,114.974c-.172.241-2.035-.776-4.967-2.509s-6.964-4.155-11.367-6.955a107.206,107.206,0,0,1-10.917-7.772c-2.643-2.209-4.075-3.8-3.9-4.011.193-.229,1.947.957,4.774,2.832s6.767,4.409,11.159,7.2,8.323,5.421,11.061,7.483,4.313,3.5,4.152,3.732" transform="translate(-13800.23 -17357.895)" fill="#fafafa"/>
      <path id="Trazado_183196" data-name="Trazado 183196" d="M22.406,74.605c.009-.021.154.025.426.134a8.292,8.292,0,0,1,1.145.564,12.445,12.445,0,0,1,3.487,3.141,16.548,16.548,0,0,1,2.932,6.315,23.2,23.2,0,0,1,.2,8.515,47.758,47.758,0,0,1-2.093,8.233c-.833,2.467-1.657,4.655-2.3,6.506s-1.127,3.359-1.439,4.41a9.953,9.953,0,0,1-.524,1.625,7.167,7.167,0,0,1,.271-1.69c.234-1.077.648-2.619,1.242-4.5,1.125-3.762,3.271-8.8,4.182-14.686a23.33,23.33,0,0,0-.138-8.282,16.71,16.71,0,0,0-2.707-6.167,15.13,15.13,0,0,0-4.678-4.123" transform="translate(-13815.979 -17364.213)" fill="#263238"/>
      <path id="Trazado_183197" data-name="Trazado 183197" d="M72.16,116.327a7.717,7.717,0,0,1-.278-1.618c-.149-1.18-.335-2.663-.558-4.428-.471-3.881-1.09-8.979-1.775-14.615s-1.3-10.736-1.777-14.617c-.213-1.765-.393-3.249-.535-4.429a7.816,7.816,0,0,1-.134-1.636,7.586,7.586,0,0,1,.393,1.6c.2,1.037.458,2.541.747,4.4.578,3.728,1.28,8.889,1.974,14.6s1.243,10.889,1.581,14.646c.169,1.878.283,3.4.345,4.453a7.668,7.668,0,0,1,.019,1.642" transform="translate(-13801.196 -17364.086)" fill="#263238"/>
      <path id="Trazado_183198" data-name="Trazado 183198" d="M46.24,70.13a3.207,3.207,0,0,0-2.269.3,3.836,3.836,0,0,0-1.6,1.866,9.443,9.443,0,0,0-.508,1.443q-.1.4-.209.8a2.036,2.036,0,0,1-.429.929.929.929,0,0,1-.6.289,1.269,1.269,0,0,1-.567-.106c-.3-.13-.519-.248-.776-.369l-1.423-.7L35.463,73.36a9.141,9.141,0,0,1-2.129-1.278,9.277,9.277,0,0,1,2.334.85l2.454,1.089,1.439.664.743.342c.237.089.326.077.431-.025a5.519,5.519,0,0,0,.492-1.449,9.345,9.345,0,0,1,.582-1.529A4.141,4.141,0,0,1,43.756,70a2.771,2.771,0,0,1,1.882-.218c.439.13.622.314.6.345" transform="translate(-13812.364 -17365.832)" fill="#263238"/>
      <path id="Trazado_183199" data-name="Trazado 183199" d="M56.109,71.62c.105.14-2.2,2.047-5.246,4.357l-.435.33-.094-.542-.121-.685a8,8,0,0,0-1.967-4.63,7.155,7.155,0,0,0-1.79-1.131c-.023-.071.969-.149,2.105.777a5.479,5.479,0,0,1,1.492,1.988,11.818,11.818,0,0,1,.82,2.877c.041.237.081.471.118.693l-.53-.212C53.53,73.158,56,71.48,56.109,71.62" transform="translate(-13808.022 -17365.975)" fill="#263238"/>
      <path id="Trazado_183200" data-name="Trazado 183200" d="M24.912,132.3a19.716,19.716,0,0,1-3.255-.906c-1.988-.612-4.743-1.425-7.816-2.2s-5.89-1.356-7.932-1.757a19.739,19.739,0,0,1-3.3-.74,14.828,14.828,0,0,1,3.375.271A76.852,76.852,0,0,1,14,128.545a77,77,0,0,1,7.8,2.4,14.86,14.86,0,0,1,3.1,1.356" transform="translate(-13822.527 -17346.988)" fill="#263238"/>
      <path id="Trazado_183201" data-name="Trazado 183201" d="M4.252,124.6a14.511,14.511,0,0,1,3.217.66c1.96.511,4.646,1.307,7.564,2.328,1.459.51,2.839,1.027,4.084,1.521a20.446,20.446,0,0,1,3.257,1.509c1.83,1.1,2.234,2.506,2.145,2.5a7.332,7.332,0,0,0-2.384-2.085,24.8,24.8,0,0,0-3.239-1.341l-4.086-1.465c-2.905-1.017-5.556-1.88-7.477-2.506A17.726,17.726,0,0,1,4.252,124.6" transform="translate(-13821.985 -17347.678)" fill="#263238"/>
      <path id="Trazado_183202" data-name="Trazado 183202" d="M92.962,112.373A10.485,10.485,0,0,1,94.1,109.79,60.095,60.095,0,0,1,101.8,98.579a10.449,10.449,0,0,1,2-1.995c.149.132-2.632,3.4-5.612,7.761s-5.045,8.119-5.222,8.028" transform="translate(-13792.639 -17356.941)" fill="#263238"/>
      <path id="Trazado_183203" data-name="Trazado 183203" d="M91.451,109.135a7.972,7.972,0,0,1,1.18-2.329,28.265,28.265,0,0,1,8.907-8.811,7.975,7.975,0,0,1,2.341-1.157c.11.182-3.38,2.109-6.818,5.54-3.464,3.4-5.43,6.868-5.611,6.757" transform="translate(-13793.139 -17356.859)" fill="#263238"/>
      <path id="Trazado_183204" data-name="Trazado 183204" d="M58.934,183.668a6.473,6.473,0,0,1-.18-1.069q-.144-1.15-.386-3.077c-.321-2.746-.771-6.6-1.324-11.327-1.106-9.565-2.636-22.777-4.452-37.355s-3.587-27.764-5.016-37.283c-.731-4.756-1.307-8.611-1.763-11.263q-.3-1.918-.484-3.062a6.183,6.183,0,0,1-.122-1.077,6.523,6.523,0,0,1,.26,1.051q.23,1.136.614,3.041c.539,2.64,1.188,6.483,1.982,11.234,1.553,9.508,3.408,22.687,5.22,37.274s3.269,27.807,4.251,37.387c.462,4.74.838,8.6,1.106,11.352q.16,1.936.256,3.09a6.268,6.268,0,0,1,.041,1.083" transform="translate(-13808.438 -17363.037)" fill="#263238"/>
      <path id="Trazado_183205" data-name="Trazado 183205" d="M48.981,95.342c-.081.023-.18-.556.467-1.059a1.326,1.326,0,0,1,1.385-.122,1.465,1.465,0,0,1,.8,1.53,1.409,1.409,0,0,1-1.343,1.1,1.158,1.158,0,0,1-1.141-.834,1.081,1.081,0,0,1,.1-.9c.124-.182.246-.221.275-.19.076.057-.173.426.084.917a.645.645,0,0,0,.653.374.808.808,0,0,0,.692-.592.873.873,0,0,0-.421-.841A.854.854,0,0,0,49.7,94.7c-.507.242-.624.667-.723.641" transform="translate(-13807.206 -17357.789)" fill="#263238"/>
      <path id="Trazado_183206" data-name="Trazado 183206" d="M52,112.767c-.081.023-.18-.556.467-1.059a1.327,1.327,0,0,1,1.385-.122,1.465,1.465,0,0,1,.8,1.53,1.4,1.4,0,0,1-1.343,1.1,1.157,1.157,0,0,1-1.141-.833,1.081,1.081,0,0,1,.1-.9c.124-.182.246-.221.275-.19.076.057-.173.426.084.917a.645.645,0,0,0,.653.374.809.809,0,0,0,.692-.592.873.873,0,0,0-.421-.841.854.854,0,0,0-.826-.021c-.507.242-.624.667-.723.641" transform="translate(-13806.207 -17352.025)" fill="#263238"/>
      <path id="Trazado_183207" data-name="Trazado 183207" d="M49.925,326.312l-.27-11.855-22.209.363.212,17.348,1.379.067c6.134.24,31.206.788,35.282-.52,4.546-1.461-14.393-5.4-14.393-5.4" transform="translate(-13814.312 -17284.859)" fill="#592fe6"/>
      <g id="Grupo_120917" data-name="Grupo 120917" transform="translate(-13786.653 -16956.293)" opacity="0.4">
        <g id="Grupo_120916" data-name="Grupo 120916">
          <g id="Grupo_120915" data-name="Grupo 120915" clip-path="url(#clip-path)">
            <path id="Trazado_183208" data-name="Trazado 183208" d="M59.132,325.059s6.645,1.8,5.837,2.9-26.164,1.5-37.363.7l.027-.5,29.582-.213s.625-2.817,1.918-2.892" transform="translate(-27.605 -325.059)" fill="#fff"/>
          </g>
        </g>
      </g>
      <path id="Trazado_183209" data-name="Trazado 183209" d="M27.364,327.529a2.057,2.057,0,0,0,.382.036l1.1.048,4.039.11c3.411.069,8.126.1,13.331.025s9.919-.254,13.327-.425l4.034-.232,1.1-.083a2,2,0,0,0,.381-.047,2.109,2.109,0,0,0-.383-.007l-1.1.031-4.036.146c-3.408.122-8.118.266-13.323.345s-9.913.074-13.324.055l-4.039-.024h-1.1a2.134,2.134,0,0,0-.383.019" transform="translate(-13814.339 -17280.725)" fill="#263238"/>
      <path id="Trazado_183210" data-name="Trazado 183210" d="M49.864,328.364a9.14,9.14,0,0,1,.724-1.939,9.136,9.136,0,0,1,1.351-1.566,3.59,3.59,0,0,0-2.075,3.505" transform="translate(-13806.909 -17281.42)" fill="#263238"/>
      <path id="Trazado_183211" data-name="Trazado 183211" d="M44.893,325.536c.064.039.371-.347.687-.864s.52-.965.458-1-.371.347-.687.864-.522.965-.458,1" transform="translate(-13808.543 -17281.813)" fill="#263238"/>
      <path id="Trazado_183212" data-name="Trazado 183212" d="M43.529,324.694c.051.055.4-.185.775-.535s.641-.677.592-.732-.4.185-.775.535-.643.677-.592.732" transform="translate(-13808.992 -17281.895)" fill="#263238"/>
      <path id="Trazado_183213" data-name="Trazado 183213" d="M42.648,322.851a2.618,2.618,0,0,0,1.16.129,2.615,2.615,0,0,0,1.16-.14,2.618,2.618,0,0,0-1.16-.129,2.616,2.616,0,0,0-1.16.14" transform="translate(-13809.282 -17282.129)" fill="#263238"/>
      <path id="Trazado_183214" data-name="Trazado 183214" d="M42.337,321.716a3.271,3.271,0,0,0,2.631.157,7.154,7.154,0,0,0-1.316-.071,7.1,7.1,0,0,0-1.315-.086" transform="translate(-13809.385 -17282.467)" fill="#263238"/>
      <path id="Trazado_183215" data-name="Trazado 183215" d="M45.433,324.113a4.072,4.072,0,0,0,1.427-.032,8.269,8.269,0,0,0,1.514-.358,4.131,4.131,0,0,0,.864-.373.765.765,0,0,0,.346-.448.56.56,0,0,0-.225-.567,2.619,2.619,0,0,0-3.225.816,2.545,2.545,0,0,0-.45.96.787.787,0,0,0-.031.386,4.048,4.048,0,0,1,.631-1.227,2.577,2.577,0,0,1,1.206-.812,2.215,2.215,0,0,1,1.7.089c.229.165.145.433-.105.587a4.344,4.344,0,0,1-.8.355,10,10,0,0,1-1.463.406c-.853.165-1.4.174-1.4.218" transform="translate(-13808.36 -17282.34)" fill="#263238"/>
      <path id="Trazado_183216" data-name="Trazado 183216" d="M46.183,324.336a1.4,1.4,0,0,0,.149-.993,2.34,2.34,0,0,0-.406-1.037,1.435,1.435,0,0,0-1.2-.709.567.567,0,0,0-.429.667,1.561,1.561,0,0,0,.252.634,4.385,4.385,0,0,0,.688.853,2.06,2.06,0,0,0,.826.564c.024-.035-.289-.251-.689-.7a4.922,4.922,0,0,1-.611-.846c-.2-.3-.343-.838.013-.909.357-.04.727.31.95.591a2.354,2.354,0,0,1,.418.922,5.2,5.2,0,0,1,.039.961" transform="translate(-13808.74 -17282.498)" fill="#263238"/>
      <path id="Trazado_183217" data-name="Trazado 183217" d="M27.632,322.857c.005.051.635-.071,1.641.032a6.96,6.96,0,0,1,5.89,4.545c.354.948.4,1.586.446,1.58a1.247,1.247,0,0,0-.005-.448,5.888,5.888,0,0,0-.262-1.194,6.744,6.744,0,0,0-6.054-4.671,5.93,5.93,0,0,0-1.22.049,1.321,1.321,0,0,0-.435.108" transform="translate(-13814.25 -17282.137)" fill="#263238"/>
      <path id="Trazado_183218" data-name="Trazado 183218" d="M29.283,315.843a77.94,77.94,0,0,0,.028,9.128,38.954,38.954,0,0,0,.121-4.565,38.759,38.759,0,0,0-.149-4.563" transform="translate(-13813.743 -17284.4)" fill="#263238"/>
      <path id="Trazado_183219" data-name="Trazado 183219" d="M35.728,325.893a12.593,12.593,0,0,0,3.247.27,12.5,12.5,0,0,0,3.243-.311c-.008-.077-1.457.035-3.245.043s-3.239-.08-3.246,0" transform="translate(-13811.571 -17281.1)" fill="#263238"/>
      <path id="Trazado_183220" data-name="Trazado 183220" d="M32.459,325.924c-.053.055.124.3.277.636s.238.624.315.618.109-.353-.072-.733-.474-.575-.52-.52" transform="translate(-13812.656 -17281.068)" fill="#263238"/>
      <path id="Trazado_183221" data-name="Trazado 183221" d="M31.2,324.411c-.052.053.094.282.329.511s.464.373.516.319-.094-.282-.329-.511-.464-.373-.516-.319" transform="translate(-13813.071 -17281.57)" fill="#263238"/>
      <path id="Trazado_183222" data-name="Trazado 183222" d="M29.426,323.768c.017.076.311.068.64.177s.566.281.623.229-.133-.355-.54-.484-.747.011-.723.078" transform="translate(-13813.656 -17281.822)" fill="#263238"/>
      <path id="Trazado_183223" data-name="Trazado 183223" d="M28.166,323.437c-.025.069.1.182.289.25s.357.068.382,0-.1-.181-.289-.25-.357-.067-.382,0" transform="translate(-13814.074 -17281.906)" fill="#263238"/>
      <g id="Grupo_120920" data-name="Grupo 120920" transform="translate(-13786.796 -16963.268)" opacity="0.3">
        <g id="Grupo_120919" data-name="Grupo 120919">
          <g id="Grupo_120918" data-name="Grupo 120918" clip-path="url(#clip-path-2)">
            <path id="Trazado_183224" data-name="Trazado 183224" d="M27.7,323.211l22.181-.719-.077-2.674-22.3,1.988Z" transform="translate(-27.498 -319.818)"/>
          </g>
        </g>
      </g>
      <path id="Trazado_183225" data-name="Trazado 183225" d="M88.631,326.484,88.3,314.632l-22.206.478.3,17.346,1.379.059c6.135.208,31.21.627,35.279-.7,4.538-1.484-14.421-5.326-14.421-5.326" transform="translate(-13801.525 -17284.801)" fill="#592fe6"/>
      <g id="Grupo_120923" data-name="Grupo 120923" transform="translate(-13735.132 -16956.111)" opacity="0.4">
        <g id="Grupo_120922" data-name="Grupo 120922">
          <g id="Grupo_120921" data-name="Grupo 120921" clip-path="url(#clip-path-3)">
            <path id="Trazado_183226" data-name="Trazado 183226" d="M97.827,325.2s6.654,1.765,5.853,2.872-26.156,1.638-37.361.893l.025-.5,29.579-.367s.611-2.82,1.9-2.9" transform="translate(-66.319 -325.196)" fill="#fff"/>
          </g>
        </g>
      </g>
      <path id="Trazado_183227" data-name="Trazado 183227" d="M66.076,327.838a1.967,1.967,0,0,0,.382.033l1.1.044L71.6,328c3.411.051,8.126.059,13.331-.045s9.917-.3,13.324-.492l4.032-.253,1.1-.088a2.066,2.066,0,0,0,.381-.048,2.086,2.086,0,0,0-.385-.005l-1.1.036-4.035.168c-3.408.14-8.117.307-13.32.414s-9.913.126-13.324.124l-4.039,0-1.1.007a2.088,2.088,0,0,0-.383.021" transform="translate(-13801.531 -17280.688)" fill="#263238"/>
      <path id="Trazado_183228" data-name="Trazado 183228" d="M88.576,328.511a5.856,5.856,0,0,1,2.057-3.516,3.589,3.589,0,0,0-2.057,3.516" transform="translate(-13794.102 -17281.375)" fill="#263238"/>
      <path id="Trazado_183229" data-name="Trazado 183229" d="M83.592,325.707c.064.039.369-.35.683-.866s.515-.967.451-1.006-.369.349-.681.866-.516.968-.452,1.006" transform="translate(-13795.74 -17281.758)" fill="#263238"/>
      <path id="Trazado_183230" data-name="Trazado 183230" d="M82.225,324.873c.051.055.4-.186.772-.539s.639-.68.587-.735-.4.186-.771.539-.639.68-.588.735" transform="translate(-13796.19 -17281.838)" fill="#263238"/>
      <path id="Trazado_183231" data-name="Trazado 183231" d="M81.336,323.034a5.054,5.054,0,0,0,2.321-.023,5.051,5.051,0,0,0-2.321.023" transform="translate(-13796.482 -17282.07)" fill="#263238"/>
      <path id="Trazado_183232" data-name="Trazado 183232" d="M81.02,321.9a3.265,3.265,0,0,0,2.632.142,7.346,7.346,0,0,0-1.318-.063,7.151,7.151,0,0,0-1.315-.08" transform="translate(-13796.587 -17282.406)" fill="#263238"/>
      <path id="Trazado_183233" data-name="Trazado 183233" d="M84.125,324.284a4.117,4.117,0,0,0,1.427-.039,8.317,8.317,0,0,0,1.512-.367,4.145,4.145,0,0,0,.862-.377.77.77,0,0,0,.345-.45.559.559,0,0,0-.229-.566,2.615,2.615,0,0,0-3.219.833,2.529,2.529,0,0,0-.446.961.8.8,0,0,0-.029.387,4.04,4.04,0,0,1,.624-1.231,2.58,2.58,0,0,1,1.2-.818,2.211,2.211,0,0,1,1.7.081c.23.162.148.431-.1.587a4.376,4.376,0,0,1-.794.359,9.922,9.922,0,0,1-1.461.413c-.852.169-1.4.182-1.395.226" transform="translate(-13795.56 -17282.289)" fill="#263238"/>
      <path id="Trazado_183234" data-name="Trazado 183234" d="M84.878,324.5a1.4,1.4,0,0,0,.144-.994,2.345,2.345,0,0,0-.411-1.034,1.432,1.432,0,0,0-1.2-.7.568.568,0,0,0-.426.668,1.55,1.55,0,0,0,.256.632,4.277,4.277,0,0,0,.692.849,2.025,2.025,0,0,0,.829.56c.024-.035-.29-.249-.693-.693a4.917,4.917,0,0,1-.615-.844c-.2-.3-.347-.836.008-.909.357-.041.729.306.953.587a2.334,2.334,0,0,1,.423.92,5.255,5.255,0,0,1,.044.961" transform="translate(-13795.941 -17282.441)" fill="#263238"/>
      <path id="Trazado_183235" data-name="Trazado 183235" d="M66.321,323.117c.005.051.635-.075,1.641.024a6.955,6.955,0,0,1,5.913,4.514c.359.945.406,1.584.455,1.576a1.251,1.251,0,0,0-.008-.447,5.849,5.849,0,0,0-.267-1.192,6.748,6.748,0,0,0-6.078-4.641,5.814,5.814,0,0,0-1.22.057,1.3,1.3,0,0,0-.435.109" transform="translate(-13801.45 -17282.053)" fill="#263238"/>
      <path id="Trazado_183236" data-name="Trazado 183236" d="M67.93,316.094a77.182,77.182,0,0,0,.076,9.128,39.121,39.121,0,0,0,.1-4.565,38.649,38.649,0,0,0-.172-4.563" transform="translate(-13800.951 -17284.318)" fill="#263238"/>
      <path id="Trazado_183237" data-name="Trazado 183237" d="M74.432,326.118a12.648,12.648,0,0,0,3.249.254,12.56,12.56,0,0,0,3.242-.329c-.009-.077-1.457.041-3.245.059s-3.239-.063-3.246.016" transform="translate(-13798.767 -17281.035)" fill="#263238"/>
      <path id="Trazado_183238" data-name="Trazado 183238" d="M71.164,326.159c-.053.056.125.3.279.635s.242.623.319.616.106-.354-.076-.732-.476-.574-.523-.519" transform="translate(-13799.851 -17280.99)" fill="#263238"/>
      <path id="Trazado_183239" data-name="Trazado 183239" d="M69.9,324.652c-.052.053.1.282.331.51s.466.37.518.317-.1-.282-.33-.51-.467-.37-.519-.317" transform="translate(-13800.27 -17281.49)" fill="#263238"/>
      <path id="Trazado_183240" data-name="Trazado 183240" d="M68.119,324.019c.017.076.311.067.64.174s.568.277.625.225-.136-.354-.544-.482-.745.015-.721.083" transform="translate(-13800.855 -17281.74)" fill="#263238"/>
      <path id="Trazado_183241" data-name="Trazado 183241" d="M66.857,323.693c-.025.071.105.181.29.249s.357.065.382,0-.1-.181-.29-.249-.357-.065-.382,0" transform="translate(-13801.273 -17281.822)" fill="#263238"/>
      <g id="Grupo_120926" data-name="Grupo 120926" transform="translate(-13735.318 -16963.037)" opacity="0.3">
        <g id="Grupo_120925" data-name="Grupo 120925">
          <g id="Grupo_120924" data-name="Grupo 120924" clip-path="url(#clip-path-4)">
            <path id="Trazado_183242" data-name="Trazado 183242" d="M66.385,323.5l22.177-.833-.092-2.674-22.292,2.1Z" transform="translate(-66.179 -319.992)"/>
          </g>
        </g>
      </g>
      <path id="Trazado_183243" data-name="Trazado 183243" d="M24.374,152.358V376.917H59.38l3.1-194.768L74.754,376.917h35L94.1,156.151Z" transform="translate(-13815.328 -17338.488)" fill="#12263f"/>
      <path id="Trazado_183244" data-name="Trazado 183244" d="M56.037,153.623a19.36,19.36,0,0,1,.294,3.612c.1,2.233.181,5.319.234,8.728.016,1.694.032,3.308.047,4.808a8.616,8.616,0,0,1-.727,3.939,4.6,4.6,0,0,1-1.991,2.034,1.945,1.945,0,0,1-1.057.291c-.017-.049.365-.138.918-.488a4.619,4.619,0,0,0,1.694-2,8.743,8.743,0,0,0,.543-3.769c-.031-1.5-.064-3.11-.1-4.8-.053-3.408-.064-6.495-.039-8.729a19.407,19.407,0,0,1,.181-3.619" transform="translate(-13805.911 -17338.07)" fill="#455a64"/>
      <path id="Trazado_183245" data-name="Trazado 183245" d="M50.766,155.617c.063.072-.468.351-.483,1.078a1.135,1.135,0,0,0,.5,1,1.351,1.351,0,0,0,1.4-.092.912.912,0,0,0,.077-1.584,1.587,1.587,0,0,0-1.412-.3l-.02-.236c.289.132.434.224.417.268s-.2.035-.512-.024l-.281-.052.262-.185a1.82,1.82,0,0,1,1.9.138,1.525,1.525,0,0,1,.715,1.139,1.49,1.49,0,0,1-.755,1.324,1.988,1.988,0,0,1-2.169.047,1.484,1.484,0,0,1-.6-1.487,1.4,1.4,0,0,1,.555-.91c.226-.148.385-.158.4-.128" transform="translate(-13806.921 -17337.52)" fill="#455a64"/>
      <path id="Trazado_183246" data-name="Trazado 183246" d="M92,123.567c-.922-1.2-11.978.705-11.978.705l4.034-3.06c-2.053-3.646-9.159.765-11.419,2.9a4.157,4.157,0,0,0-1.119,2.2l-44.607,9.41-24.9-2.537s-.5,4.3-1.749,12.4c-1.18,7.656,11.417,15.168,19.221,14.071,7.136-1,50.734-13.4,58.152-15.518l1.081-.309-.019-.051c2.406-.825,8.153-2.885,8.753-3.923.763-1.318.555-11.646.555-11.646l4.1-1.806a2.929,2.929,0,0,0-.1-2.835" transform="translate(-13823.331 -17349.254)" fill="#ffbe9d"/>
    </g>
    <g id="Grupo_128194" data-name="Grupo 128194" transform="translate(34.677 -89.699)">
      <rect id="Rectángulo_41183" data-name="Rectángulo 41183" width="93.155" height="121.868" rx="8.674" transform="translate(600 4770.969)" fill="#fff" stroke="#12263f" stroke-miterlimit="10" stroke-width="1.915"/>
      <line id="Línea_430" data-name="Línea 430" x2="35.486" transform="translate(611.095 4792.707)" fill="none" stroke="#12263f" stroke-linecap="round" stroke-miterlimit="10" stroke-width="2"/>
      <line id="Línea_431" data-name="Línea 431" x2="70.97" transform="translate(611.095 4802.504)" fill="none" stroke="#12263f" stroke-linecap="round" stroke-miterlimit="10" stroke-width="2"/>
      <line id="Línea_432" data-name="Línea 432" x2="70.97" transform="translate(611.095 4812.303)" fill="none" stroke="#12263f" stroke-linecap="round" stroke-miterlimit="10" stroke-width="2"/>
      <line id="Línea_433" data-name="Línea 433" x2="70.97" transform="translate(611.095 4822.1)" fill="none" stroke="#12263f" stroke-linecap="round" stroke-miterlimit="10" stroke-width="2"/>
      <line id="Línea_434" data-name="Línea 434" x2="70.97" transform="translate(611.095 4831.902)" fill="none" stroke="#12263f" stroke-linecap="round" stroke-miterlimit="10" stroke-width="2"/>
      <line id="Línea_435" data-name="Línea 435" x2="70.97" transform="translate(611.095 4841.701)" fill="none" stroke="#12263f" stroke-linecap="round" stroke-miterlimit="10" stroke-width="2"/>
      <line id="Línea_436" data-name="Línea 436" x2="70.97" transform="translate(611.095 4851.498)" fill="none" stroke="#12263f" stroke-linecap="round" stroke-miterlimit="10" stroke-width="2"/>
      <line id="Línea_437" data-name="Línea 437" x2="70.97" transform="translate(611.095 4861.297)" fill="none" stroke="#12263f" stroke-linecap="round" stroke-miterlimit="10" stroke-width="2"/>
      <line id="Línea_438" data-name="Línea 438" x2="17.743" transform="translate(664.321 4877.221)" fill="none" stroke="#12263f" stroke-linecap="round" stroke-miterlimit="10" stroke-width="2.873"/>
    </g>
    <g id="Grupo_128200" data-name="Grupo 128200" transform="translate(19.677 -100.699)">
      <rect id="Rectángulo_41183-2" data-name="Rectángulo 41183" width="93.155" height="121.868" rx="8.674" transform="translate(600 4770.969)" fill="#fff" stroke="#12263f" stroke-miterlimit="10" stroke-width="1.915"/>
      <line id="Línea_430-2" data-name="Línea 430" x2="35.486" transform="translate(611.095 4792.707)" fill="none" stroke="#12263f" stroke-linecap="round" stroke-miterlimit="10" stroke-width="2"/>
      <line id="Línea_431-2" data-name="Línea 431" x2="70.97" transform="translate(611.095 4802.504)" fill="none" stroke="#12263f" stroke-linecap="round" stroke-miterlimit="10" stroke-width="2"/>
      <line id="Línea_432-2" data-name="Línea 432" x2="70.97" transform="translate(611.095 4812.303)" fill="none" stroke="#12263f" stroke-linecap="round" stroke-miterlimit="10" stroke-width="2"/>
      <line id="Línea_433-2" data-name="Línea 433" x2="70.97" transform="translate(611.095 4822.1)" fill="none" stroke="#12263f" stroke-linecap="round" stroke-miterlimit="10" stroke-width="2"/>
      <line id="Línea_434-2" data-name="Línea 434" x2="70.97" transform="translate(611.095 4831.902)" fill="none" stroke="#12263f" stroke-linecap="round" stroke-miterlimit="10" stroke-width="2"/>
      <line id="Línea_435-2" data-name="Línea 435" x2="70.97" transform="translate(611.095 4841.701)" fill="none" stroke="#12263f" stroke-linecap="round" stroke-miterlimit="10" stroke-width="2"/>
      <line id="Línea_436-2" data-name="Línea 436" x2="70.97" transform="translate(611.095 4851.498)" fill="none" stroke="#12263f" stroke-linecap="round" stroke-miterlimit="10" stroke-width="2"/>
      <line id="Línea_437-2" data-name="Línea 437" x2="70.97" transform="translate(611.095 4861.297)" fill="none" stroke="#12263f" stroke-linecap="round" stroke-miterlimit="10" stroke-width="2"/>
      <line id="Línea_438-2" data-name="Línea 438" x2="17.743" transform="translate(664.321 4877.221)" fill="none" stroke="#12263f" stroke-linecap="round" stroke-miterlimit="10" stroke-width="2.873"/>
    </g>
    <g id="Grupo_128195" data-name="Grupo 128195" transform="translate(190 -89.699)">
      <rect id="Rectángulo_41183-3" data-name="Rectángulo 41183" width="93.155" height="121.868" rx="8.674" transform="translate(600 4770.969)" fill="#fff" stroke="#12263f" stroke-miterlimit="10" stroke-width="1.915"/>
      <line id="Línea_430-3" data-name="Línea 430" x2="35.486" transform="translate(611.095 4792.707)" fill="none" stroke="#12263f" stroke-linecap="round" stroke-miterlimit="10" stroke-width="2"/>
      <line id="Línea_431-3" data-name="Línea 431" x2="70.97" transform="translate(611.095 4802.504)" fill="none" stroke="#12263f" stroke-linecap="round" stroke-miterlimit="10" stroke-width="2"/>
      <line id="Línea_436-3" data-name="Línea 436" x2="70.97" transform="translate(611.095 4851.498)" fill="none" stroke="#12263f" stroke-linecap="round" stroke-miterlimit="10" stroke-width="2"/>
      <line id="Línea_437-3" data-name="Línea 437" x2="70.97" transform="translate(611.095 4861.297)" fill="none" stroke="#12263f" stroke-linecap="round" stroke-miterlimit="10" stroke-width="2"/>
      <line id="Línea_438-3" data-name="Línea 438" x2="17.743" transform="translate(664.321 4877.221)" fill="none" stroke="#12263f" stroke-linecap="round" stroke-miterlimit="10" stroke-width="2.873"/>
    </g>
    <g id="Grupo_128201" data-name="Grupo 128201" transform="translate(172.042 -100.699)">
      <rect id="Rectángulo_41183-4" data-name="Rectángulo 41183" width="93.155" height="121.868" rx="8.674" transform="translate(600 4770.969)" fill="#fff" stroke="#12263f" stroke-miterlimit="10" stroke-width="1.915"/>
      <line id="Línea_430-4" data-name="Línea 430" x2="35.486" transform="translate(611.095 4792.707)" fill="none" stroke="#12263f" stroke-linecap="round" stroke-miterlimit="10" stroke-width="2"/>
      <line id="Línea_431-4" data-name="Línea 431" x2="70.97" transform="translate(611.095 4802.504)" fill="none" stroke="#12263f" stroke-linecap="round" stroke-miterlimit="10" stroke-width="2"/>
      <line id="Línea_436-4" data-name="Línea 436" x2="70.97" transform="translate(611.095 4851.498)" fill="none" stroke="#12263f" stroke-linecap="round" stroke-miterlimit="10" stroke-width="2"/>
      <line id="Línea_437-4" data-name="Línea 437" x2="70.97" transform="translate(611.095 4861.297)" fill="none" stroke="#12263f" stroke-linecap="round" stroke-miterlimit="10" stroke-width="2"/>
      <line id="Línea_438-4" data-name="Línea 438" x2="17.743" transform="translate(664.321 4877.221)" fill="none" stroke="#12263f" stroke-linecap="round" stroke-miterlimit="10" stroke-width="2.873"/>
    </g>
    <g id="Grupo_128196" data-name="Grupo 128196" transform="translate(360.844 -89.699)">
      <rect id="Rectángulo_41183-5" data-name="Rectángulo 41183" width="93.155" height="121.868" rx="8.674" transform="translate(600 4770.969)" fill="#fff" stroke="#12263f" stroke-miterlimit="10" stroke-width="1.915"/>
      <line id="Línea_434-3" data-name="Línea 434" x2="40.385" transform="translate(641.679 4785.132) rotate(90)" fill="none" stroke="#12263f" stroke-linecap="round" stroke-miterlimit="10" stroke-width="2"/>
      <line id="Línea_439" data-name="Línea 439" x2="40.385" transform="translate(679.239 4831.902) rotate(90)" fill="none" stroke="#12263f" stroke-linecap="round" stroke-miterlimit="10" stroke-width="2"/>
      <line id="Línea_435-3" data-name="Línea 435" x2="40.385" transform="translate(631.88 4785.132) rotate(90)" fill="none" stroke="#12263f" stroke-linecap="round" stroke-miterlimit="10" stroke-width="2"/>
      <line id="Línea_440" data-name="Línea 440" x2="40.385" transform="translate(669.44 4831.902) rotate(90)" fill="none" stroke="#12263f" stroke-linecap="round" stroke-miterlimit="10" stroke-width="2"/>
      <line id="Línea_436-5" data-name="Línea 436" x2="40.385" transform="translate(622.083 4785.132) rotate(90)" fill="none" stroke="#12263f" stroke-linecap="round" stroke-miterlimit="10" stroke-width="2"/>
      <line id="Línea_441" data-name="Línea 441" x2="40.385" transform="translate(659.643 4831.902) rotate(90)" fill="none" stroke="#12263f" stroke-linecap="round" stroke-miterlimit="10" stroke-width="2"/>
      <line id="Línea_437-5" data-name="Línea 437" x2="40.385" transform="translate(612.285 4785.132) rotate(90)" fill="none" stroke="#12263f" stroke-linecap="round" stroke-miterlimit="10" stroke-width="2"/>
      <line id="Línea_442" data-name="Línea 442" x2="40.385" transform="translate(649.844 4831.902) rotate(90)" fill="none" stroke="#12263f" stroke-linecap="round" stroke-miterlimit="10" stroke-width="2"/>
      <line id="Línea_438-5" data-name="Línea 438" x2="17.743" transform="translate(664.321 4883.605)" fill="none" stroke="#12263f" stroke-linecap="round" stroke-miterlimit="10" stroke-width="2.873"/>
    </g>
    <g id="Grupo_128202" data-name="Grupo 128202" transform="translate(343.844 -100.699)">
      <rect id="Rectángulo_41183-6" data-name="Rectángulo 41183" width="93.155" height="121.868" rx="8.674" transform="translate(600 4770.969)" fill="#fff" stroke="#12263f" stroke-miterlimit="10" stroke-width="1.915"/>
      <line id="Línea_434-4" data-name="Línea 434" x2="40.385" transform="translate(641.679 4785.132) rotate(90)" fill="none" stroke="#12263f" stroke-linecap="round" stroke-miterlimit="10" stroke-width="2"/>
      <line id="Línea_439-2" data-name="Línea 439" x2="40.385" transform="translate(679.239 4831.902) rotate(90)" fill="none" stroke="#12263f" stroke-linecap="round" stroke-miterlimit="10" stroke-width="2"/>
      <line id="Línea_435-4" data-name="Línea 435" x2="40.385" transform="translate(631.88 4785.132) rotate(90)" fill="none" stroke="#12263f" stroke-linecap="round" stroke-miterlimit="10" stroke-width="2"/>
      <line id="Línea_440-2" data-name="Línea 440" x2="40.385" transform="translate(669.44 4831.902) rotate(90)" fill="none" stroke="#12263f" stroke-linecap="round" stroke-miterlimit="10" stroke-width="2"/>
      <line id="Línea_436-6" data-name="Línea 436" x2="40.385" transform="translate(622.083 4785.132) rotate(90)" fill="none" stroke="#12263f" stroke-linecap="round" stroke-miterlimit="10" stroke-width="2"/>
      <line id="Línea_441-2" data-name="Línea 441" x2="40.385" transform="translate(659.643 4831.902) rotate(90)" fill="none" stroke="#12263f" stroke-linecap="round" stroke-miterlimit="10" stroke-width="2"/>
      <line id="Línea_437-6" data-name="Línea 437" x2="40.385" transform="translate(612.285 4785.132) rotate(90)" fill="none" stroke="#12263f" stroke-linecap="round" stroke-miterlimit="10" stroke-width="2"/>
      <line id="Línea_442-2" data-name="Línea 442" x2="40.385" transform="translate(649.844 4831.902) rotate(90)" fill="none" stroke="#12263f" stroke-linecap="round" stroke-miterlimit="10" stroke-width="2"/>
      <line id="Línea_438-6" data-name="Línea 438" x2="17.743" transform="translate(664.321 4883.605)" fill="none" stroke="#12263f" stroke-linecap="round" stroke-miterlimit="10" stroke-width="2.873"/>
    </g>
    <g id="Grupo_128197" data-name="Grupo 128197" transform="translate(525 -89.699)">
      <rect id="Rectángulo_41183-7" data-name="Rectángulo 41183" width="93.155" height="121.868" rx="8.674" transform="translate(600 4770.969)" fill="#fff" stroke="#12263f" stroke-miterlimit="10" stroke-width="1.915"/>
      <line id="Línea_430-5" data-name="Línea 430" x2="35.486" transform="translate(611.095 4792.707)" fill="none" stroke="#12263f" stroke-linecap="round" stroke-miterlimit="10" stroke-width="2"/>
      <line id="Línea_431-5" data-name="Línea 431" x2="70.97" transform="translate(611.095 4802.504)" fill="none" stroke="#12263f" stroke-linecap="round" stroke-miterlimit="10" stroke-width="2"/>
      <line id="Línea_432-3" data-name="Línea 432" x2="70.97" transform="translate(611.095 4812.303)" fill="none" stroke="#12263f" stroke-linecap="round" stroke-miterlimit="10" stroke-width="2"/>
      <line id="Línea_433-3" data-name="Línea 433" x2="70.97" transform="translate(611.095 4822.1)" fill="none" stroke="#12263f" stroke-linecap="round" stroke-miterlimit="10" stroke-width="2"/>
      <line id="Línea_434-5" data-name="Línea 434" x2="70.97" transform="translate(611.095 4831.902)" fill="none" stroke="#12263f" stroke-linecap="round" stroke-miterlimit="10" stroke-width="2"/>
      <line id="Línea_435-5" data-name="Línea 435" x2="70.97" transform="translate(611.095 4841.701)" fill="none" stroke="#12263f" stroke-linecap="round" stroke-miterlimit="10" stroke-width="2"/>
      <line id="Línea_436-7" data-name="Línea 436" x2="70.97" transform="translate(611.095 4851.498)" fill="none" stroke="#12263f" stroke-linecap="round" stroke-miterlimit="10" stroke-width="2"/>
      <line id="Línea_437-7" data-name="Línea 437" x2="70.97" transform="translate(611.095 4861.297)" fill="none" stroke="#12263f" stroke-linecap="round" stroke-miterlimit="10" stroke-width="2"/>
      <line id="Línea_438-7" data-name="Línea 438" x2="17.743" transform="translate(664.321 4877.221)" fill="none" stroke="#12263f" stroke-linecap="round" stroke-miterlimit="10" stroke-width="2.873"/>
    </g>
    <g id="Grupo_128203" data-name="Grupo 128203" transform="translate(505 -100.699)">
      <rect id="Rectángulo_41183-8" data-name="Rectángulo 41183" width="93.155" height="121.868" rx="8.674" transform="translate(600 4770.969)" fill="#fff" stroke="#12263f" stroke-miterlimit="10" stroke-width="1.915"/>
      <line id="Línea_430-6" data-name="Línea 430" x2="35.486" transform="translate(611.095 4792.707)" fill="none" stroke="#12263f" stroke-linecap="round" stroke-miterlimit="10" stroke-width="2"/>
      <line id="Línea_443" data-name="Línea 443" x2="35.486" transform="translate(611.095 4861.301)" fill="none" stroke="#12263f" stroke-linecap="round" stroke-miterlimit="10" stroke-width="2"/>
      <line id="Línea_431-6" data-name="Línea 431" x2="70.97" transform="translate(611.095 4802.504)" fill="none" stroke="#12263f" stroke-linecap="round" stroke-miterlimit="10" stroke-width="2"/>
      <line id="Línea_432-4" data-name="Línea 432" x2="70.97" transform="translate(611.095 4812.303)" fill="none" stroke="#12263f" stroke-linecap="round" stroke-miterlimit="10" stroke-width="2"/>
      <line id="Línea_433-4" data-name="Línea 433" x2="70.97" transform="translate(611.095 4822.1)" fill="none" stroke="#12263f" stroke-linecap="round" stroke-miterlimit="10" stroke-width="2"/>
      <line id="Línea_434-6" data-name="Línea 434" x2="70.97" transform="translate(611.095 4831.902)" fill="none" stroke="#12263f" stroke-linecap="round" stroke-miterlimit="10" stroke-width="2"/>
      <line id="Línea_435-6" data-name="Línea 435" x2="70.97" transform="translate(611.095 4841.701)" fill="none" stroke="#12263f" stroke-linecap="round" stroke-miterlimit="10" stroke-width="2"/>
      <line id="Línea_436-8" data-name="Línea 436" x2="70.97" transform="translate(611.095 4851.498)" fill="none" stroke="#12263f" stroke-linecap="round" stroke-miterlimit="10" stroke-width="2"/>
      <line id="Línea_438-8" data-name="Línea 438" x2="17.743" transform="translate(664.321 4877.221)" fill="none" stroke="#12263f" stroke-linecap="round" stroke-miterlimit="10" stroke-width="2.873"/>
    </g>
    <path id="Trazado_190830" data-name="Trazado 190830" d="M1.5,0h647a1.5,1.5,0,0,1,0,3H1.5a1.5,1.5,0,0,1,0-3Z" transform="translate(580 4840.715)" fill="#592fe6"/>
    <path id="Trazado_190831" data-name="Trazado 190831" d="M10.21,0A10.21,10.21,0,1,1,0,10.21,10.21,10.21,0,0,1,10.21,0Z" transform="translate(986.523 4832.004)" fill="#592fe6"/>
    <path id="Trazado_190832" data-name="Trazado 190832" d="M10.21,0A10.21,10.21,0,1,1,0,10.21,10.21,10.21,0,0,1,10.21,0Z" transform="translate(824.368 4832.004)" fill="#592fe6"/>
    <path id="Trazado_190833" data-name="Trazado 190833" d="M10.21,0A10.21,10.21,0,1,1,0,10.21,10.21,10.21,0,0,1,10.21,0Z" transform="translate(660.835 4832.004)" fill="#592fe6"/>
    <path id="Trazado_190834" data-name="Trazado 190834" d="M10.21,0A10.21,10.21,0,1,1,0,10.21,10.21,10.21,0,0,1,10.21,0Z" transform="translate(1148.679 4832.004)" fill="#592fe6"/>
    <path id="Trazado_190837" data-name="Trazado 190837" d="M19.458,25.045h8.95V29H14.316V7.672h5.142ZM39.277,29a5.574,5.574,0,0,1-.469-1.421A4.59,4.59,0,0,1,35,29.293a5.623,5.623,0,0,1-3.809-1.355,4.313,4.313,0,0,1-1.567-3.406,4.433,4.433,0,0,1,1.9-3.9,9.7,9.7,0,0,1,5.537-1.318h1.523v-.839q0-2.193-1.89-2.193a1.545,1.545,0,0,0-1.758,1.737H30a4.425,4.425,0,0,1,1.956-3.731,8.218,8.218,0,0,1,4.988-1.434,7.205,7.205,0,0,1,4.79,1.479,5.144,5.144,0,0,1,1.8,4.058v7.017a7.186,7.186,0,0,0,.674,3.34V29Zm-3.091-3.223a2.754,2.754,0,0,0,1.531-.4,2.479,2.479,0,0,0,.872-.894V21.954H37.153q-2.578,0-2.578,2.314a1.413,1.413,0,0,0,.454,1.091A1.643,1.643,0,0,0,36.187,25.777ZM58.95,29H54V13.15H58.95ZM53.706,9.049a2.223,2.223,0,0,1,.762-1.739,3.223,3.223,0,0,1,3.955,0,2.223,2.223,0,0,1,.762,1.739,2.223,2.223,0,0,1-.762,1.739,3.223,3.223,0,0,1-3.955,0A2.223,2.223,0,0,1,53.706,9.049Zm12.817,4.1.161,1.86a5.375,5.375,0,0,1,4.526-2.153,4.522,4.522,0,0,1,3.7,1.479,7.044,7.044,0,0,1,1.267,4.453V29H71.226V19a2.675,2.675,0,0,0-.483-1.765,2.236,2.236,0,0,0-1.758-.564,2.354,2.354,0,0,0-2.153,1.143V29H61.895V13.15ZM84.658,9.21v3.94h2.607v3.428H84.658v7.251a1.851,1.851,0,0,0,.322,1.245,1.729,1.729,0,0,0,1.274.352,7.242,7.242,0,0,0,1.23-.088v3.53a9.11,9.11,0,0,1-2.783.425,5.171,5.171,0,0,1-3.765-1.2,4.923,4.923,0,0,1-1.216-3.647V16.578H77.7V13.15h2.021V9.21ZM96.875,29.293a8.148,8.148,0,0,1-5.9-2.175,7.512,7.512,0,0,1-2.256-5.662v-.41a9.734,9.734,0,0,1,.9-4.292,6.592,6.592,0,0,1,2.629-2.878,7.938,7.938,0,0,1,4.1-1.018,6.861,6.861,0,0,1,5.273,2.073,8.145,8.145,0,0,1,1.934,5.779v1.919H93.74A3.558,3.558,0,0,0,94.9,24.723a3.443,3.443,0,0,0,2.314.762,4.437,4.437,0,0,0,3.662-1.641l2.256,2.666a6.306,6.306,0,0,1-2.615,2.029A8.836,8.836,0,0,1,96.875,29.293Zm-.557-12.627q-2.168,0-2.578,2.871h4.98v-.381a2.445,2.445,0,0,0-.6-1.838A2.39,2.39,0,0,0,96.318,16.666Zm8.643,4.292a10.7,10.7,0,0,1,.791-4.248,6.368,6.368,0,0,1,2.271-2.849,5.985,5.985,0,0,1,3.442-1,4.759,4.759,0,0,1,3.867,1.67l.176-1.377h4.482V28.4a6.682,6.682,0,0,1-.974,3.64,6.251,6.251,0,0,1-2.82,2.373,10.365,10.365,0,0,1-4.277.828,8.942,8.942,0,0,1-3.376-.659,6.1,6.1,0,0,1-2.5-1.714l2.065-2.9a4.527,4.527,0,0,0,3.633,1.626q3.281,0,3.281-3.369v-.5a4.636,4.636,0,0,1-3.589,1.567,5.728,5.728,0,0,1-4.687-2.219,9.2,9.2,0,0,1-1.787-5.94Zm4.951.308a5.638,5.638,0,0,0,.732,3.083,2.311,2.311,0,0,0,2.051,1.135,2.622,2.622,0,0,0,2.329-1.069V17.75a2.556,2.556,0,0,0-2.3-1.084,2.326,2.326,0,0,0-2.065,1.179A6.43,6.43,0,0,0,109.912,21.266Zm22.471-3.647-1.626-.117q-2.329,0-2.988,1.465V29h-4.937V13.15h4.629l.161,2.036a3.823,3.823,0,0,1,3.472-2.329,4.814,4.814,0,0,1,1.377.176ZM139.37,29h-4.951V13.15h4.951ZM134.126,9.049a2.223,2.223,0,0,1,.762-1.739,3.223,3.223,0,0,1,3.955,0,2.223,2.223,0,0,1,.762,1.739,2.223,2.223,0,0,1-.762,1.739,3.223,3.223,0,0,1-3.955,0A2.223,2.223,0,0,1,134.126,9.049Zm7.661,11.909a9.682,9.682,0,0,1,1.626-5.933,5.352,5.352,0,0,1,4.541-2.168,4.552,4.552,0,0,1,3.574,1.67V6.5h4.951V29h-4.438l-.249-1.7a4.674,4.674,0,0,1-3.867,1.992,5.342,5.342,0,0,1-4.482-2.168A9.989,9.989,0,0,1,141.787,20.958Zm4.937.308q0,4.219,2.461,4.219a2.43,2.43,0,0,0,2.344-1.377V18.072a2.365,2.365,0,0,0-2.314-1.406q-2.285,0-2.476,3.691ZM168.213,29a5.574,5.574,0,0,1-.469-1.421,4.59,4.59,0,0,1-3.809,1.714,5.623,5.623,0,0,1-3.809-1.355,4.313,4.313,0,0,1-1.567-3.406,4.433,4.433,0,0,1,1.9-3.9A9.7,9.7,0,0,1,166,19.317h1.523v-.839q0-2.193-1.89-2.193a1.545,1.545,0,0,0-1.758,1.737H158.94a4.425,4.425,0,0,1,1.956-3.731,8.218,8.218,0,0,1,4.988-1.434,7.205,7.205,0,0,1,4.79,1.479,5.144,5.144,0,0,1,1.8,4.058v7.017a7.186,7.186,0,0,0,.674,3.34V29Zm-3.091-3.223a2.754,2.754,0,0,0,1.531-.4,2.479,2.479,0,0,0,.872-.894V21.954h-1.436q-2.578,0-2.578,2.314a1.413,1.413,0,0,0,.454,1.091A1.643,1.643,0,0,0,165.122,25.777Zm9.463-4.819a9.682,9.682,0,0,1,1.626-5.933,5.352,5.352,0,0,1,4.541-2.168,4.552,4.552,0,0,1,3.574,1.67V6.5h4.951V29h-4.438l-.249-1.7a4.674,4.674,0,0,1-3.867,1.992,5.342,5.342,0,0,1-4.482-2.168A9.989,9.989,0,0,1,174.585,20.958Zm4.937.308q0,4.219,2.461,4.219a2.43,2.43,0,0,0,2.344-1.377V18.072a2.365,2.365,0,0,0-2.314-1.406q-2.285,0-2.476,3.691Zm19.409-.308a9.682,9.682,0,0,1,1.626-5.933,5.352,5.352,0,0,1,4.541-2.168,4.552,4.552,0,0,1,3.574,1.67V6.5h4.951V29h-4.438l-.249-1.7a4.674,4.674,0,0,1-3.867,1.992,5.342,5.342,0,0,1-4.482-2.168A9.989,9.989,0,0,1,198.931,20.958Zm4.937.308q0,4.219,2.461,4.219a2.43,2.43,0,0,0,2.344-1.377V18.072a2.365,2.365,0,0,0-2.314-1.406q-2.285,0-2.476,3.691ZM224.1,29.293a8.148,8.148,0,0,1-5.9-2.175,7.512,7.512,0,0,1-2.256-5.662v-.41a9.734,9.734,0,0,1,.9-4.292,6.592,6.592,0,0,1,2.629-2.878,7.938,7.938,0,0,1,4.1-1.018,6.861,6.861,0,0,1,5.273,2.073,8.145,8.145,0,0,1,1.934,5.779v1.919h-9.814a3.558,3.558,0,0,0,1.157,2.095,3.443,3.443,0,0,0,2.314.762,4.437,4.437,0,0,0,3.662-1.641l2.256,2.666a6.306,6.306,0,0,1-2.615,2.029A8.836,8.836,0,0,1,224.1,29.293Zm-.557-12.627q-2.168,0-2.578,2.871h4.98v-.381a2.445,2.445,0,0,0-.6-1.838A2.39,2.39,0,0,0,223.54,16.666Zm16.069,4.292a9.682,9.682,0,0,1,1.626-5.933,5.352,5.352,0,0,1,4.541-2.168,4.552,4.552,0,0,1,3.574,1.67V6.5H254.3V29h-4.438l-.249-1.7a4.674,4.674,0,0,1-3.867,1.992,5.342,5.342,0,0,1-4.482-2.168A9.989,9.989,0,0,1,239.609,20.958Zm4.937.308q0,4.219,2.461,4.219a2.43,2.43,0,0,0,2.344-1.377V18.072a2.365,2.365,0,0,0-2.314-1.406q-2.285,0-2.476,3.691ZM266.035,29a5.574,5.574,0,0,1-.469-1.421,4.59,4.59,0,0,1-3.809,1.714,5.623,5.623,0,0,1-3.809-1.355,4.313,4.313,0,0,1-1.567-3.406,4.433,4.433,0,0,1,1.9-3.9,9.7,9.7,0,0,1,5.537-1.318h1.523v-.839q0-2.193-1.89-2.193a1.545,1.545,0,0,0-1.758,1.737h-4.937a4.425,4.425,0,0,1,1.956-3.731,8.218,8.218,0,0,1,4.988-1.434,7.205,7.205,0,0,1,4.79,1.479,5.144,5.144,0,0,1,1.8,4.058v7.017a7.186,7.186,0,0,0,.674,3.34V29Zm-3.091-3.223a2.754,2.754,0,0,0,1.531-.4,2.479,2.479,0,0,0,.872-.894V21.954h-1.436q-2.578,0-2.578,2.314a1.413,1.413,0,0,0,.454,1.091A1.643,1.643,0,0,0,262.944,25.777ZM278.779,9.21v3.94h2.607v3.428h-2.607v7.251a1.851,1.851,0,0,0,.322,1.245,1.729,1.729,0,0,0,1.274.352,7.242,7.242,0,0,0,1.23-.088v3.53a9.11,9.11,0,0,1-2.783.425,5.171,5.171,0,0,1-3.765-1.2,4.923,4.923,0,0,1-1.216-3.647V16.578h-2.021V13.15h2.021V9.21Zm3.486,11.719a9.355,9.355,0,0,1,.923-4.226,6.6,6.6,0,0,1,2.651-2.849,7.985,7.985,0,0,1,4.058-1,7.288,7.288,0,0,1,5.61,2.2,8.46,8.46,0,0,1,2.051,6v.176a8.208,8.208,0,0,1-2.058,5.881,7.307,7.307,0,0,1-5.574,2.175,7.39,7.39,0,0,1-5.435-2.029,7.935,7.935,0,0,1-2.212-5.5Zm4.937.308a5.9,5.9,0,0,0,.688,3.223,2.294,2.294,0,0,0,2.036,1.025q2.637,0,2.7-4.058v-.5q0-4.263-2.725-4.263-2.476,0-2.681,3.677Zm20.83,3.311a1.14,1.14,0,0,0-.659-1.011,10.027,10.027,0,0,0-2.5-.791,11.422,11.422,0,0,1-3.047-1.077,5.1,5.1,0,0,1-1.831-1.619,3.865,3.865,0,0,1-.63-2.183,4.381,4.381,0,0,1,1.8-3.6,7.422,7.422,0,0,1,4.717-1.414,8.223,8.223,0,0,1,5.039,1.421,4.443,4.443,0,0,1,1.9,3.735h-4.951q0-1.9-2.007-1.9a1.989,1.989,0,0,0-1.3.432,1.338,1.338,0,0,0-.527,1.077,1.228,1.228,0,0,0,.645,1.069,6.09,6.09,0,0,0,2.058.674,17.785,17.785,0,0,1,2.483.63q3.574,1.23,3.574,4.409a4.151,4.151,0,0,1-1.926,3.53,8.447,8.447,0,0,1-4.988,1.362,8.62,8.62,0,0,1-3.633-.732,6.075,6.075,0,0,1-2.49-1.992,4.511,4.511,0,0,1-.894-2.651h4.614a1.908,1.908,0,0,0,.732,1.6,3.013,3.013,0,0,0,1.8.505,2.37,2.37,0,0,0,1.516-.41A1.312,1.312,0,0,0,308.032,24.547Zm22.207,4.746a8.148,8.148,0,0,1-5.9-2.175,7.512,7.512,0,0,1-2.256-5.662v-.41a9.734,9.734,0,0,1,.9-4.292,6.592,6.592,0,0,1,2.629-2.878,7.938,7.938,0,0,1,4.1-1.018,6.861,6.861,0,0,1,5.273,2.073,8.145,8.145,0,0,1,1.934,5.779v1.919H327.1a3.558,3.558,0,0,0,1.157,2.095,3.443,3.443,0,0,0,2.314.762,4.437,4.437,0,0,0,3.662-1.641l2.256,2.666a6.306,6.306,0,0,1-2.615,2.029A8.836,8.836,0,0,1,330.239,29.293Zm-.557-12.627q-2.168,0-2.578,2.871h4.98v-.381a2.445,2.445,0,0,0-.6-1.838A2.39,2.39,0,0,0,329.683,16.666Zm15.352,6.46,2.5-9.976h5.2L347.568,29h-5.039l-5.171-15.85h5.215ZM359.419,29h-4.951V13.15h4.951ZM354.175,9.049a2.223,2.223,0,0,1,.762-1.739,3.223,3.223,0,0,1,3.955,0,2.223,2.223,0,0,1,.762,1.739,2.223,2.223,0,0,1-.762,1.739,3.223,3.223,0,0,1-3.955,0A2.223,2.223,0,0,1,354.175,9.049Zm14.033.161v3.94h2.607v3.428h-2.607v7.251a1.851,1.851,0,0,0,.322,1.245,1.729,1.729,0,0,0,1.274.352,7.242,7.242,0,0,0,1.23-.088v3.53a9.11,9.11,0,0,1-2.783.425,5.171,5.171,0,0,1-3.765-1.2,4.923,4.923,0,0,1-1.216-3.647V16.578H361.25V13.15h2.021V9.21ZM381.685,29a5.574,5.574,0,0,1-.469-1.421,4.59,4.59,0,0,1-3.809,1.714,5.623,5.623,0,0,1-3.809-1.355,4.313,4.313,0,0,1-1.567-3.406,4.433,4.433,0,0,1,1.9-3.9,9.7,9.7,0,0,1,5.537-1.318H381v-.839q0-2.193-1.89-2.193a1.545,1.545,0,0,0-1.758,1.737h-4.937a4.425,4.425,0,0,1,1.956-3.731,8.218,8.218,0,0,1,4.988-1.434,7.205,7.205,0,0,1,4.79,1.479,5.144,5.144,0,0,1,1.8,4.058v7.017a7.186,7.186,0,0,0,.674,3.34V29Zm-3.091-3.223a2.754,2.754,0,0,0,1.531-.4,2.479,2.479,0,0,0,.872-.894V21.954h-1.436q-2.578,0-2.578,2.314a1.413,1.413,0,0,0,.454,1.091A1.643,1.643,0,0,0,378.594,25.777Z" transform="translate(600 4508.301)" fill="#12263f"/>
    <path id="Trazado_190835" data-name="Trazado 190835" d="M32.278,19V4.781h4.58a6.737,6.737,0,0,1,3.389.854A6.006,6.006,0,0,1,42.6,8.048a7.283,7.283,0,0,1,.854,3.491v.654a7.325,7.325,0,0,1-.825,3.5A6.032,6.032,0,0,1,40.3,18.116,6.589,6.589,0,0,1,36.956,19ZM35.706,7.428v8.936H36.9a2.666,2.666,0,0,0,2.266-1.05,5.145,5.145,0,0,0,.791-3.12v-.615a5.1,5.1,0,0,0-.791-3.105,2.713,2.713,0,0,0-2.3-1.045ZM51.009,19a3.716,3.716,0,0,1-.312-.947A3.06,3.06,0,0,1,48.157,19.2a3.749,3.749,0,0,1-2.539-.9,2.875,2.875,0,0,1-1.045-2.271,2.955,2.955,0,0,1,1.27-2.6,6.468,6.468,0,0,1,3.691-.879H50.55v-.559q0-1.462-1.26-1.462a1.03,1.03,0,0,0-1.172,1.158H44.827a2.95,2.95,0,0,1,1.3-2.487,5.479,5.479,0,0,1,3.325-.956,4.8,4.8,0,0,1,3.193.986,3.429,3.429,0,0,1,1.2,2.705v4.678a4.79,4.79,0,0,0,.449,2.227V19Zm-2.061-2.148a1.836,1.836,0,0,0,1.021-.264,1.653,1.653,0,0,0,.581-.6V14.3h-.957q-1.719,0-1.719,1.543a.942.942,0,0,0,.3.728A1.1,1.1,0,0,0,48.948,16.852ZM59.5,5.807V8.434h1.738v2.285H59.5v4.834a1.234,1.234,0,0,0,.215.83,1.152,1.152,0,0,0,.85.234,4.828,4.828,0,0,0,.82-.059v2.354a6.074,6.074,0,0,1-1.855.283,3.448,3.448,0,0,1-2.51-.8,3.282,3.282,0,0,1-.811-2.432V10.719H54.866V8.434h1.348V5.807Zm2.324,7.813a6.236,6.236,0,0,1,.615-2.817,4.4,4.4,0,0,1,1.768-1.9,5.323,5.323,0,0,1,2.705-.664,4.858,4.858,0,0,1,3.74,1.47,5.64,5.64,0,0,1,1.367,4v.117a5.472,5.472,0,0,1-1.372,3.921,4.871,4.871,0,0,1-3.716,1.45,4.927,4.927,0,0,1-3.623-1.353,5.29,5.29,0,0,1-1.475-3.667Zm3.291.205a3.932,3.932,0,0,0,.459,2.148,1.529,1.529,0,0,0,1.357.684q1.758,0,1.8-2.705v-.332q0-2.842-1.816-2.842-1.65,0-1.787,2.451Zm13.887,2.207a.76.76,0,0,0-.439-.674,6.685,6.685,0,0,0-1.67-.527,7.615,7.615,0,0,1-2.031-.718,3.4,3.4,0,0,1-1.221-1.079,2.577,2.577,0,0,1-.42-1.455,2.92,2.92,0,0,1,1.2-2.4,4.948,4.948,0,0,1,3.145-.942,5.482,5.482,0,0,1,3.359.947,2.962,2.962,0,0,1,1.27,2.49H78.9q0-1.27-1.338-1.27a1.326,1.326,0,0,0-.869.288.892.892,0,0,0-.352.718.819.819,0,0,0,.43.713,4.06,4.06,0,0,0,1.372.449,11.857,11.857,0,0,1,1.655.42,3.007,3.007,0,0,1,2.383,2.939A2.767,2.767,0,0,1,80.9,18.287a5.631,5.631,0,0,1-3.325.908,5.747,5.747,0,0,1-2.422-.488,4.05,4.05,0,0,1-1.66-1.328,3.007,3.007,0,0,1-.6-1.768H75.97a1.272,1.272,0,0,0,.488,1.069,2.009,2.009,0,0,0,1.2.337,1.58,1.58,0,0,0,1.011-.273A.875.875,0,0,0,79.007,16.031ZM8.25,35.639a6.455,6.455,0,0,1,1.084-3.955,3.568,3.568,0,0,1,3.027-1.445,3.035,3.035,0,0,1,2.383,1.113V26h3.3V41H15.086l-.166-1.133A3.116,3.116,0,0,1,12.342,41.2,3.562,3.562,0,0,1,9.354,39.75,6.659,6.659,0,0,1,8.25,35.639Zm3.291.205q0,2.813,1.641,2.813a1.62,1.62,0,0,0,1.563-.918V33.715a1.576,1.576,0,0,0-1.543-.937q-1.523,0-1.65,2.461Zm14.668,4.014A3.393,3.393,0,0,1,23.387,41.2a3.328,3.328,0,0,1-2.632-1.011,4.251,4.251,0,0,1-.894-2.905V30.434h3.291V37.3a1.183,1.183,0,0,0,1.318,1.357,1.72,1.72,0,0,0,1.611-.811V30.434h3.311V41H26.307ZM41,35.795A6.372,6.372,0,0,1,39.9,39.726,3.554,3.554,0,0,1,36.9,41.2a3.046,3.046,0,0,1-2.393-1.064v4.932H31.219V30.434h3.076l.1.977a3.046,3.046,0,0,1,2.49-1.172,3.582,3.582,0,0,1,3.037,1.44A6.45,6.45,0,0,1,41,35.639Zm-3.291-.205q0-2.812-1.641-2.812a1.549,1.549,0,0,0-1.562.84v4.16a1.6,1.6,0,0,0,1.582.879q1.572,0,1.621-2.715ZM45.926,41h-3.3V26h3.3Zm5.5,0h-3.3V30.434h3.3Zm-3.5-13.3a1.482,1.482,0,0,1,.508-1.159,2.149,2.149,0,0,1,2.637,0,1.577,1.577,0,0,1,0,2.319,2.149,2.149,0,0,1-2.637,0A1.482,1.482,0,0,1,47.928,27.7Zm9.99,10.957a1.464,1.464,0,0,0,1.074-.376,1.379,1.379,0,0,0,.371-1.05h3.086A3.653,3.653,0,0,1,61.2,40.082,4.631,4.631,0,0,1,58,41.2a4.689,4.689,0,0,1-3.633-1.445,5.7,5.7,0,0,1-1.328-4v-.137a6.436,6.436,0,0,1,.591-2.827,4.3,4.3,0,0,1,1.7-1.885,5.081,5.081,0,0,1,2.637-.659,4.573,4.573,0,0,1,3.271,1.143,4.053,4.053,0,0,1,1.211,3.1H59.363a1.807,1.807,0,0,0-.4-1.26,1.382,1.382,0,0,0-1.074-.439q-1.279,0-1.494,1.631a11.507,11.507,0,0,0-.068,1.426,4.52,4.52,0,0,0,.381,2.207A1.319,1.319,0,0,0,57.918,38.656ZM69.793,41a3.716,3.716,0,0,1-.312-.947A3.06,3.06,0,0,1,66.941,41.2a3.749,3.749,0,0,1-2.539-.9,2.875,2.875,0,0,1-1.045-2.271,2.955,2.955,0,0,1,1.27-2.6,6.468,6.468,0,0,1,3.691-.879h1.016v-.559q0-1.462-1.26-1.462A1.03,1.03,0,0,0,66.9,33.681H63.611a2.95,2.95,0,0,1,1.3-2.487,5.479,5.479,0,0,1,3.325-.956,4.8,4.8,0,0,1,3.193.986,3.429,3.429,0,0,1,1.2,2.705v4.678a4.79,4.79,0,0,0,.449,2.227V41Zm-2.061-2.148a1.836,1.836,0,0,0,1.021-.264,1.653,1.653,0,0,0,.581-.6V36.3h-.957q-1.719,0-1.719,1.543a.942.942,0,0,0,.3.728A1.1,1.1,0,0,0,67.732,38.852Zm6.309-3.213a6.455,6.455,0,0,1,1.084-3.955,3.568,3.568,0,0,1,3.027-1.445,3.035,3.035,0,0,1,2.383,1.113V26h3.3V41H80.877l-.166-1.133A3.116,3.116,0,0,1,78.133,41.2a3.562,3.562,0,0,1-2.988-1.445A6.659,6.659,0,0,1,74.041,35.639Zm3.291.205q0,2.813,1.641,2.813a1.62,1.62,0,0,0,1.563-.918V33.715a1.576,1.576,0,0,0-1.543-.937q-1.523,0-1.65,2.461Zm7.959-.225a6.236,6.236,0,0,1,.615-2.817,4.4,4.4,0,0,1,1.768-1.9,5.323,5.323,0,0,1,2.705-.664,4.858,4.858,0,0,1,3.74,1.47,5.64,5.64,0,0,1,1.367,4v.117a5.472,5.472,0,0,1-1.372,3.921A4.871,4.871,0,0,1,90.4,41.2a4.927,4.927,0,0,1-3.623-1.353A5.29,5.29,0,0,1,85.3,36.176Zm3.291.205a3.932,3.932,0,0,0,.459,2.148,1.529,1.529,0,0,0,1.357.684q1.758,0,1.8-2.705v-.332q0-2.842-1.816-2.842-1.65,0-1.787,2.451Zm13.887,2.207a.76.76,0,0,0-.439-.674,6.685,6.685,0,0,0-1.67-.527,7.615,7.615,0,0,1-2.031-.718,3.4,3.4,0,0,1-1.221-1.079,2.577,2.577,0,0,1-.42-1.455,2.92,2.92,0,0,1,1.2-2.4,4.948,4.948,0,0,1,3.145-.942,5.482,5.482,0,0,1,3.359.947,2.962,2.962,0,0,1,1.27,2.49h-3.3q0-1.27-1.338-1.27a1.326,1.326,0,0,0-.869.288.892.892,0,0,0-.352.718.819.819,0,0,0,.43.713,4.06,4.06,0,0,0,1.372.449,11.856,11.856,0,0,1,1.655.42,3.007,3.007,0,0,1,2.383,2.939,2.767,2.767,0,0,1-1.284,2.354,5.631,5.631,0,0,1-3.325.908,5.747,5.747,0,0,1-2.422-.488,4.05,4.05,0,0,1-1.66-1.328,3.007,3.007,0,0,1-.6-1.768h3.076a1.272,1.272,0,0,0,.488,1.069,2.009,2.009,0,0,0,1.2.337,1.58,1.58,0,0,0,1.011-.273A.875.875,0,0,0,102.469,38.031Z" transform="translate(614 4863.301)" fill="#12263f"/>
    <path id="Trazado_190827" data-name="Trazado 190827" d="M32.278,19V4.781h4.58a6.737,6.737,0,0,1,3.389.854A6.006,6.006,0,0,1,42.6,8.048a7.283,7.283,0,0,1,.854,3.491v.654a7.325,7.325,0,0,1-.825,3.5A6.032,6.032,0,0,1,40.3,18.116,6.589,6.589,0,0,1,36.956,19ZM35.706,7.428v8.936H36.9a2.666,2.666,0,0,0,2.266-1.05,5.145,5.145,0,0,0,.791-3.12v-.615a5.1,5.1,0,0,0-.791-3.105,2.713,2.713,0,0,0-2.3-1.045ZM51.009,19a3.716,3.716,0,0,1-.312-.947A3.06,3.06,0,0,1,48.157,19.2a3.749,3.749,0,0,1-2.539-.9,2.875,2.875,0,0,1-1.045-2.271,2.955,2.955,0,0,1,1.27-2.6,6.468,6.468,0,0,1,3.691-.879H50.55v-.559q0-1.462-1.26-1.462a1.03,1.03,0,0,0-1.172,1.158H44.827a2.95,2.95,0,0,1,1.3-2.487,5.479,5.479,0,0,1,3.325-.956,4.8,4.8,0,0,1,3.193.986,3.429,3.429,0,0,1,1.2,2.705v4.678a4.79,4.79,0,0,0,.449,2.227V19Zm-2.061-2.148a1.836,1.836,0,0,0,1.021-.264,1.653,1.653,0,0,0,.581-.6V14.3h-.957q-1.719,0-1.719,1.543a.942.942,0,0,0,.3.728A1.1,1.1,0,0,0,48.948,16.852ZM59.5,5.807V8.434h1.738v2.285H59.5v4.834a1.234,1.234,0,0,0,.215.83,1.152,1.152,0,0,0,.85.234,4.828,4.828,0,0,0,.82-.059v2.354a6.074,6.074,0,0,1-1.855.283,3.448,3.448,0,0,1-2.51-.8,3.282,3.282,0,0,1-.811-2.432V10.719H54.866V8.434h1.348V5.807Zm2.324,7.813a6.236,6.236,0,0,1,.615-2.817,4.4,4.4,0,0,1,1.768-1.9,5.323,5.323,0,0,1,2.705-.664,4.858,4.858,0,0,1,3.74,1.47,5.64,5.64,0,0,1,1.367,4v.117a5.472,5.472,0,0,1-1.372,3.921,4.871,4.871,0,0,1-3.716,1.45,4.927,4.927,0,0,1-3.623-1.353,5.29,5.29,0,0,1-1.475-3.667Zm3.291.205a3.932,3.932,0,0,0,.459,2.148,1.529,1.529,0,0,0,1.357.684q1.758,0,1.8-2.705v-.332q0-2.842-1.816-2.842-1.65,0-1.787,2.451Zm13.887,2.207a.76.76,0,0,0-.439-.674,6.685,6.685,0,0,0-1.67-.527,7.615,7.615,0,0,1-2.031-.718,3.4,3.4,0,0,1-1.221-1.079,2.577,2.577,0,0,1-.42-1.455,2.92,2.92,0,0,1,1.2-2.4,4.948,4.948,0,0,1,3.145-.942,5.482,5.482,0,0,1,3.359.947,2.962,2.962,0,0,1,1.27,2.49H78.9q0-1.27-1.338-1.27a1.326,1.326,0,0,0-.869.288.892.892,0,0,0-.352.718.819.819,0,0,0,.43.713,4.06,4.06,0,0,0,1.372.449,11.857,11.857,0,0,1,1.655.42,3.007,3.007,0,0,1,2.383,2.939A2.767,2.767,0,0,1,80.9,18.287a5.631,5.631,0,0,1-3.325.908,5.747,5.747,0,0,1-2.422-.488,4.05,4.05,0,0,1-1.66-1.328,3.007,3.007,0,0,1-.6-1.768H75.97a1.272,1.272,0,0,0,.488,1.069,2.009,2.009,0,0,0,1.2.337,1.58,1.58,0,0,0,1.011-.273A.875.875,0,0,0,79.007,16.031ZM18.592,41V32.719H17.059V30.434h1.533v-.84a3.651,3.651,0,0,1,1.064-2.8,4.206,4.206,0,0,1,2.988-1A6.544,6.544,0,0,1,24.188,26l.01,2.422a3.007,3.007,0,0,0-.811-.088q-1.494,0-1.494,1.289v.811h2.061v2.285H21.893V41Zm12.471,0a3.716,3.716,0,0,1-.312-.947A3.06,3.06,0,0,1,28.211,41.2a3.749,3.749,0,0,1-2.539-.9,2.875,2.875,0,0,1-1.045-2.271,2.955,2.955,0,0,1,1.27-2.6,6.468,6.468,0,0,1,3.691-.879H30.6v-.559q0-1.462-1.26-1.462a1.03,1.03,0,0,0-1.172,1.158H24.881a2.95,2.95,0,0,1,1.3-2.487,5.479,5.479,0,0,1,3.325-.956,4.8,4.8,0,0,1,3.193.986,3.429,3.429,0,0,1,1.2,2.705v4.678a4.79,4.79,0,0,0,.449,2.227V41ZM29,38.852a1.836,1.836,0,0,0,1.021-.264,1.653,1.653,0,0,0,.581-.6V36.3h-.957q-1.719,0-1.719,1.543a.942.942,0,0,0,.3.728A1.1,1.1,0,0,0,29,38.852ZM39.2,41H35.9V26h3.3Zm5.859-13.193v2.627h1.738v2.285H45.057v4.834a1.234,1.234,0,0,0,.215.83,1.152,1.152,0,0,0,.85.234,4.828,4.828,0,0,0,.82-.059v2.354a6.074,6.074,0,0,1-1.855.283,3.448,3.448,0,0,1-2.51-.8,3.282,3.282,0,0,1-.811-2.432V32.719H40.418V30.434h1.348V27.807ZM54.041,41a3.716,3.716,0,0,1-.312-.947A3.06,3.06,0,0,1,51.189,41.2a3.749,3.749,0,0,1-2.539-.9,2.875,2.875,0,0,1-1.045-2.271,2.955,2.955,0,0,1,1.27-2.6,6.468,6.468,0,0,1,3.691-.879h1.016v-.559q0-1.462-1.26-1.462a1.03,1.03,0,0,0-1.172,1.158H47.859a2.95,2.95,0,0,1,1.3-2.487,5.479,5.479,0,0,1,3.325-.956,4.8,4.8,0,0,1,3.193.986,3.429,3.429,0,0,1,1.2,2.705v4.678a4.79,4.79,0,0,0,.449,2.227V41ZM51.98,38.852A1.836,1.836,0,0,0,53,38.588a1.653,1.653,0,0,0,.581-.6V36.3h-.957q-1.719,0-1.719,1.543a.942.942,0,0,0,.3.728A1.1,1.1,0,0,0,51.98,38.852Zm9.746-8.418.107,1.24a3.583,3.583,0,0,1,3.018-1.436,3.015,3.015,0,0,1,2.466.986,4.7,4.7,0,0,1,.845,2.969V41h-3.3V34.33a1.783,1.783,0,0,0-.322-1.177,1.491,1.491,0,0,0-1.172-.376,1.569,1.569,0,0,0-1.436.762V41H58.641V30.434Zm12.09-2.627v2.627h1.738v2.285H73.816v4.834a1.234,1.234,0,0,0,.215.83,1.152,1.152,0,0,0,.85.234,4.828,4.828,0,0,0,.82-.059v2.354a6.074,6.074,0,0,1-1.855.283,3.448,3.448,0,0,1-2.51-.8,3.282,3.282,0,0,1-.811-2.432V32.719H69.178V30.434h1.348V27.807ZM81.961,41.2a5.432,5.432,0,0,1-3.936-1.45,5.008,5.008,0,0,1-1.5-3.774V35.7a6.489,6.489,0,0,1,.6-2.861,4.395,4.395,0,0,1,1.753-1.919,5.292,5.292,0,0,1,2.734-.679,4.574,4.574,0,0,1,3.516,1.382,5.43,5.43,0,0,1,1.289,3.853v1.279H79.871a2.372,2.372,0,0,0,.771,1.4,2.3,2.3,0,0,0,1.543.508,2.958,2.958,0,0,0,2.441-1.094l1.5,1.777a4.2,4.2,0,0,1-1.743,1.353A5.891,5.891,0,0,1,81.961,41.2Zm-.371-8.418q-1.445,0-1.719,1.914h3.32v-.254a1.63,1.63,0,0,0-.4-1.226A1.593,1.593,0,0,0,81.59,32.777Zm11.68,5.254a.76.76,0,0,0-.439-.674,6.685,6.685,0,0,0-1.67-.527,7.615,7.615,0,0,1-2.031-.718,3.4,3.4,0,0,1-1.221-1.079,2.577,2.577,0,0,1-.42-1.455,2.92,2.92,0,0,1,1.2-2.4,4.948,4.948,0,0,1,3.145-.942,5.482,5.482,0,0,1,3.359.947,2.962,2.962,0,0,1,1.27,2.49h-3.3q0-1.27-1.338-1.27a1.326,1.326,0,0,0-.869.288.892.892,0,0,0-.352.718.819.819,0,0,0,.43.713,4.06,4.06,0,0,0,1.372.449,11.856,11.856,0,0,1,1.655.42,3.007,3.007,0,0,1,2.383,2.939,2.767,2.767,0,0,1-1.284,2.354,5.631,5.631,0,0,1-3.325.908,5.747,5.747,0,0,1-2.422-.488,4.05,4.05,0,0,1-1.66-1.328,3.007,3.007,0,0,1-.6-1.768h3.076a1.272,1.272,0,0,0,.488,1.069,2.009,2.009,0,0,0,1.2.337,1.58,1.58,0,0,0,1.011-.273A.875.875,0,0,0,93.27,38.031Z" transform="translate(780 4863.301)" fill="#12263f"/>
    <path id="Trazado_190828" data-name="Trazado 190828" d="M32.278,19V4.781h4.58a6.737,6.737,0,0,1,3.389.854A6.006,6.006,0,0,1,42.6,8.048a7.283,7.283,0,0,1,.854,3.491v.654a7.325,7.325,0,0,1-.825,3.5A6.032,6.032,0,0,1,40.3,18.116,6.589,6.589,0,0,1,36.956,19ZM35.706,7.428v8.936H36.9a2.666,2.666,0,0,0,2.266-1.05,5.145,5.145,0,0,0,.791-3.12v-.615a5.1,5.1,0,0,0-.791-3.105,2.713,2.713,0,0,0-2.3-1.045ZM51.009,19a3.716,3.716,0,0,1-.312-.947A3.06,3.06,0,0,1,48.157,19.2a3.749,3.749,0,0,1-2.539-.9,2.875,2.875,0,0,1-1.045-2.271,2.955,2.955,0,0,1,1.27-2.6,6.468,6.468,0,0,1,3.691-.879H50.55v-.559q0-1.462-1.26-1.462a1.03,1.03,0,0,0-1.172,1.158H44.827a2.95,2.95,0,0,1,1.3-2.487,5.479,5.479,0,0,1,3.325-.956,4.8,4.8,0,0,1,3.193.986,3.429,3.429,0,0,1,1.2,2.705v4.678a4.79,4.79,0,0,0,.449,2.227V19Zm-2.061-2.148a1.836,1.836,0,0,0,1.021-.264,1.653,1.653,0,0,0,.581-.6V14.3h-.957q-1.719,0-1.719,1.543a.942.942,0,0,0,.3.728A1.1,1.1,0,0,0,48.948,16.852ZM59.5,5.807V8.434h1.738v2.285H59.5v4.834a1.234,1.234,0,0,0,.215.83,1.152,1.152,0,0,0,.85.234,4.828,4.828,0,0,0,.82-.059v2.354a6.074,6.074,0,0,1-1.855.283,3.448,3.448,0,0,1-2.51-.8,3.282,3.282,0,0,1-.811-2.432V10.719H54.866V8.434h1.348V5.807Zm2.324,7.813a6.236,6.236,0,0,1,.615-2.817,4.4,4.4,0,0,1,1.768-1.9,5.323,5.323,0,0,1,2.705-.664,4.858,4.858,0,0,1,3.74,1.47,5.64,5.64,0,0,1,1.367,4v.117a5.472,5.472,0,0,1-1.372,3.921,4.871,4.871,0,0,1-3.716,1.45,4.927,4.927,0,0,1-3.623-1.353,5.29,5.29,0,0,1-1.475-3.667Zm3.291.205a3.932,3.932,0,0,0,.459,2.148,1.529,1.529,0,0,0,1.357.684q1.758,0,1.8-2.705v-.332q0-2.842-1.816-2.842-1.65,0-1.787,2.451Zm13.887,2.207a.76.76,0,0,0-.439-.674,6.685,6.685,0,0,0-1.67-.527,7.615,7.615,0,0,1-2.031-.718,3.4,3.4,0,0,1-1.221-1.079,2.577,2.577,0,0,1-.42-1.455,2.92,2.92,0,0,1,1.2-2.4,4.948,4.948,0,0,1,3.145-.942,5.482,5.482,0,0,1,3.359.947,2.962,2.962,0,0,1,1.27,2.49H78.9q0-1.27-1.338-1.27a1.326,1.326,0,0,0-.869.288.892.892,0,0,0-.352.718.819.819,0,0,0,.43.713,4.06,4.06,0,0,0,1.372.449,11.857,11.857,0,0,1,1.655.42,3.007,3.007,0,0,1,2.383,2.939A2.767,2.767,0,0,1,80.9,18.287a5.631,5.631,0,0,1-3.325.908,5.747,5.747,0,0,1-2.422-.488,4.05,4.05,0,0,1-1.66-1.328,3.007,3.007,0,0,1-.6-1.768H75.97a1.272,1.272,0,0,0,.488,1.069,2.009,2.009,0,0,0,1.2.337,1.58,1.58,0,0,0,1.011-.273A.875.875,0,0,0,79.007,16.031ZM21.629,41a3.716,3.716,0,0,1-.312-.947A3.06,3.06,0,0,1,18.777,41.2a3.749,3.749,0,0,1-2.539-.9,2.875,2.875,0,0,1-1.045-2.271,2.955,2.955,0,0,1,1.27-2.6,6.468,6.468,0,0,1,3.691-.879H21.17v-.559q0-1.462-1.26-1.462a1.03,1.03,0,0,0-1.172,1.158H15.447a2.95,2.95,0,0,1,1.3-2.487,5.479,5.479,0,0,1,3.325-.956,4.8,4.8,0,0,1,3.193.986,3.429,3.429,0,0,1,1.2,2.705v4.678a4.79,4.79,0,0,0,.449,2.227V41Zm-2.061-2.148a1.836,1.836,0,0,0,1.021-.264,1.653,1.653,0,0,0,.581-.6V36.3h-.957q-1.719,0-1.719,1.543a.942.942,0,0,0,.3.728A1.1,1.1,0,0,0,19.568,38.852ZM29.764,41h-3.3V26h3.3Zm5.859-13.193v2.627h1.738v2.285H35.623v4.834a1.234,1.234,0,0,0,.215.83,1.152,1.152,0,0,0,.85.234,4.828,4.828,0,0,0,.82-.059v2.354a6.074,6.074,0,0,1-1.855.283,3.448,3.448,0,0,1-2.51-.8,3.282,3.282,0,0,1-.811-2.432V32.719H30.984V30.434h1.348V27.807ZM43.768,41.2a5.432,5.432,0,0,1-3.936-1.45,5.008,5.008,0,0,1-1.5-3.774V35.7a6.489,6.489,0,0,1,.6-2.861,4.395,4.395,0,0,1,1.753-1.919,5.292,5.292,0,0,1,2.734-.679,4.574,4.574,0,0,1,3.516,1.382,5.43,5.43,0,0,1,1.289,3.853v1.279H41.678a2.372,2.372,0,0,0,.771,1.4,2.3,2.3,0,0,0,1.543.508,2.958,2.958,0,0,0,2.441-1.094l1.5,1.777a4.2,4.2,0,0,1-1.743,1.353A5.891,5.891,0,0,1,43.768,41.2ZM43.4,32.777q-1.445,0-1.719,1.914H45v-.254a1.63,1.63,0,0,0-.4-1.226A1.593,1.593,0,0,0,43.4,32.777Zm12.539.635-1.084-.078a1.947,1.947,0,0,0-1.992.977V41H49.568V30.434h3.086l.107,1.357a2.548,2.548,0,0,1,2.314-1.553,3.209,3.209,0,0,1,.918.117ZM62.781,41a3.716,3.716,0,0,1-.312-.947A3.06,3.06,0,0,1,59.93,41.2a3.749,3.749,0,0,1-2.539-.9,2.875,2.875,0,0,1-1.045-2.271,2.955,2.955,0,0,1,1.27-2.6,6.468,6.468,0,0,1,3.691-.879h1.016v-.559q0-1.462-1.26-1.462a1.03,1.03,0,0,0-1.172,1.158H56.6a2.95,2.95,0,0,1,1.3-2.487,5.479,5.479,0,0,1,3.325-.956,4.8,4.8,0,0,1,3.193.986,3.429,3.429,0,0,1,1.2,2.705v4.678a4.79,4.79,0,0,0,.449,2.227V41Zm-2.061-2.148a1.836,1.836,0,0,0,1.021-.264,1.653,1.653,0,0,0,.581-.6V36.3h-.957q-1.719,0-1.719,1.543a.942.942,0,0,0,.3.728A1.1,1.1,0,0,0,60.721,38.852Zm6.309-3.213a6.455,6.455,0,0,1,1.084-3.955,3.568,3.568,0,0,1,3.027-1.445,3.035,3.035,0,0,1,2.383,1.113V26h3.3V41H73.865L73.7,39.867A3.116,3.116,0,0,1,71.121,41.2a3.562,3.562,0,0,1-2.988-1.445A6.659,6.659,0,0,1,67.029,35.639Zm3.291.205q0,2.813,1.641,2.813a1.62,1.62,0,0,0,1.563-.918V33.715a1.576,1.576,0,0,0-1.543-.937q-1.523,0-1.65,2.461Zm7.959-.225a6.236,6.236,0,0,1,.615-2.817,4.4,4.4,0,0,1,1.768-1.9,5.323,5.323,0,0,1,2.705-.664,4.858,4.858,0,0,1,3.74,1.47,5.64,5.64,0,0,1,1.367,4v.117A5.472,5.472,0,0,1,87.1,39.745a4.871,4.871,0,0,1-3.716,1.45,4.927,4.927,0,0,1-3.623-1.353,5.29,5.29,0,0,1-1.475-3.667Zm3.291.205a3.932,3.932,0,0,0,.459,2.148,1.529,1.529,0,0,0,1.357.684q1.758,0,1.8-2.705v-.332q0-2.842-1.816-2.842-1.65,0-1.787,2.451Zm13.887,2.207a.76.76,0,0,0-.439-.674,6.685,6.685,0,0,0-1.67-.527,7.615,7.615,0,0,1-2.031-.718A3.4,3.4,0,0,1,90.1,35.033a2.577,2.577,0,0,1-.42-1.455,2.92,2.92,0,0,1,1.2-2.4,4.948,4.948,0,0,1,3.145-.942,5.482,5.482,0,0,1,3.359.947,2.962,2.962,0,0,1,1.27,2.49h-3.3q0-1.27-1.338-1.27a1.326,1.326,0,0,0-.869.288.892.892,0,0,0-.352.718.819.819,0,0,0,.43.713,4.06,4.06,0,0,0,1.372.449,11.856,11.856,0,0,1,1.655.42,3.007,3.007,0,0,1,2.383,2.939,2.767,2.767,0,0,1-1.284,2.354,5.631,5.631,0,0,1-3.325.908,5.747,5.747,0,0,1-2.422-.488,4.05,4.05,0,0,1-1.66-1.328,3.007,3.007,0,0,1-.6-1.768H92.42a1.272,1.272,0,0,0,.488,1.069,2.009,2.009,0,0,0,1.2.337,1.58,1.58,0,0,0,1.011-.273A.875.875,0,0,0,95.457,38.031Z" transform="translate(940 4863.301)" fill="#12263f"/>
    <path id="Trazado_190829" data-name="Trazado 190829" d="M32.278,19V4.781h4.58a6.737,6.737,0,0,1,3.389.854A6.006,6.006,0,0,1,42.6,8.048a7.283,7.283,0,0,1,.854,3.491v.654a7.325,7.325,0,0,1-.825,3.5A6.032,6.032,0,0,1,40.3,18.116,6.589,6.589,0,0,1,36.956,19ZM35.706,7.428v8.936H36.9a2.666,2.666,0,0,0,2.266-1.05,5.145,5.145,0,0,0,.791-3.12v-.615a5.1,5.1,0,0,0-.791-3.105,2.713,2.713,0,0,0-2.3-1.045ZM51.009,19a3.716,3.716,0,0,1-.312-.947A3.06,3.06,0,0,1,48.157,19.2a3.749,3.749,0,0,1-2.539-.9,2.875,2.875,0,0,1-1.045-2.271,2.955,2.955,0,0,1,1.27-2.6,6.468,6.468,0,0,1,3.691-.879H50.55v-.559q0-1.462-1.26-1.462a1.03,1.03,0,0,0-1.172,1.158H44.827a2.95,2.95,0,0,1,1.3-2.487,5.479,5.479,0,0,1,3.325-.956,4.8,4.8,0,0,1,3.193.986,3.429,3.429,0,0,1,1.2,2.705v4.678a4.79,4.79,0,0,0,.449,2.227V19Zm-2.061-2.148a1.836,1.836,0,0,0,1.021-.264,1.653,1.653,0,0,0,.581-.6V14.3h-.957q-1.719,0-1.719,1.543a.942.942,0,0,0,.3.728A1.1,1.1,0,0,0,48.948,16.852ZM59.5,5.807V8.434h1.738v2.285H59.5v4.834a1.234,1.234,0,0,0,.215.83,1.152,1.152,0,0,0,.85.234,4.828,4.828,0,0,0,.82-.059v2.354a6.074,6.074,0,0,1-1.855.283,3.448,3.448,0,0,1-2.51-.8,3.282,3.282,0,0,1-.811-2.432V10.719H54.866V8.434h1.348V5.807Zm2.324,7.813a6.236,6.236,0,0,1,.615-2.817,4.4,4.4,0,0,1,1.768-1.9,5.323,5.323,0,0,1,2.705-.664,4.858,4.858,0,0,1,3.74,1.47,5.64,5.64,0,0,1,1.367,4v.117a5.472,5.472,0,0,1-1.372,3.921,4.871,4.871,0,0,1-3.716,1.45,4.927,4.927,0,0,1-3.623-1.353,5.29,5.29,0,0,1-1.475-3.667Zm3.291.205a3.932,3.932,0,0,0,.459,2.148,1.529,1.529,0,0,0,1.357.684q1.758,0,1.8-2.705v-.332q0-2.842-1.816-2.842-1.65,0-1.787,2.451Zm13.887,2.207a.76.76,0,0,0-.439-.674,6.685,6.685,0,0,0-1.67-.527,7.615,7.615,0,0,1-2.031-.718,3.4,3.4,0,0,1-1.221-1.079,2.577,2.577,0,0,1-.42-1.455,2.92,2.92,0,0,1,1.2-2.4,4.948,4.948,0,0,1,3.145-.942,5.482,5.482,0,0,1,3.359.947,2.962,2.962,0,0,1,1.27,2.49H78.9q0-1.27-1.338-1.27a1.326,1.326,0,0,0-.869.288.892.892,0,0,0-.352.718.819.819,0,0,0,.43.713,4.06,4.06,0,0,0,1.372.449,11.857,11.857,0,0,1,1.655.42,3.007,3.007,0,0,1,2.383,2.939A2.767,2.767,0,0,1,80.9,18.287a5.631,5.631,0,0,1-3.325.908,5.747,5.747,0,0,1-2.422-.488,4.05,4.05,0,0,1-1.66-1.328,3.007,3.007,0,0,1-.6-1.768H75.97a1.272,1.272,0,0,0,.488,1.069,2.009,2.009,0,0,0,1.2.337,1.58,1.58,0,0,0,1.011-.273A.875.875,0,0,0,79.007,16.031ZM10.047,41h-3.3V30.434h3.3Zm-3.5-13.3a1.482,1.482,0,0,1,.508-1.159,1.909,1.909,0,0,1,1.318-.452A1.909,1.909,0,0,1,9.7,26.54a1.577,1.577,0,0,1,0,2.319,1.909,1.909,0,0,1-1.318.452,1.909,1.909,0,0,1-1.318-.452A1.482,1.482,0,0,1,6.551,27.7ZM15.1,30.434l.107,1.24a3.583,3.583,0,0,1,3.018-1.436,3.015,3.015,0,0,1,2.466.986,4.7,4.7,0,0,1,.845,2.969V41h-3.3V34.33a1.783,1.783,0,0,0-.322-1.177,1.491,1.491,0,0,0-1.172-.376,1.569,1.569,0,0,0-1.436.762V41H12.01V30.434ZM27.82,38.656a1.464,1.464,0,0,0,1.074-.376,1.379,1.379,0,0,0,.371-1.05h3.086a3.653,3.653,0,0,1-1.245,2.852A4.631,4.631,0,0,1,27.9,41.2a4.689,4.689,0,0,1-3.633-1.445,5.7,5.7,0,0,1-1.328-4v-.137a6.436,6.436,0,0,1,.591-2.827,4.3,4.3,0,0,1,1.7-1.885,5.081,5.081,0,0,1,2.637-.659,4.573,4.573,0,0,1,3.271,1.143,4.053,4.053,0,0,1,1.211,3.1H29.266a1.807,1.807,0,0,0-.4-1.26,1.382,1.382,0,0,0-1.074-.439q-1.279,0-1.494,1.631a11.508,11.508,0,0,0-.068,1.426,4.52,4.52,0,0,0,.381,2.207A1.319,1.319,0,0,0,27.82,38.656Zm5.508-3.037a6.236,6.236,0,0,1,.615-2.817,4.4,4.4,0,0,1,1.768-1.9,5.323,5.323,0,0,1,2.705-.664,4.858,4.858,0,0,1,3.74,1.47,5.64,5.64,0,0,1,1.367,4v.117a5.472,5.472,0,0,1-1.372,3.921,4.871,4.871,0,0,1-3.716,1.45,4.927,4.927,0,0,1-3.623-1.353,5.29,5.29,0,0,1-1.475-3.667Zm3.291.205a3.932,3.932,0,0,0,.459,2.148,1.529,1.529,0,0,0,1.357.684q1.758,0,1.8-2.705v-.332q0-2.842-1.816-2.842-1.65,0-1.787,2.451Zm14.746-2.412-1.084-.078a1.947,1.947,0,0,0-1.992.977V41H45V30.434h3.086l.107,1.357a2.548,2.548,0,0,1,2.314-1.553,3.209,3.209,0,0,1,.918.117Zm7.578,0-1.084-.078a1.947,1.947,0,0,0-1.992.977V41H52.576V30.434h3.086l.107,1.357a2.548,2.548,0,0,1,2.314-1.553,3.209,3.209,0,0,1,.918.117ZM65.057,41.2a5.432,5.432,0,0,1-3.936-1.45,5.008,5.008,0,0,1-1.5-3.774V35.7a6.489,6.489,0,0,1,.6-2.861,4.395,4.395,0,0,1,1.753-1.919,5.292,5.292,0,0,1,2.734-.679,4.574,4.574,0,0,1,3.516,1.382,5.43,5.43,0,0,1,1.289,3.853v1.279H62.967a2.372,2.372,0,0,0,.771,1.4,2.3,2.3,0,0,0,1.543.508,2.958,2.958,0,0,0,2.441-1.094l1.5,1.777a4.2,4.2,0,0,1-1.743,1.353A5.891,5.891,0,0,1,65.057,41.2Zm-.371-8.418q-1.445,0-1.719,1.914h3.32v-.254a1.63,1.63,0,0,0-.4-1.226A1.593,1.593,0,0,0,64.686,32.777ZM75.3,38.656a1.464,1.464,0,0,0,1.074-.376,1.379,1.379,0,0,0,.371-1.05h3.086a3.653,3.653,0,0,1-1.245,2.852A4.631,4.631,0,0,1,75.379,41.2a4.689,4.689,0,0,1-3.633-1.445,5.7,5.7,0,0,1-1.328-4v-.137a6.436,6.436,0,0,1,.591-2.827,4.3,4.3,0,0,1,1.7-1.885,5.081,5.081,0,0,1,2.637-.659,4.573,4.573,0,0,1,3.271,1.143,4.053,4.053,0,0,1,1.211,3.1H76.746a1.806,1.806,0,0,0-.4-1.26,1.382,1.382,0,0,0-1.074-.439q-1.279,0-1.494,1.631a11.508,11.508,0,0,0-.068,1.426,4.52,4.52,0,0,0,.381,2.207A1.319,1.319,0,0,0,75.3,38.656Zm9.756-10.85v2.627h1.738v2.285H85.057v4.834a1.234,1.234,0,0,0,.215.83,1.152,1.152,0,0,0,.85.234,4.828,4.828,0,0,0,.82-.059v2.354a6.074,6.074,0,0,1-1.855.283,3.448,3.448,0,0,1-2.51-.8,3.282,3.282,0,0,1-.811-2.432V32.719H80.418V30.434h1.348V27.807Zm2.324,7.813A6.236,6.236,0,0,1,88,32.8a4.4,4.4,0,0,1,1.768-1.9,5.323,5.323,0,0,1,2.705-.664,4.858,4.858,0,0,1,3.74,1.47,5.64,5.64,0,0,1,1.367,4v.117A5.472,5.472,0,0,1,96.2,39.745a4.871,4.871,0,0,1-3.716,1.45,4.927,4.927,0,0,1-3.623-1.353,5.29,5.29,0,0,1-1.475-3.667Zm3.291.205a3.932,3.932,0,0,0,.459,2.148,1.529,1.529,0,0,0,1.357.684q1.758,0,1.8-2.705v-.332q0-2.842-1.816-2.842-1.65,0-1.787,2.451Zm13.887,2.207a.76.76,0,0,0-.439-.674,6.685,6.685,0,0,0-1.67-.527,7.615,7.615,0,0,1-2.031-.718A3.4,3.4,0,0,1,99.2,35.033a2.577,2.577,0,0,1-.42-1.455,2.92,2.92,0,0,1,1.2-2.4,4.948,4.948,0,0,1,3.145-.942,5.482,5.482,0,0,1,3.359.947,2.962,2.962,0,0,1,1.27,2.49h-3.3q0-1.27-1.338-1.27a1.326,1.326,0,0,0-.869.288.892.892,0,0,0-.352.718.819.819,0,0,0,.43.713,4.06,4.06,0,0,0,1.372.449,11.856,11.856,0,0,1,1.655.42,3.007,3.007,0,0,1,2.383,2.939,2.767,2.767,0,0,1-1.284,2.354,5.631,5.631,0,0,1-3.325.908,5.747,5.747,0,0,1-2.422-.488,4.05,4.05,0,0,1-1.66-1.328,3.007,3.007,0,0,1-.6-1.768h3.076a1.272,1.272,0,0,0,.488,1.069,2.009,2.009,0,0,0,1.2.337,1.58,1.58,0,0,0,1.011-.273A.875.875,0,0,0,104.559,38.031Z" transform="translate(1102 4863.301)" fill="#12263f"/>
    <g id="Trazado_190836" data-name="Trazado 190836" transform="translate(765 4701.301)" fill="none">
      <path d="M52.5,0C81.495,0,105,13.431,105,30S81.495,60,52.5,60,0,46.569,0,30,23.505,0,52.5,0Z" stroke="none"/>
      <path d="M 52.5 4 C 45.7287483215332 4 39.16946411132812 4.755535125732422 33.00434875488281 6.245601654052734 C 27.11888122558594 7.668083190917969 21.85585021972656 9.691532135009766 17.3614501953125 12.259765625 C 13.02445220947266 14.7380485534668 9.65301513671875 17.57856750488281 7.340782165527344 20.70240020751953 C 5.124000549316406 23.69729995727539 4 26.82546615600586 4 30 C 4 33.17453384399414 5.124000549316406 36.30270004272461 7.340782165527344 39.29759979248047 C 9.65301513671875 42.42143249511719 13.02445220947266 45.26194763183594 17.3614501953125 47.740234375 C 21.85585021972656 50.30846786499023 27.11888122558594 52.33191680908203 33.00434875488281 53.75439834594727 C 39.16946411132812 55.24446868896484 45.7287483215332 56 52.5 56 C 59.2712516784668 56 65.83053588867188 55.24446868896484 71.99565124511719 53.75439834594727 C 77.88111877441406 52.33191680908203 83.14414978027344 50.30846786499023 87.6385498046875 47.740234375 C 91.97554779052734 45.26194763183594 95.34698486328125 42.42143249511719 97.65921783447266 39.29759979248047 C 99.87599945068359 36.30270004272461 101 33.17453384399414 101 30 C 101 26.82546615600586 99.87599945068359 23.69729995727539 97.65921783447266 20.70240020751953 C 95.34698486328125 17.57856750488281 91.97554779052734 14.7380485534668 87.6385498046875 12.259765625 C 83.14414978027344 9.691532135009766 77.88111877441406 7.668083190917969 71.99565124511719 6.245601654052734 C 65.83053588867188 4.755535125732422 59.2712516784668 4 52.5 4 M 52.5 0 C 81.49494934082031 0 105 13.43144989013672 105 30 C 105 46.56855010986328 81.49494934082031 60 52.5 60 C 23.50505065917969 60 0 46.56855010986328 0 30 C 0 13.43144989013672 23.50505065917969 0 52.5 0 Z" stroke="none" fill="#ff5151"/>
    </g>
    <g id="Grupo_128204" data-name="Grupo 128204" transform="translate(-260.502 -91.32)">
      <line id="Línea_444" data-name="Línea 444" y2="72.384" transform="translate(1423.752 4836.663) rotate(-48)" fill="none" stroke="#ff5151" stroke-linecap="round" stroke-width="8"/>
      <line id="Línea_445" data-name="Línea 445" y2="72.384" transform="translate(1475.382 4833.953) rotate(42)" fill="none" stroke="#ff5151" stroke-linecap="round" stroke-width="8"/>
    </g>
  </g>
</svg>
