<svg xmlns="http://www.w3.org/2000/svg" width="491.826" height="323.719" viewBox="0 0 491.826 323.719">
  <g id="Grupo_128210" data-name="Grupo 128210" transform="translate(-285 -398)">
    <rect id="BG" width="491.826" height="319.416" transform="translate(285 398)" fill="#ff9b6a" opacity="0.949"/>
    <g id="Grupo_126880" data-name="Grupo 126880" transform="translate(13424 22936)">
      <path id="Trazado_188512" data-name="Trazado 188512" d="M217.11,936.343a4.4,4.4,0,0,1-5.2,1.564c-4.885,1.606-6.2-3.436-6.2-3.436s-6.336,1.341-6.682-3.7c-4.138-2.023-4.841-5.377-3.876-7.942-2.52-3.282.679-9.056.679-9.056s-4.868-3.37-1.4-7.781c-1.6-5.353,4.761-9.625,4.761-9.625s-1.431-4.835,2.554-6.67c1-5.1,3.649-7.411,9.575-5.745,4.7-6.424,9.784-2.53,9.784-2.53s5.036-6.913,9.594-2.366c7.764-.415,8.278,5.664,8.278,5.664s5.473-1.28,6.586,4.053c4.661,3.256,4.049,6.421,3.109,8.325,3.325.629,3.173,5.4,1.477,7.019,1.8,2.344,1.1,5.32-1,7.4a7.157,7.157,0,0,1-1.688,5.724c.115,4.724-5.166,6.649-5.166,6.649s0,4.674-2.538,6.814c-1.652,3.394-6.36,5.5-6.36,5.5s-3.3,4.1-5.685,3.049c-3.608,1.774-7.072-.01-6.82-1.083s-4.021.871-3.783-1.826" transform="translate(-13307.242 -23264.064)" fill="#333"/>
      <path id="Trazado_188513" data-name="Trazado 188513" d="M670.278,1055.076l-10.931,6.377s-9.621-7.244-15.107-9.611c-8.117-3.5-14.8,9.276-.9,11.865,0,0,10.164,8.663,15.855,8.3,1.964-.125,9.047-6.232,15.028-11.707Z" transform="translate(-13692.288 -23415.369)" fill="#88e0ef"/>
      <path id="Trazado_188514" data-name="Trazado 188514" d="M447.179,1429.842c-3.288,15.245,1.876,42.948-.47,47.762-4.641,8.107-7.954,27.81-6.454,48.88h6.352c6.861-24.362,27.1-96.292,27.1-96.292Z" transform="translate(-13522.11 -23745.121)" fill="#12263f"/>
      <path id="Trazado_188515" data-name="Trazado 188515" d="M607.355,1434.575c.721,15.53,3.668,28.784,6.326,41.4.772,3.667,1.173,8.582.1,12.172-2.519,8.429-1.763,25.816,1.707,42.473h7.283l3.651-46.156,3.445-43.309Z" transform="translate(-13667.95 -23749.242)" fill="#12263f"/>
      <path id="Trazado_188516" data-name="Trazado 188516" d="M498.874,1320.986s-.26-16.606,14.361-21.448,21.372,10.488,23.255,18.05c3.116,12.51-37.288,21.1-37.616,3.4" transform="translate(-13573.473 -23630.816)" fill="#12263f"/>
      <path id="Trazado_188517" data-name="Trazado 188517" d="M493.446,1126.225c-5.008-13.5,8.616-21.2,1.044-29.345-.611-4.827-9.34-3.9-17.83-2.956-9.22,1.024-19.988.088-16.754,9.5,5.822,9.178,8.966,16.641,8.321,25.459,2.984,4.889,24.445,2.162,25.219-2.653" transform="translate(-13539.024 -23451.889)" fill="#fff"/>
      <path id="Trazado_188518" data-name="Trazado 188518" d="M456.276,1052.906c.17.159,3.661,1.562,11.962.2,3.24-3.387,7.326-2.826,9.272-1.269,2.7,2.158,3.9,6.916,2.439,14.8-1.722,11.306-27.7,8.656-32.849,1.518-10.093-13.979,2.548-21.45,9.176-15.249" transform="translate(-13525.1 -23414.822)" fill="#fff"/>
      <path id="Trazado_188519" data-name="Trazado 188519" d="M518.854,1006.073c.678,2.839.027,4.132-.353,4.655a135.2,135.2,0,0,1-14.669-8.5l-4.446-8.588,12.172-.1c.7,1.119,1.36,2.13,1.986,3.078.9,1.359,1.724,2.59,2.484,3.829a33.292,33.292,0,0,1,2.826,5.627" transform="translate(-13573.919 -23365.115)" fill="#c27761"/>
      <path id="Trazado_188520" data-name="Trazado 188520" d="M543.8,1020.792l-12.525-2.566,9.99-1.326.051.063c.9,1.359,1.724,2.59,2.484,3.829" transform="translate(-13601.694 -23385.461)" fill="#9e604f"/>
      <path id="Trazado_188521" data-name="Trazado 188521" d="M638.878,1051.907s7.648,4.709,8.793,10.432c.682,3.411-.23,23.544.478,29.545s2.018,26.483,2.018,26.483c10.014.738,18.6-4.19,21.484-5.392,0,0-13.7-10.78-18.608-33.481a104.07,104.07,0,0,0,.827-17c-.15-7.353-6.277-14.885-12.752-11.784Z" transform="translate(-13695.403 -23414.293)" fill="#88e0ef"/>
      <path id="Trazado_188522" data-name="Trazado 188522" d="M406.147,1052.044a7.5,7.5,0,0,0-9.7,1.147c-4.574,4.731-.693,14.224-.693,14.224s3.608,13.744,2.8,17.267-9.058,19.856-11.331,34.086c5.625,3.626,26.357,2.022,26.357,2.022s3.839-34.571.943-47.091c-1.713-7.4-2.9-17.533-8.375-21.656" transform="translate(-13476.234 -23414.943)" fill="#88e0ef"/>
      <path id="Trazado_188523" data-name="Trazado 188523" d="M512.565,822.993a5.163,5.163,0,0,0,.028-2.381c-.3-1.281-2.43-2.253-2.43-2.253s.364-1.242-1.058-3.184-3.043-1.216-3.043-1.216c-.278-1.348-.887-2.925-4.7-2.421-1.7-2.062-4.12.1-4.12.1l-.1-.033a16.817,16.817,0,0,0,1.168,2.1c.5.012,1.6.026,3.241-.028.723,1.915,3.829,2.085,3.829,2.085s1.462,3.8,2.73,4.109c1.469.285,1.375,2.815,2.815,4.176,1.283,3.095,3.135,3.714,3.479,2.005s-1.84-3.053-1.84-3.053" transform="translate(-13571.966 -23205.832)" fill="#333"/>
      <path id="Trazado_188524" data-name="Trazado 188524" d="M451.714,838.582c4.229,6.147,4.171,14.252.812,16.256a19.435,19.435,0,0,1-10.973,2.542,12.485,12.485,0,0,1-8.912-5.742c-4.712-6.883-4.263-15.386,1-18.991s13.954-2.019,18.068,5.935" transform="translate(-13512.952 -23223.4)" fill="#c27761"/>
      <path id="Trazado_188525" data-name="Trazado 188525" d="M565.308,914.508a.106.106,0,0,1-.033-.2c.05-.026,1.213-.642.888-1.658s-2.694-.379-2.718-.372a.106.106,0,0,1-.055-.2c.106-.029,2.592-.686,2.974.512a1.392,1.392,0,0,1-.359,1.414,2.514,2.514,0,0,1-.633.5.106.106,0,0,1-.064.011" transform="translate(-13629.593 -23293.988)" fill="#6e4437"/>
      <path id="Trazado_188526" data-name="Trazado 188526" d="M509.638,911.568c.4.48.541,1.027.31,1.221s-.745-.039-1.148-.519-.541-1.027-.31-1.221.745.039,1.148.519" transform="translate(-13581.751 -23293.213)" fill="#0e0e0e"/>
      <path id="Trazado_188527" data-name="Trazado 188527" d="M487.3,891.8a.09.09,0,0,1-.066-.045c-.03-.053-.718-1.316.1-2.134a1.454,1.454,0,0,1,1.786-.216.09.09,0,1,1-.1.152,1.254,1.254,0,0,0-1.561.191c-.717.721-.072,1.907-.066,1.919a.09.09,0,0,1-.092.133" transform="translate(-13563.073 -23274.23)" fill="#59372d"/>
      <path id="Trazado_188528" data-name="Trazado 188528" d="M561.593,876.741c.4.48.541,1.027.31,1.221s-.745-.039-1.148-.519-.541-1.027-.31-1.221.745.039,1.148.519" transform="translate(-13626.999 -23262.881)" fill="#0e0e0e"/>
      <path id="Trazado_188529" data-name="Trazado 188529" d="M542.59,860.933a.09.09,0,0,1-.066-.045c-.03-.053-.718-1.316.1-2.134a1.454,1.454,0,0,1,1.786-.216.09.09,0,1,1-.1.152,1.254,1.254,0,0,0-1.561.191c-.717.722-.073,1.907-.066,1.919a.09.09,0,0,1-.035.123.089.089,0,0,1-.057.01" transform="translate(-13611.227 -23247.352)" fill="#59372d"/>
      <path id="Trazado_188530" data-name="Trazado 188530" d="M415.195,813.551a4.743,4.743,0,0,0-4.3,1.052c-2.492-.1-3.307.76-5.246,3.594-1.811,1.436-2.293,3.232-1.146,4.969-1.145,1.143-2.326,4.5-.388,6.23-.917,1.322-.892,4.025,2.155,6.487,1.242,3.74,4.041,2.471,4.041,2.471-.837,1.292-.235,5.5,3.006,4.075a2.947,2.947,0,0,0,1.5-4.553,3.818,3.818,0,0,0-2.464-3.334c.789-.686.156-3.357-1.342-5.316a2.9,2.9,0,0,0-1.649-3.689s1.858-1.8,1.174-3.864c2.011-1.6.258-3.814.258-3.814,1.039.5,1.672-.838,3.548-.555a2.83,2.83,0,0,0,2.581-1.121c1.048-1.294-.065-2.283-1.726-2.631" transform="translate(-13490.051 -23208.262)" fill="#333"/>
      <path id="Trazado_188531" data-name="Trazado 188531" d="M544,947.3c-1.028.411-2.4-.417-4.216-2.472q-.778-.88-1.668-2.059a13.243,13.243,0,0,0,8.361-3.237c.03.135.057.269.081.4.878,4.693-1.271,6.854-2.557,7.369" transform="translate(-13607.648 -23318.08)" fill="#b01c25"/>
      <path id="Trazado_188532" data-name="Trazado 188532" d="M546.556,939.929c-.072,1.28-3.421,3.551-7.461,4.087q-.471-.576-.98-1.25a13.242,13.242,0,0,0,8.361-3.237c.03.135.057.27.081.4" transform="translate(-13607.648 -23318.076)" fill="#ffd1c4"/>
      <path id="Trazado_188533" data-name="Trazado 188533" d="M514.659,938.945c-.668.45-1.416.507-1.671.129s.081-1.049.749-1.5,1.416-.507,1.671-.129-.081,1.049-.749,1.5" transform="translate(-13585.691 -23316.047)" fill="#eb7755"/>
      <path id="Trazado_188534" data-name="Trazado 188534" d="M590.871,898.842a.7.7,0,1,1,.358-1.06.805.805,0,0,1-.358,1.06" transform="translate(-13652.541 -23281.496)" fill="#eb7755"/>
      <path id="Trazado_188535" data-name="Trazado 188535" d="M455.3,952.564c-1.89-.37-3.279,1.268-2.158,2.918,1.351,1.99,4.19,1.576,4.19,1.576,1.5-.814-.361-5.374-2.031-4.494" transform="translate(-13533.297 -23329.332)" fill="#c27761"/>
      <path id="Trazado_188536" data-name="Trazado 188536" d="M2675.562,969.164s-4.056-6.539-.6-7.6,8.513,5.115,6.149,8.657c-2.243,3.362-5.553-1.053-5.553-1.053" transform="translate(-15467.43 -23361.924)" fill="#ffa88f"/>
      <path id="Trazado_188537" data-name="Trazado 188537" d="M3076.664,942.035s-4.512,6.234-1.136,7.543,8.856-4.5,6.75-8.2c-2-3.513-5.614.654-5.614.654" transform="translate(-15816.407 -23343.23)" fill="#ffa88f"/>
      <path id="Trazado_188538" data-name="Trazado 188538" d="M764.389,795.826l-.406-3.086a2.557,2.557,0,0,0-2.87-2.2l-27,3.568a2.561,2.561,0,0,0-2.2,2.872l7.167,54.544,69.854-9.23-6.4-48.694a2.786,2.786,0,0,0-3.127-2.4Z" transform="translate(-13776.402 -23188.303)" fill="#ffc04d"/>
      <path id="Trazado_188539" data-name="Trazado 188539" d="M839.283,799.06l-69.73,9.214,2.254,50.147,69.513-9.185Z" transform="translate(-13809.209 -23195.742)" fill="#fff"/>
      <path id="Trazado_188540" data-name="Trazado 188540" d="M857.9,845.693l-64.945,8.581-5.942,44.759,69.513-9.185Z" transform="translate(-13824.417 -23236.357)" fill="#d9f1ff"/>
      <path id="Trazado_188541" data-name="Trazado 188541" d="M1038.348,694.268c-3.419,8.054-4.09,25.1-4.09,25.1l-31.61,4.177c.462-12.731,6.129-31.8,6.129-31.8Z" transform="translate(-14012.213 -23102.273)" fill="#fff"/>
      <path id="Trazado_188542" data-name="Trazado 188542" d="M1080.777,722.616l-25.659-2.266.357-1.567,25.548,2.3Z" transform="translate(-14057.91 -23125.824)" fill="#d9f1ff"/>
      <path id="Trazado_188543" data-name="Trazado 188543" d="M1073.7,754.648l-25.954-2.182.365-1.6,25.841,2.214Z" transform="translate(-14051.491 -23153.764)" fill="#d9f1ff"/>
      <path id="Trazado_188544" data-name="Trazado 188544" d="M1066.473,787.376l-26.257-2.094.373-1.636,26.141,2.128Z" transform="translate(-14044.932 -23182.314)" fill="#d9f1ff"/>
      <path id="Trazado_188545" data-name="Trazado 188545" d="M1049.866,820.131l-17.349-1.307.381-1.673,17.271,1.33Z" transform="translate(-14038.226 -23211.494)" fill="#d9f1ff"/>
      <path id="Trazado_188546" data-name="Trazado 188546" d="M856.327,830.027l-26.334,3.479-14.908,10.74-23.917,3.16A2.611,2.611,0,0,0,788.9,849.9l-1.331,36.034,69.854-9.23,1.626-44.018a2.687,2.687,0,0,0-2.723-2.658" transform="translate(-13824.901 -23222.715)" fill="#fff890"/>
      <path id="Trazado_188547" data-name="Trazado 188547" d="M2594.094,555.563l-.406-3.086a2.556,2.556,0,0,0-2.869-2.2l-27,3.568a2.561,2.561,0,0,0-2.2,2.872l7.167,54.544,69.854-9.23-6.409-48.776a2.7,2.7,0,0,0-3.035-2.328Z" transform="translate(-15369.906 -23003.813)" fill="#ffc04d"/>
      <path id="Trazado_188548" data-name="Trazado 188548" d="M2598.386,573.508l-68.5,9.051,12.461,48.884,68.333-9.115Z" transform="translate(-15342.299 -23024.068)" fill="#fff"/>
      <path id="Trazado_188549" data-name="Trazado 188549" d="M2479.443,453.641c-16,4.08-30.775,7.851-30.775,7.851s-2.893-12.713-15.984-31.958l32.293-10.693a101.5,101.5,0,0,1,12.023,25.3,95.313,95.313,0,0,1,2.443,9.5" transform="translate(-15257.642 -22889.361)" fill="#fff"/>
      <path id="Trazado_188550" data-name="Trazado 188550" d="M2501.707,486.5l-13.636,4.622.537,1.145,13.746-4.659q-.334-.547-.646-1.107" transform="translate(-15305.879 -22948.285)" fill="#d9f1ff"/>
      <path id="Trazado_188551" data-name="Trazado 188551" d="M2526.048,484.946l-24.875,8.431-.537-1.145,24.875-8.431Z" transform="translate(-15316.822 -22945.936)" fill="#d9f1ff"/>
      <path id="Trazado_188552" data-name="Trazado 188552" d="M2538.613,511.757l-24.875,8.431-.536-1.145,24.875-8.431Z" transform="translate(-15327.766 -22969.287)" fill="#d9f1ff"/>
      <path id="Trazado_188553" data-name="Trazado 188553" d="M2551.178,538.568,2526.3,547l-.537-1.145,24.875-8.431Z" transform="translate(-15338.708 -22992.639)" fill="#d9f1ff"/>
      <path id="Trazado_188554" data-name="Trazado 188554" d="M2563.743,565.38l-24.875,8.431-.537-1.145,24.875-8.431Z" transform="translate(-15349.651 -23015.988)" fill="#d9f1ff"/>
      <path id="Trazado_188555" data-name="Trazado 188555" d="M2576.309,592.191l-24.875,8.431-.537-1.145,24.875-8.431Z" transform="translate(-15360.594 -23039.34)" fill="#d9f1ff"/>
      <path id="Trazado_188556" data-name="Trazado 188556" d="M2588.874,619,2564,627.433l-.537-1.145,24.875-8.431Z" transform="translate(-15371.537 -23062.689)" fill="#d9f1ff"/>
      <path id="Trazado_188557" data-name="Trazado 188557" d="M2577.708,573.083l-26.334,3.479-11.409,11.3-26.1,3.449L2527.627,632l69.854-9.23-15.846-46.831a4.606,4.606,0,0,0-3.927-2.852" transform="translate(-15328.34 -23023.697)" fill="#fff890"/>
      <path id="Trazado_188558" data-name="Trazado 188558" d="M1580.807,478.879s-5.541,7.894-19.06,10.546a16.05,16.05,0,0,1-15.308-5.513l-25.857,16.077s4.257,7.27,15.308,5.513c13.606-2.163,19.06-10.546,19.06-10.546Z" transform="translate(-14463.286 -22941.648)" fill="#fff"/>
      <path id="Trazado_188559" data-name="Trazado 188559" d="M1746.292,499.857l26.678-16.7s3.665-2.693,4.442-4.474c-2.078,1.3-26.669,14.96-26.669,14.96a11.8,11.8,0,0,1-4.451,6.213" transform="translate(-14659.858 -22941.48)" fill="#dee4f0"/>
      <path id="Trazado_188560" data-name="Trazado 188560" d="M1997.671,364.442l27.231-9.613a30.907,30.907,0,0,1,2.562-2.423,31.384,31.384,0,0,0-13.335,1.558,43.025,43.025,0,0,0-16.458,10.478" transform="translate(-14878.786 -22831.348)" fill="#dee4f0"/>
      <path id="Trazado_188561" data-name="Trazado 188561" d="M2109.029,368.377q-.6.215-1.2.455l1.2-.455" transform="translate(-14974.722 -22845.402)" fill="#fff"/>
      <path id="Trazado_188562" data-name="Trazado 188562" d="M2228.458,353.151a25.628,25.628,0,0,1,2.688.443,23.9,23.9,0,0,0-2.621-.5l-.067.058" transform="translate(-15079.78 -22832.092)" fill="#fff"/>
      <path id="Trazado_188563" data-name="Trazado 188563" d="M2158.669,260.332c-10.351,1.441-34.3,11.381-41.534,13.8,13.082-5.329,25.175.035,30.758,7.255l34.068-12s-9.024-10.691-23.292-9.058" transform="translate(-14982.828 -22751.158)" fill="#fff"/>
      <path id="Trazado_188564" data-name="Trazado 188564" d="M2132.458,351.607a34.836,34.836,0,0,0-7.3,1.662,31.387,31.387,0,0,1,13.336-1.557l.067-.058a24.7,24.7,0,0,0-6.1-.047" transform="translate(-14989.813 -22830.652)" fill="#fff"/>
      <path id="Trazado_188565" data-name="Trazado 188565" d="M1095.654,558.3l25.771,3.688c2.433-3.461,7.893-7.047,10.977-7.852-9.656-5.454-28.365-7.618-36.749,4.163" transform="translate(-14106.253 -22994.959)" fill="#dee4f0"/>
      <path id="Trazado_188566" data-name="Trazado 188566" d="M1117.672,496.841s9.311-8.147,27.617-12.169c14.132-3.1,22.486-1.969,31.894,1.265-3.857,3.12-22.494,14.639-22.182,14.476,0,0-21.563-16.295-37.329-3.572" transform="translate(-14125.429 -22936.705)" fill="#fff"/>
      <path id="Trazado_188567" data-name="Trazado 188567" d="M2331.039,309.511l1.725,1.429,30.532-10.864-1.452-.9Z" transform="translate(-15169.118 -22785.135)" fill="#d9f1ff"/>
      <path id="Trazado_188568" data-name="Trazado 188568" d="M2291.4,289.077l2.263.913,30.559-10.433-2.017-.815Z" transform="translate(-15134.594 -22767.34)" fill="#d9f1ff"/>
      <path id="Trazado_188569" data-name="Trazado 188569" d="M2231.5,276.144l3.225.322L2264.8,266.2l-2.662-.345Z" transform="translate(-15082.428 -22756.113)" fill="#d9f1ff"/>
      <path id="Trazado_188570" data-name="Trazado 188570" d="M481.988,1120.911s18.021,7.448,23.954,7.854c3.725.255,25.823-16.6,25.823-16.6l-2.18-3.345-22.038,9.058-20.718-10.554c-9.322-2.87-15.375,9.232-4.842,13.59" transform="translate(-13553.929 -23463.836)" fill="#c27761"/>
      <path id="Trazado_188571" data-name="Trazado 188571" d="M461.916,1081.41s-1.345-4.983.772-8.91a10.223,10.223,0,0,1,5.407-4.925c-2.328-3.216-4.626-6.487-7.508-8.7,0,0-6.6,1.556-9.266,5.6-5.223,7.937,10.594,16.932,10.594,16.932" transform="translate(-13531.138 -23422.023)" fill="#88e0ef"/>
      <path id="Trazado_188572" data-name="Trazado 188572" d="M526.7,1131.943a1.6,1.6,0,0,1-1.079,1.046,2.138,2.138,0,0,1-1.628-.459s-2.508-3.471-.22-8.86,6.248-6.114,7.039-5.973,1.908,1.277,1.649,1.7c0,0-3.505.365-5.565,4.98s-.7,7.386-.2,7.57" transform="translate(-13594.319 -23473.236)" fill="#6d5ebd"/>
      <path id="Trazado_188573" data-name="Trazado 188573" d="M878.084,1089.9a13.862,13.862,0,0,1,5.474-4.735.817.817,0,0,1,.454,1.314,8.518,8.518,0,0,1-1.389,1.723s9.5-.845,9.533-.357-5.437,1.707-5.505,2,5.679-.756,5.684-.2-4.991,1.8-5.069,2.068,4.761-.922,4.907-.483-2.839,1.849-5.024,2.364c-.034.829,2.838,1.39,2.857,1.7s-5.2.37-10.616-1.4-1.305-4-1.305-4" transform="translate(-13902.427 -23444.914)" fill="#c27761"/>
      <path id="Trazado_188574" data-name="Trazado 188574" d="M3088.455,943.166s2.179-.362,2.182-6.194c-1.972-.906-2.037,2.49-2.037,2.49s-6.734.7-5.794,4.165a14.275,14.275,0,0,1,5.649-.462" transform="translate(-15823.76 -23340.482)" fill="#ffa88f"/>
      <path id="Trazado_188575" data-name="Trazado 188575" d="M2673.955,982.972s-2.179-.362-2.182-6.194c1.972-.906,2.037,2.49,2.037,2.49s6.734.7,5.794,4.165a14.279,14.279,0,0,0-5.649-.462" transform="translate(-15465.866 -23375.15)" fill="#ffa88f"/>
      <path id="Trazado_188576" data-name="Trazado 188576" d="M2681.553,1054.9c10.152,4.882,3.494,18.727-3.739,16.983,0,0-21.622-7.959-25.293-17.125-1.821-4.546,1.994-28.6,1.994-28.6-.045-1.193-.023-1.876,1.648-2.563,0,0,6.9,0,8.034.394a2.3,2.3,0,0,1,1.314,2.717l-.624,23.235Z" transform="translate(-15448.671 -23416.064)" fill="#ff5151"/>
      <path id="Trazado_188577" data-name="Trazado 188577" d="M2922.335,1650.318c3.033,28.644,9.924,69.523,9.924,91.03l-8.761.343c-5.059-26.083-17.423-58.175-25.605-91.373Z" transform="translate(-15662.796 -23961.904)" fill="#12263f"/>
      <path id="Trazado_188578" data-name="Trazado 188578" d="M2792.811,1627.186c-5.847,29.368-1.759,61.638-2.116,95.934,5.684,1.184,9.62,1.246,9.426-1.665,5.519-30.92,6.771-61.346,17.133-91.282Z" transform="translate(-15568.514 -23941.76)" fill="#12263f"/>
      <path id="Trazado_188579" data-name="Trazado 188579" d="M2831.232,1335.67c-1.257,4.051-31.93,7.339-40.739.3a3.73,3.73,0,0,1,.533-1.456,5.948,5.948,0,0,0,.919-2.214c-2.094-2.814-1.992-9.366-.842-16.757,2.037-13.093,7.36-28.82,9.588-31.093,16.244-1.831,23.355,2.761,23.355,2.761,2.8,18.487,9.563,40.036,5.479,43.619Z" transform="translate(-15569.085 -23642.871)" fill="#ff5151"/>
      <path id="Trazado_188580" data-name="Trazado 188580" d="M2992.886,1044.565c-6.173,3.733-11.142-8.716-7.758-16.689l11.331-11.315s-.706-23.556-.875-24.563-.9-1.76.807-1.933,6.352-1,6.352-1,1.126-.093,1.5,1.485c1.462,6.146,5.607,25.741,5.139,28.412-1.734,9.89-12.37,22.717-16.5,25.6" transform="translate(-15737.814 -23385.992)" fill="#ff5151"/>
      <path id="Trazado_188581" data-name="Trazado 188581" d="M2890.022,1275.034a3.966,3.966,0,0,0-2.175,3.692c-.066,2.834,4.878,4.878,8.438,3.494s7.844-3.692,6.592-8.438-12.854,1.252-12.854,1.252" transform="translate(-15654.045 -23632.363)" fill="#4583bf"/>
      <path id="Trazado_188582" data-name="Trazado 188582" d="M2891.542,1201.865l-.068-.592-.821-7.141-.7-6.055,8.238-2.716,4.652,13.336c.824,5.271-11.752,7.884-11.306,3.169" transform="translate(-15655.885 -23556.945)" fill="#ffa88f"/>
      <path id="Trazado_188583" data-name="Trazado 188583" d="M2905.036,1234.547c-1.46,4.129-3.071,8.124-8.984,8.318l-.71-6.009c4.02-3.261,9.694-2.31,9.694-2.31" transform="translate(-15660.574 -23599.67)" fill="#cf7157"/>
      <path id="Trazado_188584" data-name="Trazado 188584" d="M2815.256,1068.052c-4.105,3.851-1.969,14.9,4.386,17.131s14.62-2.3,17.223-9.706-.437-15.226-6.791-17.459-14.076,1.211-14.818,10.034" transform="translate(-15588.995 -23445.463)" fill="#ffa88f"/>
      <path id="Trazado_188585" data-name="Trazado 188585" d="M2831.726,1047.4s-4.388,1.058-13.265-1.38c-18.041-4.954-7.911-10.5-.746-10.771,2.756-.1,16.652-1.515,16.174,9.56,5.941,5.075,1.472,10.933-1.439,13.111-1.982-3.752-.724-10.52-.724-10.52" transform="translate(-15584.795 -23426.113)" fill="#333"/>
      <path id="Trazado_188586" data-name="Trazado 188586" d="M2968.462,1202.464a2.977,2.977,0,1,0,3.181-2.759,2.978,2.978,0,0,0-3.181,2.759" transform="translate(-15724.248 -23569.43)" fill="#ffa88f"/>
      <path id="Trazado_188587" data-name="Trazado 188587" d="M2978.724,1154.952s.073,5.12-1.2,7.153c2.212-1.355,3.533-.932,3.553-.951s2.419-5.254-2.352-6.2" transform="translate(-15732.146 -23530.461)" fill="#333"/>
      <path id="Trazado_188588" data-name="Trazado 188588" d="M2862.357,1163.615a.106.106,0,0,1-.106-.026c-.042-.042-1.036-1.046-.651-2.027.293-.747,1.134-.427,1.69-.215a2.021,2.021,0,0,0,.451.14l1.063-.864a.106.106,0,1,1,.134.164l-1.109.9-.026.005a1.316,1.316,0,0,1-.589-.148c-.657-.25-1.218-.416-1.417.094-.334.853.594,1.79.6,1.8a.106.106,0,0,1,0,.15.1.1,0,0,1-.044.026" transform="translate(-15631.111 -23535.377)" fill="#c45f41"/>
      <path id="Trazado_188589" data-name="Trazado 188589" d="M2855.176,1131.944c-.2.546-.6.9-.88.8s-.35-.633-.148-1.178.6-.9.88-.8.35.633.148,1.178" transform="translate(-15624.596 -23509.379)" fill="#522601"/>
      <path id="Trazado_188590" data-name="Trazado 188590" d="M2930.415,1157.379c-.2.546-.6.9-.88.8s-.35-.633-.148-1.178.6-.9.88-.8.35.632.148,1.178" transform="translate(-15690.122 -23531.531)" fill="#522601"/>
      <path id="Trazado_188591" data-name="Trazado 188591" d="M2860.938,1206.022a6.544,6.544,0,0,1-.43,1,5.189,5.189,0,0,1-5.932,3.025c-2.6-.566-2.836-3.219-2.783-4.555a6.508,6.508,0,0,1,.072-.775Z" transform="translate(-15622.641 -23573.807)" fill="#c45f41"/>
      <path id="Trazado_188592" data-name="Trazado 188592" d="M2860.98,1206.022a6.525,6.525,0,0,1-.43,1,37.292,37.292,0,0,1-8.715-1.531,6.445,6.445,0,0,1,.072-.775Z" transform="translate(-15622.684 -23573.805)" fill="#fffdfd"/>
      <path id="Trazado_188593" data-name="Trazado 188593" d="M2813.9,1547.345c-8.5.7-22.237-1.89-22.869-.159a5.942,5.942,0,0,0,.919-2.214c-2.094-2.814-1.992-9.366-.842-16.758-.59,6.448-.542,15.245,3.938,16.011,8.108,1.384,25.478.583,27.95.483s2.68,1.663-9.1,2.637" transform="translate(-15569.085 -23855.547)" fill="#ff5151"/>
      <path id="Trazado_188594" data-name="Trazado 188594" d="M1319.357,381.939a4.849,4.849,0,1,1,1.917-9.3.337.337,0,1,1-.267.619,4.175,4.175,0,1,0,2.524,3.836,4.217,4.217,0,0,0-.075-.791.337.337,0,1,1,.662-.127,4.854,4.854,0,0,1-4.762,5.767" transform="translate(-14296.854 -22840.379)" fill="#592fe6"/>
      <path id="Trazado_188595" data-name="Trazado 188595" d="M1341.454,380.589a10.913,10.913,0,0,0-4.681,3.872,4.844,4.844,0,0,0-1.345-1.487c-.066.052-.942.907-1.119,1.1a9.5,9.5,0,0,1,1.979,2.075h.681a13.4,13.4,0,0,1,4.484-5.562" transform="translate(-14314.1 -22847.65)" fill="#fff"/>
      <path id="Trazado_188596" data-name="Trazado 188596" d="M1884.444,594.847a4.849,4.849,0,1,1,1.918-9.3.337.337,0,0,1-.267.619,4.175,4.175,0,1,0,2.524,3.836,4.22,4.22,0,0,0-.075-.791.337.337,0,1,1,.662-.127,4.854,4.854,0,0,1-4.762,5.767" transform="translate(-14775.953 -23034.205)" fill="#592fe6"/>
      <path id="Trazado_188597" data-name="Trazado 188597" d="M1906.541,593.5a10.914,10.914,0,0,0-4.681,3.872,4.844,4.844,0,0,0-1.345-1.487c-.066.052-.942.907-1.119,1.1a9.5,9.5,0,0,1,1.98,2.075h.681a13.4,13.4,0,0,1,4.484-5.562" transform="translate(-14793.197 -23041.477)" fill="#fff"/>
      <path id="Trazado_188598" data-name="Trazado 188598" d="M2760.37,452.928a4.849,4.849,0,1,1,1.917-9.3.337.337,0,1,1-.267.62,4.175,4.175,0,1,0,2.524,3.836,4.212,4.212,0,0,0-.074-.791.337.337,0,1,1,.662-.127,4.854,4.854,0,0,1-4.762,5.767" transform="translate(-15538.803 -22910.604)" fill="#592fe6"/>
      <path id="Trazado_188599" data-name="Trazado 188599" d="M2782.468,451.579a10.911,10.911,0,0,0-4.681,3.872,4.845,4.845,0,0,0-1.345-1.487c-.066.052-.942.907-1.118,1.1a9.507,9.507,0,0,1,1.98,2.075h.681a13.4,13.4,0,0,1,4.484-5.562" transform="translate(-15556.049 -22917.873)" fill="#fff"/>
      <path id="Trazado_188600" data-name="Trazado 188600" d="M2402.392,145.292a4.849,4.849,0,1,1,1.917-9.3.337.337,0,1,1-.267.619,4.175,4.175,0,1,0,2.524,3.836,4.211,4.211,0,0,0-.075-.791.337.337,0,0,1,.662-.127,4.854,4.854,0,0,1-4.762,5.767" transform="translate(-15227.037 -22642.67)" fill="#592fe6"/>
      <path id="Trazado_188601" data-name="Trazado 188601" d="M2424.489,143.942a10.914,10.914,0,0,0-4.682,3.872,4.84,4.84,0,0,0-1.344-1.487c-.066.053-.942.907-1.119,1.1a9.5,9.5,0,0,1,1.98,2.075H2420a13.4,13.4,0,0,1,4.484-5.562" transform="translate(-15244.282 -22649.941)" fill="#fff"/>
      <path id="Trazado_188602" data-name="Trazado 188602" d="M875.679,664.236a4.849,4.849,0,1,1,1.917-9.3.337.337,0,1,1-.267.619,4.175,4.175,0,1,0,2.524,3.836,4.212,4.212,0,0,0-.075-.791.337.337,0,1,1,.662-.127,4.854,4.854,0,0,1-4.762,5.767" transform="translate(-13897.412 -23071.275)" fill="#592fe6"/>
      <path id="Trazado_188603" data-name="Trazado 188603" d="M897.777,662.886a10.913,10.913,0,0,0-4.681,3.872,4.843,4.843,0,0,0-1.345-1.487c-.066.053-.942.907-1.119,1.1a9.5,9.5,0,0,1,1.98,2.075h.681a13.4,13.4,0,0,1,4.484-5.562" transform="translate(-13914.658 -23078.545)" fill="#fff"/>
      <path id="Trazado_188604" data-name="Trazado 188604" d="M1713.032,338.365a6.428,6.428,0,0,1-2.187-.382l-.181-.065.113-.125.181-.506a5.725,5.725,0,0,1-1.728-1.045l-.47.513-.1-.087a6.384,6.384,0,0,1-1.483-2.018l-.054-.117.628-.3a5.724,5.724,0,0,1-.484-1.96l-.692.03-.006-.129a6.433,6.433,0,0,1,.376-2.474l.044-.121.653.234a5.719,5.719,0,0,1,1.046-1.728l-.513-.47.087-.1a6.378,6.378,0,0,1,2.018-1.484l.116-.054.3.628a5.724,5.724,0,0,1,1.96-.484l-.03-.692.129-.006a6.4,6.4,0,0,1,2.475.376l.114.041-.038.129-.189.526a5.725,5.725,0,0,1,1.728,1.046l.47-.513.1.087a6.417,6.417,0,0,1,1.483,2.014l.055.117-.628.3a5.776,5.776,0,0,1,.485,1.964l.692-.03.006.129a6.424,6.424,0,0,1-.374,2.472l-.043.121-.653-.233a5.735,5.735,0,0,1-1.047,1.729l.513.47-.087.1a6.372,6.372,0,0,1-2.016,1.482l-.116.054-.3-.627a5.729,5.729,0,0,1-1.962.486l.031.692-.129.006q-.144.006-.288.006m-1.977-.583a6.16,6.16,0,0,0,2.125.323l-.03-.689.129-.006a5.474,5.474,0,0,0,2.109-.523l.117-.056.3.627a6.111,6.111,0,0,0,1.731-1.272l-.511-.468.087-.1a5.481,5.481,0,0,0,1.125-1.859l.044-.122.651.234a6.164,6.164,0,0,0,.321-2.124l-.689.03-.006-.129a5.528,5.528,0,0,0-.521-2.111l-.055-.117.626-.295a6.155,6.155,0,0,0-1.274-1.729l-.468.511-.1-.087a5.467,5.467,0,0,0-1.858-1.124l-.121-.044.234-.651a6.118,6.118,0,0,0-2.125-.323l.03.689-.129.006a5.477,5.477,0,0,0-2.108.521l-.117.056-.3-.627a6.112,6.112,0,0,0-1.732,1.274l.511.468-.087.1a5.473,5.473,0,0,0-1.124,1.857l-.044.121-.651-.233a6.174,6.174,0,0,0-.323,2.125l.689-.03.006.129a5.472,5.472,0,0,0,.521,2.107l.055.117-.627.3a6.117,6.117,0,0,0,1.274,1.732l.468-.511.1.087a5.473,5.473,0,0,0,1.857,1.124l.122.044Zm1.979-2.691a3.2,3.2,0,1,1,.143,0c-.048,0-.1,0-.143,0m0-6.131a2.936,2.936,0,1,0,1.982.77,2.928,2.928,0,0,0-1.982-.77" transform="translate(-14625.262 -22807.994)" fill="#f6f6f6"/>
      <path id="Trazado_188605" data-name="Trazado 188605" d="M2169.766,878.063a15.3,15.3,0,0,0-.706-5.806l1.687-.587a16.584,16.584,0,0,0-3.106-5.588l-1.349,1.2a14.363,14.363,0,0,0-4.5-3.568l.265-.545.522-1.076.006-.014a15.775,15.775,0,0,0-6.067-1.678l-.132,1.815a14.31,14.31,0,0,0-3.46.184c.547,1.965,1.11,4.205,1.617,6.628a7.707,7.707,0,0,1,6.722,2.721,8.217,8.217,0,0,1-.823,11.382,7.794,7.794,0,0,1-4.146,1.917,47.259,47.259,0,0,1-.532,6.85,14.1,14.1,0,0,0,4.126-.784l.563,1.726a16.085,16.085,0,0,0,5.471-3.214l-1.162-1.376a14.9,14.9,0,0,0,3.511-4.636l1.235.626.355.177a17.051,17.051,0,0,0,1.667-6.228Z" transform="translate(-15014.003 -23273.928)" fill="#f6f6f6"/>
      <path id="Trazado_188606" data-name="Trazado 188606" d="M1511.095,1270.841a5,5,0,0,1-.293-6.937q.161-.181.336-.341c-.87-1.686-1.629-3.308-2.281-4.807a9.945,9.945,0,0,0-1.825,1.6l.8.751a9.041,9.041,0,0,0-1.795,3.044l-1.017-.374a10.4,10.4,0,0,0-.575,3.883l1.078-.048a9.208,9.208,0,0,0,.832,3.454l-.978.473a10.032,10.032,0,0,0,2.268,3.166l.731-.819a8.724,8.724,0,0,0,2.967,1.842l-.259.739-.1.3,0,0a9.663,9.663,0,0,0,3.784.59l-.047-1.106a8.618,8.618,0,0,0,3.368-.857l.461,1a9.584,9.584,0,0,0,.856-.465,52.43,52.43,0,0,1-3.286-4.161,4.69,4.69,0,0,1-5.018-.938" transform="translate(-14449.222 -23620.867)" fill="#f6f6f6"/>
      <path id="Trazado_188607" data-name="Trazado 188607" d="M1607.089,827.869c-5.988,13.547-17.619,24.554-32.841,31.117l-2.026.814-2.087-.816a73.34,73.34,0,0,1-11.62-6.286,61.776,61.776,0,0,1-10.863-9.165A57.8,57.8,0,0,1,1531.874,805c-.35-10.105,1.518-21.035,5.551-32.485l.535-1.522,1.606.158c1.715.169,3.5.254,5.3.254,9.859,0,19.9-2.568,26.2-6.7l1.123-.736.032.021,1.094.71c6.371,4.141,16.4,6.713,26.171,6.713a53.133,53.133,0,0,0,5.325-.262l1.61-.163.537,1.526a94.474,94.474,0,0,1,4.49,17.911c2.008,13.756.541,26.352-4.359,37.441" transform="translate(-14473.084 -23189.951)" fill="#fff"/>
      <path id="Trazado_188608" data-name="Trazado 188608" d="M1628.808,812.693a90.629,90.629,0,0,0-4.285-17.086c-11.191,1.129-23.988-1.4-32-6.6-7.984,5.236-20.832,7.705-32.008,6.6-5.539,15.728-11.773,44.367,9.546,67.2a63.713,63.713,0,0,0,22.458,15.1h0c15.089-6.178,26.462-16.858,32.188-29.815,5.527-12.506,5.6-25.116,4.1-35.4" transform="translate(-14493.415 -23211.754)" fill="#592fe6"/>
      <path id="Trazado_188609" data-name="Trazado 188609" d="M1630.848,916.016a63.256,63.256,0,0,1-9.068-5.005,52.544,52.544,0,0,1-9.24-7.788,48.88,48.88,0,0,1-10.1-16.058,51.567,51.567,0,0,1-3.215-16.527,76.052,76.052,0,0,1,3.649-24.815q.667.014,1.337.014c9.728,0,19.4-2.2,26.652-5.977,7.288,3.782,16.946,5.984,26.6,5.984q.682,0,1.36-.015a81.753,81.753,0,0,1,2.7,11.975,67.578,67.578,0,0,1,.547,15.556,52.527,52.527,0,0,1-4.222,16.729c-4.914,11.119-14.45,20.258-26.99,25.926" transform="translate(-14531.74 -23256.045)" fill="#88e0ef"/>
      <path id="Trazado_188611" data-name="Trazado 188611" d="M1744.234,1061.74v18.1c0,2.015,24.605,2.015,24.605,0v-18.1Zm13.547,9.611v5.129a1.245,1.245,0,1,1-2.489,0v-5.141a3.027,3.027,0,1,1,2.489.012" transform="translate(-14658.066 -23449.281)" fill="#592fe6"/>
      <path id="Trazado_188612" data-name="Trazado 188612" d="M1781.227,975.062h-2.491v-1.219a7.657,7.657,0,1,0-15.315,0v1.219h-2.491v-1.219a10.148,10.148,0,1,1,20.3,0Z" transform="translate(-14672.607 -23363.891)" fill="#592fe6"/>
      <path id="Trazado_190827" data-name="Trazado 190827" d="M0,0H451.825V303.887h0L0,310.3Z" transform="translate(-13139 -22524.58)" fill="none"/>
    </g>
  </g>
</svg>
